%TF.GenerationSoftware,KiCad,Pcbnew,8.0.1*%
%TF.CreationDate,2024-07-21T18:11:55+02:00*%
%TF.ProjectId,LineFollower_V2,4c696e65-466f-46c6-9c6f-7765725f5632,rev?*%
%TF.SameCoordinates,Original*%
%TF.FileFunction,Copper,L1,Top*%
%TF.FilePolarity,Positive*%
%FSLAX46Y46*%
G04 Gerber Fmt 4.6, Leading zero omitted, Abs format (unit mm)*
G04 Created by KiCad (PCBNEW 8.0.1) date 2024-07-21 18:11:55*
%MOMM*%
%LPD*%
G01*
G04 APERTURE LIST*
G04 Aperture macros list*
%AMRoundRect*
0 Rectangle with rounded corners*
0 $1 Rounding radius*
0 $2 $3 $4 $5 $6 $7 $8 $9 X,Y pos of 4 corners*
0 Add a 4 corners polygon primitive as box body*
4,1,4,$2,$3,$4,$5,$6,$7,$8,$9,$2,$3,0*
0 Add four circle primitives for the rounded corners*
1,1,$1+$1,$2,$3*
1,1,$1+$1,$4,$5*
1,1,$1+$1,$6,$7*
1,1,$1+$1,$8,$9*
0 Add four rect primitives between the rounded corners*
20,1,$1+$1,$2,$3,$4,$5,0*
20,1,$1+$1,$4,$5,$6,$7,0*
20,1,$1+$1,$6,$7,$8,$9,0*
20,1,$1+$1,$8,$9,$2,$3,0*%
%AMRotRect*
0 Rectangle, with rotation*
0 The origin of the aperture is its center*
0 $1 length*
0 $2 width*
0 $3 Rotation angle, in degrees counterclockwise*
0 Add horizontal line*
21,1,$1,$2,0,0,$3*%
G04 Aperture macros list end*
%TA.AperFunction,Conductor*%
%ADD10C,0.160000*%
%TD*%
%TA.AperFunction,SMDPad,CuDef*%
%ADD11R,1.525000X0.650000*%
%TD*%
%TA.AperFunction,SMDPad,CuDef*%
%ADD12R,2.400000X3.100000*%
%TD*%
%TA.AperFunction,SMDPad,CuDef*%
%ADD13R,0.650000X1.525000*%
%TD*%
%TA.AperFunction,SMDPad,CuDef*%
%ADD14R,3.100000X2.400000*%
%TD*%
%TA.AperFunction,SMDPad,CuDef*%
%ADD15RoundRect,0.225000X-0.225000X-0.250000X0.225000X-0.250000X0.225000X0.250000X-0.225000X0.250000X0*%
%TD*%
%TA.AperFunction,SMDPad,CuDef*%
%ADD16RoundRect,0.225000X0.250000X-0.225000X0.250000X0.225000X-0.250000X0.225000X-0.250000X-0.225000X0*%
%TD*%
%TA.AperFunction,SMDPad,CuDef*%
%ADD17R,1.650000X0.400000*%
%TD*%
%TA.AperFunction,SMDPad,CuDef*%
%ADD18RoundRect,0.225000X0.225000X0.250000X-0.225000X0.250000X-0.225000X-0.250000X0.225000X-0.250000X0*%
%TD*%
%TA.AperFunction,ComponentPad*%
%ADD19C,1.524000*%
%TD*%
%TA.AperFunction,SMDPad,CuDef*%
%ADD20RotRect,1.500000X1.000000X313.000000*%
%TD*%
%TA.AperFunction,SMDPad,CuDef*%
%ADD21RoundRect,0.250000X0.475000X-0.250000X0.475000X0.250000X-0.475000X0.250000X-0.475000X-0.250000X0*%
%TD*%
%TA.AperFunction,SMDPad,CuDef*%
%ADD22R,0.250000X1.825000*%
%TD*%
%TA.AperFunction,SMDPad,CuDef*%
%ADD23R,0.600000X0.250000*%
%TD*%
%TA.AperFunction,SMDPad,CuDef*%
%ADD24R,0.250000X0.600000*%
%TD*%
%TA.AperFunction,SMDPad,CuDef*%
%ADD25R,2.808000X1.282500*%
%TD*%
%TA.AperFunction,SMDPad,CuDef*%
%ADD26RoundRect,0.200000X0.200000X0.275000X-0.200000X0.275000X-0.200000X-0.275000X0.200000X-0.275000X0*%
%TD*%
%TA.AperFunction,SMDPad,CuDef*%
%ADD27RoundRect,0.200000X-0.200000X-0.275000X0.200000X-0.275000X0.200000X0.275000X-0.200000X0.275000X0*%
%TD*%
%TA.AperFunction,SMDPad,CuDef*%
%ADD28RoundRect,0.250000X-0.475000X0.250000X-0.475000X-0.250000X0.475000X-0.250000X0.475000X0.250000X0*%
%TD*%
%TA.AperFunction,SMDPad,CuDef*%
%ADD29RoundRect,0.225000X-0.250000X0.225000X-0.250000X-0.225000X0.250000X-0.225000X0.250000X0.225000X0*%
%TD*%
%TA.AperFunction,SMDPad,CuDef*%
%ADD30RotRect,1.500000X1.000000X47.000000*%
%TD*%
%TA.AperFunction,SMDPad,CuDef*%
%ADD31R,1.000000X2.000000*%
%TD*%
%TA.AperFunction,SMDPad,CuDef*%
%ADD32R,0.280000X0.665000*%
%TD*%
%TA.AperFunction,SMDPad,CuDef*%
%ADD33R,0.665000X0.280000*%
%TD*%
%TA.AperFunction,SMDPad,CuDef*%
%ADD34R,1.070000X0.532000*%
%TD*%
%TA.AperFunction,SMDPad,CuDef*%
%ADD35R,1.920000X0.840000*%
%TD*%
%TA.AperFunction,SMDPad,CuDef*%
%ADD36O,0.630000X1.865000*%
%TD*%
%TA.AperFunction,SMDPad,CuDef*%
%ADD37RotRect,0.840000X1.920000X45.000000*%
%TD*%
%TA.AperFunction,SMDPad,CuDef*%
%ADD38RoundRect,0.200000X-0.275000X0.200000X-0.275000X-0.200000X0.275000X-0.200000X0.275000X0.200000X0*%
%TD*%
%TA.AperFunction,SMDPad,CuDef*%
%ADD39R,0.900000X0.900000*%
%TD*%
%TA.AperFunction,SMDPad,CuDef*%
%ADD40R,1.500000X0.900000*%
%TD*%
%TA.AperFunction,SMDPad,CuDef*%
%ADD41R,0.900000X1.500000*%
%TD*%
%TA.AperFunction,ComponentPad*%
%ADD42C,1.800000*%
%TD*%
%TA.AperFunction,SMDPad,CuDef*%
%ADD43RoundRect,0.200000X0.275000X-0.200000X0.275000X0.200000X-0.275000X0.200000X-0.275000X-0.200000X0*%
%TD*%
%TA.AperFunction,SMDPad,CuDef*%
%ADD44R,6.500000X6.000000*%
%TD*%
%TA.AperFunction,SMDPad,CuDef*%
%ADD45R,3.000000X1.600000*%
%TD*%
%TA.AperFunction,SMDPad,CuDef*%
%ADD46R,0.300000X1.250000*%
%TD*%
%TA.AperFunction,SMDPad,CuDef*%
%ADD47R,1.800000X2.200000*%
%TD*%
%TA.AperFunction,SMDPad,CuDef*%
%ADD48R,6.500000X1.580000*%
%TD*%
%TA.AperFunction,SMDPad,CuDef*%
%ADD49R,0.806500X0.864000*%
%TD*%
%TA.AperFunction,SMDPad,CuDef*%
%ADD50R,0.900000X0.400000*%
%TD*%
%TA.AperFunction,SMDPad,CuDef*%
%ADD51R,2.700000X2.050000*%
%TD*%
%TA.AperFunction,ComponentPad*%
%ADD52C,1.700000*%
%TD*%
%TA.AperFunction,ComponentPad*%
%ADD53R,1.700000X1.700000*%
%TD*%
%TA.AperFunction,SMDPad,CuDef*%
%ADD54R,1.150000X0.300000*%
%TD*%
%TA.AperFunction,ComponentPad*%
%ADD55O,1.800000X1.100000*%
%TD*%
%TA.AperFunction,ComponentPad*%
%ADD56O,2.100000X1.100000*%
%TD*%
%TA.AperFunction,SMDPad,CuDef*%
%ADD57R,0.800000X0.800000*%
%TD*%
%TA.AperFunction,ComponentPad*%
%ADD58C,2.800000*%
%TD*%
%TA.AperFunction,ComponentPad*%
%ADD59R,2.800000X2.800000*%
%TD*%
%TA.AperFunction,ViaPad*%
%ADD60C,0.650000*%
%TD*%
%TA.AperFunction,ViaPad*%
%ADD61C,0.600000*%
%TD*%
%TA.AperFunction,Conductor*%
%ADD62C,0.200000*%
%TD*%
%TA.AperFunction,Conductor*%
%ADD63C,0.500000*%
%TD*%
%TA.AperFunction,Conductor*%
%ADD64C,0.250000*%
%TD*%
%TA.AperFunction,Conductor*%
%ADD65C,1.000000*%
%TD*%
%TA.AperFunction,Conductor*%
%ADD66C,0.150000*%
%TD*%
%TA.AperFunction,Conductor*%
%ADD67C,0.152400*%
%TD*%
%TA.AperFunction,Conductor*%
%ADD68C,1.800000*%
%TD*%
G04 APERTURE END LIST*
D10*
%TO.N,GND*%
X134900000Y-48707500D02*
X135500000Y-48207500D01*
%TD*%
D11*
%TO.P,IC14,1,GND*%
%TO.N,GND*%
X150538000Y-91595000D03*
%TO.P,IC14,2,IN2*%
%TO.N,R_IN_2*%
X150538000Y-92865000D03*
%TO.P,IC14,3,IN1*%
%TO.N,R_IN_1*%
X150538000Y-94135000D03*
%TO.P,IC14,4,NFAULT*%
%TO.N,unconnected-(IC14-NFAULT-Pad4)*%
X150538000Y-95405000D03*
%TO.P,IC14,5,VM*%
%TO.N,VCC*%
X155962000Y-95405000D03*
%TO.P,IC14,6,OUT1*%
%TO.N,I_SENS_2_IN*%
X155962000Y-94135000D03*
%TO.P,IC14,7,ISEN*%
%TO.N,GND*%
X155962000Y-92865000D03*
%TO.P,IC14,8,OUT2*%
%TO.N,Net-(IC14-OUT2)*%
X155962000Y-91595000D03*
D12*
%TO.P,IC14,9,EP*%
%TO.N,GND*%
X153250000Y-93500000D03*
%TD*%
D13*
%TO.P,IC13,1,GND*%
%TO.N,GND*%
X128405000Y-92038000D03*
%TO.P,IC13,2,IN2*%
%TO.N,L_IN_2*%
X127135000Y-92038000D03*
%TO.P,IC13,3,IN1*%
%TO.N,L_IN_1*%
X125865000Y-92038000D03*
%TO.P,IC13,4,NFAULT*%
%TO.N,unconnected-(IC13-NFAULT-Pad4)*%
X124595000Y-92038000D03*
%TO.P,IC13,5,VM*%
%TO.N,VCC*%
X124595000Y-97462000D03*
%TO.P,IC13,6,OUT1*%
%TO.N,I_SENS_1_IN*%
X125865000Y-97462000D03*
%TO.P,IC13,7,ISEN*%
%TO.N,GND*%
X127135000Y-97462000D03*
%TO.P,IC13,8,OUT2*%
%TO.N,Net-(IC13-OUT2)*%
X128405000Y-97462000D03*
D14*
%TO.P,IC13,9,EP*%
%TO.N,GND*%
X126500000Y-94750000D03*
%TD*%
D15*
%TO.P,C38,1*%
%TO.N,GND*%
X101700000Y-96500000D03*
%TO.P,C38,2*%
%TO.N,VCC*%
X103250000Y-96500000D03*
%TD*%
%TO.P,C37,1*%
%TO.N,GND*%
X101700000Y-93990000D03*
%TO.P,C37,2*%
%TO.N,VCC*%
X103250000Y-93990000D03*
%TD*%
D16*
%TO.P,C6,2,2*%
%TO.N,GND*%
X138500000Y-60000000D03*
%TO.P,C6,1,1*%
%TO.N,3V3*%
X138500000Y-61550000D03*
%TD*%
D17*
%TO.P,IC9,24,VCC*%
%TO.N,3V3*%
X129752500Y-75350000D03*
%TO.P,IC9,23,SDA*%
%TO.N,SDA*%
X129752500Y-76000000D03*
%TO.P,IC9,22,SCL*%
%TO.N,SCL*%
X129752500Y-76650000D03*
%TO.P,IC9,21,A2*%
%TO.N,GND*%
X129752500Y-77300000D03*
%TO.P,IC9,20,SC7*%
%TO.N,unconnected-(IC9-SC7-Pad20)*%
X129752500Y-77950000D03*
%TO.P,IC9,19,SD7*%
%TO.N,unconnected-(IC9-SD7-Pad19)*%
X129752500Y-78600000D03*
%TO.P,IC9,18,SC6*%
%TO.N,unconnected-(IC9-SC6-Pad18)*%
X129752500Y-79250000D03*
%TO.P,IC9,17,SD6*%
%TO.N,unconnected-(IC9-SD6-Pad17)*%
X129752500Y-79900000D03*
%TO.P,IC9,16,SC5*%
%TO.N,unconnected-(IC9-SC5-Pad16)*%
X129752500Y-80550000D03*
%TO.P,IC9,15,SD5*%
%TO.N,unconnected-(IC9-SD5-Pad15)*%
X129752500Y-81200000D03*
%TO.P,IC9,14,SC4*%
%TO.N,unconnected-(IC9-SC4-Pad14)*%
X129752500Y-81850000D03*
%TO.P,IC9,13,SD4*%
%TO.N,unconnected-(IC9-SD4-Pad13)*%
X129752500Y-82500000D03*
%TO.P,IC9,12,GND*%
%TO.N,GND*%
X123707500Y-82500000D03*
%TO.P,IC9,11,SC3*%
%TO.N,unconnected-(IC9-SC3-Pad11)*%
X123707500Y-81850000D03*
%TO.P,IC9,10,SD3*%
%TO.N,unconnected-(IC9-SD3-Pad10)*%
X123707500Y-81200000D03*
%TO.P,IC9,9,SC2*%
%TO.N,unconnected-(IC9-SC2-Pad9)*%
X123707500Y-80550000D03*
%TO.P,IC9,8,SD2*%
%TO.N,unconnected-(IC9-SD2-Pad8)*%
X123707500Y-79900000D03*
%TO.P,IC9,7,SC1*%
%TO.N,SCL_R*%
X123707500Y-79250000D03*
%TO.P,IC9,6,SD1*%
%TO.N,SDA_R*%
X123707500Y-78600000D03*
%TO.P,IC9,5,SC0*%
%TO.N,SCL_L*%
X123707500Y-77950000D03*
%TO.P,IC9,4,SD0*%
%TO.N,SDA_L*%
X123707500Y-77300000D03*
%TO.P,IC9,3,RESET#*%
%TO.N,I2C_RST*%
X123707500Y-76650000D03*
%TO.P,IC9,2,A1*%
%TO.N,GND*%
X123707500Y-76000000D03*
%TO.P,IC9,1,A0*%
X123707500Y-75350000D03*
%TD*%
D18*
%TO.P,C27,2,2*%
%TO.N,GND*%
X128225000Y-74000000D03*
%TO.P,C27,1,1*%
%TO.N,3V3*%
X129775000Y-74000000D03*
%TD*%
D19*
%TO.P,U2,10,10*%
%TO.N,GND*%
X130502500Y-69000000D03*
%TO.P,U2,9,9*%
X130502500Y-70999000D03*
%TO.P,U2,8,8*%
%TO.N,3V3*%
X128498000Y-69000000D03*
%TO.P,U2,7,7*%
X128498000Y-70999000D03*
%TO.P,U2,6,6*%
%TO.N,SDA_R*%
X126499000Y-69000000D03*
%TO.P,U2,5,5*%
%TO.N,SCL_R*%
X126499000Y-70999000D03*
%TO.P,U2,4,4*%
%TO.N,SDA_L*%
X124500000Y-69000000D03*
%TO.P,U2,3,3*%
%TO.N,SCL_L*%
X124500000Y-70999000D03*
%TO.P,U2,2,2*%
%TO.N,unconnected-(U2-Pad2)*%
X122498500Y-69000000D03*
%TO.P,U2,1,1*%
%TO.N,unconnected-(U2-Pad1)*%
X122498500Y-70999000D03*
%TD*%
D20*
%TO.P,LED11,1,VDD*%
%TO.N,+5V*%
X186958525Y-61908006D03*
%TO.P,LED11,2,DO*%
%TO.N,Net-(LED10-DIN)*%
X184545057Y-64158601D03*
%TO.P,LED11,3,GND*%
%TO.N,GND*%
X187955049Y-67815370D03*
%TO.P,LED11,4,DIN*%
%TO.N,Net-(LED11-DIN)*%
X190368517Y-65564775D03*
%TD*%
D21*
%TO.P,C20,2,2*%
%TO.N,VCC*%
X191380000Y-86967500D03*
%TO.P,C20,1,1*%
%TO.N,GND*%
X191380000Y-88867500D03*
%TD*%
D22*
%TO.P,IC3,12,SW*%
%TO.N,BOOT_3V3*%
X168200000Y-89412500D03*
D23*
%TO.P,IC3,11,PGND*%
%TO.N,GND*%
X169100000Y-88962500D03*
%TO.P,IC3,10,VIN*%
%TO.N,VCC*%
X169100000Y-89612500D03*
%TO.P,IC3,9,EN*%
X169100000Y-90262500D03*
%TO.P,IC3,8,PG*%
%TO.N,PG_3V3*%
X169100000Y-90762500D03*
D24*
%TO.P,IC3,7,FB*%
%TO.N,Net-(IC3-FB)*%
X168700000Y-91487500D03*
%TO.P,IC3,6,AGND*%
%TO.N,GND*%
X168200000Y-91487500D03*
%TO.P,IC3,5,VCC*%
%TO.N,Net-(IC3-VCC)*%
X167700000Y-91487500D03*
D23*
%TO.P,IC3,4,BOOT*%
%TO.N,Net-(IC3-BOOT)*%
X167300000Y-90762500D03*
%TO.P,IC3,3,NC*%
%TO.N,BOOT_3V3*%
X167300000Y-90262500D03*
%TO.P,IC3,2,VIN*%
%TO.N,VCC*%
X167300000Y-89612500D03*
%TO.P,IC3,1,PGND*%
%TO.N,GND*%
X167300000Y-88962500D03*
%TD*%
D16*
%TO.P,C5,2,2*%
%TO.N,GND*%
X136990000Y-60000000D03*
%TO.P,C5,1,1*%
%TO.N,3V3*%
X136990000Y-61550000D03*
%TD*%
D25*
%TO.P,R22,2,2*%
%TO.N,I_SENS_1_OUT*%
X124600000Y-103921000D03*
%TO.P,R22,1,1*%
%TO.N,I_SENS_1_IN*%
X124600000Y-101039000D03*
%TD*%
D26*
%TO.P,R6,2,2*%
%TO.N,Net-(IC3-VCC)*%
X171125000Y-96200000D03*
%TO.P,R6,1,1*%
%TO.N,PG_3V3*%
X172775000Y-96200000D03*
%TD*%
D21*
%TO.P,C24,2,2*%
%TO.N,GND*%
X192130000Y-93892500D03*
%TO.P,C24,1,1*%
%TO.N,+5V*%
X192130000Y-95792500D03*
%TD*%
D27*
%TO.P,R9,2,2*%
%TO.N,Net-(IC3-FB)*%
X172775000Y-94700000D03*
%TO.P,R9,1,1*%
%TO.N,GND*%
X171125000Y-94700000D03*
%TD*%
D26*
%TO.P,R11,2,2*%
%TO.N,Net-(IC4-FB)*%
X182305000Y-82167500D03*
%TO.P,R11,1,1*%
%TO.N,GND*%
X183955000Y-82167500D03*
%TD*%
D28*
%TO.P,C25,2,2*%
%TO.N,GND*%
X164200000Y-83175000D03*
%TO.P,C25,1,1*%
%TO.N,3V3_SWITCHING_OUT*%
X164200000Y-81275000D03*
%TD*%
D29*
%TO.P,C8,2,2*%
%TO.N,ESP_RST*%
X133800000Y-61575000D03*
%TO.P,C8,1,1*%
%TO.N,GND*%
X133800000Y-60025000D03*
%TD*%
D30*
%TO.P,LED7,1,VDD*%
%TO.N,+5V*%
X115607004Y-41978618D03*
%TO.P,LED7,2,DO*%
%TO.N,Net-(LED6-DIN)*%
X118020472Y-44229213D03*
%TO.P,LED7,3,GND*%
%TO.N,GND*%
X121430464Y-40572444D03*
%TO.P,LED7,4,DIN*%
%TO.N,Net-(LED7-DIN)*%
X119016996Y-38321849D03*
%TD*%
D31*
%TO.P,IC8,17,PAD*%
%TO.N,GND*%
X151907500Y-43500000D03*
D32*
%TO.P,IC8,16,VCC*%
%TO.N,3V3*%
X152157500Y-41842500D03*
D33*
%TO.P,IC8,15,CE#*%
%TO.N,GND*%
X153065000Y-42250000D03*
%TO.P,IC8,14,D3*%
%TO.N,DIR4*%
X153065000Y-42750000D03*
%TO.P,IC8,13,D2*%
%TO.N,DIR3*%
X153065000Y-43250000D03*
%TO.P,IC8,12,D1*%
%TO.N,DIR2*%
X153065000Y-43750000D03*
%TO.P,IC8,11,D0*%
%TO.N,DIR1*%
X153065000Y-44250000D03*
%TO.P,IC8,10,DS*%
%TO.N,unconnected-(IC8-DS-Pad10)*%
X153065000Y-44750000D03*
D32*
%TO.P,IC8,9,Q7*%
%TO.N,Net-(IC7-DS)*%
X152157500Y-45157500D03*
%TO.P,IC8,8,GND*%
%TO.N,GND*%
X151657500Y-45157500D03*
D33*
%TO.P,IC8,7,Q7#*%
%TO.N,unconnected-(IC8-Q7#-Pad7)*%
X150750000Y-44750000D03*
%TO.P,IC8,6,D7*%
%TO.N,DIR8*%
X150750000Y-44250000D03*
%TO.P,IC8,5,D6*%
%TO.N,DIR7*%
X150750000Y-43750000D03*
%TO.P,IC8,4,D5*%
%TO.N,DIR6*%
X150750000Y-43250000D03*
%TO.P,IC8,3,D4*%
%TO.N,DIR5*%
X150750000Y-42750000D03*
%TO.P,IC8,2,CP*%
%TO.N,CLK_Shift*%
X150750000Y-42250000D03*
D32*
%TO.P,IC8,1,PL#*%
%TO.N,LOAD_Shift*%
X151657500Y-41842500D03*
%TD*%
D29*
%TO.P,C29,2,2*%
%TO.N,GND*%
X114500000Y-92441000D03*
%TO.P,C29,1,1*%
%TO.N,3V3*%
X114500000Y-90891000D03*
%TD*%
D26*
%TO.P,R18,2,2*%
%TO.N,3V3*%
X119175000Y-79750000D03*
%TO.P,R18,1,1*%
%TO.N,SDA_R*%
X120825000Y-79750000D03*
%TD*%
D25*
%TO.P,R21,2,2*%
%TO.N,I_SENS_2_IN*%
X144200000Y-112534000D03*
%TO.P,R21,1,1*%
%TO.N,I_SENS_2_OUT*%
X144200000Y-115416000D03*
%TD*%
D21*
%TO.P,C26,2,2*%
%TO.N,GND*%
X181880000Y-93892500D03*
%TO.P,C26,1,1*%
%TO.N,+5V*%
X181880000Y-95792500D03*
%TD*%
D15*
%TO.P,C34,2,2*%
%TO.N,GND*%
X146375000Y-45800000D03*
%TO.P,C34,1,1*%
%TO.N,3V3*%
X144825000Y-45800000D03*
%TD*%
%TO.P,C36,2,2*%
%TO.N,GND*%
X133375000Y-40000000D03*
%TO.P,C36,1,1*%
%TO.N,3V3*%
X131825000Y-40000000D03*
%TD*%
D26*
%TO.P,R20,2,2*%
%TO.N,Net-(IC10A-INPUT1(+))*%
X163225000Y-131400000D03*
%TO.P,R20,1,1*%
%TO.N,GND*%
X164875000Y-131400000D03*
%TD*%
D34*
%TO.P,Q1,3,C*%
%TO.N,Net-(LED1-C)*%
X164065000Y-96950000D03*
%TO.P,Q1,2,E*%
%TO.N,GND*%
X166335000Y-95995000D03*
%TO.P,Q1,1,B*%
%TO.N,PG_3V3*%
X166335000Y-97905000D03*
%TD*%
D35*
%TO.P,SW2,2,B*%
%TO.N,GND*%
X130390000Y-64400000D03*
%TO.P,SW2,1,A*%
%TO.N,ESP_RST*%
X138010000Y-64400000D03*
%TD*%
D30*
%TO.P,LED3,1,VDD*%
%TO.N,+5V*%
X86281075Y-73426827D03*
%TO.P,LED3,2,DO*%
%TO.N,unconnected-(LED3-DO-Pad2)*%
X88694543Y-75677422D03*
%TO.P,LED3,3,GND*%
%TO.N,GND*%
X92104535Y-72020653D03*
%TO.P,LED3,4,DIN*%
%TO.N,Net-(LED3-DIN)*%
X89691067Y-69770058D03*
%TD*%
D18*
%TO.P,C21,2,2*%
%TO.N,Net-(IC3-FB)*%
X171175000Y-93200000D03*
%TO.P,C21,1,1*%
%TO.N,3V3_SWITCHING_OUT*%
X172725000Y-93200000D03*
%TD*%
D36*
%TO.P,IC10,8,Vcc*%
%TO.N,3V3*%
X160895000Y-124217500D03*
%TO.P,IC10,7,OUTPUT2*%
%TO.N,unconnected-(IC10B-OUTPUT2-Pad7)*%
X162165000Y-124217500D03*
%TO.P,IC10,6,INPUT2(-)*%
%TO.N,unconnected-(IC10B-INPUT2(-)-Pad6)*%
X163435000Y-124217500D03*
%TO.P,IC10,5,INPUT2(+*%
%TO.N,unconnected-(IC10B-INPUT2(+-Pad5)*%
X164705000Y-124217500D03*
%TO.P,IC10,4,VEE_/_GND*%
%TO.N,GND*%
X164705000Y-129582500D03*
%TO.P,IC10,3,INPUT1(+)*%
%TO.N,Net-(IC10A-INPUT1(+))*%
X163435000Y-129582500D03*
%TO.P,IC10,2,INPUT1(-)*%
%TO.N,MIDPOINT_REF*%
X162165000Y-129582500D03*
%TO.P,IC10,1,OUTPUT_1*%
X160895000Y-129582500D03*
%TD*%
D26*
%TO.P,R19,2,2*%
%TO.N,3V3*%
X160225000Y-131400000D03*
%TO.P,R19,1,1*%
%TO.N,Net-(IC10A-INPUT1(+))*%
X161875000Y-131400000D03*
%TD*%
%TO.P,R16,2,2*%
%TO.N,3V3*%
X119175000Y-77750000D03*
%TO.P,R16,1,1*%
%TO.N,SCL_L*%
X120825000Y-77750000D03*
%TD*%
D37*
%TO.P,SW1,2,B*%
%TO.N,GND*%
X163805923Y-67055923D03*
%TO.P,SW1,1,A*%
%TO.N,ESP_BOOT0*%
X169194077Y-72444077D03*
%TD*%
D34*
%TO.P,Q2,3,C*%
%TO.N,Net-(LED2-C)*%
X178620000Y-79667500D03*
%TO.P,Q2,2,E*%
%TO.N,GND*%
X180890000Y-78712500D03*
%TO.P,Q2,1,B*%
%TO.N,PG_5V*%
X180890000Y-80622500D03*
%TD*%
D31*
%TO.P,IC5,17,PAD*%
%TO.N,GND*%
X134657500Y-49500000D03*
D32*
%TO.P,IC5,16,VCC*%
%TO.N,3V3*%
X134907500Y-47842500D03*
D33*
%TO.P,IC5,15,CE#*%
%TO.N,GND*%
X135815000Y-48250000D03*
%TO.P,IC5,14,D3*%
%TO.N,DIR20*%
X135815000Y-48750000D03*
%TO.P,IC5,13,D2*%
%TO.N,DIR19*%
X135815000Y-49250000D03*
%TO.P,IC5,12,D1*%
%TO.N,DIR18*%
X135815000Y-49750000D03*
%TO.P,IC5,11,D0*%
%TO.N,DIR17*%
X135815000Y-50250000D03*
%TO.P,IC5,10,DS*%
%TO.N,Net-(IC5-DS)*%
X135815000Y-50750000D03*
D32*
%TO.P,IC5,9,Q7*%
%TO.N,Net-(IC5-Q7)*%
X134907500Y-51157500D03*
%TO.P,IC5,8,GND*%
%TO.N,GND*%
X134407500Y-51157500D03*
D33*
%TO.P,IC5,7,Q7#*%
%TO.N,unconnected-(IC5-Q7#-Pad7)*%
X133500000Y-50750000D03*
%TO.P,IC5,6,D7*%
%TO.N,DIR24*%
X133500000Y-50250000D03*
%TO.P,IC5,5,D6*%
%TO.N,DIR23*%
X133500000Y-49750000D03*
%TO.P,IC5,4,D5*%
%TO.N,DIR22*%
X133500000Y-49250000D03*
%TO.P,IC5,3,D4*%
%TO.N,DIR21*%
X133500000Y-48750000D03*
%TO.P,IC5,2,CP*%
%TO.N,CLK_Shift*%
X133500000Y-48250000D03*
D32*
%TO.P,IC5,1,PL#*%
%TO.N,LOAD_Shift*%
X134407500Y-47842500D03*
%TD*%
D38*
%TO.P,R5,2,2*%
%TO.N,VCC*%
X177505000Y-85492500D03*
%TO.P,R5,1,1*%
%TO.N,Net-(LED2-A)*%
X177505000Y-83842500D03*
%TD*%
D29*
%TO.P,C17,2,2*%
%TO.N,VCC*%
X170700000Y-89825000D03*
%TO.P,C17,1,1*%
%TO.N,GND*%
X170700000Y-88275000D03*
%TD*%
D26*
%TO.P,R12,2,2*%
%TO.N,3V3*%
X119175000Y-74250000D03*
%TO.P,R12,1,1*%
%TO.N,I2C_RST*%
X120825000Y-74250000D03*
%TD*%
D20*
%TO.P,LED8,1,VDD*%
%TO.N,+5V*%
X164964078Y-38321849D03*
%TO.P,LED8,2,DO*%
%TO.N,Net-(LED7-DIN)*%
X162550610Y-40572444D03*
%TO.P,LED8,3,GND*%
%TO.N,GND*%
X165960602Y-44229213D03*
%TO.P,LED8,4,DIN*%
%TO.N,Net-(LED8-DIN)*%
X168374070Y-41978618D03*
%TD*%
D16*
%TO.P,C11,2,2*%
%TO.N,GND*%
X165700000Y-88200000D03*
%TO.P,C11,1,1*%
%TO.N,VCC*%
X165700000Y-89750000D03*
%TD*%
D38*
%TO.P,R7,2,2*%
%TO.N,Net-(IC4-VCC)*%
X189630000Y-82992500D03*
%TO.P,R7,1,1*%
%TO.N,PG_5V*%
X189630000Y-81342500D03*
%TD*%
%TO.P,R3,2,2*%
%TO.N,3V3*%
X135400000Y-61625000D03*
%TO.P,R3,1,1*%
%TO.N,ESP_RST*%
X135400000Y-59975000D03*
%TD*%
D39*
%TO.P,IC2,41,GND*%
%TO.N,GND*%
X149096250Y-69663500D03*
X149096250Y-68263500D03*
X149096250Y-66863500D03*
X147696250Y-69663500D03*
X147696250Y-68263500D03*
X147696250Y-66863500D03*
X146296250Y-69663500D03*
X146296250Y-68263500D03*
X146296250Y-66863500D03*
D40*
%TO.P,IC2,40,GND*%
X157946250Y-60543500D03*
%TO.P,IC2,39,IO1*%
%TO.N,LOAD_Shift*%
X157946250Y-61813500D03*
%TO.P,IC2,38,IO2*%
%TO.N,CLK_Shift*%
X157946250Y-63083500D03*
%TO.P,IC2,37,TXD0*%
%TO.N,unconnected-(IC2-TXD0-Pad37)*%
X157946250Y-64353500D03*
%TO.P,IC2,36,RXD0*%
%TO.N,unconnected-(IC2-RXD0-Pad36)*%
X157946250Y-65623500D03*
%TO.P,IC2,35,IO42*%
%TO.N,unconnected-(IC2-IO42-Pad35)*%
X157946250Y-66893500D03*
%TO.P,IC2,34,IO41*%
%TO.N,unconnected-(IC2-IO41-Pad34)*%
X157946250Y-68163500D03*
%TO.P,IC2,33,IO40*%
%TO.N,unconnected-(IC2-IO40-Pad33)*%
X157946250Y-69433500D03*
%TO.P,IC2,32,IO39*%
%TO.N,unconnected-(IC2-IO39-Pad32)*%
X157946250Y-70703500D03*
%TO.P,IC2,31,IO38*%
%TO.N,unconnected-(IC2-IO38-Pad31)*%
X157946250Y-71973500D03*
%TO.P,IC2,30,IO37*%
%TO.N,unconnected-(IC2-IO37-Pad30)*%
X157946250Y-73243500D03*
%TO.P,IC2,29,IO36*%
%TO.N,unconnected-(IC2-IO36-Pad29)*%
X157946250Y-74513500D03*
%TO.P,IC2,28,IO35*%
%TO.N,RGB_DATA*%
X157946250Y-75783500D03*
%TO.P,IC2,27,IO0*%
%TO.N,ESP_BOOT0*%
X157946250Y-77053500D03*
D41*
%TO.P,IC2,26,IO45*%
%TO.N,unconnected-(IC2-IO45-Pad26)*%
X156181250Y-78303500D03*
%TO.P,IC2,25,IO34*%
%TO.N,unconnected-(IC2-IO34-Pad25)*%
X154911250Y-78333500D03*
%TO.P,IC2,24,IO33*%
%TO.N,unconnected-(IC2-IO33-Pad24)*%
X153641250Y-78333500D03*
%TO.P,IC2,23,IO21*%
%TO.N,unconnected-(IC2-IO21-Pad23)*%
X152371250Y-78333500D03*
%TO.P,IC2,22,IO14*%
%TO.N,unconnected-(IC2-IO14-Pad22)*%
X151101250Y-78333500D03*
%TO.P,IC2,21,IO13*%
%TO.N,unconnected-(IC2-IO13-Pad21)*%
X149831250Y-78333500D03*
%TO.P,IC2,20,IO12*%
%TO.N,unconnected-(IC2-IO12-Pad20)*%
X148561250Y-78333500D03*
%TO.P,IC2,19,IO11*%
%TO.N,unconnected-(IC2-IO11-Pad19)*%
X147291250Y-78333500D03*
%TO.P,IC2,18,IO10*%
%TO.N,unconnected-(IC2-IO10-Pad18)*%
X146021250Y-78333500D03*
%TO.P,IC2,17,IO9*%
%TO.N,SCL*%
X144751250Y-78333500D03*
%TO.P,IC2,16,IO46*%
%TO.N,unconnected-(IC2-IO46-Pad16)*%
X143481250Y-78333500D03*
%TO.P,IC2,15,IO3*%
%TO.N,unconnected-(IC2-IO3-Pad15)*%
X142211250Y-78333500D03*
D40*
%TO.P,IC2,14,IO20*%
%TO.N,USB_D-*%
X140446250Y-77053500D03*
%TO.P,IC2,13,IO19*%
%TO.N,USB_D+*%
X140446250Y-75783500D03*
%TO.P,IC2,12,IO8*%
%TO.N,SDA*%
X140446250Y-74513500D03*
%TO.P,IC2,11,IO18*%
%TO.N,I2C_RST*%
X140446250Y-73243500D03*
%TO.P,IC2,10,IO17*%
%TO.N,unconnected-(IC2-IO17-Pad10)*%
X140446250Y-71973500D03*
%TO.P,IC2,9,IO16*%
%TO.N,unconnected-(IC2-IO16-Pad9)*%
X140446250Y-70703500D03*
%TO.P,IC2,8,IO15*%
%TO.N,unconnected-(IC2-IO15-Pad8)*%
X140446250Y-69433500D03*
%TO.P,IC2,7,IO7*%
%TO.N,unconnected-(IC2-IO7-Pad7)*%
X140446250Y-68163500D03*
%TO.P,IC2,6,IO6*%
%TO.N,unconnected-(IC2-IO6-Pad6)*%
X140446250Y-66893500D03*
%TO.P,IC2,5,IO5*%
%TO.N,unconnected-(IC2-IO5-Pad5)*%
X140446250Y-65623500D03*
%TO.P,IC2,4,IO4*%
%TO.N,Shift_DATA*%
X140446250Y-64353500D03*
%TO.P,IC2,3,EN*%
%TO.N,ESP_RST*%
X140446250Y-63083500D03*
%TO.P,IC2,2,3V3*%
%TO.N,3V3*%
X140446250Y-61813500D03*
%TO.P,IC2,1,GND*%
%TO.N,GND*%
X140446250Y-60543500D03*
%TD*%
D27*
%TO.P,R14,2,2*%
%TO.N,3V3*%
X134575000Y-76000000D03*
%TO.P,R14,1,1*%
%TO.N,SDA*%
X132925000Y-76000000D03*
%TD*%
D28*
%TO.P,C15,2,2*%
%TO.N,GND*%
X182630000Y-88867500D03*
%TO.P,C15,1,1*%
%TO.N,VCC*%
X182630000Y-86967500D03*
%TD*%
D42*
%TO.P,CN1,2,2*%
%TO.N,I_SENS_1_OUT*%
X128480000Y-102500000D03*
%TO.P,CN1,1,1*%
%TO.N,Net-(IC13-OUT2)*%
X131020000Y-102500000D03*
%TD*%
D26*
%TO.P,R15,2,2*%
%TO.N,3V3*%
X119175000Y-81250000D03*
%TO.P,R15,1,1*%
%TO.N,SCL_R*%
X120825000Y-81250000D03*
%TD*%
D43*
%TO.P,R4,2,2*%
%TO.N,VCC*%
X163200000Y-91125000D03*
%TO.P,R4,1,1*%
%TO.N,Net-(LED1-A)*%
X163200000Y-92775000D03*
%TD*%
D22*
%TO.P,IC4,12,SW*%
%TO.N,BOOT_5V*%
X187000000Y-88800000D03*
D23*
%TO.P,IC4,11,PGND*%
%TO.N,GND*%
X186100000Y-89250000D03*
%TO.P,IC4,10,VIN*%
%TO.N,VCC*%
X186100000Y-88600000D03*
%TO.P,IC4,9,EN*%
X186100000Y-87950000D03*
%TO.P,IC4,8,PG*%
%TO.N,PG_5V*%
X186100000Y-87450000D03*
D24*
%TO.P,IC4,7,FB*%
%TO.N,Net-(IC4-FB)*%
X186500000Y-86725000D03*
%TO.P,IC4,6,AGND*%
%TO.N,GND*%
X187000000Y-86725000D03*
%TO.P,IC4,5,VCC*%
%TO.N,Net-(IC4-VCC)*%
X187500000Y-86725000D03*
D23*
%TO.P,IC4,4,BOOT*%
%TO.N,Net-(IC4-BOOT)*%
X187900000Y-87450000D03*
%TO.P,IC4,3,NC*%
%TO.N,BOOT_5V*%
X187900000Y-87950000D03*
%TO.P,IC4,2,VIN*%
%TO.N,VCC*%
X187900000Y-88600000D03*
%TO.P,IC4,1,PGND*%
%TO.N,GND*%
X187900000Y-89250000D03*
%TD*%
D44*
%TO.P,IC1,3,GND*%
%TO.N,GND*%
X97343000Y-85910998D03*
D45*
%TO.P,IC1,2,OUTPUT*%
%TO.N,3V3_LDO_OUT*%
X104028000Y-83625998D03*
%TO.P,IC1,1,INPUT*%
%TO.N,USB_VBUS*%
X104028000Y-88195998D03*
%TD*%
D16*
%TO.P,C10,2,2*%
%TO.N,GND*%
X188130000Y-82892500D03*
%TO.P,C10,1,1*%
%TO.N,Net-(IC4-VCC)*%
X188130000Y-84442500D03*
%TD*%
D30*
%TO.P,LED4,1,VDD*%
%TO.N,+5V*%
X93612557Y-65564775D03*
%TO.P,LED4,2,DO*%
%TO.N,Net-(LED3-DIN)*%
X96026025Y-67815370D03*
%TO.P,LED4,3,GND*%
%TO.N,GND*%
X99436017Y-64158601D03*
%TO.P,LED4,4,DIN*%
%TO.N,Net-(LED4-DIN)*%
X97022549Y-61908006D03*
%TD*%
D46*
%TO.P,CON1,1,1*%
%TO.N,GND*%
X151750000Y-37000000D03*
%TO.P,CON1,2,2*%
%TO.N,+5V*%
X151250000Y-37000000D03*
%TO.P,CON1,3,3*%
X150750000Y-37000000D03*
%TO.P,CON1,4,4*%
%TO.N,3V3*%
X150250000Y-37000000D03*
%TO.P,CON1,5,5*%
X149750000Y-37000000D03*
%TO.P,CON1,6,6*%
%TO.N,DIR1*%
X149250000Y-37000000D03*
%TO.P,CON1,7,7*%
%TO.N,DIR2*%
X148750000Y-37000000D03*
%TO.P,CON1,8,8*%
%TO.N,DIR3*%
X148250000Y-37000000D03*
%TO.P,CON1,9,9*%
%TO.N,DIR4*%
X147750000Y-37000000D03*
%TO.P,CON1,10,10*%
%TO.N,DIR5*%
X147250000Y-37000000D03*
%TO.P,CON1,11,11*%
%TO.N,DIR6*%
X146750000Y-37000000D03*
%TO.P,CON1,12,12*%
%TO.N,DIR7*%
X146250000Y-37000000D03*
%TO.P,CON1,13,13*%
%TO.N,DIR8*%
X145750000Y-37000000D03*
%TO.P,CON1,14,14*%
%TO.N,GND*%
X145250000Y-37000000D03*
%TO.P,CON1,15,15*%
%TO.N,DIR9*%
X144750000Y-37000000D03*
%TO.P,CON1,16,16*%
%TO.N,DIR10*%
X144250000Y-37000000D03*
%TO.P,CON1,17,17*%
%TO.N,DIR11*%
X143750000Y-37000000D03*
%TO.P,CON1,18,18*%
%TO.N,DIR12*%
X143250000Y-37000000D03*
%TO.P,CON1,19,19*%
%TO.N,DIR13*%
X142750000Y-37000000D03*
%TO.P,CON1,20,20*%
%TO.N,DIR14*%
X142250000Y-37000000D03*
%TO.P,CON1,21,21*%
%TO.N,DIR15*%
X141750000Y-37000000D03*
%TO.P,CON1,22,22*%
%TO.N,DIR16*%
X141250000Y-37000000D03*
%TO.P,CON1,23,23*%
%TO.N,GND*%
X140750000Y-37000000D03*
%TO.P,CON1,24,24*%
%TO.N,DIR17*%
X140250000Y-37000000D03*
%TO.P,CON1,25,25*%
%TO.N,DIR18*%
X139750000Y-37000000D03*
%TO.P,CON1,26,26*%
%TO.N,DIR19*%
X139250000Y-37000000D03*
%TO.P,CON1,27,27*%
%TO.N,DIR20*%
X138750000Y-37000000D03*
%TO.P,CON1,28,28*%
%TO.N,DIR21*%
X138250000Y-37000000D03*
%TO.P,CON1,29,29*%
%TO.N,DIR22*%
X137750000Y-37000000D03*
%TO.P,CON1,30,30*%
%TO.N,DIR23*%
X137250000Y-37000000D03*
%TO.P,CON1,31,31*%
%TO.N,DIR24*%
X136750000Y-37000000D03*
%TO.P,CON1,32,32*%
%TO.N,GND*%
X136250000Y-37000000D03*
%TO.P,CON1,33,33*%
%TO.N,DIR25*%
X135750000Y-37000000D03*
%TO.P,CON1,34,34*%
%TO.N,DIR26*%
X135250000Y-37000000D03*
%TO.P,CON1,35,35*%
%TO.N,DIR27*%
X134750000Y-37000000D03*
%TO.P,CON1,36,36*%
%TO.N,DIR28*%
X134250000Y-37000000D03*
%TO.P,CON1,37,37*%
%TO.N,DIR29*%
X133750000Y-37000000D03*
%TO.P,CON1,38,38*%
%TO.N,DIR30*%
X133250000Y-37000000D03*
%TO.P,CON1,39,39*%
%TO.N,DIR31*%
X132750000Y-37000000D03*
%TO.P,CON1,40,40*%
%TO.N,DIR32*%
X132250000Y-37000000D03*
D47*
%TO.P,CON1,41,41*%
%TO.N,unconnected-(CON1-Pad41)*%
X130350000Y-34475000D03*
%TO.P,CON1,42,42*%
%TO.N,unconnected-(CON1-Pad42)*%
X153650000Y-34475000D03*
%TD*%
D48*
%TO.P,L2,2,2*%
%TO.N,+5V*%
X187000000Y-96177500D03*
%TO.P,L2,1,1*%
%TO.N,BOOT_5V*%
X187000000Y-91657500D03*
%TD*%
D16*
%TO.P,C19,2,2*%
%TO.N,VCC*%
X184380000Y-87392500D03*
%TO.P,C19,1,1*%
%TO.N,GND*%
X184380000Y-88942500D03*
%TD*%
D49*
%TO.P,R24,2,2*%
%TO.N,I_SENS_2*%
X173507000Y-125250000D03*
%TO.P,R24,1,1*%
%TO.N,Net-(IC12-OUT)*%
X172000000Y-125250000D03*
%TD*%
D50*
%TO.P,IC11,1,REF*%
%TO.N,MIDPOINT_REF*%
X119410000Y-101500000D03*
%TO.P,IC11,2,GND*%
%TO.N,GND*%
X119410000Y-102150000D03*
%TO.P,IC11,3,V+*%
%TO.N,3V3*%
X119410000Y-102800000D03*
%TO.P,IC11,4,IN+*%
%TO.N,I_SENS_1_OUT*%
X121210000Y-102800000D03*
%TO.P,IC11,5,IN-*%
%TO.N,I_SENS_1_IN*%
X121210000Y-102150000D03*
%TO.P,IC11,6,OUT*%
%TO.N,Net-(IC11-OUT)*%
X121210000Y-101500000D03*
%TD*%
D31*
%TO.P,IC6,17,PAD*%
%TO.N,GND*%
X129907500Y-43000000D03*
D32*
%TO.P,IC6,16,VCC*%
%TO.N,3V3*%
X130157500Y-41342500D03*
D33*
%TO.P,IC6,15,CE#*%
%TO.N,GND*%
X131065000Y-41750000D03*
%TO.P,IC6,14,D3*%
%TO.N,DIR28*%
X131065000Y-42250000D03*
%TO.P,IC6,13,D2*%
%TO.N,DIR27*%
X131065000Y-42750000D03*
%TO.P,IC6,12,D1*%
%TO.N,DIR26*%
X131065000Y-43250000D03*
%TO.P,IC6,11,D0*%
%TO.N,DIR25*%
X131065000Y-43750000D03*
%TO.P,IC6,10,DS*%
%TO.N,Net-(IC5-Q7)*%
X131065000Y-44250000D03*
D32*
%TO.P,IC6,9,Q7*%
%TO.N,Shift_DATA*%
X130157500Y-44657500D03*
%TO.P,IC6,8,GND*%
%TO.N,GND*%
X129657500Y-44657500D03*
D33*
%TO.P,IC6,7,Q7#*%
%TO.N,unconnected-(IC6-Q7#-Pad7)*%
X128750000Y-44250000D03*
%TO.P,IC6,6,D7*%
%TO.N,DIR32*%
X128750000Y-43750000D03*
%TO.P,IC6,5,D6*%
%TO.N,DIR31*%
X128750000Y-43250000D03*
%TO.P,IC6,4,D5*%
%TO.N,DIR30*%
X128750000Y-42750000D03*
%TO.P,IC6,3,D4*%
%TO.N,DIR29*%
X128750000Y-42250000D03*
%TO.P,IC6,2,CP*%
%TO.N,CLK_Shift*%
X128750000Y-41750000D03*
D32*
%TO.P,IC6,1,PL#*%
%TO.N,LOAD_Shift*%
X129657500Y-41342500D03*
%TD*%
D51*
%TO.P,L1,2,2*%
%TO.N,3V3_SWITCHING_OUT*%
X168200000Y-81625000D03*
%TO.P,L1,1,1*%
%TO.N,BOOT_3V3*%
X168200000Y-86325000D03*
%TD*%
D50*
%TO.P,IC12,6,OUT*%
%TO.N,Net-(IC12-OUT)*%
X147700000Y-114950000D03*
%TO.P,IC12,5,IN-*%
%TO.N,I_SENS_2_OUT*%
X147700000Y-114300000D03*
%TO.P,IC12,4,IN+*%
%TO.N,I_SENS_2_IN*%
X147700000Y-113650000D03*
%TO.P,IC12,3,V+*%
%TO.N,3V3*%
X149500000Y-113650000D03*
%TO.P,IC12,2,GND*%
%TO.N,GND*%
X149500000Y-114300000D03*
%TO.P,IC12,1,REF*%
%TO.N,MIDPOINT_REF*%
X149500000Y-114950000D03*
%TD*%
D52*
%TO.P,H1,3,3*%
%TO.N,3V3_SWITCHING_OUT*%
X146040000Y-87250000D03*
%TO.P,H1,2,2*%
%TO.N,3V3*%
X143500000Y-87250000D03*
D53*
%TO.P,H1,1,1*%
%TO.N,3V3_LDO_OUT*%
X140960000Y-87250000D03*
%TD*%
D29*
%TO.P,C16,2,2*%
%TO.N,BOOT_5V*%
X189630000Y-85942500D03*
%TO.P,C16,1,1*%
%TO.N,Net-(IC4-BOOT)*%
X189630000Y-84392500D03*
%TD*%
D27*
%TO.P,R13,2,2*%
%TO.N,3V3*%
X134575000Y-77500000D03*
%TO.P,R13,1,1*%
%TO.N,SCL*%
X132925000Y-77500000D03*
%TD*%
D31*
%TO.P,IC7,17,PAD*%
%TO.N,GND*%
X147000000Y-48923000D03*
D32*
%TO.P,IC7,16,VCC*%
%TO.N,3V3*%
X147250000Y-47265500D03*
D33*
%TO.P,IC7,15,CE#*%
%TO.N,GND*%
X148157500Y-47673000D03*
%TO.P,IC7,14,D3*%
%TO.N,DIR12*%
X148157500Y-48173000D03*
%TO.P,IC7,13,D2*%
%TO.N,DIR11*%
X148157500Y-48673000D03*
%TO.P,IC7,12,D1*%
%TO.N,DIR10*%
X148157500Y-49173000D03*
%TO.P,IC7,11,D0*%
%TO.N,DIR9*%
X148157500Y-49673000D03*
%TO.P,IC7,10,DS*%
%TO.N,Net-(IC7-DS)*%
X148157500Y-50173000D03*
D32*
%TO.P,IC7,9,Q7*%
%TO.N,Net-(IC5-DS)*%
X147250000Y-50580500D03*
%TO.P,IC7,8,GND*%
%TO.N,GND*%
X146750000Y-50580500D03*
D33*
%TO.P,IC7,7,Q7#*%
%TO.N,unconnected-(IC7-Q7#-Pad7)*%
X145842500Y-50173000D03*
%TO.P,IC7,6,D7*%
%TO.N,DIR16*%
X145842500Y-49673000D03*
%TO.P,IC7,5,D6*%
%TO.N,DIR15*%
X145842500Y-49173000D03*
%TO.P,IC7,4,D5*%
%TO.N,DIR14*%
X145842500Y-48673000D03*
%TO.P,IC7,3,D4*%
%TO.N,DIR13*%
X145842500Y-48173000D03*
%TO.P,IC7,2,CP*%
%TO.N,CLK_Shift*%
X145842500Y-47673000D03*
D32*
%TO.P,IC7,1,PL#*%
%TO.N,LOAD_Shift*%
X146750000Y-47265500D03*
%TD*%
D28*
%TO.P,C18,2,2*%
%TO.N,VCC*%
X172450000Y-89850000D03*
%TO.P,C18,1,1*%
%TO.N,GND*%
X172450000Y-87950000D03*
%TD*%
D15*
%TO.P,C22,2,2*%
%TO.N,Net-(IC4-FB)*%
X183905000Y-85167500D03*
%TO.P,C22,1,1*%
%TO.N,+5V*%
X182355000Y-85167500D03*
%TD*%
D20*
%TO.P,LED9,1,VDD*%
%TO.N,+5V*%
X172295561Y-46183901D03*
%TO.P,LED9,2,DO*%
%TO.N,Net-(LED8-DIN)*%
X169882093Y-48434496D03*
%TO.P,LED9,3,GND*%
%TO.N,GND*%
X173292085Y-52091265D03*
%TO.P,LED9,4,DIN*%
%TO.N,Net-(LED10-DO)*%
X175705553Y-49840670D03*
%TD*%
D54*
%TO.P,USB1,B12,GND*%
%TO.N,GND*%
X89154250Y-80602499D03*
%TO.P,USB1,B9,VBUS*%
%TO.N,USB_VBUS*%
X89154250Y-81402499D03*
%TO.P,USB1,B8,SBU2*%
%TO.N,unconnected-(USB1-SBU2-PadB8)*%
X89155250Y-81902499D03*
%TO.P,USB1,B7,DN2*%
%TO.N,USB_D-*%
X89154250Y-82902499D03*
%TO.P,USB1,B6,DP2*%
%TO.N,USB_D+*%
X89154250Y-84402499D03*
%TO.P,USB1,B5,CC2*%
%TO.N,Net-(USB1-CC2)*%
X89154250Y-85402499D03*
%TO.P,USB1,B4,VBUS*%
%TO.N,USB_VBUS*%
X89154750Y-85902499D03*
%TO.P,USB1,B1,GND*%
%TO.N,GND*%
X89154250Y-86702499D03*
%TO.P,USB1,A12,GND*%
X89154250Y-87002499D03*
%TO.P,USB1,A9,VBUS*%
%TO.N,USB_VBUS*%
X89154750Y-86202499D03*
%TO.P,USB1,A8,SBU1*%
%TO.N,unconnected-(USB1-SBU1-PadA8)*%
X89155250Y-84901999D03*
%TO.P,USB1,A7,DN1*%
%TO.N,USB_D-*%
X89154250Y-83902499D03*
%TO.P,USB1,A6,DP1*%
%TO.N,USB_D+*%
X89154250Y-83402499D03*
%TO.P,USB1,A5,CC1*%
%TO.N,Net-(USB1-CC1)*%
X89154250Y-82402499D03*
%TO.P,USB1,A4,VBUS*%
%TO.N,USB_VBUS*%
X89154250Y-81102499D03*
%TO.P,USB1,A1,GND*%
%TO.N,GND*%
X89154250Y-80302499D03*
D55*
%TO.P,USB1,1,EH*%
X84409250Y-87972499D03*
D56*
X88589250Y-87972499D03*
D55*
X84409250Y-79332499D03*
D56*
X88589250Y-79332499D03*
%TD*%
D20*
%TO.P,LED12,1,VDD*%
%TO.N,+5V*%
X194290008Y-69770058D03*
%TO.P,LED12,2,DO*%
%TO.N,Net-(LED11-DIN)*%
X191876540Y-72020653D03*
%TO.P,LED12,3,GND*%
%TO.N,GND*%
X195286532Y-75677422D03*
%TO.P,LED12,4,DIN*%
%TO.N,RGB_DATA*%
X197700000Y-73426827D03*
%TD*%
D15*
%TO.P,C9,2,2*%
%TO.N,GND*%
X167225000Y-94275000D03*
%TO.P,C9,1,1*%
%TO.N,Net-(IC3-VCC)*%
X165675000Y-94275000D03*
%TD*%
D57*
%TO.P,LED2,2,A*%
%TO.N,Net-(LED2-A)*%
X177508500Y-82467000D03*
%TO.P,LED2,1,C*%
%TO.N,Net-(LED2-C)*%
X177501500Y-80868000D03*
%TD*%
D58*
%TO.P,U1,2,2*%
%TO.N,GND*%
X195500000Y-79700000D03*
D59*
%TO.P,U1,1,1*%
%TO.N,VCC*%
X195500000Y-83660000D03*
%TD*%
D28*
%TO.P,C23,2,2*%
%TO.N,GND*%
X172200000Y-83175000D03*
%TO.P,C23,1,1*%
%TO.N,3V3_SWITCHING_OUT*%
X172200000Y-81275000D03*
%TD*%
D30*
%TO.P,LED6,1,VDD*%
%TO.N,+5V*%
X108275522Y-49840670D03*
%TO.P,LED6,2,DO*%
%TO.N,Net-(LED5-DIN)*%
X110688990Y-52091265D03*
%TO.P,LED6,3,GND*%
%TO.N,GND*%
X114098982Y-48434496D03*
%TO.P,LED6,4,DIN*%
%TO.N,Net-(LED6-DIN)*%
X111685514Y-46183901D03*
%TD*%
D27*
%TO.P,R8,2,2*%
%TO.N,3V3_SWITCHING_OUT*%
X172775000Y-91700000D03*
%TO.P,R8,1,1*%
%TO.N,Net-(IC3-FB)*%
X171125000Y-91700000D03*
%TD*%
D29*
%TO.P,C32,2,2*%
%TO.N,I_SENS_2*%
X175250000Y-125275000D03*
%TO.P,C32,1,1*%
%TO.N,GND*%
X175250000Y-123725000D03*
%TD*%
D21*
%TO.P,C12,2,2*%
%TO.N,GND*%
X163950000Y-87775000D03*
%TO.P,C12,1,1*%
%TO.N,VCC*%
X163950000Y-89675000D03*
%TD*%
D16*
%TO.P,C13,2,2*%
%TO.N,BOOT_3V3*%
X165700000Y-91200000D03*
%TO.P,C13,1,1*%
%TO.N,Net-(IC3-BOOT)*%
X165700000Y-92750000D03*
%TD*%
D26*
%TO.P,R10,2,2*%
%TO.N,+5V*%
X182305000Y-83667500D03*
%TO.P,R10,1,1*%
%TO.N,Net-(IC4-FB)*%
X183955000Y-83667500D03*
%TD*%
D18*
%TO.P,C30,2,2*%
%TO.N,GND*%
X147825000Y-112250000D03*
%TO.P,C30,1,1*%
%TO.N,3V3*%
X149375000Y-112250000D03*
%TD*%
D26*
%TO.P,R17,2,2*%
%TO.N,3V3*%
X119175000Y-76250000D03*
%TO.P,R17,1,1*%
%TO.N,SDA_L*%
X120825000Y-76250000D03*
%TD*%
D57*
%TO.P,LED1,2,A*%
%TO.N,Net-(LED1-A)*%
X163196500Y-94075500D03*
%TO.P,LED1,1,C*%
%TO.N,Net-(LED1-C)*%
X163203500Y-95674500D03*
%TD*%
D49*
%TO.P,R23,2,2*%
%TO.N,I_SENS_1*%
X112753500Y-95441000D03*
%TO.P,R23,1,1*%
%TO.N,Net-(IC11-OUT)*%
X111246500Y-95441000D03*
%TD*%
D30*
%TO.P,LED5,1,VDD*%
%TO.N,+5V*%
X100944040Y-57702722D03*
%TO.P,LED5,2,DO*%
%TO.N,Net-(LED4-DIN)*%
X103357508Y-59953317D03*
%TO.P,LED5,3,GND*%
%TO.N,GND*%
X106767500Y-56296548D03*
%TO.P,LED5,4,DIN*%
%TO.N,Net-(LED5-DIN)*%
X104354032Y-54045953D03*
%TD*%
D15*
%TO.P,C33,2,2*%
%TO.N,GND*%
X152875000Y-40300000D03*
%TO.P,C33,1,1*%
%TO.N,3V3*%
X151325000Y-40300000D03*
%TD*%
%TO.P,C28,2,2*%
%TO.N,GND*%
X162350000Y-122150000D03*
%TO.P,C28,1,1*%
%TO.N,3V3*%
X160800000Y-122150000D03*
%TD*%
D29*
%TO.P,C14,2,2*%
%TO.N,GND*%
X189630000Y-88942500D03*
%TO.P,C14,1,1*%
%TO.N,VCC*%
X189630000Y-87392500D03*
%TD*%
D15*
%TO.P,C35,2,2*%
%TO.N,GND*%
X137675000Y-46500000D03*
%TO.P,C35,1,1*%
%TO.N,3V3*%
X136125000Y-46500000D03*
%TD*%
D42*
%TO.P,CN2,2,2*%
%TO.N,I_SENS_2_OUT*%
X152980000Y-102500000D03*
%TO.P,CN2,1,1*%
%TO.N,Net-(IC14-OUT2)*%
X155520000Y-102500000D03*
%TD*%
D20*
%TO.P,LED10,1,VDD*%
%TO.N,+5V*%
X179627043Y-54045953D03*
%TO.P,LED10,2,DO*%
%TO.N,Net-(LED10-DO)*%
X177213575Y-56296548D03*
%TO.P,LED10,3,GND*%
%TO.N,GND*%
X180623567Y-59953317D03*
%TO.P,LED10,4,DIN*%
%TO.N,Net-(LED10-DIN)*%
X183037035Y-57702722D03*
%TD*%
D29*
%TO.P,C31,2,2*%
%TO.N,I_SENS_1*%
X114500000Y-95466000D03*
%TO.P,C31,1,1*%
%TO.N,GND*%
X114500000Y-93916000D03*
%TD*%
D60*
%TO.N,GND*%
X160299613Y-61100387D03*
X124000000Y-74250000D03*
D61*
%TO.N,USB_VBUS*%
X101375000Y-85575000D03*
D60*
X101875000Y-86075000D03*
X101375000Y-85575000D03*
%TO.N,GND*%
X91000000Y-73400000D03*
X129900000Y-43700000D03*
X187250000Y-66750000D03*
X105800000Y-57600000D03*
X186755000Y-82667500D03*
X173450000Y-84450000D03*
X173450000Y-86700000D03*
X97946500Y-86358499D03*
X170700000Y-85200000D03*
X84446500Y-80652499D03*
X166950000Y-95700000D03*
X140750000Y-33500000D03*
X162700000Y-85950000D03*
X187130000Y-85667500D03*
X185630000Y-82167500D03*
X83446500Y-80652499D03*
X165450000Y-85200000D03*
X168450000Y-95700000D03*
X186380000Y-84417500D03*
X170700000Y-85950000D03*
X168200000Y-92700000D03*
X168950000Y-94200000D03*
X165450000Y-85950000D03*
X167700000Y-93450000D03*
X186880000Y-84917500D03*
X97875000Y-84325000D03*
X97875000Y-88575000D03*
X120400000Y-41800000D03*
X167200000Y-96450000D03*
X170700000Y-84450000D03*
X168700000Y-96450000D03*
X165450000Y-84450000D03*
X162700000Y-85200000D03*
X185980000Y-83346602D03*
X186710225Y-83346602D03*
X165000000Y-43000000D03*
X86446500Y-86652499D03*
X162700000Y-84450000D03*
X145250000Y-33500000D03*
X186380000Y-82167500D03*
X172250000Y-50750000D03*
X137000000Y-52700000D03*
X184541320Y-82184975D03*
X86446500Y-88152499D03*
X186054997Y-82667500D03*
D61*
X122958966Y-61558966D03*
D60*
X98400000Y-65400000D03*
X85446500Y-80652499D03*
X179750000Y-58750000D03*
X86446500Y-79152499D03*
X173450000Y-85200000D03*
X86446500Y-80652499D03*
X187130000Y-82167500D03*
X134600000Y-50100000D03*
X169200000Y-93450000D03*
X187880000Y-82167500D03*
X167950000Y-94950000D03*
X167700000Y-95700000D03*
X168200000Y-94200000D03*
X162700000Y-86700000D03*
X185880000Y-83917500D03*
X147067500Y-49475000D03*
X113200000Y-49800000D03*
X186880000Y-83917500D03*
X168950000Y-92700000D03*
X169200000Y-95700000D03*
X136250000Y-33500000D03*
X151750000Y-33500000D03*
X194250000Y-74500000D03*
X187255000Y-83167500D03*
X185630000Y-82917500D03*
X165450000Y-86950000D03*
X170700000Y-86950000D03*
X131250000Y-77500000D03*
X151950000Y-44050000D03*
X168450000Y-93450000D03*
X84446500Y-86652499D03*
X167950000Y-96450000D03*
X83446500Y-86652499D03*
X168700000Y-94950000D03*
X173450000Y-85950000D03*
X165000000Y-68200000D03*
X85446500Y-86652499D03*
%TO.N,3V3*%
X135100000Y-46500000D03*
X144000000Y-61813500D03*
X130600000Y-40000000D03*
X150000000Y-35600000D03*
X152000000Y-40900000D03*
X157500006Y-43100000D03*
X157500000Y-45300000D03*
X143800000Y-45800000D03*
%TO.N,ESP_BOOT0*%
X167750000Y-71000000D03*
%TO.N,VCC*%
X192880000Y-86917500D03*
X163950000Y-89675000D03*
X181130000Y-86917500D03*
X183630000Y-86917500D03*
X173950000Y-89450000D03*
X180380000Y-86917500D03*
X174950000Y-88700000D03*
X174200000Y-88700000D03*
X193380000Y-86917500D03*
X171450000Y-89950000D03*
X174700000Y-90200000D03*
X174700000Y-89450000D03*
X173950000Y-90200000D03*
X163200000Y-89700000D03*
X162400000Y-89700000D03*
X192380000Y-86917500D03*
X190380000Y-86917500D03*
X164950000Y-89700000D03*
X179630000Y-86917500D03*
%TO.N,3V3_SWITCHING_OUT*%
X168000000Y-79750000D03*
X167250000Y-79750000D03*
X167000000Y-80500000D03*
X164250000Y-79750000D03*
X166500000Y-79750000D03*
X165000000Y-79750000D03*
X175800000Y-91000000D03*
X164750000Y-80500000D03*
X165750000Y-79750000D03*
X166250000Y-80500000D03*
X167750000Y-80500000D03*
X165500000Y-80500000D03*
X175800000Y-85400000D03*
%TO.N,+5V*%
X178880000Y-85667500D03*
X94600000Y-64600000D03*
X109200000Y-48800000D03*
X199089968Y-75738187D03*
X180800000Y-55200000D03*
X188200000Y-63200000D03*
X116600000Y-41000000D03*
X166000000Y-39400000D03*
X195200000Y-70800000D03*
X200600001Y-76600000D03*
X151000000Y-32500000D03*
X200005212Y-76969094D03*
X199625890Y-76274110D03*
X87400000Y-72200000D03*
X102000000Y-56600000D03*
X178880000Y-92000000D03*
X173400000Y-47200000D03*
%TO.N,PG_3V3*%
X169950000Y-90950000D03*
X169950000Y-97700000D03*
%TO.N,PG_5V*%
X181005000Y-81417500D03*
X185130000Y-85517500D03*
X188505000Y-81417500D03*
%TO.N,CLK_Shift*%
X132787280Y-47761250D03*
X149800000Y-42100000D03*
X127670858Y-40829142D03*
X144700000Y-47600000D03*
X155900000Y-43100000D03*
%TO.N,LOAD_Shift*%
X156700003Y-43100000D03*
X128800000Y-39900000D03*
X145100000Y-46900000D03*
X134000000Y-46800000D03*
X150600000Y-41300000D03*
%TO.N,Shift_DATA*%
X135500000Y-54600000D03*
X142100000Y-64400000D03*
%TO.N,Net-(USB1-CC2)*%
X90596500Y-85252499D03*
%TO.N,Net-(USB1-CC1)*%
X90446500Y-82452499D03*
%TO.N,USB_D-*%
X90313750Y-83352499D03*
X138900000Y-77000000D03*
%TO.N,USB_D+*%
X141900000Y-75900000D03*
X87946500Y-83902499D03*
%TD*%
D62*
%TO.N,SCL_R*%
X121750000Y-81250000D02*
X120825000Y-81250000D01*
X122250000Y-80750000D02*
X121750000Y-81250000D01*
X122250000Y-79682500D02*
X122250000Y-80750000D01*
%TO.N,I_SENS_1_IN*%
X124250000Y-102150000D02*
X121210000Y-102150000D01*
X124600000Y-101800000D02*
X124250000Y-102150000D01*
X124600000Y-101039000D02*
X124600000Y-101800000D01*
%TO.N,I_SENS_1_OUT*%
X124300000Y-102800000D02*
X121210000Y-102800000D01*
X124600000Y-103100000D02*
X124300000Y-102800000D01*
X124600000Y-103921000D02*
X124600000Y-103100000D01*
D63*
%TO.N,GND*%
X160299613Y-61100387D02*
X159742726Y-60543500D01*
X159742726Y-60543500D02*
X157946250Y-60543500D01*
D62*
X148900000Y-114300000D02*
X149500000Y-114300000D01*
X148600000Y-114000000D02*
X148900000Y-114300000D01*
X148350000Y-112250000D02*
X148600000Y-112500000D01*
X147825000Y-112250000D02*
X148350000Y-112250000D01*
X148600000Y-112500000D02*
X148600000Y-114000000D01*
%TO.N,3V3*%
X149500000Y-112375000D02*
X149375000Y-112250000D01*
X149500000Y-113650000D02*
X149500000Y-112375000D01*
%TO.N,I_SENS_2_OUT*%
X147700000Y-114300000D02*
X145316000Y-114300000D01*
X145316000Y-114300000D02*
X144200000Y-115416000D01*
%TO.N,I_SENS_2_IN*%
X145316000Y-113650000D02*
X144200000Y-112534000D01*
X147700000Y-113650000D02*
X145316000Y-113650000D01*
%TO.N,3V3*%
X119250000Y-73000000D02*
X119175000Y-73075000D01*
%TO.N,SDA_R*%
X126499000Y-68001000D02*
X126499000Y-69000000D01*
X125750000Y-67250000D02*
X126500000Y-68000000D01*
X121250000Y-67250000D02*
X125750000Y-67250000D01*
X120500000Y-68000000D02*
X121250000Y-67250000D01*
X120500000Y-70750000D02*
X120500000Y-68000000D01*
X120000000Y-75750000D02*
X119500000Y-75250000D01*
X120000000Y-78250000D02*
X120000000Y-75750000D01*
X126500000Y-68000000D02*
X126499000Y-68001000D01*
X119500000Y-75250000D02*
X118750000Y-75250000D01*
X120825000Y-79075000D02*
X120000000Y-78250000D01*
X118250000Y-73000000D02*
X120500000Y-70750000D01*
X120825000Y-79750000D02*
X120825000Y-79075000D01*
X118750000Y-75250000D02*
X118250000Y-74750000D01*
X118250000Y-74750000D02*
X118250000Y-73000000D01*
X122650000Y-78600000D02*
X123707500Y-78600000D01*
X120825000Y-79750000D02*
X121500000Y-79750000D01*
X121500000Y-79750000D02*
X122650000Y-78600000D01*
%TO.N,I2C_RST*%
X121750000Y-74250000D02*
X120825000Y-74250000D01*
X122250000Y-74750000D02*
X121750000Y-74250000D01*
X122250000Y-76217500D02*
X122250000Y-74750000D01*
X123707500Y-76650000D02*
X122682500Y-76650000D01*
X122682500Y-76650000D02*
X122250000Y-76217500D01*
%TO.N,SDA_L*%
X120000000Y-72000000D02*
X120500000Y-71500000D01*
X120000000Y-74750000D02*
X120000000Y-72000000D01*
X120825000Y-75575000D02*
X120000000Y-74750000D01*
X120825000Y-76250000D02*
X120825000Y-75575000D01*
D64*
%TO.N,SCL*%
X133600000Y-80100000D02*
X143984750Y-80100000D01*
X143984750Y-80100000D02*
X144751250Y-79333500D01*
X132925000Y-77500000D02*
X132925000Y-79425000D01*
X132925000Y-79425000D02*
X133600000Y-80100000D01*
X144751250Y-79333500D02*
X144751250Y-78333500D01*
X132250000Y-77500000D02*
X132925000Y-77500000D01*
X131400000Y-76650000D02*
X132250000Y-77500000D01*
X129752500Y-76650000D02*
X131400000Y-76650000D01*
D62*
%TO.N,SDA*%
X132925000Y-76000000D02*
X129752500Y-76000000D01*
X132925000Y-75075000D02*
X132925000Y-76000000D01*
X133486500Y-74513500D02*
X132925000Y-75075000D01*
X140446250Y-74513500D02*
X133486500Y-74513500D01*
D63*
%TO.N,3V3*%
X129775000Y-73379000D02*
X129775000Y-74000000D01*
X128498000Y-72102000D02*
X129775000Y-73379000D01*
D64*
%TO.N,GND*%
X128225000Y-74000000D02*
X127000000Y-74000000D01*
%TO.N,3V3*%
X129775000Y-75327500D02*
X129752500Y-75350000D01*
X129775000Y-74000000D02*
X129775000Y-75327500D01*
D62*
%TO.N,SDA_L*%
X121500000Y-76250000D02*
X122550000Y-77300000D01*
X122550000Y-77300000D02*
X123707500Y-77300000D01*
X120825000Y-76250000D02*
X121500000Y-76250000D01*
%TO.N,SCL_L*%
X122000000Y-77750000D02*
X120825000Y-77750000D01*
X122200000Y-77950000D02*
X122000000Y-77750000D01*
X123707500Y-77950000D02*
X122200000Y-77950000D01*
%TO.N,SDA_L*%
X121500000Y-67750000D02*
X124000000Y-67750000D01*
X121000000Y-68250000D02*
X121500000Y-67750000D01*
X121000000Y-71000000D02*
X121000000Y-68250000D01*
X120500000Y-71500000D02*
X121000000Y-71000000D01*
X124500000Y-68250000D02*
X124500000Y-69000000D01*
X124000000Y-67750000D02*
X124500000Y-68250000D01*
%TO.N,SCL_R*%
X125500000Y-73250000D02*
X126499000Y-72251000D01*
X125500000Y-78482500D02*
X125500000Y-73250000D01*
X126499000Y-72251000D02*
X126499000Y-70999000D01*
X124732500Y-79250000D02*
X125500000Y-78482500D01*
X123707500Y-79250000D02*
X124732500Y-79250000D01*
%TO.N,SCL_L*%
X125000000Y-77682500D02*
X125000000Y-73250000D01*
X124732500Y-77950000D02*
X125000000Y-77682500D01*
X125000000Y-73250000D02*
X124500000Y-72750000D01*
X124500000Y-72750000D02*
X124500000Y-70999000D01*
X123707500Y-77950000D02*
X124732500Y-77950000D01*
%TO.N,GND*%
X123707500Y-74542500D02*
X124000000Y-74250000D01*
X123707500Y-75350000D02*
X123707500Y-74542500D01*
X123707500Y-76000000D02*
X123707500Y-75350000D01*
%TO.N,SCL_R*%
X122682500Y-79250000D02*
X122250000Y-79682500D01*
X123707500Y-79250000D02*
X122682500Y-79250000D01*
D65*
%TO.N,USB_VBUS*%
X101496500Y-82414498D02*
X101496500Y-85102499D01*
X101375000Y-85575000D02*
X101625000Y-85825000D01*
D63*
X92996500Y-86002499D02*
X89154750Y-86002499D01*
D65*
X100434501Y-81352499D02*
X101496500Y-82414498D01*
X101625000Y-85825000D02*
X103469001Y-85825000D01*
X93146500Y-81352499D02*
X100434501Y-81352499D01*
X93046500Y-81452499D02*
X92846500Y-81652499D01*
D63*
X93046500Y-81452499D02*
X92796500Y-81202499D01*
D65*
X103469001Y-85825000D02*
X104028000Y-86383999D01*
X104028000Y-86383999D02*
X104028000Y-88195998D01*
D63*
X92796500Y-81202499D02*
X89154250Y-81202499D01*
D65*
X93046500Y-81452499D02*
X93146500Y-81352499D01*
X92846500Y-81652499D02*
X92846500Y-86002499D01*
D66*
%TO.N,GND*%
X129900000Y-43700000D02*
X129657500Y-43457500D01*
D63*
X164950000Y-68200000D02*
X163805923Y-67055923D01*
D62*
X170259314Y-88275000D02*
X170700000Y-88275000D01*
X187900000Y-89250000D02*
X189322500Y-89250000D01*
D65*
X187250000Y-67110321D02*
X187955049Y-67815370D01*
D67*
X134407500Y-49907500D02*
X134407500Y-49750000D01*
X147067500Y-49475000D02*
X146875000Y-49282500D01*
D62*
X153065000Y-42250000D02*
X153550000Y-42250000D01*
X154000000Y-41800000D02*
X154000000Y-40862500D01*
D65*
X187250000Y-66750000D02*
X187250000Y-67110321D01*
D66*
X136250000Y-37000000D02*
X136250000Y-33500000D01*
D62*
X187000000Y-85797500D02*
X187130000Y-85667500D01*
D66*
X129657500Y-42750000D02*
X130657500Y-41750000D01*
D62*
X137675000Y-47725000D02*
X137675000Y-46500000D01*
D67*
X151692500Y-43200000D02*
X152692500Y-42200000D01*
D66*
X129900000Y-43700000D02*
X129657500Y-43942500D01*
D62*
X131065000Y-41750000D02*
X132250000Y-41750000D01*
D65*
X130502500Y-60697500D02*
X130502500Y-70999000D01*
D62*
X187130000Y-85667500D02*
X187000000Y-85547500D01*
D66*
X145250000Y-37000000D02*
X145250000Y-33500000D01*
D67*
X146875000Y-50532500D02*
X146875000Y-49667500D01*
D65*
X165000000Y-43000000D02*
X165000000Y-43268611D01*
D66*
X140750000Y-37000000D02*
X140750000Y-33500000D01*
D62*
X146857000Y-45800000D02*
X146375000Y-45800000D01*
D63*
X99436017Y-64158601D02*
X99436017Y-64363983D01*
D62*
X132250000Y-41750000D02*
X133375000Y-40625000D01*
D65*
X179750000Y-58750000D02*
X179750000Y-59079750D01*
D63*
X114098982Y-48901018D02*
X113200000Y-49800000D01*
D67*
X134657500Y-49500000D02*
X134657500Y-48950000D01*
X151692500Y-45107500D02*
X151692500Y-44307500D01*
D65*
X165000000Y-43268611D02*
X165960602Y-44229213D01*
D62*
X184687500Y-89250000D02*
X184380000Y-88942500D01*
D63*
X121430464Y-40769536D02*
X120400000Y-41800000D01*
D67*
X146875000Y-49282500D02*
X146875000Y-49125000D01*
X134407500Y-50292500D02*
X134407500Y-51157500D01*
D63*
X92104535Y-72020653D02*
X92104535Y-72295465D01*
D62*
X169100000Y-88962500D02*
X169571814Y-88962500D01*
X186100000Y-89250000D02*
X184687500Y-89250000D01*
D63*
X165585000Y-95995000D02*
X166655000Y-95995000D01*
D67*
X147125000Y-48417500D02*
X147917500Y-47625000D01*
D62*
X148157500Y-47100500D02*
X146857000Y-45800000D01*
X135815000Y-48250000D02*
X137150000Y-48250000D01*
D65*
X194250000Y-74640890D02*
X195286532Y-75677422D01*
D62*
X131050000Y-77300000D02*
X131250000Y-77500000D01*
D67*
X134407500Y-49750000D02*
X134657500Y-49500000D01*
D65*
X179750000Y-59079750D02*
X180623567Y-59953317D01*
D67*
X134600000Y-50100000D02*
X134407500Y-50292500D01*
X134600000Y-50100000D02*
X134407500Y-49907500D01*
D62*
X153550000Y-42250000D02*
X154000000Y-41800000D01*
D63*
X114098982Y-48434496D02*
X114098982Y-48901018D01*
D62*
X148157500Y-47673000D02*
X148157500Y-47100500D01*
D67*
X152692500Y-42200000D02*
X153100000Y-42200000D01*
X147125000Y-48875000D02*
X147125000Y-48417500D01*
X146875000Y-49125000D02*
X147125000Y-48875000D01*
D63*
X165000000Y-68200000D02*
X164950000Y-68200000D01*
D65*
X122958966Y-61558966D02*
X129641034Y-61558966D01*
D62*
X154000000Y-40862500D02*
X153437500Y-40300000D01*
X166462500Y-88962500D02*
X165700000Y-88200000D01*
D65*
X194250000Y-74500000D02*
X194250000Y-74640890D01*
D66*
X130657500Y-41750000D02*
X131065000Y-41750000D01*
D63*
X106767500Y-56296548D02*
X106767500Y-56632500D01*
X99436017Y-64363983D02*
X98400000Y-65400000D01*
X121430464Y-40572444D02*
X121430464Y-40769536D01*
X171125000Y-94700000D02*
X168950000Y-94700000D01*
D66*
X129657500Y-43457500D02*
X129657500Y-42750000D01*
D67*
X151692500Y-43792500D02*
X151692500Y-43200000D01*
X147917500Y-47625000D02*
X148282500Y-47625000D01*
D62*
X180890000Y-79102500D02*
X183955000Y-82167500D01*
D65*
X172250000Y-50750000D02*
X172250000Y-51049180D01*
D62*
X133375000Y-40625000D02*
X133375000Y-40000000D01*
D63*
X168950000Y-94700000D02*
X168700000Y-94950000D01*
D67*
X151950000Y-44050000D02*
X151692500Y-43792500D01*
D65*
X129641034Y-61558966D02*
X130502500Y-60697500D01*
D67*
X146875000Y-49667500D02*
X147067500Y-49475000D01*
D63*
X92104535Y-72295465D02*
X91000000Y-73400000D01*
D62*
X187000000Y-86725000D02*
X187000000Y-85797500D01*
D63*
X166655000Y-95995000D02*
X166950000Y-95700000D01*
D65*
X172250000Y-51049180D02*
X173292085Y-52091265D01*
D67*
X151692500Y-44307500D02*
X151950000Y-44050000D01*
D62*
X153437500Y-40300000D02*
X152875000Y-40300000D01*
D63*
X106767500Y-56632500D02*
X105800000Y-57600000D01*
D66*
X151750000Y-33500000D02*
X151750000Y-37000000D01*
D62*
X129752500Y-77300000D02*
X131050000Y-77300000D01*
D66*
X129657500Y-43942500D02*
X129657500Y-44657500D01*
D62*
X167300000Y-88962500D02*
X166462500Y-88962500D01*
X168200000Y-91487500D02*
X168200000Y-92700000D01*
X137150000Y-48250000D02*
X137675000Y-47725000D01*
X189322500Y-89250000D02*
X189630000Y-88942500D01*
X180890000Y-78712500D02*
X180890000Y-79102500D01*
X169571814Y-88962500D02*
X170259314Y-88275000D01*
D65*
%TO.N,3V3_LDO_OUT*%
X107894001Y-87250000D02*
X140960000Y-87250000D01*
X106019999Y-83625998D02*
X106996500Y-84602499D01*
X106996500Y-84602499D02*
X106996500Y-86352499D01*
X106996500Y-86352499D02*
X107894001Y-87250000D01*
X104028000Y-83625998D02*
X106019999Y-83625998D01*
%TO.N,3V3*%
X135400000Y-61625000D02*
X135588500Y-61813500D01*
X135588500Y-61813500D02*
X140446250Y-61813500D01*
D62*
X147250000Y-47265500D02*
X147250000Y-46758686D01*
X152125000Y-41025000D02*
X152125000Y-41810000D01*
X152125000Y-40775000D02*
X152125000Y-40525000D01*
D65*
X143500000Y-86047919D02*
X142452081Y-85000000D01*
X143500000Y-87250000D02*
X143500000Y-86047919D01*
D62*
X130157500Y-41342500D02*
X130157500Y-40442500D01*
X147250000Y-46758686D02*
X147066314Y-46575000D01*
D65*
X142452081Y-85000000D02*
X129000000Y-85000000D01*
D62*
X130600000Y-40000000D02*
X131825000Y-40000000D01*
D65*
X129000000Y-85000000D02*
X127527500Y-83527500D01*
D62*
X152125000Y-40525000D02*
X151900000Y-40300000D01*
X152000000Y-40900000D02*
X152125000Y-40775000D01*
X135100000Y-46500000D02*
X135200000Y-46400000D01*
X135200000Y-46400000D02*
X136225000Y-46400000D01*
X152125000Y-41810000D02*
X152157500Y-41842500D01*
X151900000Y-40300000D02*
X151325000Y-40300000D01*
X135100000Y-46500000D02*
X134907500Y-46692500D01*
X134907500Y-46692500D02*
X134907500Y-47842500D01*
D63*
X150000000Y-37400000D02*
X150000000Y-37600000D01*
D62*
X144848529Y-45800000D02*
X144825000Y-45800000D01*
D63*
X128498000Y-72102000D02*
X128498000Y-69000000D01*
D62*
X130157500Y-40442500D02*
X130600000Y-40000000D01*
X143800000Y-45800000D02*
X144825000Y-45800000D01*
D65*
X144000000Y-61813500D02*
X140446250Y-61813500D01*
D62*
X145623529Y-46575000D02*
X144848529Y-45800000D01*
X147066314Y-46575000D02*
X145623529Y-46575000D01*
D63*
X157500000Y-45300000D02*
X157500000Y-43100006D01*
X157500000Y-43100006D02*
X157500006Y-43100000D01*
X150000000Y-35600000D02*
X150000000Y-37400000D01*
D62*
X152000000Y-40900000D02*
X152125000Y-41025000D01*
D63*
%TO.N,ESP_BOOT0*%
X167750000Y-71000000D02*
X169194077Y-72444077D01*
X169194077Y-72444077D02*
X169194077Y-75555923D01*
X169194077Y-75555923D02*
X167696500Y-77053500D01*
X167696500Y-77053500D02*
X157946250Y-77053500D01*
D62*
%TO.N,ESP_RST*%
X140446250Y-63083500D02*
X139326500Y-63083500D01*
X135600000Y-64400000D02*
X133800000Y-62600000D01*
X133800000Y-61575000D02*
X135400000Y-59975000D01*
X138010000Y-64400000D02*
X135600000Y-64400000D01*
X139326500Y-63083500D02*
X138010000Y-64400000D01*
X133800000Y-62600000D02*
X133800000Y-61575000D01*
%TO.N,Net-(IC3-VCC)*%
X165035000Y-96285000D02*
X165800000Y-97050000D01*
X167700000Y-91487500D02*
X167700000Y-92250000D01*
X167700000Y-92250000D02*
X165675000Y-94275000D01*
X165800000Y-97050000D02*
X170275000Y-97050000D01*
X165675000Y-94275000D02*
X165035000Y-94915000D01*
X170275000Y-97050000D02*
X171125000Y-96200000D01*
X165035000Y-94915000D02*
X165035000Y-96285000D01*
%TO.N,Net-(IC4-VCC)*%
X187500000Y-86550000D02*
X187500000Y-86725000D01*
X188030000Y-84542500D02*
X188030000Y-86020000D01*
X189580000Y-82992500D02*
X188130000Y-84442500D01*
X188030000Y-86020000D02*
X187500000Y-86550000D01*
X188130000Y-84442500D02*
X188030000Y-84542500D01*
X189630000Y-82992500D02*
X189580000Y-82992500D01*
D63*
%TO.N,VCC*%
X177505000Y-85492500D02*
X177505000Y-86792500D01*
D65*
X163950000Y-89675000D02*
X164925000Y-89675000D01*
X164925000Y-89675000D02*
X164950000Y-89700000D01*
X193380000Y-86917500D02*
X193130000Y-86917500D01*
D62*
X169100000Y-90262500D02*
X171062500Y-90262500D01*
D65*
X184380000Y-86917500D02*
X183630000Y-86917500D01*
D62*
X184937500Y-87950000D02*
X184380000Y-87392500D01*
X186100000Y-87950000D02*
X184937500Y-87950000D01*
D65*
X190380000Y-86917500D02*
X192380000Y-86917500D01*
D62*
X171087500Y-89612500D02*
X171425000Y-89950000D01*
X187900000Y-88600000D02*
X188400000Y-88600000D01*
X188400000Y-88600000D02*
X189607500Y-87392500D01*
D65*
X164950000Y-89700000D02*
X164975000Y-89675000D01*
X184380000Y-87392500D02*
X184380000Y-86917500D01*
D62*
X171450000Y-89975000D02*
X171400000Y-89925000D01*
D65*
X183630000Y-86917500D02*
X181130000Y-86917500D01*
D62*
X171425000Y-89950000D02*
X171450000Y-89950000D01*
X171062500Y-90262500D02*
X171400000Y-89925000D01*
X170512500Y-89612500D02*
X170700000Y-89800000D01*
D65*
X180380000Y-86917500D02*
X179630000Y-86917500D01*
D62*
X189607500Y-87392500D02*
X189630000Y-87392500D01*
X169100000Y-89612500D02*
X171087500Y-89612500D01*
D63*
X163950000Y-89675000D02*
X163200000Y-89675000D01*
X177505000Y-86792500D02*
X177380000Y-86917500D01*
D62*
X171450000Y-89950000D02*
X171450000Y-89975000D01*
X165837500Y-89612500D02*
X165700000Y-89750000D01*
D65*
X164975000Y-89675000D02*
X165625000Y-89675000D01*
X177380000Y-86917500D02*
X179630000Y-86917500D01*
X192380000Y-86917500D02*
X192880000Y-86917500D01*
X181130000Y-86917500D02*
X180380000Y-86917500D01*
D63*
X163200000Y-89675000D02*
X163200000Y-91125000D01*
D65*
X189630000Y-86917500D02*
X190380000Y-86917500D01*
X189630000Y-87392500D02*
X189630000Y-86917500D01*
D62*
X167300000Y-89612500D02*
X165837500Y-89612500D01*
D65*
X163950000Y-89675000D02*
X162375000Y-89675000D01*
X192880000Y-86917500D02*
X193380000Y-86917500D01*
D62*
%TO.N,Net-(IC3-BOOT)*%
X166850000Y-92262500D02*
X166362500Y-92750000D01*
X166362500Y-92750000D02*
X165700000Y-92750000D01*
X166850000Y-90875000D02*
X166850000Y-92262500D01*
X167300000Y-90762500D02*
X167287500Y-90775000D01*
X167287500Y-90775000D02*
X166950000Y-90775000D01*
X166950000Y-90775000D02*
X166850000Y-90875000D01*
%TO.N,BOOT_3V3*%
X166450000Y-90587500D02*
X166775000Y-90262500D01*
X167675000Y-90262500D02*
X168200000Y-89737500D01*
X167300000Y-90262500D02*
X167675000Y-90262500D01*
X166450000Y-91025000D02*
X166450000Y-90587500D01*
X166275000Y-91200000D02*
X166450000Y-91025000D01*
D63*
X168200000Y-86325000D02*
X168200000Y-89412500D01*
D62*
X168200000Y-89737500D02*
X168200000Y-89412500D01*
X165700000Y-91200000D02*
X166275000Y-91200000D01*
X166775000Y-90262500D02*
X167300000Y-90262500D01*
%TO.N,Net-(IC4-BOOT)*%
X188430000Y-85592500D02*
X188430000Y-86920000D01*
X189630000Y-84392500D02*
X188430000Y-85592500D01*
X188430000Y-86920000D02*
X187900000Y-87450000D01*
%TO.N,BOOT_5V*%
X188830000Y-87425000D02*
X188830000Y-86586129D01*
X189455000Y-86117500D02*
X189630000Y-85942500D01*
X188830000Y-86586129D02*
X189298629Y-86117500D01*
X187900000Y-87950000D02*
X188305000Y-87950000D01*
X189298629Y-86117500D02*
X189455000Y-86117500D01*
D65*
X187000000Y-90547500D02*
X187000000Y-89917500D01*
D62*
X188305000Y-87950000D02*
X188830000Y-87425000D01*
D63*
X187000000Y-88800000D02*
X187000000Y-90547500D01*
D65*
X187000000Y-90547500D02*
X187000000Y-91657500D01*
D63*
%TO.N,3V3_SWITCHING_OUT*%
X172725000Y-91750000D02*
X172775000Y-91700000D01*
X173275000Y-81275000D02*
X172200000Y-81275000D01*
X175100000Y-91700000D02*
X175800000Y-91000000D01*
X172775000Y-91700000D02*
X175100000Y-91700000D01*
X175800000Y-91000000D02*
X175700000Y-91100000D01*
X175800000Y-85400000D02*
X175800000Y-83800000D01*
X175800000Y-83800000D02*
X173275000Y-81275000D01*
X172725000Y-93200000D02*
X172725000Y-91750000D01*
D62*
%TO.N,DIR7*%
X146250000Y-41315686D02*
X146250000Y-37500000D01*
X150435000Y-43750000D02*
X148684314Y-43750000D01*
X148684314Y-43750000D02*
X146250000Y-41315686D01*
%TO.N,DIR6*%
X148750000Y-43250000D02*
X146750000Y-41250000D01*
X146750000Y-41250000D02*
X146750000Y-37500000D01*
X150435000Y-43250000D02*
X148750000Y-43250000D01*
%TO.N,DIR19*%
X137750000Y-49250000D02*
X139250000Y-47750000D01*
X139250000Y-47750000D02*
X139250000Y-37500000D01*
X135815000Y-49250000D02*
X137750000Y-49250000D01*
%TO.N,DIR17*%
X135815000Y-50250000D02*
X138250000Y-50250000D01*
X140250000Y-48250000D02*
X140250000Y-37500000D01*
X138250000Y-50250000D02*
X140250000Y-48250000D01*
%TO.N,DIR22*%
X131700000Y-48088186D02*
X131700000Y-47400000D01*
X132861814Y-49250000D02*
X131700000Y-48088186D01*
X131700000Y-47400000D02*
X137750000Y-41350000D01*
X133500000Y-49250000D02*
X132861814Y-49250000D01*
X137750000Y-41350000D02*
X137750000Y-37000000D01*
%TO.N,DIR8*%
X150435000Y-44250000D02*
X148500000Y-44250000D01*
X145750000Y-41500000D02*
X145750000Y-37500000D01*
X148500000Y-44250000D02*
X145750000Y-41500000D01*
%TO.N,DIR5*%
X149000000Y-42750000D02*
X147250000Y-41000000D01*
X147250000Y-41000000D02*
X147250000Y-37500000D01*
X150435000Y-42750000D02*
X149000000Y-42750000D01*
%TO.N,DIR1*%
X149500000Y-38250000D02*
X149250000Y-38000000D01*
X154065686Y-44250000D02*
X156050000Y-42265686D01*
X156050000Y-42265686D02*
X156050000Y-40484314D01*
X149250000Y-38000000D02*
X149250000Y-37000000D01*
X153065000Y-44250000D02*
X154065686Y-44250000D01*
X153815686Y-38250000D02*
X149500000Y-38250000D01*
X156050000Y-40484314D02*
X153815686Y-38250000D01*
%TO.N,DIR23*%
X137250000Y-41250000D02*
X137250000Y-37000000D01*
X132750000Y-49750000D02*
X131300000Y-48300000D01*
X131300000Y-47200000D02*
X137250000Y-41250000D01*
X131300000Y-48300000D02*
X131300000Y-47200000D01*
X133500000Y-49750000D02*
X132750000Y-49750000D01*
%TO.N,DIR4*%
X153250000Y-39500000D02*
X154750000Y-41000000D01*
X147750000Y-38750000D02*
X148500000Y-39500000D01*
X154750000Y-41637500D02*
X153637500Y-42750000D01*
X153637500Y-42750000D02*
X153065000Y-42750000D01*
X148500000Y-39500000D02*
X153250000Y-39500000D01*
X154750000Y-41000000D02*
X154750000Y-41637500D01*
X147750000Y-37000000D02*
X147750000Y-38750000D01*
%TO.N,DIR18*%
X139750000Y-37500000D02*
X139750000Y-48000000D01*
X139750000Y-48000000D02*
X138000000Y-49750000D01*
X138000000Y-49750000D02*
X135815000Y-49750000D01*
%TO.N,DIR20*%
X135815000Y-48750000D02*
X137500000Y-48750000D01*
X137500000Y-48750000D02*
X138750000Y-47500000D01*
X138750000Y-47500000D02*
X138750000Y-37500000D01*
%TO.N,DIR10*%
X144250000Y-37000000D02*
X144250000Y-41000000D01*
X149900000Y-46865686D02*
X144250000Y-41215686D01*
X144250000Y-41215686D02*
X144250000Y-40700000D01*
X148100000Y-49215685D02*
X148850000Y-49215685D01*
X149900000Y-48165685D02*
X149900000Y-46865686D01*
X148850000Y-49215685D02*
X149900000Y-48165685D01*
%TO.N,DIR16*%
X145842500Y-49750000D02*
X143407500Y-49750000D01*
X143407500Y-49750000D02*
X141250000Y-47592500D01*
X141250000Y-47592500D02*
X141250000Y-37000000D01*
%TO.N,DIR21*%
X132927500Y-48750000D02*
X132100000Y-47922500D01*
X138250000Y-41450000D02*
X138250000Y-37500000D01*
X133500000Y-48750000D02*
X132927500Y-48750000D01*
X132100000Y-47600000D02*
X138250000Y-41450000D01*
X132100000Y-47922500D02*
X132100000Y-47600000D01*
%TO.N,DIR14*%
X145842500Y-48750000D02*
X143907500Y-48750000D01*
X142250000Y-47092500D02*
X142250000Y-37000000D01*
X143907500Y-48750000D02*
X142250000Y-47092500D01*
%TO.N,DIR11*%
X149500000Y-47031372D02*
X143750000Y-41281372D01*
X149500000Y-47953871D02*
X149500000Y-47031372D01*
X148100000Y-48715685D02*
X148738186Y-48715685D01*
X148738186Y-48715685D02*
X149500000Y-47953871D01*
X143750000Y-41281372D02*
X143750000Y-37000000D01*
%TO.N,DIR24*%
X130900000Y-48465686D02*
X132684314Y-50250000D01*
X130900000Y-47000000D02*
X130900000Y-48465686D01*
X132684314Y-50250000D02*
X133500000Y-50250000D01*
X136750000Y-37000000D02*
X136750000Y-41150000D01*
X136750000Y-41150000D02*
X130900000Y-47000000D01*
D68*
%TO.N,+5V*%
X195000000Y-94800000D02*
X195000000Y-90400000D01*
D63*
X178880000Y-94667500D02*
X180005000Y-95792500D01*
X93612557Y-65564775D02*
X93635225Y-65564775D01*
X164964078Y-38364078D02*
X166000000Y-39400000D01*
D68*
X192130000Y-95792500D02*
X181880000Y-95792500D01*
D63*
X194290008Y-69890008D02*
X195200000Y-70800000D01*
X179627043Y-54045953D02*
X179645953Y-54045953D01*
D68*
X195000000Y-90400000D02*
X200200000Y-85200000D01*
D63*
X172383901Y-46183901D02*
X173400000Y-47200000D01*
X172295561Y-46183901D02*
X172383901Y-46183901D01*
X86281075Y-73318925D02*
X87400000Y-72200000D01*
X179645953Y-54045953D02*
X180800000Y-55200000D01*
X115607004Y-41978618D02*
X115621382Y-41978618D01*
X178880000Y-85667500D02*
X181855000Y-85667500D01*
X178880000Y-92000000D02*
X178880000Y-94667500D01*
D68*
X200200000Y-85200000D02*
X200200000Y-76848219D01*
D63*
X100944040Y-57655960D02*
X102000000Y-56600000D01*
X100944040Y-57702722D02*
X100944040Y-57655960D01*
D68*
X194007500Y-95792500D02*
X195000000Y-94800000D01*
D63*
X182355000Y-83717500D02*
X182305000Y-83667500D01*
X180005000Y-95792500D02*
X181880000Y-95792500D01*
X115621382Y-41978618D02*
X116600000Y-41000000D01*
D68*
X192130000Y-95792500D02*
X194007500Y-95792500D01*
X200200000Y-76848219D02*
X199089968Y-75738187D01*
D63*
X164964078Y-38321849D02*
X164964078Y-38364078D01*
X186958525Y-61958525D02*
X188200000Y-63200000D01*
X194290008Y-69770058D02*
X194290008Y-69890008D01*
X93635225Y-65564775D02*
X94600000Y-64600000D01*
X151000000Y-32500000D02*
X151000000Y-37600000D01*
X108275522Y-49840670D02*
X108275522Y-49724478D01*
X181855000Y-85667500D02*
X182355000Y-85167500D01*
X186958525Y-61908006D02*
X186958525Y-61958525D01*
X86281075Y-73426827D02*
X86281075Y-73318925D01*
X108275522Y-49724478D02*
X109200000Y-48800000D01*
X182355000Y-85167500D02*
X182355000Y-83717500D01*
D62*
%TO.N,DIR9*%
X144750000Y-40800000D02*
X144750000Y-41150000D01*
X150300000Y-46700000D02*
X150300000Y-48331371D01*
X144750000Y-37000000D02*
X144750000Y-41000000D01*
X150300000Y-48331371D02*
X148915686Y-49715685D01*
X148915686Y-49715685D02*
X148100000Y-49715685D01*
X144750000Y-41150000D02*
X150300000Y-46700000D01*
%TO.N,DIR13*%
X145842500Y-48250000D02*
X144157500Y-48250000D01*
X144157500Y-48250000D02*
X142907500Y-47000000D01*
X142907500Y-47000000D02*
X142900000Y-47000000D01*
X142900000Y-47000000D02*
X142750000Y-46850000D01*
X142750000Y-46850000D02*
X142750000Y-37000000D01*
%TO.N,DIR12*%
X149100000Y-47200000D02*
X143250000Y-41350000D01*
X148100000Y-48215685D02*
X148672500Y-48215685D01*
X148672500Y-48215685D02*
X149100000Y-47788185D01*
X143250000Y-41350000D02*
X143250000Y-37000000D01*
X149100000Y-47788185D02*
X149100000Y-47200000D01*
%TO.N,DIR2*%
X153700000Y-38700000D02*
X155650000Y-40650000D01*
X149200000Y-38700000D02*
X153700000Y-38700000D01*
X155650000Y-40650000D02*
X155650000Y-42100000D01*
X155650000Y-42100000D02*
X154000000Y-43750000D01*
X154000000Y-43750000D02*
X153065000Y-43750000D01*
X148750000Y-37000000D02*
X148750000Y-38250000D01*
X148750000Y-38250000D02*
X149200000Y-38700000D01*
%TO.N,DIR15*%
X143657500Y-49250000D02*
X141750000Y-47342500D01*
X141750000Y-47342500D02*
X141750000Y-37000000D01*
X145842500Y-49250000D02*
X143657500Y-49250000D01*
%TO.N,DIR3*%
X153703186Y-43250000D02*
X153065000Y-43250000D01*
X155250000Y-41703186D02*
X153703186Y-43250000D01*
X153415686Y-39100000D02*
X155250000Y-40934314D01*
X148250000Y-38500000D02*
X148850000Y-39100000D01*
X148250000Y-37000000D02*
X148250000Y-38500000D01*
X155250000Y-40934314D02*
X155250000Y-41703186D01*
X148850000Y-39100000D02*
X153415686Y-39100000D01*
%TO.N,Net-(IC3-FB)*%
X169450000Y-91700000D02*
X171125000Y-91700000D01*
D63*
X172775000Y-94700000D02*
X171125000Y-93050000D01*
X171125000Y-93050000D02*
X171125000Y-91700000D01*
D62*
X168700000Y-91487500D02*
X169237500Y-91487500D01*
X169237500Y-91487500D02*
X169450000Y-91700000D01*
%TO.N,PG_3V3*%
X169100000Y-90762500D02*
X169687500Y-90762500D01*
D63*
X169950000Y-97700000D02*
X172200000Y-97700000D01*
D62*
X169687500Y-90762500D02*
X169875000Y-90950000D01*
X169745000Y-97905000D02*
X166335000Y-97905000D01*
D63*
X172200000Y-97700000D02*
X172775000Y-97125000D01*
D62*
X169950000Y-90950000D02*
X169950000Y-91025000D01*
X169875000Y-90950000D02*
X169950000Y-90950000D01*
X169950000Y-97700000D02*
X169745000Y-97905000D01*
X169950000Y-91025000D02*
X169875000Y-90950000D01*
D63*
X172775000Y-97125000D02*
X172775000Y-96200000D01*
D62*
%TO.N,PG_5V*%
X185380000Y-87167500D02*
X185630000Y-87417500D01*
X185630000Y-87417500D02*
X186067500Y-87417500D01*
X185130000Y-85517500D02*
X185380000Y-85767500D01*
X186067500Y-87417500D02*
X186100000Y-87450000D01*
X181005000Y-80737500D02*
X180890000Y-80622500D01*
X181005000Y-81417500D02*
X181005000Y-80737500D01*
X189630000Y-81342500D02*
X188580000Y-81342500D01*
X185380000Y-85767500D02*
X185380000Y-87167500D01*
X188580000Y-81342500D02*
X188505000Y-81417500D01*
%TO.N,Net-(IC4-FB)*%
X186500000Y-86725000D02*
X186500000Y-85938971D01*
X184155000Y-84917500D02*
X183905000Y-85167500D01*
D63*
X182455000Y-82167500D02*
X183955000Y-83667500D01*
D62*
X186500000Y-85938971D02*
X185478529Y-84917500D01*
X185478529Y-84917500D02*
X184155000Y-84917500D01*
D63*
X182305000Y-82167500D02*
X182455000Y-82167500D01*
X183905000Y-83767500D02*
X183905000Y-85167500D01*
D62*
%TO.N,Net-(IC5-Q7)*%
X132200000Y-44500000D02*
X131950000Y-44250000D01*
X131950000Y-44250000D02*
X131065000Y-44250000D01*
X133590000Y-51790000D02*
X130500000Y-48700000D01*
X132200000Y-45100000D02*
X132200000Y-44500000D01*
X134907500Y-51730000D02*
X134847500Y-51790000D01*
X134907500Y-51157500D02*
X134907500Y-51730000D01*
X130500000Y-46800000D02*
X132200000Y-45100000D01*
X130500000Y-48700000D02*
X130500000Y-46800000D01*
X134847500Y-51790000D02*
X133590000Y-51790000D01*
%TO.N,Net-(IC5-DS)*%
X135865000Y-50700000D02*
X135815000Y-50750000D01*
X147250000Y-50580500D02*
X147250000Y-51153000D01*
X143700000Y-51500000D02*
X142900000Y-50700000D01*
X147250000Y-51153000D02*
X146903000Y-51500000D01*
X142900000Y-50700000D02*
X135865000Y-50700000D01*
X146903000Y-51500000D02*
X143700000Y-51500000D01*
D63*
%TO.N,CLK_Shift*%
X156696250Y-63083500D02*
X155900000Y-62287250D01*
D62*
X127670858Y-40829142D02*
X127670858Y-41270858D01*
D63*
X155900000Y-62287250D02*
X155900000Y-43193504D01*
X157946250Y-63083500D02*
X156696250Y-63083500D01*
D62*
X144773000Y-47673000D02*
X144700000Y-47600000D01*
X128150000Y-41750000D02*
X128750000Y-41750000D01*
X127670858Y-41270858D02*
X128150000Y-41750000D01*
X149950000Y-42250000D02*
X149800000Y-42100000D01*
X132787280Y-48024265D02*
X132787280Y-47761250D01*
X145842500Y-47673000D02*
X144773000Y-47673000D01*
X133013015Y-48250000D02*
X132787280Y-48024265D01*
X133500000Y-48250000D02*
X133013015Y-48250000D01*
D63*
X155900000Y-43193504D02*
X155946752Y-43146752D01*
D62*
X150750000Y-42250000D02*
X149950000Y-42250000D01*
D63*
%TO.N,LOAD_Shift*%
X156700003Y-61500003D02*
X156700003Y-43100000D01*
D62*
X151400000Y-41300000D02*
X150600000Y-41300000D01*
D63*
X157013500Y-61813500D02*
X156700003Y-61500003D01*
D62*
X129657500Y-40457500D02*
X129657500Y-41342500D01*
D63*
X157946250Y-61813500D02*
X157013500Y-61813500D01*
D62*
X134407500Y-47842500D02*
X134407500Y-47207500D01*
X151657500Y-41557500D02*
X151400000Y-41300000D01*
X145100000Y-46900000D02*
X145200000Y-47000000D01*
X128800000Y-39900000D02*
X129100000Y-39900000D01*
X151657500Y-41842500D02*
X151657500Y-41557500D01*
X145200000Y-47000000D02*
X146484500Y-47000000D01*
X146484500Y-47000000D02*
X146750000Y-47265500D01*
X134407500Y-47207500D02*
X134000000Y-46800000D01*
X129100000Y-39900000D02*
X129657500Y-40457500D01*
%TO.N,Shift_DATA*%
X140492750Y-64400000D02*
X140446250Y-64353500D01*
X142100000Y-64400000D02*
X140492750Y-64400000D01*
X130157500Y-44657500D02*
X130100000Y-44715000D01*
X130100000Y-44715000D02*
X130100000Y-49200000D01*
X130100000Y-49200000D02*
X135500000Y-54600000D01*
%TO.N,Net-(IC7-DS)*%
X152157500Y-45157500D02*
X152157500Y-47039557D01*
X152157500Y-47039557D02*
X149024057Y-50173000D01*
X149024057Y-50173000D02*
X148157500Y-50173000D01*
%TO.N,DIR26*%
X135250000Y-40650000D02*
X135250000Y-37000000D01*
X131065000Y-43250000D02*
X132650000Y-43250000D01*
X132650000Y-43250000D02*
X135250000Y-40650000D01*
%TO.N,DIR25*%
X135750000Y-40750000D02*
X135750000Y-37000000D01*
X132750000Y-43750000D02*
X135750000Y-40750000D01*
X131065000Y-43750000D02*
X132750000Y-43750000D01*
%TO.N,DIR29*%
X132956372Y-38800000D02*
X133750000Y-38006372D01*
X127000000Y-41400000D02*
X127000000Y-40500000D01*
X128690000Y-42310000D02*
X127910000Y-42310000D01*
X133750000Y-38006372D02*
X133750000Y-37000000D01*
X127910000Y-42310000D02*
X127000000Y-41400000D01*
X127000000Y-40500000D02*
X128700000Y-38800000D01*
X128700000Y-38800000D02*
X132956372Y-38800000D01*
X128750000Y-42250000D02*
X128690000Y-42310000D01*
%TO.N,DIR28*%
X131065000Y-42250000D02*
X132450000Y-42250000D01*
X132450000Y-42250000D02*
X134250000Y-40450000D01*
X134250000Y-40450000D02*
X134250000Y-37000000D01*
%TO.N,DIR30*%
X126500000Y-40315686D02*
X128415686Y-38400000D01*
X132790686Y-38400000D02*
X133250000Y-37940686D01*
X128750000Y-42750000D02*
X127550000Y-42750000D01*
X133250000Y-37940686D02*
X133250000Y-37000000D01*
X128415686Y-38400000D02*
X132790686Y-38400000D01*
X127550000Y-42750000D02*
X126500000Y-41700000D01*
X126500000Y-41700000D02*
X126500000Y-40315686D01*
%TO.N,DIR32*%
X128084314Y-37600000D02*
X131650000Y-37600000D01*
X125400000Y-40284314D02*
X128084314Y-37600000D01*
X127050000Y-43750000D02*
X125400000Y-42100000D01*
X131650000Y-37600000D02*
X132250000Y-37000000D01*
X132250000Y-37000000D02*
X132250000Y-37500000D01*
X125400000Y-42100000D02*
X125400000Y-40284314D01*
X128750000Y-43750000D02*
X127050000Y-43750000D01*
%TO.N,DIR31*%
X132625000Y-38000000D02*
X128250000Y-38000000D01*
X127250000Y-43250000D02*
X128750000Y-43250000D01*
X126000000Y-40250000D02*
X126000000Y-42000000D01*
X128250000Y-38000000D02*
X126000000Y-40250000D01*
X132750000Y-37875000D02*
X132625000Y-38000000D01*
X126000000Y-42000000D02*
X127250000Y-43250000D01*
X132750000Y-37000000D02*
X132750000Y-37875000D01*
%TO.N,DIR27*%
X131065000Y-42750000D02*
X132550000Y-42750000D01*
X134750000Y-40550000D02*
X134750000Y-37000000D01*
X132550000Y-42750000D02*
X134750000Y-40550000D01*
%TO.N,I2C_RST*%
X140402750Y-73200000D02*
X140446250Y-73243500D01*
D63*
%TO.N,Net-(LED1-C)*%
X163450000Y-96950000D02*
X164065000Y-96950000D01*
X163203500Y-96703500D02*
X163450000Y-96950000D01*
X163203500Y-95674500D02*
X163203500Y-96703500D01*
X163203500Y-95674500D02*
X163303000Y-95575000D01*
%TO.N,Net-(LED1-A)*%
X163196500Y-92778500D02*
X163200000Y-92775000D01*
X163196500Y-94075500D02*
X163196500Y-92778500D01*
%TO.N,Net-(LED2-A)*%
X177508500Y-83839000D02*
X177505000Y-83842500D01*
X177508500Y-82467000D02*
X177508500Y-83839000D01*
%TO.N,Net-(LED2-C)*%
X177755000Y-79667500D02*
X177501500Y-79921000D01*
X177501500Y-79921000D02*
X177501500Y-80868000D01*
X178620000Y-79667500D02*
X177755000Y-79667500D01*
D62*
%TO.N,Net-(LED3-DIN)*%
X89691067Y-69770058D02*
X90782265Y-68599892D01*
X95446326Y-68437020D02*
X96026025Y-67815369D01*
X90782265Y-68599892D02*
X95446326Y-68437020D01*
%TO.N,Net-(LED4-DIN)*%
X102436810Y-60940644D02*
X103357507Y-59953317D01*
X97022550Y-61908006D02*
X97772748Y-61103517D01*
X97772748Y-61103517D02*
X102436810Y-60940644D01*
%TO.N,Net-(LED5-DIN)*%
X109938792Y-52895754D02*
X110688990Y-52091264D01*
X104354032Y-54045954D02*
X105274730Y-53058626D01*
X105274730Y-53058626D02*
X109938792Y-52895754D01*
%TO.N,Net-(LED6-DIN)*%
X112776712Y-45013735D02*
X117440774Y-44850863D01*
X117440774Y-44850863D02*
X118020472Y-44229212D01*
X111685514Y-46183901D02*
X112776712Y-45013735D01*
D63*
%TO.N,Net-(LED7-DIN)*%
X119016996Y-38321849D02*
X121500000Y-35838845D01*
X161500000Y-39521834D02*
X162550610Y-40572444D01*
X161209686Y-32932447D02*
X162500000Y-34342163D01*
X121500000Y-35838845D02*
X121500000Y-34342163D01*
X161500000Y-37500000D02*
X161500000Y-39521834D01*
X124217095Y-31500000D02*
X159777239Y-31500000D01*
X162500000Y-36500000D02*
X161500000Y-37500000D01*
X122851544Y-32865551D02*
X124217095Y-31500000D01*
X162500000Y-34342163D02*
X162500000Y-36500000D01*
X121500000Y-34342163D02*
X122851544Y-32865551D01*
X159777239Y-31500000D02*
X161209686Y-32932447D01*
X162550610Y-40572444D02*
X162335983Y-40572444D01*
D62*
%TO.N,Net-(LED8-DIN)*%
X169029595Y-47520304D02*
X169882093Y-48434496D01*
X169192468Y-42856242D02*
X169029595Y-47520304D01*
X168374070Y-41978618D02*
X169192468Y-42856242D01*
%TO.N,Net-(LED10-DO)*%
X175705552Y-49840670D02*
X176694450Y-50901133D01*
X176694450Y-50901133D02*
X176531577Y-55565195D01*
X176531577Y-55565195D02*
X177213576Y-56296548D01*
%TO.N,Net-(LED10-DIN)*%
X183037035Y-57702722D02*
X184025932Y-58763185D01*
X183863060Y-63427247D02*
X184545058Y-64158601D01*
X184025932Y-58763185D02*
X183863060Y-63427247D01*
%TO.N,Net-(LED11-DIN)*%
X190368517Y-65564775D02*
X191357415Y-66625238D01*
X191194542Y-71289299D02*
X191876540Y-72020653D01*
X191357415Y-66625238D02*
X191194542Y-71289299D01*
%TO.N,RGB_DATA*%
X196656720Y-77043280D02*
X197743280Y-75956720D01*
X166800000Y-74200000D02*
X166800000Y-70400000D01*
X167400000Y-69800000D02*
X169564912Y-69800000D01*
X197700000Y-75900000D02*
X197700000Y-73426827D01*
X166800000Y-70400000D02*
X167400000Y-69800000D01*
X165216500Y-75783500D02*
X166800000Y-74200000D01*
X169564912Y-69800000D02*
X176751472Y-76986560D01*
X176794752Y-77043280D02*
X196656720Y-77043280D01*
X157946250Y-75783500D02*
X165216500Y-75783500D01*
%TO.N,Net-(USB1-CC2)*%
X90596500Y-85252499D02*
X90446500Y-85402499D01*
X90446500Y-85402499D02*
X89154250Y-85402499D01*
%TO.N,Net-(USB1-CC1)*%
X89154250Y-82402499D02*
X90396500Y-82402499D01*
X90396500Y-82402499D02*
X90446500Y-82452499D01*
%TO.N,USB_D-*%
X90313750Y-83319749D02*
X89846500Y-82852499D01*
X89846500Y-82852499D02*
X89021500Y-82852499D01*
X89021500Y-83852499D02*
X89813750Y-83852499D01*
D63*
X140446250Y-77053500D02*
X138953500Y-77053500D01*
X138953500Y-77053500D02*
X138900000Y-77000000D01*
D62*
X89813750Y-83852499D02*
X90313750Y-83352499D01*
X90313750Y-83352499D02*
X90313750Y-83319749D01*
%TO.N,USB_D+*%
X87946500Y-83785249D02*
X87946500Y-83902499D01*
D63*
X141900000Y-75900000D02*
X140562750Y-75900000D01*
X140562750Y-75900000D02*
X140446250Y-75783500D01*
D62*
X88329250Y-83402499D02*
X87946500Y-83785249D01*
X87946500Y-84019749D02*
X88329250Y-84402499D01*
X87946500Y-83902499D02*
X87946500Y-84019749D01*
X89154250Y-83402499D02*
X88329250Y-83402499D01*
X88329250Y-84402499D02*
X89154250Y-84402499D01*
%TD*%
%TA.AperFunction,Conductor*%
%TO.N,3V3_SWITCHING_OUT*%
G36*
X168255039Y-79269685D02*
G01*
X168287200Y-79299600D01*
X168999999Y-80250000D01*
X169000000Y-80250000D01*
X172948638Y-80250000D01*
X173015677Y-80269685D01*
X173036319Y-80286319D01*
X173213681Y-80463681D01*
X173247166Y-80525004D01*
X173250000Y-80551362D01*
X173250000Y-81448638D01*
X173230315Y-81515677D01*
X173213681Y-81536319D01*
X173036319Y-81713681D01*
X172974996Y-81747166D01*
X172948638Y-81750000D01*
X170500000Y-81750000D01*
X169533067Y-82475200D01*
X169467625Y-82499676D01*
X169458667Y-82500000D01*
X167051362Y-82500000D01*
X166984323Y-82480315D01*
X166963681Y-82463681D01*
X166250000Y-81750000D01*
X163551362Y-81750000D01*
X163484323Y-81730315D01*
X163463681Y-81713681D01*
X163286319Y-81536319D01*
X163252834Y-81474996D01*
X163250000Y-81448638D01*
X163250000Y-80051362D01*
X163269685Y-79984323D01*
X163286319Y-79963681D01*
X163963681Y-79286319D01*
X164025004Y-79252834D01*
X164051362Y-79250000D01*
X168188000Y-79250000D01*
X168255039Y-79269685D01*
G37*
%TD.AperFunction*%
%TD*%
%TA.AperFunction,Conductor*%
%TO.N,GND*%
G36*
X165465677Y-82719685D02*
G01*
X165486319Y-82736319D01*
X166200000Y-83450000D01*
X169950000Y-83450000D01*
X170663681Y-82736319D01*
X170725004Y-82702834D01*
X170751362Y-82700000D01*
X173148638Y-82700000D01*
X173215677Y-82719685D01*
X173236319Y-82736319D01*
X173913681Y-83413681D01*
X173947166Y-83475004D01*
X173950000Y-83501362D01*
X173950000Y-86293922D01*
X173930315Y-86360961D01*
X173926578Y-86366448D01*
X173894433Y-86411025D01*
X173834663Y-86541899D01*
X173814976Y-86608944D01*
X173794500Y-86751363D01*
X173794500Y-87739254D01*
X173774815Y-87806293D01*
X173758181Y-87826935D01*
X173026935Y-88558181D01*
X172965612Y-88591666D01*
X172939254Y-88594500D01*
X170151346Y-88594500D01*
X170149705Y-88594544D01*
X170149704Y-88594500D01*
X170149702Y-88594500D01*
X170149702Y-88594427D01*
X170149685Y-88593820D01*
X170084356Y-88578218D01*
X170058291Y-88558291D01*
X169986319Y-88486319D01*
X169952834Y-88424996D01*
X169950000Y-88398638D01*
X169950000Y-87751362D01*
X169969685Y-87684323D01*
X169986319Y-87663681D01*
X170200000Y-87450000D01*
X170450000Y-87200000D01*
X170450000Y-85200000D01*
X169950000Y-84700000D01*
X166449999Y-84700000D01*
X165950000Y-85199999D01*
X165950000Y-87200000D01*
X166413681Y-87663681D01*
X166447166Y-87725004D01*
X166450000Y-87751362D01*
X166450000Y-88398638D01*
X166430315Y-88465677D01*
X166413681Y-88486319D01*
X166236319Y-88663681D01*
X166174996Y-88697166D01*
X166148638Y-88700000D01*
X165863948Y-88700000D01*
X165839757Y-88697617D01*
X165809669Y-88691632D01*
X165723543Y-88674500D01*
X165723541Y-88674500D01*
X165073540Y-88674500D01*
X165023541Y-88674500D01*
X164048541Y-88674500D01*
X163475862Y-88674500D01*
X163408823Y-88654815D01*
X163388181Y-88638181D01*
X162236319Y-87486319D01*
X162202834Y-87424996D01*
X162200000Y-87398638D01*
X162200000Y-83501362D01*
X162219685Y-83434323D01*
X162236319Y-83413681D01*
X162913681Y-82736319D01*
X162975004Y-82702834D01*
X163001362Y-82700000D01*
X165398638Y-82700000D01*
X165465677Y-82719685D01*
G37*
%TD.AperFunction*%
%TD*%
%TA.AperFunction,Conductor*%
%TO.N,GND*%
G36*
X184645677Y-81687185D02*
G01*
X184666319Y-81703819D01*
X184880000Y-81917500D01*
X188078638Y-81917500D01*
X188145677Y-81937185D01*
X188166319Y-81953819D01*
X188343681Y-82131181D01*
X188377166Y-82192504D01*
X188380000Y-82218862D01*
X188380000Y-83568000D01*
X188360315Y-83635039D01*
X188307511Y-83680794D01*
X188256000Y-83692000D01*
X187838856Y-83692000D01*
X187800841Y-83696565D01*
X187754411Y-83702140D01*
X187620023Y-83755136D01*
X187504921Y-83842421D01*
X187417636Y-83957523D01*
X187364640Y-84091911D01*
X187361731Y-84116138D01*
X187354500Y-84176356D01*
X187354500Y-84708644D01*
X187359825Y-84752994D01*
X187364640Y-84793088D01*
X187417636Y-84927476D01*
X187504921Y-85042577D01*
X187504922Y-85042578D01*
X187580426Y-85099835D01*
X187621948Y-85156024D01*
X187629500Y-85198637D01*
X187629500Y-85802744D01*
X187609815Y-85869783D01*
X187593181Y-85890425D01*
X187393426Y-86090179D01*
X187332103Y-86123664D01*
X187320032Y-86125672D01*
X187305011Y-86127414D01*
X187305009Y-86127415D01*
X187238153Y-86156934D01*
X187188069Y-86167500D01*
X187181362Y-86167500D01*
X187114323Y-86147815D01*
X187093681Y-86131181D01*
X186936819Y-85974319D01*
X186903334Y-85912996D01*
X186900500Y-85886638D01*
X186900500Y-85886246D01*
X186900500Y-85886244D01*
X186873207Y-85784384D01*
X186873207Y-85784383D01*
X186820480Y-85693058D01*
X185724442Y-84597020D01*
X185678779Y-84570656D01*
X185633118Y-84544293D01*
X185582186Y-84530646D01*
X185531256Y-84517000D01*
X185531255Y-84517000D01*
X185530862Y-84517000D01*
X185530543Y-84516906D01*
X185523196Y-84515939D01*
X185523346Y-84514793D01*
X185463823Y-84497315D01*
X185443181Y-84480681D01*
X185166319Y-84203819D01*
X185132834Y-84142496D01*
X185130000Y-84116138D01*
X185130000Y-83417500D01*
X184380000Y-82667500D01*
X183784887Y-82667500D01*
X183717848Y-82647815D01*
X183697206Y-82631181D01*
X183416319Y-82350294D01*
X183382834Y-82288971D01*
X183380000Y-82262613D01*
X183380000Y-81968862D01*
X183399685Y-81901823D01*
X183416319Y-81881181D01*
X183593681Y-81703819D01*
X183655004Y-81670334D01*
X183681362Y-81667500D01*
X184578638Y-81667500D01*
X184645677Y-81687185D01*
G37*
%TD.AperFunction*%
%TD*%
%TA.AperFunction,Conductor*%
%TO.N,VCC*%
G36*
X181143039Y-86419685D02*
G01*
X181188794Y-86472489D01*
X181200000Y-86524000D01*
X181200000Y-87856999D01*
X181180315Y-87924038D01*
X181175200Y-87931399D01*
X180500384Y-88831154D01*
X180489696Y-88845956D01*
X180484565Y-88853338D01*
X180474437Y-88868490D01*
X180474435Y-88868493D01*
X180474433Y-88868496D01*
X180474433Y-88868497D01*
X180470013Y-88878176D01*
X180414663Y-88999370D01*
X180394976Y-89066415D01*
X180374500Y-89208834D01*
X180374184Y-89213253D01*
X180372560Y-89213136D01*
X180354815Y-89273570D01*
X180351130Y-89278985D01*
X179437113Y-90548454D01*
X179381967Y-90591357D01*
X179336483Y-90600000D01*
X176338785Y-90600000D01*
X176271746Y-90580315D01*
X176256558Y-90568816D01*
X176233574Y-90548454D01*
X176157934Y-90481443D01*
X176023434Y-90410852D01*
X176023433Y-90410851D01*
X176023432Y-90410851D01*
X175875950Y-90374500D01*
X175875949Y-90374500D01*
X175724051Y-90374500D01*
X175724050Y-90374500D01*
X175576567Y-90410851D01*
X175442067Y-90481442D01*
X175442066Y-90481443D01*
X175370570Y-90544783D01*
X175343442Y-90568816D01*
X175280209Y-90598537D01*
X175261215Y-90600000D01*
X170566363Y-90600000D01*
X170499324Y-90580315D01*
X170463189Y-90544783D01*
X170300000Y-90300000D01*
X169824000Y-90300000D01*
X169756961Y-90280315D01*
X169711206Y-90227511D01*
X169700000Y-90176000D01*
X169700000Y-89551362D01*
X169719685Y-89484323D01*
X169736319Y-89463681D01*
X170063681Y-89136319D01*
X170125004Y-89102834D01*
X170151362Y-89100000D01*
X173200000Y-89100000D01*
X174300000Y-88000000D01*
X174300000Y-86751362D01*
X174319685Y-86684323D01*
X174336319Y-86663681D01*
X174563681Y-86436319D01*
X174625004Y-86402834D01*
X174651362Y-86400000D01*
X181076000Y-86400000D01*
X181143039Y-86419685D01*
G37*
%TD.AperFunction*%
%TD*%
%TA.AperFunction,Conductor*%
%TO.N,GND*%
G36*
X168455041Y-92276938D02*
G01*
X168456618Y-92277526D01*
X168467517Y-92281591D01*
X168527127Y-92288000D01*
X168872872Y-92287999D01*
X168932483Y-92281591D01*
X168932489Y-92281588D01*
X168940025Y-92279808D01*
X168940488Y-92281769D01*
X168999673Y-92277526D01*
X169060999Y-92310999D01*
X169061016Y-92311016D01*
X169413681Y-92663681D01*
X169447166Y-92725004D01*
X169450000Y-92751362D01*
X169450000Y-96325500D01*
X169430315Y-96392539D01*
X169377511Y-96438294D01*
X169326000Y-96449500D01*
X166824000Y-96449500D01*
X166756961Y-96429815D01*
X166711206Y-96377011D01*
X166700000Y-96325500D01*
X166700000Y-94150596D01*
X166719685Y-94083557D01*
X166736316Y-94062918D01*
X168058506Y-92740727D01*
X168058511Y-92740724D01*
X168068714Y-92730520D01*
X168068716Y-92730520D01*
X168180520Y-92618716D01*
X168259577Y-92481784D01*
X168291934Y-92361025D01*
X168328298Y-92301366D01*
X168391145Y-92270837D01*
X168455041Y-92276938D01*
G37*
%TD.AperFunction*%
%TD*%
%TA.AperFunction,Conductor*%
%TO.N,GND*%
G36*
X86462177Y-85672184D02*
G01*
X86482819Y-85688818D01*
X87247368Y-86453367D01*
X87280853Y-86514690D01*
X87283687Y-86541048D01*
X87283687Y-86598922D01*
X87284705Y-86631001D01*
X87314173Y-86771826D01*
X87314174Y-86771830D01*
X87352779Y-86877894D01*
X87352787Y-86877915D01*
X87364696Y-86907663D01*
X87364699Y-86907670D01*
X87440554Y-87029924D01*
X87440555Y-87029925D01*
X87440557Y-87029928D01*
X87495895Y-87095877D01*
X87513108Y-87116391D01*
X87534490Y-87140291D01*
X87534491Y-87140292D01*
X87534495Y-87140296D01*
X87647592Y-87229238D01*
X87745341Y-87285674D01*
X87745343Y-87285675D01*
X87745352Y-87285680D01*
X87773619Y-87300825D01*
X87839151Y-87322347D01*
X87910314Y-87345719D01*
X88021471Y-87365319D01*
X88053221Y-87369884D01*
X88197029Y-87365319D01*
X88308186Y-87345719D01*
X88339585Y-87339149D01*
X88473159Y-87285674D01*
X88570908Y-87229238D01*
X88598162Y-87212327D01*
X88705391Y-87116392D01*
X88777943Y-87029928D01*
X88797770Y-87004717D01*
X88843999Y-86918436D01*
X88893011Y-86868640D01*
X88953299Y-86852998D01*
X89595637Y-86852998D01*
X89662676Y-86872683D01*
X89683318Y-86889317D01*
X89910181Y-87116180D01*
X89943666Y-87177503D01*
X89946500Y-87203861D01*
X89946500Y-88101137D01*
X89926815Y-88168176D01*
X89910181Y-88188818D01*
X89482819Y-88616180D01*
X89421496Y-88649665D01*
X89395138Y-88652499D01*
X83247862Y-88652499D01*
X83180823Y-88632814D01*
X83160181Y-88616180D01*
X82732819Y-88188818D01*
X82699334Y-88127495D01*
X82696500Y-88101137D01*
X82696500Y-86203861D01*
X82716185Y-86136822D01*
X82732819Y-86116180D01*
X83160181Y-85688818D01*
X83221504Y-85655333D01*
X83247862Y-85652499D01*
X86395138Y-85652499D01*
X86462177Y-85672184D01*
G37*
%TD.AperFunction*%
%TD*%
%TA.AperFunction,Conductor*%
%TO.N,GND*%
G36*
X89462177Y-78672184D02*
G01*
X89482819Y-78688818D01*
X89910181Y-79116180D01*
X89943666Y-79177503D01*
X89946500Y-79203861D01*
X89946500Y-80101137D01*
X89926815Y-80168176D01*
X89910181Y-80188818D01*
X89683319Y-80415680D01*
X89621996Y-80449165D01*
X89595638Y-80451999D01*
X88956714Y-80451999D01*
X88889675Y-80432314D01*
X88851348Y-80393375D01*
X88777945Y-80275073D01*
X88777944Y-80275072D01*
X88777943Y-80275070D01*
X88705391Y-80188606D01*
X88684005Y-80164702D01*
X88570908Y-80075760D01*
X88473159Y-80019324D01*
X88473157Y-80019323D01*
X88473147Y-80019317D01*
X88444880Y-80004172D01*
X88308193Y-79959281D01*
X88308183Y-79959278D01*
X88197026Y-79939678D01*
X88165282Y-79935114D01*
X88165279Y-79935114D01*
X88093375Y-79937396D01*
X88021468Y-79939679D01*
X87910316Y-79959278D01*
X87878915Y-79965848D01*
X87745344Y-80019322D01*
X87745341Y-80019323D01*
X87647609Y-80075749D01*
X87620335Y-80092673D01*
X87513109Y-80188604D01*
X87440557Y-80275069D01*
X87420728Y-80300282D01*
X87352779Y-80427103D01*
X87352778Y-80427105D01*
X87314165Y-80533192D01*
X87304164Y-80563640D01*
X87283687Y-80706064D01*
X87283687Y-80763950D01*
X87264002Y-80830989D01*
X87247368Y-80851631D01*
X86482819Y-81616180D01*
X86421496Y-81649665D01*
X86395138Y-81652499D01*
X83247862Y-81652499D01*
X83180823Y-81632814D01*
X83160181Y-81616180D01*
X82732819Y-81188818D01*
X82699334Y-81127495D01*
X82696500Y-81101137D01*
X82696500Y-79203861D01*
X82716185Y-79136822D01*
X82732819Y-79116180D01*
X83160181Y-78688818D01*
X83221504Y-78655333D01*
X83247862Y-78652499D01*
X89395138Y-78652499D01*
X89462177Y-78672184D01*
G37*
%TD.AperFunction*%
%TD*%
%TA.AperFunction,Conductor*%
%TO.N,GND*%
G36*
X190654710Y-87925193D02*
G01*
X190752203Y-87957499D01*
X190854991Y-87968000D01*
X191905008Y-87967999D01*
X191905016Y-87967998D01*
X191905019Y-87967998D01*
X191961302Y-87962248D01*
X192007797Y-87957499D01*
X192048450Y-87944027D01*
X192118276Y-87941625D01*
X192178318Y-87977355D01*
X192181167Y-87980531D01*
X192207863Y-88011340D01*
X192207866Y-88011343D01*
X192207870Y-88011347D01*
X192316604Y-88105567D01*
X192316607Y-88105568D01*
X192316608Y-88105569D01*
X192393821Y-88140832D01*
X192447481Y-88165338D01*
X192514520Y-88185023D01*
X192514524Y-88185024D01*
X192656940Y-88205500D01*
X192656943Y-88205500D01*
X193006000Y-88205500D01*
X193073039Y-88225185D01*
X193118794Y-88277989D01*
X193130000Y-88329500D01*
X193130000Y-93866138D01*
X193110315Y-93933177D01*
X193093681Y-93953819D01*
X192916319Y-94131181D01*
X192854996Y-94164666D01*
X192828638Y-94167500D01*
X181181362Y-94167500D01*
X181114323Y-94147815D01*
X181093681Y-94131181D01*
X180916319Y-93953819D01*
X180882834Y-93892496D01*
X180880000Y-93866138D01*
X180880000Y-89208833D01*
X180899685Y-89141794D01*
X180904800Y-89134433D01*
X181435086Y-88427386D01*
X181624714Y-88174548D01*
X181636233Y-88161267D01*
X181726960Y-88070540D01*
X181826291Y-87971208D01*
X181887612Y-87937725D01*
X181952973Y-87941185D01*
X182002203Y-87957499D01*
X182104991Y-87968000D01*
X183155008Y-87967999D01*
X183155016Y-87967998D01*
X183155019Y-87967998D01*
X183211302Y-87962248D01*
X183257797Y-87957499D01*
X183355287Y-87925193D01*
X183425112Y-87922792D01*
X183485155Y-87958523D01*
X183499827Y-87977802D01*
X183557031Y-88070543D01*
X183676955Y-88190467D01*
X183676959Y-88190470D01*
X183821294Y-88279498D01*
X183821297Y-88279499D01*
X183821303Y-88279503D01*
X183982292Y-88332849D01*
X184035212Y-88338255D01*
X184070059Y-88347051D01*
X184088165Y-88354551D01*
X184135496Y-88363965D01*
X184281456Y-88393000D01*
X184479902Y-88393000D01*
X184546941Y-88412685D01*
X184567583Y-88429319D01*
X184568784Y-88430520D01*
X184655595Y-88480639D01*
X184655597Y-88480641D01*
X184693651Y-88502611D01*
X184705715Y-88509577D01*
X184858443Y-88550500D01*
X185006000Y-88550500D01*
X185073039Y-88570185D01*
X185118794Y-88622989D01*
X185130000Y-88674500D01*
X185130000Y-89366138D01*
X185110315Y-89433177D01*
X185093681Y-89453819D01*
X184916319Y-89631181D01*
X184854996Y-89664666D01*
X184828638Y-89667500D01*
X183629999Y-89667500D01*
X183130000Y-90167499D01*
X183130000Y-92167500D01*
X183213181Y-92250681D01*
X183246666Y-92312004D01*
X183249500Y-92338361D01*
X183249500Y-92495369D01*
X183249501Y-92495376D01*
X183255908Y-92554983D01*
X183306202Y-92689828D01*
X183306206Y-92689835D01*
X183392452Y-92805044D01*
X183392455Y-92805047D01*
X183507664Y-92891293D01*
X183507671Y-92891297D01*
X183642517Y-92941591D01*
X183642516Y-92941591D01*
X183649444Y-92942335D01*
X183702127Y-92948000D01*
X190297872Y-92947999D01*
X190357483Y-92941591D01*
X190492331Y-92891296D01*
X190607546Y-92805046D01*
X190693796Y-92689831D01*
X190735602Y-92577742D01*
X190764099Y-92533400D01*
X191130000Y-92167500D01*
X191130000Y-90167500D01*
X190630000Y-89667500D01*
X189181362Y-89667500D01*
X189114323Y-89647815D01*
X189093681Y-89631181D01*
X188916319Y-89453819D01*
X188882834Y-89392496D01*
X188880000Y-89366138D01*
X188880000Y-89020596D01*
X188899685Y-88953557D01*
X188916319Y-88932915D01*
X189076362Y-88772872D01*
X189421849Y-88427384D01*
X189483170Y-88393901D01*
X189525283Y-88393526D01*
X189525394Y-88392403D01*
X189531457Y-88393000D01*
X189531459Y-88393000D01*
X189728543Y-88393000D01*
X189858582Y-88367132D01*
X189921835Y-88354551D01*
X189939941Y-88347050D01*
X189974792Y-88338254D01*
X190027708Y-88332849D01*
X190188697Y-88279503D01*
X190333044Y-88190468D01*
X190452968Y-88070544D01*
X190510172Y-87977803D01*
X190562120Y-87931078D01*
X190631082Y-87919857D01*
X190654710Y-87925193D01*
G37*
%TD.AperFunction*%
%TD*%
%TA.AperFunction,Conductor*%
%TO.N,VCC*%
G36*
X194935739Y-81305508D02*
G01*
X195120542Y-81362513D01*
X195372565Y-81400500D01*
X195627435Y-81400500D01*
X195879458Y-81362513D01*
X196064260Y-81305508D01*
X196100810Y-81300000D01*
X198476000Y-81300000D01*
X198543039Y-81319685D01*
X198588794Y-81372489D01*
X198600000Y-81424000D01*
X198600000Y-84748638D01*
X198580315Y-84815677D01*
X198563681Y-84836319D01*
X195736319Y-87663681D01*
X195674996Y-87697166D01*
X195648638Y-87700000D01*
X192656940Y-87700000D01*
X192589901Y-87680315D01*
X192544146Y-87627511D01*
X192534202Y-87558353D01*
X192539234Y-87536996D01*
X192594505Y-87370197D01*
X192594506Y-87370190D01*
X192604999Y-87267486D01*
X192605000Y-87267473D01*
X192605000Y-87217500D01*
X192200000Y-87217500D01*
X192200000Y-86717500D01*
X192604999Y-86717500D01*
X192604999Y-86667528D01*
X192604998Y-86667513D01*
X192594505Y-86564802D01*
X192539358Y-86398380D01*
X192539356Y-86398375D01*
X192447315Y-86249154D01*
X192436761Y-86238600D01*
X192403276Y-86177277D01*
X192408260Y-86107585D01*
X192436757Y-86063242D01*
X192600000Y-85900000D01*
X192600000Y-85107844D01*
X193600000Y-85107844D01*
X193606401Y-85167372D01*
X193606403Y-85167379D01*
X193656645Y-85302086D01*
X193656649Y-85302093D01*
X193742809Y-85417187D01*
X193742812Y-85417190D01*
X193857906Y-85503350D01*
X193857913Y-85503354D01*
X193992620Y-85553596D01*
X193992627Y-85553598D01*
X194052155Y-85559999D01*
X194052172Y-85560000D01*
X195250000Y-85560000D01*
X195250000Y-84527904D01*
X195411358Y-84560000D01*
X195588642Y-84560000D01*
X195750000Y-84527904D01*
X195750000Y-85560000D01*
X196947828Y-85560000D01*
X196947844Y-85559999D01*
X197007372Y-85553598D01*
X197007379Y-85553596D01*
X197142086Y-85503354D01*
X197142093Y-85503350D01*
X197257187Y-85417190D01*
X197257190Y-85417187D01*
X197343350Y-85302093D01*
X197343354Y-85302086D01*
X197393596Y-85167379D01*
X197393598Y-85167372D01*
X197399999Y-85107844D01*
X197400000Y-85107827D01*
X197400000Y-83910000D01*
X196367904Y-83910000D01*
X196400000Y-83748642D01*
X196400000Y-83571358D01*
X196367904Y-83410000D01*
X197400000Y-83410000D01*
X197400000Y-82212172D01*
X197399999Y-82212155D01*
X197393598Y-82152627D01*
X197393596Y-82152620D01*
X197343354Y-82017913D01*
X197343350Y-82017906D01*
X197257190Y-81902812D01*
X197257187Y-81902809D01*
X197142093Y-81816649D01*
X197142086Y-81816645D01*
X197007379Y-81766403D01*
X197007372Y-81766401D01*
X196947844Y-81760000D01*
X195750000Y-81760000D01*
X195750000Y-82792095D01*
X195588642Y-82760000D01*
X195411358Y-82760000D01*
X195250000Y-82792095D01*
X195250000Y-81760000D01*
X194052155Y-81760000D01*
X193992627Y-81766401D01*
X193992620Y-81766403D01*
X193857913Y-81816645D01*
X193857906Y-81816649D01*
X193742812Y-81902809D01*
X193742809Y-81902812D01*
X193656649Y-82017906D01*
X193656645Y-82017913D01*
X193606403Y-82152620D01*
X193606401Y-82152627D01*
X193600000Y-82212155D01*
X193600000Y-83410000D01*
X194632096Y-83410000D01*
X194600000Y-83571358D01*
X194600000Y-83748642D01*
X194632096Y-83910000D01*
X193600000Y-83910000D01*
X193600000Y-85107844D01*
X192600000Y-85107844D01*
X192600000Y-81951362D01*
X192619685Y-81884323D01*
X192636319Y-81863681D01*
X193163681Y-81336319D01*
X193225004Y-81302834D01*
X193251362Y-81300000D01*
X194899190Y-81300000D01*
X194935739Y-81305508D01*
G37*
%TD.AperFunction*%
%TD*%
M02*
