%TF.GenerationSoftware,KiCad,Pcbnew,8.0.1*%
%TF.CreationDate,2024-07-22T13:19:01+02:00*%
%TF.ProjectId,LineFollower_V2,4c696e65-466f-46c6-9c6f-7765725f5632,rev?*%
%TF.SameCoordinates,Original*%
%TF.FileFunction,Copper,L2,Bot*%
%TF.FilePolarity,Positive*%
%FSLAX46Y46*%
G04 Gerber Fmt 4.6, Leading zero omitted, Abs format (unit mm)*
G04 Created by KiCad (PCBNEW 8.0.1) date 2024-07-22 13:19:01*
%MOMM*%
%LPD*%
G01*
G04 APERTURE LIST*
G04 Aperture macros list*
%AMRoundRect*
0 Rectangle with rounded corners*
0 $1 Rounding radius*
0 $2 $3 $4 $5 $6 $7 $8 $9 X,Y pos of 4 corners*
0 Add a 4 corners polygon primitive as box body*
4,1,4,$2,$3,$4,$5,$6,$7,$8,$9,$2,$3,0*
0 Add four circle primitives for the rounded corners*
1,1,$1+$1,$2,$3*
1,1,$1+$1,$4,$5*
1,1,$1+$1,$6,$7*
1,1,$1+$1,$8,$9*
0 Add four rect primitives between the rounded corners*
20,1,$1+$1,$2,$3,$4,$5,0*
20,1,$1+$1,$4,$5,$6,$7,0*
20,1,$1+$1,$6,$7,$8,$9,0*
20,1,$1+$1,$8,$9,$2,$3,0*%
G04 Aperture macros list end*
%TA.AperFunction,ComponentPad*%
%ADD10C,0.800000*%
%TD*%
%TA.AperFunction,ComponentPad*%
%ADD11C,6.400000*%
%TD*%
%TA.AperFunction,ComponentPad*%
%ADD12R,1.700000X1.700000*%
%TD*%
%TA.AperFunction,ComponentPad*%
%ADD13O,1.700000X1.700000*%
%TD*%
%TA.AperFunction,ComponentPad*%
%ADD14C,1.800000*%
%TD*%
%TA.AperFunction,ComponentPad*%
%ADD15C,1.524000*%
%TD*%
%TA.AperFunction,ComponentPad*%
%ADD16C,1.700000*%
%TD*%
%TA.AperFunction,ComponentPad*%
%ADD17O,2.100000X1.100000*%
%TD*%
%TA.AperFunction,ComponentPad*%
%ADD18O,1.800000X1.100000*%
%TD*%
%TA.AperFunction,ComponentPad*%
%ADD19R,2.800000X2.800000*%
%TD*%
%TA.AperFunction,ComponentPad*%
%ADD20C,2.800000*%
%TD*%
%TA.AperFunction,SMDPad,CuDef*%
%ADD21RoundRect,0.200000X0.275000X-0.200000X0.275000X0.200000X-0.275000X0.200000X-0.275000X-0.200000X0*%
%TD*%
%TA.AperFunction,SMDPad,CuDef*%
%ADD22RoundRect,0.200000X-0.275000X0.200000X-0.275000X-0.200000X0.275000X-0.200000X0.275000X0.200000X0*%
%TD*%
%TA.AperFunction,ViaPad*%
%ADD23C,1.000000*%
%TD*%
%TA.AperFunction,ViaPad*%
%ADD24C,0.650000*%
%TD*%
%TA.AperFunction,ViaPad*%
%ADD25C,0.600000*%
%TD*%
%TA.AperFunction,Conductor*%
%ADD26C,0.200000*%
%TD*%
%TA.AperFunction,Conductor*%
%ADD27C,1.000000*%
%TD*%
%TA.AperFunction,Conductor*%
%ADD28C,0.500000*%
%TD*%
%TA.AperFunction,Conductor*%
%ADD29C,2.000000*%
%TD*%
%TA.AperFunction,Conductor*%
%ADD30C,0.250000*%
%TD*%
%TA.AperFunction,Conductor*%
%ADD31C,1.400000*%
%TD*%
%TA.AperFunction,Conductor*%
%ADD32C,0.800000*%
%TD*%
G04 APERTURE END LIST*
D10*
%TO.P,REF\u002A\u002A,1*%
%TO.N,N/C*%
X176350000Y-109750000D03*
X177052944Y-108052944D03*
X177052944Y-111447056D03*
X178750000Y-107350000D03*
D11*
X178750000Y-109750000D03*
D10*
X178750000Y-112150000D03*
X180447056Y-108052944D03*
X180447056Y-111447056D03*
X181150000Y-109750000D03*
%TD*%
%TO.P,REF\u002A\u002A,1*%
%TO.N,N/C*%
X176402944Y-136552944D03*
X177105888Y-134855888D03*
X177105888Y-138250000D03*
X178802944Y-134152944D03*
D11*
X178802944Y-136552944D03*
D10*
X178802944Y-138952944D03*
X180500000Y-134855888D03*
X180500000Y-138250000D03*
X181202944Y-136552944D03*
%TD*%
%TO.P,REF\u002A\u002A,1*%
%TO.N,N/C*%
X102850000Y-109750000D03*
X103552944Y-108052944D03*
X103552944Y-111447056D03*
X105250000Y-107350000D03*
D11*
X105250000Y-109750000D03*
D10*
X105250000Y-112150000D03*
X106947056Y-108052944D03*
X106947056Y-111447056D03*
X107650000Y-109750000D03*
%TD*%
D12*
%TO.P,J1,1,Pin_1*%
%TO.N,GND*%
X133920000Y-83000000D03*
D13*
%TO.P,J1,2,Pin_2*%
%TO.N,L_IN_1*%
X136460000Y-83000000D03*
%TO.P,J1,3,Pin_3*%
%TO.N,L_IN_2*%
X139000000Y-83000000D03*
%TO.P,J1,4,Pin_4*%
%TO.N,IO12*%
X141540000Y-83000000D03*
%TO.P,J1,5,Pin_5*%
%TO.N,I_SENS_1*%
X144080000Y-83000000D03*
%TO.P,J1,6,Pin_6*%
%TO.N,I_SENS_2*%
X146620000Y-83000000D03*
%TO.P,J1,7,Pin_7*%
%TO.N,R_IN_1*%
X149160000Y-83000000D03*
%TO.P,J1,8,Pin_8*%
%TO.N,R_IN_2*%
X151700000Y-83000000D03*
%TO.P,J1,9,Pin_9*%
%TO.N,IO34*%
X154240000Y-83000000D03*
%TO.P,J1,10,Pin_10*%
%TO.N,IO37*%
X156780000Y-83000000D03*
%TD*%
D12*
%TO.P,REF\u002A\u002A,1*%
%TO.N,GND*%
X120960000Y-103620000D03*
D13*
%TO.P,REF\u002A\u002A,2*%
%TO.N,N/C*%
X118420000Y-103620000D03*
%TO.P,REF\u002A\u002A,3*%
X115880000Y-103620000D03*
%TO.P,REF\u002A\u002A,4*%
X113340000Y-103620000D03*
%TO.P,REF\u002A\u002A,5*%
X110800000Y-103620000D03*
%TO.P,REF\u002A\u002A,6*%
X108260000Y-103620000D03*
%TO.P,REF\u002A\u002A,7*%
X105720000Y-103620000D03*
%TO.P,REF\u002A\u002A,8*%
X103180000Y-103620000D03*
%TO.P,REF\u002A\u002A,9*%
X100640000Y-103620000D03*
%TO.P,REF\u002A\u002A,10*%
X98100000Y-103620000D03*
%TD*%
D10*
%TO.P,REF\u002A\u002A,1*%
%TO.N,N/C*%
X102850000Y-136500000D03*
X103552944Y-134802944D03*
X103552944Y-138197056D03*
X105250000Y-134100000D03*
D11*
X105250000Y-136500000D03*
D10*
X105250000Y-138900000D03*
X106947056Y-134802944D03*
X106947056Y-138197056D03*
X107650000Y-136500000D03*
%TD*%
%TO.P,REF\u002A\u002A,1*%
%TO.N,N/C*%
X121350000Y-109750000D03*
X122052944Y-108052944D03*
X122052944Y-111447056D03*
X123750000Y-107350000D03*
D11*
X123750000Y-109750000D03*
D10*
X123750000Y-112150000D03*
X125447056Y-108052944D03*
X125447056Y-111447056D03*
X126150000Y-109750000D03*
%TD*%
D14*
%TO.P,CN1,1,1*%
%TO.N,I_SENS_1_OUT*%
X131145000Y-100875000D03*
%TO.P,CN1,2,2*%
%TO.N,/Motor driver/IC_13_OUT_1*%
X128605000Y-100875000D03*
%TD*%
D15*
%TO.P,U2,1,1*%
%TO.N,unconnected-(U2-Pad1)*%
X122498500Y-70999000D03*
%TO.P,U2,2,2*%
%TO.N,unconnected-(U2-Pad2)*%
X122498500Y-69000000D03*
%TO.P,U2,3,3*%
%TO.N,SCL_L*%
X124500000Y-70999000D03*
%TO.P,U2,4,4*%
%TO.N,SDA_L*%
X124500000Y-69000000D03*
%TO.P,U2,5,5*%
%TO.N,SCL_R*%
X126499000Y-70999000D03*
%TO.P,U2,6,6*%
%TO.N,SDA_R*%
X126499000Y-69000000D03*
%TO.P,U2,7,7*%
%TO.N,3V3*%
X128498000Y-70999000D03*
%TO.P,U2,8,8*%
X128498000Y-69000000D03*
%TO.P,U2,9,9*%
%TO.N,GND*%
X130502500Y-70999000D03*
%TO.P,U2,10,10*%
X130502500Y-69000000D03*
%TD*%
D12*
%TO.P,REF\u002A\u002A,1*%
%TO.N,GND*%
X120960000Y-101080000D03*
D13*
%TO.P,REF\u002A\u002A,2*%
%TO.N,N/C*%
X118420000Y-101080000D03*
%TO.P,REF\u002A\u002A,3*%
X115880000Y-101080000D03*
%TO.P,REF\u002A\u002A,4*%
X113340000Y-101080000D03*
%TO.P,REF\u002A\u002A,5*%
X110800000Y-101080000D03*
%TO.P,REF\u002A\u002A,6*%
X108260000Y-101080000D03*
%TO.P,REF\u002A\u002A,7*%
X105720000Y-101080000D03*
%TO.P,REF\u002A\u002A,8*%
X103180000Y-101080000D03*
%TO.P,REF\u002A\u002A,9*%
X100640000Y-101080000D03*
%TO.P,REF\u002A\u002A,10*%
X98100000Y-101080000D03*
%TD*%
D10*
%TO.P,REF\u002A\u002A,1*%
%TO.N,N/C*%
X139600000Y-136000000D03*
X140302944Y-134302944D03*
X140302944Y-137697056D03*
X142000000Y-133600000D03*
D11*
X142000000Y-136000000D03*
D10*
X142000000Y-138400000D03*
X143697056Y-134302944D03*
X143697056Y-137697056D03*
X144400000Y-136000000D03*
%TD*%
D12*
%TO.P,H1,1,1*%
%TO.N,3V3_LDO_OUT*%
X140960000Y-87250000D03*
D16*
%TO.P,H1,2,2*%
%TO.N,3V3*%
X143500000Y-87250000D03*
%TO.P,H1,3,3*%
%TO.N,3V3_SWITCHING_OUT*%
X146040000Y-87250000D03*
%TD*%
D10*
%TO.P,REF\u002A\u002A,1*%
%TO.N,N/C*%
X157850000Y-109750000D03*
X158552944Y-108052944D03*
X158552944Y-111447056D03*
X160250000Y-107350000D03*
D11*
X160250000Y-109750000D03*
D10*
X160250000Y-112150000D03*
X161947056Y-108052944D03*
X161947056Y-111447056D03*
X162650000Y-109750000D03*
%TD*%
D17*
%TO.P,USB1,1,EH*%
%TO.N,GND*%
X88589250Y-79332499D03*
D18*
X84409250Y-79332499D03*
D17*
X88589250Y-87972499D03*
D18*
X84409250Y-87972499D03*
%TD*%
D10*
%TO.P,REF\u002A\u002A,1*%
%TO.N,N/C*%
X139600000Y-126052944D03*
X140302944Y-124355888D03*
X140302944Y-127750000D03*
X142000000Y-123652944D03*
D11*
X142000000Y-126052944D03*
D10*
X142000000Y-128452944D03*
X143697056Y-124355888D03*
X143697056Y-127750000D03*
X144400000Y-126052944D03*
%TD*%
D19*
%TO.P,U1,1,1*%
%TO.N,VCC*%
X195500000Y-83660000D03*
D20*
%TO.P,U1,2,2*%
%TO.N,GND*%
X195500000Y-79700000D03*
%TD*%
D12*
%TO.P,REF\u002A\u002A,1*%
%TO.N,GND*%
X120960000Y-98540000D03*
D13*
%TO.P,REF\u002A\u002A,2*%
%TO.N,N/C*%
X118420000Y-98540000D03*
%TO.P,REF\u002A\u002A,3*%
X115880000Y-98540000D03*
%TO.P,REF\u002A\u002A,4*%
X113340000Y-98540000D03*
%TO.P,REF\u002A\u002A,5*%
X110800000Y-98540000D03*
%TO.P,REF\u002A\u002A,6*%
X108260000Y-98540000D03*
%TO.P,REF\u002A\u002A,7*%
X105720000Y-98540000D03*
%TO.P,REF\u002A\u002A,8*%
X103180000Y-98540000D03*
%TO.P,REF\u002A\u002A,9*%
X100640000Y-98540000D03*
%TO.P,REF\u002A\u002A,10*%
X98100000Y-98540000D03*
%TD*%
D12*
%TO.P,REF\u002A\u002A,1*%
%TO.N,GND*%
X120960000Y-96000000D03*
D13*
%TO.P,REF\u002A\u002A,2*%
%TO.N,N/C*%
X118420000Y-96000000D03*
%TO.P,REF\u002A\u002A,3*%
X115880000Y-96000000D03*
%TO.P,REF\u002A\u002A,4*%
X113340000Y-96000000D03*
%TO.P,REF\u002A\u002A,5*%
X110800000Y-96000000D03*
%TO.P,REF\u002A\u002A,6*%
X108260000Y-96000000D03*
%TO.P,REF\u002A\u002A,7*%
X105720000Y-96000000D03*
%TO.P,REF\u002A\u002A,8*%
X103180000Y-96000000D03*
%TO.P,REF\u002A\u002A,9*%
X100640000Y-96000000D03*
%TO.P,REF\u002A\u002A,10*%
X98100000Y-96000000D03*
%TD*%
D10*
%TO.P,REF\u002A\u002A,1*%
%TO.N,N/C*%
X157850000Y-136500000D03*
X158552944Y-134802944D03*
X158552944Y-138197056D03*
X160250000Y-134100000D03*
D11*
X160250000Y-136500000D03*
D10*
X160250000Y-138900000D03*
X161947056Y-134802944D03*
X161947056Y-138197056D03*
X162650000Y-136500000D03*
%TD*%
D14*
%TO.P,CN2,1,1*%
%TO.N,/Motor driver/IC_14_OUT*%
X155520000Y-100750000D03*
%TO.P,CN2,2,2*%
%TO.N,I_SENS_2_OUT*%
X152980000Y-100750000D03*
%TD*%
D10*
%TO.P,REF\u002A\u002A,1*%
%TO.N,N/C*%
X121350000Y-136500000D03*
X122052944Y-134802944D03*
X122052944Y-138197056D03*
X123750000Y-134100000D03*
D11*
X123750000Y-136500000D03*
D10*
X123750000Y-138900000D03*
X125447056Y-134802944D03*
X125447056Y-138197056D03*
X126150000Y-136500000D03*
%TD*%
D12*
%TO.P,REF\u002A\u002A,1*%
%TO.N,GND*%
X120960000Y-93460000D03*
D13*
%TO.P,REF\u002A\u002A,2*%
%TO.N,N/C*%
X118420000Y-93460000D03*
%TO.P,REF\u002A\u002A,3*%
X115880000Y-93460000D03*
%TO.P,REF\u002A\u002A,4*%
X113340000Y-93460000D03*
%TO.P,REF\u002A\u002A,5*%
X110800000Y-93460000D03*
%TO.P,REF\u002A\u002A,6*%
X108260000Y-93460000D03*
%TO.P,REF\u002A\u002A,7*%
X105720000Y-93460000D03*
%TO.P,REF\u002A\u002A,8*%
X103180000Y-93460000D03*
%TO.P,REF\u002A\u002A,9*%
X100640000Y-93460000D03*
%TO.P,REF\u002A\u002A,10*%
X98100000Y-93460000D03*
%TD*%
D21*
%TO.P,R1,1,1*%
%TO.N,GND*%
X84446500Y-85937499D03*
%TO.P,R1,2,2*%
%TO.N,Net-(USB1-CC2)*%
X84446500Y-84287499D03*
%TD*%
D22*
%TO.P,R2,1,1*%
%TO.N,GND*%
X84446500Y-81287499D03*
%TO.P,R2,2,2*%
%TO.N,Net-(USB1-CC1)*%
X84446500Y-82937499D03*
%TD*%
D23*
%TO.N,GND*%
X95375000Y-83875000D03*
D24*
X91000000Y-73400000D03*
D23*
X107700000Y-85800000D03*
X176750000Y-84000000D03*
D24*
X129900000Y-43700000D03*
D23*
X126250000Y-44500000D03*
X144750000Y-88250000D03*
X133500000Y-56000000D03*
X198750000Y-99000000D03*
D24*
X187250000Y-66750000D03*
D23*
X142250000Y-97250000D03*
X135250000Y-89000000D03*
D24*
X105800000Y-57600000D03*
D23*
X159500000Y-96250000D03*
X135500000Y-52750000D03*
D24*
X173450000Y-84450000D03*
D23*
X192750000Y-91250000D03*
X163250000Y-101000000D03*
X173000000Y-79000000D03*
X142500000Y-70750000D03*
D24*
X173450000Y-86700000D03*
D23*
X136250000Y-89000000D03*
X139500000Y-96750000D03*
X172000000Y-78000000D03*
D24*
X170700000Y-85200000D03*
D23*
X160250000Y-68000000D03*
X100000000Y-85300000D03*
X134000000Y-54750000D03*
X184250000Y-104500000D03*
D24*
X185800000Y-83100000D03*
D23*
X136250000Y-53500000D03*
D24*
X124000000Y-74250000D03*
D23*
X133000000Y-90000000D03*
D24*
X84446500Y-80652499D03*
D23*
X134750000Y-55500000D03*
X198500000Y-78750000D03*
X160250000Y-69000000D03*
D24*
X187400000Y-83100000D03*
D23*
X143500000Y-60250000D03*
D24*
X166950000Y-95700000D03*
D23*
X182750000Y-91500000D03*
D24*
X140750000Y-33500000D03*
X162700000Y-85950000D03*
X185000000Y-82300000D03*
D23*
X198500000Y-80000000D03*
X189500000Y-79750000D03*
X135250000Y-90000000D03*
D24*
X187130000Y-85667500D03*
X83446500Y-80652499D03*
D23*
X157000000Y-89500000D03*
D24*
X165450000Y-85200000D03*
X168450000Y-95700000D03*
D23*
X155000000Y-90000000D03*
D24*
X170700000Y-85950000D03*
D23*
X176000000Y-96750000D03*
X176750000Y-82750000D03*
D24*
X168200000Y-92700000D03*
X168800000Y-94100000D03*
X165450000Y-85950000D03*
X167700000Y-93450000D03*
X147700000Y-69700000D03*
D23*
X199750000Y-88250000D03*
X176750000Y-85250000D03*
X159000000Y-89500000D03*
X158500000Y-96250000D03*
X125750000Y-60500000D03*
D24*
X186600000Y-82300000D03*
D23*
X137250000Y-89000000D03*
D24*
X120400000Y-41800000D03*
D23*
X176000000Y-95500000D03*
X95375000Y-87875000D03*
X168250000Y-99000000D03*
D24*
X167200000Y-96450000D03*
X170700000Y-84450000D03*
D23*
X144500000Y-85250000D03*
D24*
X168700000Y-96450000D03*
D23*
X180250000Y-98500000D03*
X127250000Y-84000000D03*
X199750000Y-99000000D03*
X154750000Y-46250000D03*
X181250000Y-97500000D03*
D24*
X165450000Y-84450000D03*
X162700000Y-85200000D03*
D23*
X180250000Y-97500000D03*
X142500000Y-69500000D03*
X189500000Y-90000000D03*
X186243840Y-78241198D03*
X137750000Y-104500000D03*
X198750000Y-95250000D03*
X101700000Y-85300000D03*
X181250000Y-90000000D03*
X187250000Y-101000000D03*
X169250000Y-99000000D03*
D24*
X165000000Y-43000000D03*
X86446500Y-86652499D03*
X160299613Y-61100387D03*
X162700000Y-84450000D03*
X143790000Y-43930000D03*
D23*
X99000000Y-81000000D03*
D24*
X145250000Y-33500000D03*
X149100000Y-68300000D03*
D23*
X169750000Y-79000000D03*
X125750000Y-89750000D03*
X148000000Y-97500000D03*
D24*
X172250000Y-50750000D03*
X141000000Y-50075000D03*
D23*
X182750000Y-104500000D03*
D24*
X137000000Y-52700000D03*
D23*
X197750000Y-99000000D03*
X163250000Y-102000000D03*
D24*
X86446500Y-88152499D03*
D23*
X157500000Y-96250000D03*
X156250000Y-68500000D03*
D24*
X146300000Y-68300000D03*
D23*
X157500000Y-39500000D03*
X160000000Y-89500000D03*
X128500000Y-84000000D03*
X191500000Y-91250000D03*
X137750000Y-55000000D03*
X182750000Y-90000000D03*
X142500000Y-72000000D03*
X194500000Y-88500000D03*
X169750000Y-78000000D03*
X185250000Y-78250000D03*
D24*
X98400000Y-65400000D03*
D23*
X154750000Y-47250000D03*
X184250000Y-90000000D03*
D24*
X85446500Y-80652499D03*
D23*
X170806411Y-78990683D03*
X200750000Y-87250000D03*
X181500000Y-104500000D03*
D24*
X185800000Y-83900000D03*
D23*
X100000000Y-86300000D03*
X108700000Y-85800000D03*
D24*
X179750000Y-58750000D03*
X149100000Y-66900000D03*
D23*
X125750000Y-58500000D03*
D24*
X149100000Y-69700000D03*
X144000000Y-100500000D03*
D23*
X193250000Y-93000000D03*
D24*
X86446500Y-79152499D03*
D23*
X141500000Y-104750000D03*
X145500000Y-85250000D03*
X125250000Y-37250000D03*
D24*
X173450000Y-85200000D03*
D23*
X142500000Y-60250000D03*
D24*
X86446500Y-80652499D03*
D23*
X133250000Y-54000000D03*
X181750000Y-93000000D03*
X142500000Y-68250000D03*
X98000000Y-81000000D03*
X173000000Y-78000000D03*
X125750000Y-59500000D03*
D24*
X134600000Y-50100000D03*
D23*
X101700000Y-86300000D03*
D24*
X169200000Y-93450000D03*
D23*
X184250000Y-78250000D03*
X186000000Y-102250000D03*
X164500000Y-69500000D03*
X158000000Y-89500000D03*
X192750000Y-90000000D03*
X162250000Y-101000000D03*
X167250000Y-99000000D03*
D24*
X127200000Y-73500000D03*
D23*
X135500000Y-56250000D03*
X201000000Y-88750000D03*
X145500000Y-60250000D03*
X131750000Y-95750000D03*
D24*
X168000000Y-94950000D03*
D23*
X136250000Y-90000000D03*
D24*
X167700000Y-95700000D03*
D23*
X137000000Y-54250000D03*
D24*
X168000000Y-94100000D03*
X162700000Y-86700000D03*
X147700000Y-68300000D03*
X147067500Y-49475000D03*
D23*
X126045260Y-36545260D03*
X176000000Y-94250000D03*
X199750000Y-95250000D03*
X191500000Y-90000000D03*
X144500000Y-60250000D03*
D24*
X113200000Y-49800000D03*
D23*
X187250000Y-102250000D03*
D24*
X168950000Y-92700000D03*
X169200000Y-95700000D03*
X146300000Y-69700000D03*
D23*
X125250000Y-43750000D03*
D24*
X136250000Y-33500000D03*
X152125000Y-33875000D03*
X194250000Y-74500000D03*
D23*
X97000000Y-81000000D03*
X180000000Y-93000000D03*
X153760000Y-95587000D03*
X150150000Y-88900000D03*
X162250000Y-102000000D03*
X147250000Y-104250000D03*
X129750000Y-84000000D03*
D24*
X144500000Y-50750000D03*
D23*
X197750000Y-95250000D03*
X139500000Y-97750000D03*
D24*
X165450000Y-86950000D03*
D23*
X160500000Y-96250000D03*
X158750000Y-41500000D03*
D24*
X170700000Y-86950000D03*
X131250000Y-77500000D03*
X151950000Y-44050000D03*
X168450000Y-93450000D03*
D23*
X125750000Y-88750000D03*
X158250000Y-40500000D03*
X124500000Y-38000000D03*
X192000000Y-93000000D03*
D24*
X187400000Y-82300000D03*
X84446500Y-86652499D03*
D23*
X160250000Y-71000000D03*
X188500000Y-79750000D03*
X156250000Y-69500000D03*
D24*
X186600000Y-83100000D03*
D23*
X181250000Y-98500000D03*
D24*
X185800000Y-82300000D03*
D23*
X186000000Y-101000000D03*
X156250000Y-70500000D03*
X137250000Y-90000000D03*
D24*
X147700000Y-66900000D03*
X167950000Y-96450000D03*
X83446500Y-86652499D03*
D23*
X100000000Y-81000000D03*
D24*
X146300000Y-66900000D03*
D23*
X127250000Y-45250000D03*
X160250000Y-70000000D03*
X170806411Y-77999999D03*
D24*
X168800000Y-94900000D03*
D23*
X181250000Y-91500000D03*
X141500000Y-103750000D03*
D24*
X173450000Y-85950000D03*
D23*
X154750000Y-45250000D03*
D24*
X165000000Y-68200000D03*
D23*
X133000000Y-59000000D03*
D24*
X85446500Y-86652499D03*
D23*
X148500000Y-104250000D03*
X172000000Y-79000000D03*
%TO.N,3V3_LDO_OUT*%
X104875000Y-83625000D03*
X103250000Y-83625000D03*
D24*
%TO.N,3V3*%
X119300000Y-73100000D03*
X117750000Y-75250000D03*
X135100000Y-46500000D03*
D23*
X119200000Y-84300000D03*
D24*
X130600000Y-40000000D03*
D23*
X137600000Y-75600000D03*
D24*
X150000000Y-35600000D03*
X151325000Y-40300000D03*
D23*
X144000000Y-61800000D03*
D24*
X156895330Y-41834670D03*
X157500000Y-45300000D03*
X144825000Y-45800000D03*
D23*
%TO.N,VCC*%
X126400000Y-94900000D03*
X127700000Y-94900000D03*
D24*
X163950000Y-89675000D03*
D23*
X149800000Y-96200000D03*
D24*
X181250000Y-86917500D03*
D23*
X148500000Y-96200000D03*
D24*
X183630000Y-86917500D03*
X173950000Y-89450000D03*
X180500000Y-86917500D03*
X174950000Y-88700000D03*
D23*
X126400000Y-96200000D03*
D24*
X174200000Y-88700000D03*
X193380000Y-86917500D03*
X171450000Y-89950000D03*
X174700000Y-90200000D03*
X174700000Y-89450000D03*
X173950000Y-90200000D03*
X163200000Y-89700000D03*
X162400000Y-89700000D03*
X192380000Y-86917500D03*
X190380000Y-86917500D03*
X164950000Y-89700000D03*
X179750000Y-86917500D03*
D23*
X127700000Y-96200000D03*
X149800000Y-94900000D03*
X148500000Y-94900000D03*
D24*
%TO.N,3V3_SWITCHING_OUT*%
X168000000Y-79750000D03*
X167250000Y-79750000D03*
X167000000Y-80500000D03*
X164250000Y-79750000D03*
X166500000Y-79750000D03*
X165000000Y-79750000D03*
X175800000Y-91000000D03*
X164750000Y-80500000D03*
X165750000Y-79750000D03*
X166250000Y-80500000D03*
X167750000Y-80500000D03*
X165500000Y-80500000D03*
X175125000Y-83125000D03*
%TO.N,+5V*%
X178880000Y-85667500D03*
X94600000Y-64600000D03*
X109200000Y-48800000D03*
X199089968Y-75738187D03*
X180800000Y-55200000D03*
X188200000Y-63200000D03*
X116600000Y-41000000D03*
X166000000Y-39400000D03*
X195200000Y-70800000D03*
X200600001Y-76600000D03*
X151000000Y-32500000D03*
X200005212Y-76969094D03*
X199625890Y-76274110D03*
X87400000Y-72200000D03*
X102000000Y-56600000D03*
X178880000Y-92000000D03*
X173400000Y-47200000D03*
%TO.N,PG_3V3*%
X169950000Y-90950000D03*
X169745000Y-97905000D03*
%TO.N,PG_5V*%
X181005000Y-81417500D03*
X185645107Y-85528992D03*
X188505000Y-81417500D03*
%TO.N,CLK_Shift*%
X133250000Y-47500000D03*
X150006992Y-41893008D03*
X127670858Y-40829142D03*
X144300000Y-47900000D03*
X155900000Y-43100000D03*
%TO.N,LOAD_Shift*%
X156650000Y-42700000D03*
X128800000Y-39900000D03*
X143600000Y-46600000D03*
X134000000Y-46800000D03*
X150400000Y-41075000D03*
%TO.N,Shift_DATA*%
X135500000Y-54600000D03*
X142100000Y-64400000D03*
%TO.N,I2C_RST*%
X132000000Y-74500000D03*
X120875000Y-73250000D03*
D25*
%TO.N,MIDPOINT_REF*%
X140250000Y-101750000D03*
X144000000Y-99674997D03*
D24*
%TO.N,Net-(LED2-C)*%
X177700000Y-81600000D03*
X187000000Y-104200000D03*
%TO.N,Net-(USB1-CC2)*%
X90596500Y-85252499D03*
%TO.N,Net-(USB1-CC1)*%
X90446500Y-82452499D03*
%TO.N,USB_D-*%
X90607161Y-83352499D03*
X138900000Y-77000000D03*
%TO.N,USB_D+*%
X141900000Y-75900000D03*
X87946500Y-83902499D03*
D25*
%TO.N,IO37*%
X156250000Y-76750000D03*
X157500000Y-79250000D03*
%TD*%
D26*
%TO.N,GND*%
X160299613Y-61100387D02*
X160453836Y-61100387D01*
D27*
X84409250Y-87972499D02*
X86266500Y-87972499D01*
X134600000Y-50100000D02*
X137000000Y-50100000D01*
X125500000Y-40700000D02*
X129828249Y-45028249D01*
X129828249Y-45028249D02*
X129828249Y-46216433D01*
X158982676Y-43117324D02*
X158982676Y-38917324D01*
X129900000Y-43843502D02*
X129828249Y-43771751D01*
X86266500Y-79332499D02*
X84409250Y-79332499D01*
X151950000Y-44050000D02*
X152000000Y-44100000D01*
X124900000Y-37500000D02*
X125500000Y-38100000D01*
X146243502Y-50100000D02*
X151950000Y-44393502D01*
X86626500Y-87972499D02*
X88589250Y-87972499D01*
X152000000Y-33750000D02*
X128840520Y-33750000D01*
X152125000Y-33875000D02*
X152000000Y-33750000D01*
X84446500Y-79369749D02*
X84409250Y-79332499D01*
X137000000Y-52700000D02*
X137000000Y-50100000D01*
X125500000Y-38100000D02*
X125500000Y-40700000D01*
X129828249Y-45028249D02*
X129900000Y-44956498D01*
X88589250Y-77283870D02*
X88736560Y-77136560D01*
D28*
X124000000Y-61558966D02*
X123941034Y-61500000D01*
D27*
X84446500Y-85937499D02*
X84446500Y-86652499D01*
X158000000Y-44100000D02*
X158982676Y-43117324D01*
X158982676Y-38917324D02*
X159514390Y-38385610D01*
X133711816Y-50100000D02*
X134600000Y-50100000D01*
D29*
X196400000Y-79700000D02*
X196400000Y-76900000D01*
D27*
X88589250Y-79332499D02*
X86626500Y-79332499D01*
X84446500Y-80652499D02*
X84446500Y-79369749D01*
X129900000Y-44956498D02*
X129900000Y-43843502D01*
X137000000Y-50100000D02*
X146243502Y-50100000D01*
X86626500Y-79332499D02*
X86446500Y-79152499D01*
X152125000Y-33875000D02*
X157167324Y-38917324D01*
X151950000Y-44393502D02*
X151950000Y-44050000D01*
X128840520Y-33750000D02*
X124400000Y-38190520D01*
X129828249Y-46216433D02*
X133711816Y-50100000D01*
X157167324Y-38917324D02*
X158982676Y-38917324D01*
X88589250Y-79332499D02*
X88589250Y-77283870D01*
X86446500Y-79152499D02*
X86266500Y-79332499D01*
X84446500Y-81287499D02*
X84446500Y-80652499D01*
X159514390Y-38385610D02*
X161085610Y-38385610D01*
X84446500Y-86652499D02*
X84446500Y-87935249D01*
%TO.N,3V3_LDO_OUT*%
X117750000Y-87250000D02*
X114125000Y-83625000D01*
X140960000Y-87250000D02*
X117750000Y-87250000D01*
X106000000Y-83625000D02*
X104875000Y-83625000D01*
X106000000Y-83625000D02*
X103250000Y-83625000D01*
X114125000Y-83625000D02*
X106000000Y-83625000D01*
D28*
%TO.N,3V3*%
X149300000Y-40200000D02*
X150000000Y-40200000D01*
D30*
X117750000Y-74650000D02*
X119300000Y-73100000D01*
D27*
X120325880Y-85425880D02*
X119200000Y-84300000D01*
X139450000Y-80550000D02*
X144100000Y-75900000D01*
X157500000Y-45300000D02*
X158500000Y-46300000D01*
D28*
X135800000Y-45800000D02*
X135100000Y-46500000D01*
D27*
X144000000Y-61800000D02*
X144100000Y-61900000D01*
D28*
X144825000Y-45800000D02*
X146300000Y-45800000D01*
X135100000Y-44500000D02*
X135100000Y-46500000D01*
X155960660Y-40900000D02*
X156895330Y-41834670D01*
D27*
X158500000Y-46300000D02*
X158500000Y-59500000D01*
D28*
X146300000Y-45800000D02*
X148100000Y-44000000D01*
D27*
X130000000Y-66400000D02*
X144100000Y-66400000D01*
X132450000Y-80550000D02*
X139450000Y-80550000D01*
X131250000Y-85425880D02*
X131250000Y-81750000D01*
D28*
X151325000Y-40300000D02*
X151225000Y-40200000D01*
D27*
X143500000Y-86551760D02*
X143500000Y-87250000D01*
X156200000Y-61800000D02*
X144000000Y-61800000D01*
X131250000Y-85425880D02*
X120325880Y-85425880D01*
X142374120Y-85425880D02*
X143500000Y-86551760D01*
X142374120Y-85425880D02*
X131250000Y-85425880D01*
X144100000Y-66400000D02*
X144100000Y-73900000D01*
D28*
X148100000Y-44000000D02*
X148100000Y-41400000D01*
D27*
X144100000Y-73900000D02*
X139300000Y-73900000D01*
D28*
X130600000Y-40000000D02*
X135100000Y-44500000D01*
D27*
X128498000Y-67902000D02*
X130000000Y-66400000D01*
D28*
X148100000Y-41400000D02*
X149300000Y-40200000D01*
D27*
X158500000Y-59500000D02*
X156200000Y-61800000D01*
D28*
X151925000Y-40900000D02*
X155960660Y-40900000D01*
X151325000Y-40300000D02*
X151925000Y-40900000D01*
D27*
X131250000Y-81750000D02*
X132450000Y-80550000D01*
D28*
X150000000Y-40200000D02*
X150000000Y-35600000D01*
X144825000Y-45800000D02*
X135800000Y-45800000D01*
D30*
X117750000Y-75250000D02*
X117750000Y-74650000D01*
D28*
X151225000Y-40200000D02*
X150000000Y-40200000D01*
D27*
X128498000Y-70999000D02*
X128498000Y-67902000D01*
X144100000Y-75900000D02*
X144100000Y-73900000D01*
X139300000Y-73900000D02*
X137600000Y-75600000D01*
X144100000Y-61900000D02*
X144100000Y-66400000D01*
D31*
%TO.N,3V3_SWITCHING_OUT*%
X156750000Y-87250000D02*
X163750000Y-80250000D01*
D28*
X175125000Y-83125000D02*
X175800000Y-83800000D01*
D31*
X163750000Y-80250000D02*
X168250000Y-80250000D01*
D28*
X175800000Y-83800000D02*
X175800000Y-91000000D01*
D31*
X146040000Y-87250000D02*
X156750000Y-87250000D01*
D27*
%TO.N,+5V*%
X158250000Y-36835972D02*
X153014028Y-31600000D01*
D28*
X151000000Y-31600000D02*
X151000000Y-32500000D01*
X125400000Y-31600000D02*
X124117095Y-31600000D01*
X120662478Y-35257187D02*
X120662477Y-35257188D01*
D27*
X151000000Y-31600000D02*
X125400000Y-31600000D01*
D28*
X178880000Y-92000000D02*
X178880000Y-85667500D01*
X122851544Y-32865551D02*
X120662478Y-35257187D01*
X124117095Y-31600000D02*
X122851544Y-32865551D01*
D32*
X158414028Y-37000000D02*
X162800000Y-37000000D01*
X162800000Y-37000000D02*
X162964028Y-36835972D01*
X158250000Y-36835972D02*
X158414028Y-37000000D01*
D27*
X153014028Y-31600000D02*
X151000000Y-31600000D01*
D26*
%TO.N,PG_3V3*%
X169745000Y-97905000D02*
X169950000Y-97700000D01*
X169950000Y-97700000D02*
X169950000Y-90950000D01*
D30*
%TO.N,PG_5V*%
X188505000Y-81417500D02*
X181005000Y-81417500D01*
D26*
X188505000Y-83095000D02*
X188505000Y-81417500D01*
X186974099Y-84200000D02*
X187400000Y-84200000D01*
X187400000Y-84200000D02*
X188505000Y-83095000D01*
X185645107Y-85528992D02*
X186974099Y-84200000D01*
D28*
%TO.N,CLK_Shift*%
X155400000Y-42600000D02*
X155900000Y-43100000D01*
X133250000Y-47500000D02*
X132639339Y-47500000D01*
X143200000Y-49000000D02*
X134750000Y-49000000D01*
X150006992Y-41893008D02*
X149800000Y-42100000D01*
X149800000Y-45200000D02*
X147350000Y-47650000D01*
X150006992Y-41893008D02*
X150713984Y-42600000D01*
X144550000Y-47650000D02*
X143200000Y-49000000D01*
X144753984Y-47650000D02*
X144550000Y-47650000D01*
X132000000Y-46860661D02*
X132000000Y-44600000D01*
X149800000Y-42100000D02*
X149800000Y-45200000D01*
X147350000Y-47650000D02*
X145446016Y-47650000D01*
X132639339Y-47500000D02*
X132000000Y-46860661D01*
X145421016Y-47675000D02*
X144778984Y-47675000D01*
X128229142Y-40829142D02*
X127670858Y-40829142D01*
X134750000Y-49000000D02*
X133250000Y-47500000D01*
X132000000Y-44600000D02*
X128229142Y-40829142D01*
X144778984Y-47675000D02*
X144753984Y-47650000D01*
X150713984Y-42600000D02*
X155400000Y-42600000D01*
X145446016Y-47650000D02*
X145421016Y-47675000D01*
%TO.N,LOAD_Shift*%
X135100000Y-47900000D02*
X134000000Y-46800000D01*
X143600000Y-47400000D02*
X143100000Y-47900000D01*
X147300000Y-46600000D02*
X149000000Y-44900000D01*
X143600000Y-46600000D02*
X143600000Y-47400000D01*
X134000000Y-45100000D02*
X134000000Y-46800000D01*
X149000000Y-41803984D02*
X149728984Y-41075000D01*
X143100000Y-47900000D02*
X135100000Y-47900000D01*
X155850000Y-41900000D02*
X156650000Y-42700000D01*
X143600000Y-46600000D02*
X147300000Y-46600000D01*
X151225000Y-41900000D02*
X155850000Y-41900000D01*
X128800000Y-39900000D02*
X134000000Y-45100000D01*
X149728984Y-41075000D02*
X150400000Y-41075000D01*
X150400000Y-41075000D02*
X151225000Y-41900000D01*
X149000000Y-44900000D02*
X149000000Y-41803984D01*
D26*
%TO.N,Shift_DATA*%
X142100000Y-61200000D02*
X142100000Y-64400000D01*
X135500000Y-54600000D02*
X142100000Y-61200000D01*
%TO.N,I2C_RST*%
X121000000Y-73125000D02*
X120875000Y-73250000D01*
X125200000Y-72800000D02*
X124875000Y-73125000D01*
X130300000Y-72800000D02*
X125200000Y-72800000D01*
X132000000Y-74500000D02*
X130300000Y-72800000D01*
X124875000Y-73125000D02*
X121000000Y-73125000D01*
%TO.N,MIDPOINT_REF*%
X144000000Y-99674997D02*
X143941119Y-99674997D01*
X141866116Y-101750000D02*
X140250000Y-101750000D01*
X143941119Y-99674997D02*
X141866116Y-101750000D01*
%TO.N,Net-(LED2-C)*%
X177700000Y-81600000D02*
X177700000Y-100700000D01*
X180250000Y-103250000D02*
X186050000Y-103250000D01*
X186050000Y-103250000D02*
X187000000Y-104200000D01*
X177700000Y-100700000D02*
X180250000Y-103250000D01*
%TO.N,Net-(USB1-CC2)*%
X90596500Y-85302499D02*
X90546500Y-85352499D01*
X90546500Y-85352499D02*
X86396500Y-85352499D01*
X86396500Y-85352499D02*
X85331500Y-84287499D01*
X90546500Y-85352499D02*
X90446500Y-85352499D01*
X90596500Y-85252499D02*
X90596500Y-85302499D01*
X85331500Y-84287499D02*
X84446500Y-84287499D01*
%TO.N,Net-(USB1-CC1)*%
X85411500Y-82937499D02*
X84446500Y-82937499D01*
X90446500Y-82402499D02*
X90446500Y-82452499D01*
X85946500Y-82402499D02*
X85411500Y-82937499D01*
X90446500Y-82452499D02*
X85946500Y-82402499D01*
D28*
%TO.N,USB_D-*%
X137000000Y-78900000D02*
X138900000Y-77000000D01*
X90607161Y-83352499D02*
X90642516Y-83352499D01*
X95095015Y-78900000D02*
X137000000Y-78900000D01*
X90642516Y-83352499D02*
X95095015Y-78900000D01*
%TO.N,USB_D+*%
X138200000Y-79600000D02*
X141900000Y-75900000D01*
X87946500Y-83902499D02*
X88344001Y-84300000D01*
X88344001Y-84300000D02*
X90800000Y-84300000D01*
X95500000Y-79600000D02*
X138200000Y-79600000D01*
X90800000Y-84300000D02*
X95500000Y-79600000D01*
D26*
%TO.N,IO37*%
X157500000Y-78000000D02*
X156250000Y-76750000D01*
X157500000Y-79250000D02*
X157500000Y-78000000D01*
%TD*%
%TA.AperFunction,Conductor*%
%TO.N,GND*%
G36*
X124875521Y-32070185D02*
G01*
X124896158Y-32086814D01*
X124953458Y-32144114D01*
X124953459Y-32144115D01*
X125068182Y-32220771D01*
X125068195Y-32220778D01*
X125195667Y-32273578D01*
X125195672Y-32273580D01*
X125195676Y-32273580D01*
X125195677Y-32273581D01*
X125331004Y-32300500D01*
X125331007Y-32300500D01*
X150354835Y-32300500D01*
X150421874Y-32320185D01*
X150467629Y-32372989D01*
X150477774Y-32440686D01*
X150469965Y-32499999D01*
X150469965Y-32500000D01*
X150488026Y-32637181D01*
X150488027Y-32637186D01*
X150540974Y-32765015D01*
X150540975Y-32765017D01*
X150540976Y-32765018D01*
X150625209Y-32874791D01*
X150734982Y-32959024D01*
X150862817Y-33011974D01*
X150985702Y-33028152D01*
X150999999Y-33030035D01*
X151000000Y-33030035D01*
X151000001Y-33030035D01*
X151012947Y-33028330D01*
X151137183Y-33011974D01*
X151265018Y-32959024D01*
X151374791Y-32874791D01*
X151459024Y-32765018D01*
X151511974Y-32637183D01*
X151530035Y-32500000D01*
X151522226Y-32440686D01*
X151532991Y-32371650D01*
X151579371Y-32319394D01*
X151645165Y-32300500D01*
X152672509Y-32300500D01*
X152739548Y-32320185D01*
X152760190Y-32336819D01*
X157803453Y-37380083D01*
X157803454Y-37380084D01*
X157803457Y-37380086D01*
X157918189Y-37456747D01*
X158045672Y-37509552D01*
X158101764Y-37520709D01*
X158139567Y-37534937D01*
X158182242Y-37559576D01*
X158182243Y-37559576D01*
X158182244Y-37559577D01*
X158334971Y-37600501D01*
X158334973Y-37600501D01*
X158500682Y-37600501D01*
X158500698Y-37600500D01*
X161998517Y-37600500D01*
X162065556Y-37620185D01*
X162089465Y-37640212D01*
X168774315Y-44853457D01*
X199631286Y-78149475D01*
X199810325Y-78342665D01*
X199890033Y-78412359D01*
X199932268Y-78442102D01*
X200024735Y-78493661D01*
X200163745Y-78530780D01*
X200233128Y-78539015D01*
X200233132Y-78539014D01*
X200233133Y-78539015D01*
X200298508Y-78537402D01*
X200376964Y-78535467D01*
X200513974Y-78491539D01*
X200568129Y-78465174D01*
X200573969Y-78462872D01*
X200576795Y-78460956D01*
X200695880Y-78380207D01*
X201292012Y-77837345D01*
X201354831Y-77806763D01*
X201424214Y-77814998D01*
X201478130Y-77859436D01*
X201499462Y-77925970D01*
X201499500Y-77929028D01*
X201499500Y-104875500D01*
X201479815Y-104942539D01*
X201427011Y-104988294D01*
X201375500Y-104999500D01*
X184429813Y-104999500D01*
X184422184Y-105000000D01*
X120324000Y-105000000D01*
X120256961Y-104980315D01*
X120211206Y-104927511D01*
X120200000Y-104876000D01*
X120200000Y-100875000D01*
X127499785Y-100875000D01*
X127518602Y-101078082D01*
X127574417Y-101274247D01*
X127574422Y-101274260D01*
X127665327Y-101456821D01*
X127788237Y-101619581D01*
X127938958Y-101756980D01*
X127938960Y-101756982D01*
X128029472Y-101813024D01*
X128112363Y-101864348D01*
X128302544Y-101938024D01*
X128503024Y-101975500D01*
X128503026Y-101975500D01*
X128706974Y-101975500D01*
X128706976Y-101975500D01*
X128907456Y-101938024D01*
X129097637Y-101864348D01*
X129271041Y-101756981D01*
X129421764Y-101619579D01*
X129544673Y-101456821D01*
X129635582Y-101274250D01*
X129691397Y-101078083D01*
X129710215Y-100875000D01*
X130039785Y-100875000D01*
X130058602Y-101078082D01*
X130114417Y-101274247D01*
X130114422Y-101274260D01*
X130205327Y-101456821D01*
X130328237Y-101619581D01*
X130478958Y-101756980D01*
X130478960Y-101756982D01*
X130569472Y-101813024D01*
X130652363Y-101864348D01*
X130842544Y-101938024D01*
X131043024Y-101975500D01*
X131043026Y-101975500D01*
X131246974Y-101975500D01*
X131246976Y-101975500D01*
X131447456Y-101938024D01*
X131637637Y-101864348D01*
X131811041Y-101756981D01*
X131818699Y-101750000D01*
X139744353Y-101750000D01*
X139764834Y-101892456D01*
X139785644Y-101938022D01*
X139824623Y-102023373D01*
X139918872Y-102132143D01*
X140039947Y-102209953D01*
X140039950Y-102209954D01*
X140039949Y-102209954D01*
X140178036Y-102250499D01*
X140178038Y-102250500D01*
X140178039Y-102250500D01*
X140321962Y-102250500D01*
X140321962Y-102250499D01*
X140460053Y-102209953D01*
X140581128Y-102132143D01*
X140614788Y-102093296D01*
X140673567Y-102055523D01*
X140708501Y-102050500D01*
X141905676Y-102050500D01*
X141905678Y-102050500D01*
X141982105Y-102030021D01*
X142050627Y-101990460D01*
X142106576Y-101934511D01*
X143291086Y-100750000D01*
X151874785Y-100750000D01*
X151893602Y-100953082D01*
X151949417Y-101149247D01*
X151949422Y-101149260D01*
X152040327Y-101331821D01*
X152163237Y-101494581D01*
X152313958Y-101631980D01*
X152313960Y-101631982D01*
X152369628Y-101666450D01*
X152487363Y-101739348D01*
X152677544Y-101813024D01*
X152878024Y-101850500D01*
X152878026Y-101850500D01*
X153081974Y-101850500D01*
X153081976Y-101850500D01*
X153282456Y-101813024D01*
X153472637Y-101739348D01*
X153646041Y-101631981D01*
X153796764Y-101494579D01*
X153919673Y-101331821D01*
X154010582Y-101149250D01*
X154066397Y-100953083D01*
X154085215Y-100750000D01*
X154414785Y-100750000D01*
X154433602Y-100953082D01*
X154489417Y-101149247D01*
X154489422Y-101149260D01*
X154580327Y-101331821D01*
X154703237Y-101494581D01*
X154853958Y-101631980D01*
X154853960Y-101631982D01*
X154909628Y-101666450D01*
X155027363Y-101739348D01*
X155217544Y-101813024D01*
X155418024Y-101850500D01*
X155418026Y-101850500D01*
X155621974Y-101850500D01*
X155621976Y-101850500D01*
X155822456Y-101813024D01*
X156012637Y-101739348D01*
X156186041Y-101631981D01*
X156336764Y-101494579D01*
X156459673Y-101331821D01*
X156550582Y-101149250D01*
X156606397Y-100953083D01*
X156625215Y-100750000D01*
X156606397Y-100546917D01*
X156550582Y-100350750D01*
X156542037Y-100333590D01*
X156506272Y-100261764D01*
X156459673Y-100168179D01*
X156351109Y-100024417D01*
X156336762Y-100005418D01*
X156186041Y-99868019D01*
X156186039Y-99868017D01*
X156012642Y-99760655D01*
X156012635Y-99760651D01*
X155840721Y-99694052D01*
X155822456Y-99686976D01*
X155621976Y-99649500D01*
X155418024Y-99649500D01*
X155217544Y-99686976D01*
X155217541Y-99686976D01*
X155217541Y-99686977D01*
X155027364Y-99760651D01*
X155027357Y-99760655D01*
X154853960Y-99868017D01*
X154853958Y-99868019D01*
X154703237Y-100005418D01*
X154580327Y-100168178D01*
X154489422Y-100350739D01*
X154489417Y-100350752D01*
X154433602Y-100546917D01*
X154414785Y-100749999D01*
X154414785Y-100750000D01*
X154085215Y-100750000D01*
X154066397Y-100546917D01*
X154010582Y-100350750D01*
X154002037Y-100333590D01*
X153966272Y-100261764D01*
X153919673Y-100168179D01*
X153811109Y-100024417D01*
X153796762Y-100005418D01*
X153646041Y-99868019D01*
X153646039Y-99868017D01*
X153472642Y-99760655D01*
X153472635Y-99760651D01*
X153300721Y-99694052D01*
X153282456Y-99686976D01*
X153081976Y-99649500D01*
X152878024Y-99649500D01*
X152677544Y-99686976D01*
X152677541Y-99686976D01*
X152677541Y-99686977D01*
X152487364Y-99760651D01*
X152487357Y-99760655D01*
X152313960Y-99868017D01*
X152313958Y-99868019D01*
X152163237Y-100005418D01*
X152040327Y-100168178D01*
X151949422Y-100350739D01*
X151949417Y-100350752D01*
X151893602Y-100546917D01*
X151874785Y-100749999D01*
X151874785Y-100750000D01*
X143291086Y-100750000D01*
X143829550Y-100211535D01*
X143890871Y-100178052D01*
X143919170Y-100177040D01*
X143919170Y-100175497D01*
X144071962Y-100175497D01*
X144071962Y-100175496D01*
X144210053Y-100134950D01*
X144331128Y-100057140D01*
X144425377Y-99948370D01*
X144485165Y-99817454D01*
X144505647Y-99674997D01*
X144485165Y-99532540D01*
X144425377Y-99401624D01*
X144331128Y-99292854D01*
X144210053Y-99215044D01*
X144210051Y-99215043D01*
X144210049Y-99215042D01*
X144210050Y-99215042D01*
X144071963Y-99174497D01*
X144071961Y-99174497D01*
X143928039Y-99174497D01*
X143928036Y-99174497D01*
X143789949Y-99215042D01*
X143668873Y-99292853D01*
X143574623Y-99401623D01*
X143574622Y-99401625D01*
X143514834Y-99532540D01*
X143496566Y-99659600D01*
X143467541Y-99723156D01*
X143461509Y-99729634D01*
X141777964Y-101413181D01*
X141716641Y-101446666D01*
X141690283Y-101449500D01*
X140708501Y-101449500D01*
X140641462Y-101429815D01*
X140614788Y-101406703D01*
X140581128Y-101367857D01*
X140460053Y-101290047D01*
X140460051Y-101290046D01*
X140460049Y-101290045D01*
X140460050Y-101290045D01*
X140321963Y-101249500D01*
X140321961Y-101249500D01*
X140178039Y-101249500D01*
X140178036Y-101249500D01*
X140039949Y-101290045D01*
X139918873Y-101367856D01*
X139824623Y-101476626D01*
X139824622Y-101476628D01*
X139764834Y-101607543D01*
X139744353Y-101750000D01*
X131818699Y-101750000D01*
X131961764Y-101619579D01*
X132084673Y-101456821D01*
X132175582Y-101274250D01*
X132231397Y-101078083D01*
X132250215Y-100875000D01*
X132250128Y-100874066D01*
X132231397Y-100671917D01*
X132225995Y-100652931D01*
X132175582Y-100475750D01*
X132084673Y-100293179D01*
X131995803Y-100175496D01*
X131961762Y-100130418D01*
X131811041Y-99993019D01*
X131811039Y-99993017D01*
X131637642Y-99885655D01*
X131637635Y-99885651D01*
X131461596Y-99817454D01*
X131447456Y-99811976D01*
X131246976Y-99774500D01*
X131043024Y-99774500D01*
X130842544Y-99811976D01*
X130842541Y-99811976D01*
X130842541Y-99811977D01*
X130652364Y-99885651D01*
X130652357Y-99885655D01*
X130478960Y-99993017D01*
X130478958Y-99993019D01*
X130328237Y-100130418D01*
X130205327Y-100293178D01*
X130114422Y-100475739D01*
X130114417Y-100475752D01*
X130058602Y-100671917D01*
X130039785Y-100874999D01*
X130039785Y-100875000D01*
X129710215Y-100875000D01*
X129710128Y-100874066D01*
X129691397Y-100671917D01*
X129685995Y-100652931D01*
X129635582Y-100475750D01*
X129544673Y-100293179D01*
X129455803Y-100175496D01*
X129421762Y-100130418D01*
X129271041Y-99993019D01*
X129271039Y-99993017D01*
X129097642Y-99885655D01*
X129097635Y-99885651D01*
X128921596Y-99817454D01*
X128907456Y-99811976D01*
X128706976Y-99774500D01*
X128503024Y-99774500D01*
X128302544Y-99811976D01*
X128302541Y-99811976D01*
X128302541Y-99811977D01*
X128112364Y-99885651D01*
X128112357Y-99885655D01*
X127938960Y-99993017D01*
X127938958Y-99993019D01*
X127788237Y-100130418D01*
X127665327Y-100293178D01*
X127574422Y-100475739D01*
X127574417Y-100475752D01*
X127518602Y-100671917D01*
X127499785Y-100874999D01*
X127499785Y-100875000D01*
X120200000Y-100875000D01*
X120200000Y-96248638D01*
X124894500Y-96248638D01*
X124895678Y-96270618D01*
X124898511Y-96296965D01*
X124898512Y-96296967D01*
X124922470Y-96373478D01*
X124922471Y-96373483D01*
X124935294Y-96396965D01*
X124955956Y-96434805D01*
X124955958Y-96434808D01*
X124955960Y-96434811D01*
X124990998Y-96481615D01*
X124991002Y-96481619D01*
X124991009Y-96481629D01*
X124991016Y-96481636D01*
X125418365Y-96908986D01*
X125418366Y-96908987D01*
X125434716Y-96923674D01*
X125434730Y-96923686D01*
X125434738Y-96923693D01*
X125443136Y-96930460D01*
X125455379Y-96940327D01*
X125526424Y-96977490D01*
X125593456Y-96997173D01*
X125593458Y-96997173D01*
X125593464Y-96997175D01*
X125651362Y-97005500D01*
X125651366Y-97005500D01*
X128148639Y-97005500D01*
X128151180Y-97005363D01*
X128170607Y-97004322D01*
X128170614Y-97004321D01*
X128170618Y-97004321D01*
X128196965Y-97001488D01*
X128273482Y-96977529D01*
X128334805Y-96944044D01*
X128381629Y-96908991D01*
X128508991Y-96781629D01*
X128523693Y-96765262D01*
X128540327Y-96744620D01*
X128577490Y-96673575D01*
X128597175Y-96606536D01*
X128605500Y-96548638D01*
X128605500Y-95229500D01*
X128625185Y-95162461D01*
X128677989Y-95116706D01*
X128729500Y-95105500D01*
X147070500Y-95105500D01*
X147137539Y-95125185D01*
X147183294Y-95177989D01*
X147194500Y-95229500D01*
X147194500Y-96348638D01*
X147195678Y-96370618D01*
X147198511Y-96396965D01*
X147198512Y-96396967D01*
X147222470Y-96473478D01*
X147222471Y-96473483D01*
X147226923Y-96481636D01*
X147255956Y-96534805D01*
X147255958Y-96534808D01*
X147255960Y-96534811D01*
X147290998Y-96581615D01*
X147291002Y-96581619D01*
X147291009Y-96581629D01*
X147291016Y-96581636D01*
X147627560Y-96918181D01*
X147627566Y-96918186D01*
X147664153Y-96947259D01*
X147664157Y-96947262D01*
X147709021Y-96975232D01*
X147711710Y-96976908D01*
X147723216Y-96983574D01*
X147723217Y-96983574D01*
X147723219Y-96983575D01*
X147811399Y-97007823D01*
X147881197Y-97010893D01*
X147881198Y-97010892D01*
X147881201Y-97010893D01*
X147934518Y-97005604D01*
X147946755Y-97005000D01*
X148045049Y-97005000D01*
X148074722Y-97008603D01*
X148084014Y-97010893D01*
X148162198Y-97030162D01*
X148190152Y-97040764D01*
X148241579Y-97067756D01*
X148287900Y-97085324D01*
X148345526Y-97099528D01*
X148394707Y-97105500D01*
X148394712Y-97105500D01*
X150448639Y-97105500D01*
X150451180Y-97105363D01*
X150470607Y-97104322D01*
X150470614Y-97104321D01*
X150470618Y-97104321D01*
X150496965Y-97101488D01*
X150573482Y-97077529D01*
X150634805Y-97044044D01*
X150681629Y-97008991D01*
X150808991Y-96881629D01*
X150823693Y-96865262D01*
X150840327Y-96844620D01*
X150877490Y-96773575D01*
X150897175Y-96706536D01*
X150905500Y-96648638D01*
X150905500Y-95229500D01*
X150925185Y-95162461D01*
X150977989Y-95116706D01*
X151029500Y-95105500D01*
X153605101Y-95105500D01*
X153605115Y-95105500D01*
X153629884Y-95104002D01*
X153659559Y-95100399D01*
X153683969Y-95095926D01*
X153685282Y-95095602D01*
X153685726Y-95095548D01*
X153685770Y-95095539D01*
X153685770Y-95095542D01*
X153714952Y-95092000D01*
X153805048Y-95092000D01*
X153834229Y-95095542D01*
X153834230Y-95095539D01*
X153834273Y-95095548D01*
X153834717Y-95095602D01*
X153836031Y-95095926D01*
X153836057Y-95095930D01*
X153836058Y-95095931D01*
X153860424Y-95100396D01*
X153860427Y-95100396D01*
X153860441Y-95100399D01*
X153890116Y-95104002D01*
X153914885Y-95105500D01*
X153914899Y-95105500D01*
X164448639Y-95105500D01*
X164451180Y-95105363D01*
X164470607Y-95104322D01*
X164470614Y-95104321D01*
X164470618Y-95104321D01*
X164496965Y-95101488D01*
X164573482Y-95077529D01*
X164634805Y-95044044D01*
X164681629Y-95008991D01*
X164708991Y-94981629D01*
X164723693Y-94965262D01*
X164740327Y-94944620D01*
X164777490Y-94873575D01*
X164797175Y-94806536D01*
X164805500Y-94748638D01*
X164805500Y-90929500D01*
X164825185Y-90862461D01*
X164877989Y-90816706D01*
X164929500Y-90805500D01*
X169297594Y-90805500D01*
X169364633Y-90825185D01*
X169410388Y-90877989D01*
X169419961Y-90941872D01*
X169419965Y-90941872D01*
X169419965Y-90941896D01*
X169420532Y-90945686D01*
X169419965Y-90950000D01*
X169436734Y-91077373D01*
X169438026Y-91087181D01*
X169438027Y-91087186D01*
X169490974Y-91215015D01*
X169490975Y-91215017D01*
X169490976Y-91215018D01*
X169575209Y-91324791D01*
X169600986Y-91344571D01*
X169642189Y-91400998D01*
X169649500Y-91442946D01*
X169649500Y-97292906D01*
X169629815Y-97359945D01*
X169577011Y-97405700D01*
X169572952Y-97407467D01*
X169479986Y-97445974D01*
X169370209Y-97530209D01*
X169285974Y-97639985D01*
X169233027Y-97767813D01*
X169233026Y-97767818D01*
X169214965Y-97904999D01*
X169214965Y-97905000D01*
X169233026Y-98042181D01*
X169233027Y-98042186D01*
X169285974Y-98170015D01*
X169285975Y-98170017D01*
X169285976Y-98170018D01*
X169370209Y-98279791D01*
X169479982Y-98364024D01*
X169607817Y-98416974D01*
X169730702Y-98433152D01*
X169744999Y-98435035D01*
X169745000Y-98435035D01*
X169745001Y-98435035D01*
X169757947Y-98433330D01*
X169882183Y-98416974D01*
X170010018Y-98364024D01*
X170119791Y-98279791D01*
X170204024Y-98170018D01*
X170256974Y-98042183D01*
X170275035Y-97905000D01*
X170256974Y-97767817D01*
X170256971Y-97767810D01*
X170254870Y-97759966D01*
X170256842Y-97759437D01*
X170250500Y-97727522D01*
X170250500Y-91442946D01*
X170270185Y-91375907D01*
X170299012Y-91344571D01*
X170324791Y-91324791D01*
X170409024Y-91215018D01*
X170461974Y-91087183D01*
X170480035Y-90950000D01*
X170479467Y-90945686D01*
X170480035Y-90942044D01*
X170480035Y-90941872D01*
X170480062Y-90941872D01*
X170490232Y-90876652D01*
X170536611Y-90824395D01*
X170602406Y-90805500D01*
X175048639Y-90805500D01*
X175050559Y-90805397D01*
X175081297Y-90803749D01*
X175107655Y-90800915D01*
X175114660Y-90800080D01*
X175117382Y-90799192D01*
X175118888Y-90799148D01*
X175120611Y-90798769D01*
X175120682Y-90799095D01*
X175187218Y-90797131D01*
X175247085Y-90833154D01*
X175277974Y-90895825D01*
X175278749Y-90933271D01*
X175269965Y-90999996D01*
X175269965Y-90999999D01*
X175269965Y-91000000D01*
X175287234Y-91131171D01*
X175288026Y-91137181D01*
X175288027Y-91137186D01*
X175340974Y-91265015D01*
X175340975Y-91265017D01*
X175340976Y-91265018D01*
X175425209Y-91374791D01*
X175534982Y-91459024D01*
X175662817Y-91511974D01*
X175785702Y-91528152D01*
X175799999Y-91530035D01*
X175800000Y-91530035D01*
X175800001Y-91530035D01*
X175812947Y-91528330D01*
X175937183Y-91511974D01*
X176065018Y-91459024D01*
X176174791Y-91374791D01*
X176259024Y-91265018D01*
X176311974Y-91137183D01*
X176330035Y-91000000D01*
X176330034Y-90999996D01*
X176322884Y-90945687D01*
X176311974Y-90862817D01*
X176288233Y-90805500D01*
X176259939Y-90737191D01*
X176250500Y-90689739D01*
X176250500Y-83740693D01*
X176250500Y-83740691D01*
X176220603Y-83629113D01*
X176219799Y-83626113D01*
X176160489Y-83523386D01*
X175662939Y-83025836D01*
X175636059Y-82985607D01*
X175584025Y-82859986D01*
X175584024Y-82859983D01*
X175499791Y-82750209D01*
X175499789Y-82750208D01*
X175499789Y-82750207D01*
X175390015Y-82665974D01*
X175262186Y-82613027D01*
X175262184Y-82613026D01*
X175262183Y-82613026D01*
X175170727Y-82600985D01*
X175125001Y-82594965D01*
X175124999Y-82594965D01*
X175056408Y-82603995D01*
X174987817Y-82613026D01*
X174987816Y-82613026D01*
X174987813Y-82613027D01*
X174859985Y-82665974D01*
X174750209Y-82750209D01*
X174665974Y-82859985D01*
X174613027Y-82987813D01*
X174613026Y-82987816D01*
X174613026Y-82987817D01*
X174594965Y-83125000D01*
X174608972Y-83231393D01*
X174613026Y-83262181D01*
X174613026Y-83262183D01*
X174665974Y-83390015D01*
X174665975Y-83390017D01*
X174665976Y-83390018D01*
X174750209Y-83499791D01*
X174859982Y-83584024D01*
X174985610Y-83636060D01*
X175025835Y-83662938D01*
X175313181Y-83950284D01*
X175346666Y-84011607D01*
X175349500Y-84037965D01*
X175349500Y-87850375D01*
X175329815Y-87917414D01*
X175277011Y-87963169D01*
X175207853Y-87973113D01*
X175169299Y-87960908D01*
X175101745Y-87926559D01*
X175034716Y-87906877D01*
X175034710Y-87906876D01*
X174948638Y-87894500D01*
X173851362Y-87894500D01*
X173851361Y-87894500D01*
X173818718Y-87896250D01*
X173818709Y-87896250D01*
X173818703Y-87896251D01*
X173818698Y-87896251D01*
X173818665Y-87896254D01*
X173792374Y-87899081D01*
X173785339Y-87899920D01*
X173785337Y-87899920D01*
X173678598Y-87934700D01*
X173678588Y-87934704D01*
X173617266Y-87968189D01*
X173547670Y-88020289D01*
X173547649Y-88020307D01*
X172909777Y-88658181D01*
X172848454Y-88691666D01*
X172822096Y-88694500D01*
X164399997Y-88694500D01*
X164357793Y-88697429D01*
X164357789Y-88697430D01*
X164251346Y-88733106D01*
X164251342Y-88733107D01*
X164226666Y-88753598D01*
X164211853Y-88765898D01*
X164147704Y-88793581D01*
X164132638Y-88794500D01*
X162151361Y-88794500D01*
X162129381Y-88795678D01*
X162103034Y-88798511D01*
X162103032Y-88798512D01*
X162026521Y-88822470D01*
X162026516Y-88822471D01*
X161965188Y-88855960D01*
X161918384Y-88890998D01*
X161918363Y-88891016D01*
X160251199Y-90558181D01*
X160189876Y-90591666D01*
X160163518Y-90594500D01*
X125351361Y-90594500D01*
X125329381Y-90595678D01*
X125303034Y-90598511D01*
X125303032Y-90598512D01*
X125226521Y-90622470D01*
X125226516Y-90622471D01*
X125165188Y-90655960D01*
X125118384Y-90690998D01*
X125118370Y-90691010D01*
X124991004Y-90818375D01*
X124976325Y-90834716D01*
X124976313Y-90834730D01*
X124959672Y-90855379D01*
X124922509Y-90926424D01*
X124902826Y-90993456D01*
X124894500Y-91051365D01*
X124894500Y-96248638D01*
X120200000Y-96248638D01*
X120200000Y-92000000D01*
X87724519Y-92000000D01*
X87657480Y-91980315D01*
X87611725Y-91927511D01*
X87600808Y-91884462D01*
X87599327Y-91862817D01*
X87590735Y-91737191D01*
X87586148Y-91670137D01*
X87586147Y-91670135D01*
X87529078Y-91395500D01*
X87529073Y-91395483D01*
X87503576Y-91323742D01*
X87435136Y-91131170D01*
X87306081Y-90882104D01*
X87144312Y-90652931D01*
X87144307Y-90652925D01*
X86952845Y-90447919D01*
X86735242Y-90270886D01*
X86495566Y-90125136D01*
X86238276Y-90013380D01*
X85968166Y-89937698D01*
X85968162Y-89937697D01*
X85968161Y-89937697D01*
X85829209Y-89918598D01*
X85690259Y-89899500D01*
X85690258Y-89899500D01*
X85409742Y-89899500D01*
X85409741Y-89899500D01*
X85131839Y-89937697D01*
X85131833Y-89937698D01*
X84861723Y-90013380D01*
X84604433Y-90125136D01*
X84364757Y-90270886D01*
X84147154Y-90447919D01*
X83955692Y-90652925D01*
X83955692Y-90652926D01*
X83955689Y-90652928D01*
X83955688Y-90652931D01*
X83928809Y-90691010D01*
X83793919Y-90882103D01*
X83664863Y-91131171D01*
X83570926Y-91395483D01*
X83570921Y-91395500D01*
X83513852Y-91670135D01*
X83513851Y-91670137D01*
X83499192Y-91884462D01*
X83474978Y-91950002D01*
X83419175Y-91992047D01*
X83375481Y-92000000D01*
X82624500Y-92000000D01*
X82557461Y-91980315D01*
X82511706Y-91927511D01*
X82500500Y-91876000D01*
X82500500Y-84519016D01*
X83771000Y-84519016D01*
X83781792Y-84587156D01*
X83785854Y-84612803D01*
X83843450Y-84725841D01*
X83843452Y-84725843D01*
X83843454Y-84725846D01*
X83933152Y-84815544D01*
X83933154Y-84815545D01*
X83933158Y-84815549D01*
X84046194Y-84873144D01*
X84046198Y-84873146D01*
X84139975Y-84887998D01*
X84139981Y-84887999D01*
X84753018Y-84887998D01*
X84846804Y-84873145D01*
X84959842Y-84815549D01*
X85049550Y-84725841D01*
X85071750Y-84682270D01*
X85119723Y-84631476D01*
X85187544Y-84614680D01*
X85253679Y-84637217D01*
X85269915Y-84650885D01*
X86156040Y-85537010D01*
X86211989Y-85592959D01*
X86211991Y-85592960D01*
X86211995Y-85592963D01*
X86271452Y-85627290D01*
X86280511Y-85632520D01*
X86356938Y-85652999D01*
X86436062Y-85652999D01*
X87541302Y-85652999D01*
X87608341Y-85672684D01*
X87654096Y-85725488D01*
X87664040Y-85794646D01*
X87635015Y-85858202D01*
X87623981Y-85869412D01*
X87620338Y-85872670D01*
X87620338Y-85872671D01*
X87609626Y-85882253D01*
X87513109Y-85968604D01*
X87440557Y-86055069D01*
X87420728Y-86080282D01*
X87352779Y-86207103D01*
X87352778Y-86207105D01*
X87314165Y-86313192D01*
X87304164Y-86343640D01*
X87304163Y-86343647D01*
X87283687Y-86486063D01*
X87283687Y-86598935D01*
X87283752Y-86600974D01*
X87284705Y-86631001D01*
X87308649Y-86745426D01*
X87314174Y-86771830D01*
X87352779Y-86877894D01*
X87352787Y-86877915D01*
X87364696Y-86907663D01*
X87364699Y-86907670D01*
X87440554Y-87029924D01*
X87440555Y-87029925D01*
X87440557Y-87029928D01*
X87452421Y-87044067D01*
X87513108Y-87116391D01*
X87534490Y-87140291D01*
X87534491Y-87140292D01*
X87534495Y-87140296D01*
X87647592Y-87229238D01*
X87745341Y-87285674D01*
X87745343Y-87285675D01*
X87745352Y-87285680D01*
X87773619Y-87300825D01*
X87839151Y-87322347D01*
X87910314Y-87345719D01*
X88021471Y-87365319D01*
X88053221Y-87369884D01*
X88197029Y-87365319D01*
X88308186Y-87345719D01*
X88339585Y-87339149D01*
X88473159Y-87285674D01*
X88570908Y-87229238D01*
X88598162Y-87212327D01*
X88705391Y-87116392D01*
X88777943Y-87029928D01*
X88797770Y-87004717D01*
X88865721Y-86877894D01*
X88904326Y-86771830D01*
X88914337Y-86741351D01*
X88934813Y-86598935D01*
X88934813Y-86486063D01*
X88933795Y-86453999D01*
X88904326Y-86313168D01*
X88865721Y-86207104D01*
X88853801Y-86177328D01*
X88793586Y-86080281D01*
X88777945Y-86055073D01*
X88777944Y-86055072D01*
X88777943Y-86055070D01*
X88705391Y-85968606D01*
X88699481Y-85962000D01*
X88684009Y-85944706D01*
X88684007Y-85944704D01*
X88684005Y-85944702D01*
X88594695Y-85874467D01*
X88554170Y-85817554D01*
X88550846Y-85747764D01*
X88585781Y-85687255D01*
X88647884Y-85655240D01*
X88671350Y-85652999D01*
X90213121Y-85652999D01*
X90280160Y-85672684D01*
X90288593Y-85678613D01*
X90331482Y-85711523D01*
X90331483Y-85711523D01*
X90331484Y-85711524D01*
X90357008Y-85722096D01*
X90459317Y-85764473D01*
X90582202Y-85780651D01*
X90596499Y-85782534D01*
X90596500Y-85782534D01*
X90596501Y-85782534D01*
X90609447Y-85780829D01*
X90733683Y-85764473D01*
X90861518Y-85711523D01*
X90971291Y-85627290D01*
X91055524Y-85517517D01*
X91108474Y-85389682D01*
X91126535Y-85252499D01*
X91108474Y-85115316D01*
X91082248Y-85051999D01*
X91055525Y-84987483D01*
X91055523Y-84987480D01*
X90982370Y-84892147D01*
X90974194Y-84881492D01*
X90949000Y-84816324D01*
X90963038Y-84747879D01*
X91010570Y-84698619D01*
X91076614Y-84660489D01*
X93487104Y-82250000D01*
X94125000Y-82250000D01*
X94125000Y-89500000D01*
X99500000Y-89500000D01*
X99500000Y-82250000D01*
X94125000Y-82250000D01*
X93487104Y-82250000D01*
X95650285Y-80086819D01*
X95711608Y-80053334D01*
X95737966Y-80050500D01*
X131659481Y-80050500D01*
X131726520Y-80070185D01*
X131772275Y-80122989D01*
X131782219Y-80192147D01*
X131753194Y-80255703D01*
X131747162Y-80262181D01*
X130705890Y-81303451D01*
X130705887Y-81303454D01*
X130668413Y-81359540D01*
X130629228Y-81418183D01*
X130629221Y-81418195D01*
X130576421Y-81545667D01*
X130576418Y-81545677D01*
X130549500Y-81681004D01*
X130549500Y-84601380D01*
X130529815Y-84668419D01*
X130477011Y-84714174D01*
X130425500Y-84725380D01*
X120667399Y-84725380D01*
X120600360Y-84705695D01*
X120579718Y-84689061D01*
X119748307Y-83857650D01*
X119733940Y-83840412D01*
X119728183Y-83832071D01*
X119683152Y-83792177D01*
X119677715Y-83787058D01*
X119646549Y-83755891D01*
X119646545Y-83755888D01*
X119646544Y-83755887D01*
X119646543Y-83755886D01*
X119635835Y-83748731D01*
X119622505Y-83738448D01*
X119600856Y-83719269D01*
X119600847Y-83719263D01*
X119564163Y-83700008D01*
X119552908Y-83693320D01*
X119531809Y-83679223D01*
X119531806Y-83679222D01*
X119502617Y-83667132D01*
X119492445Y-83662368D01*
X119450226Y-83640210D01*
X119428206Y-83634783D01*
X119410431Y-83628948D01*
X119404328Y-83626420D01*
X119404326Y-83626419D01*
X119404325Y-83626419D01*
X119404324Y-83626418D01*
X119354986Y-83616604D01*
X119349506Y-83615384D01*
X119285058Y-83599500D01*
X119285056Y-83599500D01*
X119114944Y-83599500D01*
X119114941Y-83599500D01*
X119050501Y-83615382D01*
X119045023Y-83616602D01*
X118995671Y-83626420D01*
X118989565Y-83628949D01*
X118971797Y-83634781D01*
X118949775Y-83640209D01*
X118907561Y-83662365D01*
X118897393Y-83667127D01*
X118868192Y-83679223D01*
X118868186Y-83679226D01*
X118847090Y-83693321D01*
X118835834Y-83700010D01*
X118799149Y-83719264D01*
X118777493Y-83738450D01*
X118764165Y-83748730D01*
X118753462Y-83755882D01*
X118753456Y-83755887D01*
X118722279Y-83787062D01*
X118716830Y-83792190D01*
X118671820Y-83832067D01*
X118671815Y-83832072D01*
X118666054Y-83840418D01*
X118659386Y-83848452D01*
X118659748Y-83848749D01*
X118655890Y-83853450D01*
X118620982Y-83905692D01*
X118619931Y-83907239D01*
X118575183Y-83972068D01*
X118575181Y-83972071D01*
X118549436Y-84039953D01*
X118548058Y-84043428D01*
X118526419Y-84095673D01*
X118526418Y-84095678D01*
X118526353Y-84096006D01*
X118520680Y-84115781D01*
X118514859Y-84131129D01*
X118508361Y-84184643D01*
X118506883Y-84193882D01*
X118499500Y-84231004D01*
X118499500Y-84250125D01*
X118498596Y-84265071D01*
X118494355Y-84299999D01*
X118498596Y-84334926D01*
X118499500Y-84349873D01*
X118499500Y-84368998D01*
X118506883Y-84406120D01*
X118508361Y-84415358D01*
X118514859Y-84468870D01*
X118514860Y-84468872D01*
X118520678Y-84484212D01*
X118526354Y-84503995D01*
X118526420Y-84504327D01*
X118526420Y-84504329D01*
X118548046Y-84556538D01*
X118549424Y-84560012D01*
X118575182Y-84627930D01*
X118591027Y-84650885D01*
X118619972Y-84692820D01*
X118621024Y-84694369D01*
X118655885Y-84746542D01*
X118659751Y-84751253D01*
X118659371Y-84751564D01*
X118666061Y-84759591D01*
X118671812Y-84767923D01*
X118671821Y-84767933D01*
X118716828Y-84807805D01*
X118722283Y-84812940D01*
X119879333Y-85969991D01*
X119879334Y-85969992D01*
X119994072Y-86046657D01*
X120121547Y-86099458D01*
X120121552Y-86099460D01*
X120121556Y-86099460D01*
X120121557Y-86099461D01*
X120256883Y-86126380D01*
X120256886Y-86126380D01*
X120256887Y-86126380D01*
X131181007Y-86126380D01*
X139819700Y-86126380D01*
X139886739Y-86146065D01*
X139932494Y-86198869D01*
X139942438Y-86268027D01*
X139922801Y-86319272D01*
X139921132Y-86321768D01*
X139921131Y-86321770D01*
X139909500Y-86380247D01*
X139909500Y-86425500D01*
X139889815Y-86492539D01*
X139837011Y-86538294D01*
X139785500Y-86549500D01*
X118091519Y-86549500D01*
X118024480Y-86529815D01*
X118003838Y-86513181D01*
X114571546Y-83080888D01*
X114571545Y-83080887D01*
X114456807Y-83004222D01*
X114329332Y-82951421D01*
X114329322Y-82951418D01*
X114193996Y-82924500D01*
X114193994Y-82924500D01*
X114193993Y-82924500D01*
X106068993Y-82924500D01*
X103335056Y-82924500D01*
X103164944Y-82924500D01*
X103164940Y-82924500D01*
X103100486Y-82940386D01*
X103095006Y-82941606D01*
X103045673Y-82951419D01*
X103039566Y-82953949D01*
X103021797Y-82959781D01*
X102999776Y-82965209D01*
X102957561Y-82987365D01*
X102947393Y-82992127D01*
X102918187Y-83004225D01*
X102897091Y-83018320D01*
X102885837Y-83025008D01*
X102849147Y-83044266D01*
X102849144Y-83044268D01*
X102827486Y-83063454D01*
X102814166Y-83073729D01*
X102803464Y-83080880D01*
X102803458Y-83080886D01*
X102772287Y-83112055D01*
X102766838Y-83117183D01*
X102721820Y-83157067D01*
X102716053Y-83165421D01*
X102709391Y-83173447D01*
X102709753Y-83173744D01*
X102705887Y-83178455D01*
X102671023Y-83230631D01*
X102669973Y-83232177D01*
X102625185Y-83297063D01*
X102625181Y-83297071D01*
X102599436Y-83364953D01*
X102598058Y-83368428D01*
X102576419Y-83420673D01*
X102576418Y-83420678D01*
X102576353Y-83421006D01*
X102570680Y-83440781D01*
X102564859Y-83456129D01*
X102558362Y-83509640D01*
X102556884Y-83518881D01*
X102549500Y-83556006D01*
X102549500Y-83575125D01*
X102548596Y-83590071D01*
X102545228Y-83617810D01*
X102544355Y-83625000D01*
X102544854Y-83629113D01*
X102548596Y-83659926D01*
X102549500Y-83674873D01*
X102549500Y-83693993D01*
X102554527Y-83719264D01*
X102556882Y-83731105D01*
X102558360Y-83740347D01*
X102564859Y-83793870D01*
X102564860Y-83793871D01*
X102570678Y-83809212D01*
X102576354Y-83828995D01*
X102576420Y-83829327D01*
X102576420Y-83829329D01*
X102598046Y-83881538D01*
X102599427Y-83885019D01*
X102625182Y-83952930D01*
X102625183Y-83952931D01*
X102669983Y-84017836D01*
X102671035Y-84019385D01*
X102705885Y-84071541D01*
X102709751Y-84076252D01*
X102709371Y-84076563D01*
X102716061Y-84084590D01*
X102721817Y-84092929D01*
X102721817Y-84092930D01*
X102766845Y-84132821D01*
X102772299Y-84137955D01*
X102803458Y-84169114D01*
X102814154Y-84176261D01*
X102827485Y-84186543D01*
X102849148Y-84205734D01*
X102849150Y-84205735D01*
X102849151Y-84205736D01*
X102885836Y-84224990D01*
X102897097Y-84231681D01*
X102918189Y-84245775D01*
X102947398Y-84257874D01*
X102957559Y-84262633D01*
X102962204Y-84265071D01*
X102999772Y-84284789D01*
X102999774Y-84284789D01*
X102999775Y-84284790D01*
X103013457Y-84288162D01*
X103021791Y-84290216D01*
X103039571Y-84296052D01*
X103045672Y-84298580D01*
X103095023Y-84308396D01*
X103100473Y-84309609D01*
X103164944Y-84325500D01*
X103181007Y-84325500D01*
X104789944Y-84325500D01*
X104806007Y-84325500D01*
X105931007Y-84325500D01*
X113783481Y-84325500D01*
X113850520Y-84345185D01*
X113871162Y-84361819D01*
X117303453Y-87794111D01*
X117303454Y-87794112D01*
X117303457Y-87794114D01*
X117418189Y-87870775D01*
X117545671Y-87923580D01*
X117545674Y-87923580D01*
X117545675Y-87923581D01*
X117560631Y-87926556D01*
X117560644Y-87926558D01*
X117560658Y-87926561D01*
X117608797Y-87936136D01*
X117681004Y-87950500D01*
X117681007Y-87950500D01*
X139785500Y-87950500D01*
X139852539Y-87970185D01*
X139898294Y-88022989D01*
X139909500Y-88074500D01*
X139909500Y-88119752D01*
X139921131Y-88178229D01*
X139921132Y-88178230D01*
X139965447Y-88244552D01*
X140031769Y-88288867D01*
X140031770Y-88288868D01*
X140090247Y-88300499D01*
X140090250Y-88300500D01*
X140090252Y-88300500D01*
X141829750Y-88300500D01*
X141829751Y-88300499D01*
X141844568Y-88297552D01*
X141888229Y-88288868D01*
X141888229Y-88288867D01*
X141888231Y-88288867D01*
X141954552Y-88244552D01*
X141998867Y-88178231D01*
X141998867Y-88178229D01*
X141998868Y-88178229D01*
X142010499Y-88119752D01*
X142010500Y-88119750D01*
X142010500Y-86380249D01*
X142008970Y-86372558D01*
X142015197Y-86302966D01*
X142058060Y-86247789D01*
X142123949Y-86224544D01*
X142191946Y-86240612D01*
X142218268Y-86260685D01*
X142556874Y-86599291D01*
X142590359Y-86660614D01*
X142585375Y-86730306D01*
X142578551Y-86745426D01*
X142524769Y-86846042D01*
X142464699Y-87044067D01*
X142444417Y-87250000D01*
X142464699Y-87455932D01*
X142493933Y-87552305D01*
X142524768Y-87653954D01*
X142622315Y-87836450D01*
X142622317Y-87836452D01*
X142753589Y-87996410D01*
X142850209Y-88075702D01*
X142913550Y-88127685D01*
X143096046Y-88225232D01*
X143294066Y-88285300D01*
X143294065Y-88285300D01*
X143312529Y-88287118D01*
X143500000Y-88305583D01*
X143705934Y-88285300D01*
X143903954Y-88225232D01*
X144086450Y-88127685D01*
X144246410Y-87996410D01*
X144377685Y-87836450D01*
X144475232Y-87653954D01*
X144535300Y-87455934D01*
X144555583Y-87250000D01*
X144984417Y-87250000D01*
X145004699Y-87455932D01*
X145033933Y-87552305D01*
X145064768Y-87653954D01*
X145162315Y-87836450D01*
X145162317Y-87836452D01*
X145293589Y-87996410D01*
X145390209Y-88075702D01*
X145453550Y-88127685D01*
X145636046Y-88225232D01*
X145834066Y-88285300D01*
X145834065Y-88285300D01*
X145852529Y-88287118D01*
X146040000Y-88305583D01*
X146245934Y-88285300D01*
X146443954Y-88225232D01*
X146556374Y-88165141D01*
X146614827Y-88150500D01*
X156838693Y-88150500D01*
X156838694Y-88150499D01*
X157012666Y-88115895D01*
X157094606Y-88081953D01*
X157176547Y-88048013D01*
X157242062Y-88004237D01*
X157282155Y-87977448D01*
X157303525Y-87963169D01*
X157324036Y-87949464D01*
X163673500Y-81600000D01*
X177169965Y-81600000D01*
X177182890Y-81698175D01*
X177188026Y-81737181D01*
X177188027Y-81737186D01*
X177240974Y-81865015D01*
X177240975Y-81865017D01*
X177240976Y-81865018D01*
X177325209Y-81974791D01*
X177350986Y-81994571D01*
X177392189Y-82050998D01*
X177399500Y-82092946D01*
X177399500Y-100739562D01*
X177419979Y-100815989D01*
X177427398Y-100828839D01*
X177427399Y-100828842D01*
X177427400Y-100828842D01*
X177459540Y-100884511D01*
X180065489Y-103490460D01*
X180134012Y-103530022D01*
X180210438Y-103550500D01*
X180289562Y-103550500D01*
X185874167Y-103550500D01*
X185941206Y-103570185D01*
X185961848Y-103586819D01*
X186438948Y-104063919D01*
X186472433Y-104125242D01*
X186474206Y-104167785D01*
X186469965Y-104199998D01*
X186469965Y-104200000D01*
X186488026Y-104337181D01*
X186488027Y-104337186D01*
X186540974Y-104465015D01*
X186540975Y-104465017D01*
X186540976Y-104465018D01*
X186625209Y-104574791D01*
X186734982Y-104659024D01*
X186862817Y-104711974D01*
X186985702Y-104728152D01*
X186999999Y-104730035D01*
X187000000Y-104730035D01*
X187000001Y-104730035D01*
X187012947Y-104728330D01*
X187137183Y-104711974D01*
X187265018Y-104659024D01*
X187374791Y-104574791D01*
X187459024Y-104465018D01*
X187511974Y-104337183D01*
X187530035Y-104200000D01*
X187511974Y-104062817D01*
X187459024Y-103934983D01*
X187374791Y-103825209D01*
X187374789Y-103825208D01*
X187374789Y-103825207D01*
X187265015Y-103740974D01*
X187137186Y-103688027D01*
X187137184Y-103688026D01*
X187137183Y-103688026D01*
X187032213Y-103674206D01*
X187000001Y-103669965D01*
X186999999Y-103669965D01*
X186967786Y-103674206D01*
X186898750Y-103663441D01*
X186863919Y-103638948D01*
X186234510Y-103009539D01*
X186208351Y-102994437D01*
X186182192Y-102979334D01*
X186182191Y-102979333D01*
X186175343Y-102975379D01*
X186165989Y-102969979D01*
X186089562Y-102949500D01*
X186089560Y-102949500D01*
X180425833Y-102949500D01*
X180358794Y-102929815D01*
X180338152Y-102913181D01*
X179374971Y-101950000D01*
X196394709Y-101950000D01*
X196413851Y-102229862D01*
X196413852Y-102229864D01*
X196470921Y-102504499D01*
X196470926Y-102504516D01*
X196564863Y-102768828D01*
X196564864Y-102768830D01*
X196693919Y-103017896D01*
X196855688Y-103247069D01*
X196855692Y-103247073D01*
X196855692Y-103247074D01*
X197047154Y-103452080D01*
X197047155Y-103452081D01*
X197264754Y-103629111D01*
X197264756Y-103629112D01*
X197264757Y-103629113D01*
X197504433Y-103774863D01*
X197713257Y-103865567D01*
X197761725Y-103886620D01*
X198031839Y-103962303D01*
X198276159Y-103995884D01*
X198309741Y-104000500D01*
X198309742Y-104000500D01*
X198590259Y-104000500D01*
X198620219Y-103996381D01*
X198868161Y-103962303D01*
X199138275Y-103886620D01*
X199395568Y-103774862D01*
X199635246Y-103629111D01*
X199852845Y-103452081D01*
X200044312Y-103247069D01*
X200206081Y-103017896D01*
X200335136Y-102768830D01*
X200429075Y-102504511D01*
X200429076Y-102504504D01*
X200429078Y-102504499D01*
X200481859Y-102250500D01*
X200486148Y-102229862D01*
X200505291Y-101950000D01*
X200486148Y-101670138D01*
X200449667Y-101494581D01*
X200429078Y-101395500D01*
X200429073Y-101395483D01*
X200385987Y-101274250D01*
X200335136Y-101131170D01*
X200206081Y-100882104D01*
X200044312Y-100652931D01*
X200044307Y-100652925D01*
X199852845Y-100447919D01*
X199635242Y-100270886D01*
X199395566Y-100125136D01*
X199138276Y-100013380D01*
X198868166Y-99937698D01*
X198868162Y-99937697D01*
X198868161Y-99937697D01*
X198729209Y-99918598D01*
X198590259Y-99899500D01*
X198590258Y-99899500D01*
X198309742Y-99899500D01*
X198309741Y-99899500D01*
X198031839Y-99937697D01*
X198031833Y-99937698D01*
X197761723Y-100013380D01*
X197504433Y-100125136D01*
X197264757Y-100270886D01*
X197047154Y-100447919D01*
X196855692Y-100652925D01*
X196855692Y-100652926D01*
X196855689Y-100652928D01*
X196855688Y-100652931D01*
X196839372Y-100676046D01*
X196693919Y-100882103D01*
X196564863Y-101131171D01*
X196470926Y-101395483D01*
X196470921Y-101395500D01*
X196413852Y-101670135D01*
X196413851Y-101670137D01*
X196394709Y-101950000D01*
X179374971Y-101950000D01*
X178036819Y-100611848D01*
X178003334Y-100550525D01*
X178000500Y-100524167D01*
X178000500Y-92000000D01*
X178349965Y-92000000D01*
X178368026Y-92137181D01*
X178368027Y-92137186D01*
X178420974Y-92265015D01*
X178420975Y-92265017D01*
X178420976Y-92265018D01*
X178505209Y-92374791D01*
X178614982Y-92459024D01*
X178742817Y-92511974D01*
X178865702Y-92528152D01*
X178879999Y-92530035D01*
X178880000Y-92530035D01*
X178880001Y-92530035D01*
X178892947Y-92528330D01*
X179017183Y-92511974D01*
X179145018Y-92459024D01*
X179254791Y-92374791D01*
X179339024Y-92265018D01*
X179391974Y-92137183D01*
X179410035Y-92000000D01*
X179403452Y-91950000D01*
X196394709Y-91950000D01*
X196413851Y-92229862D01*
X196413852Y-92229864D01*
X196470921Y-92504499D01*
X196470926Y-92504516D01*
X196564863Y-92768828D01*
X196564864Y-92768830D01*
X196693919Y-93017896D01*
X196855688Y-93247069D01*
X196855692Y-93247073D01*
X196855692Y-93247074D01*
X197047154Y-93452080D01*
X197047155Y-93452081D01*
X197264754Y-93629111D01*
X197264756Y-93629112D01*
X197264757Y-93629113D01*
X197504433Y-93774863D01*
X197709543Y-93863954D01*
X197761725Y-93886620D01*
X198031839Y-93962303D01*
X198276159Y-93995884D01*
X198309741Y-94000500D01*
X198309742Y-94000500D01*
X198590259Y-94000500D01*
X198620219Y-93996381D01*
X198868161Y-93962303D01*
X199138275Y-93886620D01*
X199395568Y-93774862D01*
X199635246Y-93629111D01*
X199852845Y-93452081D01*
X200044312Y-93247069D01*
X200206081Y-93017896D01*
X200335136Y-92768830D01*
X200429075Y-92504511D01*
X200429076Y-92504504D01*
X200429078Y-92504499D01*
X200478843Y-92265015D01*
X200486148Y-92229862D01*
X200505291Y-91950000D01*
X200486148Y-91670138D01*
X200430220Y-91400998D01*
X200429078Y-91395500D01*
X200429073Y-91395483D01*
X200403576Y-91323742D01*
X200335136Y-91131170D01*
X200206081Y-90882104D01*
X200044312Y-90652931D01*
X200044307Y-90652925D01*
X199852845Y-90447919D01*
X199635242Y-90270886D01*
X199395566Y-90125136D01*
X199138276Y-90013380D01*
X198868166Y-89937698D01*
X198868162Y-89937697D01*
X198868161Y-89937697D01*
X198729209Y-89918598D01*
X198590259Y-89899500D01*
X198590258Y-89899500D01*
X198309742Y-89899500D01*
X198309741Y-89899500D01*
X198031839Y-89937697D01*
X198031833Y-89937698D01*
X197761723Y-90013380D01*
X197504433Y-90125136D01*
X197264757Y-90270886D01*
X197047154Y-90447919D01*
X196855692Y-90652925D01*
X196855692Y-90652926D01*
X196855689Y-90652928D01*
X196855688Y-90652931D01*
X196828809Y-90691010D01*
X196693919Y-90882103D01*
X196564863Y-91131171D01*
X196470926Y-91395483D01*
X196470921Y-91395500D01*
X196413852Y-91670135D01*
X196413851Y-91670137D01*
X196394709Y-91950000D01*
X179403452Y-91950000D01*
X179391974Y-91862817D01*
X179339939Y-91737191D01*
X179330500Y-91689739D01*
X179330500Y-87707982D01*
X179350185Y-87640943D01*
X179402989Y-87595188D01*
X179472147Y-87585244D01*
X179535703Y-87614269D01*
X179542167Y-87620287D01*
X179629862Y-87707982D01*
X179698375Y-87776495D01*
X179714716Y-87791174D01*
X179714730Y-87791186D01*
X179714738Y-87791193D01*
X179718363Y-87794114D01*
X179735379Y-87807827D01*
X179806424Y-87844990D01*
X179873456Y-87864673D01*
X179873458Y-87864673D01*
X179873464Y-87864675D01*
X179931362Y-87873000D01*
X191925308Y-87873000D01*
X191992347Y-87892685D01*
X192003113Y-87900447D01*
X192009232Y-87905377D01*
X192009232Y-87905378D01*
X192024168Y-87917414D01*
X192025170Y-87918221D01*
X192030675Y-87922553D01*
X192130751Y-87973439D01*
X192197790Y-87993124D01*
X192283862Y-88005500D01*
X192283865Y-88005500D01*
X194443650Y-88005500D01*
X194447074Y-88005403D01*
X194460783Y-88005019D01*
X194474667Y-88004239D01*
X194489580Y-88002981D01*
X194510423Y-88002981D01*
X194525333Y-88004239D01*
X194539217Y-88005019D01*
X194552069Y-88005379D01*
X194556350Y-88005500D01*
X194556353Y-88005500D01*
X195648639Y-88005500D01*
X195650559Y-88005397D01*
X195681297Y-88003749D01*
X195707655Y-88000915D01*
X195714660Y-88000080D01*
X195821407Y-87965297D01*
X195882730Y-87931812D01*
X195889745Y-87926561D01*
X195952329Y-87879710D01*
X195952340Y-87879702D01*
X198779702Y-85052340D01*
X198801558Y-85028008D01*
X198818192Y-85007366D01*
X198822553Y-85001825D01*
X198873439Y-84901749D01*
X198893124Y-84834710D01*
X198905500Y-84748638D01*
X198905500Y-81424000D01*
X198898518Y-81359059D01*
X198887312Y-81307548D01*
X198876354Y-81269342D01*
X198819675Y-81172429D01*
X198773920Y-81119625D01*
X198773918Y-81119623D01*
X198773908Y-81119612D01*
X198729192Y-81077451D01*
X198729189Y-81077449D01*
X198729187Y-81077447D01*
X198629111Y-81026561D01*
X198629110Y-81026560D01*
X198629109Y-81026560D01*
X198562078Y-81006877D01*
X198562072Y-81006876D01*
X198476000Y-80994500D01*
X196100810Y-80994500D01*
X196100788Y-80994500D01*
X196055295Y-80997910D01*
X196055291Y-80997910D01*
X196018727Y-81003420D01*
X195974200Y-81013583D01*
X195820166Y-81061096D01*
X195802100Y-81065220D01*
X195650799Y-81088027D01*
X195613726Y-81093615D01*
X195595245Y-81095000D01*
X195404755Y-81095000D01*
X195386273Y-81093615D01*
X195368114Y-81090877D01*
X195197898Y-81065220D01*
X195179832Y-81061096D01*
X195025807Y-81013586D01*
X195025773Y-81013577D01*
X194981267Y-81003419D01*
X194966372Y-81001174D01*
X194944715Y-80997911D01*
X194944706Y-80997910D01*
X194944705Y-80997910D01*
X194899211Y-80994500D01*
X194899190Y-80994500D01*
X193251362Y-80994500D01*
X193251361Y-80994500D01*
X193218718Y-80996250D01*
X193218709Y-80996250D01*
X193218703Y-80996251D01*
X193218698Y-80996251D01*
X193218665Y-80996254D01*
X193192374Y-80999081D01*
X193185339Y-80999920D01*
X193185337Y-80999920D01*
X193078598Y-81034700D01*
X193078588Y-81034704D01*
X193017266Y-81068189D01*
X192947670Y-81120289D01*
X192947649Y-81120307D01*
X192420311Y-81647646D01*
X192420295Y-81647663D01*
X192398440Y-81671993D01*
X192381775Y-81692674D01*
X192377448Y-81698172D01*
X192377447Y-81698174D01*
X192326560Y-81798252D01*
X192306877Y-81865283D01*
X192306876Y-81865290D01*
X192295051Y-81947535D01*
X192294500Y-81951364D01*
X192294500Y-85722096D01*
X192274815Y-85789135D01*
X192258181Y-85809777D01*
X192142277Y-85925681D01*
X192080954Y-85959166D01*
X192054596Y-85962000D01*
X187320755Y-85962000D01*
X187318164Y-85962255D01*
X187280682Y-85965945D01*
X187280672Y-85965947D01*
X187280667Y-85965947D01*
X187280666Y-85965948D01*
X187233220Y-85975385D01*
X187233215Y-85975386D01*
X187230262Y-85976126D01*
X187230192Y-85975849D01*
X187215647Y-85978984D01*
X187146184Y-85988129D01*
X187113814Y-85988129D01*
X187044351Y-85978984D01*
X187029796Y-85975845D01*
X187029770Y-85975980D01*
X187029761Y-85975978D01*
X187029725Y-85976123D01*
X187026783Y-85975385D01*
X186979324Y-85965946D01*
X186942788Y-85962348D01*
X186939245Y-85962000D01*
X186939244Y-85962000D01*
X186220126Y-85962000D01*
X186153087Y-85942315D01*
X186107332Y-85889511D01*
X186097388Y-85820353D01*
X186105565Y-85790548D01*
X186123286Y-85747764D01*
X186157081Y-85666175D01*
X186175142Y-85528992D01*
X186170900Y-85496777D01*
X186181664Y-85427744D01*
X186206155Y-85392913D01*
X187062251Y-84536819D01*
X187123574Y-84503334D01*
X187149932Y-84500500D01*
X187439560Y-84500500D01*
X187439562Y-84500500D01*
X187515989Y-84480021D01*
X187584511Y-84440460D01*
X187640460Y-84384511D01*
X188745460Y-83279511D01*
X188755464Y-83262183D01*
X188785021Y-83210989D01*
X188805500Y-83134562D01*
X188805500Y-81910446D01*
X188825185Y-81843407D01*
X188854012Y-81812071D01*
X188879791Y-81792291D01*
X188964024Y-81682518D01*
X189016974Y-81554683D01*
X189035035Y-81417500D01*
X189016974Y-81280317D01*
X188971601Y-81170775D01*
X188964025Y-81152485D01*
X188964024Y-81152484D01*
X188964024Y-81152483D01*
X188879791Y-81042709D01*
X188879789Y-81042708D01*
X188879789Y-81042707D01*
X188813220Y-80991627D01*
X188770018Y-80958476D01*
X188770017Y-80958475D01*
X188770015Y-80958474D01*
X188642186Y-80905527D01*
X188642184Y-80905526D01*
X188642183Y-80905526D01*
X188550727Y-80893485D01*
X188505001Y-80887465D01*
X188504999Y-80887465D01*
X188436408Y-80896495D01*
X188367817Y-80905526D01*
X188367816Y-80905526D01*
X188367813Y-80905527D01*
X188239985Y-80958474D01*
X188236236Y-80961351D01*
X188130209Y-81042709D01*
X188130207Y-81042710D01*
X188130206Y-81042712D01*
X188129610Y-81043489D01*
X188128937Y-81043980D01*
X188124458Y-81048459D01*
X188123759Y-81047760D01*
X188073181Y-81084690D01*
X188031236Y-81092000D01*
X181478764Y-81092000D01*
X181411725Y-81072315D01*
X181385657Y-81048335D01*
X181385538Y-81048455D01*
X181382663Y-81045580D01*
X181380390Y-81043489D01*
X181379792Y-81042710D01*
X181369359Y-81034704D01*
X181270018Y-80958476D01*
X181270017Y-80958475D01*
X181270015Y-80958474D01*
X181142186Y-80905527D01*
X181142184Y-80905526D01*
X181142183Y-80905526D01*
X181050727Y-80893485D01*
X181005001Y-80887465D01*
X181004999Y-80887465D01*
X180936408Y-80896495D01*
X180867817Y-80905526D01*
X180867816Y-80905526D01*
X180867813Y-80905527D01*
X180739985Y-80958474D01*
X180630209Y-81042709D01*
X180545974Y-81152485D01*
X180493027Y-81280313D01*
X180493026Y-81280316D01*
X180493026Y-81280317D01*
X180474965Y-81417500D01*
X180491840Y-81545677D01*
X180493026Y-81554681D01*
X180493027Y-81554686D01*
X180545974Y-81682515D01*
X180545975Y-81682517D01*
X180545976Y-81682518D01*
X180630209Y-81792291D01*
X180739982Y-81876524D01*
X180867817Y-81929474D01*
X180990702Y-81945652D01*
X181004999Y-81947535D01*
X181005000Y-81947535D01*
X181005001Y-81947535D01*
X181017947Y-81945830D01*
X181142183Y-81929474D01*
X181270018Y-81876524D01*
X181379791Y-81792291D01*
X181380390Y-81791511D01*
X181381064Y-81791018D01*
X181385538Y-81786545D01*
X181386235Y-81787242D01*
X181436819Y-81750310D01*
X181478764Y-81743000D01*
X188031236Y-81743000D01*
X188098275Y-81762685D01*
X188124337Y-81786661D01*
X188124458Y-81786541D01*
X188127340Y-81789422D01*
X188129610Y-81791511D01*
X188130209Y-81792291D01*
X188155986Y-81812071D01*
X188197189Y-81868498D01*
X188204500Y-81910446D01*
X188204500Y-82919167D01*
X188184815Y-82986206D01*
X188168181Y-83006848D01*
X187311848Y-83863181D01*
X187250525Y-83896666D01*
X187224167Y-83899500D01*
X186934537Y-83899500D01*
X186858109Y-83919978D01*
X186789588Y-83959540D01*
X186789585Y-83959542D01*
X185781187Y-84967939D01*
X185719864Y-85001424D01*
X185677323Y-85003197D01*
X185645112Y-84998957D01*
X185645106Y-84998957D01*
X185581236Y-85007366D01*
X185507924Y-85017018D01*
X185507923Y-85017018D01*
X185507920Y-85017019D01*
X185380092Y-85069966D01*
X185270316Y-85154201D01*
X185186081Y-85263977D01*
X185133134Y-85391805D01*
X185133133Y-85391808D01*
X185133133Y-85391809D01*
X185115072Y-85528992D01*
X185131693Y-85655240D01*
X185133133Y-85666173D01*
X185133134Y-85666178D01*
X185184649Y-85790548D01*
X185192118Y-85860017D01*
X185160842Y-85922496D01*
X185100753Y-85958148D01*
X185070088Y-85962000D01*
X179931361Y-85962000D01*
X179909381Y-85963178D01*
X179883034Y-85966011D01*
X179883032Y-85966012D01*
X179806521Y-85989970D01*
X179806516Y-85989971D01*
X179745188Y-86023460D01*
X179698384Y-86058498D01*
X179698370Y-86058510D01*
X179542181Y-86214699D01*
X179480858Y-86248183D01*
X179411166Y-86243199D01*
X179355233Y-86201327D01*
X179330816Y-86135863D01*
X179330500Y-86127017D01*
X179330500Y-85977762D01*
X179339939Y-85930310D01*
X179369806Y-85858202D01*
X179391974Y-85804683D01*
X179410035Y-85667500D01*
X179409860Y-85666174D01*
X179408126Y-85652999D01*
X179391974Y-85530317D01*
X179339024Y-85402483D01*
X179254791Y-85292709D01*
X179254789Y-85292708D01*
X179254789Y-85292707D01*
X179145015Y-85208474D01*
X179017186Y-85155527D01*
X179017184Y-85155526D01*
X179017183Y-85155526D01*
X178925727Y-85143485D01*
X178880001Y-85137465D01*
X178879999Y-85137465D01*
X178811408Y-85146495D01*
X178742817Y-85155526D01*
X178742816Y-85155526D01*
X178742813Y-85155527D01*
X178614985Y-85208474D01*
X178505209Y-85292709D01*
X178420974Y-85402485D01*
X178368027Y-85530313D01*
X178368026Y-85530318D01*
X178350140Y-85666174D01*
X178349965Y-85667500D01*
X178367320Y-85799324D01*
X178368026Y-85804681D01*
X178368027Y-85804686D01*
X178420061Y-85930310D01*
X178429500Y-85977762D01*
X178429500Y-91689739D01*
X178420061Y-91737191D01*
X178368027Y-91862813D01*
X178368026Y-91862818D01*
X178349965Y-91999999D01*
X178349965Y-92000000D01*
X178000500Y-92000000D01*
X178000500Y-82092946D01*
X178020185Y-82025907D01*
X178049012Y-81994571D01*
X178074791Y-81974791D01*
X178159024Y-81865018D01*
X178211974Y-81737183D01*
X178230035Y-81600000D01*
X178211974Y-81462817D01*
X178168999Y-81359064D01*
X178159025Y-81334985D01*
X178159024Y-81334984D01*
X178159024Y-81334983D01*
X178074791Y-81225209D01*
X178074789Y-81225208D01*
X178074789Y-81225207D01*
X177981123Y-81153334D01*
X177965018Y-81140976D01*
X177965017Y-81140975D01*
X177965015Y-81140974D01*
X177837186Y-81088027D01*
X177837184Y-81088026D01*
X177837183Y-81088026D01*
X177717850Y-81072315D01*
X177700001Y-81069965D01*
X177699999Y-81069965D01*
X177682150Y-81072315D01*
X177562817Y-81088026D01*
X177562816Y-81088026D01*
X177562813Y-81088027D01*
X177434985Y-81140974D01*
X177325209Y-81225209D01*
X177240974Y-81334985D01*
X177188027Y-81462813D01*
X177188026Y-81462816D01*
X177188026Y-81462817D01*
X177182383Y-81505680D01*
X177175932Y-81554681D01*
X177169965Y-81600000D01*
X163673500Y-81600000D01*
X164086681Y-81186819D01*
X164148004Y-81153334D01*
X164174362Y-81150500D01*
X168338693Y-81150500D01*
X168338694Y-81150499D01*
X168396682Y-81138964D01*
X168512658Y-81115896D01*
X168512661Y-81115894D01*
X168512666Y-81115894D01*
X168676547Y-81048013D01*
X168824035Y-80949464D01*
X168949464Y-80824035D01*
X169048013Y-80676547D01*
X169115894Y-80512666D01*
X169132914Y-80427104D01*
X169150499Y-80338695D01*
X169150500Y-80338693D01*
X169150500Y-80161306D01*
X169150499Y-80161304D01*
X169115896Y-79987341D01*
X169115893Y-79987332D01*
X169048016Y-79823459D01*
X169048009Y-79823446D01*
X168949464Y-79675965D01*
X168949461Y-79675961D01*
X168824038Y-79550538D01*
X168824034Y-79550535D01*
X168676553Y-79451990D01*
X168676540Y-79451983D01*
X168512667Y-79384106D01*
X168512659Y-79384104D01*
X168370552Y-79355837D01*
X168319257Y-79332596D01*
X168307892Y-79323875D01*
X168265018Y-79290976D01*
X168265017Y-79290975D01*
X168265015Y-79290974D01*
X168137186Y-79238027D01*
X168137184Y-79238026D01*
X168137183Y-79238026D01*
X168045727Y-79225985D01*
X168000001Y-79219965D01*
X167999999Y-79219965D01*
X167931408Y-79228995D01*
X167862817Y-79238026D01*
X167862816Y-79238026D01*
X167862813Y-79238027D01*
X167734982Y-79290975D01*
X167700486Y-79317446D01*
X167635317Y-79342640D01*
X167566872Y-79328601D01*
X167549513Y-79317445D01*
X167515019Y-79290976D01*
X167515016Y-79290975D01*
X167387186Y-79238027D01*
X167387184Y-79238026D01*
X167387183Y-79238026D01*
X167295727Y-79225985D01*
X167250001Y-79219965D01*
X167249999Y-79219965D01*
X167181408Y-79228995D01*
X167112817Y-79238026D01*
X167112816Y-79238026D01*
X167112813Y-79238027D01*
X166984982Y-79290975D01*
X166950486Y-79317446D01*
X166885317Y-79342640D01*
X166816872Y-79328601D01*
X166799513Y-79317445D01*
X166765019Y-79290976D01*
X166765016Y-79290975D01*
X166637186Y-79238027D01*
X166637184Y-79238026D01*
X166637183Y-79238026D01*
X166545727Y-79225985D01*
X166500001Y-79219965D01*
X166499999Y-79219965D01*
X166431408Y-79228995D01*
X166362817Y-79238026D01*
X166362816Y-79238026D01*
X166362813Y-79238027D01*
X166234982Y-79290975D01*
X166200486Y-79317446D01*
X166135317Y-79342640D01*
X166066872Y-79328601D01*
X166049513Y-79317445D01*
X166015019Y-79290976D01*
X166015016Y-79290975D01*
X165887186Y-79238027D01*
X165887184Y-79238026D01*
X165887183Y-79238026D01*
X165795727Y-79225985D01*
X165750001Y-79219965D01*
X165749999Y-79219965D01*
X165681408Y-79228995D01*
X165612817Y-79238026D01*
X165612816Y-79238026D01*
X165612813Y-79238027D01*
X165484982Y-79290975D01*
X165450486Y-79317446D01*
X165385317Y-79342640D01*
X165316872Y-79328601D01*
X165299513Y-79317445D01*
X165265019Y-79290976D01*
X165265016Y-79290975D01*
X165137186Y-79238027D01*
X165137184Y-79238026D01*
X165137183Y-79238026D01*
X165045727Y-79225985D01*
X165000001Y-79219965D01*
X164999999Y-79219965D01*
X164931408Y-79228995D01*
X164862817Y-79238026D01*
X164862816Y-79238026D01*
X164862813Y-79238027D01*
X164734982Y-79290975D01*
X164700486Y-79317446D01*
X164635317Y-79342640D01*
X164566872Y-79328601D01*
X164549513Y-79317445D01*
X164515019Y-79290976D01*
X164515016Y-79290975D01*
X164387186Y-79238027D01*
X164387184Y-79238026D01*
X164387183Y-79238026D01*
X164295727Y-79225985D01*
X164250001Y-79219965D01*
X164249999Y-79219965D01*
X164181408Y-79228995D01*
X164112817Y-79238026D01*
X164112816Y-79238026D01*
X164112813Y-79238027D01*
X163984982Y-79290975D01*
X163942108Y-79323875D01*
X163876939Y-79349070D01*
X163866621Y-79349500D01*
X163661303Y-79349500D01*
X163487341Y-79384103D01*
X163487329Y-79384106D01*
X163405392Y-79418045D01*
X163405393Y-79418046D01*
X163323455Y-79451985D01*
X163256416Y-79496780D01*
X163256415Y-79496781D01*
X163175961Y-79550537D01*
X163175960Y-79550538D01*
X156413319Y-86313181D01*
X156351996Y-86346666D01*
X156325638Y-86349500D01*
X146614827Y-86349500D01*
X146556374Y-86334858D01*
X146443954Y-86274768D01*
X146339884Y-86243199D01*
X146245932Y-86214699D01*
X146040000Y-86194417D01*
X145834067Y-86214699D01*
X145636043Y-86274769D01*
X145548116Y-86321768D01*
X145453550Y-86372315D01*
X145453548Y-86372316D01*
X145453547Y-86372317D01*
X145293589Y-86503589D01*
X145164724Y-86660614D01*
X145162315Y-86663550D01*
X145126633Y-86730306D01*
X145064769Y-86846043D01*
X145004699Y-87044067D01*
X144984417Y-87250000D01*
X144555583Y-87250000D01*
X144535300Y-87044066D01*
X144475232Y-86846046D01*
X144377685Y-86663550D01*
X144246410Y-86503590D01*
X144246407Y-86503588D01*
X144246406Y-86503586D01*
X144230788Y-86490768D01*
X144191454Y-86433021D01*
X144187838Y-86419116D01*
X144173580Y-86347432D01*
X144168372Y-86334858D01*
X144120777Y-86219952D01*
X144044112Y-86105214D01*
X142820665Y-84881767D01*
X142705927Y-84805102D01*
X142578452Y-84752301D01*
X142578442Y-84752298D01*
X142443116Y-84725380D01*
X142443114Y-84725380D01*
X142443113Y-84725380D01*
X132074500Y-84725380D01*
X132007461Y-84705695D01*
X131961706Y-84652891D01*
X131950500Y-84601380D01*
X131950500Y-83000000D01*
X135404417Y-83000000D01*
X135424699Y-83205932D01*
X135439556Y-83254908D01*
X135484768Y-83403954D01*
X135582315Y-83586450D01*
X135607811Y-83617517D01*
X135713589Y-83746410D01*
X135790115Y-83809212D01*
X135873550Y-83877685D01*
X136056046Y-83975232D01*
X136254066Y-84035300D01*
X136254065Y-84035300D01*
X136272529Y-84037118D01*
X136460000Y-84055583D01*
X136665934Y-84035300D01*
X136863954Y-83975232D01*
X137046450Y-83877685D01*
X137206410Y-83746410D01*
X137337685Y-83586450D01*
X137435232Y-83403954D01*
X137495300Y-83205934D01*
X137515583Y-83000000D01*
X137944417Y-83000000D01*
X137964699Y-83205932D01*
X137979556Y-83254908D01*
X138024768Y-83403954D01*
X138122315Y-83586450D01*
X138147811Y-83617517D01*
X138253589Y-83746410D01*
X138330115Y-83809212D01*
X138413550Y-83877685D01*
X138596046Y-83975232D01*
X138794066Y-84035300D01*
X138794065Y-84035300D01*
X138812529Y-84037118D01*
X139000000Y-84055583D01*
X139205934Y-84035300D01*
X139403954Y-83975232D01*
X139586450Y-83877685D01*
X139746410Y-83746410D01*
X139877685Y-83586450D01*
X139975232Y-83403954D01*
X140035300Y-83205934D01*
X140055583Y-83000000D01*
X140484417Y-83000000D01*
X140504699Y-83205932D01*
X140519556Y-83254908D01*
X140564768Y-83403954D01*
X140662315Y-83586450D01*
X140687811Y-83617517D01*
X140793589Y-83746410D01*
X140870115Y-83809212D01*
X140953550Y-83877685D01*
X141136046Y-83975232D01*
X141334066Y-84035300D01*
X141334065Y-84035300D01*
X141352529Y-84037118D01*
X141540000Y-84055583D01*
X141745934Y-84035300D01*
X141943954Y-83975232D01*
X142126450Y-83877685D01*
X142286410Y-83746410D01*
X142417685Y-83586450D01*
X142515232Y-83403954D01*
X142575300Y-83205934D01*
X142595583Y-83000000D01*
X143024417Y-83000000D01*
X143044699Y-83205932D01*
X143059556Y-83254908D01*
X143104768Y-83403954D01*
X143202315Y-83586450D01*
X143227811Y-83617517D01*
X143333589Y-83746410D01*
X143410115Y-83809212D01*
X143493550Y-83877685D01*
X143676046Y-83975232D01*
X143874066Y-84035300D01*
X143874065Y-84035300D01*
X143892529Y-84037118D01*
X144080000Y-84055583D01*
X144285934Y-84035300D01*
X144483954Y-83975232D01*
X144666450Y-83877685D01*
X144826410Y-83746410D01*
X144957685Y-83586450D01*
X145055232Y-83403954D01*
X145115300Y-83205934D01*
X145135583Y-83000000D01*
X145564417Y-83000000D01*
X145584699Y-83205932D01*
X145599556Y-83254908D01*
X145644768Y-83403954D01*
X145742315Y-83586450D01*
X145767811Y-83617517D01*
X145873589Y-83746410D01*
X145950115Y-83809212D01*
X146033550Y-83877685D01*
X146216046Y-83975232D01*
X146414066Y-84035300D01*
X146414065Y-84035300D01*
X146432529Y-84037118D01*
X146620000Y-84055583D01*
X146825934Y-84035300D01*
X147023954Y-83975232D01*
X147206450Y-83877685D01*
X147366410Y-83746410D01*
X147497685Y-83586450D01*
X147595232Y-83403954D01*
X147655300Y-83205934D01*
X147675583Y-83000000D01*
X148104417Y-83000000D01*
X148124699Y-83205932D01*
X148139556Y-83254908D01*
X148184768Y-83403954D01*
X148282315Y-83586450D01*
X148307811Y-83617517D01*
X148413589Y-83746410D01*
X148490115Y-83809212D01*
X148573550Y-83877685D01*
X148756046Y-83975232D01*
X148954066Y-84035300D01*
X148954065Y-84035300D01*
X148972529Y-84037118D01*
X149160000Y-84055583D01*
X149365934Y-84035300D01*
X149563954Y-83975232D01*
X149746450Y-83877685D01*
X149906410Y-83746410D01*
X150037685Y-83586450D01*
X150135232Y-83403954D01*
X150195300Y-83205934D01*
X150215583Y-83000000D01*
X150644417Y-83000000D01*
X150664699Y-83205932D01*
X150679556Y-83254908D01*
X150724768Y-83403954D01*
X150822315Y-83586450D01*
X150847811Y-83617517D01*
X150953589Y-83746410D01*
X151030115Y-83809212D01*
X151113550Y-83877685D01*
X151296046Y-83975232D01*
X151494066Y-84035300D01*
X151494065Y-84035300D01*
X151512529Y-84037118D01*
X151700000Y-84055583D01*
X151905934Y-84035300D01*
X152103954Y-83975232D01*
X152286450Y-83877685D01*
X152446410Y-83746410D01*
X152577685Y-83586450D01*
X152675232Y-83403954D01*
X152735300Y-83205934D01*
X152755583Y-83000000D01*
X153184417Y-83000000D01*
X153204699Y-83205932D01*
X153219556Y-83254908D01*
X153264768Y-83403954D01*
X153362315Y-83586450D01*
X153387811Y-83617517D01*
X153493589Y-83746410D01*
X153570115Y-83809212D01*
X153653550Y-83877685D01*
X153836046Y-83975232D01*
X154034066Y-84035300D01*
X154034065Y-84035300D01*
X154052529Y-84037118D01*
X154240000Y-84055583D01*
X154445934Y-84035300D01*
X154643954Y-83975232D01*
X154826450Y-83877685D01*
X154986410Y-83746410D01*
X155117685Y-83586450D01*
X155215232Y-83403954D01*
X155275300Y-83205934D01*
X155295583Y-83000000D01*
X155724417Y-83000000D01*
X155744699Y-83205932D01*
X155759556Y-83254908D01*
X155804768Y-83403954D01*
X155902315Y-83586450D01*
X155927811Y-83617517D01*
X156033589Y-83746410D01*
X156110115Y-83809212D01*
X156193550Y-83877685D01*
X156376046Y-83975232D01*
X156574066Y-84035300D01*
X156574065Y-84035300D01*
X156592529Y-84037118D01*
X156780000Y-84055583D01*
X156985934Y-84035300D01*
X157183954Y-83975232D01*
X157366450Y-83877685D01*
X157526410Y-83746410D01*
X157657685Y-83586450D01*
X157755232Y-83403954D01*
X157815300Y-83205934D01*
X157835583Y-83000000D01*
X157815300Y-82794066D01*
X157755232Y-82596046D01*
X157657685Y-82413550D01*
X157605702Y-82350209D01*
X157526410Y-82253589D01*
X157387065Y-82139233D01*
X157366450Y-82122315D01*
X157183954Y-82024768D01*
X156985934Y-81964700D01*
X156985932Y-81964699D01*
X156985934Y-81964699D01*
X156780000Y-81944417D01*
X156574067Y-81964699D01*
X156398692Y-82017898D01*
X156376996Y-82024480D01*
X156376043Y-82024769D01*
X156277007Y-82077706D01*
X156193550Y-82122315D01*
X156193548Y-82122316D01*
X156193547Y-82122317D01*
X156033589Y-82253589D01*
X155902317Y-82413547D01*
X155804769Y-82596043D01*
X155804768Y-82596045D01*
X155804768Y-82596046D01*
X155797898Y-82618692D01*
X155744699Y-82794067D01*
X155724417Y-83000000D01*
X155295583Y-83000000D01*
X155275300Y-82794066D01*
X155215232Y-82596046D01*
X155117685Y-82413550D01*
X155065702Y-82350209D01*
X154986410Y-82253589D01*
X154847065Y-82139233D01*
X154826450Y-82122315D01*
X154643954Y-82024768D01*
X154445934Y-81964700D01*
X154445932Y-81964699D01*
X154445934Y-81964699D01*
X154240000Y-81944417D01*
X154034067Y-81964699D01*
X153858692Y-82017898D01*
X153836996Y-82024480D01*
X153836043Y-82024769D01*
X153737007Y-82077706D01*
X153653550Y-82122315D01*
X153653548Y-82122316D01*
X153653547Y-82122317D01*
X153493589Y-82253589D01*
X153362317Y-82413547D01*
X153264769Y-82596043D01*
X153264768Y-82596045D01*
X153264768Y-82596046D01*
X153257898Y-82618692D01*
X153204699Y-82794067D01*
X153184417Y-83000000D01*
X152755583Y-83000000D01*
X152735300Y-82794066D01*
X152675232Y-82596046D01*
X152577685Y-82413550D01*
X152525702Y-82350209D01*
X152446410Y-82253589D01*
X152307065Y-82139233D01*
X152286450Y-82122315D01*
X152103954Y-82024768D01*
X151905934Y-81964700D01*
X151905932Y-81964699D01*
X151905934Y-81964699D01*
X151700000Y-81944417D01*
X151494067Y-81964699D01*
X151318692Y-82017898D01*
X151296996Y-82024480D01*
X151296043Y-82024769D01*
X151197007Y-82077706D01*
X151113550Y-82122315D01*
X151113548Y-82122316D01*
X151113547Y-82122317D01*
X150953589Y-82253589D01*
X150822317Y-82413547D01*
X150724769Y-82596043D01*
X150724768Y-82596045D01*
X150724768Y-82596046D01*
X150717898Y-82618692D01*
X150664699Y-82794067D01*
X150644417Y-83000000D01*
X150215583Y-83000000D01*
X150195300Y-82794066D01*
X150135232Y-82596046D01*
X150037685Y-82413550D01*
X149985702Y-82350209D01*
X149906410Y-82253589D01*
X149767065Y-82139233D01*
X149746450Y-82122315D01*
X149563954Y-82024768D01*
X149365934Y-81964700D01*
X149365932Y-81964699D01*
X149365934Y-81964699D01*
X149160000Y-81944417D01*
X148954067Y-81964699D01*
X148778692Y-82017898D01*
X148756996Y-82024480D01*
X148756043Y-82024769D01*
X148657007Y-82077706D01*
X148573550Y-82122315D01*
X148573548Y-82122316D01*
X148573547Y-82122317D01*
X148413589Y-82253589D01*
X148282317Y-82413547D01*
X148184769Y-82596043D01*
X148184768Y-82596045D01*
X148184768Y-82596046D01*
X148177898Y-82618692D01*
X148124699Y-82794067D01*
X148104417Y-83000000D01*
X147675583Y-83000000D01*
X147655300Y-82794066D01*
X147595232Y-82596046D01*
X147497685Y-82413550D01*
X147445702Y-82350209D01*
X147366410Y-82253589D01*
X147227065Y-82139233D01*
X147206450Y-82122315D01*
X147023954Y-82024768D01*
X146825934Y-81964700D01*
X146825932Y-81964699D01*
X146825934Y-81964699D01*
X146620000Y-81944417D01*
X146414067Y-81964699D01*
X146238692Y-82017898D01*
X146216996Y-82024480D01*
X146216043Y-82024769D01*
X146117007Y-82077706D01*
X146033550Y-82122315D01*
X146033548Y-82122316D01*
X146033547Y-82122317D01*
X145873589Y-82253589D01*
X145742317Y-82413547D01*
X145644769Y-82596043D01*
X145644768Y-82596045D01*
X145644768Y-82596046D01*
X145637898Y-82618692D01*
X145584699Y-82794067D01*
X145564417Y-83000000D01*
X145135583Y-83000000D01*
X145115300Y-82794066D01*
X145055232Y-82596046D01*
X144957685Y-82413550D01*
X144905702Y-82350209D01*
X144826410Y-82253589D01*
X144687065Y-82139233D01*
X144666450Y-82122315D01*
X144483954Y-82024768D01*
X144285934Y-81964700D01*
X144285932Y-81964699D01*
X144285934Y-81964699D01*
X144080000Y-81944417D01*
X143874067Y-81964699D01*
X143698692Y-82017898D01*
X143676996Y-82024480D01*
X143676043Y-82024769D01*
X143577007Y-82077706D01*
X143493550Y-82122315D01*
X143493548Y-82122316D01*
X143493547Y-82122317D01*
X143333589Y-82253589D01*
X143202317Y-82413547D01*
X143104769Y-82596043D01*
X143104768Y-82596045D01*
X143104768Y-82596046D01*
X143097898Y-82618692D01*
X143044699Y-82794067D01*
X143024417Y-83000000D01*
X142595583Y-83000000D01*
X142575300Y-82794066D01*
X142515232Y-82596046D01*
X142417685Y-82413550D01*
X142365702Y-82350209D01*
X142286410Y-82253589D01*
X142147065Y-82139233D01*
X142126450Y-82122315D01*
X141943954Y-82024768D01*
X141745934Y-81964700D01*
X141745932Y-81964699D01*
X141745934Y-81964699D01*
X141540000Y-81944417D01*
X141334067Y-81964699D01*
X141158692Y-82017898D01*
X141136996Y-82024480D01*
X141136043Y-82024769D01*
X141037007Y-82077706D01*
X140953550Y-82122315D01*
X140953548Y-82122316D01*
X140953547Y-82122317D01*
X140793589Y-82253589D01*
X140662317Y-82413547D01*
X140564769Y-82596043D01*
X140564768Y-82596045D01*
X140564768Y-82596046D01*
X140557898Y-82618692D01*
X140504699Y-82794067D01*
X140484417Y-83000000D01*
X140055583Y-83000000D01*
X140035300Y-82794066D01*
X139975232Y-82596046D01*
X139877685Y-82413550D01*
X139825702Y-82350209D01*
X139746410Y-82253589D01*
X139607065Y-82139233D01*
X139586450Y-82122315D01*
X139403954Y-82024768D01*
X139205934Y-81964700D01*
X139205932Y-81964699D01*
X139205934Y-81964699D01*
X139000000Y-81944417D01*
X138794067Y-81964699D01*
X138618692Y-82017898D01*
X138596996Y-82024480D01*
X138596043Y-82024769D01*
X138497007Y-82077706D01*
X138413550Y-82122315D01*
X138413548Y-82122316D01*
X138413547Y-82122317D01*
X138253589Y-82253589D01*
X138122317Y-82413547D01*
X138024769Y-82596043D01*
X138024768Y-82596045D01*
X138024768Y-82596046D01*
X138017898Y-82618692D01*
X137964699Y-82794067D01*
X137944417Y-83000000D01*
X137515583Y-83000000D01*
X137495300Y-82794066D01*
X137435232Y-82596046D01*
X137337685Y-82413550D01*
X137285702Y-82350209D01*
X137206410Y-82253589D01*
X137067065Y-82139233D01*
X137046450Y-82122315D01*
X136863954Y-82024768D01*
X136665934Y-81964700D01*
X136665932Y-81964699D01*
X136665934Y-81964699D01*
X136460000Y-81944417D01*
X136254067Y-81964699D01*
X136078692Y-82017898D01*
X136056996Y-82024480D01*
X136056043Y-82024769D01*
X135957007Y-82077706D01*
X135873550Y-82122315D01*
X135873548Y-82122316D01*
X135873547Y-82122317D01*
X135713589Y-82253589D01*
X135582317Y-82413547D01*
X135484769Y-82596043D01*
X135484768Y-82596045D01*
X135484768Y-82596046D01*
X135477898Y-82618692D01*
X135424699Y-82794067D01*
X135404417Y-83000000D01*
X131950500Y-83000000D01*
X131950500Y-82091519D01*
X131970185Y-82024480D01*
X131986819Y-82003838D01*
X132703838Y-81286819D01*
X132765161Y-81253334D01*
X132791519Y-81250500D01*
X139518996Y-81250500D01*
X139610040Y-81232389D01*
X139654328Y-81223580D01*
X139718069Y-81197177D01*
X139781807Y-81170777D01*
X139781808Y-81170776D01*
X139781811Y-81170775D01*
X139896543Y-81094114D01*
X144240657Y-76750000D01*
X155744353Y-76750000D01*
X155764834Y-76892456D01*
X155800091Y-76969656D01*
X155824623Y-77023373D01*
X155918872Y-77132143D01*
X156039947Y-77209953D01*
X156039950Y-77209954D01*
X156039949Y-77209954D01*
X156098566Y-77227165D01*
X156175280Y-77249690D01*
X156178036Y-77250499D01*
X156178038Y-77250500D01*
X156274167Y-77250500D01*
X156341206Y-77270185D01*
X156361848Y-77286819D01*
X157163181Y-78088152D01*
X157196666Y-78149475D01*
X157199500Y-78175833D01*
X157199500Y-78786260D01*
X157179815Y-78853299D01*
X157169213Y-78867462D01*
X157074625Y-78976622D01*
X157074622Y-78976628D01*
X157014834Y-79107543D01*
X156994353Y-79250000D01*
X157014834Y-79392456D01*
X157042023Y-79451990D01*
X157074623Y-79523373D01*
X157168872Y-79632143D01*
X157289947Y-79709953D01*
X157289950Y-79709954D01*
X157289949Y-79709954D01*
X157428036Y-79750499D01*
X157428038Y-79750500D01*
X157428039Y-79750500D01*
X157571962Y-79750500D01*
X157571962Y-79750499D01*
X157710053Y-79709953D01*
X157831128Y-79632143D01*
X157925377Y-79523373D01*
X157985165Y-79392457D01*
X158005647Y-79250000D01*
X157985165Y-79107543D01*
X157925377Y-78976627D01*
X157925375Y-78976625D01*
X157925374Y-78976622D01*
X157830787Y-78867462D01*
X157801762Y-78803906D01*
X157800500Y-78786260D01*
X157800500Y-77960439D01*
X157800500Y-77960438D01*
X157780021Y-77884011D01*
X157753079Y-77837346D01*
X157740464Y-77815495D01*
X157740458Y-77815487D01*
X156789395Y-76864424D01*
X156755910Y-76803101D01*
X156754339Y-76759094D01*
X156755647Y-76750000D01*
X156735165Y-76607543D01*
X156675377Y-76476627D01*
X156581128Y-76367857D01*
X156460053Y-76290047D01*
X156460051Y-76290046D01*
X156460049Y-76290045D01*
X156460050Y-76290045D01*
X156321963Y-76249500D01*
X156321961Y-76249500D01*
X156178039Y-76249500D01*
X156178036Y-76249500D01*
X156039949Y-76290045D01*
X155918873Y-76367856D01*
X155824623Y-76476626D01*
X155824622Y-76476628D01*
X155764834Y-76607543D01*
X155744353Y-76750000D01*
X144240657Y-76750000D01*
X144644114Y-76346543D01*
X144720775Y-76231811D01*
X144725347Y-76220775D01*
X144757100Y-76144114D01*
X144773580Y-76104328D01*
X144795453Y-75994369D01*
X144800500Y-75968996D01*
X144800500Y-75290545D01*
X169535342Y-75290545D01*
X169554484Y-75570407D01*
X169554485Y-75570409D01*
X169611554Y-75845044D01*
X169611559Y-75845061D01*
X169705496Y-76109373D01*
X169705497Y-76109375D01*
X169834552Y-76358441D01*
X169996321Y-76587614D01*
X169996325Y-76587618D01*
X169996325Y-76587619D01*
X170146370Y-76748278D01*
X170187788Y-76792626D01*
X170405387Y-76969656D01*
X170405389Y-76969657D01*
X170405390Y-76969658D01*
X170645066Y-77115408D01*
X170853890Y-77206112D01*
X170902358Y-77227165D01*
X171172472Y-77302848D01*
X171416792Y-77336429D01*
X171450374Y-77341045D01*
X171450375Y-77341045D01*
X171730892Y-77341045D01*
X171760852Y-77336926D01*
X172008794Y-77302848D01*
X172278908Y-77227165D01*
X172536201Y-77115407D01*
X172775879Y-76969656D01*
X172993478Y-76792626D01*
X173184945Y-76587614D01*
X173346714Y-76358441D01*
X173475769Y-76109375D01*
X173569708Y-75845056D01*
X173569709Y-75845049D01*
X173569711Y-75845044D01*
X173608861Y-75656640D01*
X173626781Y-75570407D01*
X173645924Y-75290545D01*
X173626781Y-75010683D01*
X173598629Y-74875209D01*
X173569711Y-74736045D01*
X173569706Y-74736028D01*
X173528535Y-74620185D01*
X173475769Y-74471715D01*
X173346714Y-74222649D01*
X173184945Y-73993476D01*
X173184940Y-73993470D01*
X172993478Y-73788464D01*
X172841923Y-73665165D01*
X172775879Y-73611434D01*
X172775877Y-73611433D01*
X172775875Y-73611431D01*
X172536199Y-73465681D01*
X172278909Y-73353925D01*
X172008799Y-73278243D01*
X172008795Y-73278242D01*
X172008794Y-73278242D01*
X171803312Y-73249999D01*
X171730892Y-73240045D01*
X171730891Y-73240045D01*
X171450375Y-73240045D01*
X171450374Y-73240045D01*
X171172472Y-73278242D01*
X171172466Y-73278243D01*
X170902356Y-73353925D01*
X170645066Y-73465681D01*
X170405390Y-73611431D01*
X170187787Y-73788464D01*
X169996325Y-73993470D01*
X169996325Y-73993471D01*
X169834552Y-74222648D01*
X169705496Y-74471716D01*
X169611559Y-74736028D01*
X169611554Y-74736045D01*
X169554485Y-75010680D01*
X169554484Y-75010682D01*
X169535342Y-75290545D01*
X144800500Y-75290545D01*
X144800500Y-64795927D01*
X159040724Y-64795927D01*
X159059866Y-65075789D01*
X159059867Y-65075791D01*
X159116936Y-65350426D01*
X159116941Y-65350443D01*
X159127090Y-65378998D01*
X159210879Y-65614757D01*
X159339934Y-65863823D01*
X159501703Y-66092996D01*
X159501707Y-66093000D01*
X159501707Y-66093001D01*
X159693169Y-66298007D01*
X159693170Y-66298008D01*
X159910769Y-66475038D01*
X159910771Y-66475039D01*
X159910772Y-66475040D01*
X160150448Y-66620790D01*
X160359272Y-66711494D01*
X160407740Y-66732547D01*
X160677854Y-66808230D01*
X160922174Y-66841811D01*
X160955756Y-66846427D01*
X160955757Y-66846427D01*
X161236274Y-66846427D01*
X161266234Y-66842308D01*
X161514176Y-66808230D01*
X161784290Y-66732547D01*
X162041583Y-66620789D01*
X162281261Y-66475038D01*
X162498860Y-66298008D01*
X162690327Y-66092996D01*
X162852096Y-65863823D01*
X162981151Y-65614757D01*
X163075090Y-65350438D01*
X163075091Y-65350431D01*
X163075093Y-65350426D01*
X163106860Y-65197553D01*
X163132163Y-65075789D01*
X163151306Y-64795927D01*
X163132163Y-64516065D01*
X163106860Y-64394301D01*
X163075093Y-64241427D01*
X163075088Y-64241410D01*
X163037264Y-64134983D01*
X162981151Y-63977097D01*
X162852096Y-63728031D01*
X162690327Y-63498858D01*
X162690322Y-63498852D01*
X162498860Y-63293846D01*
X162281257Y-63116813D01*
X162041581Y-62971063D01*
X161784291Y-62859307D01*
X161514181Y-62783625D01*
X161514177Y-62783624D01*
X161514176Y-62783624D01*
X161375224Y-62764525D01*
X161236274Y-62745427D01*
X161236273Y-62745427D01*
X160955757Y-62745427D01*
X160955756Y-62745427D01*
X160677854Y-62783624D01*
X160677848Y-62783625D01*
X160407738Y-62859307D01*
X160150448Y-62971063D01*
X159910772Y-63116813D01*
X159693169Y-63293846D01*
X159501707Y-63498852D01*
X159501707Y-63498853D01*
X159339934Y-63728030D01*
X159210878Y-63977098D01*
X159116941Y-64241410D01*
X159116936Y-64241427D01*
X159059867Y-64516062D01*
X159059866Y-64516064D01*
X159040724Y-64795927D01*
X144800500Y-64795927D01*
X144800500Y-62624500D01*
X144820185Y-62557461D01*
X144872989Y-62511706D01*
X144924500Y-62500500D01*
X156268996Y-62500500D01*
X156360040Y-62482389D01*
X156404328Y-62473580D01*
X156468069Y-62447177D01*
X156531807Y-62420777D01*
X156531808Y-62420776D01*
X156531811Y-62420775D01*
X156646543Y-62344114D01*
X159044114Y-59946543D01*
X159120775Y-59831811D01*
X159173580Y-59704329D01*
X159173580Y-59704325D01*
X159173582Y-59704322D01*
X159178934Y-59677411D01*
X159178934Y-59677409D01*
X159200500Y-59568993D01*
X159200500Y-46231007D01*
X159200500Y-46231004D01*
X159173581Y-46095677D01*
X159173580Y-46095676D01*
X159173580Y-46095672D01*
X159173578Y-46095667D01*
X159120777Y-45968192D01*
X159044112Y-45853454D01*
X157946545Y-44755887D01*
X157831807Y-44679222D01*
X157704332Y-44626421D01*
X157704322Y-44626418D01*
X157568996Y-44599500D01*
X157568994Y-44599500D01*
X157431006Y-44599500D01*
X157431004Y-44599500D01*
X157295677Y-44626418D01*
X157295667Y-44626421D01*
X157168192Y-44679222D01*
X157053454Y-44755887D01*
X156955887Y-44853454D01*
X156879222Y-44968192D01*
X156826421Y-45095667D01*
X156826418Y-45095677D01*
X156799500Y-45231003D01*
X156799500Y-45231006D01*
X156799500Y-45368994D01*
X156799500Y-45368996D01*
X156799499Y-45368996D01*
X156826418Y-45504322D01*
X156826421Y-45504332D01*
X156879222Y-45631807D01*
X156955887Y-45746545D01*
X156955888Y-45746546D01*
X157763181Y-46553838D01*
X157796666Y-46615161D01*
X157799500Y-46641519D01*
X157799500Y-52376000D01*
X157779815Y-52443039D01*
X157727011Y-52488794D01*
X157675500Y-52500000D01*
X139500000Y-52500000D01*
X139500000Y-57875667D01*
X139480315Y-57942706D01*
X139427511Y-57988461D01*
X139358353Y-57998405D01*
X139294797Y-57969380D01*
X139288319Y-57963348D01*
X136061051Y-54736080D01*
X136027566Y-54674757D01*
X136025793Y-54632215D01*
X136030035Y-54600000D01*
X136011974Y-54462817D01*
X135959024Y-54334983D01*
X135874791Y-54225209D01*
X135874789Y-54225208D01*
X135874789Y-54225207D01*
X135765015Y-54140974D01*
X135637186Y-54088027D01*
X135637184Y-54088026D01*
X135637183Y-54088026D01*
X135545727Y-54075985D01*
X135500001Y-54069965D01*
X135499999Y-54069965D01*
X135431408Y-54078995D01*
X135362817Y-54088026D01*
X135362816Y-54088026D01*
X135362813Y-54088027D01*
X135234985Y-54140974D01*
X135125209Y-54225209D01*
X135040974Y-54334985D01*
X134988027Y-54462813D01*
X134988026Y-54462818D01*
X134969965Y-54599999D01*
X134969965Y-54600000D01*
X134988026Y-54737181D01*
X134988027Y-54737186D01*
X135040974Y-54865015D01*
X135040975Y-54865017D01*
X135040976Y-54865018D01*
X135125209Y-54974791D01*
X135234982Y-55059024D01*
X135362817Y-55111974D01*
X135500000Y-55130035D01*
X135532213Y-55125793D01*
X135601245Y-55136557D01*
X135636080Y-55161051D01*
X139463681Y-58988652D01*
X139497166Y-59049975D01*
X139500000Y-59076333D01*
X139500000Y-59500000D01*
X139923667Y-59500000D01*
X139990706Y-59519685D01*
X140011348Y-59536319D01*
X141763181Y-61288152D01*
X141796666Y-61349475D01*
X141799500Y-61375833D01*
X141799500Y-63907053D01*
X141779815Y-63974092D01*
X141750987Y-64005429D01*
X141725210Y-64025207D01*
X141640974Y-64134985D01*
X141588027Y-64262813D01*
X141588026Y-64262816D01*
X141588026Y-64262817D01*
X141569965Y-64400000D01*
X141585245Y-64516062D01*
X141588026Y-64537181D01*
X141588027Y-64537186D01*
X141640974Y-64665015D01*
X141640975Y-64665017D01*
X141640976Y-64665018D01*
X141725209Y-64774791D01*
X141834982Y-64859024D01*
X141962817Y-64911974D01*
X142085702Y-64928152D01*
X142099999Y-64930035D01*
X142100000Y-64930035D01*
X142100001Y-64930035D01*
X142112947Y-64928330D01*
X142237183Y-64911974D01*
X142365018Y-64859024D01*
X142474791Y-64774791D01*
X142559024Y-64665018D01*
X142611974Y-64537183D01*
X142630035Y-64400000D01*
X142611974Y-64262817D01*
X142559024Y-64134983D01*
X142474791Y-64025209D01*
X142449010Y-64005426D01*
X142407810Y-63948998D01*
X142400500Y-63907053D01*
X142400500Y-61160440D01*
X142400499Y-61160436D01*
X142391385Y-61126420D01*
X142380022Y-61084012D01*
X142340460Y-61015489D01*
X141036652Y-59711681D01*
X141003167Y-59650358D01*
X141008151Y-59580666D01*
X141050023Y-59524733D01*
X141115487Y-59500316D01*
X141124333Y-59500000D01*
X157209981Y-59500000D01*
X157277020Y-59519685D01*
X157322775Y-59572489D01*
X157332719Y-59641647D01*
X157303694Y-59705203D01*
X157297662Y-59711681D01*
X155946162Y-61063181D01*
X155884839Y-61096666D01*
X155858481Y-61099500D01*
X143914941Y-61099500D01*
X143850501Y-61115382D01*
X143845023Y-61116602D01*
X143795671Y-61126420D01*
X143789565Y-61128949D01*
X143771797Y-61134781D01*
X143749775Y-61140209D01*
X143707561Y-61162365D01*
X143697393Y-61167127D01*
X143668192Y-61179223D01*
X143668186Y-61179226D01*
X143647090Y-61193321D01*
X143635834Y-61200010D01*
X143599149Y-61219264D01*
X143577493Y-61238450D01*
X143564165Y-61248730D01*
X143553462Y-61255882D01*
X143553456Y-61255887D01*
X143522279Y-61287062D01*
X143516830Y-61292190D01*
X143471820Y-61332067D01*
X143471815Y-61332072D01*
X143466054Y-61340418D01*
X143459386Y-61348452D01*
X143459748Y-61348749D01*
X143455890Y-61353450D01*
X143420982Y-61405692D01*
X143419931Y-61407239D01*
X143375183Y-61472068D01*
X143375181Y-61472071D01*
X143349436Y-61539953D01*
X143348058Y-61543428D01*
X143326419Y-61595673D01*
X143326418Y-61595678D01*
X143326353Y-61596006D01*
X143320680Y-61615781D01*
X143314859Y-61631129D01*
X143308361Y-61684643D01*
X143306883Y-61693882D01*
X143299500Y-61731004D01*
X143299500Y-61750125D01*
X143298596Y-61765071D01*
X143294355Y-61799999D01*
X143298596Y-61834926D01*
X143299500Y-61849873D01*
X143299500Y-61868998D01*
X143306883Y-61906120D01*
X143308361Y-61915358D01*
X143314859Y-61968870D01*
X143314860Y-61968871D01*
X143320678Y-61984212D01*
X143326354Y-62003995D01*
X143326420Y-62004327D01*
X143326420Y-62004329D01*
X143348046Y-62056538D01*
X143349424Y-62060012D01*
X143375182Y-62127930D01*
X143377549Y-62131360D01*
X143378509Y-62134269D01*
X143378668Y-62134572D01*
X143378617Y-62134598D01*
X143399433Y-62197713D01*
X143399500Y-62201800D01*
X143399500Y-65575500D01*
X143379815Y-65642539D01*
X143327011Y-65688294D01*
X143275500Y-65699500D01*
X129931004Y-65699500D01*
X129795677Y-65726418D01*
X129795667Y-65726421D01*
X129668192Y-65779222D01*
X129553454Y-65855887D01*
X127953887Y-67455454D01*
X127877222Y-67570192D01*
X127824421Y-67697667D01*
X127824418Y-67697677D01*
X127797500Y-67833004D01*
X127797500Y-68291995D01*
X127777815Y-68359034D01*
X127769353Y-68370660D01*
X127693839Y-68462674D01*
X127693834Y-68462681D01*
X127607858Y-68623532D01*
X127558896Y-68673376D01*
X127490758Y-68688837D01*
X127425079Y-68665005D01*
X127389142Y-68623532D01*
X127303165Y-68462681D01*
X127303161Y-68462674D01*
X127182883Y-68316116D01*
X127036325Y-68195838D01*
X127036318Y-68195834D01*
X126869122Y-68106466D01*
X126869119Y-68106465D01*
X126869118Y-68106464D01*
X126869115Y-68106463D01*
X126687683Y-68051427D01*
X126687681Y-68051426D01*
X126687683Y-68051426D01*
X126499000Y-68032843D01*
X126310318Y-68051426D01*
X126203194Y-68083921D01*
X126128885Y-68106463D01*
X126128882Y-68106464D01*
X126128880Y-68106465D01*
X126128877Y-68106466D01*
X125961681Y-68195834D01*
X125961674Y-68195838D01*
X125815116Y-68316116D01*
X125694838Y-68462674D01*
X125694834Y-68462681D01*
X125608858Y-68623532D01*
X125559896Y-68673376D01*
X125491758Y-68688837D01*
X125426079Y-68665005D01*
X125390142Y-68623532D01*
X125304165Y-68462681D01*
X125304161Y-68462674D01*
X125183883Y-68316116D01*
X125037325Y-68195838D01*
X125037318Y-68195834D01*
X124870122Y-68106466D01*
X124870119Y-68106465D01*
X124870118Y-68106464D01*
X124870115Y-68106463D01*
X124688683Y-68051427D01*
X124688681Y-68051426D01*
X124688683Y-68051426D01*
X124500000Y-68032843D01*
X124311318Y-68051426D01*
X124204194Y-68083921D01*
X124129885Y-68106463D01*
X124129882Y-68106464D01*
X124129880Y-68106465D01*
X124129877Y-68106466D01*
X123962681Y-68195834D01*
X123962674Y-68195838D01*
X123816116Y-68316116D01*
X123695838Y-68462674D01*
X123695834Y-68462681D01*
X123608608Y-68625870D01*
X123559646Y-68675715D01*
X123491508Y-68691175D01*
X123425828Y-68667343D01*
X123389892Y-68625870D01*
X123302665Y-68462681D01*
X123302661Y-68462674D01*
X123182383Y-68316116D01*
X123035825Y-68195838D01*
X123035818Y-68195834D01*
X122868622Y-68106466D01*
X122868619Y-68106465D01*
X122868618Y-68106464D01*
X122868615Y-68106463D01*
X122687183Y-68051427D01*
X122687181Y-68051426D01*
X122687183Y-68051426D01*
X122498500Y-68032843D01*
X122309818Y-68051426D01*
X122202694Y-68083921D01*
X122128385Y-68106463D01*
X122128382Y-68106464D01*
X122128380Y-68106465D01*
X122128377Y-68106466D01*
X121961181Y-68195834D01*
X121961174Y-68195838D01*
X121814616Y-68316116D01*
X121694338Y-68462674D01*
X121694334Y-68462681D01*
X121604966Y-68629877D01*
X121604965Y-68629880D01*
X121604964Y-68629882D01*
X121604963Y-68629885D01*
X121591061Y-68675715D01*
X121549926Y-68811318D01*
X121531343Y-69000000D01*
X121549926Y-69188681D01*
X121549927Y-69188683D01*
X121604963Y-69370115D01*
X121604964Y-69370118D01*
X121604965Y-69370119D01*
X121604966Y-69370122D01*
X121694334Y-69537318D01*
X121694338Y-69537325D01*
X121814616Y-69683883D01*
X121961174Y-69804161D01*
X121961181Y-69804165D01*
X122122032Y-69890142D01*
X122171876Y-69939104D01*
X122187337Y-70007242D01*
X122163505Y-70072921D01*
X122122032Y-70108858D01*
X121961181Y-70194834D01*
X121961174Y-70194838D01*
X121814616Y-70315116D01*
X121694338Y-70461674D01*
X121694334Y-70461681D01*
X121604966Y-70628877D01*
X121604965Y-70628880D01*
X121604964Y-70628882D01*
X121604963Y-70628885D01*
X121591061Y-70674715D01*
X121549926Y-70810318D01*
X121531343Y-70999000D01*
X121549926Y-71187681D01*
X121549927Y-71187683D01*
X121604963Y-71369115D01*
X121604964Y-71369118D01*
X121604965Y-71369119D01*
X121604966Y-71369122D01*
X121694334Y-71536318D01*
X121694338Y-71536325D01*
X121814616Y-71682883D01*
X121961174Y-71803161D01*
X121961181Y-71803165D01*
X122128377Y-71892533D01*
X122128378Y-71892533D01*
X122128385Y-71892537D01*
X122309817Y-71947573D01*
X122309816Y-71947573D01*
X122326733Y-71949239D01*
X122498500Y-71966157D01*
X122687183Y-71947573D01*
X122868615Y-71892537D01*
X123035824Y-71803162D01*
X123182383Y-71682883D01*
X123302662Y-71536324D01*
X123388642Y-71375467D01*
X123389892Y-71373129D01*
X123438854Y-71323285D01*
X123506992Y-71307824D01*
X123572671Y-71331655D01*
X123608608Y-71373129D01*
X123695834Y-71536318D01*
X123695838Y-71536325D01*
X123816116Y-71682883D01*
X123962674Y-71803161D01*
X123962681Y-71803165D01*
X124129877Y-71892533D01*
X124129878Y-71892533D01*
X124129885Y-71892537D01*
X124311317Y-71947573D01*
X124311316Y-71947573D01*
X124328233Y-71949239D01*
X124500000Y-71966157D01*
X124688683Y-71947573D01*
X124870115Y-71892537D01*
X125037324Y-71803162D01*
X125183883Y-71682883D01*
X125304162Y-71536324D01*
X125390142Y-71375467D01*
X125439104Y-71325623D01*
X125507241Y-71310162D01*
X125572921Y-71333993D01*
X125608858Y-71375467D01*
X125694834Y-71536318D01*
X125694838Y-71536325D01*
X125815116Y-71682883D01*
X125961674Y-71803161D01*
X125961681Y-71803165D01*
X126128877Y-71892533D01*
X126128878Y-71892533D01*
X126128885Y-71892537D01*
X126310317Y-71947573D01*
X126310316Y-71947573D01*
X126327233Y-71949239D01*
X126499000Y-71966157D01*
X126687683Y-71947573D01*
X126869115Y-71892537D01*
X127036324Y-71803162D01*
X127182883Y-71682883D01*
X127303162Y-71536324D01*
X127389142Y-71375467D01*
X127438104Y-71325623D01*
X127506241Y-71310162D01*
X127571921Y-71333993D01*
X127607858Y-71375467D01*
X127693834Y-71536318D01*
X127693838Y-71536325D01*
X127814116Y-71682883D01*
X127960674Y-71803161D01*
X127960681Y-71803165D01*
X128127877Y-71892533D01*
X128127878Y-71892533D01*
X128127885Y-71892537D01*
X128309317Y-71947573D01*
X128309316Y-71947573D01*
X128326233Y-71949239D01*
X128498000Y-71966157D01*
X128686683Y-71947573D01*
X128868115Y-71892537D01*
X129035324Y-71803162D01*
X129181883Y-71682883D01*
X129302162Y-71536324D01*
X129391537Y-71369115D01*
X129446573Y-71187683D01*
X129465157Y-70999000D01*
X129446573Y-70810317D01*
X129391537Y-70628885D01*
X129389391Y-70624870D01*
X129302165Y-70461681D01*
X129302163Y-70461679D01*
X129302162Y-70461676D01*
X129280401Y-70435160D01*
X129226647Y-70369660D01*
X129199334Y-70305350D01*
X129198500Y-70290995D01*
X129198500Y-69708003D01*
X129218185Y-69640964D01*
X129226639Y-69629347D01*
X129302162Y-69537324D01*
X129391537Y-69370115D01*
X129446573Y-69188683D01*
X129465157Y-69000000D01*
X129446573Y-68811317D01*
X129391537Y-68629885D01*
X129389391Y-68625870D01*
X129302165Y-68462681D01*
X129302163Y-68462679D01*
X129302162Y-68462676D01*
X129280401Y-68436160D01*
X129226647Y-68370660D01*
X129199334Y-68306350D01*
X129198500Y-68291995D01*
X129198500Y-68243519D01*
X129218185Y-68176480D01*
X129234819Y-68155838D01*
X130253838Y-67136819D01*
X130315161Y-67103334D01*
X130341519Y-67100500D01*
X143275500Y-67100500D01*
X143342539Y-67120185D01*
X143388294Y-67172989D01*
X143399500Y-67224500D01*
X143399500Y-73075500D01*
X143379815Y-73142539D01*
X143327011Y-73188294D01*
X143275500Y-73199500D01*
X139231004Y-73199500D01*
X139095677Y-73226418D01*
X139095667Y-73226421D01*
X138968192Y-73279222D01*
X138853454Y-73355887D01*
X137122290Y-75087051D01*
X137116838Y-75092183D01*
X137071820Y-75132067D01*
X137071815Y-75132072D01*
X137066054Y-75140418D01*
X137059386Y-75148452D01*
X137059748Y-75148749D01*
X137055890Y-75153450D01*
X137020982Y-75205692D01*
X137019931Y-75207239D01*
X136975183Y-75272068D01*
X136975181Y-75272071D01*
X136949436Y-75339953D01*
X136948058Y-75343428D01*
X136926419Y-75395673D01*
X136926418Y-75395678D01*
X136926353Y-75396006D01*
X136920680Y-75415781D01*
X136914859Y-75431129D01*
X136908361Y-75484643D01*
X136906883Y-75493882D01*
X136899500Y-75531004D01*
X136899500Y-75550125D01*
X136898596Y-75565071D01*
X136894355Y-75599999D01*
X136898596Y-75634926D01*
X136899500Y-75649873D01*
X136899500Y-75668998D01*
X136906883Y-75706120D01*
X136908361Y-75715358D01*
X136914859Y-75768870D01*
X136914860Y-75768871D01*
X136920678Y-75784212D01*
X136926354Y-75803995D01*
X136926420Y-75804327D01*
X136926420Y-75804329D01*
X136948046Y-75856538D01*
X136949427Y-75860019D01*
X136975182Y-75927930D01*
X136975183Y-75927931D01*
X137019972Y-75992820D01*
X137021024Y-75994369D01*
X137055885Y-76046542D01*
X137059751Y-76051253D01*
X137059371Y-76051564D01*
X137066061Y-76059591D01*
X137071812Y-76067923D01*
X137071815Y-76067927D01*
X137071816Y-76067928D01*
X137071821Y-76067933D01*
X137097337Y-76090538D01*
X137112896Y-76104322D01*
X137116827Y-76107804D01*
X137122283Y-76112940D01*
X137153452Y-76144110D01*
X137153455Y-76144112D01*
X137153457Y-76144114D01*
X137157439Y-76146775D01*
X137164160Y-76151266D01*
X137177491Y-76161549D01*
X137199143Y-76180730D01*
X137199151Y-76180736D01*
X137235835Y-76199990D01*
X137247096Y-76206682D01*
X137268180Y-76220769D01*
X137268189Y-76220775D01*
X137268195Y-76220777D01*
X137268196Y-76220778D01*
X137297389Y-76232870D01*
X137307559Y-76237633D01*
X137322093Y-76245261D01*
X137349772Y-76259789D01*
X137349774Y-76259789D01*
X137349775Y-76259790D01*
X137363457Y-76263162D01*
X137371791Y-76265216D01*
X137389571Y-76271052D01*
X137395672Y-76273580D01*
X137445037Y-76283399D01*
X137450463Y-76284607D01*
X137514944Y-76300500D01*
X137685058Y-76300500D01*
X137685058Y-76300499D01*
X137749522Y-76284610D01*
X137754960Y-76283399D01*
X137804328Y-76273580D01*
X137810429Y-76271052D01*
X137828212Y-76265215D01*
X137850217Y-76259792D01*
X137850217Y-76259791D01*
X137850225Y-76259790D01*
X137892449Y-76237628D01*
X137902610Y-76232870D01*
X137931811Y-76220775D01*
X137952913Y-76206674D01*
X137964166Y-76199988D01*
X138000852Y-76180734D01*
X138022510Y-76161545D01*
X138035833Y-76151269D01*
X138046543Y-76144114D01*
X138077738Y-76112917D01*
X138083141Y-76107831D01*
X138128183Y-76067929D01*
X138133943Y-76059582D01*
X138148302Y-76042353D01*
X139553838Y-74636819D01*
X139615161Y-74603334D01*
X139641519Y-74600500D01*
X143275500Y-74600500D01*
X143342539Y-74620185D01*
X143388294Y-74672989D01*
X143399500Y-74724500D01*
X143399500Y-75558481D01*
X143379815Y-75625520D01*
X143363181Y-75646162D01*
X139196162Y-79813181D01*
X139134839Y-79846666D01*
X139108481Y-79849500D01*
X138886965Y-79849500D01*
X138819926Y-79829815D01*
X138774171Y-79777011D01*
X138764227Y-79707853D01*
X138793252Y-79644297D01*
X138799284Y-79637819D01*
X139588930Y-78848173D01*
X141999165Y-76437936D01*
X142039387Y-76411060D01*
X142165018Y-76359024D01*
X142274791Y-76274791D01*
X142359024Y-76165018D01*
X142411974Y-76037183D01*
X142430035Y-75900000D01*
X142411974Y-75762817D01*
X142363761Y-75646420D01*
X142359025Y-75634985D01*
X142359024Y-75634984D01*
X142359024Y-75634983D01*
X142274791Y-75525209D01*
X142274789Y-75525208D01*
X142274789Y-75525207D01*
X142165015Y-75440974D01*
X142037186Y-75388027D01*
X142037184Y-75388026D01*
X142037183Y-75388026D01*
X141945727Y-75375985D01*
X141900001Y-75369965D01*
X141899999Y-75369965D01*
X141831408Y-75378995D01*
X141762817Y-75388026D01*
X141762816Y-75388026D01*
X141762813Y-75388027D01*
X141634985Y-75440974D01*
X141525209Y-75525209D01*
X141440975Y-75634984D01*
X141388941Y-75760606D01*
X141362061Y-75800834D01*
X138049716Y-79113181D01*
X137988393Y-79146666D01*
X137962035Y-79149500D01*
X137686965Y-79149500D01*
X137619926Y-79129815D01*
X137574171Y-79077011D01*
X137564227Y-79007853D01*
X137593252Y-78944297D01*
X137599284Y-78937819D01*
X138194443Y-78342660D01*
X138999167Y-77537935D01*
X139039389Y-77511060D01*
X139165018Y-77459024D01*
X139274791Y-77374791D01*
X139359024Y-77265018D01*
X139411974Y-77137183D01*
X139430035Y-77000000D01*
X139411974Y-76862817D01*
X139365243Y-76749998D01*
X139359025Y-76734985D01*
X139359024Y-76734984D01*
X139359024Y-76734983D01*
X139274791Y-76625209D01*
X139274789Y-76625208D01*
X139274789Y-76625207D01*
X139192642Y-76562173D01*
X139165018Y-76540976D01*
X139165017Y-76540975D01*
X139165015Y-76540974D01*
X139037186Y-76488027D01*
X139037184Y-76488026D01*
X139037183Y-76488026D01*
X138934461Y-76474502D01*
X138900001Y-76469965D01*
X138899999Y-76469965D01*
X138849391Y-76476628D01*
X138762817Y-76488026D01*
X138762816Y-76488026D01*
X138762813Y-76488027D01*
X138634985Y-76540974D01*
X138525209Y-76625209D01*
X138440975Y-76734984D01*
X138388942Y-76860604D01*
X138362062Y-76900832D01*
X136849716Y-78413181D01*
X136788393Y-78446666D01*
X136762035Y-78449500D01*
X95035706Y-78449500D01*
X94921129Y-78480201D01*
X94921127Y-78480201D01*
X94921127Y-78480202D01*
X94897816Y-78493661D01*
X94897815Y-78493661D01*
X94818404Y-78539508D01*
X94818399Y-78539512D01*
X91114336Y-82243574D01*
X91053013Y-82277059D01*
X90983321Y-82272075D01*
X90927388Y-82230203D01*
X90912096Y-82203350D01*
X90905524Y-82187482D01*
X90821291Y-82077708D01*
X90821289Y-82077707D01*
X90821289Y-82077706D01*
X90711515Y-81993473D01*
X90583686Y-81940526D01*
X90583684Y-81940525D01*
X90583683Y-81940525D01*
X90492227Y-81928484D01*
X90446501Y-81922464D01*
X90446499Y-81922464D01*
X90393270Y-81929472D01*
X90309317Y-81940525D01*
X90309316Y-81940525D01*
X90309313Y-81940526D01*
X90181485Y-81993473D01*
X90071705Y-82077711D01*
X90056112Y-82098032D01*
X89999683Y-82139233D01*
X89956361Y-82146534D01*
X85996988Y-82102541D01*
X85989364Y-82101999D01*
X85986062Y-82101999D01*
X85948828Y-82101999D01*
X85947450Y-82101991D01*
X85947181Y-82101988D01*
X85910148Y-82101575D01*
X85909313Y-82101686D01*
X85907955Y-82101858D01*
X85907065Y-82101965D01*
X85870975Y-82111634D01*
X85869651Y-82111981D01*
X85833500Y-82121239D01*
X85832717Y-82121564D01*
X85831451Y-82122080D01*
X85830633Y-82122407D01*
X85798269Y-82141092D01*
X85797079Y-82141770D01*
X85764546Y-82160075D01*
X85763835Y-82160621D01*
X85762742Y-82161450D01*
X85762084Y-82161943D01*
X85735610Y-82188415D01*
X85734637Y-82189378D01*
X85705746Y-82217634D01*
X85700679Y-82223347D01*
X85323348Y-82600680D01*
X85262025Y-82634165D01*
X85235667Y-82636999D01*
X85195772Y-82636999D01*
X85128733Y-82617314D01*
X85085288Y-82569295D01*
X85064107Y-82527728D01*
X85049550Y-82499157D01*
X85049547Y-82499154D01*
X85049545Y-82499151D01*
X84959847Y-82409453D01*
X84959844Y-82409451D01*
X84959842Y-82409449D01*
X84883017Y-82370304D01*
X84846801Y-82351851D01*
X84753024Y-82336999D01*
X84139982Y-82336999D01*
X84059019Y-82349822D01*
X84046196Y-82351853D01*
X83933158Y-82409449D01*
X83933157Y-82409450D01*
X83933152Y-82409453D01*
X83843454Y-82499151D01*
X83843451Y-82499156D01*
X83843450Y-82499157D01*
X83824251Y-82536836D01*
X83785852Y-82612197D01*
X83771000Y-82705974D01*
X83771000Y-83169016D01*
X83781004Y-83232177D01*
X83785854Y-83262803D01*
X83843450Y-83375841D01*
X83843452Y-83375843D01*
X83843454Y-83375846D01*
X83933152Y-83465544D01*
X83933154Y-83465545D01*
X83933158Y-83465549D01*
X84004725Y-83502014D01*
X84055521Y-83549989D01*
X84072316Y-83617810D01*
X84049778Y-83683945D01*
X84004726Y-83722983D01*
X83933158Y-83759449D01*
X83933157Y-83759450D01*
X83933152Y-83759453D01*
X83843454Y-83849151D01*
X83843451Y-83849156D01*
X83843450Y-83849157D01*
X83828916Y-83877682D01*
X83785852Y-83962197D01*
X83771000Y-84055974D01*
X83771000Y-84519016D01*
X82500500Y-84519016D01*
X82500500Y-80818922D01*
X87283687Y-80818922D01*
X87284705Y-80851001D01*
X87314169Y-80991805D01*
X87314174Y-80991830D01*
X87352779Y-81097894D01*
X87352787Y-81097915D01*
X87364696Y-81127663D01*
X87364699Y-81127670D01*
X87440554Y-81249924D01*
X87440555Y-81249925D01*
X87440557Y-81249928D01*
X87471512Y-81286819D01*
X87513108Y-81336391D01*
X87534490Y-81360291D01*
X87534491Y-81360292D01*
X87534495Y-81360296D01*
X87647592Y-81449238D01*
X87745341Y-81505674D01*
X87745343Y-81505675D01*
X87745352Y-81505680D01*
X87773619Y-81520825D01*
X87839151Y-81542347D01*
X87910314Y-81565719D01*
X88021471Y-81585319D01*
X88053221Y-81589884D01*
X88197029Y-81585319D01*
X88308186Y-81565719D01*
X88339585Y-81559149D01*
X88473159Y-81505674D01*
X88570908Y-81449238D01*
X88598162Y-81432327D01*
X88705391Y-81336392D01*
X88777943Y-81249928D01*
X88797770Y-81224717D01*
X88865721Y-81097894D01*
X88904326Y-80991830D01*
X88914337Y-80961351D01*
X88934813Y-80818935D01*
X88934813Y-80706063D01*
X88933795Y-80673999D01*
X88904326Y-80533168D01*
X88865721Y-80427104D01*
X88853801Y-80397328D01*
X88777943Y-80275070D01*
X88705391Y-80188606D01*
X88684005Y-80164702D01*
X88570908Y-80075760D01*
X88473159Y-80019324D01*
X88473157Y-80019323D01*
X88473147Y-80019317D01*
X88444880Y-80004172D01*
X88308193Y-79959281D01*
X88308183Y-79959278D01*
X88197026Y-79939678D01*
X88165282Y-79935114D01*
X88165279Y-79935114D01*
X88093375Y-79937396D01*
X88021468Y-79939679D01*
X87910316Y-79959278D01*
X87878915Y-79965848D01*
X87745344Y-80019322D01*
X87745341Y-80019323D01*
X87647609Y-80075749D01*
X87620335Y-80092673D01*
X87513109Y-80188604D01*
X87440557Y-80275069D01*
X87420728Y-80300282D01*
X87352779Y-80427103D01*
X87352778Y-80427105D01*
X87314165Y-80533192D01*
X87304164Y-80563640D01*
X87304163Y-80563647D01*
X87288298Y-80673996D01*
X87283687Y-80706064D01*
X87283687Y-80818922D01*
X82500500Y-80818922D01*
X82500500Y-79800000D01*
X83500000Y-79800000D01*
X86600000Y-79700000D01*
X89633374Y-76425511D01*
X89633374Y-76452450D01*
X89634435Y-76460511D01*
X89634363Y-76460520D01*
X89635286Y-76466505D01*
X89635357Y-76466493D01*
X89636774Y-76474502D01*
X89652459Y-76524153D01*
X89653993Y-76529408D01*
X89667482Y-76579747D01*
X89670592Y-76587254D01*
X89670525Y-76587281D01*
X89672967Y-76592827D01*
X89673032Y-76592797D01*
X89676470Y-76600159D01*
X89676472Y-76600162D01*
X89695001Y-76629212D01*
X89704495Y-76644095D01*
X89707320Y-76648748D01*
X89726309Y-76681638D01*
X89733376Y-76693878D01*
X89738323Y-76700325D01*
X89738265Y-76700369D01*
X89742057Y-76705090D01*
X89742113Y-76705044D01*
X89747338Y-76711264D01*
X89785782Y-76746452D01*
X89789733Y-76750233D01*
X89826560Y-76787060D01*
X89826562Y-76787061D01*
X89833011Y-76792010D01*
X89832966Y-76792068D01*
X89837849Y-76795647D01*
X89837892Y-76795587D01*
X89844554Y-76800246D01*
X89890781Y-76824277D01*
X89895588Y-76826913D01*
X89940688Y-76852952D01*
X89940693Y-76852953D01*
X89948203Y-76856065D01*
X89948174Y-76856133D01*
X89953811Y-76858323D01*
X89953837Y-76858254D01*
X89961479Y-76861030D01*
X89961482Y-76861032D01*
X90012317Y-76872271D01*
X90012331Y-76872274D01*
X90017655Y-76873575D01*
X90037316Y-76878842D01*
X90067982Y-76887060D01*
X90067989Y-76887060D01*
X90076041Y-76888121D01*
X90076031Y-76888192D01*
X90082057Y-76888851D01*
X90082064Y-76888778D01*
X90090149Y-76889480D01*
X90090158Y-76889482D01*
X90142192Y-76887181D01*
X90147670Y-76887060D01*
X107065890Y-76887060D01*
X107065892Y-76887060D01*
X107193186Y-76852952D01*
X107307314Y-76787060D01*
X108803829Y-75290545D01*
X110354076Y-75290545D01*
X110373218Y-75570407D01*
X110373219Y-75570409D01*
X110430288Y-75845044D01*
X110430293Y-75845061D01*
X110524230Y-76109373D01*
X110524231Y-76109375D01*
X110653286Y-76358441D01*
X110815055Y-76587614D01*
X110815059Y-76587618D01*
X110815059Y-76587619D01*
X110965104Y-76748278D01*
X111006522Y-76792626D01*
X111224121Y-76969656D01*
X111224123Y-76969657D01*
X111224124Y-76969658D01*
X111463800Y-77115408D01*
X111672624Y-77206112D01*
X111721092Y-77227165D01*
X111991206Y-77302848D01*
X112235526Y-77336429D01*
X112269108Y-77341045D01*
X112269109Y-77341045D01*
X112549626Y-77341045D01*
X112579586Y-77336926D01*
X112827528Y-77302848D01*
X113097642Y-77227165D01*
X113354935Y-77115407D01*
X113594613Y-76969656D01*
X113812212Y-76792626D01*
X114003679Y-76587614D01*
X114165448Y-76358441D01*
X114294503Y-76109375D01*
X114388442Y-75845056D01*
X114388443Y-75845049D01*
X114388445Y-75845044D01*
X114427595Y-75656640D01*
X114445515Y-75570407D01*
X114464658Y-75290545D01*
X114461885Y-75250000D01*
X117219965Y-75250000D01*
X117232265Y-75343428D01*
X117238026Y-75387181D01*
X117238027Y-75387186D01*
X117290974Y-75515015D01*
X117290975Y-75515017D01*
X117290976Y-75515018D01*
X117375209Y-75624791D01*
X117484982Y-75709024D01*
X117612817Y-75761974D01*
X117724654Y-75776698D01*
X117749999Y-75780035D01*
X117750000Y-75780035D01*
X117750001Y-75780035D01*
X117762947Y-75778330D01*
X117887183Y-75761974D01*
X118015018Y-75709024D01*
X118124791Y-75624791D01*
X118209024Y-75515018D01*
X118261974Y-75387183D01*
X118280035Y-75250000D01*
X118261974Y-75112817D01*
X118220203Y-75011972D01*
X118209025Y-74984984D01*
X118209023Y-74984982D01*
X118130347Y-74882449D01*
X118105153Y-74817283D01*
X118119191Y-74748838D01*
X118141039Y-74719287D01*
X119195162Y-73665163D01*
X119256483Y-73631680D01*
X119291872Y-73630205D01*
X119291872Y-73630035D01*
X119295956Y-73630035D01*
X119299027Y-73629907D01*
X119299999Y-73630035D01*
X119300000Y-73630035D01*
X119300001Y-73630035D01*
X119312947Y-73628330D01*
X119437183Y-73611974D01*
X119565018Y-73559024D01*
X119674791Y-73474791D01*
X119759024Y-73365018D01*
X119806665Y-73250000D01*
X120344965Y-73250000D01*
X120360107Y-73365015D01*
X120363026Y-73387181D01*
X120363027Y-73387186D01*
X120415974Y-73515015D01*
X120415975Y-73515016D01*
X120415976Y-73515018D01*
X120500209Y-73624791D01*
X120609982Y-73709024D01*
X120737817Y-73761974D01*
X120860702Y-73778152D01*
X120874999Y-73780035D01*
X120875000Y-73780035D01*
X120875001Y-73780035D01*
X120887947Y-73778330D01*
X121012183Y-73761974D01*
X121140018Y-73709024D01*
X121249791Y-73624791D01*
X121334024Y-73515018D01*
X121339395Y-73502048D01*
X121383234Y-73447646D01*
X121449528Y-73425579D01*
X121453957Y-73425500D01*
X124914560Y-73425500D01*
X124914562Y-73425500D01*
X124990989Y-73405021D01*
X125059511Y-73365460D01*
X125115460Y-73309511D01*
X125288152Y-73136819D01*
X125349475Y-73103334D01*
X125375833Y-73100500D01*
X130124167Y-73100500D01*
X130191206Y-73120185D01*
X130211848Y-73136819D01*
X131438948Y-74363919D01*
X131472433Y-74425242D01*
X131474206Y-74467785D01*
X131469965Y-74499998D01*
X131469965Y-74500000D01*
X131483196Y-74600500D01*
X131488026Y-74637181D01*
X131488027Y-74637186D01*
X131540974Y-74765015D01*
X131540975Y-74765017D01*
X131540976Y-74765018D01*
X131625209Y-74874791D01*
X131734982Y-74959024D01*
X131862817Y-75011974D01*
X131985702Y-75028152D01*
X131999999Y-75030035D01*
X132000000Y-75030035D01*
X132000001Y-75030035D01*
X132012947Y-75028330D01*
X132137183Y-75011974D01*
X132265018Y-74959024D01*
X132374791Y-74874791D01*
X132459024Y-74765018D01*
X132511974Y-74637183D01*
X132530035Y-74500000D01*
X132511974Y-74362817D01*
X132459024Y-74234983D01*
X132374791Y-74125209D01*
X132374789Y-74125208D01*
X132374789Y-74125207D01*
X132265015Y-74040974D01*
X132137186Y-73988027D01*
X132137184Y-73988026D01*
X132137183Y-73988026D01*
X132032213Y-73974206D01*
X132000001Y-73969965D01*
X131999999Y-73969965D01*
X131967786Y-73974206D01*
X131898750Y-73963441D01*
X131863919Y-73938948D01*
X130484512Y-72559541D01*
X130484504Y-72559535D01*
X130415995Y-72519982D01*
X130415990Y-72519979D01*
X130390513Y-72513152D01*
X130339562Y-72499500D01*
X125160438Y-72499500D01*
X125122224Y-72509739D01*
X125084009Y-72519979D01*
X125084004Y-72519982D01*
X125015495Y-72559535D01*
X125015487Y-72559541D01*
X124786848Y-72788181D01*
X124725525Y-72821666D01*
X124699167Y-72824500D01*
X121225800Y-72824500D01*
X121158761Y-72804815D01*
X121150315Y-72798877D01*
X121140017Y-72790975D01*
X121012186Y-72738027D01*
X121012184Y-72738026D01*
X121012183Y-72738026D01*
X120914816Y-72725207D01*
X120875001Y-72719965D01*
X120874999Y-72719965D01*
X120835184Y-72725207D01*
X120737817Y-72738026D01*
X120737816Y-72738026D01*
X120737813Y-72738027D01*
X120609985Y-72790974D01*
X120500209Y-72875209D01*
X120415974Y-72984985D01*
X120363027Y-73112813D01*
X120363026Y-73112816D01*
X120363026Y-73112817D01*
X120344965Y-73250000D01*
X119806665Y-73250000D01*
X119811974Y-73237183D01*
X119830035Y-73100000D01*
X119811974Y-72962817D01*
X119759024Y-72834983D01*
X119674791Y-72725209D01*
X119674789Y-72725208D01*
X119674789Y-72725207D01*
X119565015Y-72640974D01*
X119437186Y-72588027D01*
X119437184Y-72588026D01*
X119437183Y-72588026D01*
X119345727Y-72575985D01*
X119300001Y-72569965D01*
X119299999Y-72569965D01*
X119231408Y-72578995D01*
X119162817Y-72588026D01*
X119162816Y-72588026D01*
X119162813Y-72588027D01*
X119034985Y-72640974D01*
X118925209Y-72725209D01*
X118840974Y-72834985D01*
X118788027Y-72962813D01*
X118788026Y-72962816D01*
X118788026Y-72962817D01*
X118778995Y-73031408D01*
X118769965Y-73099999D01*
X118769965Y-73100001D01*
X118770094Y-73100982D01*
X118769965Y-73101808D01*
X118769965Y-73108126D01*
X118768979Y-73108126D01*
X118759322Y-73170016D01*
X118734834Y-73204837D01*
X117489537Y-74450135D01*
X117489533Y-74450141D01*
X117446681Y-74524361D01*
X117446682Y-74524362D01*
X117424500Y-74607147D01*
X117424500Y-74776236D01*
X117404815Y-74843275D01*
X117380838Y-74869337D01*
X117380959Y-74869458D01*
X117378077Y-74872340D01*
X117375989Y-74874610D01*
X117375212Y-74875206D01*
X117375210Y-74875207D01*
X117375209Y-74875209D01*
X117364689Y-74888919D01*
X117290974Y-74984985D01*
X117238027Y-75112813D01*
X117238026Y-75112816D01*
X117238026Y-75112817D01*
X117219965Y-75250000D01*
X114461885Y-75250000D01*
X114445515Y-75010683D01*
X114417363Y-74875209D01*
X114388445Y-74736045D01*
X114388440Y-74736028D01*
X114347269Y-74620185D01*
X114294503Y-74471715D01*
X114165448Y-74222649D01*
X114003679Y-73993476D01*
X114003674Y-73993470D01*
X113812212Y-73788464D01*
X113660657Y-73665165D01*
X113594613Y-73611434D01*
X113594611Y-73611433D01*
X113594609Y-73611431D01*
X113354933Y-73465681D01*
X113097643Y-73353925D01*
X112827533Y-73278243D01*
X112827529Y-73278242D01*
X112827528Y-73278242D01*
X112622046Y-73249999D01*
X112549626Y-73240045D01*
X112549625Y-73240045D01*
X112269109Y-73240045D01*
X112269108Y-73240045D01*
X111991206Y-73278242D01*
X111991200Y-73278243D01*
X111721090Y-73353925D01*
X111463800Y-73465681D01*
X111224124Y-73611431D01*
X111006521Y-73788464D01*
X110815059Y-73993470D01*
X110815059Y-73993471D01*
X110653286Y-74222648D01*
X110524230Y-74471716D01*
X110430293Y-74736028D01*
X110430288Y-74736045D01*
X110373219Y-75010680D01*
X110373218Y-75010682D01*
X110354076Y-75290545D01*
X108803829Y-75290545D01*
X119298447Y-64795927D01*
X120848693Y-64795927D01*
X120867835Y-65075789D01*
X120867836Y-65075791D01*
X120924905Y-65350426D01*
X120924910Y-65350443D01*
X120935059Y-65378998D01*
X121018848Y-65614757D01*
X121147903Y-65863823D01*
X121309672Y-66092996D01*
X121309676Y-66093000D01*
X121309676Y-66093001D01*
X121501138Y-66298007D01*
X121501139Y-66298008D01*
X121718738Y-66475038D01*
X121718740Y-66475039D01*
X121718741Y-66475040D01*
X121958417Y-66620790D01*
X122167241Y-66711494D01*
X122215709Y-66732547D01*
X122485823Y-66808230D01*
X122730143Y-66841811D01*
X122763725Y-66846427D01*
X122763726Y-66846427D01*
X123044243Y-66846427D01*
X123074203Y-66842308D01*
X123322145Y-66808230D01*
X123592259Y-66732547D01*
X123849552Y-66620789D01*
X124089230Y-66475038D01*
X124306829Y-66298008D01*
X124498296Y-66092996D01*
X124660065Y-65863823D01*
X124789120Y-65614757D01*
X124883059Y-65350438D01*
X124883060Y-65350431D01*
X124883062Y-65350426D01*
X124914829Y-65197553D01*
X124940132Y-65075789D01*
X124959275Y-64795927D01*
X124940132Y-64516065D01*
X124914829Y-64394301D01*
X124883062Y-64241427D01*
X124883057Y-64241410D01*
X124845233Y-64134983D01*
X124789120Y-63977097D01*
X124660065Y-63728031D01*
X124498296Y-63498858D01*
X124498291Y-63498852D01*
X124306829Y-63293846D01*
X124089226Y-63116813D01*
X123849550Y-62971063D01*
X123592260Y-62859307D01*
X123322150Y-62783625D01*
X123322146Y-62783624D01*
X123322145Y-62783624D01*
X123183193Y-62764525D01*
X123044243Y-62745427D01*
X123044242Y-62745427D01*
X122763726Y-62745427D01*
X122763725Y-62745427D01*
X122485823Y-62783624D01*
X122485817Y-62783625D01*
X122215707Y-62859307D01*
X121958417Y-62971063D01*
X121718741Y-63116813D01*
X121501138Y-63293846D01*
X121309676Y-63498852D01*
X121309676Y-63498853D01*
X121147903Y-63728030D01*
X121018847Y-63977098D01*
X120924910Y-64241410D01*
X120924905Y-64241427D01*
X120867836Y-64516062D01*
X120867835Y-64516064D01*
X120848693Y-64795927D01*
X119298447Y-64795927D01*
X124400500Y-59693874D01*
X124466392Y-59579746D01*
X124500500Y-59452452D01*
X124500500Y-59320667D01*
X124500500Y-40829142D01*
X127140823Y-40829142D01*
X127158884Y-40966323D01*
X127158885Y-40966328D01*
X127211832Y-41094157D01*
X127211833Y-41094159D01*
X127211834Y-41094160D01*
X127296067Y-41203933D01*
X127405840Y-41288166D01*
X127405841Y-41288166D01*
X127405842Y-41288167D01*
X127448451Y-41305816D01*
X127533675Y-41341116D01*
X127656560Y-41357294D01*
X127670857Y-41359177D01*
X127670858Y-41359177D01*
X127670859Y-41359177D01*
X127683805Y-41357472D01*
X127808041Y-41341116D01*
X127887934Y-41308023D01*
X127933668Y-41289081D01*
X127981120Y-41279642D01*
X127991177Y-41279642D01*
X128058216Y-41299327D01*
X128078858Y-41315961D01*
X131513181Y-44750284D01*
X131546666Y-44811607D01*
X131549500Y-44837965D01*
X131549500Y-46919969D01*
X131565639Y-46980201D01*
X131580201Y-47034549D01*
X131589411Y-47050500D01*
X131639511Y-47137275D01*
X132362725Y-47860489D01*
X132465452Y-47919799D01*
X132489660Y-47926284D01*
X132489663Y-47926286D01*
X132489664Y-47926286D01*
X132519786Y-47934357D01*
X132580030Y-47950500D01*
X132939738Y-47950500D01*
X132987188Y-47959937D01*
X133110608Y-48011059D01*
X133150835Y-48037938D01*
X134473386Y-49360489D01*
X134473387Y-49360490D01*
X134473389Y-49360491D01*
X134532693Y-49394729D01*
X134532696Y-49394732D01*
X134566937Y-49414500D01*
X134576114Y-49419799D01*
X134690691Y-49450500D01*
X134690694Y-49450500D01*
X143259308Y-49450500D01*
X143259309Y-49450500D01*
X143349673Y-49426286D01*
X143373887Y-49419799D01*
X143476614Y-49360489D01*
X144399165Y-48437936D01*
X144439387Y-48411060D01*
X144565018Y-48359024D01*
X144674791Y-48274791D01*
X144752122Y-48174011D01*
X144808549Y-48132811D01*
X144850497Y-48125500D01*
X145480323Y-48125500D01*
X145480325Y-48125500D01*
X145545829Y-48107948D01*
X145557859Y-48104725D01*
X145589952Y-48100500D01*
X147409308Y-48100500D01*
X147409309Y-48100500D01*
X147499673Y-48076286D01*
X147523887Y-48069799D01*
X147626614Y-48010489D01*
X150160489Y-45476614D01*
X150219799Y-45373887D01*
X150228617Y-45340976D01*
X150250500Y-45259309D01*
X150250500Y-43067375D01*
X150270185Y-43000336D01*
X150322989Y-42954581D01*
X150392147Y-42944637D01*
X150436499Y-42959987D01*
X150437369Y-42960489D01*
X150437370Y-42960490D01*
X150540097Y-43019799D01*
X150564305Y-43026284D01*
X150564308Y-43026286D01*
X150564309Y-43026286D01*
X150594431Y-43034357D01*
X150654675Y-43050500D01*
X155162035Y-43050500D01*
X155229074Y-43070185D01*
X155249710Y-43086813D01*
X155362063Y-43199167D01*
X155388941Y-43239394D01*
X155409321Y-43288595D01*
X155440976Y-43365018D01*
X155525209Y-43474791D01*
X155634982Y-43559024D01*
X155762817Y-43611974D01*
X155885702Y-43628152D01*
X155899999Y-43630035D01*
X155900000Y-43630035D01*
X155900001Y-43630035D01*
X155912947Y-43628330D01*
X156037183Y-43611974D01*
X156165018Y-43559024D01*
X156274791Y-43474791D01*
X156359024Y-43365018D01*
X156390679Y-43288592D01*
X156434519Y-43234191D01*
X156500813Y-43212125D01*
X156521420Y-43213106D01*
X156619790Y-43226057D01*
X156649999Y-43230035D01*
X156650000Y-43230035D01*
X156650001Y-43230035D01*
X156662947Y-43228330D01*
X156787183Y-43211974D01*
X156915018Y-43159024D01*
X157024791Y-43074791D01*
X157109024Y-42965018D01*
X157161974Y-42837183D01*
X157180035Y-42700000D01*
X157161974Y-42562817D01*
X157113313Y-42445339D01*
X157105845Y-42375872D01*
X157137120Y-42313393D01*
X157154567Y-42299510D01*
X157153900Y-42298641D01*
X157160345Y-42293694D01*
X157160348Y-42293694D01*
X157270121Y-42209461D01*
X157354354Y-42099688D01*
X157407304Y-41971853D01*
X157425365Y-41834670D01*
X157407304Y-41697487D01*
X157354354Y-41569653D01*
X157270121Y-41459879D01*
X157270119Y-41459878D01*
X157270119Y-41459877D01*
X157160345Y-41375644D01*
X157034723Y-41323611D01*
X156994494Y-41296731D01*
X156237276Y-40539513D01*
X156237274Y-40539511D01*
X156185910Y-40509856D01*
X156134548Y-40480201D01*
X156122440Y-40476957D01*
X156110333Y-40473713D01*
X156110330Y-40473712D01*
X156055513Y-40459024D01*
X156019969Y-40449500D01*
X156019968Y-40449500D01*
X152162965Y-40449500D01*
X152095926Y-40429815D01*
X152075284Y-40413181D01*
X151862939Y-40200836D01*
X151836059Y-40160607D01*
X151803609Y-40082267D01*
X151784024Y-40034983D01*
X151699791Y-39925209D01*
X151699789Y-39925208D01*
X151699789Y-39925207D01*
X151590015Y-39840974D01*
X151462184Y-39788026D01*
X151403212Y-39780261D01*
X151387316Y-39777099D01*
X151374679Y-39773714D01*
X151374670Y-39773712D01*
X151325761Y-39760607D01*
X151284309Y-39749500D01*
X151284308Y-39749500D01*
X150574500Y-39749500D01*
X150507461Y-39729815D01*
X150461706Y-39677011D01*
X150450500Y-39625500D01*
X150450500Y-39430274D01*
X159497078Y-39430274D01*
X159497782Y-39438370D01*
X159497708Y-39438376D01*
X159499500Y-39454774D01*
X159499500Y-59452451D01*
X159533608Y-59579747D01*
X159534139Y-59580666D01*
X159599500Y-59693874D01*
X176599500Y-76693874D01*
X176692686Y-76787060D01*
X176791521Y-76844123D01*
X176806810Y-76852950D01*
X176806814Y-76852952D01*
X176934108Y-76887060D01*
X193852330Y-76887060D01*
X193857808Y-76887181D01*
X193909842Y-76889482D01*
X193909850Y-76889480D01*
X193917936Y-76888778D01*
X193917942Y-76888851D01*
X193923968Y-76888192D01*
X193923959Y-76888121D01*
X193932015Y-76887060D01*
X193932018Y-76887060D01*
X193982356Y-76873571D01*
X193987680Y-76872271D01*
X194030436Y-76862818D01*
X194038518Y-76861031D01*
X194046159Y-76858255D01*
X194046184Y-76858325D01*
X194051830Y-76856130D01*
X194051802Y-76856062D01*
X194059303Y-76852954D01*
X194059312Y-76852952D01*
X194104451Y-76826889D01*
X194109236Y-76824266D01*
X194155446Y-76800245D01*
X194155447Y-76800243D01*
X194162112Y-76795583D01*
X194162155Y-76795644D01*
X194167038Y-76792066D01*
X194166992Y-76792006D01*
X194173432Y-76787064D01*
X194173440Y-76787060D01*
X194210289Y-76750209D01*
X194214201Y-76746464D01*
X194252657Y-76711268D01*
X194252659Y-76711263D01*
X194257882Y-76705047D01*
X194257940Y-76705095D01*
X194261735Y-76700370D01*
X194261676Y-76700325D01*
X194266621Y-76693878D01*
X194266626Y-76693874D01*
X194292682Y-76648742D01*
X194295509Y-76644086D01*
X194314619Y-76614127D01*
X195300000Y-77700000D01*
X197200000Y-76100000D01*
X161800000Y-37800000D01*
X160000000Y-37800000D01*
X160000000Y-38800000D01*
X160079812Y-38887951D01*
X160073960Y-38887049D01*
X160073951Y-38887121D01*
X160065893Y-38886060D01*
X160065892Y-38886060D01*
X160065890Y-38886060D01*
X160013796Y-38886060D01*
X160008318Y-38885939D01*
X159956285Y-38883638D01*
X159956284Y-38883638D01*
X159956283Y-38883638D01*
X159948190Y-38884342D01*
X159948183Y-38884268D01*
X159942159Y-38884926D01*
X159942169Y-38884999D01*
X159934108Y-38886060D01*
X159883803Y-38899538D01*
X159878487Y-38900837D01*
X159827607Y-38912088D01*
X159819970Y-38914863D01*
X159819945Y-38914796D01*
X159814297Y-38916990D01*
X159814325Y-38917056D01*
X159806820Y-38920164D01*
X159780623Y-38935288D01*
X159761701Y-38946213D01*
X159756913Y-38948838D01*
X159710686Y-38972870D01*
X159704022Y-38977531D01*
X159703981Y-38977472D01*
X159699088Y-38981057D01*
X159699132Y-38981114D01*
X159692682Y-38986063D01*
X159655851Y-39022893D01*
X159651897Y-39026677D01*
X159613468Y-39061852D01*
X159608240Y-39068076D01*
X159608185Y-39068030D01*
X159604392Y-39072752D01*
X159604449Y-39072796D01*
X159599500Y-39079245D01*
X159573450Y-39124363D01*
X159570610Y-39129040D01*
X159542598Y-39172958D01*
X159542596Y-39172961D01*
X159539158Y-39180324D01*
X159539094Y-39180294D01*
X159536651Y-39185840D01*
X159536717Y-39185868D01*
X159533607Y-39193374D01*
X159520130Y-39243674D01*
X159518596Y-39248930D01*
X159502900Y-39298619D01*
X159501483Y-39306628D01*
X159501411Y-39306615D01*
X159500488Y-39312602D01*
X159500560Y-39312612D01*
X159499500Y-39320664D01*
X159499500Y-39372764D01*
X159499379Y-39378242D01*
X159497078Y-39430274D01*
X150450500Y-39430274D01*
X150450500Y-35910262D01*
X150459939Y-35862810D01*
X150478881Y-35817076D01*
X150511974Y-35737183D01*
X150530035Y-35600000D01*
X150511974Y-35462817D01*
X150459024Y-35334983D01*
X150374791Y-35225209D01*
X150374789Y-35225208D01*
X150374789Y-35225207D01*
X150265015Y-35140974D01*
X150137186Y-35088027D01*
X150137184Y-35088026D01*
X150137183Y-35088026D01*
X150045727Y-35075985D01*
X150000001Y-35069965D01*
X149999999Y-35069965D01*
X149931408Y-35078995D01*
X149862817Y-35088026D01*
X149862816Y-35088026D01*
X149862813Y-35088027D01*
X149734985Y-35140974D01*
X149625209Y-35225209D01*
X149540974Y-35334985D01*
X149488027Y-35462813D01*
X149488026Y-35462816D01*
X149488026Y-35462817D01*
X149469965Y-35600000D01*
X149485155Y-35715380D01*
X149488026Y-35737181D01*
X149488027Y-35737186D01*
X149540061Y-35862810D01*
X149549500Y-35910262D01*
X149549500Y-39625500D01*
X149529815Y-39692539D01*
X149477011Y-39738294D01*
X149425500Y-39749500D01*
X149240691Y-39749500D01*
X149154758Y-39772525D01*
X149126113Y-39780201D01*
X149112557Y-39788028D01*
X149023389Y-39839508D01*
X149023384Y-39839512D01*
X147739513Y-41123383D01*
X147739509Y-41123389D01*
X147680201Y-41226112D01*
X147680200Y-41226117D01*
X147649500Y-41340691D01*
X147649500Y-43762035D01*
X147629815Y-43829074D01*
X147613181Y-43849716D01*
X146149716Y-45313181D01*
X146088393Y-45346666D01*
X146062035Y-45349500D01*
X145135262Y-45349500D01*
X145087810Y-45340061D01*
X144962186Y-45288027D01*
X144962184Y-45288026D01*
X144962183Y-45288026D01*
X144870727Y-45275985D01*
X144825001Y-45269965D01*
X144824999Y-45269965D01*
X144756408Y-45278995D01*
X144687817Y-45288026D01*
X144687816Y-45288026D01*
X144687813Y-45288027D01*
X144562191Y-45340061D01*
X144514739Y-45349500D01*
X135740686Y-45349500D01*
X135706591Y-45358636D01*
X135636741Y-45356972D01*
X135578880Y-45317809D01*
X135551377Y-45253580D01*
X135550500Y-45238861D01*
X135550500Y-44440693D01*
X135550500Y-44440691D01*
X135519799Y-44326114D01*
X135519799Y-44326113D01*
X135460489Y-44223386D01*
X131137939Y-39900836D01*
X131111059Y-39860607D01*
X131075066Y-39773712D01*
X131059024Y-39734983D01*
X130974791Y-39625209D01*
X130974789Y-39625208D01*
X130974789Y-39625207D01*
X130865015Y-39540974D01*
X130737186Y-39488027D01*
X130737184Y-39488026D01*
X130737183Y-39488026D01*
X130645727Y-39475985D01*
X130600001Y-39469965D01*
X130599999Y-39469965D01*
X130531408Y-39478995D01*
X130462817Y-39488026D01*
X130462816Y-39488026D01*
X130462813Y-39488027D01*
X130334985Y-39540974D01*
X130225209Y-39625209D01*
X130140974Y-39734985D01*
X130088027Y-39862813D01*
X130088026Y-39862816D01*
X130088026Y-39862817D01*
X130083131Y-39899999D01*
X130069965Y-39999999D01*
X130069965Y-40000000D01*
X130088026Y-40137181D01*
X130088027Y-40137186D01*
X130142022Y-40267544D01*
X130149491Y-40337014D01*
X130118215Y-40399493D01*
X130058126Y-40435144D01*
X129988301Y-40432650D01*
X129939780Y-40402677D01*
X129337939Y-39800836D01*
X129311059Y-39760607D01*
X129259025Y-39634986D01*
X129259024Y-39634983D01*
X129174791Y-39525209D01*
X129174789Y-39525208D01*
X129174789Y-39525207D01*
X129083001Y-39454775D01*
X129065018Y-39440976D01*
X129065017Y-39440975D01*
X129065015Y-39440974D01*
X128937186Y-39388027D01*
X128937184Y-39388026D01*
X128937183Y-39388026D01*
X128821260Y-39372764D01*
X128800001Y-39369965D01*
X128799999Y-39369965D01*
X128757913Y-39375506D01*
X128662817Y-39388026D01*
X128662816Y-39388026D01*
X128662813Y-39388027D01*
X128534985Y-39440974D01*
X128425209Y-39525209D01*
X128340974Y-39634985D01*
X128288027Y-39762813D01*
X128288026Y-39762816D01*
X128288026Y-39762817D01*
X128269965Y-39900000D01*
X128287736Y-40034983D01*
X128288026Y-40037181D01*
X128288027Y-40037186D01*
X128340975Y-40165016D01*
X128340976Y-40165019D01*
X128351823Y-40179154D01*
X128377019Y-40244323D01*
X128362982Y-40312768D01*
X128314169Y-40362758D01*
X128253449Y-40378642D01*
X127981120Y-40378642D01*
X127933668Y-40369203D01*
X127808044Y-40317169D01*
X127808042Y-40317168D01*
X127808041Y-40317168D01*
X127716585Y-40305127D01*
X127670859Y-40299107D01*
X127670857Y-40299107D01*
X127602266Y-40308137D01*
X127533675Y-40317168D01*
X127533674Y-40317168D01*
X127533671Y-40317169D01*
X127405843Y-40370116D01*
X127296067Y-40454351D01*
X127211832Y-40564127D01*
X127158885Y-40691955D01*
X127158884Y-40691960D01*
X127140823Y-40829141D01*
X127140823Y-40829142D01*
X124500500Y-40829142D01*
X124500500Y-39454774D01*
X124502291Y-39438377D01*
X124502218Y-39438371D01*
X124502920Y-39430285D01*
X124502922Y-39430277D01*
X124500621Y-39378242D01*
X124500500Y-39372764D01*
X124500500Y-39320665D01*
X124499439Y-39312606D01*
X124499512Y-39312596D01*
X124498590Y-39306614D01*
X124498517Y-39306627D01*
X124497101Y-39298627D01*
X124497100Y-39298624D01*
X124497100Y-39298620D01*
X124481398Y-39248917D01*
X124479873Y-39243687D01*
X124466393Y-39193377D01*
X124463283Y-39185868D01*
X124463350Y-39185840D01*
X124460907Y-39180292D01*
X124460842Y-39180323D01*
X124457402Y-39172958D01*
X124429390Y-39129042D01*
X124426550Y-39124365D01*
X124400500Y-39079246D01*
X124400495Y-39079241D01*
X124395553Y-39072800D01*
X124395611Y-39072755D01*
X124391815Y-39068027D01*
X124391759Y-39068075D01*
X124386535Y-39061857D01*
X124386533Y-39061855D01*
X124386531Y-39061852D01*
X124348089Y-39026666D01*
X124344154Y-39022900D01*
X124311824Y-38990569D01*
X125600000Y-37600000D01*
X125600000Y-36600000D01*
X123800000Y-36600000D01*
X83500000Y-79800000D01*
X82500500Y-79800000D01*
X82500500Y-76629212D01*
X82520185Y-76562173D01*
X82533027Y-76545494D01*
X84513083Y-74382209D01*
X84572866Y-74346049D01*
X84642709Y-74347949D01*
X84688040Y-74374250D01*
X86001577Y-75570407D01*
X86027268Y-75593802D01*
X86112818Y-75656634D01*
X86112826Y-75656638D01*
X86112828Y-75656640D01*
X86157529Y-75682730D01*
X86157541Y-75682735D01*
X86157545Y-75682738D01*
X86254332Y-75726322D01*
X86344829Y-75742334D01*
X86395999Y-75751388D01*
X86396002Y-75751388D01*
X86396012Y-75751390D01*
X86465845Y-75753648D01*
X86608848Y-75737785D01*
X86673601Y-75710707D01*
X86741578Y-75682281D01*
X86741580Y-75682279D01*
X86741589Y-75682276D01*
X86801557Y-75646421D01*
X86913281Y-75555765D01*
X120762796Y-38952219D01*
X120766154Y-38948728D01*
X123074242Y-36640641D01*
X123074242Y-36640640D01*
X123074254Y-36640629D01*
X123134730Y-36567571D01*
X123160793Y-36529270D01*
X123206565Y-36446187D01*
X123228342Y-36366499D01*
X123265002Y-36307024D01*
X123328000Y-36276807D01*
X123397334Y-36285447D01*
X123412383Y-36293243D01*
X123505219Y-36349698D01*
X123594077Y-36388294D01*
X123762511Y-36461455D01*
X124032625Y-36537138D01*
X124276945Y-36570719D01*
X124310527Y-36575335D01*
X124310528Y-36575335D01*
X124591045Y-36575335D01*
X124621005Y-36571216D01*
X124868947Y-36537138D01*
X125139061Y-36461455D01*
X125396354Y-36349697D01*
X125636032Y-36203946D01*
X125853631Y-36026916D01*
X126045098Y-35821904D01*
X126206867Y-35592731D01*
X126335922Y-35343665D01*
X126429861Y-35079346D01*
X126429862Y-35079339D01*
X126429864Y-35079334D01*
X126463381Y-34918041D01*
X126486934Y-34804697D01*
X126506077Y-34524835D01*
X126486934Y-34244973D01*
X126440381Y-34020947D01*
X126429864Y-33970335D01*
X126429859Y-33970318D01*
X126404362Y-33898577D01*
X126335922Y-33706005D01*
X126206867Y-33456939D01*
X126045098Y-33227766D01*
X126045093Y-33227760D01*
X125853631Y-33022754D01*
X125840378Y-33011972D01*
X125636032Y-32845724D01*
X125636030Y-32845723D01*
X125636028Y-32845721D01*
X125396352Y-32699971D01*
X125139062Y-32588215D01*
X124868952Y-32512533D01*
X124868948Y-32512532D01*
X124868947Y-32512532D01*
X124725030Y-32492751D01*
X124591045Y-32474335D01*
X124591044Y-32474335D01*
X124310528Y-32474335D01*
X124310526Y-32474335D01*
X124176536Y-32492751D01*
X124107441Y-32482378D01*
X124054922Y-32436296D01*
X124035654Y-32369136D01*
X124055755Y-32302220D01*
X124071959Y-32282237D01*
X124267381Y-32086816D01*
X124328703Y-32053334D01*
X124355060Y-32050500D01*
X124808482Y-32050500D01*
X124875521Y-32070185D01*
G37*
%TD.AperFunction*%
%TD*%
%TA.AperFunction,Conductor*%
%TO.N,VCC*%
G36*
X194935739Y-81305508D02*
G01*
X195120542Y-81362513D01*
X195372565Y-81400500D01*
X195627435Y-81400500D01*
X195879458Y-81362513D01*
X196064260Y-81305508D01*
X196100810Y-81300000D01*
X198476000Y-81300000D01*
X198543039Y-81319685D01*
X198588794Y-81372489D01*
X198600000Y-81424000D01*
X198600000Y-84748638D01*
X198580315Y-84815677D01*
X198563681Y-84836319D01*
X195736319Y-87663681D01*
X195674996Y-87697166D01*
X195648638Y-87700000D01*
X194556353Y-87700000D01*
X194542469Y-87699220D01*
X194500002Y-87694435D01*
X194499998Y-87694435D01*
X194457531Y-87699220D01*
X194443647Y-87700000D01*
X192283862Y-87700000D01*
X192216823Y-87680315D01*
X192200920Y-87667500D01*
X192200000Y-87667500D01*
X192200000Y-86300000D01*
X192600000Y-85900000D01*
X192600000Y-81951362D01*
X192619685Y-81884323D01*
X192636319Y-81863681D01*
X193163681Y-81336319D01*
X193225004Y-81302834D01*
X193251362Y-81300000D01*
X194899190Y-81300000D01*
X194935739Y-81305508D01*
G37*
%TD.AperFunction*%
%TD*%
%TA.AperFunction,Conductor*%
%TO.N,VCC*%
G36*
X128400000Y-94900000D02*
G01*
X128400000Y-96548638D01*
X128380315Y-96615677D01*
X128363681Y-96636319D01*
X128236319Y-96763681D01*
X128174996Y-96797166D01*
X128148638Y-96800000D01*
X125651362Y-96800000D01*
X125584323Y-96780315D01*
X125563681Y-96763681D01*
X125136319Y-96336319D01*
X125102834Y-96274996D01*
X125100000Y-96248638D01*
X125100000Y-94200000D01*
X128400000Y-94200000D01*
X128400000Y-94900000D01*
G37*
%TD.AperFunction*%
%TD*%
%TA.AperFunction,Conductor*%
%TO.N,GND*%
G36*
X125600000Y-37600000D02*
G01*
X124311824Y-38990569D01*
X124307316Y-38986061D01*
X124300868Y-38981114D01*
X124300912Y-38981055D01*
X124296024Y-38977474D01*
X124295982Y-38977535D01*
X124289320Y-38972875D01*
X124243113Y-38948854D01*
X124238311Y-38946221D01*
X124223756Y-38937818D01*
X124193186Y-38920168D01*
X124193183Y-38920167D01*
X124185673Y-38917056D01*
X124185700Y-38916989D01*
X124180049Y-38914794D01*
X124180025Y-38914863D01*
X124172388Y-38912087D01*
X124121523Y-38900840D01*
X124116207Y-38899541D01*
X124096195Y-38894179D01*
X124065892Y-38886060D01*
X124065890Y-38886060D01*
X124057831Y-38884999D01*
X124057840Y-38884926D01*
X124051816Y-38884268D01*
X124051810Y-38884342D01*
X124043717Y-38883638D01*
X124043716Y-38883638D01*
X124043714Y-38883638D01*
X123991682Y-38885939D01*
X123986204Y-38886060D01*
X123934105Y-38886060D01*
X123926052Y-38887120D01*
X123926042Y-38887048D01*
X123920055Y-38887971D01*
X123920068Y-38888043D01*
X123912059Y-38889460D01*
X123862370Y-38905156D01*
X123857131Y-38906684D01*
X123842216Y-38910681D01*
X123806814Y-38920167D01*
X123799308Y-38923277D01*
X123799280Y-38923211D01*
X123793731Y-38925655D01*
X123793761Y-38925719D01*
X123786397Y-38929158D01*
X123742476Y-38957172D01*
X123737800Y-38960012D01*
X123692686Y-38986060D01*
X123692684Y-38986061D01*
X123692682Y-38986063D01*
X123686236Y-38991009D01*
X123686193Y-38990953D01*
X123681465Y-38994750D01*
X123681511Y-38994805D01*
X123675292Y-39000028D01*
X123640127Y-39038447D01*
X123636341Y-39042403D01*
X123599501Y-39079242D01*
X123594555Y-39085690D01*
X123594497Y-39085646D01*
X123584743Y-39098955D01*
X89773992Y-76038455D01*
X89770206Y-76042412D01*
X89733377Y-76079242D01*
X89728428Y-76085692D01*
X89728371Y-76085648D01*
X89724786Y-76090541D01*
X89724845Y-76090582D01*
X89720184Y-76097246D01*
X89696152Y-76143473D01*
X89693520Y-76148275D01*
X89667478Y-76193380D01*
X89664370Y-76200885D01*
X89664304Y-76200857D01*
X89662110Y-76206505D01*
X89662177Y-76206530D01*
X89659402Y-76214167D01*
X89648151Y-76265047D01*
X89646852Y-76270363D01*
X89633374Y-76320668D01*
X89632313Y-76328729D01*
X89632240Y-76328719D01*
X89631583Y-76334739D01*
X89631655Y-76334746D01*
X89630951Y-76342838D01*
X89633253Y-76394876D01*
X89633374Y-76400354D01*
X89633374Y-76425511D01*
X86600000Y-79700000D01*
X83500000Y-79800000D01*
X123800000Y-36600000D01*
X125600000Y-36600000D01*
X125600000Y-37600000D01*
G37*
%TD.AperFunction*%
%TD*%
%TA.AperFunction,Conductor*%
%TO.N,+5V*%
G36*
X121182097Y-34427310D02*
G01*
X121236107Y-34462341D01*
X122721299Y-36112554D01*
X122751515Y-36175553D01*
X122742875Y-36244886D01*
X122716812Y-36283187D01*
X120399998Y-38600001D01*
X86542149Y-75212557D01*
X86482181Y-75248412D01*
X86412348Y-75246154D01*
X86367621Y-75220050D01*
X85029810Y-74001788D01*
X84993497Y-73942096D01*
X84995220Y-73872248D01*
X85021826Y-73826389D01*
X121052474Y-34461568D01*
X121112254Y-34425410D01*
X121182097Y-34427310D01*
G37*
%TD.AperFunction*%
%TD*%
%TA.AperFunction,Conductor*%
%TO.N,VCC*%
G36*
X164600000Y-89200000D02*
G01*
X164600000Y-90500000D01*
X164600000Y-94748638D01*
X164580315Y-94815677D01*
X164563681Y-94836319D01*
X164536319Y-94863681D01*
X164474996Y-94897166D01*
X164448638Y-94900000D01*
X153914885Y-94900000D01*
X153885210Y-94896397D01*
X153845056Y-94886500D01*
X153674944Y-94886500D01*
X153634790Y-94896397D01*
X153605115Y-94900000D01*
X150700000Y-94900000D01*
X150700000Y-94300000D01*
X147400000Y-94300000D01*
X147400000Y-94900000D01*
X128400000Y-94900000D01*
X128400000Y-94200000D01*
X125100000Y-94200000D01*
X125100000Y-91051362D01*
X125119685Y-90984323D01*
X125136319Y-90963681D01*
X125263681Y-90836319D01*
X125325004Y-90802834D01*
X125351362Y-90800000D01*
X160300000Y-90800000D01*
X162063681Y-89036319D01*
X162125004Y-89002834D01*
X162151362Y-89000000D01*
X164400000Y-89000000D01*
X164600000Y-89200000D01*
G37*
%TD.AperFunction*%
%TD*%
%TA.AperFunction,Conductor*%
%TO.N,+5V*%
G36*
X162259902Y-33710950D02*
G01*
X162267183Y-33718269D01*
X167122966Y-39023392D01*
X201466969Y-76545490D01*
X201497712Y-76608232D01*
X201499500Y-76629211D01*
X201499500Y-76909918D01*
X201479815Y-76976957D01*
X201458989Y-77001600D01*
X200355527Y-78006455D01*
X200292707Y-78037038D01*
X200223324Y-78028803D01*
X200181089Y-77999060D01*
X199256696Y-77001600D01*
X162033051Y-36835663D01*
X162001920Y-36773112D01*
X162000000Y-36751376D01*
X162000000Y-35401994D01*
X162000065Y-35397988D01*
X162051779Y-33797983D01*
X162073619Y-33731617D01*
X162127873Y-33687591D01*
X162197317Y-33679887D01*
X162259902Y-33710950D01*
G37*
%TD.AperFunction*%
%TD*%
%TA.AperFunction,Conductor*%
%TO.N,GND*%
G36*
X197200000Y-76100000D02*
G01*
X195300000Y-77700000D01*
X194314619Y-76614127D01*
X194323528Y-76600162D01*
X194323530Y-76600155D01*
X194326965Y-76592801D01*
X194327033Y-76592832D01*
X194329474Y-76587288D01*
X194329406Y-76587260D01*
X194332514Y-76579753D01*
X194332514Y-76579752D01*
X194332518Y-76579746D01*
X194346015Y-76529368D01*
X194347522Y-76524207D01*
X194363226Y-76474500D01*
X194363226Y-76474493D01*
X194364642Y-76466494D01*
X194364716Y-76466507D01*
X194365639Y-76460519D01*
X194365565Y-76460510D01*
X194366626Y-76452453D01*
X194366626Y-76400354D01*
X194366747Y-76394876D01*
X194369048Y-76342837D01*
X194368345Y-76334745D01*
X194368416Y-76334738D01*
X194367759Y-76328717D01*
X194367687Y-76328727D01*
X194366626Y-76320674D01*
X194366626Y-76320668D01*
X194353136Y-76270327D01*
X194351851Y-76265071D01*
X194340597Y-76214167D01*
X194340596Y-76214165D01*
X194337822Y-76206529D01*
X194337890Y-76206503D01*
X194335694Y-76200852D01*
X194335627Y-76200881D01*
X194332519Y-76193379D01*
X194332518Y-76193374D01*
X194306466Y-76148250D01*
X194303831Y-76143444D01*
X194279809Y-76097235D01*
X194275155Y-76090580D01*
X194275213Y-76090538D01*
X194271633Y-76085652D01*
X194271576Y-76085697D01*
X194266624Y-76079244D01*
X194229793Y-76042413D01*
X194226005Y-76038454D01*
X189995843Y-71416845D01*
X160415255Y-39098954D01*
X160405508Y-39085652D01*
X160405450Y-39085697D01*
X160400499Y-39079245D01*
X160363670Y-39042416D01*
X160359904Y-39038481D01*
X160324708Y-39000028D01*
X160324706Y-39000027D01*
X160324703Y-39000023D01*
X160318484Y-38994799D01*
X160318530Y-38994743D01*
X160313809Y-38990951D01*
X160313765Y-38991009D01*
X160307318Y-38986062D01*
X160295078Y-38978995D01*
X160262190Y-38960007D01*
X160257551Y-38957190D01*
X160213602Y-38929158D01*
X160213599Y-38929156D01*
X160206237Y-38925718D01*
X160206267Y-38925653D01*
X160200721Y-38923211D01*
X160200694Y-38923278D01*
X160193187Y-38920168D01*
X160142848Y-38906679D01*
X160137593Y-38905145D01*
X160087942Y-38889460D01*
X160079933Y-38888043D01*
X160079945Y-38887972D01*
X160079812Y-38887951D01*
X160000000Y-38800000D01*
X160000000Y-37900500D01*
X161892890Y-37900500D01*
X197200000Y-76100000D01*
G37*
%TD.AperFunction*%
%TD*%
%TA.AperFunction,Conductor*%
%TO.N,VCC*%
G36*
X175015677Y-88219685D02*
G01*
X175036319Y-88236319D01*
X175213181Y-88413181D01*
X175246666Y-88474504D01*
X175249500Y-88500862D01*
X175249500Y-90299138D01*
X175229815Y-90366177D01*
X175213181Y-90386819D01*
X175136319Y-90463681D01*
X175074996Y-90497166D01*
X175048638Y-90500000D01*
X170432346Y-90500000D01*
X170365307Y-90480315D01*
X170350123Y-90468819D01*
X170307934Y-90431443D01*
X170173434Y-90360852D01*
X170173433Y-90360851D01*
X170173432Y-90360851D01*
X170025950Y-90324500D01*
X170025949Y-90324500D01*
X169874051Y-90324500D01*
X169874050Y-90324500D01*
X169726567Y-90360851D01*
X169592067Y-90431442D01*
X169592066Y-90431443D01*
X169549879Y-90468816D01*
X169486648Y-90498537D01*
X169467654Y-90500000D01*
X164600000Y-90500000D01*
X164600000Y-89200000D01*
X164400000Y-89000000D01*
X173000000Y-89000000D01*
X173763681Y-88236319D01*
X173825004Y-88202834D01*
X173851362Y-88200000D01*
X174948638Y-88200000D01*
X175015677Y-88219685D01*
G37*
%TD.AperFunction*%
%TD*%
%TA.AperFunction,Conductor*%
%TO.N,GND*%
G36*
X99500000Y-89500000D02*
G01*
X94125000Y-89500000D01*
X94125000Y-82250000D01*
X99500000Y-82250000D01*
X99500000Y-89500000D01*
G37*
%TD.AperFunction*%
%TD*%
%TA.AperFunction,Conductor*%
%TO.N,VCC*%
G36*
X150700000Y-94900000D02*
G01*
X150700000Y-96648638D01*
X150680315Y-96715677D01*
X150663681Y-96736319D01*
X150536319Y-96863681D01*
X150474996Y-96897166D01*
X150448638Y-96900000D01*
X148394707Y-96900000D01*
X148337081Y-96885796D01*
X148293062Y-96862692D01*
X148250224Y-96840209D01*
X148085056Y-96799500D01*
X147914944Y-96799500D01*
X147914943Y-96799500D01*
X147890230Y-96805591D01*
X147820428Y-96802521D01*
X147772875Y-96772875D01*
X147436319Y-96436319D01*
X147402834Y-96374996D01*
X147400000Y-96348638D01*
X147400000Y-94900000D01*
X147400000Y-94300000D01*
X150700000Y-94300000D01*
X150700000Y-94900000D01*
G37*
%TD.AperFunction*%
%TD*%
%TA.AperFunction,Conductor*%
%TO.N,VCC*%
G36*
X186986695Y-86176938D02*
G01*
X186992817Y-86179474D01*
X187114039Y-86195433D01*
X187129999Y-86197535D01*
X187130000Y-86197535D01*
X187130001Y-86197535D01*
X187142947Y-86195830D01*
X187267183Y-86179474D01*
X187273304Y-86176938D01*
X187320755Y-86167500D01*
X192332500Y-86167500D01*
X192200000Y-86300000D01*
X192200000Y-87667500D01*
X179931362Y-87667500D01*
X179864323Y-87647815D01*
X179843681Y-87631181D01*
X179666319Y-87453819D01*
X179632834Y-87392496D01*
X179630000Y-87366138D01*
X179630000Y-86468862D01*
X179649685Y-86401823D01*
X179666319Y-86381181D01*
X179843681Y-86203819D01*
X179905004Y-86170334D01*
X179931362Y-86167500D01*
X186939245Y-86167500D01*
X186986695Y-86176938D01*
G37*
%TD.AperFunction*%
%TD*%
M02*
