%TF.GenerationSoftware,KiCad,Pcbnew,8.0.1*%
%TF.CreationDate,2024-07-21T18:11:56+02:00*%
%TF.ProjectId,LineFollower_V2,4c696e65-466f-46c6-9c6f-7765725f5632,rev?*%
%TF.SameCoordinates,Original*%
%TF.FileFunction,Legend,Top*%
%TF.FilePolarity,Positive*%
%FSLAX46Y46*%
G04 Gerber Fmt 4.6, Leading zero omitted, Abs format (unit mm)*
G04 Created by KiCad (PCBNEW 8.0.1) date 2024-07-21 18:11:56*
%MOMM*%
%LPD*%
G01*
G04 APERTURE LIST*
%ADD10C,0.254000*%
%ADD11C,0.150000*%
%ADD12C,0.100000*%
%ADD13C,0.050000*%
%ADD14C,0.062500*%
%ADD15C,0.070000*%
%ADD16C,0.200000*%
%ADD17C,0.120000*%
%ADD18C,0.152500*%
%ADD19C,0.000000*%
%ADD20C,0.300000*%
%ADD21C,0.400000*%
%ADD22C,0.127000*%
G04 APERTURE END LIST*
D10*
X151405475Y-90264318D02*
X151405475Y-88994318D01*
X152735952Y-90143365D02*
X152675476Y-90203842D01*
X152675476Y-90203842D02*
X152494047Y-90264318D01*
X152494047Y-90264318D02*
X152373095Y-90264318D01*
X152373095Y-90264318D02*
X152191666Y-90203842D01*
X152191666Y-90203842D02*
X152070714Y-90082889D01*
X152070714Y-90082889D02*
X152010237Y-89961937D01*
X152010237Y-89961937D02*
X151949761Y-89720032D01*
X151949761Y-89720032D02*
X151949761Y-89538603D01*
X151949761Y-89538603D02*
X152010237Y-89296699D01*
X152010237Y-89296699D02*
X152070714Y-89175746D01*
X152070714Y-89175746D02*
X152191666Y-89054794D01*
X152191666Y-89054794D02*
X152373095Y-88994318D01*
X152373095Y-88994318D02*
X152494047Y-88994318D01*
X152494047Y-88994318D02*
X152675476Y-89054794D01*
X152675476Y-89054794D02*
X152735952Y-89115270D01*
X153945476Y-90264318D02*
X153219761Y-90264318D01*
X153582618Y-90264318D02*
X153582618Y-88994318D01*
X153582618Y-88994318D02*
X153461666Y-89175746D01*
X153461666Y-89175746D02*
X153340714Y-89296699D01*
X153340714Y-89296699D02*
X153219761Y-89357175D01*
X155034047Y-89417651D02*
X155034047Y-90264318D01*
X154731666Y-88933842D02*
X154429285Y-89840984D01*
X154429285Y-89840984D02*
X155215476Y-89840984D01*
X130884318Y-96594524D02*
X129614318Y-96594524D01*
X130763365Y-95264047D02*
X130823842Y-95324523D01*
X130823842Y-95324523D02*
X130884318Y-95505952D01*
X130884318Y-95505952D02*
X130884318Y-95626904D01*
X130884318Y-95626904D02*
X130823842Y-95808333D01*
X130823842Y-95808333D02*
X130702889Y-95929285D01*
X130702889Y-95929285D02*
X130581937Y-95989762D01*
X130581937Y-95989762D02*
X130340032Y-96050238D01*
X130340032Y-96050238D02*
X130158603Y-96050238D01*
X130158603Y-96050238D02*
X129916699Y-95989762D01*
X129916699Y-95989762D02*
X129795746Y-95929285D01*
X129795746Y-95929285D02*
X129674794Y-95808333D01*
X129674794Y-95808333D02*
X129614318Y-95626904D01*
X129614318Y-95626904D02*
X129614318Y-95505952D01*
X129614318Y-95505952D02*
X129674794Y-95324523D01*
X129674794Y-95324523D02*
X129735270Y-95264047D01*
X130884318Y-94054523D02*
X130884318Y-94780238D01*
X130884318Y-94417381D02*
X129614318Y-94417381D01*
X129614318Y-94417381D02*
X129795746Y-94538333D01*
X129795746Y-94538333D02*
X129916699Y-94659285D01*
X129916699Y-94659285D02*
X129977175Y-94780238D01*
X129614318Y-93631190D02*
X129614318Y-92844999D01*
X129614318Y-92844999D02*
X130098127Y-93268333D01*
X130098127Y-93268333D02*
X130098127Y-93086904D01*
X130098127Y-93086904D02*
X130158603Y-92965952D01*
X130158603Y-92965952D02*
X130219080Y-92905476D01*
X130219080Y-92905476D02*
X130340032Y-92844999D01*
X130340032Y-92844999D02*
X130642413Y-92844999D01*
X130642413Y-92844999D02*
X130763365Y-92905476D01*
X130763365Y-92905476D02*
X130823842Y-92965952D01*
X130823842Y-92965952D02*
X130884318Y-93086904D01*
X130884318Y-93086904D02*
X130884318Y-93449761D01*
X130884318Y-93449761D02*
X130823842Y-93570714D01*
X130823842Y-93570714D02*
X130763365Y-93631190D01*
D11*
X101832142Y-95429580D02*
X101784523Y-95477200D01*
X101784523Y-95477200D02*
X101641666Y-95524819D01*
X101641666Y-95524819D02*
X101546428Y-95524819D01*
X101546428Y-95524819D02*
X101403571Y-95477200D01*
X101403571Y-95477200D02*
X101308333Y-95381961D01*
X101308333Y-95381961D02*
X101260714Y-95286723D01*
X101260714Y-95286723D02*
X101213095Y-95096247D01*
X101213095Y-95096247D02*
X101213095Y-94953390D01*
X101213095Y-94953390D02*
X101260714Y-94762914D01*
X101260714Y-94762914D02*
X101308333Y-94667676D01*
X101308333Y-94667676D02*
X101403571Y-94572438D01*
X101403571Y-94572438D02*
X101546428Y-94524819D01*
X101546428Y-94524819D02*
X101641666Y-94524819D01*
X101641666Y-94524819D02*
X101784523Y-94572438D01*
X101784523Y-94572438D02*
X101832142Y-94620057D01*
X102165476Y-94524819D02*
X102784523Y-94524819D01*
X102784523Y-94524819D02*
X102451190Y-94905771D01*
X102451190Y-94905771D02*
X102594047Y-94905771D01*
X102594047Y-94905771D02*
X102689285Y-94953390D01*
X102689285Y-94953390D02*
X102736904Y-95001009D01*
X102736904Y-95001009D02*
X102784523Y-95096247D01*
X102784523Y-95096247D02*
X102784523Y-95334342D01*
X102784523Y-95334342D02*
X102736904Y-95429580D01*
X102736904Y-95429580D02*
X102689285Y-95477200D01*
X102689285Y-95477200D02*
X102594047Y-95524819D01*
X102594047Y-95524819D02*
X102308333Y-95524819D01*
X102308333Y-95524819D02*
X102213095Y-95477200D01*
X102213095Y-95477200D02*
X102165476Y-95429580D01*
X103355952Y-94953390D02*
X103260714Y-94905771D01*
X103260714Y-94905771D02*
X103213095Y-94858152D01*
X103213095Y-94858152D02*
X103165476Y-94762914D01*
X103165476Y-94762914D02*
X103165476Y-94715295D01*
X103165476Y-94715295D02*
X103213095Y-94620057D01*
X103213095Y-94620057D02*
X103260714Y-94572438D01*
X103260714Y-94572438D02*
X103355952Y-94524819D01*
X103355952Y-94524819D02*
X103546428Y-94524819D01*
X103546428Y-94524819D02*
X103641666Y-94572438D01*
X103641666Y-94572438D02*
X103689285Y-94620057D01*
X103689285Y-94620057D02*
X103736904Y-94715295D01*
X103736904Y-94715295D02*
X103736904Y-94762914D01*
X103736904Y-94762914D02*
X103689285Y-94858152D01*
X103689285Y-94858152D02*
X103641666Y-94905771D01*
X103641666Y-94905771D02*
X103546428Y-94953390D01*
X103546428Y-94953390D02*
X103355952Y-94953390D01*
X103355952Y-94953390D02*
X103260714Y-95001009D01*
X103260714Y-95001009D02*
X103213095Y-95048628D01*
X103213095Y-95048628D02*
X103165476Y-95143866D01*
X103165476Y-95143866D02*
X103165476Y-95334342D01*
X103165476Y-95334342D02*
X103213095Y-95429580D01*
X103213095Y-95429580D02*
X103260714Y-95477200D01*
X103260714Y-95477200D02*
X103355952Y-95524819D01*
X103355952Y-95524819D02*
X103546428Y-95524819D01*
X103546428Y-95524819D02*
X103641666Y-95477200D01*
X103641666Y-95477200D02*
X103689285Y-95429580D01*
X103689285Y-95429580D02*
X103736904Y-95334342D01*
X103736904Y-95334342D02*
X103736904Y-95143866D01*
X103736904Y-95143866D02*
X103689285Y-95048628D01*
X103689285Y-95048628D02*
X103641666Y-95001009D01*
X103641666Y-95001009D02*
X103546428Y-94953390D01*
X101832142Y-92919580D02*
X101784523Y-92967200D01*
X101784523Y-92967200D02*
X101641666Y-93014819D01*
X101641666Y-93014819D02*
X101546428Y-93014819D01*
X101546428Y-93014819D02*
X101403571Y-92967200D01*
X101403571Y-92967200D02*
X101308333Y-92871961D01*
X101308333Y-92871961D02*
X101260714Y-92776723D01*
X101260714Y-92776723D02*
X101213095Y-92586247D01*
X101213095Y-92586247D02*
X101213095Y-92443390D01*
X101213095Y-92443390D02*
X101260714Y-92252914D01*
X101260714Y-92252914D02*
X101308333Y-92157676D01*
X101308333Y-92157676D02*
X101403571Y-92062438D01*
X101403571Y-92062438D02*
X101546428Y-92014819D01*
X101546428Y-92014819D02*
X101641666Y-92014819D01*
X101641666Y-92014819D02*
X101784523Y-92062438D01*
X101784523Y-92062438D02*
X101832142Y-92110057D01*
X102165476Y-92014819D02*
X102784523Y-92014819D01*
X102784523Y-92014819D02*
X102451190Y-92395771D01*
X102451190Y-92395771D02*
X102594047Y-92395771D01*
X102594047Y-92395771D02*
X102689285Y-92443390D01*
X102689285Y-92443390D02*
X102736904Y-92491009D01*
X102736904Y-92491009D02*
X102784523Y-92586247D01*
X102784523Y-92586247D02*
X102784523Y-92824342D01*
X102784523Y-92824342D02*
X102736904Y-92919580D01*
X102736904Y-92919580D02*
X102689285Y-92967200D01*
X102689285Y-92967200D02*
X102594047Y-93014819D01*
X102594047Y-93014819D02*
X102308333Y-93014819D01*
X102308333Y-93014819D02*
X102213095Y-92967200D01*
X102213095Y-92967200D02*
X102165476Y-92919580D01*
X103117857Y-92014819D02*
X103784523Y-92014819D01*
X103784523Y-92014819D02*
X103355952Y-93014819D01*
X138859580Y-57966666D02*
X138907200Y-58014285D01*
X138907200Y-58014285D02*
X138954819Y-58157142D01*
X138954819Y-58157142D02*
X138954819Y-58252380D01*
X138954819Y-58252380D02*
X138907200Y-58395237D01*
X138907200Y-58395237D02*
X138811961Y-58490475D01*
X138811961Y-58490475D02*
X138716723Y-58538094D01*
X138716723Y-58538094D02*
X138526247Y-58585713D01*
X138526247Y-58585713D02*
X138383390Y-58585713D01*
X138383390Y-58585713D02*
X138192914Y-58538094D01*
X138192914Y-58538094D02*
X138097676Y-58490475D01*
X138097676Y-58490475D02*
X138002438Y-58395237D01*
X138002438Y-58395237D02*
X137954819Y-58252380D01*
X137954819Y-58252380D02*
X137954819Y-58157142D01*
X137954819Y-58157142D02*
X138002438Y-58014285D01*
X138002438Y-58014285D02*
X138050057Y-57966666D01*
X137954819Y-57109523D02*
X137954819Y-57299999D01*
X137954819Y-57299999D02*
X138002438Y-57395237D01*
X138002438Y-57395237D02*
X138050057Y-57442856D01*
X138050057Y-57442856D02*
X138192914Y-57538094D01*
X138192914Y-57538094D02*
X138383390Y-57585713D01*
X138383390Y-57585713D02*
X138764342Y-57585713D01*
X138764342Y-57585713D02*
X138859580Y-57538094D01*
X138859580Y-57538094D02*
X138907200Y-57490475D01*
X138907200Y-57490475D02*
X138954819Y-57395237D01*
X138954819Y-57395237D02*
X138954819Y-57204761D01*
X138954819Y-57204761D02*
X138907200Y-57109523D01*
X138907200Y-57109523D02*
X138859580Y-57061904D01*
X138859580Y-57061904D02*
X138764342Y-57014285D01*
X138764342Y-57014285D02*
X138526247Y-57014285D01*
X138526247Y-57014285D02*
X138431009Y-57061904D01*
X138431009Y-57061904D02*
X138383390Y-57109523D01*
X138383390Y-57109523D02*
X138335771Y-57204761D01*
X138335771Y-57204761D02*
X138335771Y-57395237D01*
X138335771Y-57395237D02*
X138383390Y-57490475D01*
X138383390Y-57490475D02*
X138431009Y-57538094D01*
X138431009Y-57538094D02*
X138526247Y-57585713D01*
X127184819Y-79901189D02*
X126184819Y-79901189D01*
X127089580Y-78853571D02*
X127137200Y-78901190D01*
X127137200Y-78901190D02*
X127184819Y-79044047D01*
X127184819Y-79044047D02*
X127184819Y-79139285D01*
X127184819Y-79139285D02*
X127137200Y-79282142D01*
X127137200Y-79282142D02*
X127041961Y-79377380D01*
X127041961Y-79377380D02*
X126946723Y-79424999D01*
X126946723Y-79424999D02*
X126756247Y-79472618D01*
X126756247Y-79472618D02*
X126613390Y-79472618D01*
X126613390Y-79472618D02*
X126422914Y-79424999D01*
X126422914Y-79424999D02*
X126327676Y-79377380D01*
X126327676Y-79377380D02*
X126232438Y-79282142D01*
X126232438Y-79282142D02*
X126184819Y-79139285D01*
X126184819Y-79139285D02*
X126184819Y-79044047D01*
X126184819Y-79044047D02*
X126232438Y-78901190D01*
X126232438Y-78901190D02*
X126280057Y-78853571D01*
X127184819Y-78377380D02*
X127184819Y-78186904D01*
X127184819Y-78186904D02*
X127137200Y-78091666D01*
X127137200Y-78091666D02*
X127089580Y-78044047D01*
X127089580Y-78044047D02*
X126946723Y-77948809D01*
X126946723Y-77948809D02*
X126756247Y-77901190D01*
X126756247Y-77901190D02*
X126375295Y-77901190D01*
X126375295Y-77901190D02*
X126280057Y-77948809D01*
X126280057Y-77948809D02*
X126232438Y-77996428D01*
X126232438Y-77996428D02*
X126184819Y-78091666D01*
X126184819Y-78091666D02*
X126184819Y-78282142D01*
X126184819Y-78282142D02*
X126232438Y-78377380D01*
X126232438Y-78377380D02*
X126280057Y-78424999D01*
X126280057Y-78424999D02*
X126375295Y-78472618D01*
X126375295Y-78472618D02*
X126613390Y-78472618D01*
X126613390Y-78472618D02*
X126708628Y-78424999D01*
X126708628Y-78424999D02*
X126756247Y-78377380D01*
X126756247Y-78377380D02*
X126803866Y-78282142D01*
X126803866Y-78282142D02*
X126803866Y-78091666D01*
X126803866Y-78091666D02*
X126756247Y-77996428D01*
X126756247Y-77996428D02*
X126708628Y-77948809D01*
X126708628Y-77948809D02*
X126613390Y-77901190D01*
X137107142Y-71359580D02*
X137059523Y-71407200D01*
X137059523Y-71407200D02*
X136916666Y-71454819D01*
X136916666Y-71454819D02*
X136821428Y-71454819D01*
X136821428Y-71454819D02*
X136678571Y-71407200D01*
X136678571Y-71407200D02*
X136583333Y-71311961D01*
X136583333Y-71311961D02*
X136535714Y-71216723D01*
X136535714Y-71216723D02*
X136488095Y-71026247D01*
X136488095Y-71026247D02*
X136488095Y-70883390D01*
X136488095Y-70883390D02*
X136535714Y-70692914D01*
X136535714Y-70692914D02*
X136583333Y-70597676D01*
X136583333Y-70597676D02*
X136678571Y-70502438D01*
X136678571Y-70502438D02*
X136821428Y-70454819D01*
X136821428Y-70454819D02*
X136916666Y-70454819D01*
X136916666Y-70454819D02*
X137059523Y-70502438D01*
X137059523Y-70502438D02*
X137107142Y-70550057D01*
X137488095Y-70550057D02*
X137535714Y-70502438D01*
X137535714Y-70502438D02*
X137630952Y-70454819D01*
X137630952Y-70454819D02*
X137869047Y-70454819D01*
X137869047Y-70454819D02*
X137964285Y-70502438D01*
X137964285Y-70502438D02*
X138011904Y-70550057D01*
X138011904Y-70550057D02*
X138059523Y-70645295D01*
X138059523Y-70645295D02*
X138059523Y-70740533D01*
X138059523Y-70740533D02*
X138011904Y-70883390D01*
X138011904Y-70883390D02*
X137440476Y-71454819D01*
X137440476Y-71454819D02*
X138059523Y-71454819D01*
X138392857Y-70454819D02*
X139059523Y-70454819D01*
X139059523Y-70454819D02*
X138630952Y-71454819D01*
X125625595Y-65557819D02*
X125625595Y-66367342D01*
X125625595Y-66367342D02*
X125673214Y-66462580D01*
X125673214Y-66462580D02*
X125720833Y-66510200D01*
X125720833Y-66510200D02*
X125816071Y-66557819D01*
X125816071Y-66557819D02*
X126006547Y-66557819D01*
X126006547Y-66557819D02*
X126101785Y-66510200D01*
X126101785Y-66510200D02*
X126149404Y-66462580D01*
X126149404Y-66462580D02*
X126197023Y-66367342D01*
X126197023Y-66367342D02*
X126197023Y-65557819D01*
X126625595Y-65653057D02*
X126673214Y-65605438D01*
X126673214Y-65605438D02*
X126768452Y-65557819D01*
X126768452Y-65557819D02*
X127006547Y-65557819D01*
X127006547Y-65557819D02*
X127101785Y-65605438D01*
X127101785Y-65605438D02*
X127149404Y-65653057D01*
X127149404Y-65653057D02*
X127197023Y-65748295D01*
X127197023Y-65748295D02*
X127197023Y-65843533D01*
X127197023Y-65843533D02*
X127149404Y-65986390D01*
X127149404Y-65986390D02*
X126577976Y-66557819D01*
X126577976Y-66557819D02*
X127197023Y-66557819D01*
X193614580Y-89810357D02*
X193662200Y-89857976D01*
X193662200Y-89857976D02*
X193709819Y-90000833D01*
X193709819Y-90000833D02*
X193709819Y-90096071D01*
X193709819Y-90096071D02*
X193662200Y-90238928D01*
X193662200Y-90238928D02*
X193566961Y-90334166D01*
X193566961Y-90334166D02*
X193471723Y-90381785D01*
X193471723Y-90381785D02*
X193281247Y-90429404D01*
X193281247Y-90429404D02*
X193138390Y-90429404D01*
X193138390Y-90429404D02*
X192947914Y-90381785D01*
X192947914Y-90381785D02*
X192852676Y-90334166D01*
X192852676Y-90334166D02*
X192757438Y-90238928D01*
X192757438Y-90238928D02*
X192709819Y-90096071D01*
X192709819Y-90096071D02*
X192709819Y-90000833D01*
X192709819Y-90000833D02*
X192757438Y-89857976D01*
X192757438Y-89857976D02*
X192805057Y-89810357D01*
X192805057Y-89429404D02*
X192757438Y-89381785D01*
X192757438Y-89381785D02*
X192709819Y-89286547D01*
X192709819Y-89286547D02*
X192709819Y-89048452D01*
X192709819Y-89048452D02*
X192757438Y-88953214D01*
X192757438Y-88953214D02*
X192805057Y-88905595D01*
X192805057Y-88905595D02*
X192900295Y-88857976D01*
X192900295Y-88857976D02*
X192995533Y-88857976D01*
X192995533Y-88857976D02*
X193138390Y-88905595D01*
X193138390Y-88905595D02*
X193709819Y-89477023D01*
X193709819Y-89477023D02*
X193709819Y-88857976D01*
X192709819Y-88238928D02*
X192709819Y-88143690D01*
X192709819Y-88143690D02*
X192757438Y-88048452D01*
X192757438Y-88048452D02*
X192805057Y-88000833D01*
X192805057Y-88000833D02*
X192900295Y-87953214D01*
X192900295Y-87953214D02*
X193090771Y-87905595D01*
X193090771Y-87905595D02*
X193328866Y-87905595D01*
X193328866Y-87905595D02*
X193519342Y-87953214D01*
X193519342Y-87953214D02*
X193614580Y-88000833D01*
X193614580Y-88000833D02*
X193662200Y-88048452D01*
X193662200Y-88048452D02*
X193709819Y-88143690D01*
X193709819Y-88143690D02*
X193709819Y-88238928D01*
X193709819Y-88238928D02*
X193662200Y-88334166D01*
X193662200Y-88334166D02*
X193614580Y-88381785D01*
X193614580Y-88381785D02*
X193519342Y-88429404D01*
X193519342Y-88429404D02*
X193328866Y-88477023D01*
X193328866Y-88477023D02*
X193090771Y-88477023D01*
X193090771Y-88477023D02*
X192900295Y-88429404D01*
X192900295Y-88429404D02*
X192805057Y-88381785D01*
X192805057Y-88381785D02*
X192757438Y-88334166D01*
X192757438Y-88334166D02*
X192709819Y-88238928D01*
D12*
X167016666Y-92518633D02*
X167016666Y-91818633D01*
X167749999Y-92451966D02*
X167716666Y-92485300D01*
X167716666Y-92485300D02*
X167616666Y-92518633D01*
X167616666Y-92518633D02*
X167549999Y-92518633D01*
X167549999Y-92518633D02*
X167449999Y-92485300D01*
X167449999Y-92485300D02*
X167383333Y-92418633D01*
X167383333Y-92418633D02*
X167349999Y-92351966D01*
X167349999Y-92351966D02*
X167316666Y-92218633D01*
X167316666Y-92218633D02*
X167316666Y-92118633D01*
X167316666Y-92118633D02*
X167349999Y-91985300D01*
X167349999Y-91985300D02*
X167383333Y-91918633D01*
X167383333Y-91918633D02*
X167449999Y-91851966D01*
X167449999Y-91851966D02*
X167549999Y-91818633D01*
X167549999Y-91818633D02*
X167616666Y-91818633D01*
X167616666Y-91818633D02*
X167716666Y-91851966D01*
X167716666Y-91851966D02*
X167749999Y-91885300D01*
X167983333Y-91818633D02*
X168416666Y-91818633D01*
X168416666Y-91818633D02*
X168183333Y-92085300D01*
X168183333Y-92085300D02*
X168283333Y-92085300D01*
X168283333Y-92085300D02*
X168349999Y-92118633D01*
X168349999Y-92118633D02*
X168383333Y-92151966D01*
X168383333Y-92151966D02*
X168416666Y-92218633D01*
X168416666Y-92218633D02*
X168416666Y-92385300D01*
X168416666Y-92385300D02*
X168383333Y-92451966D01*
X168383333Y-92451966D02*
X168349999Y-92485300D01*
X168349999Y-92485300D02*
X168283333Y-92518633D01*
X168283333Y-92518633D02*
X168083333Y-92518633D01*
X168083333Y-92518633D02*
X168016666Y-92485300D01*
X168016666Y-92485300D02*
X167983333Y-92451966D01*
D11*
X137259580Y-58066666D02*
X137307200Y-58114285D01*
X137307200Y-58114285D02*
X137354819Y-58257142D01*
X137354819Y-58257142D02*
X137354819Y-58352380D01*
X137354819Y-58352380D02*
X137307200Y-58495237D01*
X137307200Y-58495237D02*
X137211961Y-58590475D01*
X137211961Y-58590475D02*
X137116723Y-58638094D01*
X137116723Y-58638094D02*
X136926247Y-58685713D01*
X136926247Y-58685713D02*
X136783390Y-58685713D01*
X136783390Y-58685713D02*
X136592914Y-58638094D01*
X136592914Y-58638094D02*
X136497676Y-58590475D01*
X136497676Y-58590475D02*
X136402438Y-58495237D01*
X136402438Y-58495237D02*
X136354819Y-58352380D01*
X136354819Y-58352380D02*
X136354819Y-58257142D01*
X136354819Y-58257142D02*
X136402438Y-58114285D01*
X136402438Y-58114285D02*
X136450057Y-58066666D01*
X136354819Y-57161904D02*
X136354819Y-57638094D01*
X136354819Y-57638094D02*
X136831009Y-57685713D01*
X136831009Y-57685713D02*
X136783390Y-57638094D01*
X136783390Y-57638094D02*
X136735771Y-57542856D01*
X136735771Y-57542856D02*
X136735771Y-57304761D01*
X136735771Y-57304761D02*
X136783390Y-57209523D01*
X136783390Y-57209523D02*
X136831009Y-57161904D01*
X136831009Y-57161904D02*
X136926247Y-57114285D01*
X136926247Y-57114285D02*
X137164342Y-57114285D01*
X137164342Y-57114285D02*
X137259580Y-57161904D01*
X137259580Y-57161904D02*
X137307200Y-57209523D01*
X137307200Y-57209523D02*
X137354819Y-57304761D01*
X137354819Y-57304761D02*
X137354819Y-57542856D01*
X137354819Y-57542856D02*
X137307200Y-57638094D01*
X137307200Y-57638094D02*
X137259580Y-57685713D01*
X123957142Y-102934819D02*
X123623809Y-102458628D01*
X123385714Y-102934819D02*
X123385714Y-101934819D01*
X123385714Y-101934819D02*
X123766666Y-101934819D01*
X123766666Y-101934819D02*
X123861904Y-101982438D01*
X123861904Y-101982438D02*
X123909523Y-102030057D01*
X123909523Y-102030057D02*
X123957142Y-102125295D01*
X123957142Y-102125295D02*
X123957142Y-102268152D01*
X123957142Y-102268152D02*
X123909523Y-102363390D01*
X123909523Y-102363390D02*
X123861904Y-102411009D01*
X123861904Y-102411009D02*
X123766666Y-102458628D01*
X123766666Y-102458628D02*
X123385714Y-102458628D01*
X124338095Y-102030057D02*
X124385714Y-101982438D01*
X124385714Y-101982438D02*
X124480952Y-101934819D01*
X124480952Y-101934819D02*
X124719047Y-101934819D01*
X124719047Y-101934819D02*
X124814285Y-101982438D01*
X124814285Y-101982438D02*
X124861904Y-102030057D01*
X124861904Y-102030057D02*
X124909523Y-102125295D01*
X124909523Y-102125295D02*
X124909523Y-102220533D01*
X124909523Y-102220533D02*
X124861904Y-102363390D01*
X124861904Y-102363390D02*
X124290476Y-102934819D01*
X124290476Y-102934819D02*
X124909523Y-102934819D01*
X125290476Y-102030057D02*
X125338095Y-101982438D01*
X125338095Y-101982438D02*
X125433333Y-101934819D01*
X125433333Y-101934819D02*
X125671428Y-101934819D01*
X125671428Y-101934819D02*
X125766666Y-101982438D01*
X125766666Y-101982438D02*
X125814285Y-102030057D01*
X125814285Y-102030057D02*
X125861904Y-102125295D01*
X125861904Y-102125295D02*
X125861904Y-102220533D01*
X125861904Y-102220533D02*
X125814285Y-102363390D01*
X125814285Y-102363390D02*
X125242857Y-102934819D01*
X125242857Y-102934819D02*
X125861904Y-102934819D01*
X174283333Y-96654819D02*
X173950000Y-96178628D01*
X173711905Y-96654819D02*
X173711905Y-95654819D01*
X173711905Y-95654819D02*
X174092857Y-95654819D01*
X174092857Y-95654819D02*
X174188095Y-95702438D01*
X174188095Y-95702438D02*
X174235714Y-95750057D01*
X174235714Y-95750057D02*
X174283333Y-95845295D01*
X174283333Y-95845295D02*
X174283333Y-95988152D01*
X174283333Y-95988152D02*
X174235714Y-96083390D01*
X174235714Y-96083390D02*
X174188095Y-96131009D01*
X174188095Y-96131009D02*
X174092857Y-96178628D01*
X174092857Y-96178628D02*
X173711905Y-96178628D01*
X175140476Y-95654819D02*
X174950000Y-95654819D01*
X174950000Y-95654819D02*
X174854762Y-95702438D01*
X174854762Y-95702438D02*
X174807143Y-95750057D01*
X174807143Y-95750057D02*
X174711905Y-95892914D01*
X174711905Y-95892914D02*
X174664286Y-96083390D01*
X174664286Y-96083390D02*
X174664286Y-96464342D01*
X174664286Y-96464342D02*
X174711905Y-96559580D01*
X174711905Y-96559580D02*
X174759524Y-96607200D01*
X174759524Y-96607200D02*
X174854762Y-96654819D01*
X174854762Y-96654819D02*
X175045238Y-96654819D01*
X175045238Y-96654819D02*
X175140476Y-96607200D01*
X175140476Y-96607200D02*
X175188095Y-96559580D01*
X175188095Y-96559580D02*
X175235714Y-96464342D01*
X175235714Y-96464342D02*
X175235714Y-96226247D01*
X175235714Y-96226247D02*
X175188095Y-96131009D01*
X175188095Y-96131009D02*
X175140476Y-96083390D01*
X175140476Y-96083390D02*
X175045238Y-96035771D01*
X175045238Y-96035771D02*
X174854762Y-96035771D01*
X174854762Y-96035771D02*
X174759524Y-96083390D01*
X174759524Y-96083390D02*
X174711905Y-96131009D01*
X174711905Y-96131009D02*
X174664286Y-96226247D01*
X194489580Y-95485357D02*
X194537200Y-95532976D01*
X194537200Y-95532976D02*
X194584819Y-95675833D01*
X194584819Y-95675833D02*
X194584819Y-95771071D01*
X194584819Y-95771071D02*
X194537200Y-95913928D01*
X194537200Y-95913928D02*
X194441961Y-96009166D01*
X194441961Y-96009166D02*
X194346723Y-96056785D01*
X194346723Y-96056785D02*
X194156247Y-96104404D01*
X194156247Y-96104404D02*
X194013390Y-96104404D01*
X194013390Y-96104404D02*
X193822914Y-96056785D01*
X193822914Y-96056785D02*
X193727676Y-96009166D01*
X193727676Y-96009166D02*
X193632438Y-95913928D01*
X193632438Y-95913928D02*
X193584819Y-95771071D01*
X193584819Y-95771071D02*
X193584819Y-95675833D01*
X193584819Y-95675833D02*
X193632438Y-95532976D01*
X193632438Y-95532976D02*
X193680057Y-95485357D01*
X193680057Y-95104404D02*
X193632438Y-95056785D01*
X193632438Y-95056785D02*
X193584819Y-94961547D01*
X193584819Y-94961547D02*
X193584819Y-94723452D01*
X193584819Y-94723452D02*
X193632438Y-94628214D01*
X193632438Y-94628214D02*
X193680057Y-94580595D01*
X193680057Y-94580595D02*
X193775295Y-94532976D01*
X193775295Y-94532976D02*
X193870533Y-94532976D01*
X193870533Y-94532976D02*
X194013390Y-94580595D01*
X194013390Y-94580595D02*
X194584819Y-95152023D01*
X194584819Y-95152023D02*
X194584819Y-94532976D01*
X193918152Y-93675833D02*
X194584819Y-93675833D01*
X193537200Y-93913928D02*
X194251485Y-94152023D01*
X194251485Y-94152023D02*
X194251485Y-93532976D01*
X174283333Y-95154819D02*
X173950000Y-94678628D01*
X173711905Y-95154819D02*
X173711905Y-94154819D01*
X173711905Y-94154819D02*
X174092857Y-94154819D01*
X174092857Y-94154819D02*
X174188095Y-94202438D01*
X174188095Y-94202438D02*
X174235714Y-94250057D01*
X174235714Y-94250057D02*
X174283333Y-94345295D01*
X174283333Y-94345295D02*
X174283333Y-94488152D01*
X174283333Y-94488152D02*
X174235714Y-94583390D01*
X174235714Y-94583390D02*
X174188095Y-94631009D01*
X174188095Y-94631009D02*
X174092857Y-94678628D01*
X174092857Y-94678628D02*
X173711905Y-94678628D01*
X174759524Y-95154819D02*
X174950000Y-95154819D01*
X174950000Y-95154819D02*
X175045238Y-95107200D01*
X175045238Y-95107200D02*
X175092857Y-95059580D01*
X175092857Y-95059580D02*
X175188095Y-94916723D01*
X175188095Y-94916723D02*
X175235714Y-94726247D01*
X175235714Y-94726247D02*
X175235714Y-94345295D01*
X175235714Y-94345295D02*
X175188095Y-94250057D01*
X175188095Y-94250057D02*
X175140476Y-94202438D01*
X175140476Y-94202438D02*
X175045238Y-94154819D01*
X175045238Y-94154819D02*
X174854762Y-94154819D01*
X174854762Y-94154819D02*
X174759524Y-94202438D01*
X174759524Y-94202438D02*
X174711905Y-94250057D01*
X174711905Y-94250057D02*
X174664286Y-94345295D01*
X174664286Y-94345295D02*
X174664286Y-94583390D01*
X174664286Y-94583390D02*
X174711905Y-94678628D01*
X174711905Y-94678628D02*
X174759524Y-94726247D01*
X174759524Y-94726247D02*
X174854762Y-94773866D01*
X174854762Y-94773866D02*
X175045238Y-94773866D01*
X175045238Y-94773866D02*
X175140476Y-94726247D01*
X175140476Y-94726247D02*
X175188095Y-94678628D01*
X175188095Y-94678628D02*
X175235714Y-94583390D01*
X179612142Y-82622319D02*
X179278809Y-82146128D01*
X179040714Y-82622319D02*
X179040714Y-81622319D01*
X179040714Y-81622319D02*
X179421666Y-81622319D01*
X179421666Y-81622319D02*
X179516904Y-81669938D01*
X179516904Y-81669938D02*
X179564523Y-81717557D01*
X179564523Y-81717557D02*
X179612142Y-81812795D01*
X179612142Y-81812795D02*
X179612142Y-81955652D01*
X179612142Y-81955652D02*
X179564523Y-82050890D01*
X179564523Y-82050890D02*
X179516904Y-82098509D01*
X179516904Y-82098509D02*
X179421666Y-82146128D01*
X179421666Y-82146128D02*
X179040714Y-82146128D01*
X180564523Y-82622319D02*
X179993095Y-82622319D01*
X180278809Y-82622319D02*
X180278809Y-81622319D01*
X180278809Y-81622319D02*
X180183571Y-81765176D01*
X180183571Y-81765176D02*
X180088333Y-81860414D01*
X180088333Y-81860414D02*
X179993095Y-81908033D01*
X181516904Y-82622319D02*
X180945476Y-82622319D01*
X181231190Y-82622319D02*
X181231190Y-81622319D01*
X181231190Y-81622319D02*
X181135952Y-81765176D01*
X181135952Y-81765176D02*
X181040714Y-81860414D01*
X181040714Y-81860414D02*
X180945476Y-81908033D01*
X162809580Y-82867857D02*
X162857200Y-82915476D01*
X162857200Y-82915476D02*
X162904819Y-83058333D01*
X162904819Y-83058333D02*
X162904819Y-83153571D01*
X162904819Y-83153571D02*
X162857200Y-83296428D01*
X162857200Y-83296428D02*
X162761961Y-83391666D01*
X162761961Y-83391666D02*
X162666723Y-83439285D01*
X162666723Y-83439285D02*
X162476247Y-83486904D01*
X162476247Y-83486904D02*
X162333390Y-83486904D01*
X162333390Y-83486904D02*
X162142914Y-83439285D01*
X162142914Y-83439285D02*
X162047676Y-83391666D01*
X162047676Y-83391666D02*
X161952438Y-83296428D01*
X161952438Y-83296428D02*
X161904819Y-83153571D01*
X161904819Y-83153571D02*
X161904819Y-83058333D01*
X161904819Y-83058333D02*
X161952438Y-82915476D01*
X161952438Y-82915476D02*
X162000057Y-82867857D01*
X162000057Y-82486904D02*
X161952438Y-82439285D01*
X161952438Y-82439285D02*
X161904819Y-82344047D01*
X161904819Y-82344047D02*
X161904819Y-82105952D01*
X161904819Y-82105952D02*
X161952438Y-82010714D01*
X161952438Y-82010714D02*
X162000057Y-81963095D01*
X162000057Y-81963095D02*
X162095295Y-81915476D01*
X162095295Y-81915476D02*
X162190533Y-81915476D01*
X162190533Y-81915476D02*
X162333390Y-81963095D01*
X162333390Y-81963095D02*
X162904819Y-82534523D01*
X162904819Y-82534523D02*
X162904819Y-81915476D01*
X161904819Y-81010714D02*
X161904819Y-81486904D01*
X161904819Y-81486904D02*
X162381009Y-81534523D01*
X162381009Y-81534523D02*
X162333390Y-81486904D01*
X162333390Y-81486904D02*
X162285771Y-81391666D01*
X162285771Y-81391666D02*
X162285771Y-81153571D01*
X162285771Y-81153571D02*
X162333390Y-81058333D01*
X162333390Y-81058333D02*
X162381009Y-81010714D01*
X162381009Y-81010714D02*
X162476247Y-80963095D01*
X162476247Y-80963095D02*
X162714342Y-80963095D01*
X162714342Y-80963095D02*
X162809580Y-81010714D01*
X162809580Y-81010714D02*
X162857200Y-81058333D01*
X162857200Y-81058333D02*
X162904819Y-81153571D01*
X162904819Y-81153571D02*
X162904819Y-81391666D01*
X162904819Y-81391666D02*
X162857200Y-81486904D01*
X162857200Y-81486904D02*
X162809580Y-81534523D01*
X134159580Y-58466666D02*
X134207200Y-58514285D01*
X134207200Y-58514285D02*
X134254819Y-58657142D01*
X134254819Y-58657142D02*
X134254819Y-58752380D01*
X134254819Y-58752380D02*
X134207200Y-58895237D01*
X134207200Y-58895237D02*
X134111961Y-58990475D01*
X134111961Y-58990475D02*
X134016723Y-59038094D01*
X134016723Y-59038094D02*
X133826247Y-59085713D01*
X133826247Y-59085713D02*
X133683390Y-59085713D01*
X133683390Y-59085713D02*
X133492914Y-59038094D01*
X133492914Y-59038094D02*
X133397676Y-58990475D01*
X133397676Y-58990475D02*
X133302438Y-58895237D01*
X133302438Y-58895237D02*
X133254819Y-58752380D01*
X133254819Y-58752380D02*
X133254819Y-58657142D01*
X133254819Y-58657142D02*
X133302438Y-58514285D01*
X133302438Y-58514285D02*
X133350057Y-58466666D01*
X133683390Y-57895237D02*
X133635771Y-57990475D01*
X133635771Y-57990475D02*
X133588152Y-58038094D01*
X133588152Y-58038094D02*
X133492914Y-58085713D01*
X133492914Y-58085713D02*
X133445295Y-58085713D01*
X133445295Y-58085713D02*
X133350057Y-58038094D01*
X133350057Y-58038094D02*
X133302438Y-57990475D01*
X133302438Y-57990475D02*
X133254819Y-57895237D01*
X133254819Y-57895237D02*
X133254819Y-57704761D01*
X133254819Y-57704761D02*
X133302438Y-57609523D01*
X133302438Y-57609523D02*
X133350057Y-57561904D01*
X133350057Y-57561904D02*
X133445295Y-57514285D01*
X133445295Y-57514285D02*
X133492914Y-57514285D01*
X133492914Y-57514285D02*
X133588152Y-57561904D01*
X133588152Y-57561904D02*
X133635771Y-57609523D01*
X133635771Y-57609523D02*
X133683390Y-57704761D01*
X133683390Y-57704761D02*
X133683390Y-57895237D01*
X133683390Y-57895237D02*
X133731009Y-57990475D01*
X133731009Y-57990475D02*
X133778628Y-58038094D01*
X133778628Y-58038094D02*
X133873866Y-58085713D01*
X133873866Y-58085713D02*
X134064342Y-58085713D01*
X134064342Y-58085713D02*
X134159580Y-58038094D01*
X134159580Y-58038094D02*
X134207200Y-57990475D01*
X134207200Y-57990475D02*
X134254819Y-57895237D01*
X134254819Y-57895237D02*
X134254819Y-57704761D01*
X134254819Y-57704761D02*
X134207200Y-57609523D01*
X134207200Y-57609523D02*
X134159580Y-57561904D01*
X134159580Y-57561904D02*
X134064342Y-57514285D01*
X134064342Y-57514285D02*
X133873866Y-57514285D01*
X133873866Y-57514285D02*
X133778628Y-57561904D01*
X133778628Y-57561904D02*
X133731009Y-57609523D01*
X133731009Y-57609523D02*
X133683390Y-57704761D01*
X155254819Y-44476189D02*
X154254819Y-44476189D01*
X155159580Y-43428571D02*
X155207200Y-43476190D01*
X155207200Y-43476190D02*
X155254819Y-43619047D01*
X155254819Y-43619047D02*
X155254819Y-43714285D01*
X155254819Y-43714285D02*
X155207200Y-43857142D01*
X155207200Y-43857142D02*
X155111961Y-43952380D01*
X155111961Y-43952380D02*
X155016723Y-43999999D01*
X155016723Y-43999999D02*
X154826247Y-44047618D01*
X154826247Y-44047618D02*
X154683390Y-44047618D01*
X154683390Y-44047618D02*
X154492914Y-43999999D01*
X154492914Y-43999999D02*
X154397676Y-43952380D01*
X154397676Y-43952380D02*
X154302438Y-43857142D01*
X154302438Y-43857142D02*
X154254819Y-43714285D01*
X154254819Y-43714285D02*
X154254819Y-43619047D01*
X154254819Y-43619047D02*
X154302438Y-43476190D01*
X154302438Y-43476190D02*
X154350057Y-43428571D01*
X154683390Y-42857142D02*
X154635771Y-42952380D01*
X154635771Y-42952380D02*
X154588152Y-42999999D01*
X154588152Y-42999999D02*
X154492914Y-43047618D01*
X154492914Y-43047618D02*
X154445295Y-43047618D01*
X154445295Y-43047618D02*
X154350057Y-42999999D01*
X154350057Y-42999999D02*
X154302438Y-42952380D01*
X154302438Y-42952380D02*
X154254819Y-42857142D01*
X154254819Y-42857142D02*
X154254819Y-42666666D01*
X154254819Y-42666666D02*
X154302438Y-42571428D01*
X154302438Y-42571428D02*
X154350057Y-42523809D01*
X154350057Y-42523809D02*
X154445295Y-42476190D01*
X154445295Y-42476190D02*
X154492914Y-42476190D01*
X154492914Y-42476190D02*
X154588152Y-42523809D01*
X154588152Y-42523809D02*
X154635771Y-42571428D01*
X154635771Y-42571428D02*
X154683390Y-42666666D01*
X154683390Y-42666666D02*
X154683390Y-42857142D01*
X154683390Y-42857142D02*
X154731009Y-42952380D01*
X154731009Y-42952380D02*
X154778628Y-42999999D01*
X154778628Y-42999999D02*
X154873866Y-43047618D01*
X154873866Y-43047618D02*
X155064342Y-43047618D01*
X155064342Y-43047618D02*
X155159580Y-42999999D01*
X155159580Y-42999999D02*
X155207200Y-42952380D01*
X155207200Y-42952380D02*
X155254819Y-42857142D01*
X155254819Y-42857142D02*
X155254819Y-42666666D01*
X155254819Y-42666666D02*
X155207200Y-42571428D01*
X155207200Y-42571428D02*
X155159580Y-42523809D01*
X155159580Y-42523809D02*
X155064342Y-42476190D01*
X155064342Y-42476190D02*
X154873866Y-42476190D01*
X154873866Y-42476190D02*
X154778628Y-42523809D01*
X154778628Y-42523809D02*
X154731009Y-42571428D01*
X154731009Y-42571428D02*
X154683390Y-42666666D01*
X116289580Y-92308857D02*
X116337200Y-92356476D01*
X116337200Y-92356476D02*
X116384819Y-92499333D01*
X116384819Y-92499333D02*
X116384819Y-92594571D01*
X116384819Y-92594571D02*
X116337200Y-92737428D01*
X116337200Y-92737428D02*
X116241961Y-92832666D01*
X116241961Y-92832666D02*
X116146723Y-92880285D01*
X116146723Y-92880285D02*
X115956247Y-92927904D01*
X115956247Y-92927904D02*
X115813390Y-92927904D01*
X115813390Y-92927904D02*
X115622914Y-92880285D01*
X115622914Y-92880285D02*
X115527676Y-92832666D01*
X115527676Y-92832666D02*
X115432438Y-92737428D01*
X115432438Y-92737428D02*
X115384819Y-92594571D01*
X115384819Y-92594571D02*
X115384819Y-92499333D01*
X115384819Y-92499333D02*
X115432438Y-92356476D01*
X115432438Y-92356476D02*
X115480057Y-92308857D01*
X115480057Y-91927904D02*
X115432438Y-91880285D01*
X115432438Y-91880285D02*
X115384819Y-91785047D01*
X115384819Y-91785047D02*
X115384819Y-91546952D01*
X115384819Y-91546952D02*
X115432438Y-91451714D01*
X115432438Y-91451714D02*
X115480057Y-91404095D01*
X115480057Y-91404095D02*
X115575295Y-91356476D01*
X115575295Y-91356476D02*
X115670533Y-91356476D01*
X115670533Y-91356476D02*
X115813390Y-91404095D01*
X115813390Y-91404095D02*
X116384819Y-91975523D01*
X116384819Y-91975523D02*
X116384819Y-91356476D01*
X116384819Y-90880285D02*
X116384819Y-90689809D01*
X116384819Y-90689809D02*
X116337200Y-90594571D01*
X116337200Y-90594571D02*
X116289580Y-90546952D01*
X116289580Y-90546952D02*
X116146723Y-90451714D01*
X116146723Y-90451714D02*
X115956247Y-90404095D01*
X115956247Y-90404095D02*
X115575295Y-90404095D01*
X115575295Y-90404095D02*
X115480057Y-90451714D01*
X115480057Y-90451714D02*
X115432438Y-90499333D01*
X115432438Y-90499333D02*
X115384819Y-90594571D01*
X115384819Y-90594571D02*
X115384819Y-90785047D01*
X115384819Y-90785047D02*
X115432438Y-90880285D01*
X115432438Y-90880285D02*
X115480057Y-90927904D01*
X115480057Y-90927904D02*
X115575295Y-90975523D01*
X115575295Y-90975523D02*
X115813390Y-90975523D01*
X115813390Y-90975523D02*
X115908628Y-90927904D01*
X115908628Y-90927904D02*
X115956247Y-90880285D01*
X115956247Y-90880285D02*
X116003866Y-90785047D01*
X116003866Y-90785047D02*
X116003866Y-90594571D01*
X116003866Y-90594571D02*
X115956247Y-90499333D01*
X115956247Y-90499333D02*
X115908628Y-90451714D01*
X115908628Y-90451714D02*
X115813390Y-90404095D01*
X116357142Y-80244819D02*
X116023809Y-79768628D01*
X115785714Y-80244819D02*
X115785714Y-79244819D01*
X115785714Y-79244819D02*
X116166666Y-79244819D01*
X116166666Y-79244819D02*
X116261904Y-79292438D01*
X116261904Y-79292438D02*
X116309523Y-79340057D01*
X116309523Y-79340057D02*
X116357142Y-79435295D01*
X116357142Y-79435295D02*
X116357142Y-79578152D01*
X116357142Y-79578152D02*
X116309523Y-79673390D01*
X116309523Y-79673390D02*
X116261904Y-79721009D01*
X116261904Y-79721009D02*
X116166666Y-79768628D01*
X116166666Y-79768628D02*
X115785714Y-79768628D01*
X117309523Y-80244819D02*
X116738095Y-80244819D01*
X117023809Y-80244819D02*
X117023809Y-79244819D01*
X117023809Y-79244819D02*
X116928571Y-79387676D01*
X116928571Y-79387676D02*
X116833333Y-79482914D01*
X116833333Y-79482914D02*
X116738095Y-79530533D01*
X117880952Y-79673390D02*
X117785714Y-79625771D01*
X117785714Y-79625771D02*
X117738095Y-79578152D01*
X117738095Y-79578152D02*
X117690476Y-79482914D01*
X117690476Y-79482914D02*
X117690476Y-79435295D01*
X117690476Y-79435295D02*
X117738095Y-79340057D01*
X117738095Y-79340057D02*
X117785714Y-79292438D01*
X117785714Y-79292438D02*
X117880952Y-79244819D01*
X117880952Y-79244819D02*
X118071428Y-79244819D01*
X118071428Y-79244819D02*
X118166666Y-79292438D01*
X118166666Y-79292438D02*
X118214285Y-79340057D01*
X118214285Y-79340057D02*
X118261904Y-79435295D01*
X118261904Y-79435295D02*
X118261904Y-79482914D01*
X118261904Y-79482914D02*
X118214285Y-79578152D01*
X118214285Y-79578152D02*
X118166666Y-79625771D01*
X118166666Y-79625771D02*
X118071428Y-79673390D01*
X118071428Y-79673390D02*
X117880952Y-79673390D01*
X117880952Y-79673390D02*
X117785714Y-79721009D01*
X117785714Y-79721009D02*
X117738095Y-79768628D01*
X117738095Y-79768628D02*
X117690476Y-79863866D01*
X117690476Y-79863866D02*
X117690476Y-80054342D01*
X117690476Y-80054342D02*
X117738095Y-80149580D01*
X117738095Y-80149580D02*
X117785714Y-80197200D01*
X117785714Y-80197200D02*
X117880952Y-80244819D01*
X117880952Y-80244819D02*
X118071428Y-80244819D01*
X118071428Y-80244819D02*
X118166666Y-80197200D01*
X118166666Y-80197200D02*
X118214285Y-80149580D01*
X118214285Y-80149580D02*
X118261904Y-80054342D01*
X118261904Y-80054342D02*
X118261904Y-79863866D01*
X118261904Y-79863866D02*
X118214285Y-79768628D01*
X118214285Y-79768628D02*
X118166666Y-79721009D01*
X118166666Y-79721009D02*
X118071428Y-79673390D01*
X143557142Y-114523069D02*
X143223809Y-114046878D01*
X142985714Y-114523069D02*
X142985714Y-113523069D01*
X142985714Y-113523069D02*
X143366666Y-113523069D01*
X143366666Y-113523069D02*
X143461904Y-113570688D01*
X143461904Y-113570688D02*
X143509523Y-113618307D01*
X143509523Y-113618307D02*
X143557142Y-113713545D01*
X143557142Y-113713545D02*
X143557142Y-113856402D01*
X143557142Y-113856402D02*
X143509523Y-113951640D01*
X143509523Y-113951640D02*
X143461904Y-113999259D01*
X143461904Y-113999259D02*
X143366666Y-114046878D01*
X143366666Y-114046878D02*
X142985714Y-114046878D01*
X143938095Y-113618307D02*
X143985714Y-113570688D01*
X143985714Y-113570688D02*
X144080952Y-113523069D01*
X144080952Y-113523069D02*
X144319047Y-113523069D01*
X144319047Y-113523069D02*
X144414285Y-113570688D01*
X144414285Y-113570688D02*
X144461904Y-113618307D01*
X144461904Y-113618307D02*
X144509523Y-113713545D01*
X144509523Y-113713545D02*
X144509523Y-113808783D01*
X144509523Y-113808783D02*
X144461904Y-113951640D01*
X144461904Y-113951640D02*
X143890476Y-114523069D01*
X143890476Y-114523069D02*
X144509523Y-114523069D01*
X145461904Y-114523069D02*
X144890476Y-114523069D01*
X145176190Y-114523069D02*
X145176190Y-113523069D01*
X145176190Y-113523069D02*
X145080952Y-113665926D01*
X145080952Y-113665926D02*
X144985714Y-113761164D01*
X144985714Y-113761164D02*
X144890476Y-113808783D01*
X180559580Y-95485357D02*
X180607200Y-95532976D01*
X180607200Y-95532976D02*
X180654819Y-95675833D01*
X180654819Y-95675833D02*
X180654819Y-95771071D01*
X180654819Y-95771071D02*
X180607200Y-95913928D01*
X180607200Y-95913928D02*
X180511961Y-96009166D01*
X180511961Y-96009166D02*
X180416723Y-96056785D01*
X180416723Y-96056785D02*
X180226247Y-96104404D01*
X180226247Y-96104404D02*
X180083390Y-96104404D01*
X180083390Y-96104404D02*
X179892914Y-96056785D01*
X179892914Y-96056785D02*
X179797676Y-96009166D01*
X179797676Y-96009166D02*
X179702438Y-95913928D01*
X179702438Y-95913928D02*
X179654819Y-95771071D01*
X179654819Y-95771071D02*
X179654819Y-95675833D01*
X179654819Y-95675833D02*
X179702438Y-95532976D01*
X179702438Y-95532976D02*
X179750057Y-95485357D01*
X179750057Y-95104404D02*
X179702438Y-95056785D01*
X179702438Y-95056785D02*
X179654819Y-94961547D01*
X179654819Y-94961547D02*
X179654819Y-94723452D01*
X179654819Y-94723452D02*
X179702438Y-94628214D01*
X179702438Y-94628214D02*
X179750057Y-94580595D01*
X179750057Y-94580595D02*
X179845295Y-94532976D01*
X179845295Y-94532976D02*
X179940533Y-94532976D01*
X179940533Y-94532976D02*
X180083390Y-94580595D01*
X180083390Y-94580595D02*
X180654819Y-95152023D01*
X180654819Y-95152023D02*
X180654819Y-94532976D01*
X179654819Y-93675833D02*
X179654819Y-93866309D01*
X179654819Y-93866309D02*
X179702438Y-93961547D01*
X179702438Y-93961547D02*
X179750057Y-94009166D01*
X179750057Y-94009166D02*
X179892914Y-94104404D01*
X179892914Y-94104404D02*
X180083390Y-94152023D01*
X180083390Y-94152023D02*
X180464342Y-94152023D01*
X180464342Y-94152023D02*
X180559580Y-94104404D01*
X180559580Y-94104404D02*
X180607200Y-94056785D01*
X180607200Y-94056785D02*
X180654819Y-93961547D01*
X180654819Y-93961547D02*
X180654819Y-93771071D01*
X180654819Y-93771071D02*
X180607200Y-93675833D01*
X180607200Y-93675833D02*
X180559580Y-93628214D01*
X180559580Y-93628214D02*
X180464342Y-93580595D01*
X180464342Y-93580595D02*
X180226247Y-93580595D01*
X180226247Y-93580595D02*
X180131009Y-93628214D01*
X180131009Y-93628214D02*
X180083390Y-93675833D01*
X180083390Y-93675833D02*
X180035771Y-93771071D01*
X180035771Y-93771071D02*
X180035771Y-93961547D01*
X180035771Y-93961547D02*
X180083390Y-94056785D01*
X180083390Y-94056785D02*
X180131009Y-94104404D01*
X180131009Y-94104404D02*
X180226247Y-94152023D01*
X144957142Y-44729580D02*
X144909523Y-44777200D01*
X144909523Y-44777200D02*
X144766666Y-44824819D01*
X144766666Y-44824819D02*
X144671428Y-44824819D01*
X144671428Y-44824819D02*
X144528571Y-44777200D01*
X144528571Y-44777200D02*
X144433333Y-44681961D01*
X144433333Y-44681961D02*
X144385714Y-44586723D01*
X144385714Y-44586723D02*
X144338095Y-44396247D01*
X144338095Y-44396247D02*
X144338095Y-44253390D01*
X144338095Y-44253390D02*
X144385714Y-44062914D01*
X144385714Y-44062914D02*
X144433333Y-43967676D01*
X144433333Y-43967676D02*
X144528571Y-43872438D01*
X144528571Y-43872438D02*
X144671428Y-43824819D01*
X144671428Y-43824819D02*
X144766666Y-43824819D01*
X144766666Y-43824819D02*
X144909523Y-43872438D01*
X144909523Y-43872438D02*
X144957142Y-43920057D01*
X145290476Y-43824819D02*
X145909523Y-43824819D01*
X145909523Y-43824819D02*
X145576190Y-44205771D01*
X145576190Y-44205771D02*
X145719047Y-44205771D01*
X145719047Y-44205771D02*
X145814285Y-44253390D01*
X145814285Y-44253390D02*
X145861904Y-44301009D01*
X145861904Y-44301009D02*
X145909523Y-44396247D01*
X145909523Y-44396247D02*
X145909523Y-44634342D01*
X145909523Y-44634342D02*
X145861904Y-44729580D01*
X145861904Y-44729580D02*
X145814285Y-44777200D01*
X145814285Y-44777200D02*
X145719047Y-44824819D01*
X145719047Y-44824819D02*
X145433333Y-44824819D01*
X145433333Y-44824819D02*
X145338095Y-44777200D01*
X145338095Y-44777200D02*
X145290476Y-44729580D01*
X146766666Y-44158152D02*
X146766666Y-44824819D01*
X146528571Y-43777200D02*
X146290476Y-44491485D01*
X146290476Y-44491485D02*
X146909523Y-44491485D01*
X134957142Y-40459580D02*
X134909523Y-40507200D01*
X134909523Y-40507200D02*
X134766666Y-40554819D01*
X134766666Y-40554819D02*
X134671428Y-40554819D01*
X134671428Y-40554819D02*
X134528571Y-40507200D01*
X134528571Y-40507200D02*
X134433333Y-40411961D01*
X134433333Y-40411961D02*
X134385714Y-40316723D01*
X134385714Y-40316723D02*
X134338095Y-40126247D01*
X134338095Y-40126247D02*
X134338095Y-39983390D01*
X134338095Y-39983390D02*
X134385714Y-39792914D01*
X134385714Y-39792914D02*
X134433333Y-39697676D01*
X134433333Y-39697676D02*
X134528571Y-39602438D01*
X134528571Y-39602438D02*
X134671428Y-39554819D01*
X134671428Y-39554819D02*
X134766666Y-39554819D01*
X134766666Y-39554819D02*
X134909523Y-39602438D01*
X134909523Y-39602438D02*
X134957142Y-39650057D01*
X135290476Y-39554819D02*
X135909523Y-39554819D01*
X135909523Y-39554819D02*
X135576190Y-39935771D01*
X135576190Y-39935771D02*
X135719047Y-39935771D01*
X135719047Y-39935771D02*
X135814285Y-39983390D01*
X135814285Y-39983390D02*
X135861904Y-40031009D01*
X135861904Y-40031009D02*
X135909523Y-40126247D01*
X135909523Y-40126247D02*
X135909523Y-40364342D01*
X135909523Y-40364342D02*
X135861904Y-40459580D01*
X135861904Y-40459580D02*
X135814285Y-40507200D01*
X135814285Y-40507200D02*
X135719047Y-40554819D01*
X135719047Y-40554819D02*
X135433333Y-40554819D01*
X135433333Y-40554819D02*
X135338095Y-40507200D01*
X135338095Y-40507200D02*
X135290476Y-40459580D01*
X136766666Y-39554819D02*
X136576190Y-39554819D01*
X136576190Y-39554819D02*
X136480952Y-39602438D01*
X136480952Y-39602438D02*
X136433333Y-39650057D01*
X136433333Y-39650057D02*
X136338095Y-39792914D01*
X136338095Y-39792914D02*
X136290476Y-39983390D01*
X136290476Y-39983390D02*
X136290476Y-40364342D01*
X136290476Y-40364342D02*
X136338095Y-40459580D01*
X136338095Y-40459580D02*
X136385714Y-40507200D01*
X136385714Y-40507200D02*
X136480952Y-40554819D01*
X136480952Y-40554819D02*
X136671428Y-40554819D01*
X136671428Y-40554819D02*
X136766666Y-40507200D01*
X136766666Y-40507200D02*
X136814285Y-40459580D01*
X136814285Y-40459580D02*
X136861904Y-40364342D01*
X136861904Y-40364342D02*
X136861904Y-40126247D01*
X136861904Y-40126247D02*
X136814285Y-40031009D01*
X136814285Y-40031009D02*
X136766666Y-39983390D01*
X136766666Y-39983390D02*
X136671428Y-39935771D01*
X136671428Y-39935771D02*
X136480952Y-39935771D01*
X136480952Y-39935771D02*
X136385714Y-39983390D01*
X136385714Y-39983390D02*
X136338095Y-40031009D01*
X136338095Y-40031009D02*
X136290476Y-40126247D01*
X163407142Y-133284819D02*
X163073809Y-132808628D01*
X162835714Y-133284819D02*
X162835714Y-132284819D01*
X162835714Y-132284819D02*
X163216666Y-132284819D01*
X163216666Y-132284819D02*
X163311904Y-132332438D01*
X163311904Y-132332438D02*
X163359523Y-132380057D01*
X163359523Y-132380057D02*
X163407142Y-132475295D01*
X163407142Y-132475295D02*
X163407142Y-132618152D01*
X163407142Y-132618152D02*
X163359523Y-132713390D01*
X163359523Y-132713390D02*
X163311904Y-132761009D01*
X163311904Y-132761009D02*
X163216666Y-132808628D01*
X163216666Y-132808628D02*
X162835714Y-132808628D01*
X163788095Y-132380057D02*
X163835714Y-132332438D01*
X163835714Y-132332438D02*
X163930952Y-132284819D01*
X163930952Y-132284819D02*
X164169047Y-132284819D01*
X164169047Y-132284819D02*
X164264285Y-132332438D01*
X164264285Y-132332438D02*
X164311904Y-132380057D01*
X164311904Y-132380057D02*
X164359523Y-132475295D01*
X164359523Y-132475295D02*
X164359523Y-132570533D01*
X164359523Y-132570533D02*
X164311904Y-132713390D01*
X164311904Y-132713390D02*
X163740476Y-133284819D01*
X163740476Y-133284819D02*
X164359523Y-133284819D01*
X164978571Y-132284819D02*
X165073809Y-132284819D01*
X165073809Y-132284819D02*
X165169047Y-132332438D01*
X165169047Y-132332438D02*
X165216666Y-132380057D01*
X165216666Y-132380057D02*
X165264285Y-132475295D01*
X165264285Y-132475295D02*
X165311904Y-132665771D01*
X165311904Y-132665771D02*
X165311904Y-132903866D01*
X165311904Y-132903866D02*
X165264285Y-133094342D01*
X165264285Y-133094342D02*
X165216666Y-133189580D01*
X165216666Y-133189580D02*
X165169047Y-133237200D01*
X165169047Y-133237200D02*
X165073809Y-133284819D01*
X165073809Y-133284819D02*
X164978571Y-133284819D01*
X164978571Y-133284819D02*
X164883333Y-133237200D01*
X164883333Y-133237200D02*
X164835714Y-133189580D01*
X164835714Y-133189580D02*
X164788095Y-133094342D01*
X164788095Y-133094342D02*
X164740476Y-132903866D01*
X164740476Y-132903866D02*
X164740476Y-132665771D01*
X164740476Y-132665771D02*
X164788095Y-132475295D01*
X164788095Y-132475295D02*
X164835714Y-132380057D01*
X164835714Y-132380057D02*
X164883333Y-132332438D01*
X164883333Y-132332438D02*
X164978571Y-132284819D01*
X167854761Y-98250057D02*
X167759523Y-98202438D01*
X167759523Y-98202438D02*
X167664285Y-98107200D01*
X167664285Y-98107200D02*
X167521428Y-97964342D01*
X167521428Y-97964342D02*
X167426190Y-97916723D01*
X167426190Y-97916723D02*
X167330952Y-97916723D01*
X167378571Y-98154819D02*
X167283333Y-98107200D01*
X167283333Y-98107200D02*
X167188095Y-98011961D01*
X167188095Y-98011961D02*
X167140476Y-97821485D01*
X167140476Y-97821485D02*
X167140476Y-97488152D01*
X167140476Y-97488152D02*
X167188095Y-97297676D01*
X167188095Y-97297676D02*
X167283333Y-97202438D01*
X167283333Y-97202438D02*
X167378571Y-97154819D01*
X167378571Y-97154819D02*
X167569047Y-97154819D01*
X167569047Y-97154819D02*
X167664285Y-97202438D01*
X167664285Y-97202438D02*
X167759523Y-97297676D01*
X167759523Y-97297676D02*
X167807142Y-97488152D01*
X167807142Y-97488152D02*
X167807142Y-97821485D01*
X167807142Y-97821485D02*
X167759523Y-98011961D01*
X167759523Y-98011961D02*
X167664285Y-98107200D01*
X167664285Y-98107200D02*
X167569047Y-98154819D01*
X167569047Y-98154819D02*
X167378571Y-98154819D01*
X168759523Y-98154819D02*
X168188095Y-98154819D01*
X168473809Y-98154819D02*
X168473809Y-97154819D01*
X168473809Y-97154819D02*
X168378571Y-97297676D01*
X168378571Y-97297676D02*
X168283333Y-97392914D01*
X168283333Y-97392914D02*
X168188095Y-97440533D01*
X132866667Y-64807200D02*
X133009524Y-64854819D01*
X133009524Y-64854819D02*
X133247619Y-64854819D01*
X133247619Y-64854819D02*
X133342857Y-64807200D01*
X133342857Y-64807200D02*
X133390476Y-64759580D01*
X133390476Y-64759580D02*
X133438095Y-64664342D01*
X133438095Y-64664342D02*
X133438095Y-64569104D01*
X133438095Y-64569104D02*
X133390476Y-64473866D01*
X133390476Y-64473866D02*
X133342857Y-64426247D01*
X133342857Y-64426247D02*
X133247619Y-64378628D01*
X133247619Y-64378628D02*
X133057143Y-64331009D01*
X133057143Y-64331009D02*
X132961905Y-64283390D01*
X132961905Y-64283390D02*
X132914286Y-64235771D01*
X132914286Y-64235771D02*
X132866667Y-64140533D01*
X132866667Y-64140533D02*
X132866667Y-64045295D01*
X132866667Y-64045295D02*
X132914286Y-63950057D01*
X132914286Y-63950057D02*
X132961905Y-63902438D01*
X132961905Y-63902438D02*
X133057143Y-63854819D01*
X133057143Y-63854819D02*
X133295238Y-63854819D01*
X133295238Y-63854819D02*
X133438095Y-63902438D01*
X133771429Y-63854819D02*
X134009524Y-64854819D01*
X134009524Y-64854819D02*
X134200000Y-64140533D01*
X134200000Y-64140533D02*
X134390476Y-64854819D01*
X134390476Y-64854819D02*
X134628572Y-63854819D01*
X134961905Y-63950057D02*
X135009524Y-63902438D01*
X135009524Y-63902438D02*
X135104762Y-63854819D01*
X135104762Y-63854819D02*
X135342857Y-63854819D01*
X135342857Y-63854819D02*
X135438095Y-63902438D01*
X135438095Y-63902438D02*
X135485714Y-63950057D01*
X135485714Y-63950057D02*
X135533333Y-64045295D01*
X135533333Y-64045295D02*
X135533333Y-64140533D01*
X135533333Y-64140533D02*
X135485714Y-64283390D01*
X135485714Y-64283390D02*
X134914286Y-64854819D01*
X134914286Y-64854819D02*
X135533333Y-64854819D01*
X174207142Y-93599580D02*
X174159523Y-93647200D01*
X174159523Y-93647200D02*
X174016666Y-93694819D01*
X174016666Y-93694819D02*
X173921428Y-93694819D01*
X173921428Y-93694819D02*
X173778571Y-93647200D01*
X173778571Y-93647200D02*
X173683333Y-93551961D01*
X173683333Y-93551961D02*
X173635714Y-93456723D01*
X173635714Y-93456723D02*
X173588095Y-93266247D01*
X173588095Y-93266247D02*
X173588095Y-93123390D01*
X173588095Y-93123390D02*
X173635714Y-92932914D01*
X173635714Y-92932914D02*
X173683333Y-92837676D01*
X173683333Y-92837676D02*
X173778571Y-92742438D01*
X173778571Y-92742438D02*
X173921428Y-92694819D01*
X173921428Y-92694819D02*
X174016666Y-92694819D01*
X174016666Y-92694819D02*
X174159523Y-92742438D01*
X174159523Y-92742438D02*
X174207142Y-92790057D01*
X174588095Y-92790057D02*
X174635714Y-92742438D01*
X174635714Y-92742438D02*
X174730952Y-92694819D01*
X174730952Y-92694819D02*
X174969047Y-92694819D01*
X174969047Y-92694819D02*
X175064285Y-92742438D01*
X175064285Y-92742438D02*
X175111904Y-92790057D01*
X175111904Y-92790057D02*
X175159523Y-92885295D01*
X175159523Y-92885295D02*
X175159523Y-92980533D01*
X175159523Y-92980533D02*
X175111904Y-93123390D01*
X175111904Y-93123390D02*
X174540476Y-93694819D01*
X174540476Y-93694819D02*
X175159523Y-93694819D01*
X176111904Y-93694819D02*
X175540476Y-93694819D01*
X175826190Y-93694819D02*
X175826190Y-92694819D01*
X175826190Y-92694819D02*
X175730952Y-92837676D01*
X175730952Y-92837676D02*
X175635714Y-92932914D01*
X175635714Y-92932914D02*
X175540476Y-92980533D01*
X161347619Y-127354819D02*
X161347619Y-126354819D01*
X162395237Y-127259580D02*
X162347618Y-127307200D01*
X162347618Y-127307200D02*
X162204761Y-127354819D01*
X162204761Y-127354819D02*
X162109523Y-127354819D01*
X162109523Y-127354819D02*
X161966666Y-127307200D01*
X161966666Y-127307200D02*
X161871428Y-127211961D01*
X161871428Y-127211961D02*
X161823809Y-127116723D01*
X161823809Y-127116723D02*
X161776190Y-126926247D01*
X161776190Y-126926247D02*
X161776190Y-126783390D01*
X161776190Y-126783390D02*
X161823809Y-126592914D01*
X161823809Y-126592914D02*
X161871428Y-126497676D01*
X161871428Y-126497676D02*
X161966666Y-126402438D01*
X161966666Y-126402438D02*
X162109523Y-126354819D01*
X162109523Y-126354819D02*
X162204761Y-126354819D01*
X162204761Y-126354819D02*
X162347618Y-126402438D01*
X162347618Y-126402438D02*
X162395237Y-126450057D01*
X163347618Y-127354819D02*
X162776190Y-127354819D01*
X163061904Y-127354819D02*
X163061904Y-126354819D01*
X163061904Y-126354819D02*
X162966666Y-126497676D01*
X162966666Y-126497676D02*
X162871428Y-126592914D01*
X162871428Y-126592914D02*
X162776190Y-126640533D01*
X163966666Y-126354819D02*
X164061904Y-126354819D01*
X164061904Y-126354819D02*
X164157142Y-126402438D01*
X164157142Y-126402438D02*
X164204761Y-126450057D01*
X164204761Y-126450057D02*
X164252380Y-126545295D01*
X164252380Y-126545295D02*
X164299999Y-126735771D01*
X164299999Y-126735771D02*
X164299999Y-126973866D01*
X164299999Y-126973866D02*
X164252380Y-127164342D01*
X164252380Y-127164342D02*
X164204761Y-127259580D01*
X164204761Y-127259580D02*
X164157142Y-127307200D01*
X164157142Y-127307200D02*
X164061904Y-127354819D01*
X164061904Y-127354819D02*
X163966666Y-127354819D01*
X163966666Y-127354819D02*
X163871428Y-127307200D01*
X163871428Y-127307200D02*
X163823809Y-127259580D01*
X163823809Y-127259580D02*
X163776190Y-127164342D01*
X163776190Y-127164342D02*
X163728571Y-126973866D01*
X163728571Y-126973866D02*
X163728571Y-126735771D01*
X163728571Y-126735771D02*
X163776190Y-126545295D01*
X163776190Y-126545295D02*
X163823809Y-126450057D01*
X163823809Y-126450057D02*
X163871428Y-126402438D01*
X163871428Y-126402438D02*
X163966666Y-126354819D01*
X160407142Y-133284819D02*
X160073809Y-132808628D01*
X159835714Y-133284819D02*
X159835714Y-132284819D01*
X159835714Y-132284819D02*
X160216666Y-132284819D01*
X160216666Y-132284819D02*
X160311904Y-132332438D01*
X160311904Y-132332438D02*
X160359523Y-132380057D01*
X160359523Y-132380057D02*
X160407142Y-132475295D01*
X160407142Y-132475295D02*
X160407142Y-132618152D01*
X160407142Y-132618152D02*
X160359523Y-132713390D01*
X160359523Y-132713390D02*
X160311904Y-132761009D01*
X160311904Y-132761009D02*
X160216666Y-132808628D01*
X160216666Y-132808628D02*
X159835714Y-132808628D01*
X161359523Y-133284819D02*
X160788095Y-133284819D01*
X161073809Y-133284819D02*
X161073809Y-132284819D01*
X161073809Y-132284819D02*
X160978571Y-132427676D01*
X160978571Y-132427676D02*
X160883333Y-132522914D01*
X160883333Y-132522914D02*
X160788095Y-132570533D01*
X161835714Y-133284819D02*
X162026190Y-133284819D01*
X162026190Y-133284819D02*
X162121428Y-133237200D01*
X162121428Y-133237200D02*
X162169047Y-133189580D01*
X162169047Y-133189580D02*
X162264285Y-133046723D01*
X162264285Y-133046723D02*
X162311904Y-132856247D01*
X162311904Y-132856247D02*
X162311904Y-132475295D01*
X162311904Y-132475295D02*
X162264285Y-132380057D01*
X162264285Y-132380057D02*
X162216666Y-132332438D01*
X162216666Y-132332438D02*
X162121428Y-132284819D01*
X162121428Y-132284819D02*
X161930952Y-132284819D01*
X161930952Y-132284819D02*
X161835714Y-132332438D01*
X161835714Y-132332438D02*
X161788095Y-132380057D01*
X161788095Y-132380057D02*
X161740476Y-132475295D01*
X161740476Y-132475295D02*
X161740476Y-132713390D01*
X161740476Y-132713390D02*
X161788095Y-132808628D01*
X161788095Y-132808628D02*
X161835714Y-132856247D01*
X161835714Y-132856247D02*
X161930952Y-132903866D01*
X161930952Y-132903866D02*
X162121428Y-132903866D01*
X162121428Y-132903866D02*
X162216666Y-132856247D01*
X162216666Y-132856247D02*
X162264285Y-132808628D01*
X162264285Y-132808628D02*
X162311904Y-132713390D01*
X116357142Y-78224819D02*
X116023809Y-77748628D01*
X115785714Y-78224819D02*
X115785714Y-77224819D01*
X115785714Y-77224819D02*
X116166666Y-77224819D01*
X116166666Y-77224819D02*
X116261904Y-77272438D01*
X116261904Y-77272438D02*
X116309523Y-77320057D01*
X116309523Y-77320057D02*
X116357142Y-77415295D01*
X116357142Y-77415295D02*
X116357142Y-77558152D01*
X116357142Y-77558152D02*
X116309523Y-77653390D01*
X116309523Y-77653390D02*
X116261904Y-77701009D01*
X116261904Y-77701009D02*
X116166666Y-77748628D01*
X116166666Y-77748628D02*
X115785714Y-77748628D01*
X117309523Y-78224819D02*
X116738095Y-78224819D01*
X117023809Y-78224819D02*
X117023809Y-77224819D01*
X117023809Y-77224819D02*
X116928571Y-77367676D01*
X116928571Y-77367676D02*
X116833333Y-77462914D01*
X116833333Y-77462914D02*
X116738095Y-77510533D01*
X118166666Y-77224819D02*
X117976190Y-77224819D01*
X117976190Y-77224819D02*
X117880952Y-77272438D01*
X117880952Y-77272438D02*
X117833333Y-77320057D01*
X117833333Y-77320057D02*
X117738095Y-77462914D01*
X117738095Y-77462914D02*
X117690476Y-77653390D01*
X117690476Y-77653390D02*
X117690476Y-78034342D01*
X117690476Y-78034342D02*
X117738095Y-78129580D01*
X117738095Y-78129580D02*
X117785714Y-78177200D01*
X117785714Y-78177200D02*
X117880952Y-78224819D01*
X117880952Y-78224819D02*
X118071428Y-78224819D01*
X118071428Y-78224819D02*
X118166666Y-78177200D01*
X118166666Y-78177200D02*
X118214285Y-78129580D01*
X118214285Y-78129580D02*
X118261904Y-78034342D01*
X118261904Y-78034342D02*
X118261904Y-77796247D01*
X118261904Y-77796247D02*
X118214285Y-77701009D01*
X118214285Y-77701009D02*
X118166666Y-77653390D01*
X118166666Y-77653390D02*
X118071428Y-77605771D01*
X118071428Y-77605771D02*
X117880952Y-77605771D01*
X117880952Y-77605771D02*
X117785714Y-77653390D01*
X117785714Y-77653390D02*
X117738095Y-77701009D01*
X117738095Y-77701009D02*
X117690476Y-77796247D01*
X165269257Y-69095125D02*
X165336600Y-69229812D01*
X165336600Y-69229812D02*
X165504959Y-69398170D01*
X165504959Y-69398170D02*
X165605974Y-69431842D01*
X165605974Y-69431842D02*
X165673318Y-69431842D01*
X165673318Y-69431842D02*
X165774333Y-69398170D01*
X165774333Y-69398170D02*
X165841677Y-69330827D01*
X165841677Y-69330827D02*
X165875348Y-69229812D01*
X165875348Y-69229812D02*
X165875348Y-69162468D01*
X165875348Y-69162468D02*
X165841677Y-69061453D01*
X165841677Y-69061453D02*
X165740661Y-68893094D01*
X165740661Y-68893094D02*
X165706990Y-68792079D01*
X165706990Y-68792079D02*
X165706990Y-68724735D01*
X165706990Y-68724735D02*
X165740661Y-68623720D01*
X165740661Y-68623720D02*
X165808005Y-68556377D01*
X165808005Y-68556377D02*
X165909020Y-68522705D01*
X165909020Y-68522705D02*
X165976364Y-68522705D01*
X165976364Y-68522705D02*
X166077379Y-68556377D01*
X166077379Y-68556377D02*
X166245738Y-68724735D01*
X166245738Y-68724735D02*
X166313081Y-68859422D01*
X166582455Y-69061453D02*
X166043707Y-69936919D01*
X166043707Y-69936919D02*
X166683471Y-69566529D01*
X166683471Y-69566529D02*
X166313081Y-70206293D01*
X166313081Y-70206293D02*
X167188547Y-69667545D01*
X167121203Y-71014414D02*
X166717142Y-70610353D01*
X166919173Y-70812384D02*
X167626279Y-70105277D01*
X167626279Y-70105277D02*
X167457921Y-70138949D01*
X167457921Y-70138949D02*
X167323234Y-70138949D01*
X167323234Y-70138949D02*
X167222218Y-70105277D01*
X182409761Y-80217557D02*
X182314523Y-80169938D01*
X182314523Y-80169938D02*
X182219285Y-80074700D01*
X182219285Y-80074700D02*
X182076428Y-79931842D01*
X182076428Y-79931842D02*
X181981190Y-79884223D01*
X181981190Y-79884223D02*
X181885952Y-79884223D01*
X181933571Y-80122319D02*
X181838333Y-80074700D01*
X181838333Y-80074700D02*
X181743095Y-79979461D01*
X181743095Y-79979461D02*
X181695476Y-79788985D01*
X181695476Y-79788985D02*
X181695476Y-79455652D01*
X181695476Y-79455652D02*
X181743095Y-79265176D01*
X181743095Y-79265176D02*
X181838333Y-79169938D01*
X181838333Y-79169938D02*
X181933571Y-79122319D01*
X181933571Y-79122319D02*
X182124047Y-79122319D01*
X182124047Y-79122319D02*
X182219285Y-79169938D01*
X182219285Y-79169938D02*
X182314523Y-79265176D01*
X182314523Y-79265176D02*
X182362142Y-79455652D01*
X182362142Y-79455652D02*
X182362142Y-79788985D01*
X182362142Y-79788985D02*
X182314523Y-79979461D01*
X182314523Y-79979461D02*
X182219285Y-80074700D01*
X182219285Y-80074700D02*
X182124047Y-80122319D01*
X182124047Y-80122319D02*
X181933571Y-80122319D01*
X182743095Y-79217557D02*
X182790714Y-79169938D01*
X182790714Y-79169938D02*
X182885952Y-79122319D01*
X182885952Y-79122319D02*
X183124047Y-79122319D01*
X183124047Y-79122319D02*
X183219285Y-79169938D01*
X183219285Y-79169938D02*
X183266904Y-79217557D01*
X183266904Y-79217557D02*
X183314523Y-79312795D01*
X183314523Y-79312795D02*
X183314523Y-79408033D01*
X183314523Y-79408033D02*
X183266904Y-79550890D01*
X183266904Y-79550890D02*
X182695476Y-80122319D01*
X182695476Y-80122319D02*
X183314523Y-80122319D01*
X138054819Y-50776189D02*
X137054819Y-50776189D01*
X137959580Y-49728571D02*
X138007200Y-49776190D01*
X138007200Y-49776190D02*
X138054819Y-49919047D01*
X138054819Y-49919047D02*
X138054819Y-50014285D01*
X138054819Y-50014285D02*
X138007200Y-50157142D01*
X138007200Y-50157142D02*
X137911961Y-50252380D01*
X137911961Y-50252380D02*
X137816723Y-50299999D01*
X137816723Y-50299999D02*
X137626247Y-50347618D01*
X137626247Y-50347618D02*
X137483390Y-50347618D01*
X137483390Y-50347618D02*
X137292914Y-50299999D01*
X137292914Y-50299999D02*
X137197676Y-50252380D01*
X137197676Y-50252380D02*
X137102438Y-50157142D01*
X137102438Y-50157142D02*
X137054819Y-50014285D01*
X137054819Y-50014285D02*
X137054819Y-49919047D01*
X137054819Y-49919047D02*
X137102438Y-49776190D01*
X137102438Y-49776190D02*
X137150057Y-49728571D01*
X137054819Y-48823809D02*
X137054819Y-49299999D01*
X137054819Y-49299999D02*
X137531009Y-49347618D01*
X137531009Y-49347618D02*
X137483390Y-49299999D01*
X137483390Y-49299999D02*
X137435771Y-49204761D01*
X137435771Y-49204761D02*
X137435771Y-48966666D01*
X137435771Y-48966666D02*
X137483390Y-48871428D01*
X137483390Y-48871428D02*
X137531009Y-48823809D01*
X137531009Y-48823809D02*
X137626247Y-48776190D01*
X137626247Y-48776190D02*
X137864342Y-48776190D01*
X137864342Y-48776190D02*
X137959580Y-48823809D01*
X137959580Y-48823809D02*
X138007200Y-48871428D01*
X138007200Y-48871428D02*
X138054819Y-48966666D01*
X138054819Y-48966666D02*
X138054819Y-49204761D01*
X138054819Y-49204761D02*
X138007200Y-49299999D01*
X138007200Y-49299999D02*
X137959580Y-49347618D01*
D12*
X177013333Y-86986133D02*
X176780000Y-86652800D01*
X176613333Y-86986133D02*
X176613333Y-86286133D01*
X176613333Y-86286133D02*
X176880000Y-86286133D01*
X176880000Y-86286133D02*
X176946667Y-86319466D01*
X176946667Y-86319466D02*
X176980000Y-86352800D01*
X176980000Y-86352800D02*
X177013333Y-86419466D01*
X177013333Y-86419466D02*
X177013333Y-86519466D01*
X177013333Y-86519466D02*
X176980000Y-86586133D01*
X176980000Y-86586133D02*
X176946667Y-86619466D01*
X176946667Y-86619466D02*
X176880000Y-86652800D01*
X176880000Y-86652800D02*
X176613333Y-86652800D01*
X177646667Y-86286133D02*
X177313333Y-86286133D01*
X177313333Y-86286133D02*
X177280000Y-86619466D01*
X177280000Y-86619466D02*
X177313333Y-86586133D01*
X177313333Y-86586133D02*
X177380000Y-86552800D01*
X177380000Y-86552800D02*
X177546667Y-86552800D01*
X177546667Y-86552800D02*
X177613333Y-86586133D01*
X177613333Y-86586133D02*
X177646667Y-86619466D01*
X177646667Y-86619466D02*
X177680000Y-86686133D01*
X177680000Y-86686133D02*
X177680000Y-86852800D01*
X177680000Y-86852800D02*
X177646667Y-86919466D01*
X177646667Y-86919466D02*
X177613333Y-86952800D01*
X177613333Y-86952800D02*
X177546667Y-86986133D01*
X177546667Y-86986133D02*
X177380000Y-86986133D01*
X177380000Y-86986133D02*
X177313333Y-86952800D01*
X177313333Y-86952800D02*
X177280000Y-86919466D01*
D11*
X172059580Y-85942857D02*
X172107200Y-85990476D01*
X172107200Y-85990476D02*
X172154819Y-86133333D01*
X172154819Y-86133333D02*
X172154819Y-86228571D01*
X172154819Y-86228571D02*
X172107200Y-86371428D01*
X172107200Y-86371428D02*
X172011961Y-86466666D01*
X172011961Y-86466666D02*
X171916723Y-86514285D01*
X171916723Y-86514285D02*
X171726247Y-86561904D01*
X171726247Y-86561904D02*
X171583390Y-86561904D01*
X171583390Y-86561904D02*
X171392914Y-86514285D01*
X171392914Y-86514285D02*
X171297676Y-86466666D01*
X171297676Y-86466666D02*
X171202438Y-86371428D01*
X171202438Y-86371428D02*
X171154819Y-86228571D01*
X171154819Y-86228571D02*
X171154819Y-86133333D01*
X171154819Y-86133333D02*
X171202438Y-85990476D01*
X171202438Y-85990476D02*
X171250057Y-85942857D01*
X172154819Y-84990476D02*
X172154819Y-85561904D01*
X172154819Y-85276190D02*
X171154819Y-85276190D01*
X171154819Y-85276190D02*
X171297676Y-85371428D01*
X171297676Y-85371428D02*
X171392914Y-85466666D01*
X171392914Y-85466666D02*
X171440533Y-85561904D01*
X171154819Y-84657142D02*
X171154819Y-83990476D01*
X171154819Y-83990476D02*
X172154819Y-84419047D01*
X116357142Y-74704819D02*
X116023809Y-74228628D01*
X115785714Y-74704819D02*
X115785714Y-73704819D01*
X115785714Y-73704819D02*
X116166666Y-73704819D01*
X116166666Y-73704819D02*
X116261904Y-73752438D01*
X116261904Y-73752438D02*
X116309523Y-73800057D01*
X116309523Y-73800057D02*
X116357142Y-73895295D01*
X116357142Y-73895295D02*
X116357142Y-74038152D01*
X116357142Y-74038152D02*
X116309523Y-74133390D01*
X116309523Y-74133390D02*
X116261904Y-74181009D01*
X116261904Y-74181009D02*
X116166666Y-74228628D01*
X116166666Y-74228628D02*
X115785714Y-74228628D01*
X117309523Y-74704819D02*
X116738095Y-74704819D01*
X117023809Y-74704819D02*
X117023809Y-73704819D01*
X117023809Y-73704819D02*
X116928571Y-73847676D01*
X116928571Y-73847676D02*
X116833333Y-73942914D01*
X116833333Y-73942914D02*
X116738095Y-73990533D01*
X117690476Y-73800057D02*
X117738095Y-73752438D01*
X117738095Y-73752438D02*
X117833333Y-73704819D01*
X117833333Y-73704819D02*
X118071428Y-73704819D01*
X118071428Y-73704819D02*
X118166666Y-73752438D01*
X118166666Y-73752438D02*
X118214285Y-73800057D01*
X118214285Y-73800057D02*
X118261904Y-73895295D01*
X118261904Y-73895295D02*
X118261904Y-73990533D01*
X118261904Y-73990533D02*
X118214285Y-74133390D01*
X118214285Y-74133390D02*
X117642857Y-74704819D01*
X117642857Y-74704819D02*
X118261904Y-74704819D01*
X165309580Y-86117857D02*
X165357200Y-86165476D01*
X165357200Y-86165476D02*
X165404819Y-86308333D01*
X165404819Y-86308333D02*
X165404819Y-86403571D01*
X165404819Y-86403571D02*
X165357200Y-86546428D01*
X165357200Y-86546428D02*
X165261961Y-86641666D01*
X165261961Y-86641666D02*
X165166723Y-86689285D01*
X165166723Y-86689285D02*
X164976247Y-86736904D01*
X164976247Y-86736904D02*
X164833390Y-86736904D01*
X164833390Y-86736904D02*
X164642914Y-86689285D01*
X164642914Y-86689285D02*
X164547676Y-86641666D01*
X164547676Y-86641666D02*
X164452438Y-86546428D01*
X164452438Y-86546428D02*
X164404819Y-86403571D01*
X164404819Y-86403571D02*
X164404819Y-86308333D01*
X164404819Y-86308333D02*
X164452438Y-86165476D01*
X164452438Y-86165476D02*
X164500057Y-86117857D01*
X165404819Y-85165476D02*
X165404819Y-85736904D01*
X165404819Y-85451190D02*
X164404819Y-85451190D01*
X164404819Y-85451190D02*
X164547676Y-85546428D01*
X164547676Y-85546428D02*
X164642914Y-85641666D01*
X164642914Y-85641666D02*
X164690533Y-85736904D01*
X165404819Y-84213095D02*
X165404819Y-84784523D01*
X165404819Y-84498809D02*
X164404819Y-84498809D01*
X164404819Y-84498809D02*
X164547676Y-84594047D01*
X164547676Y-84594047D02*
X164642914Y-84689285D01*
X164642914Y-84689285D02*
X164690533Y-84784523D01*
X191584819Y-82584166D02*
X191108628Y-82917499D01*
X191584819Y-83155594D02*
X190584819Y-83155594D01*
X190584819Y-83155594D02*
X190584819Y-82774642D01*
X190584819Y-82774642D02*
X190632438Y-82679404D01*
X190632438Y-82679404D02*
X190680057Y-82631785D01*
X190680057Y-82631785D02*
X190775295Y-82584166D01*
X190775295Y-82584166D02*
X190918152Y-82584166D01*
X190918152Y-82584166D02*
X191013390Y-82631785D01*
X191013390Y-82631785D02*
X191061009Y-82679404D01*
X191061009Y-82679404D02*
X191108628Y-82774642D01*
X191108628Y-82774642D02*
X191108628Y-83155594D01*
X190584819Y-82250832D02*
X190584819Y-81584166D01*
X190584819Y-81584166D02*
X191584819Y-82012737D01*
X135854819Y-58466666D02*
X135378628Y-58799999D01*
X135854819Y-59038094D02*
X134854819Y-59038094D01*
X134854819Y-59038094D02*
X134854819Y-58657142D01*
X134854819Y-58657142D02*
X134902438Y-58561904D01*
X134902438Y-58561904D02*
X134950057Y-58514285D01*
X134950057Y-58514285D02*
X135045295Y-58466666D01*
X135045295Y-58466666D02*
X135188152Y-58466666D01*
X135188152Y-58466666D02*
X135283390Y-58514285D01*
X135283390Y-58514285D02*
X135331009Y-58561904D01*
X135331009Y-58561904D02*
X135378628Y-58657142D01*
X135378628Y-58657142D02*
X135378628Y-59038094D01*
X134854819Y-58133332D02*
X134854819Y-57514285D01*
X134854819Y-57514285D02*
X135235771Y-57847618D01*
X135235771Y-57847618D02*
X135235771Y-57704761D01*
X135235771Y-57704761D02*
X135283390Y-57609523D01*
X135283390Y-57609523D02*
X135331009Y-57561904D01*
X135331009Y-57561904D02*
X135426247Y-57514285D01*
X135426247Y-57514285D02*
X135664342Y-57514285D01*
X135664342Y-57514285D02*
X135759580Y-57561904D01*
X135759580Y-57561904D02*
X135807200Y-57609523D01*
X135807200Y-57609523D02*
X135854819Y-57704761D01*
X135854819Y-57704761D02*
X135854819Y-57990475D01*
X135854819Y-57990475D02*
X135807200Y-58085713D01*
X135807200Y-58085713D02*
X135759580Y-58133332D01*
X151081560Y-69921819D02*
X151081560Y-68921819D01*
X152129178Y-69826580D02*
X152081559Y-69874200D01*
X152081559Y-69874200D02*
X151938702Y-69921819D01*
X151938702Y-69921819D02*
X151843464Y-69921819D01*
X151843464Y-69921819D02*
X151700607Y-69874200D01*
X151700607Y-69874200D02*
X151605369Y-69778961D01*
X151605369Y-69778961D02*
X151557750Y-69683723D01*
X151557750Y-69683723D02*
X151510131Y-69493247D01*
X151510131Y-69493247D02*
X151510131Y-69350390D01*
X151510131Y-69350390D02*
X151557750Y-69159914D01*
X151557750Y-69159914D02*
X151605369Y-69064676D01*
X151605369Y-69064676D02*
X151700607Y-68969438D01*
X151700607Y-68969438D02*
X151843464Y-68921819D01*
X151843464Y-68921819D02*
X151938702Y-68921819D01*
X151938702Y-68921819D02*
X152081559Y-68969438D01*
X152081559Y-68969438D02*
X152129178Y-69017057D01*
X152510131Y-69017057D02*
X152557750Y-68969438D01*
X152557750Y-68969438D02*
X152652988Y-68921819D01*
X152652988Y-68921819D02*
X152891083Y-68921819D01*
X152891083Y-68921819D02*
X152986321Y-68969438D01*
X152986321Y-68969438D02*
X153033940Y-69017057D01*
X153033940Y-69017057D02*
X153081559Y-69112295D01*
X153081559Y-69112295D02*
X153081559Y-69207533D01*
X153081559Y-69207533D02*
X153033940Y-69350390D01*
X153033940Y-69350390D02*
X152462512Y-69921819D01*
X152462512Y-69921819D02*
X153081559Y-69921819D01*
X133107142Y-74954819D02*
X132773809Y-74478628D01*
X132535714Y-74954819D02*
X132535714Y-73954819D01*
X132535714Y-73954819D02*
X132916666Y-73954819D01*
X132916666Y-73954819D02*
X133011904Y-74002438D01*
X133011904Y-74002438D02*
X133059523Y-74050057D01*
X133059523Y-74050057D02*
X133107142Y-74145295D01*
X133107142Y-74145295D02*
X133107142Y-74288152D01*
X133107142Y-74288152D02*
X133059523Y-74383390D01*
X133059523Y-74383390D02*
X133011904Y-74431009D01*
X133011904Y-74431009D02*
X132916666Y-74478628D01*
X132916666Y-74478628D02*
X132535714Y-74478628D01*
X134059523Y-74954819D02*
X133488095Y-74954819D01*
X133773809Y-74954819D02*
X133773809Y-73954819D01*
X133773809Y-73954819D02*
X133678571Y-74097676D01*
X133678571Y-74097676D02*
X133583333Y-74192914D01*
X133583333Y-74192914D02*
X133488095Y-74240533D01*
X134916666Y-74288152D02*
X134916666Y-74954819D01*
X134678571Y-73907200D02*
X134440476Y-74621485D01*
X134440476Y-74621485D02*
X135059523Y-74621485D01*
X180864580Y-90060357D02*
X180912200Y-90107976D01*
X180912200Y-90107976D02*
X180959819Y-90250833D01*
X180959819Y-90250833D02*
X180959819Y-90346071D01*
X180959819Y-90346071D02*
X180912200Y-90488928D01*
X180912200Y-90488928D02*
X180816961Y-90584166D01*
X180816961Y-90584166D02*
X180721723Y-90631785D01*
X180721723Y-90631785D02*
X180531247Y-90679404D01*
X180531247Y-90679404D02*
X180388390Y-90679404D01*
X180388390Y-90679404D02*
X180197914Y-90631785D01*
X180197914Y-90631785D02*
X180102676Y-90584166D01*
X180102676Y-90584166D02*
X180007438Y-90488928D01*
X180007438Y-90488928D02*
X179959819Y-90346071D01*
X179959819Y-90346071D02*
X179959819Y-90250833D01*
X179959819Y-90250833D02*
X180007438Y-90107976D01*
X180007438Y-90107976D02*
X180055057Y-90060357D01*
X180959819Y-89107976D02*
X180959819Y-89679404D01*
X180959819Y-89393690D02*
X179959819Y-89393690D01*
X179959819Y-89393690D02*
X180102676Y-89488928D01*
X180102676Y-89488928D02*
X180197914Y-89584166D01*
X180197914Y-89584166D02*
X180245533Y-89679404D01*
X179959819Y-88203214D02*
X179959819Y-88679404D01*
X179959819Y-88679404D02*
X180436009Y-88727023D01*
X180436009Y-88727023D02*
X180388390Y-88679404D01*
X180388390Y-88679404D02*
X180340771Y-88584166D01*
X180340771Y-88584166D02*
X180340771Y-88346071D01*
X180340771Y-88346071D02*
X180388390Y-88250833D01*
X180388390Y-88250833D02*
X180436009Y-88203214D01*
X180436009Y-88203214D02*
X180531247Y-88155595D01*
X180531247Y-88155595D02*
X180769342Y-88155595D01*
X180769342Y-88155595D02*
X180864580Y-88203214D01*
X180864580Y-88203214D02*
X180912200Y-88250833D01*
X180912200Y-88250833D02*
X180959819Y-88346071D01*
X180959819Y-88346071D02*
X180959819Y-88584166D01*
X180959819Y-88584166D02*
X180912200Y-88679404D01*
X180912200Y-88679404D02*
X180864580Y-88727023D01*
X129152523Y-101076080D02*
X129104904Y-101123700D01*
X129104904Y-101123700D02*
X128962047Y-101171319D01*
X128962047Y-101171319D02*
X128866809Y-101171319D01*
X128866809Y-101171319D02*
X128723952Y-101123700D01*
X128723952Y-101123700D02*
X128628714Y-101028461D01*
X128628714Y-101028461D02*
X128581095Y-100933223D01*
X128581095Y-100933223D02*
X128533476Y-100742747D01*
X128533476Y-100742747D02*
X128533476Y-100599890D01*
X128533476Y-100599890D02*
X128581095Y-100409414D01*
X128581095Y-100409414D02*
X128628714Y-100314176D01*
X128628714Y-100314176D02*
X128723952Y-100218938D01*
X128723952Y-100218938D02*
X128866809Y-100171319D01*
X128866809Y-100171319D02*
X128962047Y-100171319D01*
X128962047Y-100171319D02*
X129104904Y-100218938D01*
X129104904Y-100218938D02*
X129152523Y-100266557D01*
X129581095Y-101171319D02*
X129581095Y-100171319D01*
X129581095Y-100171319D02*
X130152523Y-101171319D01*
X130152523Y-101171319D02*
X130152523Y-100171319D01*
X131152523Y-101171319D02*
X130581095Y-101171319D01*
X130866809Y-101171319D02*
X130866809Y-100171319D01*
X130866809Y-100171319D02*
X130771571Y-100314176D01*
X130771571Y-100314176D02*
X130676333Y-100409414D01*
X130676333Y-100409414D02*
X130581095Y-100457033D01*
X116357142Y-81714819D02*
X116023809Y-81238628D01*
X115785714Y-81714819D02*
X115785714Y-80714819D01*
X115785714Y-80714819D02*
X116166666Y-80714819D01*
X116166666Y-80714819D02*
X116261904Y-80762438D01*
X116261904Y-80762438D02*
X116309523Y-80810057D01*
X116309523Y-80810057D02*
X116357142Y-80905295D01*
X116357142Y-80905295D02*
X116357142Y-81048152D01*
X116357142Y-81048152D02*
X116309523Y-81143390D01*
X116309523Y-81143390D02*
X116261904Y-81191009D01*
X116261904Y-81191009D02*
X116166666Y-81238628D01*
X116166666Y-81238628D02*
X115785714Y-81238628D01*
X117309523Y-81714819D02*
X116738095Y-81714819D01*
X117023809Y-81714819D02*
X117023809Y-80714819D01*
X117023809Y-80714819D02*
X116928571Y-80857676D01*
X116928571Y-80857676D02*
X116833333Y-80952914D01*
X116833333Y-80952914D02*
X116738095Y-81000533D01*
X118214285Y-80714819D02*
X117738095Y-80714819D01*
X117738095Y-80714819D02*
X117690476Y-81191009D01*
X117690476Y-81191009D02*
X117738095Y-81143390D01*
X117738095Y-81143390D02*
X117833333Y-81095771D01*
X117833333Y-81095771D02*
X118071428Y-81095771D01*
X118071428Y-81095771D02*
X118166666Y-81143390D01*
X118166666Y-81143390D02*
X118214285Y-81191009D01*
X118214285Y-81191009D02*
X118261904Y-81286247D01*
X118261904Y-81286247D02*
X118261904Y-81524342D01*
X118261904Y-81524342D02*
X118214285Y-81619580D01*
X118214285Y-81619580D02*
X118166666Y-81667200D01*
X118166666Y-81667200D02*
X118071428Y-81714819D01*
X118071428Y-81714819D02*
X117833333Y-81714819D01*
X117833333Y-81714819D02*
X117738095Y-81667200D01*
X117738095Y-81667200D02*
X117690476Y-81619580D01*
D12*
X162333333Y-90518633D02*
X162100000Y-90185300D01*
X161933333Y-90518633D02*
X161933333Y-89818633D01*
X161933333Y-89818633D02*
X162200000Y-89818633D01*
X162200000Y-89818633D02*
X162266667Y-89851966D01*
X162266667Y-89851966D02*
X162300000Y-89885300D01*
X162300000Y-89885300D02*
X162333333Y-89951966D01*
X162333333Y-89951966D02*
X162333333Y-90051966D01*
X162333333Y-90051966D02*
X162300000Y-90118633D01*
X162300000Y-90118633D02*
X162266667Y-90151966D01*
X162266667Y-90151966D02*
X162200000Y-90185300D01*
X162200000Y-90185300D02*
X161933333Y-90185300D01*
X162933333Y-90051966D02*
X162933333Y-90518633D01*
X162766667Y-89785300D02*
X162600000Y-90285300D01*
X162600000Y-90285300D02*
X163033333Y-90285300D01*
X185766905Y-86143609D02*
X185766905Y-85643609D01*
X186290714Y-86095990D02*
X186266905Y-86119800D01*
X186266905Y-86119800D02*
X186195476Y-86143609D01*
X186195476Y-86143609D02*
X186147857Y-86143609D01*
X186147857Y-86143609D02*
X186076429Y-86119800D01*
X186076429Y-86119800D02*
X186028810Y-86072180D01*
X186028810Y-86072180D02*
X186005000Y-86024561D01*
X186005000Y-86024561D02*
X185981191Y-85929323D01*
X185981191Y-85929323D02*
X185981191Y-85857895D01*
X185981191Y-85857895D02*
X186005000Y-85762657D01*
X186005000Y-85762657D02*
X186028810Y-85715038D01*
X186028810Y-85715038D02*
X186076429Y-85667419D01*
X186076429Y-85667419D02*
X186147857Y-85643609D01*
X186147857Y-85643609D02*
X186195476Y-85643609D01*
X186195476Y-85643609D02*
X186266905Y-85667419D01*
X186266905Y-85667419D02*
X186290714Y-85691228D01*
X186719286Y-85810276D02*
X186719286Y-86143609D01*
X186600238Y-85619800D02*
X186481191Y-85976942D01*
X186481191Y-85976942D02*
X186790714Y-85976942D01*
D11*
X102447810Y-86365817D02*
X102447810Y-85365817D01*
X103495428Y-86270578D02*
X103447809Y-86318198D01*
X103447809Y-86318198D02*
X103304952Y-86365817D01*
X103304952Y-86365817D02*
X103209714Y-86365817D01*
X103209714Y-86365817D02*
X103066857Y-86318198D01*
X103066857Y-86318198D02*
X102971619Y-86222959D01*
X102971619Y-86222959D02*
X102924000Y-86127721D01*
X102924000Y-86127721D02*
X102876381Y-85937245D01*
X102876381Y-85937245D02*
X102876381Y-85794388D01*
X102876381Y-85794388D02*
X102924000Y-85603912D01*
X102924000Y-85603912D02*
X102971619Y-85508674D01*
X102971619Y-85508674D02*
X103066857Y-85413436D01*
X103066857Y-85413436D02*
X103209714Y-85365817D01*
X103209714Y-85365817D02*
X103304952Y-85365817D01*
X103304952Y-85365817D02*
X103447809Y-85413436D01*
X103447809Y-85413436D02*
X103495428Y-85461055D01*
X104447809Y-86365817D02*
X103876381Y-86365817D01*
X104162095Y-86365817D02*
X104162095Y-85365817D01*
X104162095Y-85365817D02*
X104066857Y-85508674D01*
X104066857Y-85508674D02*
X103971619Y-85603912D01*
X103971619Y-85603912D02*
X103876381Y-85651531D01*
D13*
X187808571Y-85598590D02*
X187784762Y-85622400D01*
X187784762Y-85622400D02*
X187713333Y-85646209D01*
X187713333Y-85646209D02*
X187665714Y-85646209D01*
X187665714Y-85646209D02*
X187594286Y-85622400D01*
X187594286Y-85622400D02*
X187546667Y-85574780D01*
X187546667Y-85574780D02*
X187522857Y-85527161D01*
X187522857Y-85527161D02*
X187499048Y-85431923D01*
X187499048Y-85431923D02*
X187499048Y-85360495D01*
X187499048Y-85360495D02*
X187522857Y-85265257D01*
X187522857Y-85265257D02*
X187546667Y-85217638D01*
X187546667Y-85217638D02*
X187594286Y-85170019D01*
X187594286Y-85170019D02*
X187665714Y-85146209D01*
X187665714Y-85146209D02*
X187713333Y-85146209D01*
X187713333Y-85146209D02*
X187784762Y-85170019D01*
X187784762Y-85170019D02*
X187808571Y-85193828D01*
X188284762Y-85646209D02*
X187999048Y-85646209D01*
X188141905Y-85646209D02*
X188141905Y-85146209D01*
X188141905Y-85146209D02*
X188094286Y-85217638D01*
X188094286Y-85217638D02*
X188046667Y-85265257D01*
X188046667Y-85265257D02*
X187999048Y-85289066D01*
X188594285Y-85146209D02*
X188641904Y-85146209D01*
X188641904Y-85146209D02*
X188689523Y-85170019D01*
X188689523Y-85170019D02*
X188713333Y-85193828D01*
X188713333Y-85193828D02*
X188737142Y-85241447D01*
X188737142Y-85241447D02*
X188760952Y-85336685D01*
X188760952Y-85336685D02*
X188760952Y-85455733D01*
X188760952Y-85455733D02*
X188737142Y-85550971D01*
X188737142Y-85550971D02*
X188713333Y-85598590D01*
X188713333Y-85598590D02*
X188689523Y-85622400D01*
X188689523Y-85622400D02*
X188641904Y-85646209D01*
X188641904Y-85646209D02*
X188594285Y-85646209D01*
X188594285Y-85646209D02*
X188546666Y-85622400D01*
X188546666Y-85622400D02*
X188522857Y-85598590D01*
X188522857Y-85598590D02*
X188499047Y-85550971D01*
X188499047Y-85550971D02*
X188475238Y-85455733D01*
X188475238Y-85455733D02*
X188475238Y-85336685D01*
X188475238Y-85336685D02*
X188499047Y-85241447D01*
X188499047Y-85241447D02*
X188522857Y-85193828D01*
X188522857Y-85193828D02*
X188546666Y-85170019D01*
X188546666Y-85170019D02*
X188594285Y-85146209D01*
D11*
X140785714Y-36097080D02*
X140738095Y-36144700D01*
X140738095Y-36144700D02*
X140595238Y-36192319D01*
X140595238Y-36192319D02*
X140500000Y-36192319D01*
X140500000Y-36192319D02*
X140357143Y-36144700D01*
X140357143Y-36144700D02*
X140261905Y-36049461D01*
X140261905Y-36049461D02*
X140214286Y-35954223D01*
X140214286Y-35954223D02*
X140166667Y-35763747D01*
X140166667Y-35763747D02*
X140166667Y-35620890D01*
X140166667Y-35620890D02*
X140214286Y-35430414D01*
X140214286Y-35430414D02*
X140261905Y-35335176D01*
X140261905Y-35335176D02*
X140357143Y-35239938D01*
X140357143Y-35239938D02*
X140500000Y-35192319D01*
X140500000Y-35192319D02*
X140595238Y-35192319D01*
X140595238Y-35192319D02*
X140738095Y-35239938D01*
X140738095Y-35239938D02*
X140785714Y-35287557D01*
X141404762Y-35192319D02*
X141595238Y-35192319D01*
X141595238Y-35192319D02*
X141690476Y-35239938D01*
X141690476Y-35239938D02*
X141785714Y-35335176D01*
X141785714Y-35335176D02*
X141833333Y-35525652D01*
X141833333Y-35525652D02*
X141833333Y-35858985D01*
X141833333Y-35858985D02*
X141785714Y-36049461D01*
X141785714Y-36049461D02*
X141690476Y-36144700D01*
X141690476Y-36144700D02*
X141595238Y-36192319D01*
X141595238Y-36192319D02*
X141404762Y-36192319D01*
X141404762Y-36192319D02*
X141309524Y-36144700D01*
X141309524Y-36144700D02*
X141214286Y-36049461D01*
X141214286Y-36049461D02*
X141166667Y-35858985D01*
X141166667Y-35858985D02*
X141166667Y-35525652D01*
X141166667Y-35525652D02*
X141214286Y-35335176D01*
X141214286Y-35335176D02*
X141309524Y-35239938D01*
X141309524Y-35239938D02*
X141404762Y-35192319D01*
X142261905Y-36192319D02*
X142261905Y-35192319D01*
X142261905Y-35192319D02*
X142833333Y-36192319D01*
X142833333Y-36192319D02*
X142833333Y-35192319D01*
X143833333Y-36192319D02*
X143261905Y-36192319D01*
X143547619Y-36192319D02*
X143547619Y-35192319D01*
X143547619Y-35192319D02*
X143452381Y-35335176D01*
X143452381Y-35335176D02*
X143357143Y-35430414D01*
X143357143Y-35430414D02*
X143261905Y-35478033D01*
X187454819Y-94084166D02*
X187454819Y-94560356D01*
X187454819Y-94560356D02*
X186454819Y-94560356D01*
X186550057Y-93798451D02*
X186502438Y-93750832D01*
X186502438Y-93750832D02*
X186454819Y-93655594D01*
X186454819Y-93655594D02*
X186454819Y-93417499D01*
X186454819Y-93417499D02*
X186502438Y-93322261D01*
X186502438Y-93322261D02*
X186550057Y-93274642D01*
X186550057Y-93274642D02*
X186645295Y-93227023D01*
X186645295Y-93227023D02*
X186740533Y-93227023D01*
X186740533Y-93227023D02*
X186883390Y-93274642D01*
X186883390Y-93274642D02*
X187454819Y-93846070D01*
X187454819Y-93846070D02*
X187454819Y-93227023D01*
X182489580Y-92185357D02*
X182537200Y-92232976D01*
X182537200Y-92232976D02*
X182584819Y-92375833D01*
X182584819Y-92375833D02*
X182584819Y-92471071D01*
X182584819Y-92471071D02*
X182537200Y-92613928D01*
X182537200Y-92613928D02*
X182441961Y-92709166D01*
X182441961Y-92709166D02*
X182346723Y-92756785D01*
X182346723Y-92756785D02*
X182156247Y-92804404D01*
X182156247Y-92804404D02*
X182013390Y-92804404D01*
X182013390Y-92804404D02*
X181822914Y-92756785D01*
X181822914Y-92756785D02*
X181727676Y-92709166D01*
X181727676Y-92709166D02*
X181632438Y-92613928D01*
X181632438Y-92613928D02*
X181584819Y-92471071D01*
X181584819Y-92471071D02*
X181584819Y-92375833D01*
X181584819Y-92375833D02*
X181632438Y-92232976D01*
X181632438Y-92232976D02*
X181680057Y-92185357D01*
X182584819Y-91232976D02*
X182584819Y-91804404D01*
X182584819Y-91518690D02*
X181584819Y-91518690D01*
X181584819Y-91518690D02*
X181727676Y-91613928D01*
X181727676Y-91613928D02*
X181822914Y-91709166D01*
X181822914Y-91709166D02*
X181870533Y-91804404D01*
X182584819Y-90756785D02*
X182584819Y-90566309D01*
X182584819Y-90566309D02*
X182537200Y-90471071D01*
X182537200Y-90471071D02*
X182489580Y-90423452D01*
X182489580Y-90423452D02*
X182346723Y-90328214D01*
X182346723Y-90328214D02*
X182156247Y-90280595D01*
X182156247Y-90280595D02*
X181775295Y-90280595D01*
X181775295Y-90280595D02*
X181680057Y-90328214D01*
X181680057Y-90328214D02*
X181632438Y-90375833D01*
X181632438Y-90375833D02*
X181584819Y-90471071D01*
X181584819Y-90471071D02*
X181584819Y-90661547D01*
X181584819Y-90661547D02*
X181632438Y-90756785D01*
X181632438Y-90756785D02*
X181680057Y-90804404D01*
X181680057Y-90804404D02*
X181775295Y-90852023D01*
X181775295Y-90852023D02*
X182013390Y-90852023D01*
X182013390Y-90852023D02*
X182108628Y-90804404D01*
X182108628Y-90804404D02*
X182156247Y-90756785D01*
X182156247Y-90756785D02*
X182203866Y-90661547D01*
X182203866Y-90661547D02*
X182203866Y-90471071D01*
X182203866Y-90471071D02*
X182156247Y-90375833D01*
X182156247Y-90375833D02*
X182108628Y-90328214D01*
X182108628Y-90328214D02*
X182013390Y-90280595D01*
X169114142Y-125704819D02*
X168780809Y-125228628D01*
X168542714Y-125704819D02*
X168542714Y-124704819D01*
X168542714Y-124704819D02*
X168923666Y-124704819D01*
X168923666Y-124704819D02*
X169018904Y-124752438D01*
X169018904Y-124752438D02*
X169066523Y-124800057D01*
X169066523Y-124800057D02*
X169114142Y-124895295D01*
X169114142Y-124895295D02*
X169114142Y-125038152D01*
X169114142Y-125038152D02*
X169066523Y-125133390D01*
X169066523Y-125133390D02*
X169018904Y-125181009D01*
X169018904Y-125181009D02*
X168923666Y-125228628D01*
X168923666Y-125228628D02*
X168542714Y-125228628D01*
X169495095Y-124800057D02*
X169542714Y-124752438D01*
X169542714Y-124752438D02*
X169637952Y-124704819D01*
X169637952Y-124704819D02*
X169876047Y-124704819D01*
X169876047Y-124704819D02*
X169971285Y-124752438D01*
X169971285Y-124752438D02*
X170018904Y-124800057D01*
X170018904Y-124800057D02*
X170066523Y-124895295D01*
X170066523Y-124895295D02*
X170066523Y-124990533D01*
X170066523Y-124990533D02*
X170018904Y-125133390D01*
X170018904Y-125133390D02*
X169447476Y-125704819D01*
X169447476Y-125704819D02*
X170066523Y-125704819D01*
X170923666Y-125038152D02*
X170923666Y-125704819D01*
X170685571Y-124657200D02*
X170447476Y-125371485D01*
X170447476Y-125371485D02*
X171066523Y-125371485D01*
X110857619Y-106604819D02*
X110857619Y-105604819D01*
X111905237Y-106509580D02*
X111857618Y-106557200D01*
X111857618Y-106557200D02*
X111714761Y-106604819D01*
X111714761Y-106604819D02*
X111619523Y-106604819D01*
X111619523Y-106604819D02*
X111476666Y-106557200D01*
X111476666Y-106557200D02*
X111381428Y-106461961D01*
X111381428Y-106461961D02*
X111333809Y-106366723D01*
X111333809Y-106366723D02*
X111286190Y-106176247D01*
X111286190Y-106176247D02*
X111286190Y-106033390D01*
X111286190Y-106033390D02*
X111333809Y-105842914D01*
X111333809Y-105842914D02*
X111381428Y-105747676D01*
X111381428Y-105747676D02*
X111476666Y-105652438D01*
X111476666Y-105652438D02*
X111619523Y-105604819D01*
X111619523Y-105604819D02*
X111714761Y-105604819D01*
X111714761Y-105604819D02*
X111857618Y-105652438D01*
X111857618Y-105652438D02*
X111905237Y-105700057D01*
X112857618Y-106604819D02*
X112286190Y-106604819D01*
X112571904Y-106604819D02*
X112571904Y-105604819D01*
X112571904Y-105604819D02*
X112476666Y-105747676D01*
X112476666Y-105747676D02*
X112381428Y-105842914D01*
X112381428Y-105842914D02*
X112286190Y-105890533D01*
X113809999Y-106604819D02*
X113238571Y-106604819D01*
X113524285Y-106604819D02*
X113524285Y-105604819D01*
X113524285Y-105604819D02*
X113429047Y-105747676D01*
X113429047Y-105747676D02*
X113333809Y-105842914D01*
X113333809Y-105842914D02*
X113238571Y-105890533D01*
X133254819Y-43876189D02*
X132254819Y-43876189D01*
X133159580Y-42828571D02*
X133207200Y-42876190D01*
X133207200Y-42876190D02*
X133254819Y-43019047D01*
X133254819Y-43019047D02*
X133254819Y-43114285D01*
X133254819Y-43114285D02*
X133207200Y-43257142D01*
X133207200Y-43257142D02*
X133111961Y-43352380D01*
X133111961Y-43352380D02*
X133016723Y-43399999D01*
X133016723Y-43399999D02*
X132826247Y-43447618D01*
X132826247Y-43447618D02*
X132683390Y-43447618D01*
X132683390Y-43447618D02*
X132492914Y-43399999D01*
X132492914Y-43399999D02*
X132397676Y-43352380D01*
X132397676Y-43352380D02*
X132302438Y-43257142D01*
X132302438Y-43257142D02*
X132254819Y-43114285D01*
X132254819Y-43114285D02*
X132254819Y-43019047D01*
X132254819Y-43019047D02*
X132302438Y-42876190D01*
X132302438Y-42876190D02*
X132350057Y-42828571D01*
X132254819Y-41971428D02*
X132254819Y-42161904D01*
X132254819Y-42161904D02*
X132302438Y-42257142D01*
X132302438Y-42257142D02*
X132350057Y-42304761D01*
X132350057Y-42304761D02*
X132492914Y-42399999D01*
X132492914Y-42399999D02*
X132683390Y-42447618D01*
X132683390Y-42447618D02*
X133064342Y-42447618D01*
X133064342Y-42447618D02*
X133159580Y-42399999D01*
X133159580Y-42399999D02*
X133207200Y-42352380D01*
X133207200Y-42352380D02*
X133254819Y-42257142D01*
X133254819Y-42257142D02*
X133254819Y-42066666D01*
X133254819Y-42066666D02*
X133207200Y-41971428D01*
X133207200Y-41971428D02*
X133159580Y-41923809D01*
X133159580Y-41923809D02*
X133064342Y-41876190D01*
X133064342Y-41876190D02*
X132826247Y-41876190D01*
X132826247Y-41876190D02*
X132731009Y-41923809D01*
X132731009Y-41923809D02*
X132683390Y-41971428D01*
X132683390Y-41971428D02*
X132635771Y-42066666D01*
X132635771Y-42066666D02*
X132635771Y-42257142D01*
X132635771Y-42257142D02*
X132683390Y-42352380D01*
X132683390Y-42352380D02*
X132731009Y-42399999D01*
X132731009Y-42399999D02*
X132826247Y-42447618D01*
X168654819Y-84141666D02*
X168654819Y-84617856D01*
X168654819Y-84617856D02*
X167654819Y-84617856D01*
X168654819Y-83284523D02*
X168654819Y-83855951D01*
X168654819Y-83570237D02*
X167654819Y-83570237D01*
X167654819Y-83570237D02*
X167797676Y-83665475D01*
X167797676Y-83665475D02*
X167892914Y-83760713D01*
X167892914Y-83760713D02*
X167940533Y-83855951D01*
X147147619Y-116954819D02*
X147147619Y-115954819D01*
X148195237Y-116859580D02*
X148147618Y-116907200D01*
X148147618Y-116907200D02*
X148004761Y-116954819D01*
X148004761Y-116954819D02*
X147909523Y-116954819D01*
X147909523Y-116954819D02*
X147766666Y-116907200D01*
X147766666Y-116907200D02*
X147671428Y-116811961D01*
X147671428Y-116811961D02*
X147623809Y-116716723D01*
X147623809Y-116716723D02*
X147576190Y-116526247D01*
X147576190Y-116526247D02*
X147576190Y-116383390D01*
X147576190Y-116383390D02*
X147623809Y-116192914D01*
X147623809Y-116192914D02*
X147671428Y-116097676D01*
X147671428Y-116097676D02*
X147766666Y-116002438D01*
X147766666Y-116002438D02*
X147909523Y-115954819D01*
X147909523Y-115954819D02*
X148004761Y-115954819D01*
X148004761Y-115954819D02*
X148147618Y-116002438D01*
X148147618Y-116002438D02*
X148195237Y-116050057D01*
X149147618Y-116954819D02*
X148576190Y-116954819D01*
X148861904Y-116954819D02*
X148861904Y-115954819D01*
X148861904Y-115954819D02*
X148766666Y-116097676D01*
X148766666Y-116097676D02*
X148671428Y-116192914D01*
X148671428Y-116192914D02*
X148576190Y-116240533D01*
X149528571Y-116050057D02*
X149576190Y-116002438D01*
X149576190Y-116002438D02*
X149671428Y-115954819D01*
X149671428Y-115954819D02*
X149909523Y-115954819D01*
X149909523Y-115954819D02*
X150004761Y-116002438D01*
X150004761Y-116002438D02*
X150052380Y-116050057D01*
X150052380Y-116050057D02*
X150099999Y-116145295D01*
X150099999Y-116145295D02*
X150099999Y-116240533D01*
X150099999Y-116240533D02*
X150052380Y-116383390D01*
X150052380Y-116383390D02*
X149480952Y-116954819D01*
X149480952Y-116954819D02*
X150099999Y-116954819D01*
X142775095Y-90078319D02*
X142775095Y-89078319D01*
X142775095Y-89554509D02*
X143346523Y-89554509D01*
X143346523Y-90078319D02*
X143346523Y-89078319D01*
X144346523Y-90078319D02*
X143775095Y-90078319D01*
X144060809Y-90078319D02*
X144060809Y-89078319D01*
X144060809Y-89078319D02*
X143965571Y-89221176D01*
X143965571Y-89221176D02*
X143870333Y-89316414D01*
X143870333Y-89316414D02*
X143775095Y-89364033D01*
D14*
X190810440Y-85238928D02*
X190834250Y-85262737D01*
X190834250Y-85262737D02*
X190858059Y-85334166D01*
X190858059Y-85334166D02*
X190858059Y-85381785D01*
X190858059Y-85381785D02*
X190834250Y-85453213D01*
X190834250Y-85453213D02*
X190786630Y-85500832D01*
X190786630Y-85500832D02*
X190739011Y-85524642D01*
X190739011Y-85524642D02*
X190643773Y-85548451D01*
X190643773Y-85548451D02*
X190572345Y-85548451D01*
X190572345Y-85548451D02*
X190477107Y-85524642D01*
X190477107Y-85524642D02*
X190429488Y-85500832D01*
X190429488Y-85500832D02*
X190381869Y-85453213D01*
X190381869Y-85453213D02*
X190358059Y-85381785D01*
X190358059Y-85381785D02*
X190358059Y-85334166D01*
X190358059Y-85334166D02*
X190381869Y-85262737D01*
X190381869Y-85262737D02*
X190405678Y-85238928D01*
X190858059Y-84762737D02*
X190858059Y-85048451D01*
X190858059Y-84905594D02*
X190358059Y-84905594D01*
X190358059Y-84905594D02*
X190429488Y-84953213D01*
X190429488Y-84953213D02*
X190477107Y-85000832D01*
X190477107Y-85000832D02*
X190500916Y-85048451D01*
X190358059Y-84334166D02*
X190358059Y-84429404D01*
X190358059Y-84429404D02*
X190381869Y-84477023D01*
X190381869Y-84477023D02*
X190405678Y-84500833D01*
X190405678Y-84500833D02*
X190477107Y-84548452D01*
X190477107Y-84548452D02*
X190572345Y-84572261D01*
X190572345Y-84572261D02*
X190762821Y-84572261D01*
X190762821Y-84572261D02*
X190810440Y-84548452D01*
X190810440Y-84548452D02*
X190834250Y-84524642D01*
X190834250Y-84524642D02*
X190858059Y-84477023D01*
X190858059Y-84477023D02*
X190858059Y-84381785D01*
X190858059Y-84381785D02*
X190834250Y-84334166D01*
X190834250Y-84334166D02*
X190810440Y-84310357D01*
X190810440Y-84310357D02*
X190762821Y-84286547D01*
X190762821Y-84286547D02*
X190643773Y-84286547D01*
X190643773Y-84286547D02*
X190596154Y-84310357D01*
X190596154Y-84310357D02*
X190572345Y-84334166D01*
X190572345Y-84334166D02*
X190548535Y-84381785D01*
X190548535Y-84381785D02*
X190548535Y-84477023D01*
X190548535Y-84477023D02*
X190572345Y-84524642D01*
X190572345Y-84524642D02*
X190596154Y-84548452D01*
X190596154Y-84548452D02*
X190643773Y-84572261D01*
D11*
X133107142Y-79704819D02*
X132773809Y-79228628D01*
X132535714Y-79704819D02*
X132535714Y-78704819D01*
X132535714Y-78704819D02*
X132916666Y-78704819D01*
X132916666Y-78704819D02*
X133011904Y-78752438D01*
X133011904Y-78752438D02*
X133059523Y-78800057D01*
X133059523Y-78800057D02*
X133107142Y-78895295D01*
X133107142Y-78895295D02*
X133107142Y-79038152D01*
X133107142Y-79038152D02*
X133059523Y-79133390D01*
X133059523Y-79133390D02*
X133011904Y-79181009D01*
X133011904Y-79181009D02*
X132916666Y-79228628D01*
X132916666Y-79228628D02*
X132535714Y-79228628D01*
X134059523Y-79704819D02*
X133488095Y-79704819D01*
X133773809Y-79704819D02*
X133773809Y-78704819D01*
X133773809Y-78704819D02*
X133678571Y-78847676D01*
X133678571Y-78847676D02*
X133583333Y-78942914D01*
X133583333Y-78942914D02*
X133488095Y-78990533D01*
X134392857Y-78704819D02*
X135011904Y-78704819D01*
X135011904Y-78704819D02*
X134678571Y-79085771D01*
X134678571Y-79085771D02*
X134821428Y-79085771D01*
X134821428Y-79085771D02*
X134916666Y-79133390D01*
X134916666Y-79133390D02*
X134964285Y-79181009D01*
X134964285Y-79181009D02*
X135011904Y-79276247D01*
X135011904Y-79276247D02*
X135011904Y-79514342D01*
X135011904Y-79514342D02*
X134964285Y-79609580D01*
X134964285Y-79609580D02*
X134916666Y-79657200D01*
X134916666Y-79657200D02*
X134821428Y-79704819D01*
X134821428Y-79704819D02*
X134535714Y-79704819D01*
X134535714Y-79704819D02*
X134440476Y-79657200D01*
X134440476Y-79657200D02*
X134392857Y-79609580D01*
X150254819Y-49876189D02*
X149254819Y-49876189D01*
X150159580Y-48828571D02*
X150207200Y-48876190D01*
X150207200Y-48876190D02*
X150254819Y-49019047D01*
X150254819Y-49019047D02*
X150254819Y-49114285D01*
X150254819Y-49114285D02*
X150207200Y-49257142D01*
X150207200Y-49257142D02*
X150111961Y-49352380D01*
X150111961Y-49352380D02*
X150016723Y-49399999D01*
X150016723Y-49399999D02*
X149826247Y-49447618D01*
X149826247Y-49447618D02*
X149683390Y-49447618D01*
X149683390Y-49447618D02*
X149492914Y-49399999D01*
X149492914Y-49399999D02*
X149397676Y-49352380D01*
X149397676Y-49352380D02*
X149302438Y-49257142D01*
X149302438Y-49257142D02*
X149254819Y-49114285D01*
X149254819Y-49114285D02*
X149254819Y-49019047D01*
X149254819Y-49019047D02*
X149302438Y-48876190D01*
X149302438Y-48876190D02*
X149350057Y-48828571D01*
X149254819Y-48495237D02*
X149254819Y-47828571D01*
X149254819Y-47828571D02*
X150254819Y-48257142D01*
X172809580Y-86592857D02*
X172857200Y-86640476D01*
X172857200Y-86640476D02*
X172904819Y-86783333D01*
X172904819Y-86783333D02*
X172904819Y-86878571D01*
X172904819Y-86878571D02*
X172857200Y-87021428D01*
X172857200Y-87021428D02*
X172761961Y-87116666D01*
X172761961Y-87116666D02*
X172666723Y-87164285D01*
X172666723Y-87164285D02*
X172476247Y-87211904D01*
X172476247Y-87211904D02*
X172333390Y-87211904D01*
X172333390Y-87211904D02*
X172142914Y-87164285D01*
X172142914Y-87164285D02*
X172047676Y-87116666D01*
X172047676Y-87116666D02*
X171952438Y-87021428D01*
X171952438Y-87021428D02*
X171904819Y-86878571D01*
X171904819Y-86878571D02*
X171904819Y-86783333D01*
X171904819Y-86783333D02*
X171952438Y-86640476D01*
X171952438Y-86640476D02*
X172000057Y-86592857D01*
X172904819Y-85640476D02*
X172904819Y-86211904D01*
X172904819Y-85926190D02*
X171904819Y-85926190D01*
X171904819Y-85926190D02*
X172047676Y-86021428D01*
X172047676Y-86021428D02*
X172142914Y-86116666D01*
X172142914Y-86116666D02*
X172190533Y-86211904D01*
X172333390Y-85069047D02*
X172285771Y-85164285D01*
X172285771Y-85164285D02*
X172238152Y-85211904D01*
X172238152Y-85211904D02*
X172142914Y-85259523D01*
X172142914Y-85259523D02*
X172095295Y-85259523D01*
X172095295Y-85259523D02*
X172000057Y-85211904D01*
X172000057Y-85211904D02*
X171952438Y-85164285D01*
X171952438Y-85164285D02*
X171904819Y-85069047D01*
X171904819Y-85069047D02*
X171904819Y-84878571D01*
X171904819Y-84878571D02*
X171952438Y-84783333D01*
X171952438Y-84783333D02*
X172000057Y-84735714D01*
X172000057Y-84735714D02*
X172095295Y-84688095D01*
X172095295Y-84688095D02*
X172142914Y-84688095D01*
X172142914Y-84688095D02*
X172238152Y-84735714D01*
X172238152Y-84735714D02*
X172285771Y-84783333D01*
X172285771Y-84783333D02*
X172333390Y-84878571D01*
X172333390Y-84878571D02*
X172333390Y-85069047D01*
X172333390Y-85069047D02*
X172381009Y-85164285D01*
X172381009Y-85164285D02*
X172428628Y-85211904D01*
X172428628Y-85211904D02*
X172523866Y-85259523D01*
X172523866Y-85259523D02*
X172714342Y-85259523D01*
X172714342Y-85259523D02*
X172809580Y-85211904D01*
X172809580Y-85211904D02*
X172857200Y-85164285D01*
X172857200Y-85164285D02*
X172904819Y-85069047D01*
X172904819Y-85069047D02*
X172904819Y-84878571D01*
X172904819Y-84878571D02*
X172857200Y-84783333D01*
X172857200Y-84783333D02*
X172809580Y-84735714D01*
X172809580Y-84735714D02*
X172714342Y-84688095D01*
X172714342Y-84688095D02*
X172523866Y-84688095D01*
X172523866Y-84688095D02*
X172428628Y-84735714D01*
X172428628Y-84735714D02*
X172381009Y-84783333D01*
X172381009Y-84783333D02*
X172333390Y-84878571D01*
X179487142Y-85527080D02*
X179439523Y-85574700D01*
X179439523Y-85574700D02*
X179296666Y-85622319D01*
X179296666Y-85622319D02*
X179201428Y-85622319D01*
X179201428Y-85622319D02*
X179058571Y-85574700D01*
X179058571Y-85574700D02*
X178963333Y-85479461D01*
X178963333Y-85479461D02*
X178915714Y-85384223D01*
X178915714Y-85384223D02*
X178868095Y-85193747D01*
X178868095Y-85193747D02*
X178868095Y-85050890D01*
X178868095Y-85050890D02*
X178915714Y-84860414D01*
X178915714Y-84860414D02*
X178963333Y-84765176D01*
X178963333Y-84765176D02*
X179058571Y-84669938D01*
X179058571Y-84669938D02*
X179201428Y-84622319D01*
X179201428Y-84622319D02*
X179296666Y-84622319D01*
X179296666Y-84622319D02*
X179439523Y-84669938D01*
X179439523Y-84669938D02*
X179487142Y-84717557D01*
X179868095Y-84717557D02*
X179915714Y-84669938D01*
X179915714Y-84669938D02*
X180010952Y-84622319D01*
X180010952Y-84622319D02*
X180249047Y-84622319D01*
X180249047Y-84622319D02*
X180344285Y-84669938D01*
X180344285Y-84669938D02*
X180391904Y-84717557D01*
X180391904Y-84717557D02*
X180439523Y-84812795D01*
X180439523Y-84812795D02*
X180439523Y-84908033D01*
X180439523Y-84908033D02*
X180391904Y-85050890D01*
X180391904Y-85050890D02*
X179820476Y-85622319D01*
X179820476Y-85622319D02*
X180439523Y-85622319D01*
X180820476Y-84717557D02*
X180868095Y-84669938D01*
X180868095Y-84669938D02*
X180963333Y-84622319D01*
X180963333Y-84622319D02*
X181201428Y-84622319D01*
X181201428Y-84622319D02*
X181296666Y-84669938D01*
X181296666Y-84669938D02*
X181344285Y-84717557D01*
X181344285Y-84717557D02*
X181391904Y-84812795D01*
X181391904Y-84812795D02*
X181391904Y-84908033D01*
X181391904Y-84908033D02*
X181344285Y-85050890D01*
X181344285Y-85050890D02*
X180772857Y-85622319D01*
X180772857Y-85622319D02*
X181391904Y-85622319D01*
X86237069Y-85390593D02*
X87046592Y-85390593D01*
X87046592Y-85390593D02*
X87141830Y-85342974D01*
X87141830Y-85342974D02*
X87189450Y-85295355D01*
X87189450Y-85295355D02*
X87237069Y-85200117D01*
X87237069Y-85200117D02*
X87237069Y-85009641D01*
X87237069Y-85009641D02*
X87189450Y-84914403D01*
X87189450Y-84914403D02*
X87141830Y-84866784D01*
X87141830Y-84866784D02*
X87046592Y-84819165D01*
X87046592Y-84819165D02*
X86237069Y-84819165D01*
X87189450Y-84390593D02*
X87237069Y-84247736D01*
X87237069Y-84247736D02*
X87237069Y-84009641D01*
X87237069Y-84009641D02*
X87189450Y-83914403D01*
X87189450Y-83914403D02*
X87141830Y-83866784D01*
X87141830Y-83866784D02*
X87046592Y-83819165D01*
X87046592Y-83819165D02*
X86951354Y-83819165D01*
X86951354Y-83819165D02*
X86856116Y-83866784D01*
X86856116Y-83866784D02*
X86808497Y-83914403D01*
X86808497Y-83914403D02*
X86760878Y-84009641D01*
X86760878Y-84009641D02*
X86713259Y-84200117D01*
X86713259Y-84200117D02*
X86665640Y-84295355D01*
X86665640Y-84295355D02*
X86618021Y-84342974D01*
X86618021Y-84342974D02*
X86522783Y-84390593D01*
X86522783Y-84390593D02*
X86427545Y-84390593D01*
X86427545Y-84390593D02*
X86332307Y-84342974D01*
X86332307Y-84342974D02*
X86284688Y-84295355D01*
X86284688Y-84295355D02*
X86237069Y-84200117D01*
X86237069Y-84200117D02*
X86237069Y-83962022D01*
X86237069Y-83962022D02*
X86284688Y-83819165D01*
X86713259Y-83057260D02*
X86760878Y-82914403D01*
X86760878Y-82914403D02*
X86808497Y-82866784D01*
X86808497Y-82866784D02*
X86903735Y-82819165D01*
X86903735Y-82819165D02*
X87046592Y-82819165D01*
X87046592Y-82819165D02*
X87141830Y-82866784D01*
X87141830Y-82866784D02*
X87189450Y-82914403D01*
X87189450Y-82914403D02*
X87237069Y-83009641D01*
X87237069Y-83009641D02*
X87237069Y-83390593D01*
X87237069Y-83390593D02*
X86237069Y-83390593D01*
X86237069Y-83390593D02*
X86237069Y-83057260D01*
X86237069Y-83057260D02*
X86284688Y-82962022D01*
X86284688Y-82962022D02*
X86332307Y-82914403D01*
X86332307Y-82914403D02*
X86427545Y-82866784D01*
X86427545Y-82866784D02*
X86522783Y-82866784D01*
X86522783Y-82866784D02*
X86618021Y-82914403D01*
X86618021Y-82914403D02*
X86665640Y-82962022D01*
X86665640Y-82962022D02*
X86713259Y-83057260D01*
X86713259Y-83057260D02*
X86713259Y-83390593D01*
X87237069Y-81866784D02*
X87237069Y-82438212D01*
X87237069Y-82152498D02*
X86237069Y-82152498D01*
X86237069Y-82152498D02*
X86379926Y-82247736D01*
X86379926Y-82247736D02*
X86475164Y-82342974D01*
X86475164Y-82342974D02*
X86522783Y-82438212D01*
D15*
X164880050Y-94283333D02*
X164903860Y-94307142D01*
X164903860Y-94307142D02*
X164927669Y-94378571D01*
X164927669Y-94378571D02*
X164927669Y-94426190D01*
X164927669Y-94426190D02*
X164903860Y-94497618D01*
X164903860Y-94497618D02*
X164856240Y-94545237D01*
X164856240Y-94545237D02*
X164808621Y-94569047D01*
X164808621Y-94569047D02*
X164713383Y-94592856D01*
X164713383Y-94592856D02*
X164641955Y-94592856D01*
X164641955Y-94592856D02*
X164546717Y-94569047D01*
X164546717Y-94569047D02*
X164499098Y-94545237D01*
X164499098Y-94545237D02*
X164451479Y-94497618D01*
X164451479Y-94497618D02*
X164427669Y-94426190D01*
X164427669Y-94426190D02*
X164427669Y-94378571D01*
X164427669Y-94378571D02*
X164451479Y-94307142D01*
X164451479Y-94307142D02*
X164475288Y-94283333D01*
X164927669Y-94045237D02*
X164927669Y-93949999D01*
X164927669Y-93949999D02*
X164903860Y-93902380D01*
X164903860Y-93902380D02*
X164880050Y-93878571D01*
X164880050Y-93878571D02*
X164808621Y-93830952D01*
X164808621Y-93830952D02*
X164713383Y-93807142D01*
X164713383Y-93807142D02*
X164522907Y-93807142D01*
X164522907Y-93807142D02*
X164475288Y-93830952D01*
X164475288Y-93830952D02*
X164451479Y-93854761D01*
X164451479Y-93854761D02*
X164427669Y-93902380D01*
X164427669Y-93902380D02*
X164427669Y-93997618D01*
X164427669Y-93997618D02*
X164451479Y-94045237D01*
X164451479Y-94045237D02*
X164475288Y-94069047D01*
X164475288Y-94069047D02*
X164522907Y-94092856D01*
X164522907Y-94092856D02*
X164641955Y-94092856D01*
X164641955Y-94092856D02*
X164689574Y-94069047D01*
X164689574Y-94069047D02*
X164713383Y-94045237D01*
X164713383Y-94045237D02*
X164737193Y-93997618D01*
X164737193Y-93997618D02*
X164737193Y-93902380D01*
X164737193Y-93902380D02*
X164713383Y-93854761D01*
X164713383Y-93854761D02*
X164689574Y-93830952D01*
X164689574Y-93830952D02*
X164641955Y-93807142D01*
D11*
X198308319Y-82464904D02*
X199117842Y-82464904D01*
X199117842Y-82464904D02*
X199213080Y-82417285D01*
X199213080Y-82417285D02*
X199260700Y-82369666D01*
X199260700Y-82369666D02*
X199308319Y-82274428D01*
X199308319Y-82274428D02*
X199308319Y-82083952D01*
X199308319Y-82083952D02*
X199260700Y-81988714D01*
X199260700Y-81988714D02*
X199213080Y-81941095D01*
X199213080Y-81941095D02*
X199117842Y-81893476D01*
X199117842Y-81893476D02*
X198308319Y-81893476D01*
X199308319Y-80893476D02*
X199308319Y-81464904D01*
X199308319Y-81179190D02*
X198308319Y-81179190D01*
X198308319Y-81179190D02*
X198451176Y-81274428D01*
X198451176Y-81274428D02*
X198546414Y-81369666D01*
X198546414Y-81369666D02*
X198594033Y-81464904D01*
X174239580Y-82867857D02*
X174287200Y-82915476D01*
X174287200Y-82915476D02*
X174334819Y-83058333D01*
X174334819Y-83058333D02*
X174334819Y-83153571D01*
X174334819Y-83153571D02*
X174287200Y-83296428D01*
X174287200Y-83296428D02*
X174191961Y-83391666D01*
X174191961Y-83391666D02*
X174096723Y-83439285D01*
X174096723Y-83439285D02*
X173906247Y-83486904D01*
X173906247Y-83486904D02*
X173763390Y-83486904D01*
X173763390Y-83486904D02*
X173572914Y-83439285D01*
X173572914Y-83439285D02*
X173477676Y-83391666D01*
X173477676Y-83391666D02*
X173382438Y-83296428D01*
X173382438Y-83296428D02*
X173334819Y-83153571D01*
X173334819Y-83153571D02*
X173334819Y-83058333D01*
X173334819Y-83058333D02*
X173382438Y-82915476D01*
X173382438Y-82915476D02*
X173430057Y-82867857D01*
X173430057Y-82486904D02*
X173382438Y-82439285D01*
X173382438Y-82439285D02*
X173334819Y-82344047D01*
X173334819Y-82344047D02*
X173334819Y-82105952D01*
X173334819Y-82105952D02*
X173382438Y-82010714D01*
X173382438Y-82010714D02*
X173430057Y-81963095D01*
X173430057Y-81963095D02*
X173525295Y-81915476D01*
X173525295Y-81915476D02*
X173620533Y-81915476D01*
X173620533Y-81915476D02*
X173763390Y-81963095D01*
X173763390Y-81963095D02*
X174334819Y-82534523D01*
X174334819Y-82534523D02*
X174334819Y-81915476D01*
X173334819Y-81582142D02*
X173334819Y-80963095D01*
X173334819Y-80963095D02*
X173715771Y-81296428D01*
X173715771Y-81296428D02*
X173715771Y-81153571D01*
X173715771Y-81153571D02*
X173763390Y-81058333D01*
X173763390Y-81058333D02*
X173811009Y-81010714D01*
X173811009Y-81010714D02*
X173906247Y-80963095D01*
X173906247Y-80963095D02*
X174144342Y-80963095D01*
X174144342Y-80963095D02*
X174239580Y-81010714D01*
X174239580Y-81010714D02*
X174287200Y-81058333D01*
X174287200Y-81058333D02*
X174334819Y-81153571D01*
X174334819Y-81153571D02*
X174334819Y-81439285D01*
X174334819Y-81439285D02*
X174287200Y-81534523D01*
X174287200Y-81534523D02*
X174239580Y-81582142D01*
X174283333Y-92194819D02*
X173950000Y-91718628D01*
X173711905Y-92194819D02*
X173711905Y-91194819D01*
X173711905Y-91194819D02*
X174092857Y-91194819D01*
X174092857Y-91194819D02*
X174188095Y-91242438D01*
X174188095Y-91242438D02*
X174235714Y-91290057D01*
X174235714Y-91290057D02*
X174283333Y-91385295D01*
X174283333Y-91385295D02*
X174283333Y-91528152D01*
X174283333Y-91528152D02*
X174235714Y-91623390D01*
X174235714Y-91623390D02*
X174188095Y-91671009D01*
X174188095Y-91671009D02*
X174092857Y-91718628D01*
X174092857Y-91718628D02*
X173711905Y-91718628D01*
X174854762Y-91623390D02*
X174759524Y-91575771D01*
X174759524Y-91575771D02*
X174711905Y-91528152D01*
X174711905Y-91528152D02*
X174664286Y-91432914D01*
X174664286Y-91432914D02*
X174664286Y-91385295D01*
X174664286Y-91385295D02*
X174711905Y-91290057D01*
X174711905Y-91290057D02*
X174759524Y-91242438D01*
X174759524Y-91242438D02*
X174854762Y-91194819D01*
X174854762Y-91194819D02*
X175045238Y-91194819D01*
X175045238Y-91194819D02*
X175140476Y-91242438D01*
X175140476Y-91242438D02*
X175188095Y-91290057D01*
X175188095Y-91290057D02*
X175235714Y-91385295D01*
X175235714Y-91385295D02*
X175235714Y-91432914D01*
X175235714Y-91432914D02*
X175188095Y-91528152D01*
X175188095Y-91528152D02*
X175140476Y-91575771D01*
X175140476Y-91575771D02*
X175045238Y-91623390D01*
X175045238Y-91623390D02*
X174854762Y-91623390D01*
X174854762Y-91623390D02*
X174759524Y-91671009D01*
X174759524Y-91671009D02*
X174711905Y-91718628D01*
X174711905Y-91718628D02*
X174664286Y-91813866D01*
X174664286Y-91813866D02*
X174664286Y-92004342D01*
X174664286Y-92004342D02*
X174711905Y-92099580D01*
X174711905Y-92099580D02*
X174759524Y-92147200D01*
X174759524Y-92147200D02*
X174854762Y-92194819D01*
X174854762Y-92194819D02*
X175045238Y-92194819D01*
X175045238Y-92194819D02*
X175140476Y-92147200D01*
X175140476Y-92147200D02*
X175188095Y-92099580D01*
X175188095Y-92099580D02*
X175235714Y-92004342D01*
X175235714Y-92004342D02*
X175235714Y-91813866D01*
X175235714Y-91813866D02*
X175188095Y-91718628D01*
X175188095Y-91718628D02*
X175140476Y-91671009D01*
X175140476Y-91671009D02*
X175045238Y-91623390D01*
X177039580Y-125142857D02*
X177087200Y-125190476D01*
X177087200Y-125190476D02*
X177134819Y-125333333D01*
X177134819Y-125333333D02*
X177134819Y-125428571D01*
X177134819Y-125428571D02*
X177087200Y-125571428D01*
X177087200Y-125571428D02*
X176991961Y-125666666D01*
X176991961Y-125666666D02*
X176896723Y-125714285D01*
X176896723Y-125714285D02*
X176706247Y-125761904D01*
X176706247Y-125761904D02*
X176563390Y-125761904D01*
X176563390Y-125761904D02*
X176372914Y-125714285D01*
X176372914Y-125714285D02*
X176277676Y-125666666D01*
X176277676Y-125666666D02*
X176182438Y-125571428D01*
X176182438Y-125571428D02*
X176134819Y-125428571D01*
X176134819Y-125428571D02*
X176134819Y-125333333D01*
X176134819Y-125333333D02*
X176182438Y-125190476D01*
X176182438Y-125190476D02*
X176230057Y-125142857D01*
X176134819Y-124809523D02*
X176134819Y-124190476D01*
X176134819Y-124190476D02*
X176515771Y-124523809D01*
X176515771Y-124523809D02*
X176515771Y-124380952D01*
X176515771Y-124380952D02*
X176563390Y-124285714D01*
X176563390Y-124285714D02*
X176611009Y-124238095D01*
X176611009Y-124238095D02*
X176706247Y-124190476D01*
X176706247Y-124190476D02*
X176944342Y-124190476D01*
X176944342Y-124190476D02*
X177039580Y-124238095D01*
X177039580Y-124238095D02*
X177087200Y-124285714D01*
X177087200Y-124285714D02*
X177134819Y-124380952D01*
X177134819Y-124380952D02*
X177134819Y-124666666D01*
X177134819Y-124666666D02*
X177087200Y-124761904D01*
X177087200Y-124761904D02*
X177039580Y-124809523D01*
X176230057Y-123809523D02*
X176182438Y-123761904D01*
X176182438Y-123761904D02*
X176134819Y-123666666D01*
X176134819Y-123666666D02*
X176134819Y-123428571D01*
X176134819Y-123428571D02*
X176182438Y-123333333D01*
X176182438Y-123333333D02*
X176230057Y-123285714D01*
X176230057Y-123285714D02*
X176325295Y-123238095D01*
X176325295Y-123238095D02*
X176420533Y-123238095D01*
X176420533Y-123238095D02*
X176563390Y-123285714D01*
X176563390Y-123285714D02*
X177134819Y-123857142D01*
X177134819Y-123857142D02*
X177134819Y-123238095D01*
X163809580Y-86117857D02*
X163857200Y-86165476D01*
X163857200Y-86165476D02*
X163904819Y-86308333D01*
X163904819Y-86308333D02*
X163904819Y-86403571D01*
X163904819Y-86403571D02*
X163857200Y-86546428D01*
X163857200Y-86546428D02*
X163761961Y-86641666D01*
X163761961Y-86641666D02*
X163666723Y-86689285D01*
X163666723Y-86689285D02*
X163476247Y-86736904D01*
X163476247Y-86736904D02*
X163333390Y-86736904D01*
X163333390Y-86736904D02*
X163142914Y-86689285D01*
X163142914Y-86689285D02*
X163047676Y-86641666D01*
X163047676Y-86641666D02*
X162952438Y-86546428D01*
X162952438Y-86546428D02*
X162904819Y-86403571D01*
X162904819Y-86403571D02*
X162904819Y-86308333D01*
X162904819Y-86308333D02*
X162952438Y-86165476D01*
X162952438Y-86165476D02*
X163000057Y-86117857D01*
X163904819Y-85165476D02*
X163904819Y-85736904D01*
X163904819Y-85451190D02*
X162904819Y-85451190D01*
X162904819Y-85451190D02*
X163047676Y-85546428D01*
X163047676Y-85546428D02*
X163142914Y-85641666D01*
X163142914Y-85641666D02*
X163190533Y-85736904D01*
X163000057Y-84784523D02*
X162952438Y-84736904D01*
X162952438Y-84736904D02*
X162904819Y-84641666D01*
X162904819Y-84641666D02*
X162904819Y-84403571D01*
X162904819Y-84403571D02*
X162952438Y-84308333D01*
X162952438Y-84308333D02*
X163000057Y-84260714D01*
X163000057Y-84260714D02*
X163095295Y-84213095D01*
X163095295Y-84213095D02*
X163190533Y-84213095D01*
X163190533Y-84213095D02*
X163333390Y-84260714D01*
X163333390Y-84260714D02*
X163904819Y-84832142D01*
X163904819Y-84832142D02*
X163904819Y-84213095D01*
D15*
X164880050Y-92271428D02*
X164903860Y-92295237D01*
X164903860Y-92295237D02*
X164927669Y-92366666D01*
X164927669Y-92366666D02*
X164927669Y-92414285D01*
X164927669Y-92414285D02*
X164903860Y-92485713D01*
X164903860Y-92485713D02*
X164856240Y-92533332D01*
X164856240Y-92533332D02*
X164808621Y-92557142D01*
X164808621Y-92557142D02*
X164713383Y-92580951D01*
X164713383Y-92580951D02*
X164641955Y-92580951D01*
X164641955Y-92580951D02*
X164546717Y-92557142D01*
X164546717Y-92557142D02*
X164499098Y-92533332D01*
X164499098Y-92533332D02*
X164451479Y-92485713D01*
X164451479Y-92485713D02*
X164427669Y-92414285D01*
X164427669Y-92414285D02*
X164427669Y-92366666D01*
X164427669Y-92366666D02*
X164451479Y-92295237D01*
X164451479Y-92295237D02*
X164475288Y-92271428D01*
X164927669Y-91795237D02*
X164927669Y-92080951D01*
X164927669Y-91938094D02*
X164427669Y-91938094D01*
X164427669Y-91938094D02*
X164499098Y-91985713D01*
X164499098Y-91985713D02*
X164546717Y-92033332D01*
X164546717Y-92033332D02*
X164570526Y-92080951D01*
X164427669Y-91628571D02*
X164427669Y-91319047D01*
X164427669Y-91319047D02*
X164618145Y-91485714D01*
X164618145Y-91485714D02*
X164618145Y-91414285D01*
X164618145Y-91414285D02*
X164641955Y-91366666D01*
X164641955Y-91366666D02*
X164665764Y-91342857D01*
X164665764Y-91342857D02*
X164713383Y-91319047D01*
X164713383Y-91319047D02*
X164832431Y-91319047D01*
X164832431Y-91319047D02*
X164880050Y-91342857D01*
X164880050Y-91342857D02*
X164903860Y-91366666D01*
X164903860Y-91366666D02*
X164927669Y-91414285D01*
X164927669Y-91414285D02*
X164927669Y-91557142D01*
X164927669Y-91557142D02*
X164903860Y-91604761D01*
X164903860Y-91604761D02*
X164880050Y-91628571D01*
D11*
X179487142Y-84122319D02*
X179153809Y-83646128D01*
X178915714Y-84122319D02*
X178915714Y-83122319D01*
X178915714Y-83122319D02*
X179296666Y-83122319D01*
X179296666Y-83122319D02*
X179391904Y-83169938D01*
X179391904Y-83169938D02*
X179439523Y-83217557D01*
X179439523Y-83217557D02*
X179487142Y-83312795D01*
X179487142Y-83312795D02*
X179487142Y-83455652D01*
X179487142Y-83455652D02*
X179439523Y-83550890D01*
X179439523Y-83550890D02*
X179391904Y-83598509D01*
X179391904Y-83598509D02*
X179296666Y-83646128D01*
X179296666Y-83646128D02*
X178915714Y-83646128D01*
X180439523Y-84122319D02*
X179868095Y-84122319D01*
X180153809Y-84122319D02*
X180153809Y-83122319D01*
X180153809Y-83122319D02*
X180058571Y-83265176D01*
X180058571Y-83265176D02*
X179963333Y-83360414D01*
X179963333Y-83360414D02*
X179868095Y-83408033D01*
X181058571Y-83122319D02*
X181153809Y-83122319D01*
X181153809Y-83122319D02*
X181249047Y-83169938D01*
X181249047Y-83169938D02*
X181296666Y-83217557D01*
X181296666Y-83217557D02*
X181344285Y-83312795D01*
X181344285Y-83312795D02*
X181391904Y-83503271D01*
X181391904Y-83503271D02*
X181391904Y-83741366D01*
X181391904Y-83741366D02*
X181344285Y-83931842D01*
X181344285Y-83931842D02*
X181296666Y-84027080D01*
X181296666Y-84027080D02*
X181249047Y-84074700D01*
X181249047Y-84074700D02*
X181153809Y-84122319D01*
X181153809Y-84122319D02*
X181058571Y-84122319D01*
X181058571Y-84122319D02*
X180963333Y-84074700D01*
X180963333Y-84074700D02*
X180915714Y-84027080D01*
X180915714Y-84027080D02*
X180868095Y-83931842D01*
X180868095Y-83931842D02*
X180820476Y-83741366D01*
X180820476Y-83741366D02*
X180820476Y-83503271D01*
X180820476Y-83503271D02*
X180868095Y-83312795D01*
X180868095Y-83312795D02*
X180915714Y-83217557D01*
X180915714Y-83217557D02*
X180963333Y-83169938D01*
X180963333Y-83169938D02*
X181058571Y-83122319D01*
X147957142Y-111109580D02*
X147909523Y-111157200D01*
X147909523Y-111157200D02*
X147766666Y-111204819D01*
X147766666Y-111204819D02*
X147671428Y-111204819D01*
X147671428Y-111204819D02*
X147528571Y-111157200D01*
X147528571Y-111157200D02*
X147433333Y-111061961D01*
X147433333Y-111061961D02*
X147385714Y-110966723D01*
X147385714Y-110966723D02*
X147338095Y-110776247D01*
X147338095Y-110776247D02*
X147338095Y-110633390D01*
X147338095Y-110633390D02*
X147385714Y-110442914D01*
X147385714Y-110442914D02*
X147433333Y-110347676D01*
X147433333Y-110347676D02*
X147528571Y-110252438D01*
X147528571Y-110252438D02*
X147671428Y-110204819D01*
X147671428Y-110204819D02*
X147766666Y-110204819D01*
X147766666Y-110204819D02*
X147909523Y-110252438D01*
X147909523Y-110252438D02*
X147957142Y-110300057D01*
X148290476Y-110204819D02*
X148909523Y-110204819D01*
X148909523Y-110204819D02*
X148576190Y-110585771D01*
X148576190Y-110585771D02*
X148719047Y-110585771D01*
X148719047Y-110585771D02*
X148814285Y-110633390D01*
X148814285Y-110633390D02*
X148861904Y-110681009D01*
X148861904Y-110681009D02*
X148909523Y-110776247D01*
X148909523Y-110776247D02*
X148909523Y-111014342D01*
X148909523Y-111014342D02*
X148861904Y-111109580D01*
X148861904Y-111109580D02*
X148814285Y-111157200D01*
X148814285Y-111157200D02*
X148719047Y-111204819D01*
X148719047Y-111204819D02*
X148433333Y-111204819D01*
X148433333Y-111204819D02*
X148338095Y-111157200D01*
X148338095Y-111157200D02*
X148290476Y-111109580D01*
X149528571Y-110204819D02*
X149623809Y-110204819D01*
X149623809Y-110204819D02*
X149719047Y-110252438D01*
X149719047Y-110252438D02*
X149766666Y-110300057D01*
X149766666Y-110300057D02*
X149814285Y-110395295D01*
X149814285Y-110395295D02*
X149861904Y-110585771D01*
X149861904Y-110585771D02*
X149861904Y-110823866D01*
X149861904Y-110823866D02*
X149814285Y-111014342D01*
X149814285Y-111014342D02*
X149766666Y-111109580D01*
X149766666Y-111109580D02*
X149719047Y-111157200D01*
X149719047Y-111157200D02*
X149623809Y-111204819D01*
X149623809Y-111204819D02*
X149528571Y-111204819D01*
X149528571Y-111204819D02*
X149433333Y-111157200D01*
X149433333Y-111157200D02*
X149385714Y-111109580D01*
X149385714Y-111109580D02*
X149338095Y-111014342D01*
X149338095Y-111014342D02*
X149290476Y-110823866D01*
X149290476Y-110823866D02*
X149290476Y-110585771D01*
X149290476Y-110585771D02*
X149338095Y-110395295D01*
X149338095Y-110395295D02*
X149385714Y-110300057D01*
X149385714Y-110300057D02*
X149433333Y-110252438D01*
X149433333Y-110252438D02*
X149528571Y-110204819D01*
X116357142Y-76734819D02*
X116023809Y-76258628D01*
X115785714Y-76734819D02*
X115785714Y-75734819D01*
X115785714Y-75734819D02*
X116166666Y-75734819D01*
X116166666Y-75734819D02*
X116261904Y-75782438D01*
X116261904Y-75782438D02*
X116309523Y-75830057D01*
X116309523Y-75830057D02*
X116357142Y-75925295D01*
X116357142Y-75925295D02*
X116357142Y-76068152D01*
X116357142Y-76068152D02*
X116309523Y-76163390D01*
X116309523Y-76163390D02*
X116261904Y-76211009D01*
X116261904Y-76211009D02*
X116166666Y-76258628D01*
X116166666Y-76258628D02*
X115785714Y-76258628D01*
X117309523Y-76734819D02*
X116738095Y-76734819D01*
X117023809Y-76734819D02*
X117023809Y-75734819D01*
X117023809Y-75734819D02*
X116928571Y-75877676D01*
X116928571Y-75877676D02*
X116833333Y-75972914D01*
X116833333Y-75972914D02*
X116738095Y-76020533D01*
X117642857Y-75734819D02*
X118309523Y-75734819D01*
X118309523Y-75734819D02*
X117880952Y-76734819D01*
X108357142Y-96145819D02*
X108023809Y-95669628D01*
X107785714Y-96145819D02*
X107785714Y-95145819D01*
X107785714Y-95145819D02*
X108166666Y-95145819D01*
X108166666Y-95145819D02*
X108261904Y-95193438D01*
X108261904Y-95193438D02*
X108309523Y-95241057D01*
X108309523Y-95241057D02*
X108357142Y-95336295D01*
X108357142Y-95336295D02*
X108357142Y-95479152D01*
X108357142Y-95479152D02*
X108309523Y-95574390D01*
X108309523Y-95574390D02*
X108261904Y-95622009D01*
X108261904Y-95622009D02*
X108166666Y-95669628D01*
X108166666Y-95669628D02*
X107785714Y-95669628D01*
X108738095Y-95241057D02*
X108785714Y-95193438D01*
X108785714Y-95193438D02*
X108880952Y-95145819D01*
X108880952Y-95145819D02*
X109119047Y-95145819D01*
X109119047Y-95145819D02*
X109214285Y-95193438D01*
X109214285Y-95193438D02*
X109261904Y-95241057D01*
X109261904Y-95241057D02*
X109309523Y-95336295D01*
X109309523Y-95336295D02*
X109309523Y-95431533D01*
X109309523Y-95431533D02*
X109261904Y-95574390D01*
X109261904Y-95574390D02*
X108690476Y-96145819D01*
X108690476Y-96145819D02*
X109309523Y-96145819D01*
X109642857Y-95145819D02*
X110261904Y-95145819D01*
X110261904Y-95145819D02*
X109928571Y-95526771D01*
X109928571Y-95526771D02*
X110071428Y-95526771D01*
X110071428Y-95526771D02*
X110166666Y-95574390D01*
X110166666Y-95574390D02*
X110214285Y-95622009D01*
X110214285Y-95622009D02*
X110261904Y-95717247D01*
X110261904Y-95717247D02*
X110261904Y-95955342D01*
X110261904Y-95955342D02*
X110214285Y-96050580D01*
X110214285Y-96050580D02*
X110166666Y-96098200D01*
X110166666Y-96098200D02*
X110071428Y-96145819D01*
X110071428Y-96145819D02*
X109785714Y-96145819D01*
X109785714Y-96145819D02*
X109690476Y-96098200D01*
X109690476Y-96098200D02*
X109642857Y-96050580D01*
X151457142Y-39229580D02*
X151409523Y-39277200D01*
X151409523Y-39277200D02*
X151266666Y-39324819D01*
X151266666Y-39324819D02*
X151171428Y-39324819D01*
X151171428Y-39324819D02*
X151028571Y-39277200D01*
X151028571Y-39277200D02*
X150933333Y-39181961D01*
X150933333Y-39181961D02*
X150885714Y-39086723D01*
X150885714Y-39086723D02*
X150838095Y-38896247D01*
X150838095Y-38896247D02*
X150838095Y-38753390D01*
X150838095Y-38753390D02*
X150885714Y-38562914D01*
X150885714Y-38562914D02*
X150933333Y-38467676D01*
X150933333Y-38467676D02*
X151028571Y-38372438D01*
X151028571Y-38372438D02*
X151171428Y-38324819D01*
X151171428Y-38324819D02*
X151266666Y-38324819D01*
X151266666Y-38324819D02*
X151409523Y-38372438D01*
X151409523Y-38372438D02*
X151457142Y-38420057D01*
X151790476Y-38324819D02*
X152409523Y-38324819D01*
X152409523Y-38324819D02*
X152076190Y-38705771D01*
X152076190Y-38705771D02*
X152219047Y-38705771D01*
X152219047Y-38705771D02*
X152314285Y-38753390D01*
X152314285Y-38753390D02*
X152361904Y-38801009D01*
X152361904Y-38801009D02*
X152409523Y-38896247D01*
X152409523Y-38896247D02*
X152409523Y-39134342D01*
X152409523Y-39134342D02*
X152361904Y-39229580D01*
X152361904Y-39229580D02*
X152314285Y-39277200D01*
X152314285Y-39277200D02*
X152219047Y-39324819D01*
X152219047Y-39324819D02*
X151933333Y-39324819D01*
X151933333Y-39324819D02*
X151838095Y-39277200D01*
X151838095Y-39277200D02*
X151790476Y-39229580D01*
X152742857Y-38324819D02*
X153361904Y-38324819D01*
X153361904Y-38324819D02*
X153028571Y-38705771D01*
X153028571Y-38705771D02*
X153171428Y-38705771D01*
X153171428Y-38705771D02*
X153266666Y-38753390D01*
X153266666Y-38753390D02*
X153314285Y-38801009D01*
X153314285Y-38801009D02*
X153361904Y-38896247D01*
X153361904Y-38896247D02*
X153361904Y-39134342D01*
X153361904Y-39134342D02*
X153314285Y-39229580D01*
X153314285Y-39229580D02*
X153266666Y-39277200D01*
X153266666Y-39277200D02*
X153171428Y-39324819D01*
X153171428Y-39324819D02*
X152885714Y-39324819D01*
X152885714Y-39324819D02*
X152790476Y-39277200D01*
X152790476Y-39277200D02*
X152742857Y-39229580D01*
X160932142Y-121079580D02*
X160884523Y-121127200D01*
X160884523Y-121127200D02*
X160741666Y-121174819D01*
X160741666Y-121174819D02*
X160646428Y-121174819D01*
X160646428Y-121174819D02*
X160503571Y-121127200D01*
X160503571Y-121127200D02*
X160408333Y-121031961D01*
X160408333Y-121031961D02*
X160360714Y-120936723D01*
X160360714Y-120936723D02*
X160313095Y-120746247D01*
X160313095Y-120746247D02*
X160313095Y-120603390D01*
X160313095Y-120603390D02*
X160360714Y-120412914D01*
X160360714Y-120412914D02*
X160408333Y-120317676D01*
X160408333Y-120317676D02*
X160503571Y-120222438D01*
X160503571Y-120222438D02*
X160646428Y-120174819D01*
X160646428Y-120174819D02*
X160741666Y-120174819D01*
X160741666Y-120174819D02*
X160884523Y-120222438D01*
X160884523Y-120222438D02*
X160932142Y-120270057D01*
X161313095Y-120270057D02*
X161360714Y-120222438D01*
X161360714Y-120222438D02*
X161455952Y-120174819D01*
X161455952Y-120174819D02*
X161694047Y-120174819D01*
X161694047Y-120174819D02*
X161789285Y-120222438D01*
X161789285Y-120222438D02*
X161836904Y-120270057D01*
X161836904Y-120270057D02*
X161884523Y-120365295D01*
X161884523Y-120365295D02*
X161884523Y-120460533D01*
X161884523Y-120460533D02*
X161836904Y-120603390D01*
X161836904Y-120603390D02*
X161265476Y-121174819D01*
X161265476Y-121174819D02*
X161884523Y-121174819D01*
X162455952Y-120603390D02*
X162360714Y-120555771D01*
X162360714Y-120555771D02*
X162313095Y-120508152D01*
X162313095Y-120508152D02*
X162265476Y-120412914D01*
X162265476Y-120412914D02*
X162265476Y-120365295D01*
X162265476Y-120365295D02*
X162313095Y-120270057D01*
X162313095Y-120270057D02*
X162360714Y-120222438D01*
X162360714Y-120222438D02*
X162455952Y-120174819D01*
X162455952Y-120174819D02*
X162646428Y-120174819D01*
X162646428Y-120174819D02*
X162741666Y-120222438D01*
X162741666Y-120222438D02*
X162789285Y-120270057D01*
X162789285Y-120270057D02*
X162836904Y-120365295D01*
X162836904Y-120365295D02*
X162836904Y-120412914D01*
X162836904Y-120412914D02*
X162789285Y-120508152D01*
X162789285Y-120508152D02*
X162741666Y-120555771D01*
X162741666Y-120555771D02*
X162646428Y-120603390D01*
X162646428Y-120603390D02*
X162455952Y-120603390D01*
X162455952Y-120603390D02*
X162360714Y-120651009D01*
X162360714Y-120651009D02*
X162313095Y-120698628D01*
X162313095Y-120698628D02*
X162265476Y-120793866D01*
X162265476Y-120793866D02*
X162265476Y-120984342D01*
X162265476Y-120984342D02*
X162313095Y-121079580D01*
X162313095Y-121079580D02*
X162360714Y-121127200D01*
X162360714Y-121127200D02*
X162455952Y-121174819D01*
X162455952Y-121174819D02*
X162646428Y-121174819D01*
X162646428Y-121174819D02*
X162741666Y-121127200D01*
X162741666Y-121127200D02*
X162789285Y-121079580D01*
X162789285Y-121079580D02*
X162836904Y-120984342D01*
X162836904Y-120984342D02*
X162836904Y-120793866D01*
X162836904Y-120793866D02*
X162789285Y-120698628D01*
X162789285Y-120698628D02*
X162741666Y-120651009D01*
X162741666Y-120651009D02*
X162646428Y-120603390D01*
X191739580Y-91560357D02*
X191787200Y-91607976D01*
X191787200Y-91607976D02*
X191834819Y-91750833D01*
X191834819Y-91750833D02*
X191834819Y-91846071D01*
X191834819Y-91846071D02*
X191787200Y-91988928D01*
X191787200Y-91988928D02*
X191691961Y-92084166D01*
X191691961Y-92084166D02*
X191596723Y-92131785D01*
X191596723Y-92131785D02*
X191406247Y-92179404D01*
X191406247Y-92179404D02*
X191263390Y-92179404D01*
X191263390Y-92179404D02*
X191072914Y-92131785D01*
X191072914Y-92131785D02*
X190977676Y-92084166D01*
X190977676Y-92084166D02*
X190882438Y-91988928D01*
X190882438Y-91988928D02*
X190834819Y-91846071D01*
X190834819Y-91846071D02*
X190834819Y-91750833D01*
X190834819Y-91750833D02*
X190882438Y-91607976D01*
X190882438Y-91607976D02*
X190930057Y-91560357D01*
X191834819Y-90607976D02*
X191834819Y-91179404D01*
X191834819Y-90893690D02*
X190834819Y-90893690D01*
X190834819Y-90893690D02*
X190977676Y-90988928D01*
X190977676Y-90988928D02*
X191072914Y-91084166D01*
X191072914Y-91084166D02*
X191120533Y-91179404D01*
X191168152Y-89750833D02*
X191834819Y-89750833D01*
X190787200Y-89988928D02*
X191501485Y-90227023D01*
X191501485Y-90227023D02*
X191501485Y-89607976D01*
X136257142Y-45429580D02*
X136209523Y-45477200D01*
X136209523Y-45477200D02*
X136066666Y-45524819D01*
X136066666Y-45524819D02*
X135971428Y-45524819D01*
X135971428Y-45524819D02*
X135828571Y-45477200D01*
X135828571Y-45477200D02*
X135733333Y-45381961D01*
X135733333Y-45381961D02*
X135685714Y-45286723D01*
X135685714Y-45286723D02*
X135638095Y-45096247D01*
X135638095Y-45096247D02*
X135638095Y-44953390D01*
X135638095Y-44953390D02*
X135685714Y-44762914D01*
X135685714Y-44762914D02*
X135733333Y-44667676D01*
X135733333Y-44667676D02*
X135828571Y-44572438D01*
X135828571Y-44572438D02*
X135971428Y-44524819D01*
X135971428Y-44524819D02*
X136066666Y-44524819D01*
X136066666Y-44524819D02*
X136209523Y-44572438D01*
X136209523Y-44572438D02*
X136257142Y-44620057D01*
X136590476Y-44524819D02*
X137209523Y-44524819D01*
X137209523Y-44524819D02*
X136876190Y-44905771D01*
X136876190Y-44905771D02*
X137019047Y-44905771D01*
X137019047Y-44905771D02*
X137114285Y-44953390D01*
X137114285Y-44953390D02*
X137161904Y-45001009D01*
X137161904Y-45001009D02*
X137209523Y-45096247D01*
X137209523Y-45096247D02*
X137209523Y-45334342D01*
X137209523Y-45334342D02*
X137161904Y-45429580D01*
X137161904Y-45429580D02*
X137114285Y-45477200D01*
X137114285Y-45477200D02*
X137019047Y-45524819D01*
X137019047Y-45524819D02*
X136733333Y-45524819D01*
X136733333Y-45524819D02*
X136638095Y-45477200D01*
X136638095Y-45477200D02*
X136590476Y-45429580D01*
X138114285Y-44524819D02*
X137638095Y-44524819D01*
X137638095Y-44524819D02*
X137590476Y-45001009D01*
X137590476Y-45001009D02*
X137638095Y-44953390D01*
X137638095Y-44953390D02*
X137733333Y-44905771D01*
X137733333Y-44905771D02*
X137971428Y-44905771D01*
X137971428Y-44905771D02*
X138066666Y-44953390D01*
X138066666Y-44953390D02*
X138114285Y-45001009D01*
X138114285Y-45001009D02*
X138161904Y-45096247D01*
X138161904Y-45096247D02*
X138161904Y-45334342D01*
X138161904Y-45334342D02*
X138114285Y-45429580D01*
X138114285Y-45429580D02*
X138066666Y-45477200D01*
X138066666Y-45477200D02*
X137971428Y-45524819D01*
X137971428Y-45524819D02*
X137733333Y-45524819D01*
X137733333Y-45524819D02*
X137638095Y-45477200D01*
X137638095Y-45477200D02*
X137590476Y-45429580D01*
X153586523Y-100976080D02*
X153538904Y-101023700D01*
X153538904Y-101023700D02*
X153396047Y-101071319D01*
X153396047Y-101071319D02*
X153300809Y-101071319D01*
X153300809Y-101071319D02*
X153157952Y-101023700D01*
X153157952Y-101023700D02*
X153062714Y-100928461D01*
X153062714Y-100928461D02*
X153015095Y-100833223D01*
X153015095Y-100833223D02*
X152967476Y-100642747D01*
X152967476Y-100642747D02*
X152967476Y-100499890D01*
X152967476Y-100499890D02*
X153015095Y-100309414D01*
X153015095Y-100309414D02*
X153062714Y-100214176D01*
X153062714Y-100214176D02*
X153157952Y-100118938D01*
X153157952Y-100118938D02*
X153300809Y-100071319D01*
X153300809Y-100071319D02*
X153396047Y-100071319D01*
X153396047Y-100071319D02*
X153538904Y-100118938D01*
X153538904Y-100118938D02*
X153586523Y-100166557D01*
X154015095Y-101071319D02*
X154015095Y-100071319D01*
X154015095Y-100071319D02*
X154586523Y-101071319D01*
X154586523Y-101071319D02*
X154586523Y-100071319D01*
X155015095Y-100166557D02*
X155062714Y-100118938D01*
X155062714Y-100118938D02*
X155157952Y-100071319D01*
X155157952Y-100071319D02*
X155396047Y-100071319D01*
X155396047Y-100071319D02*
X155491285Y-100118938D01*
X155491285Y-100118938D02*
X155538904Y-100166557D01*
X155538904Y-100166557D02*
X155586523Y-100261795D01*
X155586523Y-100261795D02*
X155586523Y-100357033D01*
X155586523Y-100357033D02*
X155538904Y-100499890D01*
X155538904Y-100499890D02*
X154967476Y-101071319D01*
X154967476Y-101071319D02*
X155586523Y-101071319D01*
X116289580Y-95333857D02*
X116337200Y-95381476D01*
X116337200Y-95381476D02*
X116384819Y-95524333D01*
X116384819Y-95524333D02*
X116384819Y-95619571D01*
X116384819Y-95619571D02*
X116337200Y-95762428D01*
X116337200Y-95762428D02*
X116241961Y-95857666D01*
X116241961Y-95857666D02*
X116146723Y-95905285D01*
X116146723Y-95905285D02*
X115956247Y-95952904D01*
X115956247Y-95952904D02*
X115813390Y-95952904D01*
X115813390Y-95952904D02*
X115622914Y-95905285D01*
X115622914Y-95905285D02*
X115527676Y-95857666D01*
X115527676Y-95857666D02*
X115432438Y-95762428D01*
X115432438Y-95762428D02*
X115384819Y-95619571D01*
X115384819Y-95619571D02*
X115384819Y-95524333D01*
X115384819Y-95524333D02*
X115432438Y-95381476D01*
X115432438Y-95381476D02*
X115480057Y-95333857D01*
X115384819Y-95000523D02*
X115384819Y-94381476D01*
X115384819Y-94381476D02*
X115765771Y-94714809D01*
X115765771Y-94714809D02*
X115765771Y-94571952D01*
X115765771Y-94571952D02*
X115813390Y-94476714D01*
X115813390Y-94476714D02*
X115861009Y-94429095D01*
X115861009Y-94429095D02*
X115956247Y-94381476D01*
X115956247Y-94381476D02*
X116194342Y-94381476D01*
X116194342Y-94381476D02*
X116289580Y-94429095D01*
X116289580Y-94429095D02*
X116337200Y-94476714D01*
X116337200Y-94476714D02*
X116384819Y-94571952D01*
X116384819Y-94571952D02*
X116384819Y-94857666D01*
X116384819Y-94857666D02*
X116337200Y-94952904D01*
X116337200Y-94952904D02*
X116289580Y-95000523D01*
X116384819Y-93429095D02*
X116384819Y-94000523D01*
X116384819Y-93714809D02*
X115384819Y-93714809D01*
X115384819Y-93714809D02*
X115527676Y-93810047D01*
X115527676Y-93810047D02*
X115622914Y-93905285D01*
X115622914Y-93905285D02*
X115670533Y-94000523D01*
D16*
%TO.C,IC14*%
X149775000Y-90920000D02*
X151300000Y-90920000D01*
%TO.C,IC13*%
X129080000Y-91275000D02*
X129080000Y-92800000D01*
D17*
%TO.C,C38*%
X102334420Y-95990000D02*
X102615580Y-95990000D01*
X102334420Y-97010000D02*
X102615580Y-97010000D01*
%TO.C,C37*%
X102334420Y-93480000D02*
X102615580Y-93480000D01*
X102334420Y-94500000D02*
X102615580Y-94500000D01*
%TO.C,C6*%
X139010000Y-60915580D02*
X139010000Y-60634420D01*
X137990000Y-60915580D02*
X137990000Y-60634420D01*
D16*
%TO.C,IC9*%
X123782000Y-74785000D02*
G75*
G02*
X123582000Y-74785000I-100000J0D01*
G01*
X123582000Y-74785000D02*
G75*
G02*
X123782000Y-74785000I100000J0D01*
G01*
D10*
X127187000Y-75039000D02*
G75*
G02*
X126247500Y-75039000I-469750J250D01*
G01*
X128737500Y-82862000D02*
X124722500Y-82862000D01*
X127212500Y-75039000D02*
X128482500Y-75039000D01*
X124977500Y-75039000D02*
X126247500Y-75039000D01*
D17*
%TO.C,C27*%
X129140580Y-74510000D02*
X128859420Y-74510000D01*
X129140580Y-73490000D02*
X128859420Y-73490000D01*
D10*
%TO.C,U2*%
X135300500Y-72899500D02*
X117800500Y-72899500D01*
X135300500Y-67099500D02*
X135300500Y-72899500D01*
X134627000Y-67722500D02*
X134627000Y-72221500D01*
X127642000Y-72243500D02*
X127642000Y-72751500D01*
X127464500Y-72243500D02*
X134621500Y-72243500D01*
X125356000Y-72243500D02*
X125356000Y-72777000D01*
X119260000Y-71812000D02*
X119692000Y-72243500D01*
X118854000Y-72218000D02*
X119260000Y-71812000D01*
X118422000Y-72243500D02*
X127515000Y-72243500D01*
X118422000Y-67770000D02*
X118422000Y-72218000D01*
X118421000Y-67697000D02*
X134621500Y-67697000D01*
X117800500Y-72899500D02*
X117800500Y-67099500D01*
X117800500Y-67099500D02*
X135300500Y-67099500D01*
%TO.C,LED11*%
X183923066Y-64737934D02*
X187333058Y-68394702D01*
X184010463Y-64656435D02*
X183923066Y-64737934D01*
X186424296Y-62405500D02*
X185078605Y-63660377D01*
X186529125Y-67092707D02*
X187094466Y-67112449D01*
X186801925Y-67385248D02*
X186529125Y-67092707D01*
X187094466Y-67112449D02*
X186801925Y-67385248D01*
X187420454Y-68313204D02*
X187333058Y-68394702D01*
X187579834Y-61327942D02*
X187492438Y-61409441D01*
X187579834Y-61327942D02*
X190989826Y-64984711D01*
X189834287Y-66062268D02*
X188488596Y-67317145D01*
X190989826Y-64984711D02*
X190902429Y-65066209D01*
X187412312Y-60894431D02*
G75*
G02*
X187212312Y-60894431I-100000J0D01*
G01*
X187212312Y-60894431D02*
G75*
G02*
X187412312Y-60894431I100000J0D01*
G01*
X188956447Y-64861322D02*
G75*
G02*
X185956445Y-64861322I-1500001J0D01*
G01*
X185956445Y-64861322D02*
G75*
G02*
X188956447Y-64861322I1500001J0D01*
G01*
D17*
%TO.C,C20*%
X192115000Y-88178752D02*
X192115000Y-87656248D01*
X190645000Y-88178752D02*
X190645000Y-87656248D01*
D16*
%TO.C,IC3*%
X166790000Y-88957500D02*
G75*
G02*
X166590000Y-88957500I-100000J0D01*
G01*
X166590000Y-88957500D02*
G75*
G02*
X166790000Y-88957500I100000J0D01*
G01*
D10*
X169200000Y-91587500D02*
X169056000Y-91587500D01*
X169200000Y-91118500D02*
X169200000Y-91587500D01*
X169200000Y-88587500D02*
X169200000Y-88606500D01*
X168556000Y-88587500D02*
X169200000Y-88587500D01*
X167344000Y-91587500D02*
X167200000Y-91587500D01*
X167200000Y-91118500D02*
X167200000Y-91587500D01*
X167200000Y-88587500D02*
X167844000Y-88587500D01*
X167200000Y-88587500D02*
X167200000Y-88606500D01*
D17*
%TO.C,C5*%
X137500000Y-60915580D02*
X137500000Y-60634420D01*
X136480000Y-60915580D02*
X136480000Y-60634420D01*
D18*
%TO.C,R22*%
X122967500Y-100169000D02*
X126232500Y-100169000D01*
X122967500Y-101604000D02*
X122967500Y-100169000D01*
X122967500Y-103356000D02*
X122967500Y-104791000D01*
X122967500Y-104791000D02*
X126232500Y-104791000D01*
X126232500Y-100169000D02*
X126232500Y-101604000D01*
X126232500Y-104791000D02*
X126232500Y-103356000D01*
D17*
%TO.C,R6*%
X172187258Y-96722500D02*
X171712742Y-96722500D01*
X172187258Y-95677500D02*
X171712742Y-95677500D01*
%TO.C,C24*%
X192865000Y-95103752D02*
X192865000Y-94581248D01*
X191395000Y-95103752D02*
X191395000Y-94581248D01*
%TO.C,R9*%
X171712742Y-95222500D02*
X172187258Y-95222500D01*
X171712742Y-94177500D02*
X172187258Y-94177500D01*
%TO.C,R11*%
X183367258Y-82690000D02*
X182892742Y-82690000D01*
X183367258Y-81645000D02*
X182892742Y-81645000D01*
%TO.C,C25*%
X164935000Y-81963748D02*
X164935000Y-82486252D01*
X163465000Y-81963748D02*
X163465000Y-82486252D01*
%TO.C,C8*%
X134310000Y-60659420D02*
X134310000Y-60940580D01*
X133290000Y-60659420D02*
X133290000Y-60940580D01*
D10*
%TO.C,LED7*%
X114985013Y-41399285D02*
X115072410Y-41480784D01*
X114985013Y-41399285D02*
X118395005Y-37742517D01*
X116140552Y-42476842D02*
X117486243Y-43731719D01*
X118395005Y-37742517D02*
X118482401Y-37824015D01*
X118554385Y-44727778D02*
X118641781Y-44809277D01*
X118641781Y-44809277D02*
X122051773Y-41152508D01*
X119550543Y-38820074D02*
X120896234Y-40074951D01*
X120789286Y-41479964D02*
X121081828Y-41752764D01*
X120809029Y-42045305D02*
X120789286Y-41479964D01*
X121081828Y-41752764D02*
X120809029Y-42045305D01*
X121964376Y-41071010D02*
X122051773Y-41152508D01*
X114671219Y-41696396D02*
G75*
G02*
X114471219Y-41696396I-100000J0D01*
G01*
X114471219Y-41696396D02*
G75*
G02*
X114671219Y-41696396I100000J0D01*
G01*
X120018394Y-41275897D02*
G75*
G02*
X117018392Y-41275897I-1500001J0D01*
G01*
X117018392Y-41275897D02*
G75*
G02*
X120018394Y-41275897I1500001J0D01*
G01*
D11*
%TO.C,IC8*%
X151347500Y-41214000D02*
G75*
G02*
X151197500Y-41214000I-75000J0D01*
G01*
X151197500Y-41214000D02*
G75*
G02*
X151347500Y-41214000I75000J0D01*
G01*
D18*
X153233500Y-45326000D02*
X153233500Y-45080500D01*
X153233500Y-41674000D02*
X153233500Y-41919500D01*
X152488000Y-45326000D02*
X153233500Y-45326000D01*
X152488000Y-41674000D02*
X153233500Y-41674000D01*
X151327000Y-45326000D02*
X150581500Y-45326000D01*
X151327000Y-41674000D02*
X150581500Y-41674000D01*
X150581500Y-45326000D02*
X150581500Y-45080500D01*
X150581500Y-41674000D02*
X150581500Y-41919500D01*
D17*
%TO.C,C29*%
X115010000Y-91525420D02*
X115010000Y-91806580D01*
X113990000Y-91525420D02*
X113990000Y-91806580D01*
%TO.C,R18*%
X120237258Y-80272500D02*
X119762742Y-80272500D01*
X120237258Y-79227500D02*
X119762742Y-79227500D01*
D18*
%TO.C,R21*%
X145832500Y-116286000D02*
X142567500Y-116286000D01*
X145832500Y-114851000D02*
X145832500Y-116286000D01*
X145832500Y-113099000D02*
X145832500Y-111664000D01*
X145832500Y-111664000D02*
X142567500Y-111664000D01*
X142567500Y-116286000D02*
X142567500Y-114851000D01*
X142567500Y-111664000D02*
X142567500Y-113099000D01*
D17*
%TO.C,C26*%
X182615000Y-95103752D02*
X182615000Y-94581248D01*
X181145000Y-95103752D02*
X181145000Y-94581248D01*
%TO.C,C34*%
X145459420Y-46310000D02*
X145740580Y-46310000D01*
X145459420Y-45290000D02*
X145740580Y-45290000D01*
%TO.C,C36*%
X132459420Y-40510000D02*
X132740580Y-40510000D01*
X132459420Y-39490000D02*
X132740580Y-39490000D01*
%TO.C,R20*%
X164287258Y-131922500D02*
X163812742Y-131922500D01*
X164287258Y-130877500D02*
X163812742Y-130877500D01*
D18*
%TO.C,Q1*%
X166076000Y-98486000D02*
X164323500Y-98486000D01*
X166076000Y-96494500D02*
X166076000Y-97405500D01*
X166076000Y-95414000D02*
X164323500Y-95414000D01*
X164323500Y-98486000D02*
X164323500Y-97444500D01*
X164323500Y-95414000D02*
X164323500Y-96455500D01*
D19*
%TO.C,SW2*%
G36*
X131150000Y-66402500D02*
G01*
X130845000Y-66402500D01*
X130845000Y-64972500D01*
X131150000Y-64972500D01*
X131150000Y-66402500D01*
G37*
G36*
X131150000Y-63827500D02*
G01*
X130845000Y-63827500D01*
X130845000Y-62397500D01*
X131150000Y-62397500D01*
X131150000Y-63827500D01*
G37*
D18*
X137326500Y-66326500D02*
X137326500Y-65023500D01*
X137326500Y-62474000D02*
X137326500Y-63777000D01*
X131074000Y-66326500D02*
X137326500Y-66326500D01*
X131074000Y-62474000D02*
X137326500Y-62474000D01*
D10*
%TO.C,LED3*%
X85659084Y-72847494D02*
X85746481Y-72928993D01*
X85659084Y-72847494D02*
X89069076Y-69190726D01*
X86814623Y-73925051D02*
X88160314Y-75179928D01*
X89069076Y-69190726D02*
X89156472Y-69272224D01*
X89228456Y-76175987D02*
X89315852Y-76257486D01*
X89315852Y-76257486D02*
X92725844Y-72600717D01*
X90224614Y-70268283D02*
X91570305Y-71523160D01*
X91463357Y-72928173D02*
X91755899Y-73200973D01*
X91483100Y-73493514D02*
X91463357Y-72928173D01*
X91755899Y-73200973D02*
X91483100Y-73493514D01*
X92638447Y-72519219D02*
X92725844Y-72600717D01*
X85345290Y-73144605D02*
G75*
G02*
X85145290Y-73144605I-100000J0D01*
G01*
X85145290Y-73144605D02*
G75*
G02*
X85345290Y-73144605I100000J0D01*
G01*
X90692465Y-72724106D02*
G75*
G02*
X87692463Y-72724106I-1500001J0D01*
G01*
X87692463Y-72724106D02*
G75*
G02*
X90692465Y-72724106I1500001J0D01*
G01*
D17*
%TO.C,C21*%
X172090580Y-93710000D02*
X171809420Y-93710000D01*
X172090580Y-92690000D02*
X171809420Y-92690000D01*
D20*
%TO.C,IC10*%
X161045000Y-127669000D02*
G75*
G02*
X160745000Y-127669000I-150000J0D01*
G01*
X160745000Y-127669000D02*
G75*
G02*
X161045000Y-127669000I150000J0D01*
G01*
X160278000Y-129582500D02*
G75*
G02*
X159977000Y-129582500I-150500J0D01*
G01*
X159977000Y-129582500D02*
G75*
G02*
X160278000Y-129582500I150500J0D01*
G01*
D18*
X165376000Y-128421500D02*
X160224000Y-128421500D01*
X165376000Y-125378500D02*
X165376000Y-128421500D01*
X160224000Y-128421500D02*
X160224000Y-125378500D01*
X160224000Y-125378500D02*
X165376000Y-125378500D01*
D17*
%TO.C,R19*%
X161287258Y-131922500D02*
X160812742Y-131922500D01*
X161287258Y-130877500D02*
X160812742Y-130877500D01*
%TO.C,R16*%
X120237258Y-78272500D02*
X119762742Y-78272500D01*
X120237258Y-77227500D02*
X119762742Y-77227500D01*
D19*
%TO.C,SW1*%
G36*
X165759306Y-66177343D02*
G01*
X164748143Y-67188506D01*
X164532475Y-66972838D01*
X165543638Y-65961675D01*
X165759306Y-66177343D01*
G37*
G36*
X163938506Y-67998143D02*
G01*
X162927343Y-69009306D01*
X162711675Y-68793638D01*
X163722838Y-67782475D01*
X163938506Y-67998143D01*
G37*
D18*
X170072657Y-70598882D02*
X169151297Y-71520242D01*
X167348528Y-73323011D02*
X168269888Y-72401650D01*
X165651472Y-66177697D02*
X170072657Y-70598882D01*
X162927343Y-68901825D02*
X167348528Y-73323011D01*
%TO.C,Q2*%
X180631000Y-81203500D02*
X178878500Y-81203500D01*
X180631000Y-79212000D02*
X180631000Y-80123000D01*
X180631000Y-78131500D02*
X178878500Y-78131500D01*
X178878500Y-81203500D02*
X178878500Y-80162000D01*
X178878500Y-78131500D02*
X178878500Y-79173000D01*
D11*
%TO.C,IC5*%
X134097500Y-47214000D02*
G75*
G02*
X133947500Y-47214000I-75000J0D01*
G01*
X133947500Y-47214000D02*
G75*
G02*
X134097500Y-47214000I75000J0D01*
G01*
D18*
X135983500Y-51326000D02*
X135983500Y-51080500D01*
X135983500Y-47674000D02*
X135983500Y-47919500D01*
X135238000Y-51326000D02*
X135983500Y-51326000D01*
X135238000Y-47674000D02*
X135983500Y-47674000D01*
X134077000Y-51326000D02*
X133331500Y-51326000D01*
X134077000Y-47674000D02*
X133331500Y-47674000D01*
X133331500Y-51326000D02*
X133331500Y-51080500D01*
X133331500Y-47674000D02*
X133331500Y-47919500D01*
D17*
%TO.C,R5*%
X178027500Y-84430242D02*
X178027500Y-84904758D01*
X176982500Y-84430242D02*
X176982500Y-84904758D01*
%TO.C,C17*%
X171210000Y-88909420D02*
X171210000Y-89190580D01*
X170190000Y-88909420D02*
X170190000Y-89190580D01*
%TO.C,R12*%
X120237258Y-74772500D02*
X119762742Y-74772500D01*
X120237258Y-73727500D02*
X119762742Y-73727500D01*
D10*
%TO.C,LED8*%
X161928619Y-41151777D02*
X165338611Y-44808545D01*
X162016016Y-41070278D02*
X161928619Y-41151777D01*
X164429849Y-38819343D02*
X163084158Y-40074220D01*
X164534678Y-43506550D02*
X165100019Y-43526292D01*
X164807478Y-43799091D02*
X164534678Y-43506550D01*
X165100019Y-43526292D02*
X164807478Y-43799091D01*
X165426007Y-44727047D02*
X165338611Y-44808545D01*
X165585387Y-37741785D02*
X165497991Y-37823284D01*
X165585387Y-37741785D02*
X168995379Y-41398554D01*
X167839840Y-42476111D02*
X166494149Y-43730988D01*
X168995379Y-41398554D02*
X168907982Y-41480052D01*
X165417865Y-37308274D02*
G75*
G02*
X165217865Y-37308274I-100000J0D01*
G01*
X165217865Y-37308274D02*
G75*
G02*
X165417865Y-37308274I100000J0D01*
G01*
X166962000Y-41275165D02*
G75*
G02*
X163961998Y-41275165I-1500001J0D01*
G01*
X163961998Y-41275165D02*
G75*
G02*
X166962000Y-41275165I1500001J0D01*
G01*
D17*
%TO.C,C11*%
X166210000Y-89115580D02*
X166210000Y-88834420D01*
X165190000Y-89115580D02*
X165190000Y-88834420D01*
%TO.C,R7*%
X190152500Y-81930242D02*
X190152500Y-82404758D01*
X189107500Y-81930242D02*
X189107500Y-82404758D01*
%TO.C,R3*%
X135922500Y-60562742D02*
X135922500Y-61037258D01*
X134877500Y-60562742D02*
X134877500Y-61037258D01*
D10*
%TO.C,IC2*%
X139183750Y-59913500D02*
G75*
G02*
X138380750Y-59913500I-401500J0D01*
G01*
X138380750Y-59913500D02*
G75*
G02*
X139183750Y-59913500I401500J0D01*
G01*
X158213250Y-78582500D02*
X158213250Y-77734500D01*
X158213250Y-59862500D02*
X158213250Y-53055500D01*
X158196250Y-53043500D02*
X140196250Y-53043500D01*
X156862250Y-78582500D02*
X158213250Y-78582500D01*
X156493250Y-59083000D02*
X156493250Y-54198500D01*
X156493250Y-54198500D02*
X154258250Y-54198500D01*
X154461250Y-59083000D02*
X154461250Y-54198500D01*
X154461250Y-54198500D02*
X151609250Y-54198500D01*
X151609250Y-56357500D02*
X149069250Y-56357500D01*
X151609250Y-54198500D02*
X151609250Y-56357500D01*
X149069250Y-56357500D02*
X149069250Y-54198500D01*
X149069250Y-54198500D02*
X146529250Y-54198500D01*
X146529250Y-56357500D02*
X144243250Y-56357500D01*
X146529250Y-54198500D02*
X146529250Y-56357500D01*
X144243250Y-56357500D02*
X144243250Y-54198500D01*
X144243250Y-54198500D02*
X141957250Y-54198500D01*
X141957250Y-54198500D02*
X141957250Y-57881500D01*
X140196250Y-78582500D02*
X141530250Y-78582500D01*
X140196250Y-77734500D02*
X140196250Y-78582500D01*
X140196250Y-59083000D02*
X158213250Y-59083000D01*
X140196250Y-53043500D02*
X140196250Y-59862500D01*
D17*
%TO.C,R14*%
X133512742Y-76522500D02*
X133987258Y-76522500D01*
X133512742Y-75477500D02*
X133987258Y-75477500D01*
%TO.C,C15*%
X183365000Y-87656248D02*
X183365000Y-88178752D01*
X181895000Y-87656248D02*
X181895000Y-88178752D01*
D10*
%TO.C,CN1*%
X127210000Y-99100000D02*
X127210000Y-105100000D01*
X128498000Y-103770000D02*
X128498000Y-105100000D01*
X131002500Y-103770000D02*
X128498000Y-103770000D01*
X131002500Y-104187000D02*
X128498000Y-104187000D01*
X131002500Y-105100000D02*
X131002500Y-103770000D01*
X132290000Y-99100000D02*
X127210000Y-99100000D01*
X132290000Y-99100000D02*
X132290000Y-105100000D01*
X132290000Y-105100000D02*
X127210000Y-105100000D01*
D17*
%TO.C,R15*%
X120237258Y-81772500D02*
X119762742Y-81772500D01*
X120237258Y-80727500D02*
X119762742Y-80727500D01*
%TO.C,R4*%
X163722500Y-92187258D02*
X163722500Y-91712742D01*
X162677500Y-92187258D02*
X162677500Y-91712742D01*
D16*
%TO.C,IC4*%
X188610000Y-89255000D02*
G75*
G02*
X188410000Y-89255000I-100000J0D01*
G01*
X188410000Y-89255000D02*
G75*
G02*
X188610000Y-89255000I100000J0D01*
G01*
D10*
X188000000Y-89625000D02*
X188000000Y-89606000D01*
X188000000Y-89625000D02*
X187356000Y-89625000D01*
X188000000Y-87094000D02*
X188000000Y-86625000D01*
X187856000Y-86625000D02*
X188000000Y-86625000D01*
X186644000Y-89625000D02*
X186000000Y-89625000D01*
X186000000Y-89625000D02*
X186000000Y-89606000D01*
X186000000Y-87094000D02*
X186000000Y-86625000D01*
X186000000Y-86625000D02*
X186144000Y-86625000D01*
D21*
%TO.C,IC1*%
X102210500Y-89393999D02*
G75*
G02*
X102208000Y-89393999I-1250J-199998D01*
G01*
D10*
X102842000Y-88510998D02*
X102842000Y-88010998D01*
X102842000Y-88010998D02*
X101542000Y-88010998D01*
X102838000Y-83788498D02*
X102838000Y-83288498D01*
X102838000Y-83288498D02*
X101538000Y-83288498D01*
X101542000Y-89483998D02*
X101542000Y-82337998D01*
X101542000Y-88510998D02*
X102842000Y-88510998D01*
X101542000Y-82337998D02*
X93592000Y-82337998D01*
X101538000Y-83788498D02*
X102838000Y-83788498D01*
X93592000Y-89483998D02*
X101542000Y-89483998D01*
X93592000Y-82337998D02*
X93592000Y-89483998D01*
D17*
%TO.C,C10*%
X188640000Y-83808080D02*
X188640000Y-83526920D01*
X187620000Y-83808080D02*
X187620000Y-83526920D01*
D10*
%TO.C,LED4*%
X92990566Y-64985442D02*
X93077963Y-65066941D01*
X92990566Y-64985442D02*
X96400558Y-61328674D01*
X94146105Y-66062999D02*
X95491796Y-67317876D01*
X96400558Y-61328674D02*
X96487954Y-61410172D01*
X96559938Y-68313935D02*
X96647334Y-68395434D01*
X96647334Y-68395434D02*
X100057326Y-64738665D01*
X97556096Y-62406231D02*
X98901787Y-63661108D01*
X98794839Y-65066121D02*
X99087381Y-65338921D01*
X98814582Y-65631462D02*
X98794839Y-65066121D01*
X99087381Y-65338921D02*
X98814582Y-65631462D01*
X99969929Y-64657167D02*
X100057326Y-64738665D01*
X92676772Y-65282553D02*
G75*
G02*
X92476772Y-65282553I-100000J0D01*
G01*
X92476772Y-65282553D02*
G75*
G02*
X92676772Y-65282553I100000J0D01*
G01*
X98023947Y-64862054D02*
G75*
G02*
X95023945Y-64862054I-1500001J0D01*
G01*
X95023945Y-64862054D02*
G75*
G02*
X98023947Y-64862054I1500001J0D01*
G01*
%TO.C,CON1*%
X129618000Y-30937500D02*
X154355500Y-30937500D01*
X129618000Y-33144000D02*
X129618000Y-30937500D01*
X129618000Y-35806000D02*
X129618000Y-36753500D01*
X129618000Y-36753500D02*
X131869000Y-36753500D01*
X152131000Y-36753500D02*
X154382000Y-36753500D01*
X154355500Y-30937500D02*
X154300000Y-30937500D01*
X154382000Y-33144000D02*
X154382000Y-30937500D01*
X154382000Y-36753500D02*
X154382000Y-35806000D01*
X152604000Y-37261500D02*
G75*
G02*
X152350000Y-37261500I-127000J0D01*
G01*
X152350000Y-37261500D02*
G75*
G02*
X152604000Y-37261500I127000J0D01*
G01*
D12*
%TO.C,L2*%
X187000000Y-89717500D02*
G75*
G02*
X187000000Y-89617500I0J50000D01*
G01*
X187000000Y-89617500D02*
G75*
G02*
X187000000Y-89717500I0J-50000D01*
G01*
D16*
X190750000Y-97667500D02*
X183250000Y-97667500D01*
X190750000Y-90167500D02*
X190750000Y-97667500D01*
X183250000Y-97667500D02*
X183250000Y-90167500D01*
X183250000Y-90167500D02*
X190750000Y-90167500D01*
D17*
%TO.C,C19*%
X184890000Y-88308080D02*
X184890000Y-88026920D01*
X183870000Y-88308080D02*
X183870000Y-88026920D01*
D18*
%TO.C,R24*%
X174138500Y-125910500D02*
X174138500Y-124589500D01*
X174138500Y-124589500D02*
X173179500Y-124589500D01*
X173179500Y-125910500D02*
X174138500Y-125910500D01*
X172327500Y-125910500D02*
X171368500Y-125910500D01*
X171368500Y-125910500D02*
X171368500Y-124589500D01*
X171368500Y-124589500D02*
X172327500Y-124589500D01*
D19*
%TO.C,kibuzzard-669BBA84*%
G36*
X148664315Y-84750000D02*
G01*
X148220302Y-85416020D01*
X147951050Y-85416020D01*
X147633118Y-85416020D01*
X147085137Y-85416020D01*
X146146850Y-85416020D01*
X145827625Y-85416020D01*
X145189176Y-85416020D01*
X144558481Y-85416020D01*
X143896769Y-85416020D01*
X143134249Y-85416020D01*
X141768174Y-85416020D01*
X140573990Y-85416020D01*
X139843780Y-85416020D01*
X139551696Y-85416020D01*
X139048950Y-85416020D01*
X138779698Y-85416020D01*
X138707898Y-85308320D01*
X141602746Y-85308320D01*
X141768174Y-85308320D01*
X141850927Y-85051131D01*
X142886107Y-85051131D01*
X142975283Y-85090549D01*
X143044750Y-85106543D01*
X143134249Y-85111874D01*
X143224933Y-85105053D01*
X143298815Y-85084590D01*
X143355897Y-85050485D01*
X143410662Y-84976333D01*
X143428918Y-84876656D01*
X143423425Y-84816397D01*
X143406947Y-84767447D01*
X143350727Y-84695073D01*
X143275767Y-84648546D01*
X143197577Y-84616882D01*
X143147819Y-84597496D01*
X143102585Y-84573586D01*
X143069628Y-84542569D01*
X143056704Y-84501858D01*
X143060629Y-84487641D01*
X143494830Y-84487641D01*
X143502908Y-84574556D01*
X143511632Y-84659532D01*
X143521325Y-84742084D01*
X143532310Y-84821729D01*
X143544426Y-84897658D01*
X143557512Y-84969063D01*
X143571567Y-85035137D01*
X143586591Y-85095073D01*
X143706785Y-85095073D01*
X143735218Y-85020113D01*
X143757835Y-84954200D01*
X143779160Y-84888934D01*
X143802423Y-84814620D01*
X143825040Y-84890226D01*
X143847011Y-84956139D01*
X143870275Y-85021405D01*
X143896769Y-85095073D01*
X144016963Y-85095073D01*
X144036995Y-85012359D01*
X144055735Y-84921029D01*
X144073183Y-84821082D01*
X144085097Y-84741599D01*
X144095638Y-84659532D01*
X144099977Y-84619467D01*
X144173344Y-84619467D01*
X144341357Y-84619467D01*
X144341357Y-84843053D01*
X144343942Y-84902827D01*
X144351696Y-84955493D01*
X144387237Y-85038853D01*
X144454443Y-85091195D01*
X144501454Y-85104766D01*
X144558481Y-85109289D01*
X144637964Y-85100889D01*
X144730372Y-85069225D01*
X144709693Y-84941276D01*
X144639903Y-84965186D01*
X144586914Y-84971002D01*
X144520355Y-84944507D01*
X144500323Y-84863732D01*
X144500323Y-84619467D01*
X144819548Y-84619467D01*
X144957835Y-84619467D01*
X144957835Y-84868901D01*
X144961712Y-84937884D01*
X144973344Y-84992326D01*
X145018578Y-85065347D01*
X145090953Y-85100242D01*
X145189176Y-85109289D01*
X145288045Y-85101535D01*
X145383037Y-85075687D01*
X145361066Y-84938691D01*
X145320355Y-84955493D01*
X145284168Y-84965186D01*
X145247981Y-84969709D01*
X145207270Y-84971002D01*
X145169790Y-84967124D01*
X145141357Y-84951616D01*
X145123263Y-84919305D01*
X145116801Y-84865024D01*
X145116801Y-84791357D01*
X145476090Y-84791357D01*
X145481099Y-84856300D01*
X145496123Y-84916721D01*
X145521809Y-84971002D01*
X145558805Y-85017528D01*
X145607431Y-85055654D01*
X145668013Y-85084733D01*
X145741195Y-85103150D01*
X145827625Y-85109289D01*
X145888045Y-85107189D01*
X145940065Y-85100889D01*
X145962271Y-85095073D01*
X146146850Y-85095073D01*
X146305816Y-85095073D01*
X146305816Y-84627221D01*
X146340065Y-84618174D01*
X146383360Y-84613005D01*
X146457027Y-84650485D01*
X146471567Y-84699919D01*
X146476414Y-84773263D01*
X146476414Y-85095073D01*
X146635380Y-85095073D01*
X146635380Y-84796527D01*
X146751696Y-84796527D01*
X146757512Y-84869225D01*
X146774960Y-84932229D01*
X146803231Y-84985703D01*
X146841519Y-85029806D01*
X146889338Y-85064378D01*
X146946204Y-85089257D01*
X147011632Y-85104281D01*
X147085137Y-85109289D01*
X147189822Y-85099596D01*
X147206448Y-85095073D01*
X147472859Y-85095073D01*
X147633118Y-85095073D01*
X147633118Y-84644023D01*
X147699031Y-84631745D01*
X147764943Y-84628514D01*
X147799838Y-84629806D01*
X147842488Y-84634330D01*
X147885784Y-84641438D01*
X147922617Y-84649192D01*
X147951050Y-84501858D01*
X147901292Y-84489580D01*
X147846365Y-84481826D01*
X147795315Y-84477302D01*
X147758481Y-84476010D01*
X147674960Y-84479564D01*
X147602746Y-84490226D01*
X147536995Y-84506704D01*
X147472859Y-84527706D01*
X147472859Y-85095073D01*
X147206448Y-85095073D01*
X147277706Y-85075687D01*
X147255735Y-84939984D01*
X147182714Y-84960662D01*
X147091599Y-84971002D01*
X147021163Y-84962439D01*
X146964943Y-84936753D01*
X146928110Y-84896204D01*
X146915832Y-84843053D01*
X147310016Y-84843053D01*
X147311955Y-84815913D01*
X147312601Y-84783603D01*
X147304847Y-84690047D01*
X147281583Y-84612718D01*
X147242811Y-84551616D01*
X147189104Y-84507458D01*
X147121038Y-84480964D01*
X147038611Y-84472132D01*
X146984976Y-84477302D01*
X146932633Y-84492811D01*
X146883845Y-84518498D01*
X146840872Y-84554200D01*
X146804685Y-84599919D01*
X146776252Y-84655654D01*
X146757835Y-84721244D01*
X146751696Y-84796527D01*
X146635380Y-84796527D01*
X146635380Y-84752585D01*
X146632472Y-84693296D01*
X146623748Y-84639499D01*
X146584976Y-84551616D01*
X146512601Y-84494750D01*
X146461874Y-84479725D01*
X146400162Y-84474717D01*
X146352342Y-84480533D01*
X146305816Y-84492811D01*
X146305816Y-84198142D01*
X146146850Y-84225283D01*
X146146850Y-85095073D01*
X145962271Y-85095073D01*
X146021486Y-85079564D01*
X145998223Y-84949031D01*
X145923910Y-84965832D01*
X145845719Y-84971002D01*
X145748627Y-84959047D01*
X145684814Y-84923183D01*
X145649435Y-84866317D01*
X145637641Y-84791357D01*
X145647981Y-84718982D01*
X145681583Y-84661470D01*
X145742973Y-84623990D01*
X145837964Y-84610420D01*
X145918740Y-84617528D01*
X145976252Y-84633683D01*
X146011147Y-84505735D01*
X145921971Y-84479887D01*
X145823748Y-84472132D01*
X145739580Y-84478433D01*
X145668013Y-84497334D01*
X145608401Y-84527060D01*
X145560097Y-84565832D01*
X145522940Y-84612843D01*
X145496769Y-84667286D01*
X145481260Y-84727383D01*
X145476090Y-84791357D01*
X145116801Y-84791357D01*
X145116801Y-84619467D01*
X145371405Y-84619467D01*
X145371405Y-84487641D01*
X145116801Y-84487641D01*
X145116801Y-84309289D01*
X144957835Y-84335137D01*
X144957835Y-84487641D01*
X144819548Y-84487641D01*
X144819548Y-84619467D01*
X144500323Y-84619467D01*
X144500323Y-84487641D01*
X144393053Y-84487641D01*
X144173344Y-84487641D01*
X144173344Y-84619467D01*
X144099977Y-84619467D01*
X144104806Y-84574879D01*
X144112601Y-84487641D01*
X143976898Y-84487641D01*
X143974475Y-84544669D01*
X143972375Y-84599435D01*
X143967205Y-84706704D01*
X143963489Y-84760501D01*
X143958805Y-84814620D01*
X143952989Y-84870194D01*
X143945880Y-84928352D01*
X143919386Y-84837237D01*
X143898708Y-84757108D01*
X143880614Y-84683441D01*
X143864459Y-84610420D01*
X143749435Y-84610420D01*
X143731987Y-84683441D01*
X143713893Y-84757108D01*
X143691922Y-84837237D01*
X143662843Y-84928352D01*
X143653581Y-84853249D01*
X143646473Y-84779582D01*
X143641519Y-84707351D01*
X143637713Y-84635263D01*
X143634051Y-84562027D01*
X143630533Y-84487641D01*
X143494830Y-84487641D01*
X143060629Y-84487641D01*
X143070777Y-84450880D01*
X143112996Y-84420293D01*
X143183360Y-84410097D01*
X143274475Y-84423021D01*
X143346204Y-84454039D01*
X143392730Y-84331260D01*
X143348119Y-84313166D01*
X144293538Y-84313166D01*
X144322617Y-84386834D01*
X144393053Y-84413974D01*
X144464136Y-84386834D01*
X144493861Y-84313166D01*
X144464136Y-84238207D01*
X144393053Y-84211066D01*
X144322617Y-84238207D01*
X144293538Y-84313166D01*
X143348119Y-84313166D01*
X143300323Y-84293780D01*
X143240711Y-84281179D01*
X143171729Y-84276979D01*
X143092533Y-84284015D01*
X143025543Y-84305125D01*
X142970759Y-84340307D01*
X142915994Y-84415913D01*
X142897738Y-84516074D01*
X142918417Y-84611066D01*
X142970759Y-84675040D01*
X143041195Y-84717690D01*
X143116155Y-84747415D01*
X143170436Y-84770032D01*
X143219548Y-84797173D01*
X143255735Y-84831422D01*
X143269952Y-84875363D01*
X143264136Y-84913489D01*
X143242811Y-84947092D01*
X143200808Y-84970355D01*
X143134249Y-84978756D01*
X143069790Y-84974233D01*
X143015994Y-84960662D01*
X142932633Y-84921890D01*
X142886107Y-85051131D01*
X141850927Y-85051131D01*
X142127464Y-84191680D01*
X141964620Y-84191680D01*
X141602746Y-85308320D01*
X138707898Y-85308320D01*
X138335685Y-84750000D01*
X138638969Y-84295073D01*
X139048950Y-84295073D01*
X139048950Y-85095073D01*
X139551696Y-85095073D01*
X139551696Y-85086026D01*
X139673183Y-85086026D01*
X139760420Y-85100889D01*
X139843780Y-85105412D01*
X139921809Y-85099758D01*
X139993053Y-85082795D01*
X140056220Y-85053554D01*
X140110016Y-85011066D01*
X140153796Y-84954685D01*
X140186914Y-84883764D01*
X140207754Y-84797334D01*
X140214701Y-84694426D01*
X140284491Y-84694426D01*
X140289136Y-84791478D01*
X140303069Y-84875848D01*
X140326292Y-84947536D01*
X140358805Y-85006543D01*
X140415742Y-85065060D01*
X140487471Y-85100171D01*
X140573990Y-85111874D01*
X140658428Y-85100171D01*
X140729079Y-85065060D01*
X140785945Y-85006543D01*
X140818740Y-84947536D01*
X140842165Y-84875848D01*
X140856220Y-84791478D01*
X140860905Y-84694426D01*
X140856300Y-84597375D01*
X140842488Y-84513005D01*
X140819467Y-84441317D01*
X140787237Y-84382310D01*
X140730659Y-84323793D01*
X140659146Y-84288682D01*
X140572698Y-84276979D01*
X140488835Y-84288682D01*
X140418183Y-84323793D01*
X140360743Y-84382310D01*
X140327383Y-84441317D01*
X140303554Y-84513005D01*
X140289257Y-84597375D01*
X140284491Y-84694426D01*
X140214701Y-84694426D01*
X140208401Y-84593780D01*
X140189499Y-84508966D01*
X140159289Y-84438853D01*
X140119063Y-84382310D01*
X140068821Y-84339176D01*
X140008562Y-84309289D01*
X139939903Y-84291842D01*
X139864459Y-84286026D01*
X139775283Y-84289903D01*
X139673183Y-84305412D01*
X139673183Y-85086026D01*
X139551696Y-85086026D01*
X139551696Y-84963247D01*
X139209208Y-84963247D01*
X139209208Y-84295073D01*
X139048950Y-84295073D01*
X138638969Y-84295073D01*
X138779698Y-84083980D01*
X139048950Y-84083980D01*
X147951050Y-84083980D01*
X148220302Y-84083980D01*
X148664315Y-84750000D01*
G37*
G36*
X140638611Y-84437237D02*
G01*
X140676737Y-84496688D01*
X140694830Y-84585218D01*
X140698223Y-84638045D01*
X140699354Y-84694426D01*
X140698223Y-84750646D01*
X140694830Y-84802989D01*
X140676737Y-84891519D01*
X140637964Y-84951616D01*
X140572698Y-84973586D01*
X140506785Y-84951616D01*
X140468659Y-84892165D01*
X140450565Y-84803635D01*
X140447173Y-84750808D01*
X140446042Y-84694426D01*
X140447173Y-84638207D01*
X140450565Y-84585864D01*
X140468659Y-84497334D01*
X140506785Y-84437237D01*
X140572698Y-84415267D01*
X140638611Y-84437237D01*
G37*
G36*
X139965267Y-84446931D02*
G01*
X140018255Y-84507027D01*
X140045396Y-84593619D01*
X140053150Y-84694426D01*
X140050727Y-84751454D01*
X140043457Y-84803635D01*
X140011147Y-84889580D01*
X139951696Y-84946446D01*
X139860582Y-84967124D01*
X139846365Y-84967124D01*
X139832149Y-84965832D01*
X139832149Y-84428191D01*
X139855412Y-84424960D01*
X139878675Y-84424313D01*
X139965267Y-84446931D01*
G37*
G36*
X147095477Y-84616236D02*
G01*
X147131664Y-84645315D01*
X147152342Y-84686026D01*
X147158805Y-84733199D01*
X146915832Y-84733199D01*
X146926817Y-84685380D01*
X146950081Y-84644023D01*
X146987561Y-84615590D01*
X147041195Y-84605250D01*
X147095477Y-84616236D01*
G37*
D22*
%TO.C,IC11*%
X121010000Y-103167500D02*
X121010000Y-103250000D01*
X121010000Y-101050000D02*
X121010000Y-101132500D01*
X119610000Y-103250000D02*
X121010000Y-103250000D01*
X119610000Y-103167500D02*
X119610000Y-103250000D01*
X119610000Y-101050000D02*
X121010000Y-101050000D01*
X119610000Y-101050000D02*
X119610000Y-101132500D01*
D10*
X119421000Y-100880000D02*
G75*
G02*
X119167000Y-100880000I-127000J0D01*
G01*
X119167000Y-100880000D02*
G75*
G02*
X119421000Y-100880000I127000J0D01*
G01*
D11*
%TO.C,IC6*%
X129347500Y-40714000D02*
G75*
G02*
X129197500Y-40714000I-75000J0D01*
G01*
X129197500Y-40714000D02*
G75*
G02*
X129347500Y-40714000I75000J0D01*
G01*
D18*
X131233500Y-44826000D02*
X131233500Y-44580500D01*
X131233500Y-41174000D02*
X131233500Y-41419500D01*
X130488000Y-44826000D02*
X131233500Y-44826000D01*
X130488000Y-41174000D02*
X131233500Y-41174000D01*
X129327000Y-44826000D02*
X128581500Y-44826000D01*
X129327000Y-41174000D02*
X128581500Y-41174000D01*
X128581500Y-44826000D02*
X128581500Y-44580500D01*
X128581500Y-41174000D02*
X128581500Y-41419500D01*
D16*
%TO.C,L1*%
X170790000Y-86720000D02*
X170790000Y-81230000D01*
X165610000Y-81230000D02*
X165610000Y-86720000D01*
D19*
%TO.C,kibuzzard-669AC481*%
G36*
X162014567Y-93314459D02*
G01*
X162014567Y-93960662D01*
X162014567Y-94569386D01*
X162014567Y-95948384D01*
X162014567Y-96629483D01*
X162014567Y-97240792D01*
X162014567Y-97463086D01*
X162014567Y-97732337D01*
X161450000Y-98108715D01*
X160885433Y-97732337D01*
X160885433Y-97463086D01*
X160885433Y-97226575D01*
X161071971Y-97226575D01*
X161077948Y-97295234D01*
X161095880Y-97356462D01*
X161143053Y-97448869D01*
X161259370Y-97392003D01*
X161222536Y-97315105D01*
X161207674Y-97225283D01*
X161232876Y-97152262D01*
X161302019Y-97125767D01*
X161351131Y-97138045D01*
X161382149Y-97169709D01*
X161398950Y-97213651D01*
X161404120Y-97262763D01*
X161404120Y-97322213D01*
X161535945Y-97322213D01*
X161535945Y-97273102D01*
X161542246Y-97202342D01*
X161561147Y-97145153D01*
X161595880Y-97107351D01*
X161649677Y-97094750D01*
X161736268Y-97127706D01*
X161762439Y-97172779D01*
X161771163Y-97242084D01*
X161767609Y-97303312D01*
X161756947Y-97355170D01*
X161729806Y-97432068D01*
X161862924Y-97463086D01*
X161877141Y-97423021D01*
X161891357Y-97366801D01*
X161902342Y-97303473D01*
X161906866Y-97240792D01*
X161902181Y-97166155D01*
X161888126Y-97102504D01*
X161865509Y-97049515D01*
X161835137Y-97006866D01*
X161754362Y-96951292D01*
X161652262Y-96933199D01*
X161587318Y-96941761D01*
X161532068Y-96967447D01*
X161487803Y-97008643D01*
X161455816Y-97063732D01*
X161388611Y-96991357D01*
X161296850Y-96964216D01*
X161207674Y-96979725D01*
X161135945Y-97027544D01*
X161088772Y-97109612D01*
X161076171Y-97163732D01*
X161071971Y-97226575D01*
X160885433Y-97226575D01*
X160885433Y-96853069D01*
X161090065Y-96853069D01*
X161162439Y-96838207D01*
X161252908Y-96816882D01*
X161320616Y-96799794D01*
X161391052Y-96781269D01*
X161464216Y-96761309D01*
X161538817Y-96740199D01*
X161613561Y-96718228D01*
X161688449Y-96695396D01*
X161795073Y-96661470D01*
X161890065Y-96629483D01*
X161890065Y-96465347D01*
X161821208Y-96440648D01*
X161750772Y-96416523D01*
X161678756Y-96392973D01*
X161606381Y-96370355D01*
X161534868Y-96349031D01*
X161464216Y-96328998D01*
X161361309Y-96301535D01*
X161263247Y-96277302D01*
X161172132Y-96256462D01*
X161090065Y-96239176D01*
X161090065Y-96405897D01*
X161157270Y-96417528D01*
X161234814Y-96431745D01*
X161318659Y-96447900D01*
X161404766Y-96465347D01*
X161491357Y-96484087D01*
X161576656Y-96504120D01*
X161656624Y-96524798D01*
X161727221Y-96545477D01*
X161655654Y-96566317D01*
X161575363Y-96587480D01*
X161490065Y-96608158D01*
X161403473Y-96627544D01*
X161317528Y-96645477D01*
X161234168Y-96661793D01*
X161157108Y-96675363D01*
X161090065Y-96685057D01*
X161090065Y-96853069D01*
X160885433Y-96853069D01*
X160885433Y-95934168D01*
X161071971Y-95934168D01*
X161077948Y-96002827D01*
X161095880Y-96064055D01*
X161143053Y-96156462D01*
X161259370Y-96099596D01*
X161222536Y-96022698D01*
X161207674Y-95932876D01*
X161232876Y-95859855D01*
X161302019Y-95833360D01*
X161351131Y-95845638D01*
X161382149Y-95877302D01*
X161398950Y-95921244D01*
X161404120Y-95970355D01*
X161404120Y-96029806D01*
X161535945Y-96029806D01*
X161535945Y-95980695D01*
X161542246Y-95909935D01*
X161561147Y-95852746D01*
X161595880Y-95814943D01*
X161649677Y-95802342D01*
X161736268Y-95835299D01*
X161762439Y-95880372D01*
X161771163Y-95949677D01*
X161767609Y-96010905D01*
X161756947Y-96062763D01*
X161729806Y-96139661D01*
X161862924Y-96170679D01*
X161877141Y-96130614D01*
X161891357Y-96074394D01*
X161902342Y-96011066D01*
X161906866Y-95948384D01*
X161902181Y-95873748D01*
X161888126Y-95810097D01*
X161865509Y-95757108D01*
X161835137Y-95714459D01*
X161754362Y-95658885D01*
X161652262Y-95640792D01*
X161587318Y-95649354D01*
X161532068Y-95675040D01*
X161487803Y-95716236D01*
X161455816Y-95771325D01*
X161388611Y-95698950D01*
X161296850Y-95671809D01*
X161207674Y-95687318D01*
X161135945Y-95735137D01*
X161088772Y-95817205D01*
X161076171Y-95871325D01*
X161071971Y-95934168D01*
X160885433Y-95934168D01*
X160885433Y-94550000D01*
X161071971Y-94550000D01*
X161078595Y-94620113D01*
X161098465Y-94685703D01*
X161131583Y-94744830D01*
X161177948Y-94795557D01*
X161237237Y-94837237D01*
X161309128Y-94869225D01*
X161393296Y-94889580D01*
X161489418Y-94896365D01*
X161586511Y-94890549D01*
X161671002Y-94873102D01*
X161742730Y-94844992D01*
X161801535Y-94807189D01*
X161847415Y-94760178D01*
X161880372Y-94704443D01*
X161900242Y-94640630D01*
X161906866Y-94569386D01*
X161903635Y-94490388D01*
X161893942Y-94423990D01*
X161870679Y-94335460D01*
X161471325Y-94335460D01*
X161471325Y-94494426D01*
X161763409Y-94494426D01*
X161767286Y-94525444D01*
X161768578Y-94556462D01*
X161751616Y-94633683D01*
X161700727Y-94689580D01*
X161647092Y-94714710D01*
X161576656Y-94729788D01*
X161489418Y-94734814D01*
X161430129Y-94732068D01*
X161376333Y-94723829D01*
X161288449Y-94687641D01*
X161230937Y-94623667D01*
X161210258Y-94528029D01*
X161224475Y-94442730D01*
X161256785Y-94372940D01*
X161130129Y-94331583D01*
X161114620Y-94358078D01*
X161095234Y-94402666D01*
X161079079Y-94466640D01*
X161071971Y-94550000D01*
X160885433Y-94550000D01*
X160885433Y-93960662D01*
X161267124Y-93960662D01*
X161272779Y-94020436D01*
X161289742Y-94075687D01*
X161317205Y-94124960D01*
X161354362Y-94166801D01*
X161400565Y-94200727D01*
X161455170Y-94226252D01*
X161517044Y-94242246D01*
X161585057Y-94247577D01*
X161654039Y-94242407D01*
X161716236Y-94226898D01*
X161771002Y-94201858D01*
X161817690Y-94168094D01*
X161855493Y-94126414D01*
X161883603Y-94077625D01*
X161901050Y-94022213D01*
X161906866Y-93960662D01*
X161901050Y-93899111D01*
X161883603Y-93843700D01*
X161855493Y-93795073D01*
X161817690Y-93753877D01*
X161771002Y-93720598D01*
X161716236Y-93695719D01*
X161654039Y-93680210D01*
X161585057Y-93675040D01*
X161517044Y-93680210D01*
X161455170Y-93695719D01*
X161400565Y-93720759D01*
X161354362Y-93754523D01*
X161317205Y-93796204D01*
X161289742Y-93844992D01*
X161272779Y-93900081D01*
X161267124Y-93960662D01*
X160885433Y-93960662D01*
X160885433Y-93314459D01*
X161267124Y-93314459D01*
X161272779Y-93374233D01*
X161289742Y-93429483D01*
X161317205Y-93478756D01*
X161354362Y-93520598D01*
X161400565Y-93554523D01*
X161455170Y-93580048D01*
X161517044Y-93596042D01*
X161585057Y-93601373D01*
X161654039Y-93596204D01*
X161716236Y-93580695D01*
X161771002Y-93555654D01*
X161817690Y-93521890D01*
X161855493Y-93480210D01*
X161883603Y-93431422D01*
X161901050Y-93376010D01*
X161906866Y-93314459D01*
X161901050Y-93252908D01*
X161883603Y-93197496D01*
X161855493Y-93148869D01*
X161817690Y-93107674D01*
X161771002Y-93074394D01*
X161716236Y-93049515D01*
X161654039Y-93034006D01*
X161585057Y-93028837D01*
X161517044Y-93034006D01*
X161455170Y-93049515D01*
X161400565Y-93074556D01*
X161354362Y-93108320D01*
X161317205Y-93150000D01*
X161289742Y-93198788D01*
X161272779Y-93253877D01*
X161267124Y-93314459D01*
X160885433Y-93314459D01*
X160885433Y-92436914D01*
X160993134Y-92436914D01*
X161020275Y-92595880D01*
X161296850Y-92595880D01*
X161276817Y-92650162D01*
X161269709Y-92713489D01*
X161279259Y-92787085D01*
X161307907Y-92847613D01*
X161355654Y-92895073D01*
X161419916Y-92929178D01*
X161498106Y-92949641D01*
X161590226Y-92956462D01*
X161680695Y-92948349D01*
X161757377Y-92924008D01*
X161820275Y-92883441D01*
X161866945Y-92827078D01*
X161894947Y-92755349D01*
X161904281Y-92668255D01*
X161902019Y-92606866D01*
X161895234Y-92544184D01*
X161884895Y-92485703D01*
X161871971Y-92436914D01*
X160993134Y-92436914D01*
X160885433Y-92436914D01*
X160885433Y-92167663D01*
X161450000Y-91791285D01*
X162014567Y-92167663D01*
X162014567Y-92436914D01*
X162014567Y-92668255D01*
X162014567Y-93314459D01*
G37*
G36*
X161660016Y-93845800D02*
G01*
X161718174Y-93869548D01*
X161755977Y-93908805D01*
X161768578Y-93963247D01*
X161755977Y-94018982D01*
X161718174Y-94056947D01*
X161660016Y-94078756D01*
X161586349Y-94086026D01*
X161512843Y-94078110D01*
X161455170Y-94054362D01*
X161417851Y-94015105D01*
X161405412Y-93960662D01*
X161417851Y-93904927D01*
X161455170Y-93866963D01*
X161512843Y-93845153D01*
X161586349Y-93837884D01*
X161660016Y-93845800D01*
G37*
G36*
X161660016Y-93199596D02*
G01*
X161718174Y-93223344D01*
X161755977Y-93262601D01*
X161768578Y-93317044D01*
X161755977Y-93372779D01*
X161718174Y-93410743D01*
X161660016Y-93432553D01*
X161586349Y-93439822D01*
X161512843Y-93431906D01*
X161455170Y-93408158D01*
X161417851Y-93368901D01*
X161405412Y-93314459D01*
X161417851Y-93258724D01*
X161455170Y-93220759D01*
X161512843Y-93198950D01*
X161586349Y-93191680D01*
X161660016Y-93199596D01*
G37*
G36*
X161765994Y-92630775D02*
G01*
X161767286Y-92666963D01*
X161754362Y-92724960D01*
X161715590Y-92764540D01*
X161656462Y-92787318D01*
X161582472Y-92794911D01*
X161507189Y-92788449D01*
X161451939Y-92769063D01*
X161418013Y-92735460D01*
X161406704Y-92686349D01*
X161413813Y-92637237D01*
X161431260Y-92595880D01*
X161762116Y-92595880D01*
X161765994Y-92630775D01*
G37*
D10*
%TO.C,IC12*%
X149743000Y-115570000D02*
G75*
G02*
X149489000Y-115570000I-127000J0D01*
G01*
X149489000Y-115570000D02*
G75*
G02*
X149743000Y-115570000I127000J0D01*
G01*
D22*
X149300000Y-115400000D02*
X149300000Y-115317500D01*
X149300000Y-115400000D02*
X147900000Y-115400000D01*
X149300000Y-113282500D02*
X149300000Y-113200000D01*
X149300000Y-113200000D02*
X147900000Y-113200000D01*
X147900000Y-115400000D02*
X147900000Y-115317500D01*
X147900000Y-113282500D02*
X147900000Y-113200000D01*
D10*
%TO.C,H1*%
X147520000Y-85980000D02*
X147520000Y-88520000D01*
X142253500Y-85980000D02*
X142253500Y-88520000D01*
X139480000Y-88520000D02*
X147520000Y-88520000D01*
X139480000Y-85980000D02*
X147520000Y-85980000D01*
X139480000Y-85980000D02*
X139480000Y-88520000D01*
D17*
%TO.C,C16*%
X190140000Y-85026920D02*
X190140000Y-85308080D01*
X189120000Y-85026920D02*
X189120000Y-85308080D01*
%TO.C,R13*%
X133512742Y-78022500D02*
X133987258Y-78022500D01*
X133512742Y-76977500D02*
X133987258Y-76977500D01*
D11*
%TO.C,IC7*%
X146440000Y-46637000D02*
G75*
G02*
X146290000Y-46637000I-75000J0D01*
G01*
X146290000Y-46637000D02*
G75*
G02*
X146440000Y-46637000I75000J0D01*
G01*
D18*
X148326000Y-50749000D02*
X148326000Y-50503500D01*
X148326000Y-47097000D02*
X148326000Y-47342500D01*
X147580500Y-50749000D02*
X148326000Y-50749000D01*
X147580500Y-47097000D02*
X148326000Y-47097000D01*
X146419500Y-50749000D02*
X145674000Y-50749000D01*
X146419500Y-47097000D02*
X145674000Y-47097000D01*
X145674000Y-50749000D02*
X145674000Y-50503500D01*
X145674000Y-47097000D02*
X145674000Y-47342500D01*
D17*
%TO.C,C18*%
X173185000Y-88638748D02*
X173185000Y-89161252D01*
X171715000Y-88638748D02*
X171715000Y-89161252D01*
%TO.C,C22*%
X182989420Y-85677500D02*
X183270580Y-85677500D01*
X182989420Y-84657500D02*
X183270580Y-84657500D01*
D10*
%TO.C,LED9*%
X169260102Y-49013829D02*
X172670094Y-52670597D01*
X169347499Y-48932330D02*
X169260102Y-49013829D01*
X171761332Y-46681395D02*
X170415641Y-47936272D01*
X171866161Y-51368602D02*
X172431502Y-51388344D01*
X172138961Y-51661143D02*
X171866161Y-51368602D01*
X172431502Y-51388344D02*
X172138961Y-51661143D01*
X172757490Y-52589099D02*
X172670094Y-52670597D01*
X172916870Y-45603837D02*
X172829474Y-45685336D01*
X172916870Y-45603837D02*
X176326862Y-49260606D01*
X175171323Y-50338163D02*
X173825632Y-51593040D01*
X176326862Y-49260606D02*
X176239465Y-49342104D01*
X172749348Y-45170326D02*
G75*
G02*
X172549348Y-45170326I-100000J0D01*
G01*
X172549348Y-45170326D02*
G75*
G02*
X172749348Y-45170326I100000J0D01*
G01*
X174293483Y-49137217D02*
G75*
G02*
X171293481Y-49137217I-1500001J0D01*
G01*
X171293481Y-49137217D02*
G75*
G02*
X174293483Y-49137217I1500001J0D01*
G01*
%TO.C,USB1*%
X87322750Y-79182499D02*
X85525750Y-79182499D01*
X85525750Y-88122499D02*
X87322750Y-88122499D01*
X83292750Y-79182499D02*
X81789750Y-79182499D01*
X81789750Y-88122499D02*
X83292750Y-88122499D01*
X81789750Y-79182499D02*
X81789750Y-88122499D01*
%TO.C,LED12*%
X191254549Y-72599986D02*
X194664541Y-76256754D01*
X191341946Y-72518487D02*
X191254549Y-72599986D01*
X193755779Y-70267552D02*
X192410088Y-71522429D01*
X193860608Y-74954759D02*
X194425949Y-74974501D01*
X194133408Y-75247300D02*
X193860608Y-74954759D01*
X194425949Y-74974501D02*
X194133408Y-75247300D01*
X194751937Y-76175256D02*
X194664541Y-76256754D01*
X194911317Y-69189994D02*
X194823921Y-69271493D01*
X194911317Y-69189994D02*
X198321309Y-72846763D01*
X197165770Y-73924320D02*
X195820079Y-75179197D01*
X198321309Y-72846763D02*
X198233912Y-72928261D01*
X194743795Y-68756483D02*
G75*
G02*
X194543795Y-68756483I-100000J0D01*
G01*
X194543795Y-68756483D02*
G75*
G02*
X194743795Y-68756483I100000J0D01*
G01*
X196287930Y-72723374D02*
G75*
G02*
X193287928Y-72723374I-1500001J0D01*
G01*
X193287928Y-72723374D02*
G75*
G02*
X196287930Y-72723374I1500001J0D01*
G01*
D17*
%TO.C,C9*%
X166309420Y-94785000D02*
X166590580Y-94785000D01*
X166309420Y-93765000D02*
X166590580Y-93765000D01*
D11*
%TO.C,LED2*%
X178261500Y-83058000D02*
X176781500Y-83058000D01*
X178261500Y-81908000D02*
X178261500Y-83058000D01*
X178259500Y-81528000D02*
X178259500Y-80478000D01*
X177959500Y-80178000D02*
X178259500Y-80478000D01*
X177861500Y-81888000D02*
X177851500Y-81888000D01*
X177861500Y-81888000D02*
X177181500Y-81888000D01*
X177859000Y-80178000D02*
X177959500Y-80178000D01*
X177859000Y-80178000D02*
X177159500Y-80178000D01*
X177851500Y-81888000D02*
X177511500Y-81548000D01*
X177511500Y-81888000D02*
X177511500Y-81548000D01*
X177181500Y-81888000D02*
X177181500Y-81878000D01*
X177181500Y-81878000D02*
X177511500Y-81548000D01*
X177159500Y-80178000D02*
X177059000Y-80178000D01*
X177059000Y-80178000D02*
X176759000Y-80478000D01*
X176761500Y-81908000D02*
X176761500Y-83058000D01*
X176759000Y-81528000D02*
X176759000Y-80478000D01*
D10*
%TO.C,U1*%
X200200000Y-85600000D02*
X200200000Y-77760000D01*
X192863000Y-85600000D02*
X192863000Y-77760000D01*
X192000000Y-85600000D02*
X200200000Y-85600000D01*
X192000000Y-85600000D02*
X192000000Y-77760000D01*
X192000000Y-77760000D02*
X200072000Y-77760000D01*
D17*
%TO.C,C23*%
X172935000Y-81963748D02*
X172935000Y-82486252D01*
X171465000Y-81963748D02*
X171465000Y-82486252D01*
D10*
%TO.C,LED6*%
X107653531Y-49261337D02*
X107740928Y-49342836D01*
X107653531Y-49261337D02*
X111063523Y-45604569D01*
X108809070Y-50338894D02*
X110154761Y-51593771D01*
X111063523Y-45604569D02*
X111150919Y-45686067D01*
X111222903Y-52589830D02*
X111310299Y-52671329D01*
X111310299Y-52671329D02*
X114720291Y-49014560D01*
X112219061Y-46682126D02*
X113564752Y-47937003D01*
X113457804Y-49342016D02*
X113750346Y-49614816D01*
X113477547Y-49907357D02*
X113457804Y-49342016D01*
X113750346Y-49614816D02*
X113477547Y-49907357D01*
X114632894Y-48933062D02*
X114720291Y-49014560D01*
X107339737Y-49558448D02*
G75*
G02*
X107139737Y-49558448I-100000J0D01*
G01*
X107139737Y-49558448D02*
G75*
G02*
X107339737Y-49558448I100000J0D01*
G01*
X112686912Y-49137949D02*
G75*
G02*
X109686910Y-49137949I-1500001J0D01*
G01*
X109686910Y-49137949D02*
G75*
G02*
X112686912Y-49137949I1500001J0D01*
G01*
D17*
%TO.C,R8*%
X171712742Y-92222500D02*
X172187258Y-92222500D01*
X171712742Y-91177500D02*
X172187258Y-91177500D01*
%TO.C,C32*%
X175760000Y-124359420D02*
X175760000Y-124640580D01*
X174740000Y-124359420D02*
X174740000Y-124640580D01*
%TO.C,C12*%
X164685000Y-88986252D02*
X164685000Y-88463748D01*
X163215000Y-88986252D02*
X163215000Y-88463748D01*
%TO.C,C13*%
X166210000Y-92115580D02*
X166210000Y-91834420D01*
X165190000Y-92115580D02*
X165190000Y-91834420D01*
%TO.C,R10*%
X183367258Y-84190000D02*
X182892742Y-84190000D01*
X183367258Y-83145000D02*
X182892742Y-83145000D01*
%TO.C,C30*%
X148740580Y-112760000D02*
X148459420Y-112760000D01*
X148740580Y-111740000D02*
X148459420Y-111740000D01*
%TO.C,R17*%
X120237258Y-76772500D02*
X119762742Y-76772500D01*
X120237258Y-75727500D02*
X119762742Y-75727500D01*
D11*
%TO.C,LED1*%
X163946000Y-95014500D02*
X163946000Y-96064500D01*
X163943500Y-94634500D02*
X163943500Y-93484500D01*
X163646000Y-96364500D02*
X163946000Y-96064500D01*
X163545500Y-96364500D02*
X163646000Y-96364500D01*
X163523500Y-94664500D02*
X163193500Y-94994500D01*
X163523500Y-94654500D02*
X163523500Y-94664500D01*
X163193500Y-94654500D02*
X163193500Y-94994500D01*
X162853500Y-94654500D02*
X163193500Y-94994500D01*
X162846000Y-96364500D02*
X163545500Y-96364500D01*
X162846000Y-96364500D02*
X162745500Y-96364500D01*
X162843500Y-94654500D02*
X163523500Y-94654500D01*
X162843500Y-94654500D02*
X162853500Y-94654500D01*
X162745500Y-96364500D02*
X162445500Y-96064500D01*
X162445500Y-95014500D02*
X162445500Y-96064500D01*
X162443500Y-94634500D02*
X162443500Y-93484500D01*
X162443500Y-93484500D02*
X163923500Y-93484500D01*
D18*
%TO.C,R23*%
X113385000Y-96101500D02*
X113385000Y-94780500D01*
X113385000Y-94780500D02*
X112426000Y-94780500D01*
X112426000Y-96101500D02*
X113385000Y-96101500D01*
X111574000Y-96101500D02*
X110615000Y-96101500D01*
X110615000Y-96101500D02*
X110615000Y-94780500D01*
X110615000Y-94780500D02*
X111574000Y-94780500D01*
D10*
%TO.C,LED5*%
X100322049Y-57123389D02*
X100409446Y-57204888D01*
X100322049Y-57123389D02*
X103732041Y-53466621D01*
X101477588Y-58200946D02*
X102823279Y-59455823D01*
X103732041Y-53466621D02*
X103819437Y-53548119D01*
X103891421Y-60451882D02*
X103978817Y-60533381D01*
X103978817Y-60533381D02*
X107388809Y-56876612D01*
X104887579Y-54544178D02*
X106233270Y-55799055D01*
X106126322Y-57204068D02*
X106418864Y-57476868D01*
X106146065Y-57769409D02*
X106126322Y-57204068D01*
X106418864Y-57476868D02*
X106146065Y-57769409D01*
X107301412Y-56795114D02*
X107388809Y-56876612D01*
X100008255Y-57420500D02*
G75*
G02*
X99808255Y-57420500I-100000J0D01*
G01*
X99808255Y-57420500D02*
G75*
G02*
X100008255Y-57420500I100000J0D01*
G01*
X105355430Y-57000001D02*
G75*
G02*
X102355428Y-57000001I-1500001J0D01*
G01*
X102355428Y-57000001D02*
G75*
G02*
X105355430Y-57000001I1500001J0D01*
G01*
D17*
%TO.C,C33*%
X151959420Y-40810000D02*
X152240580Y-40810000D01*
X151959420Y-39790000D02*
X152240580Y-39790000D01*
%TO.C,C28*%
X161434420Y-122660000D02*
X161715580Y-122660000D01*
X161434420Y-121640000D02*
X161715580Y-121640000D01*
%TO.C,C14*%
X190140000Y-88026920D02*
X190140000Y-88308080D01*
X189120000Y-88026920D02*
X189120000Y-88308080D01*
%TO.C,C35*%
X136759420Y-47010000D02*
X137040580Y-47010000D01*
X136759420Y-45990000D02*
X137040580Y-45990000D01*
D19*
%TO.C,kibuzzard-669AC45D*%
G36*
X175822811Y-83509826D02*
G01*
X175878061Y-83529212D01*
X175911987Y-83562815D01*
X175923296Y-83611926D01*
X175916187Y-83661038D01*
X175898740Y-83702395D01*
X175567884Y-83702395D01*
X175564006Y-83667500D01*
X175562714Y-83631313D01*
X175575638Y-83573316D01*
X175614410Y-83533736D01*
X175673538Y-83510957D01*
X175747528Y-83503364D01*
X175822811Y-83509826D01*
G37*
G36*
X175817157Y-82220166D02*
G01*
X175874830Y-82243914D01*
X175912149Y-82283170D01*
X175924588Y-82337613D01*
X175912149Y-82393348D01*
X175874830Y-82431313D01*
X175817157Y-82453122D01*
X175743651Y-82460392D01*
X175669984Y-82452476D01*
X175611826Y-82428728D01*
X175574023Y-82389471D01*
X175561422Y-82335028D01*
X175574023Y-82279293D01*
X175611826Y-82241329D01*
X175669984Y-82219519D01*
X175743651Y-82212250D01*
X175817157Y-82220166D01*
G37*
G36*
X175817157Y-82866369D02*
G01*
X175874830Y-82890117D01*
X175912149Y-82929374D01*
X175924588Y-82983817D01*
X175912149Y-83039552D01*
X175874830Y-83077516D01*
X175817157Y-83099326D01*
X175743651Y-83106595D01*
X175669984Y-83098679D01*
X175611826Y-83074931D01*
X175574023Y-83035674D01*
X175561422Y-82981232D01*
X175574023Y-82925497D01*
X175611826Y-82887532D01*
X175669984Y-82865723D01*
X175743651Y-82858453D01*
X175817157Y-82866369D01*
G37*
G36*
X176444567Y-79204387D02*
G01*
X176444567Y-79473639D01*
X176444567Y-83861361D01*
X176444567Y-84130613D01*
X175880000Y-84506990D01*
X175315433Y-84130613D01*
X175315433Y-83861361D01*
X175315433Y-83630020D01*
X175425719Y-83630020D01*
X175427981Y-83691410D01*
X175434766Y-83754091D01*
X175445105Y-83812573D01*
X175458029Y-83861361D01*
X176336866Y-83861361D01*
X176309725Y-83702395D01*
X176033150Y-83702395D01*
X176053183Y-83648114D01*
X176060291Y-83584786D01*
X176050741Y-83511191D01*
X176022093Y-83450663D01*
X175974346Y-83403203D01*
X175910084Y-83369098D01*
X175831894Y-83348634D01*
X175739774Y-83341813D01*
X175649305Y-83349927D01*
X175572623Y-83374267D01*
X175509725Y-83414834D01*
X175463055Y-83471198D01*
X175435053Y-83542926D01*
X175425719Y-83630020D01*
X175315433Y-83630020D01*
X175315433Y-82983817D01*
X175423134Y-82983817D01*
X175428950Y-83045368D01*
X175446397Y-83100779D01*
X175474507Y-83149406D01*
X175512310Y-83190602D01*
X175558998Y-83223881D01*
X175613764Y-83248760D01*
X175675961Y-83264269D01*
X175744943Y-83269439D01*
X175812956Y-83264269D01*
X175874830Y-83248760D01*
X175929435Y-83223720D01*
X175975638Y-83189956D01*
X176012795Y-83148275D01*
X176040258Y-83099487D01*
X176057221Y-83044398D01*
X176062876Y-82983817D01*
X176057221Y-82924043D01*
X176040258Y-82868792D01*
X176012795Y-82819519D01*
X175975638Y-82777678D01*
X175929435Y-82743752D01*
X175874830Y-82718227D01*
X175812956Y-82702233D01*
X175744943Y-82696902D01*
X175675961Y-82702072D01*
X175613764Y-82717581D01*
X175558998Y-82742621D01*
X175512310Y-82776385D01*
X175474507Y-82818065D01*
X175446397Y-82866854D01*
X175428950Y-82922266D01*
X175423134Y-82983817D01*
X175315433Y-82983817D01*
X175315433Y-82337613D01*
X175423134Y-82337613D01*
X175428950Y-82399164D01*
X175446397Y-82454576D01*
X175474507Y-82503203D01*
X175512310Y-82544398D01*
X175558998Y-82577678D01*
X175613764Y-82602557D01*
X175675961Y-82618065D01*
X175744943Y-82623235D01*
X175812956Y-82618065D01*
X175874830Y-82602557D01*
X175929435Y-82577516D01*
X175975638Y-82543752D01*
X176012795Y-82502072D01*
X176040258Y-82453284D01*
X176057221Y-82398195D01*
X176062876Y-82337613D01*
X176057221Y-82277839D01*
X176040258Y-82222589D01*
X176012795Y-82173316D01*
X175975638Y-82131474D01*
X175929435Y-82097548D01*
X175874830Y-82072023D01*
X175812956Y-82056030D01*
X175744943Y-82050699D01*
X175675961Y-82055868D01*
X175613764Y-82071377D01*
X175558998Y-82096418D01*
X175512310Y-82130182D01*
X175474507Y-82171862D01*
X175446397Y-82220650D01*
X175428950Y-82276062D01*
X175423134Y-82337613D01*
X175315433Y-82337613D01*
X175315433Y-81728889D01*
X175423134Y-81728889D01*
X175426365Y-81807888D01*
X175436058Y-81874285D01*
X175459321Y-81962815D01*
X175858675Y-81962815D01*
X175858675Y-81803849D01*
X175566591Y-81803849D01*
X175562714Y-81772831D01*
X175561422Y-81741813D01*
X175578384Y-81664592D01*
X175629273Y-81608695D01*
X175682908Y-81583565D01*
X175753344Y-81568487D01*
X175840582Y-81563461D01*
X175899871Y-81566208D01*
X175953667Y-81574447D01*
X176041551Y-81610634D01*
X176099063Y-81674608D01*
X176119742Y-81770246D01*
X176105525Y-81855545D01*
X176073215Y-81925335D01*
X176199871Y-81966692D01*
X176215380Y-81940198D01*
X176234766Y-81895610D01*
X176250921Y-81831636D01*
X176258029Y-81748275D01*
X176251405Y-81678162D01*
X176231535Y-81612573D01*
X176198417Y-81553445D01*
X176152052Y-81502718D01*
X176092763Y-81461038D01*
X176020872Y-81429051D01*
X175936704Y-81408695D01*
X175840582Y-81401910D01*
X175743489Y-81407726D01*
X175658998Y-81425174D01*
X175587270Y-81453284D01*
X175528465Y-81491086D01*
X175482585Y-81538098D01*
X175449628Y-81593833D01*
X175429758Y-81657645D01*
X175423134Y-81728889D01*
X175315433Y-81728889D01*
X175315433Y-80314996D01*
X175439935Y-80314996D01*
X175439935Y-80479132D01*
X175508792Y-80503831D01*
X175579228Y-80527956D01*
X175651244Y-80551506D01*
X175723619Y-80574124D01*
X175795132Y-80595448D01*
X175865784Y-80615481D01*
X175968691Y-80642944D01*
X176066753Y-80667177D01*
X176157868Y-80688017D01*
X176239935Y-80705303D01*
X176239935Y-80538582D01*
X176172730Y-80526951D01*
X176095186Y-80512734D01*
X176011341Y-80496579D01*
X175925234Y-80479132D01*
X175838643Y-80460392D01*
X175753344Y-80440359D01*
X175673376Y-80419681D01*
X175602779Y-80399002D01*
X175674346Y-80378162D01*
X175754637Y-80356999D01*
X175839935Y-80336321D01*
X175926527Y-80316935D01*
X176012472Y-80299002D01*
X176095832Y-80282686D01*
X176172892Y-80269116D01*
X176239935Y-80259422D01*
X176239935Y-80091410D01*
X176167561Y-80106272D01*
X176077092Y-80127597D01*
X176009384Y-80144685D01*
X175938948Y-80163210D01*
X175865784Y-80183170D01*
X175791183Y-80204280D01*
X175716439Y-80226251D01*
X175641551Y-80249083D01*
X175534927Y-80283009D01*
X175439935Y-80314996D01*
X175315433Y-80314996D01*
X175315433Y-79689471D01*
X175423134Y-79689471D01*
X175427981Y-79763461D01*
X175442520Y-79827758D01*
X175465784Y-79882363D01*
X175496801Y-79927274D01*
X175578869Y-79986725D01*
X175681616Y-80006111D01*
X175756575Y-79997351D01*
X175819472Y-79971072D01*
X175870307Y-79927274D01*
X175908792Y-79865669D01*
X175934640Y-79785971D01*
X175947851Y-79688179D01*
X176021519Y-79694641D01*
X176108110Y-79701103D01*
X176108110Y-79976385D01*
X176239935Y-79976385D01*
X176239935Y-79567985D01*
X176141228Y-79563138D01*
X176038966Y-79556353D01*
X175933796Y-79547306D01*
X175826365Y-79535674D01*
X175823619Y-79624527D01*
X175815380Y-79694641D01*
X175784362Y-79788340D01*
X175736543Y-79832282D01*
X175675153Y-79843267D01*
X175632504Y-79836805D01*
X175595670Y-79812896D01*
X175569176Y-79765077D01*
X175558837Y-79688179D01*
X175561745Y-79627758D01*
X175570468Y-79578324D01*
X175596317Y-79505949D01*
X175464491Y-79473639D01*
X175450275Y-79510473D01*
X175436704Y-79564107D01*
X175427011Y-79626143D01*
X175423134Y-79689471D01*
X175315433Y-79689471D01*
X175315433Y-79473639D01*
X175315433Y-79204387D01*
X175880000Y-78828010D01*
X176444567Y-79204387D01*
G37*
D10*
%TO.C,CN2*%
X151710000Y-99100000D02*
X151710000Y-105100000D01*
X152998000Y-103770000D02*
X152998000Y-105100000D01*
X155502500Y-103770000D02*
X152998000Y-103770000D01*
X155502500Y-104187000D02*
X152998000Y-104187000D01*
X155502500Y-105100000D02*
X155502500Y-103770000D01*
X156790000Y-99100000D02*
X151710000Y-99100000D01*
X156790000Y-99100000D02*
X156790000Y-105100000D01*
X156790000Y-105100000D02*
X151710000Y-105100000D01*
%TO.C,LED10*%
X176591584Y-56875881D02*
X180001576Y-60532649D01*
X176678981Y-56794382D02*
X176591584Y-56875881D01*
X179092814Y-54543447D02*
X177747123Y-55798324D01*
X179197643Y-59230654D02*
X179762984Y-59250396D01*
X179470443Y-59523195D02*
X179197643Y-59230654D01*
X179762984Y-59250396D02*
X179470443Y-59523195D01*
X180088972Y-60451151D02*
X180001576Y-60532649D01*
X180248352Y-53465889D02*
X180160956Y-53547388D01*
X180248352Y-53465889D02*
X183658344Y-57122658D01*
X182502805Y-58200215D02*
X181157114Y-59455092D01*
X183658344Y-57122658D02*
X183570947Y-57204156D01*
X180080830Y-53032378D02*
G75*
G02*
X179880830Y-53032378I-100000J0D01*
G01*
X179880830Y-53032378D02*
G75*
G02*
X180080830Y-53032378I100000J0D01*
G01*
X181624965Y-56999269D02*
G75*
G02*
X178624963Y-56999269I-1500001J0D01*
G01*
X178624963Y-56999269D02*
G75*
G02*
X181624965Y-56999269I1500001J0D01*
G01*
D17*
%TO.C,C31*%
X115010000Y-94550420D02*
X115010000Y-94831580D01*
X113990000Y-94550420D02*
X113990000Y-94831580D01*
%TD*%
M02*
