M48
; DRILL file {KiCad 8.0.1} date 2024-07-22T13:19:14+0200
; FORMAT={-:-/ absolute / inch / decimal}
; #@! TF.CreationDate,2024-07-22T13:19:14+02:00
; #@! TF.GenerationSoftware,Kicad,Pcbnew,8.0.1
; #@! TF.FileFunction,Plated,1,2,PTH
FMAT,2
INCH
; #@! TA.AperFunction,Plated,PTH,ViaDrill
T1C0.0118
; #@! TA.AperFunction,Plated,PTH,ViaDrill
T2C0.0138
; #@! TA.AperFunction,Plated,PTH,ViaDrill
T3C0.0197
; #@! TA.AperFunction,Plated,PTH,ComponentDrill
T4C0.0197
; #@! TA.AperFunction,Plated,PTH,ComponentDrill
T5C0.0276
; #@! TA.AperFunction,Plated,PTH,ComponentDrill
T6C0.0360
; #@! TA.AperFunction,Plated,PTH,ComponentDrill
T7C0.0394
; #@! TA.AperFunction,Plated,PTH,ComponentDrill
T8C0.0433
; #@! TA.AperFunction,Plated,PTH,ComponentDrill
T9C0.0709
; #@! TA.AperFunction,Plated,PTH,ComponentDrill
T10C0.1260
%
G90
G05
T1
X5.5217Y-4.0059
X5.6693Y-3.9242
X6.1516Y-3.0217
X6.2008Y-3.1201
T2
X3.2853Y-3.1753
X3.2853Y-3.4115
X3.3247Y-3.1753
X3.3247Y-3.4115
X3.364Y-3.1753
X3.364Y-3.4115
X3.4034Y-3.1162
X3.4034Y-3.1753
X3.4034Y-3.4115
X3.4034Y-3.4706
X3.4409Y-2.8425
X3.4625Y-3.3032
X3.5609Y-3.2462
X3.5668Y-3.3564
X3.5672Y-3.2816
X3.5827Y-2.8898
X3.7244Y-2.5433
X3.874Y-2.5748
X4.0157Y-2.2283
X4.1654Y-2.2677
X4.2992Y-1.9213
X4.4567Y-1.9606
X4.5906Y-1.6142
X4.6358Y-2.9626
X4.6969Y-2.878
X4.7402Y-1.6457
X4.7589Y-2.8839
X4.8819Y-2.9232
X5.0079Y-2.8937
X5.0264Y-1.6074
X5.0709Y-1.5709
X5.1142Y-1.7205
X5.1417Y-1.5748
X5.1673Y-3.0512
X5.1969Y-2.9331
X5.2461Y-1.8701
X5.2756Y-1.8425
X5.2992Y-1.9724
X5.3189Y-1.8307
X5.3346Y-2.1496
X5.3642Y-1.3189
X5.3937Y-2.0748
X5.4685Y-3.0315
X5.5413Y-1.3189
X5.5512Y-1.9715
X5.5866Y-2.9882
X5.5945Y-2.5354
X5.6535Y-1.8346
X5.661Y-1.7295
X5.6693Y-3.9567
X5.6811Y-1.8858
X5.689Y-1.998
X5.7018Y-1.8031
X5.7185Y-1.3189
X5.7598Y-2.6339
X5.7598Y-2.689
X5.7598Y-2.7441
X5.7901Y-1.9478
X5.815Y-2.6339
X5.815Y-2.689
X5.815Y-2.7441
X5.8701Y-2.6339
X5.8701Y-2.689
X5.8701Y-2.7441
X5.9055Y-1.4016
X5.9058Y-1.6493
X5.9213Y-1.6171
X5.9449Y-1.2795
X5.9577Y-1.5866
X5.9823Y-1.7343
X5.9892Y-1.3337
X6.1378Y-1.6969
X6.1673Y-1.6811
X6.177Y-1.647
X6.2008Y-1.7835
X6.311Y-2.4055
X6.3937Y-3.5315
X6.4055Y-3.3248
X6.4055Y-3.3543
X6.4055Y-3.3839
X6.4055Y-3.4134
X6.4252Y-3.5315
X6.4547Y-3.5305
X6.4665Y-3.1398
X6.4862Y-3.1693
X6.4941Y-3.5315
X6.4961Y-1.6929
X6.4961Y-2.685
X6.4961Y-3.1398
X6.5138Y-3.3248
X6.5138Y-3.3543
X6.5138Y-3.3839
X6.5138Y-3.4232
X6.5157Y-3.1693
X6.5256Y-3.1398
X6.5354Y-1.5512
X6.5453Y-3.1693
X6.5551Y-3.1398
X6.5728Y-3.7677
X6.5748Y-3.1693
X6.5827Y-3.7972
X6.5846Y-3.1398
X6.6024Y-3.6791
X6.6024Y-3.7677
X6.6043Y-3.1693
X6.6122Y-3.7972
X6.6142Y-3.1398
X6.6142Y-3.7047
X6.6142Y-3.7382
X6.622Y-3.6496
X6.6319Y-3.6791
X6.6319Y-3.7677
X6.6417Y-3.7972
X6.6457Y-3.7047
X6.6457Y-3.7362
X6.6516Y-3.6496
X6.6614Y-3.6791
X6.6614Y-3.7677
X6.6829Y-3.8545
X6.6909Y-3.5807
X6.7205Y-3.3248
X6.7205Y-3.3543
X6.7205Y-3.3839
X6.7205Y-3.4232
X6.75Y-3.5413
X6.7815Y-1.998
X6.8268Y-1.8583
X6.8287Y-3.3248
X6.8287Y-3.3543
X6.8287Y-3.3839
X6.8287Y-3.4134
X6.8484Y-3.5217
X6.8484Y-3.5512
X6.8583Y-3.4921
X6.878Y-3.5217
X6.878Y-3.5512
X6.8878Y-3.4921
X6.8947Y-3.2726
X6.9213Y-3.5827
X6.9961Y-3.2126
X7.0425Y-3.3727
X7.0425Y-3.622
X7.0768Y-2.313
X7.0768Y-3.4219
X7.1063Y-3.4219
X7.1181Y-2.1732
X7.1262Y-3.2054
X7.1358Y-3.4219
X7.2295Y-3.4219
X7.2835Y-3.2402
X7.3089Y-3.3673
X7.315Y-3.2402
X7.315Y-3.2717
X7.315Y-3.3031
X7.3465Y-3.2402
X7.3465Y-3.2717
X7.3622Y-4.1024
X7.3673Y-3.3727
X7.372Y-2.628
X7.378Y-3.2402
X7.378Y-3.2717
X7.4094Y-2.4882
X7.4215Y-3.2054
X7.4953Y-3.4219
X7.574Y-3.4219
X7.6134Y-3.4219
X7.6476Y-2.9331
X7.685Y-2.7874
X7.8382Y-2.9818
X7.8593Y-3.0029
X7.8742Y-3.0303
X7.8976Y-3.0157
T3
X3.7549Y-3.3022
X3.7549Y-3.4596
X3.8189Y-3.189
X3.8583Y-3.189
X3.8976Y-3.189
X3.937Y-3.189
X3.937Y-3.3583
X3.937Y-3.3976
X4.0039Y-3.3583
X4.0039Y-3.3976
X4.065Y-3.2923
X4.1289Y-3.2923
X4.2402Y-3.378
X4.2795Y-3.378
X4.6929Y-3.3189
X4.9016Y-1.4961
X4.9311Y-1.4665
X4.9311Y-1.7224
X4.9508Y-2.3031
X4.9508Y-2.3425
X4.9508Y-2.3819
X4.9508Y-3.4941
X4.9508Y-3.5335
X4.9624Y-1.4388
X4.9705Y-1.752
X4.9764Y-3.7362
X4.9764Y-3.7874
X5.0098Y-1.7815
X5.0098Y-3.3071
X5.0276Y-3.7362
X5.0276Y-3.7874
X5.0591Y-3.3071
X5.1083Y-3.3071
X5.187Y-3.7697
X5.2362Y-2.3228
X5.2362Y-3.5433
X5.2461Y-2.126
X5.2559Y-2.2047
X5.2756Y-2.1555
X5.3051Y-2.185
X5.3248Y-3.5039
X5.3248Y-3.5433
X5.3346Y-2.0768
X5.3346Y-2.2146
X5.3642Y-2.1063
X5.3642Y-3.5039
X5.3642Y-3.5433
X5.3937Y-2.1358
X5.4035Y-3.5039
X5.4035Y-3.5433
X5.4173Y-2.9764
X5.4232Y-2.1654
X5.4232Y-4.1142
X5.4921Y-3.8091
X5.4921Y-3.8484
X5.5709Y-4.0846
X5.5709Y-4.124
X5.6004Y-3.8287
X5.6102Y-2.372
X5.6102Y-2.687
X5.6102Y-2.7362
X5.6102Y-2.7854
X5.6102Y-2.8346
X5.6496Y-2.372
X5.6693Y-2.4331
X5.689Y-2.372
X5.689Y-3.3563
X5.6988Y-3.4744
X5.7283Y-2.372
X5.7283Y-3.3563
X5.7972Y-4.1043
X5.8268Y-3.8386
X5.8465Y-3.7362
X5.8465Y-3.7874
X5.8465Y-4.1043
X5.8976Y-3.7362
X5.8976Y-3.7874
X5.9114Y-3.5
X6.0535Y-3.7633
X6.0925Y-1.7815
X6.0925Y-1.8209
X6.0925Y-1.8602
X6.1024Y-3.5433
X6.1516Y-2.6969
X6.1516Y-2.7362
X6.1516Y-2.7756
X6.1811Y-3.5236
X6.2008Y-1.5551
X6.2008Y-3.7894
X6.2205Y-3.5236
X6.2303Y-1.5945
X6.2402Y-3.7894
X6.25Y-1.6339
X6.2598Y-3.5236
X6.2795Y-3.7894
X6.2992Y-3.5236
X6.3091Y-2.6772
X6.3091Y-2.7165
X6.3091Y-2.7559
X6.3091Y-2.7953
X6.3189Y-3.7894
X6.3878Y-3.9764
X6.3878Y-4.0157
X6.4272Y-3.9764
X6.4272Y-4.0157
X6.4764Y-2.7362
X6.5846Y-3.8976
X6.624Y-3.8976
X6.6634Y-3.8976
X6.6831Y-3.0709
X6.6831Y-3.1102
X6.7247Y-3.0709
X6.7247Y-3.1099
X6.7717Y-3.0709
X6.7717Y-3.1102
X6.811Y-3.0709
X6.811Y-3.1102
X6.9291Y-3.7106
X6.9291Y-3.7598
X6.9291Y-3.8091
X6.9587Y-3.2579
X6.9587Y-3.3071
X6.9587Y-3.3563
X7.0866Y-3.6614
X7.0965Y-3.8386
X7.0965Y-3.878
X7.1358Y-3.5433
X7.1358Y-3.6024
X7.1358Y-3.8386
X7.1358Y-3.878
X7.1457Y-4.1142
X7.1555Y-3.6614
X7.1949Y-3.5433
X7.1949Y-3.6024
X7.1949Y-4.1142
X7.2539Y-3.0807
X7.2539Y-3.5433
X7.2539Y-4.1142
X7.2933Y-3.0807
X7.3228Y-3.9764
X7.3228Y-4.0256
X7.3324Y-3.0804
X7.372Y-3.9764
X7.372Y-4.0256
X7.4213Y-3.1398
X7.4606Y-3.1398
X7.4606Y-3.5433
X7.5394Y-3.5433
X7.5394Y-3.5925
X7.5591Y-3.6614
X7.5886Y-3.5433
X7.5886Y-3.5925
X7.6083Y-3.6614
X7.6575Y-3.4843
X7.7854Y-3.75
X7.7854Y-3.8976
X7.815Y-3.1004
X7.815Y-3.1496
X7.8248Y-3.75
X7.8248Y-3.8976
X7.8642Y-3.4744
X7.8642Y-3.75
X7.8642Y-3.8976
X7.9035Y-3.435
X7.9134Y-3.4941
T4
X4.0492Y-4.3209
X4.0492Y-5.374
X4.0769Y-4.2541
X4.0769Y-4.3877
X4.0769Y-5.3072
X4.0769Y-5.4408
X4.1437Y-4.2264
X4.1437Y-4.4154
X4.1437Y-5.2795
X4.1437Y-5.4685
X4.2105Y-4.2541
X4.2105Y-4.3877
X4.2105Y-5.3072
X4.2105Y-5.4408
X4.2382Y-4.3209
X4.2382Y-5.374
X4.7776Y-4.3209
X4.7776Y-5.374
X4.8052Y-4.2541
X4.8052Y-4.3877
X4.8052Y-5.3072
X4.8052Y-5.4408
X4.872Y-4.2264
X4.872Y-4.4154
X4.872Y-5.2795
X4.872Y-5.4685
X4.9389Y-4.2541
X4.9389Y-4.3877
X4.9389Y-5.3072
X4.9389Y-5.4408
X4.9665Y-4.3209
X4.9665Y-5.374
X5.4961Y-4.9627
X5.4961Y-5.3543
X5.5237Y-4.8959
X5.5237Y-5.0295
X5.5237Y-5.2875
X5.5237Y-5.4211
X5.5906Y-4.8682
X5.5906Y-5.0572
X5.5906Y-5.2598
X5.5906Y-5.4488
X5.6574Y-4.8959
X5.6574Y-5.0295
X5.6574Y-5.2875
X5.6574Y-5.4211
X5.685Y-4.9627
X5.685Y-5.3543
X6.2146Y-4.3209
X6.2146Y-5.374
X6.2422Y-4.2541
X6.2422Y-4.3877
X6.2422Y-5.3072
X6.2422Y-5.4408
X6.3091Y-4.2264
X6.3091Y-4.4154
X6.3091Y-5.2795
X6.3091Y-5.4685
X6.3759Y-4.2541
X6.3759Y-4.3877
X6.3759Y-5.3072
X6.3759Y-5.4408
X6.4035Y-4.3209
X6.4035Y-5.374
X6.9429Y-4.3209
X6.945Y-5.3761
X6.9706Y-4.2541
X6.9706Y-4.3877
X6.9727Y-5.3093
X6.9727Y-5.4429
X7.0374Y-4.2264
X7.0374Y-4.4154
X7.0395Y-5.2816
X7.0395Y-5.4706
X7.1042Y-4.2541
X7.1042Y-4.3877
X7.1063Y-5.3093
X7.1063Y-5.4429
X7.1319Y-4.3209
X7.134Y-5.3761
T6
X4.8228Y-2.7165
X4.8228Y-2.7952
X4.9016Y-2.7165
X4.9016Y-2.7952
X4.9803Y-2.7165
X4.9803Y-2.7952
X5.059Y-2.7165
X5.059Y-2.7952
X5.1379Y-2.7165
X5.1379Y-2.7952
T7
X3.8622Y-3.6795
X3.8622Y-3.7795
X3.8622Y-3.8795
X3.8622Y-3.9795
X3.8622Y-4.0795
X3.9622Y-3.6795
X3.9622Y-3.7795
X3.9622Y-3.8795
X3.9622Y-3.9795
X3.9622Y-4.0795
X4.0622Y-3.6795
X4.0622Y-3.7795
X4.0622Y-3.8795
X4.0622Y-3.9795
X4.0622Y-4.0795
X4.1622Y-3.6795
X4.1622Y-3.7795
X4.1622Y-3.8795
X4.1622Y-3.9795
X4.1622Y-4.0795
X4.2622Y-3.6795
X4.2622Y-3.7795
X4.2622Y-3.8795
X4.2622Y-3.9795
X4.2622Y-4.0795
X4.3622Y-3.6795
X4.3622Y-3.7795
X4.3622Y-3.8795
X4.3622Y-3.9795
X4.3622Y-4.0795
X4.4622Y-3.6795
X4.4622Y-3.7795
X4.4622Y-3.8795
X4.4622Y-3.9795
X4.4622Y-4.0795
X4.5622Y-3.6795
X4.5622Y-3.7795
X4.5622Y-3.8795
X4.5622Y-3.9795
X4.5622Y-4.0795
X4.6622Y-3.6795
X4.6622Y-3.7795
X4.6622Y-3.8795
X4.6622Y-3.9795
X4.6622Y-4.0795
X4.7622Y-3.6795
X4.7622Y-3.7795
X4.7622Y-3.8795
X4.7622Y-3.9795
X4.7622Y-4.0795
X5.2724Y-3.2677
X5.3724Y-3.2677
X5.4724Y-3.2677
X5.5724Y-3.2677
X5.6724Y-3.2677
X5.7724Y-3.2677
X5.8724Y-3.2677
X5.9724Y-3.2677
X6.0724Y-3.2677
X6.1724Y-3.2677
T8
X5.0632Y-3.9715
X5.1632Y-3.9715
X5.5496Y-3.435
X5.6496Y-3.435
X5.7496Y-3.435
X6.0228Y-3.9665
X6.1228Y-3.9665
T9
X7.6969Y-3.1378
X7.6969Y-3.2937
T10
X4.1437Y-4.3209
X4.1437Y-5.374
X4.872Y-4.3209
X4.872Y-5.374
X5.5906Y-4.9627
X5.5906Y-5.3543
X6.3091Y-4.3209
X6.3091Y-5.374
X7.0374Y-4.3209
X7.0395Y-5.3761
T5
G00X3.337Y-3.1233
M15
G01X3.3094Y-3.1233
M16
G05
G00X3.337Y-3.4635
M15
G01X3.3094Y-3.4635
M16
G05
G00X3.5075Y-3.1233
M15
G01X3.4681Y-3.1233
M16
G05
G00X3.5075Y-3.4635
M15
G01X3.4681Y-3.4635
M16
G05
M30
