%TF.GenerationSoftware,KiCad,Pcbnew,8.0.1*%
%TF.CreationDate,2024-07-22T13:19:01+02:00*%
%TF.ProjectId,LineFollower_V2,4c696e65-466f-46c6-9c6f-7765725f5632,rev?*%
%TF.SameCoordinates,Original*%
%TF.FileFunction,Legend,Top*%
%TF.FilePolarity,Positive*%
%FSLAX46Y46*%
G04 Gerber Fmt 4.6, Leading zero omitted, Abs format (unit mm)*
G04 Created by KiCad (PCBNEW 8.0.1) date 2024-07-22 13:19:01*
%MOMM*%
%LPD*%
G01*
G04 APERTURE LIST*
%ADD10C,0.100000*%
%ADD11C,0.300000*%
%ADD12C,0.000000*%
%ADD13C,0.120000*%
%ADD14C,0.254000*%
%ADD15C,0.200000*%
%ADD16C,0.152500*%
%ADD17C,0.150000*%
%ADD18C,0.400000*%
%ADD19C,0.127000*%
G04 APERTURE END LIST*
D10*
X192000000Y-98300000D02*
X192000000Y-105500000D01*
D11*
X128000000Y-55500000D02*
X131750000Y-55500000D01*
X131750000Y-59000000D01*
X128000000Y-59000000D01*
X128000000Y-55500000D01*
D10*
X196000000Y-98300000D02*
X196000000Y-105600000D01*
X188100000Y-98350000D02*
X188100000Y-105450000D01*
X192000000Y-98300000D02*
X188100000Y-98300000D01*
X192000000Y-98300000D02*
X196000000Y-98300000D01*
X143915789Y-75209133D02*
X144082455Y-75909133D01*
X144082455Y-75909133D02*
X144215789Y-75409133D01*
X144215789Y-75409133D02*
X144349122Y-75909133D01*
X144349122Y-75909133D02*
X144515789Y-75209133D01*
X145082455Y-75909133D02*
X145082455Y-75542466D01*
X145082455Y-75542466D02*
X145049122Y-75475800D01*
X145049122Y-75475800D02*
X144982455Y-75442466D01*
X144982455Y-75442466D02*
X144849122Y-75442466D01*
X144849122Y-75442466D02*
X144782455Y-75475800D01*
X145082455Y-75875800D02*
X145015789Y-75909133D01*
X145015789Y-75909133D02*
X144849122Y-75909133D01*
X144849122Y-75909133D02*
X144782455Y-75875800D01*
X144782455Y-75875800D02*
X144749122Y-75809133D01*
X144749122Y-75809133D02*
X144749122Y-75742466D01*
X144749122Y-75742466D02*
X144782455Y-75675800D01*
X144782455Y-75675800D02*
X144849122Y-75642466D01*
X144849122Y-75642466D02*
X145015789Y-75642466D01*
X145015789Y-75642466D02*
X145082455Y-75609133D01*
X145349122Y-75442466D02*
X145515788Y-75909133D01*
X145682455Y-75442466D02*
X145515788Y-75909133D01*
X145515788Y-75909133D02*
X145449122Y-76075800D01*
X145449122Y-76075800D02*
X145415788Y-76109133D01*
X145415788Y-76109133D02*
X145349122Y-76142466D01*
X145882455Y-75209133D02*
X146049121Y-75909133D01*
X146049121Y-75909133D02*
X146182455Y-75409133D01*
X146182455Y-75409133D02*
X146315788Y-75909133D01*
X146315788Y-75909133D02*
X146482455Y-75209133D01*
X147049121Y-75909133D02*
X147049121Y-75542466D01*
X147049121Y-75542466D02*
X147015788Y-75475800D01*
X147015788Y-75475800D02*
X146949121Y-75442466D01*
X146949121Y-75442466D02*
X146815788Y-75442466D01*
X146815788Y-75442466D02*
X146749121Y-75475800D01*
X147049121Y-75875800D02*
X146982455Y-75909133D01*
X146982455Y-75909133D02*
X146815788Y-75909133D01*
X146815788Y-75909133D02*
X146749121Y-75875800D01*
X146749121Y-75875800D02*
X146715788Y-75809133D01*
X146715788Y-75809133D02*
X146715788Y-75742466D01*
X146715788Y-75742466D02*
X146749121Y-75675800D01*
X146749121Y-75675800D02*
X146815788Y-75642466D01*
X146815788Y-75642466D02*
X146982455Y-75642466D01*
X146982455Y-75642466D02*
X147049121Y-75609133D01*
X147315788Y-75442466D02*
X147482454Y-75909133D01*
X147649121Y-75442466D02*
X147482454Y-75909133D01*
X147482454Y-75909133D02*
X147415788Y-76075800D01*
X147415788Y-76075800D02*
X147382454Y-76109133D01*
X147382454Y-76109133D02*
X147315788Y-76142466D01*
X147849121Y-75209133D02*
X148015787Y-75909133D01*
X148015787Y-75909133D02*
X148149121Y-75409133D01*
X148149121Y-75409133D02*
X148282454Y-75909133D01*
X148282454Y-75909133D02*
X148449121Y-75209133D01*
X149015787Y-75909133D02*
X149015787Y-75542466D01*
X149015787Y-75542466D02*
X148982454Y-75475800D01*
X148982454Y-75475800D02*
X148915787Y-75442466D01*
X148915787Y-75442466D02*
X148782454Y-75442466D01*
X148782454Y-75442466D02*
X148715787Y-75475800D01*
X149015787Y-75875800D02*
X148949121Y-75909133D01*
X148949121Y-75909133D02*
X148782454Y-75909133D01*
X148782454Y-75909133D02*
X148715787Y-75875800D01*
X148715787Y-75875800D02*
X148682454Y-75809133D01*
X148682454Y-75809133D02*
X148682454Y-75742466D01*
X148682454Y-75742466D02*
X148715787Y-75675800D01*
X148715787Y-75675800D02*
X148782454Y-75642466D01*
X148782454Y-75642466D02*
X148949121Y-75642466D01*
X148949121Y-75642466D02*
X149015787Y-75609133D01*
X149282454Y-75442466D02*
X149449120Y-75909133D01*
X149615787Y-75442466D02*
X149449120Y-75909133D01*
X149449120Y-75909133D02*
X149382454Y-76075800D01*
X149382454Y-76075800D02*
X149349120Y-76109133D01*
X149349120Y-76109133D02*
X149282454Y-76142466D01*
X144182455Y-73959133D02*
X144182455Y-74459133D01*
X144182455Y-74459133D02*
X144149122Y-74559133D01*
X144149122Y-74559133D02*
X144082455Y-74625800D01*
X144082455Y-74625800D02*
X143982455Y-74659133D01*
X143982455Y-74659133D02*
X143915789Y-74659133D01*
X144849122Y-74659133D02*
X144515788Y-74659133D01*
X144515788Y-74659133D02*
X144515788Y-73959133D01*
X145482455Y-74592466D02*
X145449122Y-74625800D01*
X145449122Y-74625800D02*
X145349122Y-74659133D01*
X145349122Y-74659133D02*
X145282455Y-74659133D01*
X145282455Y-74659133D02*
X145182455Y-74625800D01*
X145182455Y-74625800D02*
X145115789Y-74559133D01*
X145115789Y-74559133D02*
X145082455Y-74492466D01*
X145082455Y-74492466D02*
X145049122Y-74359133D01*
X145049122Y-74359133D02*
X145049122Y-74259133D01*
X145049122Y-74259133D02*
X145082455Y-74125800D01*
X145082455Y-74125800D02*
X145115789Y-74059133D01*
X145115789Y-74059133D02*
X145182455Y-73992466D01*
X145182455Y-73992466D02*
X145282455Y-73959133D01*
X145282455Y-73959133D02*
X145349122Y-73959133D01*
X145349122Y-73959133D02*
X145449122Y-73992466D01*
X145449122Y-73992466D02*
X145482455Y-74025800D01*
X145982455Y-73959133D02*
X145982455Y-74459133D01*
X145982455Y-74459133D02*
X145949122Y-74559133D01*
X145949122Y-74559133D02*
X145882455Y-74625800D01*
X145882455Y-74625800D02*
X145782455Y-74659133D01*
X145782455Y-74659133D02*
X145715789Y-74659133D01*
X146649122Y-74659133D02*
X146315788Y-74659133D01*
X146315788Y-74659133D02*
X146315788Y-73959133D01*
X147282455Y-74592466D02*
X147249122Y-74625800D01*
X147249122Y-74625800D02*
X147149122Y-74659133D01*
X147149122Y-74659133D02*
X147082455Y-74659133D01*
X147082455Y-74659133D02*
X146982455Y-74625800D01*
X146982455Y-74625800D02*
X146915789Y-74559133D01*
X146915789Y-74559133D02*
X146882455Y-74492466D01*
X146882455Y-74492466D02*
X146849122Y-74359133D01*
X146849122Y-74359133D02*
X146849122Y-74259133D01*
X146849122Y-74259133D02*
X146882455Y-74125800D01*
X146882455Y-74125800D02*
X146915789Y-74059133D01*
X146915789Y-74059133D02*
X146982455Y-73992466D01*
X146982455Y-73992466D02*
X147082455Y-73959133D01*
X147082455Y-73959133D02*
X147149122Y-73959133D01*
X147149122Y-73959133D02*
X147249122Y-73992466D01*
X147249122Y-73992466D02*
X147282455Y-74025800D01*
X147782455Y-73959133D02*
X147782455Y-74459133D01*
X147782455Y-74459133D02*
X147749122Y-74559133D01*
X147749122Y-74559133D02*
X147682455Y-74625800D01*
X147682455Y-74625800D02*
X147582455Y-74659133D01*
X147582455Y-74659133D02*
X147515789Y-74659133D01*
X148449122Y-74659133D02*
X148115788Y-74659133D01*
X148115788Y-74659133D02*
X148115788Y-73959133D01*
X149082455Y-74592466D02*
X149049122Y-74625800D01*
X149049122Y-74625800D02*
X148949122Y-74659133D01*
X148949122Y-74659133D02*
X148882455Y-74659133D01*
X148882455Y-74659133D02*
X148782455Y-74625800D01*
X148782455Y-74625800D02*
X148715789Y-74559133D01*
X148715789Y-74559133D02*
X148682455Y-74492466D01*
X148682455Y-74492466D02*
X148649122Y-74359133D01*
X148649122Y-74359133D02*
X148649122Y-74259133D01*
X148649122Y-74259133D02*
X148682455Y-74125800D01*
X148682455Y-74125800D02*
X148715789Y-74059133D01*
X148715789Y-74059133D02*
X148782455Y-73992466D01*
X148782455Y-73992466D02*
X148882455Y-73959133D01*
X148882455Y-73959133D02*
X148949122Y-73959133D01*
X148949122Y-73959133D02*
X149049122Y-73992466D01*
X149049122Y-73992466D02*
X149082455Y-74025800D01*
X149582455Y-73959133D02*
X149582455Y-74459133D01*
X149582455Y-74459133D02*
X149549122Y-74559133D01*
X149549122Y-74559133D02*
X149482455Y-74625800D01*
X149482455Y-74625800D02*
X149382455Y-74659133D01*
X149382455Y-74659133D02*
X149315789Y-74659133D01*
X150249122Y-74659133D02*
X149915788Y-74659133D01*
X149915788Y-74659133D02*
X149915788Y-73959133D01*
X150882455Y-74592466D02*
X150849122Y-74625800D01*
X150849122Y-74625800D02*
X150749122Y-74659133D01*
X150749122Y-74659133D02*
X150682455Y-74659133D01*
X150682455Y-74659133D02*
X150582455Y-74625800D01*
X150582455Y-74625800D02*
X150515789Y-74559133D01*
X150515789Y-74559133D02*
X150482455Y-74492466D01*
X150482455Y-74492466D02*
X150449122Y-74359133D01*
X150449122Y-74359133D02*
X150449122Y-74259133D01*
X150449122Y-74259133D02*
X150482455Y-74125800D01*
X150482455Y-74125800D02*
X150515789Y-74059133D01*
X150515789Y-74059133D02*
X150582455Y-73992466D01*
X150582455Y-73992466D02*
X150682455Y-73959133D01*
X150682455Y-73959133D02*
X150749122Y-73959133D01*
X150749122Y-73959133D02*
X150849122Y-73992466D01*
X150849122Y-73992466D02*
X150882455Y-74025800D01*
D12*
%TO.C,G\u002A\u002A\u002A*%
G36*
X116749675Y-120424867D02*
G01*
X116821173Y-120459105D01*
X116832860Y-120472129D01*
X116856492Y-120489011D01*
X116904295Y-120501817D01*
X116983802Y-120511455D01*
X117102547Y-120518835D01*
X117268062Y-120524866D01*
X117270212Y-120524929D01*
X117458644Y-120532616D01*
X117597531Y-120543367D01*
X117691655Y-120557695D01*
X117745717Y-120576068D01*
X117813704Y-120615203D01*
X117718522Y-120621823D01*
X117602662Y-120636173D01*
X117467882Y-120662517D01*
X117327918Y-120697039D01*
X117196504Y-120735925D01*
X117087378Y-120775360D01*
X117014273Y-120811527D01*
X117001700Y-120820924D01*
X117014417Y-120833261D01*
X117069766Y-120846585D01*
X117156119Y-120858181D01*
X117164869Y-120859033D01*
X117283003Y-120876553D01*
X117424596Y-120906728D01*
X117562019Y-120943547D01*
X117582548Y-120949897D01*
X117813704Y-121023126D01*
X117568951Y-121038057D01*
X117426476Y-121048962D01*
X117329017Y-121063086D01*
X117267202Y-121083303D01*
X117231659Y-121112489D01*
X117215062Y-121146624D01*
X117177435Y-121196640D01*
X117146102Y-121213912D01*
X117100249Y-121251057D01*
X117075055Y-121302878D01*
X117048136Y-121378883D01*
X117010049Y-121457436D01*
X116993452Y-121495242D01*
X116980257Y-121548478D01*
X116969722Y-121624621D01*
X116961106Y-121731145D01*
X116953669Y-121875528D01*
X116946668Y-122065244D01*
X116945176Y-122111794D01*
X116936862Y-122318932D01*
X116925794Y-122508607D01*
X116912733Y-122670968D01*
X116898440Y-122796164D01*
X116887391Y-122859652D01*
X116863108Y-122975057D01*
X116836088Y-123115819D01*
X116811762Y-123253523D01*
X116809439Y-123267534D01*
X116780900Y-123411310D01*
X116742125Y-123545184D01*
X116687930Y-123681829D01*
X116613128Y-123833919D01*
X116512537Y-124014126D01*
X116484070Y-124062815D01*
X116383139Y-124216447D01*
X116261496Y-124373707D01*
X116129461Y-124523307D01*
X115997353Y-124653962D01*
X115875491Y-124754382D01*
X115817093Y-124792342D01*
X115732003Y-124863116D01*
X115648702Y-124972798D01*
X115630995Y-125002264D01*
X115563891Y-125123899D01*
X115502513Y-125243774D01*
X115451419Y-125351957D01*
X115415164Y-125438516D01*
X115398304Y-125493520D01*
X115399354Y-125507205D01*
X115401619Y-125540039D01*
X115390092Y-125605983D01*
X115380292Y-125644369D01*
X115359136Y-125771987D01*
X115378060Y-125872931D01*
X115426316Y-125945937D01*
X115462545Y-125987047D01*
X115525357Y-126059325D01*
X115605963Y-126152623D01*
X115695573Y-126256796D01*
X115696725Y-126258137D01*
X115792516Y-126368056D01*
X115885920Y-126472305D01*
X115965772Y-126558591D01*
X116017803Y-126611670D01*
X116117128Y-126706852D01*
X116410899Y-126708020D01*
X116554099Y-126710590D01*
X116654367Y-126717962D01*
X116723058Y-126731632D01*
X116771530Y-126753099D01*
X116776479Y-126756238D01*
X116826688Y-126796935D01*
X116848271Y-126829896D01*
X116848287Y-126830483D01*
X116829167Y-126836591D01*
X116782704Y-126814653D01*
X116778342Y-126811848D01*
X116729491Y-126784162D01*
X116695113Y-126787618D01*
X116652216Y-126826672D01*
X116641268Y-126838416D01*
X116568044Y-126894012D01*
X116476306Y-126910783D01*
X116470991Y-126910814D01*
X116399197Y-126906182D01*
X116353070Y-126894741D01*
X116348752Y-126891721D01*
X116313914Y-126881651D01*
X116240057Y-126873012D01*
X116142550Y-126867550D01*
X116133459Y-126867282D01*
X116016654Y-126861744D01*
X115904904Y-126852551D01*
X115828480Y-126842623D01*
X115762306Y-126833270D01*
X115740755Y-126838781D01*
X115753694Y-126858904D01*
X115785630Y-126904633D01*
X115771465Y-126922409D01*
X115717930Y-126910140D01*
X115630040Y-126886696D01*
X115568157Y-126889881D01*
X115543038Y-126918977D01*
X115542934Y-126921786D01*
X115531345Y-126941767D01*
X115492746Y-126958548D01*
X115421388Y-126973067D01*
X115311524Y-126986260D01*
X115157405Y-126999065D01*
X115007023Y-127009121D01*
X114872902Y-127014908D01*
X114778858Y-127011711D01*
X114711156Y-126998438D01*
X114672044Y-126982551D01*
X114591632Y-126958498D01*
X114490821Y-126960608D01*
X114358372Y-126989589D01*
X114303668Y-127005836D01*
X114242119Y-127004532D01*
X114216857Y-126986599D01*
X114184435Y-126933973D01*
X114158439Y-126876448D01*
X114122498Y-126824630D01*
X114076576Y-126824615D01*
X114024585Y-126875621D01*
X114004609Y-126907239D01*
X113963645Y-126978801D01*
X113981067Y-126910814D01*
X114025954Y-126798184D01*
X114090546Y-126736122D01*
X114175897Y-126724103D01*
X114282063Y-126761074D01*
X114356581Y-126789991D01*
X114425411Y-126800997D01*
X114471928Y-126792849D01*
X114482334Y-126776055D01*
X114472186Y-126742083D01*
X114444594Y-126669156D01*
X114403839Y-126568183D01*
X114356956Y-126456516D01*
X114281006Y-126285603D01*
X114215817Y-126156097D01*
X114155441Y-126057643D01*
X114093932Y-125979888D01*
X114066894Y-125951476D01*
X113995439Y-125842326D01*
X113986731Y-125802533D01*
X114363110Y-125802533D01*
X114366536Y-125949600D01*
X114393784Y-126083584D01*
X114445382Y-126216671D01*
X114461769Y-126250472D01*
X114570393Y-126450663D01*
X114682128Y-126626274D01*
X114788667Y-126764423D01*
X114804166Y-126781638D01*
X114868541Y-126830710D01*
X114953841Y-126854704D01*
X115070420Y-126855117D01*
X115198565Y-126838585D01*
X115199495Y-126838294D01*
X115497609Y-126838294D01*
X115501342Y-126854461D01*
X115515739Y-126856424D01*
X115538123Y-126846474D01*
X115533869Y-126838294D01*
X115501595Y-126835039D01*
X115497609Y-126838294D01*
X115199495Y-126838294D01*
X115275982Y-126814370D01*
X115317866Y-126778190D01*
X115317257Y-126738708D01*
X115295344Y-126718121D01*
X115249414Y-126697039D01*
X115209502Y-126707143D01*
X115157674Y-126754140D01*
X115147310Y-126765213D01*
X115080621Y-126837171D01*
X115080621Y-126768512D01*
X115096220Y-126711326D01*
X115151341Y-126670957D01*
X115167288Y-126663955D01*
X115243796Y-126639179D01*
X115318961Y-126634537D01*
X115412985Y-126650283D01*
X115480641Y-126667889D01*
X115575409Y-126684373D01*
X115658645Y-126681914D01*
X115715886Y-126662445D01*
X115733298Y-126634113D01*
X115715842Y-126585514D01*
X115668172Y-126506533D01*
X115597327Y-126406413D01*
X115510349Y-126294398D01*
X115414281Y-126179730D01*
X115316163Y-126071654D01*
X115265220Y-126019695D01*
X115135791Y-125880393D01*
X115036010Y-125748966D01*
X114970748Y-125632835D01*
X114944879Y-125539419D01*
X114944647Y-125531446D01*
X114953076Y-125490586D01*
X114975906Y-125410739D01*
X115009447Y-125304211D01*
X115042106Y-125206310D01*
X115080250Y-125090830D01*
X115109223Y-124995601D01*
X115125885Y-124931478D01*
X115127984Y-124909497D01*
X115098238Y-124911237D01*
X115031604Y-124927023D01*
X114945397Y-124952544D01*
X114840788Y-124981558D01*
X114742995Y-125001369D01*
X114684726Y-125007173D01*
X114617317Y-125018015D01*
X114562624Y-125055025D01*
X114516428Y-125124932D01*
X114474510Y-125234466D01*
X114432650Y-125390356D01*
X114425592Y-125420408D01*
X114382972Y-125630198D01*
X114363110Y-125802533D01*
X113986731Y-125802533D01*
X113964567Y-125701252D01*
X113974625Y-125532925D01*
X114022559Y-125351584D01*
X114057454Y-125255837D01*
X114089189Y-125175046D01*
X114108122Y-125132470D01*
X114119900Y-125101276D01*
X114104102Y-125089023D01*
X114049748Y-125091231D01*
X114016255Y-125094982D01*
X113945829Y-125112136D01*
X113840899Y-125148629D01*
X113715448Y-125199166D01*
X113583463Y-125258450D01*
X113578994Y-125260572D01*
X113434603Y-125331635D01*
X113322077Y-125394661D01*
X113224320Y-125461381D01*
X113124236Y-125543527D01*
X113004727Y-125652828D01*
X112997741Y-125659399D01*
X112887615Y-125760755D01*
X112779694Y-125856036D01*
X112686087Y-125934793D01*
X112618906Y-125986578D01*
X112616830Y-125988015D01*
X112517366Y-126049352D01*
X112400789Y-126110604D01*
X112281612Y-126165288D01*
X112174349Y-126206920D01*
X112093514Y-126229016D01*
X112073054Y-126230942D01*
X112010997Y-126213443D01*
X111948523Y-126171563D01*
X111906139Y-126121227D01*
X111898822Y-126095648D01*
X111875997Y-126080807D01*
X111824036Y-126082843D01*
X111685433Y-126108259D01*
X111591697Y-126124265D01*
X111534094Y-126130660D01*
X111503886Y-126127247D01*
X111492340Y-126113826D01*
X111490718Y-126090199D01*
X111490899Y-126075259D01*
X111517467Y-125980068D01*
X111597159Y-125873316D01*
X111729956Y-125755024D01*
X111770578Y-125724292D01*
X111873921Y-125636330D01*
X111977335Y-125529332D01*
X112045350Y-125444172D01*
X112099786Y-125368953D01*
X112163176Y-125287330D01*
X112241136Y-125192632D01*
X112339286Y-125078186D01*
X112463245Y-124937320D01*
X112618631Y-124763363D01*
X112619486Y-124762411D01*
X112747936Y-124618615D01*
X112848245Y-124504283D01*
X112929150Y-124408898D01*
X112999383Y-124321943D01*
X113067681Y-124232900D01*
X113136188Y-124140268D01*
X113210015Y-124041366D01*
X113307922Y-123913115D01*
X113419866Y-123768523D01*
X113535803Y-123620594D01*
X113603874Y-123534678D01*
X113721561Y-123384499D01*
X113844899Y-123223099D01*
X113962518Y-123065615D01*
X114063048Y-122927185D01*
X114105060Y-122867375D01*
X114242555Y-122678231D01*
X114369557Y-122523271D01*
X114481999Y-122406998D01*
X114575818Y-122333912D01*
X114597517Y-122322124D01*
X114650472Y-122296744D01*
X114736262Y-122255673D01*
X114838652Y-122206682D01*
X114866461Y-122193380D01*
X114995070Y-122123431D01*
X115133380Y-122035152D01*
X115251573Y-121947585D01*
X115252168Y-121947094D01*
X115328769Y-121880827D01*
X115390072Y-121817728D01*
X115443052Y-121747115D01*
X115494689Y-121658305D01*
X115551958Y-121540615D01*
X115621839Y-121383364D01*
X115624752Y-121376659D01*
X115734530Y-121134140D01*
X115834247Y-120934828D01*
X115922437Y-120781402D01*
X115997631Y-120676542D01*
X116022715Y-120649774D01*
X116123500Y-120573305D01*
X116247328Y-120509165D01*
X116383028Y-120459801D01*
X116519433Y-120427664D01*
X116645372Y-120415203D01*
X116749675Y-120424867D01*
G37*
G36*
X118322353Y-119546340D02*
G01*
X118406479Y-119553409D01*
X118450659Y-119567355D01*
X118469329Y-119596033D01*
X118474986Y-119629390D01*
X118468221Y-119688139D01*
X118437378Y-119703456D01*
X118394127Y-119672898D01*
X118377510Y-119649786D01*
X118323188Y-119602781D01*
X118256666Y-119605163D01*
X118191849Y-119652641D01*
X118161733Y-119715306D01*
X118143445Y-119811117D01*
X118137586Y-119920559D01*
X118144759Y-120024123D01*
X118165567Y-120102295D01*
X118177366Y-120121516D01*
X118233658Y-120158422D01*
X118301919Y-120165974D01*
X118360472Y-120145156D01*
X118384796Y-120112098D01*
X118415615Y-120063816D01*
X118451390Y-120061939D01*
X118476407Y-120102563D01*
X118479978Y-120135735D01*
X118473298Y-120188402D01*
X118442799Y-120215448D01*
X118377998Y-120230618D01*
X118293683Y-120243091D01*
X118238310Y-120243646D01*
X118187295Y-120230035D01*
X118135385Y-120208429D01*
X118062855Y-120165091D01*
X118018251Y-120103866D01*
X117995998Y-120012641D01*
X117990471Y-119893608D01*
X117993163Y-119796928D01*
X118006273Y-119733535D01*
X118037350Y-119682401D01*
X118084398Y-119632004D01*
X118145176Y-119576555D01*
X118197886Y-119550130D01*
X118266666Y-119544041D01*
X118322353Y-119546340D01*
G37*
G36*
X119207433Y-119056818D02*
G01*
X119238844Y-119065091D01*
X119264167Y-119087388D01*
X119288154Y-119133080D01*
X119315556Y-119211540D01*
X119351124Y-119332141D01*
X119356379Y-119350642D01*
X119393446Y-119472376D01*
X119430274Y-119577866D01*
X119461979Y-119653904D01*
X119479563Y-119683779D01*
X119500198Y-119711677D01*
X119491408Y-119725809D01*
X119443903Y-119730814D01*
X119384212Y-119731370D01*
X119246610Y-119731370D01*
X119261201Y-119622591D01*
X119275791Y-119513811D01*
X119162554Y-119513811D01*
X119085304Y-119519650D01*
X119043888Y-119542477D01*
X119025841Y-119575000D01*
X119016405Y-119634137D01*
X119026717Y-119662023D01*
X119049822Y-119702487D01*
X119023800Y-119725033D01*
X118955889Y-119731370D01*
X118892964Y-119725374D01*
X118861524Y-119710629D01*
X118860707Y-119707505D01*
X118879312Y-119672064D01*
X118901499Y-119649786D01*
X118935836Y-119607750D01*
X118942291Y-119586618D01*
X118951624Y-119550117D01*
X118976759Y-119475439D01*
X118982599Y-119459422D01*
X119053675Y-119459422D01*
X119145363Y-119459422D01*
X119237050Y-119459422D01*
X119209520Y-119357441D01*
X119182389Y-119272317D01*
X119158341Y-119240200D01*
X119132765Y-119260250D01*
X119101050Y-119331632D01*
X119098915Y-119337356D01*
X119053675Y-119459422D01*
X118982599Y-119459422D01*
X119013399Y-119374948D01*
X119040856Y-119302922D01*
X119086882Y-119186990D01*
X119120465Y-119113312D01*
X119147634Y-119072982D01*
X119174415Y-119057094D01*
X119206836Y-119056746D01*
X119207433Y-119056818D01*
G37*
G36*
X120179492Y-118602635D02*
G01*
X120195474Y-118650375D01*
X120202827Y-118707131D01*
X120219971Y-118797093D01*
X120243178Y-118900714D01*
X120288662Y-119089864D01*
X120353898Y-118864098D01*
X120384787Y-118751800D01*
X120399468Y-118680316D01*
X120399106Y-118638916D01*
X120384862Y-118616873D01*
X120380981Y-118614175D01*
X120376454Y-118598470D01*
X120425431Y-118590837D01*
X120465203Y-118590019D01*
X120535976Y-118594051D01*
X120558488Y-118605443D01*
X120551405Y-118612952D01*
X120528930Y-118646512D01*
X120494596Y-118720837D01*
X120453102Y-118824886D01*
X120409809Y-118945673D01*
X120363719Y-119077918D01*
X120329165Y-119166599D01*
X120301616Y-119220115D01*
X120276540Y-119246865D01*
X120249407Y-119255247D01*
X120242681Y-119255460D01*
X120209201Y-119249330D01*
X120184569Y-119223587D01*
X120162745Y-119167204D01*
X120137684Y-119069154D01*
X120135528Y-119059910D01*
X120111829Y-118959801D01*
X120091853Y-118878762D01*
X120079603Y-118832997D01*
X120078985Y-118831068D01*
X120067881Y-118840274D01*
X120047302Y-118892593D01*
X120020765Y-118978321D01*
X120005638Y-119033417D01*
X119974530Y-119146190D01*
X119950265Y-119216047D01*
X119927388Y-119253052D01*
X119900446Y-119267269D01*
X119877957Y-119269058D01*
X119828026Y-119264611D01*
X119812527Y-119256550D01*
X119805563Y-119218119D01*
X119787135Y-119141122D01*
X119760939Y-119039226D01*
X119730670Y-118926098D01*
X119700024Y-118815406D01*
X119672697Y-118720817D01*
X119652384Y-118656000D01*
X119644943Y-118636777D01*
X119636207Y-118607899D01*
X119656596Y-118593783D01*
X119716945Y-118589373D01*
X119746913Y-118589186D01*
X119822702Y-118592389D01*
X119852229Y-118603797D01*
X119845843Y-118623180D01*
X119838998Y-118661300D01*
X119842867Y-118733044D01*
X119854704Y-118822720D01*
X119871764Y-118914636D01*
X119891300Y-118993101D01*
X119910566Y-119042422D01*
X119920793Y-119051499D01*
X119936256Y-119027472D01*
X119957559Y-118965631D01*
X119972791Y-118908726D01*
X120006584Y-118773470D01*
X120033099Y-118682667D01*
X120056548Y-118627609D01*
X120081145Y-118599586D01*
X120111102Y-118589890D01*
X120127377Y-118589186D01*
X120179492Y-118602635D01*
G37*
G36*
X120962507Y-118733941D02*
G01*
X120980282Y-118771267D01*
X120981906Y-118806745D01*
X120974588Y-118865051D01*
X120943483Y-118886381D01*
X120913919Y-118888330D01*
X120865330Y-118879549D01*
X120847555Y-118842223D01*
X120845931Y-118806745D01*
X120853249Y-118748439D01*
X120884354Y-118727109D01*
X120913919Y-118725160D01*
X120962507Y-118733941D01*
G37*
G36*
X120995765Y-118364829D02*
G01*
X120979235Y-118500998D01*
X120963836Y-118591232D01*
X120947278Y-118643879D01*
X120927267Y-118667283D01*
X120911758Y-118670771D01*
X120881810Y-118645871D01*
X120872890Y-118582387D01*
X120869390Y-118502024D01*
X120860791Y-118399452D01*
X120855504Y-118351231D01*
X120838355Y-118208458D01*
X120925685Y-118208458D01*
X121013014Y-118208458D01*
X120995765Y-118364829D01*
G37*
%TO.C,kibuzzard-669E1FB3*%
G36*
X126751553Y-63418578D02*
G01*
X126787740Y-63447658D01*
X126808419Y-63488368D01*
X126814881Y-63535541D01*
X126571908Y-63535541D01*
X126582894Y-63487722D01*
X126606157Y-63446365D01*
X126643637Y-63417932D01*
X126697272Y-63407593D01*
X126751553Y-63418578D01*
G37*
G36*
X128043960Y-63418578D02*
G01*
X128080147Y-63447658D01*
X128100826Y-63488368D01*
X128107288Y-63535541D01*
X127864315Y-63535541D01*
X127875301Y-63487722D01*
X127898564Y-63446365D01*
X127936044Y-63417932D01*
X127989679Y-63407593D01*
X128043960Y-63418578D01*
G37*
G36*
X126055268Y-63234087D02*
G01*
X126100180Y-63256381D01*
X126129259Y-63294507D01*
X126138952Y-63349435D01*
X126102764Y-63439257D01*
X126055268Y-63463005D01*
X125985155Y-63470921D01*
X125950260Y-63470921D01*
X125950260Y-63230533D01*
X125976108Y-63227302D01*
X125998079Y-63226656D01*
X126055268Y-63234087D01*
G37*
G36*
X129424107Y-63500000D02*
G01*
X129077885Y-64019332D01*
X128916335Y-64019332D01*
X128722474Y-64019332D01*
X128033621Y-64019332D01*
X127307288Y-64019332D01*
X126741213Y-64019332D01*
X126353491Y-64019332D01*
X125791294Y-64019332D01*
X125575893Y-64019332D01*
X125575893Y-63897415D01*
X125791294Y-63897415D01*
X125950260Y-63897415D01*
X125950260Y-63602746D01*
X126032974Y-63602746D01*
X126076755Y-63675929D01*
X126117627Y-63748142D01*
X126154622Y-63821325D01*
X126186771Y-63897415D01*
X126353491Y-63897415D01*
X126316658Y-63812763D01*
X126272070Y-63723586D01*
X126224251Y-63638288D01*
X126199571Y-63598869D01*
X126407772Y-63598869D01*
X126413588Y-63671567D01*
X126431036Y-63734572D01*
X126459307Y-63788045D01*
X126497595Y-63832149D01*
X126545414Y-63866721D01*
X126602280Y-63891599D01*
X126667708Y-63906624D01*
X126741213Y-63911632D01*
X126845898Y-63901939D01*
X126933782Y-63878029D01*
X126931062Y-63861228D01*
X127083701Y-63861228D01*
X127172877Y-63893538D01*
X127234267Y-63907108D01*
X127307288Y-63911632D01*
X127378693Y-63908078D01*
X127437821Y-63897415D01*
X127523766Y-63858643D01*
X127570939Y-63800485D01*
X127585155Y-63729402D01*
X127565769Y-63648627D01*
X127520157Y-63598869D01*
X127700180Y-63598869D01*
X127705995Y-63671567D01*
X127723443Y-63734572D01*
X127751714Y-63788045D01*
X127790002Y-63832149D01*
X127837821Y-63866721D01*
X127894687Y-63891599D01*
X127960115Y-63906624D01*
X128033621Y-63911632D01*
X128138306Y-63901939D01*
X128226189Y-63878029D01*
X128204218Y-63742326D01*
X128131197Y-63763005D01*
X128040083Y-63773344D01*
X127969646Y-63764782D01*
X127913427Y-63739095D01*
X127876593Y-63698546D01*
X127864315Y-63645396D01*
X128258499Y-63645396D01*
X128260438Y-63618255D01*
X128261084Y-63585945D01*
X128253330Y-63492389D01*
X128232096Y-63421809D01*
X128352845Y-63421809D01*
X128491133Y-63421809D01*
X128491133Y-63671244D01*
X128495010Y-63740226D01*
X128506642Y-63794669D01*
X128551876Y-63867690D01*
X128624251Y-63902585D01*
X128722474Y-63911632D01*
X128821343Y-63903877D01*
X128916335Y-63878029D01*
X128894364Y-63741034D01*
X128853653Y-63757835D01*
X128817465Y-63767528D01*
X128781278Y-63772052D01*
X128740567Y-63773344D01*
X128703087Y-63769467D01*
X128674654Y-63753958D01*
X128656561Y-63721648D01*
X128650099Y-63667367D01*
X128650099Y-63421809D01*
X128904703Y-63421809D01*
X128904703Y-63289984D01*
X128650099Y-63289984D01*
X128650099Y-63111632D01*
X128491133Y-63137480D01*
X128491133Y-63289984D01*
X128352845Y-63289984D01*
X128352845Y-63421809D01*
X128232096Y-63421809D01*
X128230066Y-63415060D01*
X128191294Y-63353958D01*
X128137588Y-63309801D01*
X128069521Y-63283306D01*
X127987094Y-63274475D01*
X127933459Y-63279645D01*
X127881116Y-63295153D01*
X127832328Y-63320840D01*
X127789356Y-63356543D01*
X127753168Y-63402262D01*
X127724735Y-63457997D01*
X127706318Y-63523586D01*
X127700180Y-63598869D01*
X127520157Y-63598869D01*
X127516011Y-63594346D01*
X127448160Y-63558805D01*
X127375785Y-63532956D01*
X127329905Y-63516801D01*
X127292425Y-63499354D01*
X127266577Y-63479321D01*
X127256884Y-63454120D01*
X127278209Y-63422456D01*
X127360276Y-63407593D01*
X127464961Y-63422456D01*
X127533459Y-63443780D01*
X127558015Y-63309370D01*
X127469485Y-63283522D01*
X127416335Y-63276737D01*
X127358984Y-63274475D01*
X127295333Y-63278191D01*
X127241375Y-63289338D01*
X127160600Y-63330695D01*
X127114073Y-63391438D01*
X127099210Y-63464459D01*
X127118596Y-63543942D01*
X127167708Y-63596284D01*
X127233621Y-63630533D01*
X127304703Y-63654443D01*
X127351876Y-63669952D01*
X127391940Y-63686107D01*
X127419081Y-63706139D01*
X127428774Y-63734572D01*
X127397756Y-63768821D01*
X127308580Y-63777221D01*
X127204541Y-63761712D01*
X127108257Y-63728110D01*
X127083701Y-63861228D01*
X126931062Y-63861228D01*
X126911811Y-63742326D01*
X126838790Y-63763005D01*
X126747675Y-63773344D01*
X126677239Y-63764782D01*
X126621020Y-63739095D01*
X126584186Y-63698546D01*
X126571908Y-63645396D01*
X126966092Y-63645396D01*
X126968031Y-63618255D01*
X126968677Y-63585945D01*
X126960923Y-63492389D01*
X126937659Y-63415060D01*
X126898887Y-63353958D01*
X126845180Y-63309801D01*
X126777114Y-63283306D01*
X126694687Y-63274475D01*
X126641052Y-63279645D01*
X126588709Y-63295153D01*
X126539921Y-63320840D01*
X126496948Y-63356543D01*
X126460761Y-63402262D01*
X126432328Y-63457997D01*
X126413911Y-63523586D01*
X126407772Y-63598869D01*
X126199571Y-63598869D01*
X126177724Y-63563974D01*
X126234267Y-63527464D01*
X126272070Y-63477383D01*
X126293394Y-63417286D01*
X126300503Y-63350727D01*
X126295171Y-63287884D01*
X126279178Y-63233764D01*
X126217789Y-63151696D01*
X126173847Y-63123586D01*
X126122150Y-63103877D01*
X126063346Y-63092246D01*
X125998079Y-63088368D01*
X125952845Y-63089661D01*
X125898564Y-63092892D01*
X125842344Y-63099354D01*
X125791294Y-63109047D01*
X125791294Y-63897415D01*
X125575893Y-63897415D01*
X125575893Y-62980668D01*
X125791294Y-62980668D01*
X128916335Y-62980668D01*
X129077885Y-62980668D01*
X129424107Y-63500000D01*
G37*
D13*
%TO.C,C4*%
X103965580Y-84690000D02*
X103684420Y-84690000D01*
X103965580Y-85710000D02*
X103684420Y-85710000D01*
D14*
%TO.C,LED11*%
X183923066Y-64737934D02*
X187333058Y-68394702D01*
X184010463Y-64656435D02*
X183923066Y-64737934D01*
X186424296Y-62405500D02*
X185078605Y-63660377D01*
X186529125Y-67092707D02*
X187094466Y-67112449D01*
X186801925Y-67385248D02*
X186529125Y-67092707D01*
X187094466Y-67112449D02*
X186801925Y-67385248D01*
X187420454Y-68313204D02*
X187333058Y-68394702D01*
X187579834Y-61327942D02*
X187492438Y-61409441D01*
X187579834Y-61327942D02*
X190989826Y-64984711D01*
X189834287Y-66062268D02*
X188488596Y-67317145D01*
X190989826Y-64984711D02*
X190902429Y-65066209D01*
X187412312Y-60894431D02*
G75*
G02*
X187212312Y-60894431I-100000J0D01*
G01*
X187212312Y-60894431D02*
G75*
G02*
X187412312Y-60894431I100000J0D01*
G01*
X188956447Y-64861322D02*
G75*
G02*
X185956445Y-64861322I-1500001J0D01*
G01*
X185956445Y-64861322D02*
G75*
G02*
X188956447Y-64861322I1500001J0D01*
G01*
D13*
%TO.C,C20*%
X190645000Y-88178752D02*
X190645000Y-87656248D01*
X192115000Y-88178752D02*
X192115000Y-87656248D01*
D12*
%TO.C,kibuzzard-669E1EFC*%
G36*
X141950061Y-80705789D02*
G01*
X141950061Y-81104173D01*
X141950061Y-81144561D01*
X141562500Y-81402935D01*
X141174939Y-81144561D01*
X141174939Y-81104173D01*
X141174939Y-80906435D01*
X141269285Y-80906435D01*
X141307088Y-80948115D01*
X141341983Y-80999488D01*
X141372032Y-81053770D01*
X141394326Y-81104173D01*
X141493195Y-81065401D01*
X141469447Y-81006274D01*
X141435036Y-80944238D01*
X141770416Y-80944238D01*
X141770416Y-81070248D01*
X141869285Y-81070248D01*
X141869285Y-80705789D01*
X141770416Y-80705789D01*
X141770416Y-80825013D01*
X141269285Y-80825013D01*
X141269285Y-80906435D01*
X141174939Y-80906435D01*
X141174939Y-80433414D01*
X141255715Y-80433414D01*
X141260561Y-80483939D01*
X141275101Y-80534707D01*
X141299818Y-80582566D01*
X141335198Y-80624367D01*
X141418558Y-80565240D01*
X141373001Y-80504173D01*
X141359431Y-80445046D01*
X141379301Y-80388826D01*
X141436006Y-80366532D01*
X141487379Y-80384464D01*
X141539721Y-80430022D01*
X141567468Y-80458616D01*
X141596426Y-80489149D01*
X141627201Y-80519682D01*
X141660400Y-80548277D01*
X141696385Y-80573479D01*
X141735521Y-80593834D01*
X141778170Y-80607283D01*
X141824697Y-80611766D01*
X141845053Y-80612251D01*
X141869285Y-80609828D01*
X141869285Y-80218228D01*
X141770416Y-80218228D01*
X141770416Y-80476064D01*
X141738429Y-80465886D01*
X141704019Y-80441169D01*
X141671062Y-80410151D01*
X141643437Y-80381072D01*
X141594972Y-80331637D01*
X141542629Y-80288018D01*
X141486894Y-80257001D01*
X141427282Y-80245369D01*
X141352161Y-80260878D01*
X141298364Y-80302558D01*
X141266377Y-80362655D01*
X141255715Y-80433414D01*
X141174939Y-80433414D01*
X141174939Y-80218228D01*
X141174939Y-80097065D01*
X141950061Y-80097065D01*
X141950061Y-80218228D01*
X141950061Y-80705789D01*
G37*
D14*
%TO.C,IC3*%
X167200000Y-88587500D02*
X167200000Y-88606500D01*
X167200000Y-88587500D02*
X167844000Y-88587500D01*
X167200000Y-91118500D02*
X167200000Y-91587500D01*
X167344000Y-91587500D02*
X167200000Y-91587500D01*
X168556000Y-88587500D02*
X169200000Y-88587500D01*
X169200000Y-88587500D02*
X169200000Y-88606500D01*
X169200000Y-91118500D02*
X169200000Y-91587500D01*
X169200000Y-91587500D02*
X169056000Y-91587500D01*
D15*
X166790000Y-88957500D02*
G75*
G02*
X166590000Y-88957500I-100000J0D01*
G01*
X166590000Y-88957500D02*
G75*
G02*
X166790000Y-88957500I100000J0D01*
G01*
D13*
%TO.C,C5*%
X136480000Y-60915580D02*
X136480000Y-60634420D01*
X137500000Y-60915580D02*
X137500000Y-60634420D01*
D12*
%TO.C,kibuzzard-669E1EEE*%
G36*
X139412025Y-80706597D02*
G01*
X139412025Y-81104981D01*
X139412025Y-81145369D01*
X139031250Y-81399219D01*
X138650475Y-81145369D01*
X138650475Y-81104981D01*
X138650475Y-80907243D01*
X138731250Y-80907243D01*
X138769053Y-80948923D01*
X138803948Y-81000296D01*
X138833996Y-81054577D01*
X138856290Y-81104981D01*
X138955160Y-81066209D01*
X138931412Y-81007081D01*
X138897001Y-80945046D01*
X139232381Y-80945046D01*
X139232381Y-81071055D01*
X139331250Y-81071055D01*
X139331250Y-80706597D01*
X139232381Y-80706597D01*
X139232381Y-80825821D01*
X138731250Y-80825821D01*
X138731250Y-80907243D01*
X138650475Y-80907243D01*
X138650475Y-80422590D01*
X138731250Y-80422590D01*
X138769053Y-80464270D01*
X138803948Y-80515644D01*
X138833996Y-80569925D01*
X138856290Y-80620328D01*
X138955160Y-80581556D01*
X138931412Y-80522429D01*
X138897001Y-80460393D01*
X139232381Y-80460393D01*
X139232381Y-80586403D01*
X139331250Y-80586403D01*
X139331250Y-80221944D01*
X139232381Y-80221944D01*
X139232381Y-80341169D01*
X138731250Y-80341169D01*
X138731250Y-80422590D01*
X138650475Y-80422590D01*
X138650475Y-80221944D01*
X138650475Y-80100781D01*
X139412025Y-80100781D01*
X139412025Y-80221944D01*
X139412025Y-80706597D01*
G37*
%TO.C,kibuzzard-669E1F08*%
G36*
X144487611Y-80698358D02*
G01*
X144487611Y-81096742D01*
X144487611Y-81137130D01*
X144093750Y-81399704D01*
X143699889Y-81137130D01*
X143699889Y-81096742D01*
X143699889Y-80899004D01*
X143794235Y-80899004D01*
X143832038Y-80940684D01*
X143866933Y-80992057D01*
X143896981Y-81046338D01*
X143919275Y-81096742D01*
X144018144Y-81057970D01*
X143994396Y-80998842D01*
X143959986Y-80936807D01*
X144295366Y-80936807D01*
X144295366Y-81062816D01*
X144394235Y-81062816D01*
X144394235Y-80698358D01*
X144295366Y-80698358D01*
X144295366Y-80817582D01*
X143794235Y-80817582D01*
X143794235Y-80899004D01*
X143699889Y-80899004D01*
X143699889Y-80441492D01*
X143780664Y-80441492D01*
X143785147Y-80492986D01*
X143798597Y-80538907D01*
X143833976Y-80608212D01*
X143921214Y-80565563D01*
X143893588Y-80507889D01*
X143882441Y-80440522D01*
X143901343Y-80385757D01*
X143953201Y-80365886D01*
X143990034Y-80375094D01*
X144013298Y-80398842D01*
X144025899Y-80431799D01*
X144029776Y-80468632D01*
X144029776Y-80513220D01*
X144128645Y-80513220D01*
X144128645Y-80476387D01*
X144133370Y-80423317D01*
X144147546Y-80380425D01*
X144173597Y-80352073D01*
X144213944Y-80342623D01*
X144278887Y-80367340D01*
X144298516Y-80401144D01*
X144305059Y-80453123D01*
X144302393Y-80499044D01*
X144294396Y-80537938D01*
X144274041Y-80595611D01*
X144373879Y-80618875D01*
X144384542Y-80588826D01*
X144395204Y-80546661D01*
X144403443Y-80499165D01*
X144406836Y-80452154D01*
X144403322Y-80396177D01*
X144392781Y-80348438D01*
X144375818Y-80308697D01*
X144353039Y-80276710D01*
X144292458Y-80235030D01*
X144215882Y-80221459D01*
X144167175Y-80227881D01*
X144125737Y-80247146D01*
X144092538Y-80278043D01*
X144068548Y-80319359D01*
X144018144Y-80265078D01*
X143949324Y-80244723D01*
X143882441Y-80256354D01*
X143828645Y-80292219D01*
X143793265Y-80353770D01*
X143783815Y-80394359D01*
X143780664Y-80441492D01*
X143699889Y-80441492D01*
X143699889Y-80221459D01*
X143699889Y-80100296D01*
X144487611Y-80100296D01*
X144487611Y-80221459D01*
X144487611Y-80452154D01*
X144487611Y-80698358D01*
G37*
D16*
%TO.C,R22*%
X132867500Y-98564000D02*
X132867500Y-99999000D01*
X132867500Y-103186000D02*
X132867500Y-101751000D01*
X136132500Y-98564000D02*
X132867500Y-98564000D01*
X136132500Y-99999000D02*
X136132500Y-98564000D01*
X136132500Y-101751000D02*
X136132500Y-103186000D01*
X136132500Y-103186000D02*
X132867500Y-103186000D01*
D13*
%TO.C,R6*%
X172187258Y-95677500D02*
X171712742Y-95677500D01*
X172187258Y-96722500D02*
X171712742Y-96722500D01*
%TO.C,C24*%
X191395000Y-95103752D02*
X191395000Y-94581248D01*
X192865000Y-95103752D02*
X192865000Y-94581248D01*
%TO.C,R9*%
X171712742Y-94177500D02*
X172187258Y-94177500D01*
X171712742Y-95222500D02*
X172187258Y-95222500D01*
%TO.C,R11*%
X183367258Y-81645000D02*
X182892742Y-81645000D01*
X183367258Y-82690000D02*
X182892742Y-82690000D01*
%TO.C,C25*%
X163465000Y-81963748D02*
X163465000Y-82486252D01*
X164935000Y-81963748D02*
X164935000Y-82486252D01*
%TO.C,C8*%
X133290000Y-60659420D02*
X133290000Y-60940580D01*
X134310000Y-60659420D02*
X134310000Y-60940580D01*
D14*
%TO.C,LED7*%
X114985013Y-41399285D02*
X115072410Y-41480784D01*
X114985013Y-41399285D02*
X118395005Y-37742517D01*
X116140552Y-42476842D02*
X117486243Y-43731719D01*
X118395005Y-37742517D02*
X118482401Y-37824015D01*
X118554385Y-44727778D02*
X118641781Y-44809277D01*
X118641781Y-44809277D02*
X122051773Y-41152508D01*
X119550543Y-38820074D02*
X120896234Y-40074951D01*
X120789286Y-41479964D02*
X121081828Y-41752764D01*
X120809029Y-42045305D02*
X120789286Y-41479964D01*
X121081828Y-41752764D02*
X120809029Y-42045305D01*
X121964376Y-41071010D02*
X122051773Y-41152508D01*
X114671219Y-41696396D02*
G75*
G02*
X114471219Y-41696396I-100000J0D01*
G01*
X114471219Y-41696396D02*
G75*
G02*
X114671219Y-41696396I100000J0D01*
G01*
X120018394Y-41275897D02*
G75*
G02*
X117018392Y-41275897I-1500001J0D01*
G01*
X117018392Y-41275897D02*
G75*
G02*
X120018394Y-41275897I1500001J0D01*
G01*
D12*
%TO.C,kibuzzard-669E1F1F*%
G36*
X149543811Y-80699004D02*
G01*
X149543811Y-81105143D01*
X149543811Y-81145530D01*
X149156250Y-81403904D01*
X148768689Y-81145530D01*
X148768689Y-81105143D01*
X148768689Y-80914190D01*
X148849465Y-80914190D01*
X148854311Y-80964715D01*
X148868851Y-81015482D01*
X148893568Y-81063341D01*
X148928948Y-81105143D01*
X149012308Y-81046015D01*
X148966751Y-80984949D01*
X148953181Y-80925821D01*
X148973051Y-80869602D01*
X149029756Y-80847307D01*
X149081129Y-80865240D01*
X149133471Y-80910797D01*
X149161218Y-80939391D01*
X149190176Y-80969925D01*
X149220951Y-81000458D01*
X149254150Y-81029052D01*
X149290135Y-81054254D01*
X149329271Y-81074610D01*
X149371920Y-81088059D01*
X149418447Y-81092542D01*
X149438803Y-81093026D01*
X149463035Y-81090603D01*
X149463035Y-80699004D01*
X149364166Y-80699004D01*
X149364166Y-80956839D01*
X149332179Y-80946661D01*
X149297769Y-80921944D01*
X149264812Y-80890926D01*
X149237187Y-80861847D01*
X149188722Y-80812412D01*
X149136379Y-80768794D01*
X149080644Y-80737776D01*
X149021032Y-80726144D01*
X148945911Y-80741653D01*
X148892114Y-80783333D01*
X148860127Y-80843430D01*
X148849465Y-80914190D01*
X148768689Y-80914190D01*
X148768689Y-80417905D01*
X148863035Y-80417905D01*
X148900838Y-80459585D01*
X148935733Y-80510959D01*
X148965782Y-80565240D01*
X148988076Y-80615644D01*
X149086945Y-80576871D01*
X149063197Y-80517744D01*
X149028786Y-80455708D01*
X149364166Y-80455708D01*
X149364166Y-80581718D01*
X149463035Y-80581718D01*
X149463035Y-80217259D01*
X149364166Y-80217259D01*
X149364166Y-80336484D01*
X148863035Y-80336484D01*
X148863035Y-80417905D01*
X148768689Y-80417905D01*
X148768689Y-80217259D01*
X148768689Y-80096096D01*
X149543811Y-80096096D01*
X149543811Y-80217259D01*
X149543811Y-80699004D01*
G37*
D13*
%TO.C,C7*%
X161741962Y-74463211D02*
X161940773Y-74662022D01*
X162463211Y-73741962D02*
X162662022Y-73940773D01*
D12*
%TO.C,kibuzzard-669E2110*%
G36*
X197022213Y-87859101D02*
G01*
X197022213Y-89080425D01*
X197022213Y-89415805D01*
X197022213Y-89658131D01*
X195477787Y-89658131D01*
X195477787Y-89415805D01*
X195639338Y-89415805D01*
X195747900Y-89393511D01*
X195883603Y-89361524D01*
X195985164Y-89335891D01*
X196090819Y-89308104D01*
X196200565Y-89278164D01*
X196312466Y-89246500D01*
X196424583Y-89213543D01*
X196536914Y-89179295D01*
X196696850Y-89128406D01*
X196839338Y-89080425D01*
X196839338Y-88834222D01*
X196736053Y-88797173D01*
X196630398Y-88760985D01*
X196522375Y-88725660D01*
X196413813Y-88691734D01*
X196306543Y-88659747D01*
X196200565Y-88629698D01*
X196046204Y-88588503D01*
X195899111Y-88552154D01*
X195762439Y-88520894D01*
X195639338Y-88494965D01*
X195639338Y-88745046D01*
X195740145Y-88762493D01*
X195856462Y-88783818D01*
X195982229Y-88808051D01*
X196111389Y-88834222D01*
X196241276Y-88862332D01*
X196369225Y-88892380D01*
X196489176Y-88923398D01*
X196595073Y-88954416D01*
X196487722Y-88985676D01*
X196367286Y-89017421D01*
X196239338Y-89048438D01*
X196109451Y-89077518D01*
X195980533Y-89104416D01*
X195855493Y-89128891D01*
X195739903Y-89149246D01*
X195639338Y-89163786D01*
X195639338Y-89415805D01*
X195477787Y-89415805D01*
X195477787Y-87864917D01*
X195904927Y-87864917D01*
X195914378Y-87991169D01*
X195942730Y-88098519D01*
X195987318Y-88187938D01*
X196045477Y-88260393D01*
X196115994Y-88316128D01*
X196197658Y-88355385D01*
X196287803Y-88378648D01*
X196383764Y-88386403D01*
X196481179Y-88378891D01*
X196571809Y-88356354D01*
X196653231Y-88317824D01*
X196723021Y-88262332D01*
X196780210Y-88189391D01*
X196823829Y-88098519D01*
X196851454Y-87988745D01*
X196860662Y-87859101D01*
X196857512Y-87768471D01*
X196848061Y-87690442D01*
X196816074Y-87568309D01*
X196620275Y-87603204D01*
X196645477Y-87714674D01*
X196653231Y-87831960D01*
X196635299Y-87977598D01*
X196581502Y-88073317D01*
X196496204Y-88126387D01*
X196383764Y-88144076D01*
X196275202Y-88128568D01*
X196188934Y-88078164D01*
X196132714Y-87986080D01*
X196112359Y-87843592D01*
X196123021Y-87722429D01*
X196147254Y-87636160D01*
X195955331Y-87583818D01*
X195916559Y-87717582D01*
X195904927Y-87864917D01*
X195477787Y-87864917D01*
X195477787Y-86895611D01*
X195904927Y-86895611D01*
X195914378Y-87021863D01*
X195942730Y-87129214D01*
X195987318Y-87218632D01*
X196045477Y-87291088D01*
X196115994Y-87346823D01*
X196197658Y-87386080D01*
X196287803Y-87409343D01*
X196383764Y-87417097D01*
X196481179Y-87409585D01*
X196571809Y-87387049D01*
X196653231Y-87348519D01*
X196723021Y-87293026D01*
X196780210Y-87220086D01*
X196823829Y-87129214D01*
X196851454Y-87019440D01*
X196860662Y-86889795D01*
X196857512Y-86799165D01*
X196848061Y-86721136D01*
X196816074Y-86599004D01*
X196620275Y-86633899D01*
X196645477Y-86745369D01*
X196653231Y-86862655D01*
X196635299Y-87008293D01*
X196581502Y-87104012D01*
X196496204Y-87157081D01*
X196383764Y-87174771D01*
X196275202Y-87159262D01*
X196188934Y-87108858D01*
X196132714Y-87016774D01*
X196112359Y-86874286D01*
X196123021Y-86753123D01*
X196147254Y-86666855D01*
X195955331Y-86614513D01*
X195916559Y-86748277D01*
X195904927Y-86895611D01*
X195477787Y-86895611D01*
X195477787Y-86599004D01*
X195477787Y-86356677D01*
X196250000Y-85841869D01*
X197022213Y-86356677D01*
X197022213Y-86599004D01*
X197022213Y-86889795D01*
X197022213Y-87859101D01*
G37*
D16*
%TO.C,IC8*%
X150581500Y-41674000D02*
X150581500Y-41919500D01*
X150581500Y-45326000D02*
X150581500Y-45080500D01*
X151327000Y-41674000D02*
X150581500Y-41674000D01*
X151327000Y-45326000D02*
X150581500Y-45326000D01*
X152488000Y-41674000D02*
X153233500Y-41674000D01*
X152488000Y-45326000D02*
X153233500Y-45326000D01*
X153233500Y-41674000D02*
X153233500Y-41919500D01*
X153233500Y-45326000D02*
X153233500Y-45080500D01*
D17*
X151347500Y-41214000D02*
G75*
G02*
X151197500Y-41214000I-75000J0D01*
G01*
X151197500Y-41214000D02*
G75*
G02*
X151347500Y-41214000I75000J0D01*
G01*
D13*
%TO.C,C29*%
X139734420Y-98615000D02*
X140015580Y-98615000D01*
X139734420Y-99635000D02*
X140015580Y-99635000D01*
%TO.C,R18*%
X120237258Y-79227500D02*
X119762742Y-79227500D01*
X120237258Y-80272500D02*
X119762742Y-80272500D01*
D12*
%TO.C,kibuzzard-669E1EE7*%
G36*
X136710339Y-80423075D02*
G01*
X136696890Y-80465967D01*
X136656543Y-80497711D01*
X136615132Y-80512251D01*
X136562628Y-80520975D01*
X136499031Y-80523883D01*
X136435972Y-80520975D01*
X136383791Y-80512251D01*
X136342488Y-80497711D01*
X136302141Y-80465967D01*
X136288691Y-80423075D01*
X136288991Y-80422106D01*
X136424394Y-80422106D01*
X136443780Y-80461847D01*
X136489338Y-80476387D01*
X136534410Y-80461847D01*
X136553312Y-80422106D01*
X136534410Y-80383818D01*
X136489338Y-80368794D01*
X136443780Y-80383818D01*
X136424394Y-80422106D01*
X136288991Y-80422106D01*
X136302141Y-80379577D01*
X136342488Y-80347954D01*
X136383791Y-80333683D01*
X136435972Y-80325121D01*
X136499031Y-80322267D01*
X136562628Y-80325121D01*
X136615132Y-80333683D01*
X136656543Y-80347954D01*
X136696890Y-80379577D01*
X136710040Y-80422106D01*
X136710339Y-80423075D01*
G37*
G36*
X136893861Y-80705143D02*
G01*
X136893861Y-81103527D01*
X136893861Y-81143915D01*
X136500000Y-81406489D01*
X136106139Y-81143915D01*
X136106139Y-81103527D01*
X136106139Y-80905789D01*
X136200485Y-80905789D01*
X136238288Y-80947469D01*
X136273183Y-80998842D01*
X136303231Y-81053123D01*
X136325525Y-81103527D01*
X136424394Y-81064755D01*
X136400646Y-81005627D01*
X136366236Y-80943592D01*
X136701616Y-80943592D01*
X136701616Y-81069602D01*
X136800485Y-81069602D01*
X136800485Y-80705143D01*
X136701616Y-80705143D01*
X136701616Y-80824367D01*
X136200485Y-80824367D01*
X136200485Y-80905789D01*
X136106139Y-80905789D01*
X136106139Y-80423075D01*
X136186914Y-80423075D01*
X136195530Y-80484572D01*
X136221379Y-80535945D01*
X136264459Y-80577194D01*
X136308199Y-80600942D01*
X136361874Y-80617905D01*
X136425485Y-80628083D01*
X136499031Y-80631475D01*
X136573425Y-80628144D01*
X136637641Y-80618148D01*
X136691680Y-80601488D01*
X136735541Y-80578164D01*
X136778621Y-80537237D01*
X136804470Y-80485541D01*
X136813086Y-80423075D01*
X136804470Y-80360609D01*
X136778621Y-80308912D01*
X136735541Y-80267986D01*
X136691680Y-80244662D01*
X136637641Y-80228002D01*
X136573425Y-80218006D01*
X136499031Y-80214674D01*
X136425091Y-80218006D01*
X136361268Y-80228002D01*
X136307563Y-80244662D01*
X136263974Y-80267986D01*
X136221163Y-80308912D01*
X136195477Y-80360609D01*
X136186914Y-80423075D01*
X136106139Y-80423075D01*
X136106139Y-80214674D01*
X136106139Y-80093511D01*
X136893861Y-80093511D01*
X136893861Y-80214674D01*
X136893861Y-80423075D01*
X136893861Y-80705143D01*
G37*
%TO.C,kibuzzard-669E23C8*%
G36*
X128960097Y-53350404D02*
G01*
X129001292Y-53379483D01*
X129024071Y-53427625D01*
X129031664Y-53494507D01*
X129031664Y-53559128D01*
X128773183Y-53559128D01*
X128769952Y-53519709D01*
X128769305Y-53480291D01*
X128776575Y-53423263D01*
X128798384Y-53378837D01*
X128837641Y-53350242D01*
X128897254Y-53340711D01*
X128960097Y-53350404D01*
G37*
G36*
X129315994Y-50194992D02*
G01*
X129317286Y-50231179D01*
X129304362Y-50289176D01*
X129265590Y-50328756D01*
X129206462Y-50351535D01*
X129132472Y-50359128D01*
X129057189Y-50352666D01*
X129001939Y-50333279D01*
X128968013Y-50299677D01*
X128956704Y-50250565D01*
X128963813Y-50201454D01*
X128981260Y-50160097D01*
X129312116Y-50160097D01*
X129315994Y-50194992D01*
G37*
G36*
X129210016Y-50763813D02*
G01*
X129268174Y-50787561D01*
X129305977Y-50826817D01*
X129318578Y-50881260D01*
X129305977Y-50936995D01*
X129268174Y-50974960D01*
X129210016Y-50996769D01*
X129136349Y-51004039D01*
X129062843Y-50996123D01*
X129005170Y-50972375D01*
X128967851Y-50933118D01*
X128955412Y-50878675D01*
X128967851Y-50822940D01*
X129005170Y-50784976D01*
X129062843Y-50763166D01*
X129136349Y-50755897D01*
X129210016Y-50763813D01*
G37*
G36*
X129210016Y-51410016D02*
G01*
X129268174Y-51433764D01*
X129305977Y-51473021D01*
X129318578Y-51527464D01*
X129305977Y-51583199D01*
X129268174Y-51621163D01*
X129210016Y-51642973D01*
X129136349Y-51650242D01*
X129062843Y-51642326D01*
X129005170Y-51618578D01*
X128967851Y-51579321D01*
X128955412Y-51524879D01*
X128967851Y-51469144D01*
X129005170Y-51431179D01*
X129062843Y-51409370D01*
X129136349Y-51402100D01*
X129210016Y-51410016D01*
G37*
G36*
X129564567Y-50878675D02*
G01*
X129564567Y-51524879D01*
X129564567Y-52133603D01*
X129564567Y-53559128D01*
X129564567Y-54134249D01*
X129564567Y-54998869D01*
X129564567Y-55160420D01*
X129564567Y-55536798D01*
X129000000Y-55160420D01*
X128435433Y-55536798D01*
X128435433Y-55160420D01*
X128435433Y-54998869D01*
X128640065Y-54998869D01*
X129440065Y-54998869D01*
X129440065Y-54485784D01*
X129308239Y-54485784D01*
X129308239Y-54839903D01*
X129083360Y-54839903D01*
X129083360Y-54556866D01*
X128951535Y-54556866D01*
X128951535Y-54839903D01*
X128771890Y-54839903D01*
X128771890Y-54514216D01*
X128640065Y-54514216D01*
X128640065Y-54998869D01*
X128435433Y-54998869D01*
X128435433Y-54096769D01*
X128621971Y-54096769D01*
X128629007Y-54175965D01*
X128650117Y-54242955D01*
X128685299Y-54297738D01*
X128760905Y-54352504D01*
X128861066Y-54370759D01*
X128956058Y-54350081D01*
X129020032Y-54297738D01*
X129062682Y-54227302D01*
X129092407Y-54152342D01*
X129115024Y-54098061D01*
X129142165Y-54048950D01*
X129176414Y-54012763D01*
X129220355Y-53998546D01*
X129258481Y-54004362D01*
X129292084Y-54025687D01*
X129315347Y-54067690D01*
X129323748Y-54134249D01*
X129319225Y-54198708D01*
X129305654Y-54252504D01*
X129266882Y-54335864D01*
X129396123Y-54382391D01*
X129435541Y-54293215D01*
X129451535Y-54223748D01*
X129456866Y-54134249D01*
X129450045Y-54043565D01*
X129429582Y-53969682D01*
X129395477Y-53912601D01*
X129321325Y-53857835D01*
X129221648Y-53839580D01*
X129161389Y-53845073D01*
X129112439Y-53861551D01*
X129040065Y-53917771D01*
X128993538Y-53992730D01*
X128961874Y-54070921D01*
X128942488Y-54120679D01*
X128918578Y-54165913D01*
X128887561Y-54198869D01*
X128846850Y-54211793D01*
X128795871Y-54197720D01*
X128765285Y-54155502D01*
X128755089Y-54085137D01*
X128768013Y-53994023D01*
X128799031Y-53922294D01*
X128676252Y-53875767D01*
X128638772Y-53968174D01*
X128626171Y-54027787D01*
X128621971Y-54096769D01*
X128435433Y-54096769D01*
X128435433Y-53498384D01*
X128631018Y-53498384D01*
X128632310Y-53548788D01*
X128635541Y-53606947D01*
X128641357Y-53665751D01*
X128650404Y-53718094D01*
X129440065Y-53718094D01*
X129440065Y-53559128D01*
X129169952Y-53559128D01*
X129169952Y-53502262D01*
X129162843Y-53406695D01*
X129141519Y-53326782D01*
X129105977Y-53262520D01*
X129054496Y-53215491D01*
X128985353Y-53187273D01*
X128898546Y-53177868D01*
X128812601Y-53187202D01*
X128744319Y-53215204D01*
X128693700Y-53261874D01*
X128658876Y-53325489D01*
X128637982Y-53404326D01*
X128631018Y-53498384D01*
X128435433Y-53498384D01*
X128435433Y-52114216D01*
X128621971Y-52114216D01*
X128628595Y-52184330D01*
X128648465Y-52249919D01*
X128681583Y-52309047D01*
X128727948Y-52359774D01*
X128787237Y-52401454D01*
X128859128Y-52433441D01*
X128943296Y-52453796D01*
X129039418Y-52460582D01*
X129136511Y-52454766D01*
X129221002Y-52437318D01*
X129292730Y-52409208D01*
X129351535Y-52371405D01*
X129397415Y-52324394D01*
X129430372Y-52268659D01*
X129450242Y-52204847D01*
X129456866Y-52133603D01*
X129453635Y-52054604D01*
X129443942Y-51988207D01*
X129420679Y-51899677D01*
X129021325Y-51899677D01*
X129021325Y-52058643D01*
X129313409Y-52058643D01*
X129317286Y-52089661D01*
X129318578Y-52120679D01*
X129301616Y-52197900D01*
X129250727Y-52253796D01*
X129197092Y-52278927D01*
X129126656Y-52294005D01*
X129039418Y-52299031D01*
X128980129Y-52296284D01*
X128926333Y-52288045D01*
X128838449Y-52251858D01*
X128780937Y-52187884D01*
X128760258Y-52092246D01*
X128774475Y-52006947D01*
X128806785Y-51937157D01*
X128680129Y-51895800D01*
X128664620Y-51922294D01*
X128645234Y-51966882D01*
X128629079Y-52030856D01*
X128621971Y-52114216D01*
X128435433Y-52114216D01*
X128435433Y-51524879D01*
X128817124Y-51524879D01*
X128822779Y-51584653D01*
X128839742Y-51639903D01*
X128867205Y-51689176D01*
X128904362Y-51731018D01*
X128950565Y-51764943D01*
X129005170Y-51790468D01*
X129067044Y-51806462D01*
X129135057Y-51811793D01*
X129204039Y-51806624D01*
X129266236Y-51791115D01*
X129321002Y-51766074D01*
X129367690Y-51732310D01*
X129405493Y-51690630D01*
X129433603Y-51641842D01*
X129451050Y-51586430D01*
X129456866Y-51524879D01*
X129451050Y-51463328D01*
X129433603Y-51407916D01*
X129405493Y-51359289D01*
X129367690Y-51318094D01*
X129321002Y-51284814D01*
X129266236Y-51259935D01*
X129204039Y-51244426D01*
X129135057Y-51239257D01*
X129067044Y-51244426D01*
X129005170Y-51259935D01*
X128950565Y-51284976D01*
X128904362Y-51318740D01*
X128867205Y-51360420D01*
X128839742Y-51409208D01*
X128822779Y-51464297D01*
X128817124Y-51524879D01*
X128435433Y-51524879D01*
X128435433Y-50878675D01*
X128817124Y-50878675D01*
X128822779Y-50938449D01*
X128839742Y-50993700D01*
X128867205Y-51042973D01*
X128904362Y-51084814D01*
X128950565Y-51118740D01*
X129005170Y-51144265D01*
X129067044Y-51160258D01*
X129135057Y-51165590D01*
X129204039Y-51160420D01*
X129266236Y-51144911D01*
X129321002Y-51119871D01*
X129367690Y-51086107D01*
X129405493Y-51044426D01*
X129433603Y-50995638D01*
X129451050Y-50940226D01*
X129456866Y-50878675D01*
X129451050Y-50817124D01*
X129433603Y-50761712D01*
X129405493Y-50713086D01*
X129367690Y-50671890D01*
X129321002Y-50638611D01*
X129266236Y-50613732D01*
X129204039Y-50598223D01*
X129135057Y-50593053D01*
X129067044Y-50598223D01*
X129005170Y-50613732D01*
X128950565Y-50638772D01*
X128904362Y-50672536D01*
X128867205Y-50714216D01*
X128839742Y-50763005D01*
X128822779Y-50818094D01*
X128817124Y-50878675D01*
X128435433Y-50878675D01*
X128435433Y-50001131D01*
X128543134Y-50001131D01*
X128570275Y-50160097D01*
X128846850Y-50160097D01*
X128826817Y-50214378D01*
X128819709Y-50277706D01*
X128829259Y-50351301D01*
X128857907Y-50411829D01*
X128905654Y-50459289D01*
X128969916Y-50493394D01*
X129048106Y-50513857D01*
X129140226Y-50520679D01*
X129230695Y-50512565D01*
X129307377Y-50488225D01*
X129370275Y-50447658D01*
X129416945Y-50391294D01*
X129444947Y-50319566D01*
X129454281Y-50232472D01*
X129452019Y-50171082D01*
X129445234Y-50108401D01*
X129434895Y-50049919D01*
X129421971Y-50001131D01*
X128543134Y-50001131D01*
X128435433Y-50001131D01*
X128435433Y-49839580D01*
X129000000Y-49463202D01*
X129564567Y-49839580D01*
X129564567Y-50001131D01*
X129564567Y-50232472D01*
X129564567Y-50878675D01*
G37*
D16*
%TO.C,R21*%
X147992500Y-98564000D02*
X151257500Y-98564000D01*
X147992500Y-99999000D02*
X147992500Y-98564000D01*
X147992500Y-101751000D02*
X147992500Y-103186000D01*
X147992500Y-103186000D02*
X151257500Y-103186000D01*
X151257500Y-98564000D02*
X151257500Y-99999000D01*
X151257500Y-103186000D02*
X151257500Y-101751000D01*
D13*
%TO.C,C26*%
X181145000Y-95103752D02*
X181145000Y-94581248D01*
X182615000Y-95103752D02*
X182615000Y-94581248D01*
%TO.C,C34*%
X145459420Y-45290000D02*
X145740580Y-45290000D01*
X145459420Y-46310000D02*
X145740580Y-46310000D01*
D17*
%TO.C,LED13*%
X130000500Y-57160000D02*
X130000500Y-56110000D01*
X130003000Y-57540000D02*
X130003000Y-58690000D01*
X130300500Y-55810000D02*
X130000500Y-56110000D01*
X130401000Y-55810000D02*
X130300500Y-55810000D01*
X130423000Y-57510000D02*
X130753000Y-57180000D01*
X130423000Y-57520000D02*
X130423000Y-57510000D01*
X130753000Y-57520000D02*
X130753000Y-57180000D01*
X131093000Y-57520000D02*
X130753000Y-57180000D01*
X131100500Y-55810000D02*
X130401000Y-55810000D01*
X131100500Y-55810000D02*
X131201000Y-55810000D01*
X131103000Y-57520000D02*
X130423000Y-57520000D01*
X131103000Y-57520000D02*
X131093000Y-57520000D01*
X131201000Y-55810000D02*
X131501000Y-56110000D01*
X131501000Y-57160000D02*
X131501000Y-56110000D01*
X131503000Y-57540000D02*
X131503000Y-58690000D01*
X131503000Y-58690000D02*
X130023000Y-58690000D01*
D13*
%TO.C,C36*%
X132459420Y-39490000D02*
X132740580Y-39490000D01*
X132459420Y-40510000D02*
X132740580Y-40510000D01*
%TO.C,R20*%
X139030242Y-113937500D02*
X139504758Y-113937500D01*
X139030242Y-114982500D02*
X139504758Y-114982500D01*
D16*
%TO.C,Q1*%
X164323500Y-95414000D02*
X164323500Y-96455500D01*
X164323500Y-98486000D02*
X164323500Y-97444500D01*
X166076000Y-95414000D02*
X164323500Y-95414000D01*
X166076000Y-96494500D02*
X166076000Y-97405500D01*
X166076000Y-98486000D02*
X164323500Y-98486000D01*
D13*
%TO.C,C38*%
X126615000Y-92734420D02*
X126615000Y-93015580D01*
X127635000Y-92734420D02*
X127635000Y-93015580D01*
D16*
%TO.C,SW2*%
X131074000Y-62474000D02*
X137326500Y-62474000D01*
X131074000Y-66326500D02*
X137326500Y-66326500D01*
X137326500Y-62474000D02*
X137326500Y-63777000D01*
X137326500Y-66326500D02*
X137326500Y-65023500D01*
D12*
G36*
X131150000Y-63827500D02*
G01*
X130845000Y-63827500D01*
X130845000Y-62397500D01*
X131150000Y-62397500D01*
X131150000Y-63827500D01*
G37*
G36*
X131150000Y-66402500D02*
G01*
X130845000Y-66402500D01*
X130845000Y-64972500D01*
X131150000Y-64972500D01*
X131150000Y-66402500D01*
G37*
D14*
%TO.C,LED3*%
X85659084Y-72847494D02*
X85746481Y-72928993D01*
X85659084Y-72847494D02*
X89069076Y-69190726D01*
X86814623Y-73925051D02*
X88160314Y-75179928D01*
X89069076Y-69190726D02*
X89156472Y-69272224D01*
X89228456Y-76175987D02*
X89315852Y-76257486D01*
X89315852Y-76257486D02*
X92725844Y-72600717D01*
X90224614Y-70268283D02*
X91570305Y-71523160D01*
X91463357Y-72928173D02*
X91755899Y-73200973D01*
X91483100Y-73493514D02*
X91463357Y-72928173D01*
X91755899Y-73200973D02*
X91483100Y-73493514D01*
X92638447Y-72519219D02*
X92725844Y-72600717D01*
X85345290Y-73144605D02*
G75*
G02*
X85145290Y-73144605I-100000J0D01*
G01*
X85145290Y-73144605D02*
G75*
G02*
X85345290Y-73144605I100000J0D01*
G01*
X90692465Y-72724106D02*
G75*
G02*
X87692463Y-72724106I-1500001J0D01*
G01*
X87692463Y-72724106D02*
G75*
G02*
X90692465Y-72724106I1500001J0D01*
G01*
D13*
%TO.C,C21*%
X172090580Y-92690000D02*
X171809420Y-92690000D01*
X172090580Y-93710000D02*
X171809420Y-93710000D01*
D16*
%TO.C,IC10*%
X140996000Y-108259000D02*
X144039000Y-108259000D01*
X140996000Y-113411000D02*
X140996000Y-108259000D01*
X144039000Y-108259000D02*
X144039000Y-113411000D01*
X144039000Y-113411000D02*
X140996000Y-113411000D01*
D11*
X139985500Y-108162500D02*
G75*
G02*
X139684500Y-108162500I-150500J0D01*
G01*
X139684500Y-108162500D02*
G75*
G02*
X139985500Y-108162500I150500J0D01*
G01*
X141898500Y-108930000D02*
G75*
G02*
X141598500Y-108930000I-150000J0D01*
G01*
X141598500Y-108930000D02*
G75*
G02*
X141898500Y-108930000I150000J0D01*
G01*
D13*
%TO.C,R19*%
X142280242Y-113937500D02*
X142754758Y-113937500D01*
X142280242Y-114982500D02*
X142754758Y-114982500D01*
%TO.C,R16*%
X120237258Y-77227500D02*
X119762742Y-77227500D01*
X120237258Y-78272500D02*
X119762742Y-78272500D01*
%TO.C,J1*%
X132590000Y-84330000D02*
X132590000Y-83000000D01*
X133920000Y-84330000D02*
X132590000Y-84330000D01*
X135190000Y-81670000D02*
X158110000Y-81670000D01*
X135190000Y-84330000D02*
X135190000Y-81670000D01*
X135190000Y-84330000D02*
X158110000Y-84330000D01*
X158110000Y-84330000D02*
X158110000Y-81670000D01*
D16*
%TO.C,SW1*%
X162927343Y-68901825D02*
X167348528Y-73323011D01*
X165651472Y-66177697D02*
X170072657Y-70598882D01*
X167348528Y-73323011D02*
X168269888Y-72401650D01*
X170072657Y-70598882D02*
X169151297Y-71520242D01*
D12*
G36*
X163938506Y-67998143D02*
G01*
X162927343Y-69009306D01*
X162711675Y-68793638D01*
X163722838Y-67782475D01*
X163938506Y-67998143D01*
G37*
G36*
X165759306Y-66177343D02*
G01*
X164748143Y-67188506D01*
X164532475Y-66972838D01*
X165543638Y-65961675D01*
X165759306Y-66177343D01*
G37*
D17*
%TO.C,LED14*%
X128285000Y-57164000D02*
X128285000Y-56114000D01*
X128287500Y-57544000D02*
X128287500Y-58694000D01*
X128585000Y-55814000D02*
X128285000Y-56114000D01*
X128685500Y-55814000D02*
X128585000Y-55814000D01*
X128707500Y-57514000D02*
X129037500Y-57184000D01*
X128707500Y-57524000D02*
X128707500Y-57514000D01*
X129037500Y-57524000D02*
X129037500Y-57184000D01*
X129377500Y-57524000D02*
X129037500Y-57184000D01*
X129385000Y-55814000D02*
X128685500Y-55814000D01*
X129385000Y-55814000D02*
X129485500Y-55814000D01*
X129387500Y-57524000D02*
X128707500Y-57524000D01*
X129387500Y-57524000D02*
X129377500Y-57524000D01*
X129485500Y-55814000D02*
X129785500Y-56114000D01*
X129785500Y-57164000D02*
X129785500Y-56114000D01*
X129787500Y-57544000D02*
X129787500Y-58694000D01*
X129787500Y-58694000D02*
X128307500Y-58694000D01*
D16*
%TO.C,Q2*%
X178878500Y-78131500D02*
X178878500Y-79173000D01*
X178878500Y-81203500D02*
X178878500Y-80162000D01*
X180631000Y-78131500D02*
X178878500Y-78131500D01*
X180631000Y-79212000D02*
X180631000Y-80123000D01*
X180631000Y-81203500D02*
X178878500Y-81203500D01*
%TO.C,IC5*%
X133331500Y-47674000D02*
X133331500Y-47919500D01*
X133331500Y-51326000D02*
X133331500Y-51080500D01*
X134077000Y-47674000D02*
X133331500Y-47674000D01*
X134077000Y-51326000D02*
X133331500Y-51326000D01*
X135238000Y-47674000D02*
X135983500Y-47674000D01*
X135238000Y-51326000D02*
X135983500Y-51326000D01*
X135983500Y-47674000D02*
X135983500Y-47919500D01*
X135983500Y-51326000D02*
X135983500Y-51080500D01*
D17*
X134097500Y-47214000D02*
G75*
G02*
X133947500Y-47214000I-75000J0D01*
G01*
X133947500Y-47214000D02*
G75*
G02*
X134097500Y-47214000I75000J0D01*
G01*
D13*
%TO.C,R5*%
X188777500Y-100637258D02*
X188777500Y-100162742D01*
X189822500Y-100637258D02*
X189822500Y-100162742D01*
%TO.C,C17*%
X170190000Y-88909420D02*
X170190000Y-89190580D01*
X171210000Y-88909420D02*
X171210000Y-89190580D01*
%TO.C,R12*%
X120237258Y-73727500D02*
X119762742Y-73727500D01*
X120237258Y-74772500D02*
X119762742Y-74772500D01*
D14*
%TO.C,LED8*%
X161928619Y-41151777D02*
X165338611Y-44808545D01*
X162016016Y-41070278D02*
X161928619Y-41151777D01*
X164429849Y-38819343D02*
X163084158Y-40074220D01*
X164534678Y-43506550D02*
X165100019Y-43526292D01*
X164807478Y-43799091D02*
X164534678Y-43506550D01*
X165100019Y-43526292D02*
X164807478Y-43799091D01*
X165426007Y-44727047D02*
X165338611Y-44808545D01*
X165585387Y-37741785D02*
X165497991Y-37823284D01*
X165585387Y-37741785D02*
X168995379Y-41398554D01*
X167839840Y-42476111D02*
X166494149Y-43730988D01*
X168995379Y-41398554D02*
X168907982Y-41480052D01*
X165417865Y-37308274D02*
G75*
G02*
X165217865Y-37308274I-100000J0D01*
G01*
X165217865Y-37308274D02*
G75*
G02*
X165417865Y-37308274I100000J0D01*
G01*
X166962000Y-41275165D02*
G75*
G02*
X163961998Y-41275165I-1500001J0D01*
G01*
X163961998Y-41275165D02*
G75*
G02*
X166962000Y-41275165I1500001J0D01*
G01*
D13*
%TO.C,C11*%
X165190000Y-89115580D02*
X165190000Y-88834420D01*
X166210000Y-89115580D02*
X166210000Y-88834420D01*
D12*
%TO.C,kibuzzard-669E23CE*%
G36*
X130910258Y-53384622D02*
G01*
X130916721Y-53433087D01*
X130877302Y-53518386D01*
X130828998Y-53538742D01*
X130762924Y-53545527D01*
X130669584Y-53530018D01*
X130613579Y-53483491D01*
X130594911Y-53405947D01*
X130596204Y-53376221D01*
X130601373Y-53343911D01*
X130893457Y-53343911D01*
X130910258Y-53384622D01*
G37*
G36*
X130971648Y-52082522D02*
G01*
X130972294Y-52132926D01*
X130954847Y-52213055D01*
X130896042Y-52244073D01*
X130858562Y-52233733D01*
X130836591Y-52205947D01*
X130825606Y-52165236D01*
X130822375Y-52117417D01*
X130824313Y-52077352D01*
X130828837Y-52039872D01*
X130968417Y-52039872D01*
X130971648Y-52082522D01*
G37*
G36*
X131410851Y-52144557D02*
G01*
X131410851Y-52533572D01*
X131410851Y-53486076D01*
X131410851Y-53964267D01*
X131410851Y-54742296D01*
X131410851Y-54990438D01*
X131410851Y-55151989D01*
X131410851Y-55592556D01*
X130750000Y-55151989D01*
X130089149Y-55592556D01*
X130089149Y-55151989D01*
X130089149Y-54990438D01*
X130089149Y-54704816D01*
X130267932Y-54704816D01*
X130274969Y-54784012D01*
X130296078Y-54851001D01*
X130331260Y-54905785D01*
X130406866Y-54960551D01*
X130507027Y-54978806D01*
X130602019Y-54958128D01*
X130665994Y-54905785D01*
X130708643Y-54835349D01*
X130738368Y-54760389D01*
X130760985Y-54706108D01*
X130788126Y-54656997D01*
X130822375Y-54620809D01*
X130866317Y-54606593D01*
X130904443Y-54612409D01*
X130938045Y-54633733D01*
X130961309Y-54675737D01*
X130969709Y-54742296D01*
X130965186Y-54806754D01*
X130951616Y-54860551D01*
X130912843Y-54943911D01*
X131042084Y-54990438D01*
X131081502Y-54901262D01*
X131097496Y-54831795D01*
X131102827Y-54742296D01*
X131096006Y-54651612D01*
X131075543Y-54577729D01*
X131041438Y-54520648D01*
X130967286Y-54465882D01*
X130867609Y-54447627D01*
X130807351Y-54453120D01*
X130758401Y-54469598D01*
X130686026Y-54525817D01*
X130639499Y-54600777D01*
X130607835Y-54678968D01*
X130588449Y-54728725D01*
X130564540Y-54773960D01*
X130533522Y-54806916D01*
X130492811Y-54819840D01*
X130441833Y-54805767D01*
X130411246Y-54763549D01*
X130401050Y-54693184D01*
X130413974Y-54602069D01*
X130444992Y-54530341D01*
X130322213Y-54483814D01*
X130284733Y-54576221D01*
X130272132Y-54635834D01*
X130267932Y-54704816D01*
X130089149Y-54704816D01*
X130089149Y-54129695D01*
X130202019Y-54129695D01*
X130229160Y-54200131D01*
X130304120Y-54229210D01*
X130377787Y-54200131D01*
X130404927Y-54129695D01*
X130478595Y-54129695D01*
X130478595Y-54349404D01*
X130610420Y-54349404D01*
X130610420Y-54181391D01*
X130834006Y-54181391D01*
X130893780Y-54178806D01*
X130946446Y-54171052D01*
X131029806Y-54135511D01*
X131082149Y-54068305D01*
X131095719Y-54021294D01*
X131100242Y-53964267D01*
X131091842Y-53884784D01*
X131060178Y-53792376D01*
X130932229Y-53813055D01*
X130956139Y-53882845D01*
X130961955Y-53935834D01*
X130935460Y-54002393D01*
X130854685Y-54022425D01*
X130478595Y-54022425D01*
X130478595Y-54129695D01*
X130404927Y-54129695D01*
X130377787Y-54058612D01*
X130304120Y-54028887D01*
X130229160Y-54058612D01*
X130202019Y-54129695D01*
X130089149Y-54129695D01*
X130089149Y-53399485D01*
X130465670Y-53399485D01*
X130473856Y-53487656D01*
X130498411Y-53562615D01*
X130539338Y-53624363D01*
X130596922Y-53670316D01*
X130671450Y-53697887D01*
X130762924Y-53707078D01*
X130845207Y-53700257D01*
X130914567Y-53679793D01*
X130971002Y-53645688D01*
X131012646Y-53598372D01*
X131037632Y-53538275D01*
X131045961Y-53465397D01*
X131039499Y-53405300D01*
X131020113Y-53343911D01*
X131044669Y-53343911D01*
X131093134Y-53350373D01*
X131132553Y-53372344D01*
X131159047Y-53414994D01*
X131168740Y-53483491D01*
X131156462Y-53586884D01*
X131129968Y-53665721D01*
X131264378Y-53695446D01*
X131291519Y-53595284D01*
X131300242Y-53541811D01*
X131303150Y-53486076D01*
X131295252Y-53389792D01*
X131271558Y-53312893D01*
X131232068Y-53255381D01*
X131176064Y-53215532D01*
X131102827Y-53191623D01*
X131012359Y-53183653D01*
X130497981Y-53183653D01*
X130480031Y-53259330D01*
X130469260Y-53331274D01*
X130465670Y-53399485D01*
X130089149Y-53399485D01*
X130089149Y-52780422D01*
X130465670Y-52780422D01*
X130468255Y-52851342D01*
X130476010Y-52916771D01*
X130486672Y-52974444D01*
X130497981Y-53022102D01*
X131086026Y-53022102D01*
X131086026Y-52863136D01*
X130609128Y-52863136D01*
X130605250Y-52826302D01*
X130603958Y-52790761D01*
X130641438Y-52711924D01*
X130690872Y-52697384D01*
X130764216Y-52692538D01*
X131086026Y-52692538D01*
X131086026Y-52533572D01*
X130743538Y-52533572D01*
X130684249Y-52536480D01*
X130630452Y-52545204D01*
X130542569Y-52584622D01*
X130485703Y-52660228D01*
X130470679Y-52714186D01*
X130465670Y-52780422D01*
X130089149Y-52780422D01*
X130089149Y-52147142D01*
X130463086Y-52147142D01*
X130465186Y-52204331D01*
X130471486Y-52259582D01*
X130490226Y-52343588D01*
X130618174Y-52321617D01*
X130602666Y-52253766D01*
X130596204Y-52166528D01*
X130603796Y-52107078D01*
X130626575Y-52068305D01*
X130702181Y-52039872D01*
X130721567Y-52039872D01*
X130713813Y-52091246D01*
X130711228Y-52149727D01*
X130720921Y-52244073D01*
X130752585Y-52324202D01*
X130810743Y-52379775D01*
X130899919Y-52400454D01*
X130993619Y-52382360D01*
X131055654Y-52330664D01*
X131089903Y-52249889D01*
X131100242Y-52144557D01*
X131097658Y-52063459D01*
X131089903Y-51990761D01*
X131071809Y-51887368D01*
X130709935Y-51887368D01*
X130607189Y-51900292D01*
X130529645Y-51942942D01*
X130480533Y-52022425D01*
X130467447Y-52078483D01*
X130463086Y-52147142D01*
X130089149Y-52147142D01*
X130089149Y-51764590D01*
X130196850Y-51764590D01*
X130328675Y-51764590D01*
X130328675Y-51596577D01*
X130844346Y-51596577D01*
X130954685Y-51583976D01*
X131034976Y-51546173D01*
X131083926Y-51480906D01*
X131100242Y-51385914D01*
X131095073Y-51314186D01*
X131082795Y-51260551D01*
X131069225Y-51225010D01*
X131060178Y-51207562D01*
X130932229Y-51228241D01*
X130949031Y-51270890D01*
X130961955Y-51351019D01*
X130939984Y-51413055D01*
X130855977Y-51437611D01*
X130196850Y-51437611D01*
X130196850Y-51764590D01*
X130089149Y-51764590D01*
X130089149Y-51207562D01*
X130089149Y-51046011D01*
X130750000Y-50605444D01*
X131410851Y-51046011D01*
X131410851Y-51207562D01*
X131410851Y-51385914D01*
X131410851Y-52144557D01*
G37*
D13*
%TO.C,R7*%
X189107500Y-81930242D02*
X189107500Y-82404758D01*
X190152500Y-81930242D02*
X190152500Y-82404758D01*
D12*
%TO.C,kibuzzard-669E1F2D*%
G36*
X154279816Y-80526306D02*
G01*
X154224566Y-80497227D01*
X154168831Y-80462816D01*
X154116004Y-80426467D01*
X154068508Y-80390603D01*
X154279816Y-80390603D01*
X154279816Y-80526306D01*
G37*
G36*
X154612611Y-80945046D02*
G01*
X154612611Y-81111766D01*
X154612611Y-81152154D01*
X154218750Y-81414728D01*
X153824889Y-81152154D01*
X153824889Y-81111766D01*
X153824889Y-80934383D01*
X153905664Y-80934383D01*
X153910147Y-80985878D01*
X153923597Y-81031799D01*
X153958976Y-81101104D01*
X154046214Y-81058454D01*
X154018588Y-81000781D01*
X154007441Y-80933414D01*
X154026343Y-80878648D01*
X154078201Y-80858778D01*
X154115034Y-80867986D01*
X154138298Y-80891734D01*
X154150899Y-80924690D01*
X154154776Y-80961524D01*
X154154776Y-81006112D01*
X154253645Y-81006112D01*
X154253645Y-80969278D01*
X154258370Y-80916209D01*
X154272546Y-80873317D01*
X154298597Y-80844965D01*
X154338944Y-80835514D01*
X154403887Y-80860232D01*
X154423516Y-80894036D01*
X154430059Y-80946015D01*
X154427393Y-80991936D01*
X154419396Y-81030829D01*
X154399041Y-81088503D01*
X154498879Y-81111766D01*
X154509542Y-81081718D01*
X154520204Y-81039553D01*
X154528443Y-80992057D01*
X154531836Y-80945046D01*
X154528322Y-80889068D01*
X154517781Y-80841330D01*
X154500818Y-80801589D01*
X154478039Y-80769602D01*
X154417458Y-80727921D01*
X154340882Y-80714351D01*
X154292175Y-80720773D01*
X154250737Y-80740038D01*
X154217538Y-80770934D01*
X154193548Y-80812251D01*
X154143144Y-80757970D01*
X154074324Y-80737614D01*
X154007441Y-80749246D01*
X153953645Y-80785110D01*
X153918265Y-80846661D01*
X153908815Y-80887251D01*
X153905664Y-80934383D01*
X153824889Y-80934383D01*
X153824889Y-80378002D01*
X153919235Y-80378002D01*
X153960551Y-80416774D01*
X154006957Y-80455547D01*
X154056270Y-80493349D01*
X154106311Y-80529214D01*
X154156109Y-80562655D01*
X154204695Y-80593188D01*
X154250131Y-80619602D01*
X154290479Y-80640684D01*
X154377716Y-80640684D01*
X154377716Y-80390603D01*
X154519235Y-80390603D01*
X154519235Y-80271379D01*
X154377716Y-80271379D01*
X154377716Y-80206435D01*
X154279816Y-80206435D01*
X154279816Y-80271379D01*
X153919235Y-80271379D01*
X153919235Y-80378002D01*
X153824889Y-80378002D01*
X153824889Y-80206435D01*
X153824889Y-80085272D01*
X154612611Y-80085272D01*
X154612611Y-80206435D01*
X154612611Y-80271379D01*
X154612611Y-80945046D01*
G37*
D13*
%TO.C,R3*%
X134877500Y-60562742D02*
X134877500Y-61037258D01*
X135922500Y-60562742D02*
X135922500Y-61037258D01*
%TO.C,R26*%
X128477500Y-60186742D02*
X128477500Y-60661258D01*
X129522500Y-60186742D02*
X129522500Y-60661258D01*
D14*
%TO.C,IC2*%
X140196250Y-53043500D02*
X140196250Y-59862500D01*
X140196250Y-59083000D02*
X158213250Y-59083000D01*
X140196250Y-77734500D02*
X140196250Y-78582500D01*
X140196250Y-78582500D02*
X141530250Y-78582500D01*
X141957250Y-54198500D02*
X141957250Y-57881500D01*
X144243250Y-54198500D02*
X141957250Y-54198500D01*
X144243250Y-56357500D02*
X144243250Y-54198500D01*
X146529250Y-54198500D02*
X146529250Y-56357500D01*
X146529250Y-56357500D02*
X144243250Y-56357500D01*
X149069250Y-54198500D02*
X146529250Y-54198500D01*
X149069250Y-56357500D02*
X149069250Y-54198500D01*
X151609250Y-54198500D02*
X151609250Y-56357500D01*
X151609250Y-56357500D02*
X149069250Y-56357500D01*
X154461250Y-54198500D02*
X151609250Y-54198500D01*
X154461250Y-59083000D02*
X154461250Y-54198500D01*
X156493250Y-54198500D02*
X154258250Y-54198500D01*
X156493250Y-59083000D02*
X156493250Y-54198500D01*
X156862250Y-78582500D02*
X158213250Y-78582500D01*
X158196250Y-53043500D02*
X140196250Y-53043500D01*
X158213250Y-59862500D02*
X158213250Y-53055500D01*
X158213250Y-78582500D02*
X158213250Y-77734500D01*
X139183750Y-59913500D02*
G75*
G02*
X138380750Y-59913500I-401500J0D01*
G01*
X138380750Y-59913500D02*
G75*
G02*
X139183750Y-59913500I401500J0D01*
G01*
D13*
%TO.C,R14*%
X133512742Y-75477500D02*
X133987258Y-75477500D01*
X133512742Y-76522500D02*
X133987258Y-76522500D01*
%TO.C,C15*%
X181895000Y-87656248D02*
X181895000Y-88178752D01*
X183365000Y-87656248D02*
X183365000Y-88178752D01*
D14*
%TO.C,CN1*%
X127335000Y-97475000D02*
X127335000Y-103475000D01*
X128623000Y-102145000D02*
X128623000Y-103475000D01*
X131127500Y-102145000D02*
X128623000Y-102145000D01*
X131127500Y-102562000D02*
X128623000Y-102562000D01*
X131127500Y-103475000D02*
X131127500Y-102145000D01*
X132415000Y-97475000D02*
X127335000Y-97475000D01*
X132415000Y-97475000D02*
X132415000Y-103475000D01*
X132415000Y-103475000D02*
X127335000Y-103475000D01*
%TO.C,U2*%
X117800500Y-67099500D02*
X135300500Y-67099500D01*
X117800500Y-72899500D02*
X117800500Y-67099500D01*
X118421000Y-67697000D02*
X134621500Y-67697000D01*
X118422000Y-67770000D02*
X118422000Y-72218000D01*
X118422000Y-72243500D02*
X127515000Y-72243500D01*
X118854000Y-72218000D02*
X119260000Y-71812000D01*
X119260000Y-71812000D02*
X119692000Y-72243500D01*
X125356000Y-72243500D02*
X125356000Y-72777000D01*
X127464500Y-72243500D02*
X134621500Y-72243500D01*
X127642000Y-72243500D02*
X127642000Y-72751500D01*
X134627000Y-67722500D02*
X134627000Y-72221500D01*
X135300500Y-67099500D02*
X135300500Y-72899500D01*
X135300500Y-72899500D02*
X117800500Y-72899500D01*
D13*
%TO.C,R15*%
X120237258Y-80727500D02*
X119762742Y-80727500D01*
X120237258Y-81772500D02*
X119762742Y-81772500D01*
%TO.C,R4*%
X192677500Y-100612258D02*
X192677500Y-100137742D01*
X193722500Y-100612258D02*
X193722500Y-100137742D01*
D14*
%TO.C,IC4*%
X186000000Y-86625000D02*
X186144000Y-86625000D01*
X186000000Y-87094000D02*
X186000000Y-86625000D01*
X186000000Y-89625000D02*
X186000000Y-89606000D01*
X186644000Y-89625000D02*
X186000000Y-89625000D01*
X187856000Y-86625000D02*
X188000000Y-86625000D01*
X188000000Y-87094000D02*
X188000000Y-86625000D01*
X188000000Y-89625000D02*
X187356000Y-89625000D01*
X188000000Y-89625000D02*
X188000000Y-89606000D01*
D15*
X188610000Y-89255000D02*
G75*
G02*
X188410000Y-89255000I-100000J0D01*
G01*
X188410000Y-89255000D02*
G75*
G02*
X188610000Y-89255000I100000J0D01*
G01*
D14*
%TO.C,IC1*%
X93592000Y-82337998D02*
X93592000Y-89483998D01*
X93592000Y-89483998D02*
X101542000Y-89483998D01*
X101538000Y-83788498D02*
X102838000Y-83788498D01*
X101542000Y-82337998D02*
X93592000Y-82337998D01*
X101542000Y-88510998D02*
X102842000Y-88510998D01*
X101542000Y-89483998D02*
X101542000Y-82337998D01*
X102838000Y-83288498D02*
X101538000Y-83288498D01*
X102838000Y-83788498D02*
X102838000Y-83288498D01*
X102842000Y-88010998D02*
X101542000Y-88010998D01*
X102842000Y-88510998D02*
X102842000Y-88010998D01*
D18*
X102210500Y-89393999D02*
G75*
G02*
X102208000Y-89393999I-1250J-199998D01*
G01*
D13*
%TO.C,C10*%
X187620000Y-83808080D02*
X187620000Y-83526920D01*
X188640000Y-83808080D02*
X188640000Y-83526920D01*
%TO.C,C27*%
X129140580Y-73490000D02*
X128859420Y-73490000D01*
X129140580Y-74510000D02*
X128859420Y-74510000D01*
D12*
%TO.C,kibuzzard-669E2194*%
G36*
X201745961Y-83986672D02*
G01*
X201745961Y-84623990D01*
X201745961Y-85734653D01*
X200254039Y-85734653D01*
X200254039Y-84623990D01*
X200254039Y-84243538D01*
X200455977Y-84243538D01*
X200877625Y-84243538D01*
X200877625Y-84623990D01*
X201122375Y-84623990D01*
X201122375Y-84243538D01*
X201544023Y-84243538D01*
X201544023Y-83986672D01*
X201122375Y-83986672D01*
X201122375Y-83606220D01*
X200877625Y-83606220D01*
X200877625Y-83986672D01*
X200455977Y-83986672D01*
X200455977Y-84243538D01*
X200254039Y-84243538D01*
X200254039Y-79600565D01*
X200867932Y-79600565D01*
X201161147Y-79600565D01*
X201161147Y-78936591D01*
X200867932Y-78936591D01*
X200867932Y-79600565D01*
X200254039Y-79600565D01*
X200254039Y-78936591D01*
X200254039Y-77765347D01*
X201745961Y-77765347D01*
X201745961Y-78936591D01*
X201745961Y-83986672D01*
G37*
D14*
%TO.C,LED4*%
X92990566Y-64985442D02*
X93077963Y-65066941D01*
X92990566Y-64985442D02*
X96400558Y-61328674D01*
X94146105Y-66062999D02*
X95491796Y-67317876D01*
X96400558Y-61328674D02*
X96487954Y-61410172D01*
X96559938Y-68313935D02*
X96647334Y-68395434D01*
X96647334Y-68395434D02*
X100057326Y-64738665D01*
X97556096Y-62406231D02*
X98901787Y-63661108D01*
X98794839Y-65066121D02*
X99087381Y-65338921D01*
X98814582Y-65631462D02*
X98794839Y-65066121D01*
X99087381Y-65338921D02*
X98814582Y-65631462D01*
X99969929Y-64657167D02*
X100057326Y-64738665D01*
X92676772Y-65282553D02*
G75*
G02*
X92476772Y-65282553I-100000J0D01*
G01*
X92476772Y-65282553D02*
G75*
G02*
X92676772Y-65282553I100000J0D01*
G01*
X98023947Y-64862054D02*
G75*
G02*
X95023945Y-64862054I-1500001J0D01*
G01*
X95023945Y-64862054D02*
G75*
G02*
X98023947Y-64862054I1500001J0D01*
G01*
%TO.C,CON1*%
X129618000Y-30937500D02*
X154355500Y-30937500D01*
X129618000Y-33144000D02*
X129618000Y-30937500D01*
X129618000Y-35806000D02*
X129618000Y-36753500D01*
X129618000Y-36753500D02*
X131869000Y-36753500D01*
X152131000Y-36753500D02*
X154382000Y-36753500D01*
X154355500Y-30937500D02*
X154300000Y-30937500D01*
X154382000Y-33144000D02*
X154382000Y-30937500D01*
X154382000Y-36753500D02*
X154382000Y-35806000D01*
X152604000Y-37261500D02*
G75*
G02*
X152350000Y-37261500I-127000J0D01*
G01*
X152350000Y-37261500D02*
G75*
G02*
X152604000Y-37261500I127000J0D01*
G01*
D12*
%TO.C,kibuzzard-669E1F0E*%
G36*
X146685582Y-80534060D02*
G01*
X146630331Y-80504981D01*
X146574596Y-80470571D01*
X146521769Y-80434222D01*
X146474273Y-80398358D01*
X146685582Y-80398358D01*
X146685582Y-80534060D01*
G37*
G36*
X147005775Y-80714351D02*
G01*
X147005775Y-81112736D01*
X147005775Y-81153123D01*
X146625000Y-81406974D01*
X146244225Y-81153123D01*
X146244225Y-81112736D01*
X146244225Y-80914997D01*
X146325000Y-80914997D01*
X146362803Y-80956677D01*
X146397698Y-81008051D01*
X146427746Y-81062332D01*
X146450040Y-81112736D01*
X146548910Y-81073963D01*
X146525162Y-81014836D01*
X146490751Y-80952800D01*
X146826131Y-80952800D01*
X146826131Y-81078810D01*
X146925000Y-81078810D01*
X146925000Y-80714351D01*
X146826131Y-80714351D01*
X146826131Y-80833576D01*
X146325000Y-80833576D01*
X146325000Y-80914997D01*
X146244225Y-80914997D01*
X146244225Y-80385757D01*
X146325000Y-80385757D01*
X146366317Y-80424529D01*
X146412722Y-80463301D01*
X146462036Y-80501104D01*
X146512076Y-80536968D01*
X146561874Y-80570409D01*
X146610460Y-80600942D01*
X146655897Y-80627356D01*
X146696244Y-80648438D01*
X146783481Y-80648438D01*
X146783481Y-80398358D01*
X146925000Y-80398358D01*
X146925000Y-80279133D01*
X146783481Y-80279133D01*
X146783481Y-80214190D01*
X146685582Y-80214190D01*
X146685582Y-80279133D01*
X146325000Y-80279133D01*
X146325000Y-80385757D01*
X146244225Y-80385757D01*
X146244225Y-80214190D01*
X146244225Y-80093026D01*
X147005775Y-80093026D01*
X147005775Y-80214190D01*
X147005775Y-80279133D01*
X147005775Y-80714351D01*
G37*
D13*
%TO.C,C6*%
X137990000Y-60915580D02*
X137990000Y-60634420D01*
X139010000Y-60915580D02*
X139010000Y-60634420D01*
D15*
%TO.C,L2*%
X183250000Y-90167500D02*
X190750000Y-90167500D01*
X183250000Y-97667500D02*
X183250000Y-90167500D01*
X190750000Y-90167500D02*
X190750000Y-97667500D01*
X190750000Y-97667500D02*
X183250000Y-97667500D01*
D10*
X187000000Y-89617500D02*
G75*
G02*
X187000000Y-89717500I0J-50000D01*
G01*
X187000000Y-89717500D02*
G75*
G02*
X187000000Y-89617500I0J50000D01*
G01*
D12*
%TO.C,kibuzzard-669E1D82*%
G36*
X126192488Y-99407189D02*
G01*
X126216236Y-99454685D01*
X126224152Y-99524798D01*
X126224152Y-99559693D01*
X125983764Y-99559693D01*
X125980533Y-99533845D01*
X125979887Y-99511874D01*
X125987318Y-99454685D01*
X126009612Y-99409774D01*
X126047738Y-99380695D01*
X126102666Y-99371002D01*
X126192488Y-99407189D01*
G37*
G36*
X126306220Y-99986026D02*
G01*
X126358562Y-99989418D01*
X126447092Y-100007512D01*
X126507189Y-100046284D01*
X126529160Y-100111551D01*
X126507189Y-100177464D01*
X126447738Y-100215590D01*
X126359208Y-100233683D01*
X126306381Y-100237076D01*
X126250000Y-100238207D01*
X126193780Y-100237076D01*
X126141438Y-100233683D01*
X126052908Y-100215590D01*
X125992811Y-100177464D01*
X125970840Y-100111551D01*
X125992811Y-100045638D01*
X126052262Y-100007512D01*
X126140792Y-99989418D01*
X126193619Y-99986026D01*
X126250000Y-99984895D01*
X126306220Y-99986026D01*
G37*
G36*
X126306220Y-101278433D02*
G01*
X126358562Y-101281826D01*
X126447092Y-101299919D01*
X126507189Y-101338691D01*
X126529160Y-101403958D01*
X126507189Y-101469871D01*
X126447738Y-101507997D01*
X126359208Y-101526090D01*
X126306381Y-101529483D01*
X126250000Y-101530614D01*
X126193780Y-101529483D01*
X126141438Y-101526090D01*
X126052908Y-101507997D01*
X125992811Y-101469871D01*
X125970840Y-101403958D01*
X125992811Y-101338045D01*
X126052262Y-101299919D01*
X126140792Y-101281826D01*
X126193619Y-101278433D01*
X126250000Y-101277302D01*
X126306220Y-101278433D01*
G37*
G36*
X126775148Y-100110258D02*
G01*
X126775148Y-100677625D01*
X126775148Y-101402666D01*
X126775148Y-101756785D01*
X126775148Y-102343538D01*
X126775148Y-102612789D01*
X126765058Y-102715241D01*
X126735174Y-102813755D01*
X126686645Y-102904546D01*
X126621336Y-102984125D01*
X126541757Y-103049434D01*
X126450965Y-103097963D01*
X126352451Y-103127847D01*
X126250000Y-103137938D01*
X126147549Y-103127847D01*
X126049035Y-103097963D01*
X125958243Y-103049434D01*
X125878664Y-102984125D01*
X125813355Y-102904546D01*
X125764826Y-102813755D01*
X125734942Y-102715241D01*
X125724852Y-102612789D01*
X125724852Y-102343538D01*
X125724852Y-102297011D01*
X125850646Y-102297011D01*
X125938207Y-102305574D01*
X126032876Y-102313166D01*
X126132714Y-102319790D01*
X126235784Y-102325444D01*
X126340792Y-102330452D01*
X126446446Y-102335137D01*
X126550485Y-102339499D01*
X126650646Y-102343538D01*
X126650646Y-102197496D01*
X126028998Y-102203958D01*
X126367609Y-102109612D01*
X126367609Y-101993296D01*
X126028998Y-101895073D01*
X126650646Y-101902827D01*
X126650646Y-101756785D01*
X126548384Y-101759693D01*
X126448384Y-101763247D01*
X126349838Y-101767609D01*
X126251939Y-101772940D01*
X126153877Y-101779402D01*
X126054847Y-101787157D01*
X125954039Y-101795719D01*
X125850646Y-101804604D01*
X125850646Y-101936430D01*
X125919144Y-101959693D01*
X126007674Y-101988126D01*
X126105897Y-102020436D01*
X126204766Y-102052746D01*
X126111712Y-102082472D01*
X126012197Y-102113489D01*
X125920436Y-102142569D01*
X125850646Y-102165186D01*
X125850646Y-102297011D01*
X125724852Y-102297011D01*
X125724852Y-101403958D01*
X125832553Y-101403958D01*
X125844256Y-101487821D01*
X125879366Y-101558472D01*
X125937884Y-101615913D01*
X125996890Y-101649273D01*
X126068578Y-101673102D01*
X126152948Y-101687399D01*
X126250000Y-101692165D01*
X126347052Y-101687520D01*
X126431422Y-101673586D01*
X126503110Y-101650363D01*
X126562116Y-101617851D01*
X126620634Y-101560914D01*
X126655744Y-101489185D01*
X126667447Y-101402666D01*
X126655744Y-101318228D01*
X126620634Y-101247577D01*
X126562116Y-101190711D01*
X126503110Y-101157916D01*
X126431422Y-101134491D01*
X126347052Y-101120436D01*
X126250000Y-101115751D01*
X126152948Y-101120355D01*
X126068578Y-101134168D01*
X125996890Y-101157189D01*
X125937884Y-101189418D01*
X125879366Y-101245997D01*
X125844256Y-101317510D01*
X125832553Y-101403958D01*
X125724852Y-101403958D01*
X125724852Y-101048546D01*
X125850646Y-101048546D01*
X125982472Y-101048546D01*
X125982472Y-100837884D01*
X126650646Y-100837884D01*
X126650646Y-100677625D01*
X125982472Y-100677625D01*
X125982472Y-100466963D01*
X125850646Y-100466963D01*
X125850646Y-101048546D01*
X125724852Y-101048546D01*
X125724852Y-100111551D01*
X125832553Y-100111551D01*
X125844256Y-100195414D01*
X125879366Y-100266065D01*
X125937884Y-100323506D01*
X125996890Y-100356866D01*
X126068578Y-100380695D01*
X126152948Y-100394992D01*
X126250000Y-100399758D01*
X126347052Y-100395113D01*
X126431422Y-100381179D01*
X126503110Y-100357956D01*
X126562116Y-100325444D01*
X126620634Y-100268507D01*
X126655744Y-100196778D01*
X126667447Y-100110258D01*
X126655744Y-100025821D01*
X126620634Y-99955170D01*
X126562116Y-99898304D01*
X126503110Y-99865509D01*
X126431422Y-99842084D01*
X126347052Y-99828029D01*
X126250000Y-99823344D01*
X126152948Y-99827948D01*
X126068578Y-99841761D01*
X125996890Y-99864782D01*
X125937884Y-99897011D01*
X125879366Y-99953590D01*
X125844256Y-100025103D01*
X125832553Y-100111551D01*
X125724852Y-100111551D01*
X125724852Y-99511874D01*
X125841599Y-99511874D01*
X125842892Y-99557108D01*
X125846123Y-99611389D01*
X125852585Y-99667609D01*
X125862278Y-99718659D01*
X126650646Y-99718659D01*
X126650646Y-99559693D01*
X126355977Y-99559693D01*
X126355977Y-99476979D01*
X126429160Y-99433199D01*
X126501373Y-99392326D01*
X126574556Y-99355331D01*
X126650646Y-99323183D01*
X126650646Y-99156462D01*
X126565994Y-99193296D01*
X126476817Y-99237884D01*
X126391519Y-99285703D01*
X126317205Y-99332229D01*
X126280695Y-99275687D01*
X126230614Y-99237884D01*
X126170517Y-99216559D01*
X126103958Y-99209451D01*
X126041115Y-99214782D01*
X125986995Y-99230775D01*
X125904927Y-99292165D01*
X125876817Y-99336107D01*
X125857108Y-99387803D01*
X125845477Y-99446607D01*
X125841599Y-99511874D01*
X125724852Y-99511874D01*
X125724852Y-99156462D01*
X125724852Y-98887211D01*
X125734942Y-98784759D01*
X125764826Y-98686245D01*
X125813355Y-98595454D01*
X125878664Y-98515875D01*
X125958243Y-98450566D01*
X126049035Y-98402037D01*
X126147549Y-98372153D01*
X126250000Y-98362062D01*
X126352451Y-98372153D01*
X126450965Y-98402037D01*
X126541757Y-98450566D01*
X126621336Y-98515875D01*
X126686645Y-98595454D01*
X126735174Y-98686245D01*
X126765058Y-98784759D01*
X126775148Y-98887211D01*
X126775148Y-99156462D01*
X126775148Y-100110258D01*
G37*
D13*
%TO.C,C19*%
X183870000Y-88308080D02*
X183870000Y-88026920D01*
X184890000Y-88308080D02*
X184890000Y-88026920D01*
D16*
%TO.C,R24*%
X144615000Y-97464500D02*
X144615000Y-98785500D01*
X144615000Y-98785500D02*
X145574000Y-98785500D01*
X145574000Y-97464500D02*
X144615000Y-97464500D01*
X146426000Y-97464500D02*
X147385000Y-97464500D01*
X147385000Y-97464500D02*
X147385000Y-98785500D01*
X147385000Y-98785500D02*
X146426000Y-98785500D01*
D12*
%TO.C,kibuzzard-669E206F*%
G36*
X163535410Y-70856692D02*
G01*
X163587501Y-70944424D01*
X163554602Y-71029414D01*
X163504796Y-71060942D01*
X163456817Y-71062312D01*
X163412495Y-71041751D01*
X163371827Y-71007481D01*
X163344869Y-70978694D01*
X163321565Y-70949907D01*
X163475095Y-70796377D01*
X163535410Y-70856692D01*
G37*
G36*
X163725495Y-70595325D02*
G01*
X163752911Y-70620914D01*
X163780785Y-70653357D01*
X163797234Y-70688083D01*
X163795406Y-70724639D01*
X163769361Y-70763478D01*
X163695795Y-70793178D01*
X163612176Y-70747028D01*
X163568310Y-70703162D01*
X163698079Y-70573393D01*
X163725495Y-70595325D01*
G37*
G36*
X164231780Y-71086988D02*
G01*
X164262851Y-71149130D01*
X164247771Y-71218128D01*
X164197966Y-71293522D01*
X164163011Y-71333276D01*
X164123942Y-71373942D01*
X164083390Y-71412897D01*
X164043979Y-71447509D01*
X163968585Y-71497315D01*
X163898674Y-71512394D01*
X163836988Y-71481780D01*
X163805916Y-71419636D01*
X163820995Y-71350639D01*
X163870801Y-71275244D01*
X163905757Y-71235491D01*
X163944824Y-71194824D01*
X163985378Y-71155870D01*
X164024787Y-71121258D01*
X164100182Y-71071452D01*
X164169636Y-71055916D01*
X164231780Y-71086988D01*
G37*
G36*
X164688714Y-71543922D02*
G01*
X164719786Y-71606066D01*
X164704707Y-71675063D01*
X164654901Y-71750457D01*
X164619945Y-71790210D01*
X164580877Y-71830877D01*
X164540324Y-71869831D01*
X164500914Y-71904444D01*
X164425520Y-71954250D01*
X164355609Y-71969329D01*
X164293922Y-71938714D01*
X164262851Y-71876571D01*
X164277930Y-71807573D01*
X164327736Y-71732179D01*
X164362691Y-71692426D01*
X164401759Y-71651759D01*
X164442312Y-71612805D01*
X164481723Y-71578193D01*
X164557117Y-71528386D01*
X164626571Y-71512851D01*
X164688714Y-71543922D01*
G37*
G36*
X165604412Y-72455964D02*
G01*
X165632742Y-72509654D01*
X165624517Y-72577509D01*
X165599030Y-72629905D01*
X165557906Y-72687173D01*
X165501144Y-72749317D01*
X165438493Y-72806586D01*
X165380920Y-72848015D01*
X165328423Y-72873603D01*
X165260568Y-72881828D01*
X165208075Y-72854130D01*
X165206878Y-72853497D01*
X165179119Y-72800379D01*
X165187230Y-72732410D01*
X165212565Y-72679659D01*
X165233004Y-72651075D01*
X165336191Y-72651075D01*
X165355840Y-72706365D01*
X165409758Y-72724642D01*
X165466417Y-72696313D01*
X165495205Y-72639195D01*
X165477384Y-72584820D01*
X165421638Y-72565629D01*
X165364978Y-72594873D01*
X165336191Y-72651075D01*
X165233004Y-72651075D01*
X165253841Y-72621933D01*
X165311059Y-72559232D01*
X165373254Y-72502521D01*
X165430675Y-72461550D01*
X165483324Y-72436316D01*
X165551293Y-72428205D01*
X165604412Y-72455964D01*
G37*
G36*
X163769665Y-70276994D02*
G01*
X165973006Y-72480335D01*
X166087240Y-72594568D01*
X166310041Y-72817370D01*
X165344568Y-73337240D01*
X165230335Y-73223006D01*
X165033852Y-73026524D01*
X164817569Y-72810241D01*
X165034868Y-72810241D01*
X165059238Y-72883351D01*
X165110008Y-72950368D01*
X165177026Y-73001138D01*
X165250135Y-73025508D01*
X165329337Y-73023477D01*
X165392679Y-73004115D01*
X165459335Y-72968874D01*
X165529303Y-72917754D01*
X165602584Y-72850757D01*
X165669154Y-72777903D01*
X165719902Y-72708306D01*
X165754829Y-72641966D01*
X165773934Y-72578880D01*
X165775711Y-72499932D01*
X165751189Y-72426975D01*
X165700368Y-72360008D01*
X165634264Y-72310152D01*
X165561460Y-72286087D01*
X165481954Y-72287813D01*
X165418325Y-72306661D01*
X165351726Y-72341273D01*
X165282158Y-72391651D01*
X165209620Y-72457793D01*
X165142621Y-72531073D01*
X165091502Y-72601041D01*
X165056261Y-72667697D01*
X165036898Y-72731039D01*
X165034868Y-72810241D01*
X164817569Y-72810241D01*
X164633577Y-72626249D01*
X164432220Y-72424892D01*
X164608293Y-72424892D01*
X164721614Y-72538213D01*
X165194084Y-72065742D01*
X165343045Y-72214703D01*
X165436260Y-72121488D01*
X165025018Y-71710246D01*
X164931803Y-71803462D01*
X165080764Y-71952422D01*
X164608293Y-72424892D01*
X164432220Y-72424892D01*
X164120897Y-72113568D01*
X163899740Y-71892411D01*
X164118256Y-71892411D01*
X164144149Y-71967958D01*
X164197053Y-72037412D01*
X164265034Y-72088843D01*
X164339818Y-72113974D01*
X164421407Y-72112806D01*
X164486320Y-72094272D01*
X164553575Y-72060145D01*
X164623172Y-72010425D01*
X164695111Y-71945111D01*
X164760482Y-71873230D01*
X164810373Y-71803804D01*
X164844786Y-71736834D01*
X164863720Y-71672321D01*
X164865091Y-71590936D01*
X164839350Y-71515542D01*
X164786498Y-71446139D01*
X164718922Y-71395114D01*
X164644138Y-71369982D01*
X164562143Y-71370744D01*
X164496830Y-71388878D01*
X164429289Y-71422720D01*
X164359521Y-71472269D01*
X164287525Y-71537525D01*
X164222183Y-71609436D01*
X164172378Y-71678947D01*
X164138108Y-71746059D01*
X164119374Y-71810772D01*
X164118256Y-71892411D01*
X163899740Y-71892411D01*
X163663961Y-71656633D01*
X163442805Y-71435477D01*
X163661321Y-71435477D01*
X163687215Y-71511023D01*
X163740118Y-71580477D01*
X163808099Y-71631908D01*
X163882884Y-71657039D01*
X163964473Y-71655871D01*
X164029386Y-71637337D01*
X164096640Y-71603210D01*
X164166237Y-71553489D01*
X164238176Y-71488176D01*
X164303547Y-71416294D01*
X164353439Y-71346869D01*
X164387851Y-71279900D01*
X164406785Y-71215386D01*
X164408156Y-71134000D01*
X164382415Y-71058607D01*
X164329563Y-70989204D01*
X164261988Y-70938179D01*
X164187203Y-70913047D01*
X164105208Y-70913809D01*
X164039896Y-70931944D01*
X163972355Y-70965785D01*
X163902587Y-71015334D01*
X163830590Y-71080590D01*
X163765248Y-71152500D01*
X163715442Y-71222012D01*
X163681172Y-71289124D01*
X163662438Y-71353837D01*
X163661321Y-71435477D01*
X163442805Y-71435477D01*
X163184180Y-71176851D01*
X163026994Y-71019665D01*
X162929819Y-70922491D01*
X163124169Y-70922491D01*
X163156497Y-70969213D01*
X163191338Y-71014335D01*
X163227778Y-71056944D01*
X163264905Y-71096126D01*
X163312198Y-71139078D01*
X163360861Y-71174719D01*
X163410439Y-71200992D01*
X163460472Y-71215843D01*
X163562369Y-71208075D01*
X163613889Y-71182601D01*
X163665180Y-71139992D01*
X163698422Y-71096469D01*
X163719555Y-71044493D01*
X163721726Y-70982692D01*
X163698079Y-70909696D01*
X163799976Y-70912895D01*
X163848068Y-70894276D01*
X163890905Y-70861262D01*
X163935686Y-70800032D01*
X163952592Y-70720983D01*
X163924262Y-70623198D01*
X163888050Y-70567109D01*
X163833332Y-70505766D01*
X163753369Y-70434028D01*
X163673405Y-70373255D01*
X163124169Y-70922491D01*
X162929819Y-70922491D01*
X162912760Y-70905432D01*
X162689959Y-70682630D01*
X163655432Y-70162760D01*
X163769665Y-70276994D01*
G37*
%TO.C,kibuzzard-669BBA84*%
G36*
X146845477Y-89366236D02*
G01*
X146881664Y-89395315D01*
X146902342Y-89436026D01*
X146908805Y-89483199D01*
X146665832Y-89483199D01*
X146676817Y-89435380D01*
X146700081Y-89394023D01*
X146737561Y-89365590D01*
X146791195Y-89355250D01*
X146845477Y-89366236D01*
G37*
G36*
X139715267Y-89196931D02*
G01*
X139768255Y-89257027D01*
X139795396Y-89343619D01*
X139803150Y-89444426D01*
X139800727Y-89501454D01*
X139793457Y-89553635D01*
X139761147Y-89639580D01*
X139701696Y-89696446D01*
X139610582Y-89717124D01*
X139596365Y-89717124D01*
X139582149Y-89715832D01*
X139582149Y-89178191D01*
X139605412Y-89174960D01*
X139628675Y-89174313D01*
X139715267Y-89196931D01*
G37*
G36*
X140388611Y-89187237D02*
G01*
X140426737Y-89246688D01*
X140444830Y-89335218D01*
X140448223Y-89388045D01*
X140449354Y-89444426D01*
X140448223Y-89500646D01*
X140444830Y-89552989D01*
X140426737Y-89641519D01*
X140387964Y-89701616D01*
X140322698Y-89723586D01*
X140256785Y-89701616D01*
X140218659Y-89642165D01*
X140200565Y-89553635D01*
X140197173Y-89500808D01*
X140196042Y-89444426D01*
X140197173Y-89388207D01*
X140200565Y-89335864D01*
X140218659Y-89247334D01*
X140256785Y-89187237D01*
X140322698Y-89165267D01*
X140388611Y-89187237D01*
G37*
G36*
X148414315Y-89500000D02*
G01*
X147970302Y-90166020D01*
X147701050Y-90166020D01*
X147383118Y-90166020D01*
X146835137Y-90166020D01*
X145896850Y-90166020D01*
X145577625Y-90166020D01*
X144939176Y-90166020D01*
X144308481Y-90166020D01*
X143646769Y-90166020D01*
X142884249Y-90166020D01*
X141518174Y-90166020D01*
X140323990Y-90166020D01*
X139593780Y-90166020D01*
X139301696Y-90166020D01*
X138798950Y-90166020D01*
X138529698Y-90166020D01*
X138457898Y-90058320D01*
X141352746Y-90058320D01*
X141518174Y-90058320D01*
X141600927Y-89801131D01*
X142636107Y-89801131D01*
X142725283Y-89840549D01*
X142794750Y-89856543D01*
X142884249Y-89861874D01*
X142974933Y-89855053D01*
X143048815Y-89834590D01*
X143105897Y-89800485D01*
X143160662Y-89726333D01*
X143178918Y-89626656D01*
X143173425Y-89566397D01*
X143156947Y-89517447D01*
X143100727Y-89445073D01*
X143025767Y-89398546D01*
X142947577Y-89366882D01*
X142897819Y-89347496D01*
X142852585Y-89323586D01*
X142819628Y-89292569D01*
X142806704Y-89251858D01*
X142810629Y-89237641D01*
X143244830Y-89237641D01*
X143252908Y-89324556D01*
X143261632Y-89409532D01*
X143271325Y-89492084D01*
X143282310Y-89571729D01*
X143294426Y-89647658D01*
X143307512Y-89719063D01*
X143321567Y-89785137D01*
X143336591Y-89845073D01*
X143456785Y-89845073D01*
X143485218Y-89770113D01*
X143507835Y-89704200D01*
X143529160Y-89638934D01*
X143552423Y-89564620D01*
X143575040Y-89640226D01*
X143597011Y-89706139D01*
X143620275Y-89771405D01*
X143646769Y-89845073D01*
X143766963Y-89845073D01*
X143786995Y-89762359D01*
X143805735Y-89671029D01*
X143823183Y-89571082D01*
X143835097Y-89491599D01*
X143845638Y-89409532D01*
X143849977Y-89369467D01*
X143923344Y-89369467D01*
X144091357Y-89369467D01*
X144091357Y-89593053D01*
X144093942Y-89652827D01*
X144101696Y-89705493D01*
X144137237Y-89788853D01*
X144204443Y-89841195D01*
X144251454Y-89854766D01*
X144308481Y-89859289D01*
X144387964Y-89850889D01*
X144480372Y-89819225D01*
X144459693Y-89691276D01*
X144389903Y-89715186D01*
X144336914Y-89721002D01*
X144270355Y-89694507D01*
X144250323Y-89613732D01*
X144250323Y-89369467D01*
X144569548Y-89369467D01*
X144707835Y-89369467D01*
X144707835Y-89618901D01*
X144711712Y-89687884D01*
X144723344Y-89742326D01*
X144768578Y-89815347D01*
X144840953Y-89850242D01*
X144939176Y-89859289D01*
X145038045Y-89851535D01*
X145133037Y-89825687D01*
X145111066Y-89688691D01*
X145070355Y-89705493D01*
X145034168Y-89715186D01*
X144997981Y-89719709D01*
X144957270Y-89721002D01*
X144919790Y-89717124D01*
X144891357Y-89701616D01*
X144873263Y-89669305D01*
X144866801Y-89615024D01*
X144866801Y-89541357D01*
X145226090Y-89541357D01*
X145231099Y-89606300D01*
X145246123Y-89666721D01*
X145271809Y-89721002D01*
X145308805Y-89767528D01*
X145357431Y-89805654D01*
X145418013Y-89834733D01*
X145491195Y-89853150D01*
X145577625Y-89859289D01*
X145638045Y-89857189D01*
X145690065Y-89850889D01*
X145712271Y-89845073D01*
X145896850Y-89845073D01*
X146055816Y-89845073D01*
X146055816Y-89377221D01*
X146090065Y-89368174D01*
X146133360Y-89363005D01*
X146207027Y-89400485D01*
X146221567Y-89449919D01*
X146226414Y-89523263D01*
X146226414Y-89845073D01*
X146385380Y-89845073D01*
X146385380Y-89546527D01*
X146501696Y-89546527D01*
X146507512Y-89619225D01*
X146524960Y-89682229D01*
X146553231Y-89735703D01*
X146591519Y-89779806D01*
X146639338Y-89814378D01*
X146696204Y-89839257D01*
X146761632Y-89854281D01*
X146835137Y-89859289D01*
X146939822Y-89849596D01*
X146956448Y-89845073D01*
X147222859Y-89845073D01*
X147383118Y-89845073D01*
X147383118Y-89394023D01*
X147449031Y-89381745D01*
X147514943Y-89378514D01*
X147549838Y-89379806D01*
X147592488Y-89384330D01*
X147635784Y-89391438D01*
X147672617Y-89399192D01*
X147701050Y-89251858D01*
X147651292Y-89239580D01*
X147596365Y-89231826D01*
X147545315Y-89227302D01*
X147508481Y-89226010D01*
X147424960Y-89229564D01*
X147352746Y-89240226D01*
X147286995Y-89256704D01*
X147222859Y-89277706D01*
X147222859Y-89845073D01*
X146956448Y-89845073D01*
X147027706Y-89825687D01*
X147005735Y-89689984D01*
X146932714Y-89710662D01*
X146841599Y-89721002D01*
X146771163Y-89712439D01*
X146714943Y-89686753D01*
X146678110Y-89646204D01*
X146665832Y-89593053D01*
X147060016Y-89593053D01*
X147061955Y-89565913D01*
X147062601Y-89533603D01*
X147054847Y-89440047D01*
X147031583Y-89362718D01*
X146992811Y-89301616D01*
X146939104Y-89257458D01*
X146871038Y-89230964D01*
X146788611Y-89222132D01*
X146734976Y-89227302D01*
X146682633Y-89242811D01*
X146633845Y-89268498D01*
X146590872Y-89304200D01*
X146554685Y-89349919D01*
X146526252Y-89405654D01*
X146507835Y-89471244D01*
X146501696Y-89546527D01*
X146385380Y-89546527D01*
X146385380Y-89502585D01*
X146382472Y-89443296D01*
X146373748Y-89389499D01*
X146334976Y-89301616D01*
X146262601Y-89244750D01*
X146211874Y-89229725D01*
X146150162Y-89224717D01*
X146102342Y-89230533D01*
X146055816Y-89242811D01*
X146055816Y-88948142D01*
X145896850Y-88975283D01*
X145896850Y-89845073D01*
X145712271Y-89845073D01*
X145771486Y-89829564D01*
X145748223Y-89699031D01*
X145673910Y-89715832D01*
X145595719Y-89721002D01*
X145498627Y-89709047D01*
X145434814Y-89673183D01*
X145399435Y-89616317D01*
X145387641Y-89541357D01*
X145397981Y-89468982D01*
X145431583Y-89411470D01*
X145492973Y-89373990D01*
X145587964Y-89360420D01*
X145668740Y-89367528D01*
X145726252Y-89383683D01*
X145761147Y-89255735D01*
X145671971Y-89229887D01*
X145573748Y-89222132D01*
X145489580Y-89228433D01*
X145418013Y-89247334D01*
X145358401Y-89277060D01*
X145310097Y-89315832D01*
X145272940Y-89362843D01*
X145246769Y-89417286D01*
X145231260Y-89477383D01*
X145226090Y-89541357D01*
X144866801Y-89541357D01*
X144866801Y-89369467D01*
X145121405Y-89369467D01*
X145121405Y-89237641D01*
X144866801Y-89237641D01*
X144866801Y-89059289D01*
X144707835Y-89085137D01*
X144707835Y-89237641D01*
X144569548Y-89237641D01*
X144569548Y-89369467D01*
X144250323Y-89369467D01*
X144250323Y-89237641D01*
X144143053Y-89237641D01*
X143923344Y-89237641D01*
X143923344Y-89369467D01*
X143849977Y-89369467D01*
X143854806Y-89324879D01*
X143862601Y-89237641D01*
X143726898Y-89237641D01*
X143724475Y-89294669D01*
X143722375Y-89349435D01*
X143717205Y-89456704D01*
X143713489Y-89510501D01*
X143708805Y-89564620D01*
X143702989Y-89620194D01*
X143695880Y-89678352D01*
X143669386Y-89587237D01*
X143648708Y-89507108D01*
X143630614Y-89433441D01*
X143614459Y-89360420D01*
X143499435Y-89360420D01*
X143481987Y-89433441D01*
X143463893Y-89507108D01*
X143441922Y-89587237D01*
X143412843Y-89678352D01*
X143403581Y-89603249D01*
X143396473Y-89529582D01*
X143391519Y-89457351D01*
X143387713Y-89385263D01*
X143384051Y-89312027D01*
X143380533Y-89237641D01*
X143244830Y-89237641D01*
X142810629Y-89237641D01*
X142820777Y-89200880D01*
X142862996Y-89170293D01*
X142933360Y-89160097D01*
X143024475Y-89173021D01*
X143096204Y-89204039D01*
X143142730Y-89081260D01*
X143098119Y-89063166D01*
X144043538Y-89063166D01*
X144072617Y-89136834D01*
X144143053Y-89163974D01*
X144214136Y-89136834D01*
X144243861Y-89063166D01*
X144214136Y-88988207D01*
X144143053Y-88961066D01*
X144072617Y-88988207D01*
X144043538Y-89063166D01*
X143098119Y-89063166D01*
X143050323Y-89043780D01*
X142990711Y-89031179D01*
X142921729Y-89026979D01*
X142842533Y-89034015D01*
X142775543Y-89055125D01*
X142720759Y-89090307D01*
X142665994Y-89165913D01*
X142647738Y-89266074D01*
X142668417Y-89361066D01*
X142720759Y-89425040D01*
X142791195Y-89467690D01*
X142866155Y-89497415D01*
X142920436Y-89520032D01*
X142969548Y-89547173D01*
X143005735Y-89581422D01*
X143019952Y-89625363D01*
X143014136Y-89663489D01*
X142992811Y-89697092D01*
X142950808Y-89720355D01*
X142884249Y-89728756D01*
X142819790Y-89724233D01*
X142765994Y-89710662D01*
X142682633Y-89671890D01*
X142636107Y-89801131D01*
X141600927Y-89801131D01*
X141877464Y-88941680D01*
X141714620Y-88941680D01*
X141352746Y-90058320D01*
X138457898Y-90058320D01*
X138085685Y-89500000D01*
X138388969Y-89045073D01*
X138798950Y-89045073D01*
X138798950Y-89845073D01*
X139301696Y-89845073D01*
X139301696Y-89836026D01*
X139423183Y-89836026D01*
X139510420Y-89850889D01*
X139593780Y-89855412D01*
X139671809Y-89849758D01*
X139743053Y-89832795D01*
X139806220Y-89803554D01*
X139860016Y-89761066D01*
X139903796Y-89704685D01*
X139936914Y-89633764D01*
X139957754Y-89547334D01*
X139964701Y-89444426D01*
X140034491Y-89444426D01*
X140039136Y-89541478D01*
X140053069Y-89625848D01*
X140076292Y-89697536D01*
X140108805Y-89756543D01*
X140165742Y-89815060D01*
X140237471Y-89850171D01*
X140323990Y-89861874D01*
X140408428Y-89850171D01*
X140479079Y-89815060D01*
X140535945Y-89756543D01*
X140568740Y-89697536D01*
X140592165Y-89625848D01*
X140606220Y-89541478D01*
X140610905Y-89444426D01*
X140606300Y-89347375D01*
X140592488Y-89263005D01*
X140569467Y-89191317D01*
X140537237Y-89132310D01*
X140480659Y-89073793D01*
X140409146Y-89038682D01*
X140322698Y-89026979D01*
X140238835Y-89038682D01*
X140168183Y-89073793D01*
X140110743Y-89132310D01*
X140077383Y-89191317D01*
X140053554Y-89263005D01*
X140039257Y-89347375D01*
X140034491Y-89444426D01*
X139964701Y-89444426D01*
X139958401Y-89343780D01*
X139939499Y-89258966D01*
X139909289Y-89188853D01*
X139869063Y-89132310D01*
X139818821Y-89089176D01*
X139758562Y-89059289D01*
X139689903Y-89041842D01*
X139614459Y-89036026D01*
X139525283Y-89039903D01*
X139423183Y-89055412D01*
X139423183Y-89836026D01*
X139301696Y-89836026D01*
X139301696Y-89713247D01*
X138959208Y-89713247D01*
X138959208Y-89045073D01*
X138798950Y-89045073D01*
X138388969Y-89045073D01*
X138529698Y-88833980D01*
X138798950Y-88833980D01*
X147701050Y-88833980D01*
X147970302Y-88833980D01*
X148414315Y-89500000D01*
G37*
D19*
%TO.C,IC11*%
X137425000Y-100232500D02*
X137425000Y-100150000D01*
X137425000Y-102350000D02*
X137425000Y-102267500D01*
X138825000Y-100150000D02*
X137425000Y-100150000D01*
X138825000Y-100232500D02*
X138825000Y-100150000D01*
X138825000Y-102350000D02*
X137425000Y-102350000D01*
X138825000Y-102350000D02*
X138825000Y-102267500D01*
D14*
X139268000Y-102520000D02*
G75*
G02*
X139014000Y-102520000I-127000J0D01*
G01*
X139014000Y-102520000D02*
G75*
G02*
X139268000Y-102520000I127000J0D01*
G01*
D16*
%TO.C,IC6*%
X128581500Y-41174000D02*
X128581500Y-41419500D01*
X128581500Y-44826000D02*
X128581500Y-44580500D01*
X129327000Y-41174000D02*
X128581500Y-41174000D01*
X129327000Y-44826000D02*
X128581500Y-44826000D01*
X130488000Y-41174000D02*
X131233500Y-41174000D01*
X130488000Y-44826000D02*
X131233500Y-44826000D01*
X131233500Y-41174000D02*
X131233500Y-41419500D01*
X131233500Y-44826000D02*
X131233500Y-44580500D01*
D17*
X129347500Y-40714000D02*
G75*
G02*
X129197500Y-40714000I-75000J0D01*
G01*
X129197500Y-40714000D02*
G75*
G02*
X129347500Y-40714000I75000J0D01*
G01*
D15*
%TO.C,L1*%
X165610000Y-81230000D02*
X165610000Y-86720000D01*
X170790000Y-86720000D02*
X170790000Y-81230000D01*
D12*
%TO.C,kibuzzard-669AC481*%
G36*
X195515994Y-99480775D02*
G01*
X195517286Y-99516963D01*
X195504362Y-99574960D01*
X195465590Y-99614540D01*
X195406462Y-99637318D01*
X195332472Y-99644911D01*
X195257189Y-99638449D01*
X195201939Y-99619063D01*
X195168013Y-99585460D01*
X195156704Y-99536349D01*
X195163813Y-99487237D01*
X195181260Y-99445880D01*
X195512116Y-99445880D01*
X195515994Y-99480775D01*
G37*
G36*
X195410016Y-100049596D02*
G01*
X195468174Y-100073344D01*
X195505977Y-100112601D01*
X195518578Y-100167044D01*
X195505977Y-100222779D01*
X195468174Y-100260743D01*
X195410016Y-100282553D01*
X195336349Y-100289822D01*
X195262843Y-100281906D01*
X195205170Y-100258158D01*
X195167851Y-100218901D01*
X195155412Y-100164459D01*
X195167851Y-100108724D01*
X195205170Y-100070759D01*
X195262843Y-100048950D01*
X195336349Y-100041680D01*
X195410016Y-100049596D01*
G37*
G36*
X195410016Y-100695800D02*
G01*
X195468174Y-100719548D01*
X195505977Y-100758805D01*
X195518578Y-100813247D01*
X195505977Y-100868982D01*
X195468174Y-100906947D01*
X195410016Y-100928756D01*
X195336349Y-100936026D01*
X195262843Y-100928110D01*
X195205170Y-100904362D01*
X195167851Y-100865105D01*
X195155412Y-100810662D01*
X195167851Y-100754927D01*
X195205170Y-100716963D01*
X195262843Y-100695153D01*
X195336349Y-100687884D01*
X195410016Y-100695800D01*
G37*
G36*
X195764567Y-100164459D02*
G01*
X195764567Y-100810662D01*
X195764567Y-101419386D01*
X195764567Y-102798384D01*
X195764567Y-103479483D01*
X195764567Y-104090792D01*
X195764567Y-104313086D01*
X195764567Y-104582337D01*
X195200000Y-104958715D01*
X194635433Y-104582337D01*
X194635433Y-104313086D01*
X194635433Y-104076575D01*
X194821971Y-104076575D01*
X194827948Y-104145234D01*
X194845880Y-104206462D01*
X194893053Y-104298869D01*
X195009370Y-104242003D01*
X194972536Y-104165105D01*
X194957674Y-104075283D01*
X194982876Y-104002262D01*
X195052019Y-103975767D01*
X195101131Y-103988045D01*
X195132149Y-104019709D01*
X195148950Y-104063651D01*
X195154120Y-104112763D01*
X195154120Y-104172213D01*
X195285945Y-104172213D01*
X195285945Y-104123102D01*
X195292246Y-104052342D01*
X195311147Y-103995153D01*
X195345880Y-103957351D01*
X195399677Y-103944750D01*
X195486268Y-103977706D01*
X195512439Y-104022779D01*
X195521163Y-104092084D01*
X195517609Y-104153312D01*
X195506947Y-104205170D01*
X195479806Y-104282068D01*
X195612924Y-104313086D01*
X195627141Y-104273021D01*
X195641357Y-104216801D01*
X195652342Y-104153473D01*
X195656866Y-104090792D01*
X195652181Y-104016155D01*
X195638126Y-103952504D01*
X195615509Y-103899515D01*
X195585137Y-103856866D01*
X195504362Y-103801292D01*
X195402262Y-103783199D01*
X195337318Y-103791761D01*
X195282068Y-103817447D01*
X195237803Y-103858643D01*
X195205816Y-103913732D01*
X195138611Y-103841357D01*
X195046850Y-103814216D01*
X194957674Y-103829725D01*
X194885945Y-103877544D01*
X194838772Y-103959612D01*
X194826171Y-104013732D01*
X194821971Y-104076575D01*
X194635433Y-104076575D01*
X194635433Y-103703069D01*
X194840065Y-103703069D01*
X194912439Y-103688207D01*
X195002908Y-103666882D01*
X195070616Y-103649794D01*
X195141052Y-103631269D01*
X195214216Y-103611309D01*
X195288817Y-103590199D01*
X195363561Y-103568228D01*
X195438449Y-103545396D01*
X195545073Y-103511470D01*
X195640065Y-103479483D01*
X195640065Y-103315347D01*
X195571208Y-103290648D01*
X195500772Y-103266523D01*
X195428756Y-103242973D01*
X195356381Y-103220355D01*
X195284868Y-103199031D01*
X195214216Y-103178998D01*
X195111309Y-103151535D01*
X195013247Y-103127302D01*
X194922132Y-103106462D01*
X194840065Y-103089176D01*
X194840065Y-103255897D01*
X194907270Y-103267528D01*
X194984814Y-103281745D01*
X195068659Y-103297900D01*
X195154766Y-103315347D01*
X195241357Y-103334087D01*
X195326656Y-103354120D01*
X195406624Y-103374798D01*
X195477221Y-103395477D01*
X195405654Y-103416317D01*
X195325363Y-103437480D01*
X195240065Y-103458158D01*
X195153473Y-103477544D01*
X195067528Y-103495477D01*
X194984168Y-103511793D01*
X194907108Y-103525363D01*
X194840065Y-103535057D01*
X194840065Y-103703069D01*
X194635433Y-103703069D01*
X194635433Y-102784168D01*
X194821971Y-102784168D01*
X194827948Y-102852827D01*
X194845880Y-102914055D01*
X194893053Y-103006462D01*
X195009370Y-102949596D01*
X194972536Y-102872698D01*
X194957674Y-102782876D01*
X194982876Y-102709855D01*
X195052019Y-102683360D01*
X195101131Y-102695638D01*
X195132149Y-102727302D01*
X195148950Y-102771244D01*
X195154120Y-102820355D01*
X195154120Y-102879806D01*
X195285945Y-102879806D01*
X195285945Y-102830695D01*
X195292246Y-102759935D01*
X195311147Y-102702746D01*
X195345880Y-102664943D01*
X195399677Y-102652342D01*
X195486268Y-102685299D01*
X195512439Y-102730372D01*
X195521163Y-102799677D01*
X195517609Y-102860905D01*
X195506947Y-102912763D01*
X195479806Y-102989661D01*
X195612924Y-103020679D01*
X195627141Y-102980614D01*
X195641357Y-102924394D01*
X195652342Y-102861066D01*
X195656866Y-102798384D01*
X195652181Y-102723748D01*
X195638126Y-102660097D01*
X195615509Y-102607108D01*
X195585137Y-102564459D01*
X195504362Y-102508885D01*
X195402262Y-102490792D01*
X195337318Y-102499354D01*
X195282068Y-102525040D01*
X195237803Y-102566236D01*
X195205816Y-102621325D01*
X195138611Y-102548950D01*
X195046850Y-102521809D01*
X194957674Y-102537318D01*
X194885945Y-102585137D01*
X194838772Y-102667205D01*
X194826171Y-102721325D01*
X194821971Y-102784168D01*
X194635433Y-102784168D01*
X194635433Y-101400000D01*
X194821971Y-101400000D01*
X194828595Y-101470113D01*
X194848465Y-101535703D01*
X194881583Y-101594830D01*
X194927948Y-101645557D01*
X194987237Y-101687237D01*
X195059128Y-101719225D01*
X195143296Y-101739580D01*
X195239418Y-101746365D01*
X195336511Y-101740549D01*
X195421002Y-101723102D01*
X195492730Y-101694992D01*
X195551535Y-101657189D01*
X195597415Y-101610178D01*
X195630372Y-101554443D01*
X195650242Y-101490630D01*
X195656866Y-101419386D01*
X195653635Y-101340388D01*
X195643942Y-101273990D01*
X195620679Y-101185460D01*
X195221325Y-101185460D01*
X195221325Y-101344426D01*
X195513409Y-101344426D01*
X195517286Y-101375444D01*
X195518578Y-101406462D01*
X195501616Y-101483683D01*
X195450727Y-101539580D01*
X195397092Y-101564710D01*
X195326656Y-101579788D01*
X195239418Y-101584814D01*
X195180129Y-101582068D01*
X195126333Y-101573829D01*
X195038449Y-101537641D01*
X194980937Y-101473667D01*
X194960258Y-101378029D01*
X194974475Y-101292730D01*
X195006785Y-101222940D01*
X194880129Y-101181583D01*
X194864620Y-101208078D01*
X194845234Y-101252666D01*
X194829079Y-101316640D01*
X194821971Y-101400000D01*
X194635433Y-101400000D01*
X194635433Y-100810662D01*
X195017124Y-100810662D01*
X195022779Y-100870436D01*
X195039742Y-100925687D01*
X195067205Y-100974960D01*
X195104362Y-101016801D01*
X195150565Y-101050727D01*
X195205170Y-101076252D01*
X195267044Y-101092246D01*
X195335057Y-101097577D01*
X195404039Y-101092407D01*
X195466236Y-101076898D01*
X195521002Y-101051858D01*
X195567690Y-101018094D01*
X195605493Y-100976414D01*
X195633603Y-100927625D01*
X195651050Y-100872213D01*
X195656866Y-100810662D01*
X195651050Y-100749111D01*
X195633603Y-100693700D01*
X195605493Y-100645073D01*
X195567690Y-100603877D01*
X195521002Y-100570598D01*
X195466236Y-100545719D01*
X195404039Y-100530210D01*
X195335057Y-100525040D01*
X195267044Y-100530210D01*
X195205170Y-100545719D01*
X195150565Y-100570759D01*
X195104362Y-100604523D01*
X195067205Y-100646204D01*
X195039742Y-100694992D01*
X195022779Y-100750081D01*
X195017124Y-100810662D01*
X194635433Y-100810662D01*
X194635433Y-100164459D01*
X195017124Y-100164459D01*
X195022779Y-100224233D01*
X195039742Y-100279483D01*
X195067205Y-100328756D01*
X195104362Y-100370598D01*
X195150565Y-100404523D01*
X195205170Y-100430048D01*
X195267044Y-100446042D01*
X195335057Y-100451373D01*
X195404039Y-100446204D01*
X195466236Y-100430695D01*
X195521002Y-100405654D01*
X195567690Y-100371890D01*
X195605493Y-100330210D01*
X195633603Y-100281422D01*
X195651050Y-100226010D01*
X195656866Y-100164459D01*
X195651050Y-100102908D01*
X195633603Y-100047496D01*
X195605493Y-99998869D01*
X195567690Y-99957674D01*
X195521002Y-99924394D01*
X195466236Y-99899515D01*
X195404039Y-99884006D01*
X195335057Y-99878837D01*
X195267044Y-99884006D01*
X195205170Y-99899515D01*
X195150565Y-99924556D01*
X195104362Y-99958320D01*
X195067205Y-100000000D01*
X195039742Y-100048788D01*
X195022779Y-100103877D01*
X195017124Y-100164459D01*
X194635433Y-100164459D01*
X194635433Y-99286914D01*
X194743134Y-99286914D01*
X194770275Y-99445880D01*
X195046850Y-99445880D01*
X195026817Y-99500162D01*
X195019709Y-99563489D01*
X195029259Y-99637085D01*
X195057907Y-99697613D01*
X195105654Y-99745073D01*
X195169916Y-99779178D01*
X195248106Y-99799641D01*
X195340226Y-99806462D01*
X195430695Y-99798349D01*
X195507377Y-99774008D01*
X195570275Y-99733441D01*
X195616945Y-99677078D01*
X195644947Y-99605349D01*
X195654281Y-99518255D01*
X195652019Y-99456866D01*
X195645234Y-99394184D01*
X195634895Y-99335703D01*
X195621971Y-99286914D01*
X194743134Y-99286914D01*
X194635433Y-99286914D01*
X194635433Y-99017663D01*
X195200000Y-98641285D01*
X195764567Y-99017663D01*
X195764567Y-99286914D01*
X195764567Y-99518255D01*
X195764567Y-100164459D01*
G37*
D19*
%TO.C,IC12*%
X145300000Y-99400000D02*
X145300000Y-99482500D01*
X145300000Y-99400000D02*
X146700000Y-99400000D01*
X145300000Y-101517500D02*
X145300000Y-101600000D01*
X145300000Y-101600000D02*
X146700000Y-101600000D01*
X146700000Y-99400000D02*
X146700000Y-99482500D01*
X146700000Y-101517500D02*
X146700000Y-101600000D01*
D14*
X145111000Y-99230000D02*
G75*
G02*
X144857000Y-99230000I-127000J0D01*
G01*
X144857000Y-99230000D02*
G75*
G02*
X145111000Y-99230000I127000J0D01*
G01*
%TO.C,H1*%
X139480000Y-85980000D02*
X139480000Y-88520000D01*
X139480000Y-85980000D02*
X147520000Y-85980000D01*
X139480000Y-88520000D02*
X147520000Y-88520000D01*
X142253500Y-85980000D02*
X142253500Y-88520000D01*
X147520000Y-85980000D02*
X147520000Y-88520000D01*
D13*
%TO.C,C16*%
X189120000Y-85026920D02*
X189120000Y-85308080D01*
X190140000Y-85026920D02*
X190140000Y-85308080D01*
%TO.C,R13*%
X133512742Y-76977500D02*
X133987258Y-76977500D01*
X133512742Y-78022500D02*
X133987258Y-78022500D01*
D16*
%TO.C,IC7*%
X145674000Y-47097000D02*
X145674000Y-47342500D01*
X145674000Y-50749000D02*
X145674000Y-50503500D01*
X146419500Y-47097000D02*
X145674000Y-47097000D01*
X146419500Y-50749000D02*
X145674000Y-50749000D01*
X147580500Y-47097000D02*
X148326000Y-47097000D01*
X147580500Y-50749000D02*
X148326000Y-50749000D01*
X148326000Y-47097000D02*
X148326000Y-47342500D01*
X148326000Y-50749000D02*
X148326000Y-50503500D01*
D17*
X146440000Y-46637000D02*
G75*
G02*
X146290000Y-46637000I-75000J0D01*
G01*
X146290000Y-46637000D02*
G75*
G02*
X146440000Y-46637000I75000J0D01*
G01*
D13*
%TO.C,C18*%
X171715000Y-88638748D02*
X171715000Y-89161252D01*
X173185000Y-88638748D02*
X173185000Y-89161252D01*
D12*
%TO.C,kibuzzard-669E2084*%
G36*
X128276817Y-66211228D02*
G01*
X128313005Y-66240307D01*
X128333683Y-66281018D01*
X128340145Y-66328191D01*
X128097173Y-66328191D01*
X128108158Y-66280372D01*
X128131422Y-66239015D01*
X128168901Y-66210582D01*
X128222536Y-66200242D01*
X128276817Y-66211228D01*
G37*
G36*
X127602181Y-66213813D02*
G01*
X127643538Y-66231260D01*
X127643538Y-66562116D01*
X127608643Y-66565994D01*
X127572456Y-66567286D01*
X127514459Y-66554362D01*
X127474879Y-66515590D01*
X127452100Y-66456462D01*
X127444507Y-66382472D01*
X127450969Y-66307189D01*
X127470355Y-66251939D01*
X127503958Y-66218013D01*
X127553069Y-66206704D01*
X127602181Y-66213813D01*
G37*
G36*
X126980695Y-66217851D02*
G01*
X127018659Y-66255170D01*
X127040468Y-66312843D01*
X127047738Y-66386349D01*
X127039822Y-66460016D01*
X127016074Y-66518174D01*
X126976817Y-66555977D01*
X126922375Y-66568578D01*
X126866640Y-66555977D01*
X126828675Y-66518174D01*
X126806866Y-66460016D01*
X126799596Y-66386349D01*
X126807512Y-66312843D01*
X126831260Y-66255170D01*
X126870517Y-66217851D01*
X126924960Y-66205412D01*
X126980695Y-66217851D01*
G37*
G36*
X129918174Y-66814567D02*
G01*
X129756624Y-66814567D01*
X129478756Y-66814567D01*
X128814459Y-66814567D01*
X128266478Y-66814567D01*
X127571163Y-66814567D01*
X126924960Y-66814567D01*
X126362763Y-66814567D01*
X125878110Y-66814567D01*
X124743376Y-66814567D01*
X124581826Y-66814567D01*
X124243086Y-66814567D01*
X124520436Y-65890065D01*
X124743376Y-65890065D01*
X124743376Y-66690065D01*
X125256462Y-66690065D01*
X125389580Y-66690065D01*
X125548546Y-66690065D01*
X125548546Y-66213166D01*
X125585380Y-66209289D01*
X125620921Y-66207997D01*
X125699758Y-66245477D01*
X125714297Y-66294911D01*
X125719144Y-66368255D01*
X125719144Y-66690065D01*
X125878110Y-66690065D01*
X125878110Y-66386349D01*
X126011228Y-66386349D01*
X126016236Y-66451292D01*
X126031260Y-66511712D01*
X126056947Y-66565994D01*
X126093942Y-66612520D01*
X126142569Y-66650646D01*
X126203150Y-66679725D01*
X126276333Y-66698142D01*
X126362763Y-66704281D01*
X126423183Y-66702181D01*
X126475202Y-66695880D01*
X126556624Y-66674556D01*
X126533360Y-66544023D01*
X126459047Y-66560824D01*
X126380856Y-66565994D01*
X126283764Y-66554039D01*
X126219952Y-66518174D01*
X126184572Y-66461309D01*
X126172779Y-66386349D01*
X126172964Y-66385057D01*
X126638045Y-66385057D01*
X126643215Y-66454039D01*
X126658724Y-66516236D01*
X126683764Y-66571002D01*
X126717528Y-66617690D01*
X126759208Y-66655493D01*
X126807997Y-66683603D01*
X126863409Y-66701050D01*
X126924960Y-66706866D01*
X126986511Y-66701050D01*
X127041922Y-66683603D01*
X127090549Y-66655493D01*
X127131745Y-66617690D01*
X127165024Y-66571002D01*
X127189903Y-66516236D01*
X127205412Y-66454039D01*
X127210195Y-66390226D01*
X127282956Y-66390226D01*
X127291070Y-66480695D01*
X127315410Y-66557377D01*
X127355977Y-66620275D01*
X127412341Y-66666945D01*
X127484069Y-66694947D01*
X127571163Y-66704281D01*
X127632553Y-66702019D01*
X127695234Y-66695234D01*
X127753716Y-66684895D01*
X127802504Y-66671971D01*
X127802504Y-66391519D01*
X127933037Y-66391519D01*
X127938853Y-66464216D01*
X127956300Y-66527221D01*
X127984572Y-66580695D01*
X128022859Y-66624798D01*
X128070679Y-66659370D01*
X128127544Y-66684249D01*
X128192973Y-66699273D01*
X128266478Y-66704281D01*
X128371163Y-66694588D01*
X128387789Y-66690065D01*
X128654200Y-66690065D01*
X128814459Y-66690065D01*
X128814459Y-66653877D01*
X129255170Y-66653877D01*
X129344346Y-66686187D01*
X129405735Y-66699758D01*
X129478756Y-66704281D01*
X129550162Y-66700727D01*
X129609289Y-66690065D01*
X129695234Y-66651292D01*
X129742407Y-66593134D01*
X129756624Y-66522052D01*
X129737237Y-66441276D01*
X129687480Y-66386995D01*
X129619628Y-66351454D01*
X129547254Y-66325606D01*
X129501373Y-66309451D01*
X129463893Y-66292003D01*
X129438045Y-66271971D01*
X129428352Y-66246769D01*
X129449677Y-66215105D01*
X129531745Y-66200242D01*
X129636430Y-66215105D01*
X129704927Y-66236430D01*
X129729483Y-66102019D01*
X129640953Y-66076171D01*
X129587803Y-66069386D01*
X129530452Y-66067124D01*
X129466801Y-66070840D01*
X129412843Y-66081987D01*
X129332068Y-66123344D01*
X129285541Y-66184087D01*
X129270679Y-66257108D01*
X129290065Y-66336591D01*
X129339176Y-66388934D01*
X129405089Y-66423183D01*
X129476171Y-66447092D01*
X129523344Y-66462601D01*
X129563409Y-66478756D01*
X129590549Y-66498788D01*
X129600242Y-66527221D01*
X129569225Y-66561470D01*
X129480048Y-66569871D01*
X129376010Y-66554362D01*
X129279725Y-66520759D01*
X129255170Y-66653877D01*
X128814459Y-66653877D01*
X128814459Y-66239015D01*
X128880372Y-66226737D01*
X128946284Y-66223506D01*
X128981179Y-66224798D01*
X129023829Y-66229321D01*
X129067124Y-66236430D01*
X129103958Y-66244184D01*
X129132391Y-66096850D01*
X129082633Y-66084572D01*
X129027706Y-66076817D01*
X128976656Y-66072294D01*
X128939822Y-66071002D01*
X128856300Y-66074556D01*
X128784087Y-66085218D01*
X128718336Y-66101696D01*
X128654200Y-66122698D01*
X128654200Y-66690065D01*
X128387789Y-66690065D01*
X128459047Y-66670679D01*
X128437076Y-66534976D01*
X128364055Y-66555654D01*
X128272940Y-66565994D01*
X128202504Y-66557431D01*
X128146284Y-66531745D01*
X128109451Y-66491195D01*
X128097173Y-66438045D01*
X128491357Y-66438045D01*
X128493296Y-66410905D01*
X128493942Y-66378595D01*
X128486187Y-66285039D01*
X128462924Y-66207710D01*
X128424152Y-66146607D01*
X128370445Y-66102450D01*
X128302378Y-66075956D01*
X128219952Y-66067124D01*
X128166317Y-66072294D01*
X128113974Y-66087803D01*
X128065186Y-66113489D01*
X128022213Y-66149192D01*
X127986026Y-66194911D01*
X127957593Y-66250646D01*
X127939176Y-66316236D01*
X127933037Y-66391519D01*
X127802504Y-66391519D01*
X127802504Y-65793134D01*
X127643538Y-65820275D01*
X127643538Y-66096850D01*
X127589257Y-66076817D01*
X127525929Y-66069709D01*
X127452334Y-66079259D01*
X127391806Y-66107907D01*
X127344346Y-66155654D01*
X127310241Y-66219916D01*
X127289777Y-66298106D01*
X127282956Y-66390226D01*
X127210195Y-66390226D01*
X127210582Y-66385057D01*
X127205412Y-66317044D01*
X127189903Y-66255170D01*
X127164863Y-66200565D01*
X127131099Y-66154362D01*
X127089418Y-66117205D01*
X127040630Y-66089742D01*
X126985541Y-66072779D01*
X126924960Y-66067124D01*
X126865186Y-66072779D01*
X126809935Y-66089742D01*
X126760662Y-66117205D01*
X126718821Y-66154362D01*
X126684895Y-66200565D01*
X126659370Y-66255170D01*
X126643376Y-66317044D01*
X126638045Y-66385057D01*
X126172964Y-66385057D01*
X126183118Y-66313974D01*
X126216721Y-66256462D01*
X126278110Y-66218982D01*
X126373102Y-66205412D01*
X126453877Y-66212520D01*
X126511389Y-66228675D01*
X126546284Y-66100727D01*
X126457108Y-66074879D01*
X126358885Y-66067124D01*
X126274717Y-66073425D01*
X126203150Y-66092326D01*
X126143538Y-66122052D01*
X126095234Y-66160824D01*
X126058078Y-66207835D01*
X126031906Y-66262278D01*
X126016397Y-66322375D01*
X126011228Y-66386349D01*
X125878110Y-66386349D01*
X125878110Y-66347577D01*
X125875202Y-66288288D01*
X125866478Y-66234491D01*
X125827060Y-66146607D01*
X125751454Y-66089742D01*
X125697496Y-66074717D01*
X125631260Y-66069709D01*
X125560339Y-66072294D01*
X125494911Y-66080048D01*
X125437237Y-66090711D01*
X125389580Y-66102019D01*
X125389580Y-66690065D01*
X125256462Y-66690065D01*
X125256462Y-66558239D01*
X124902342Y-66558239D01*
X124902342Y-66333360D01*
X125185380Y-66333360D01*
X125185380Y-66201535D01*
X124902342Y-66201535D01*
X124902342Y-66021890D01*
X125228029Y-66021890D01*
X125228029Y-65890065D01*
X124743376Y-65890065D01*
X124520436Y-65890065D01*
X124581826Y-65685433D01*
X124743376Y-65685433D01*
X129756624Y-65685433D01*
X129918174Y-65685433D01*
X130256914Y-65685433D01*
X129918174Y-66814567D01*
G37*
D13*
%TO.C,C22*%
X182989420Y-84657500D02*
X183270580Y-84657500D01*
X182989420Y-85677500D02*
X183270580Y-85677500D01*
%TO.C,R25*%
X130290500Y-60107742D02*
X130290500Y-60582258D01*
X131335500Y-60107742D02*
X131335500Y-60582258D01*
D14*
%TO.C,LED9*%
X169260102Y-49013829D02*
X172670094Y-52670597D01*
X169347499Y-48932330D02*
X169260102Y-49013829D01*
X171761332Y-46681395D02*
X170415641Y-47936272D01*
X171866161Y-51368602D02*
X172431502Y-51388344D01*
X172138961Y-51661143D02*
X171866161Y-51368602D01*
X172431502Y-51388344D02*
X172138961Y-51661143D01*
X172757490Y-52589099D02*
X172670094Y-52670597D01*
X172916870Y-45603837D02*
X172829474Y-45685336D01*
X172916870Y-45603837D02*
X176326862Y-49260606D01*
X175171323Y-50338163D02*
X173825632Y-51593040D01*
X176326862Y-49260606D02*
X176239465Y-49342104D01*
X172749348Y-45170326D02*
G75*
G02*
X172549348Y-45170326I-100000J0D01*
G01*
X172549348Y-45170326D02*
G75*
G02*
X172749348Y-45170326I100000J0D01*
G01*
X174293483Y-49137217D02*
G75*
G02*
X171293481Y-49137217I-1500001J0D01*
G01*
X171293481Y-49137217D02*
G75*
G02*
X174293483Y-49137217I1500001J0D01*
G01*
%TO.C,USB1*%
X81789750Y-79182499D02*
X81789750Y-88122499D01*
X81789750Y-88122499D02*
X83292750Y-88122499D01*
X83292750Y-79182499D02*
X81789750Y-79182499D01*
X85525750Y-88122499D02*
X87322750Y-88122499D01*
X87322750Y-79182499D02*
X85525750Y-79182499D01*
%TO.C,LED12*%
X191254549Y-72599986D02*
X194664541Y-76256754D01*
X191341946Y-72518487D02*
X191254549Y-72599986D01*
X193755779Y-70267552D02*
X192410088Y-71522429D01*
X193860608Y-74954759D02*
X194425949Y-74974501D01*
X194133408Y-75247300D02*
X193860608Y-74954759D01*
X194425949Y-74974501D02*
X194133408Y-75247300D01*
X194751937Y-76175256D02*
X194664541Y-76256754D01*
X194911317Y-69189994D02*
X194823921Y-69271493D01*
X194911317Y-69189994D02*
X198321309Y-72846763D01*
X197165770Y-73924320D02*
X195820079Y-75179197D01*
X198321309Y-72846763D02*
X198233912Y-72928261D01*
X194743795Y-68756483D02*
G75*
G02*
X194543795Y-68756483I-100000J0D01*
G01*
X194543795Y-68756483D02*
G75*
G02*
X194743795Y-68756483I100000J0D01*
G01*
X196287930Y-72723374D02*
G75*
G02*
X193287928Y-72723374I-1500001J0D01*
G01*
X193287928Y-72723374D02*
G75*
G02*
X196287930Y-72723374I1500001J0D01*
G01*
D13*
%TO.C,C2*%
X103965580Y-86190000D02*
X103684420Y-86190000D01*
X103965580Y-87210000D02*
X103684420Y-87210000D01*
%TO.C,C9*%
X166309420Y-93765000D02*
X166590580Y-93765000D01*
X166309420Y-94785000D02*
X166590580Y-94785000D01*
D17*
%TO.C,LED2*%
X188543500Y-102009500D02*
X190023500Y-102009500D01*
X188543500Y-103159500D02*
X188543500Y-102009500D01*
X188545500Y-103539500D02*
X188545500Y-104589500D01*
X188845500Y-104889500D02*
X188545500Y-104589500D01*
X188943500Y-103179500D02*
X188953500Y-103179500D01*
X188943500Y-103179500D02*
X189623500Y-103179500D01*
X188946000Y-104889500D02*
X188845500Y-104889500D01*
X188946000Y-104889500D02*
X189645500Y-104889500D01*
X188953500Y-103179500D02*
X189293500Y-103519500D01*
X189293500Y-103179500D02*
X189293500Y-103519500D01*
X189623500Y-103179500D02*
X189623500Y-103189500D01*
X189623500Y-103189500D02*
X189293500Y-103519500D01*
X189645500Y-104889500D02*
X189746000Y-104889500D01*
X189746000Y-104889500D02*
X190046000Y-104589500D01*
X190043500Y-103159500D02*
X190043500Y-102009500D01*
X190046000Y-103539500D02*
X190046000Y-104589500D01*
D14*
%TO.C,U1*%
X192000000Y-77760000D02*
X200072000Y-77760000D01*
X192000000Y-85600000D02*
X192000000Y-77760000D01*
X192000000Y-85600000D02*
X200200000Y-85600000D01*
X192863000Y-85600000D02*
X192863000Y-77760000D01*
X200200000Y-85600000D02*
X200200000Y-77760000D01*
D13*
%TO.C,C23*%
X171465000Y-81963748D02*
X171465000Y-82486252D01*
X172935000Y-81963748D02*
X172935000Y-82486252D01*
D14*
%TO.C,LED6*%
X107653531Y-49261337D02*
X107740928Y-49342836D01*
X107653531Y-49261337D02*
X111063523Y-45604569D01*
X108809070Y-50338894D02*
X110154761Y-51593771D01*
X111063523Y-45604569D02*
X111150919Y-45686067D01*
X111222903Y-52589830D02*
X111310299Y-52671329D01*
X111310299Y-52671329D02*
X114720291Y-49014560D01*
X112219061Y-46682126D02*
X113564752Y-47937003D01*
X113457804Y-49342016D02*
X113750346Y-49614816D01*
X113477547Y-49907357D02*
X113457804Y-49342016D01*
X113750346Y-49614816D02*
X113477547Y-49907357D01*
X114632894Y-48933062D02*
X114720291Y-49014560D01*
X107339737Y-49558448D02*
G75*
G02*
X107139737Y-49558448I-100000J0D01*
G01*
X107139737Y-49558448D02*
G75*
G02*
X107339737Y-49558448I100000J0D01*
G01*
X112686912Y-49137949D02*
G75*
G02*
X109686910Y-49137949I-1500001J0D01*
G01*
X109686910Y-49137949D02*
G75*
G02*
X112686912Y-49137949I1500001J0D01*
G01*
D13*
%TO.C,R8*%
X171712742Y-91177500D02*
X172187258Y-91177500D01*
X171712742Y-92222500D02*
X172187258Y-92222500D01*
D15*
%TO.C,IC14*%
X155705000Y-89400000D02*
X155705000Y-90925000D01*
D13*
%TO.C,C32*%
X146140580Y-95990000D02*
X145859420Y-95990000D01*
X146140580Y-97010000D02*
X145859420Y-97010000D01*
%TO.C,C12*%
X163215000Y-88986252D02*
X163215000Y-88463748D01*
X164685000Y-88986252D02*
X164685000Y-88463748D01*
%TO.C,C13*%
X165190000Y-92115580D02*
X165190000Y-91834420D01*
X166210000Y-92115580D02*
X166210000Y-91834420D01*
%TO.C,R10*%
X183367258Y-83145000D02*
X182892742Y-83145000D01*
X183367258Y-84190000D02*
X182892742Y-84190000D01*
%TO.C,C30*%
X145609420Y-101990000D02*
X145890580Y-101990000D01*
X145609420Y-103010000D02*
X145890580Y-103010000D01*
%TO.C,R17*%
X120237258Y-75727500D02*
X119762742Y-75727500D01*
X120237258Y-76772500D02*
X119762742Y-76772500D01*
%TO.C,C1*%
X107038748Y-87365000D02*
X107561252Y-87365000D01*
X107038748Y-88835000D02*
X107561252Y-88835000D01*
D17*
%TO.C,LED1*%
X192443500Y-101909500D02*
X193923500Y-101909500D01*
X192443500Y-103059500D02*
X192443500Y-101909500D01*
X192445500Y-103439500D02*
X192445500Y-104489500D01*
X192745500Y-104789500D02*
X192445500Y-104489500D01*
X192843500Y-103079500D02*
X192853500Y-103079500D01*
X192843500Y-103079500D02*
X193523500Y-103079500D01*
X192846000Y-104789500D02*
X192745500Y-104789500D01*
X192846000Y-104789500D02*
X193545500Y-104789500D01*
X192853500Y-103079500D02*
X193193500Y-103419500D01*
X193193500Y-103079500D02*
X193193500Y-103419500D01*
X193523500Y-103079500D02*
X193523500Y-103089500D01*
X193523500Y-103089500D02*
X193193500Y-103419500D01*
X193545500Y-104789500D02*
X193646000Y-104789500D01*
X193646000Y-104789500D02*
X193946000Y-104489500D01*
X193943500Y-103059500D02*
X193943500Y-101909500D01*
X193946000Y-103439500D02*
X193946000Y-104489500D01*
D12*
%TO.C,kibuzzard-669E1D82*%
G36*
X157692488Y-99157189D02*
G01*
X157716236Y-99204685D01*
X157724152Y-99274798D01*
X157724152Y-99309693D01*
X157483764Y-99309693D01*
X157480533Y-99283845D01*
X157479887Y-99261874D01*
X157487318Y-99204685D01*
X157509612Y-99159774D01*
X157547738Y-99130695D01*
X157602666Y-99121002D01*
X157692488Y-99157189D01*
G37*
G36*
X157806220Y-99736026D02*
G01*
X157858562Y-99739418D01*
X157947092Y-99757512D01*
X158007189Y-99796284D01*
X158029160Y-99861551D01*
X158007189Y-99927464D01*
X157947738Y-99965590D01*
X157859208Y-99983683D01*
X157806381Y-99987076D01*
X157750000Y-99988207D01*
X157693780Y-99987076D01*
X157641438Y-99983683D01*
X157552908Y-99965590D01*
X157492811Y-99927464D01*
X157470840Y-99861551D01*
X157492811Y-99795638D01*
X157552262Y-99757512D01*
X157640792Y-99739418D01*
X157693619Y-99736026D01*
X157750000Y-99734895D01*
X157806220Y-99736026D01*
G37*
G36*
X157806220Y-101028433D02*
G01*
X157858562Y-101031826D01*
X157947092Y-101049919D01*
X158007189Y-101088691D01*
X158029160Y-101153958D01*
X158007189Y-101219871D01*
X157947738Y-101257997D01*
X157859208Y-101276090D01*
X157806381Y-101279483D01*
X157750000Y-101280614D01*
X157693780Y-101279483D01*
X157641438Y-101276090D01*
X157552908Y-101257997D01*
X157492811Y-101219871D01*
X157470840Y-101153958D01*
X157492811Y-101088045D01*
X157552262Y-101049919D01*
X157640792Y-101031826D01*
X157693619Y-101028433D01*
X157750000Y-101027302D01*
X157806220Y-101028433D01*
G37*
G36*
X158275148Y-99860258D02*
G01*
X158275148Y-100427625D01*
X158275148Y-101152666D01*
X158275148Y-101506785D01*
X158275148Y-102093538D01*
X158275148Y-102362789D01*
X158265058Y-102465241D01*
X158235174Y-102563755D01*
X158186645Y-102654546D01*
X158121336Y-102734125D01*
X158041757Y-102799434D01*
X157950965Y-102847963D01*
X157852451Y-102877847D01*
X157750000Y-102887938D01*
X157647549Y-102877847D01*
X157549035Y-102847963D01*
X157458243Y-102799434D01*
X157378664Y-102734125D01*
X157313355Y-102654546D01*
X157264826Y-102563755D01*
X157234942Y-102465241D01*
X157224852Y-102362789D01*
X157224852Y-102093538D01*
X157224852Y-102047011D01*
X157350646Y-102047011D01*
X157438207Y-102055574D01*
X157532876Y-102063166D01*
X157632714Y-102069790D01*
X157735784Y-102075444D01*
X157840792Y-102080452D01*
X157946446Y-102085137D01*
X158050485Y-102089499D01*
X158150646Y-102093538D01*
X158150646Y-101947496D01*
X157528998Y-101953958D01*
X157867609Y-101859612D01*
X157867609Y-101743296D01*
X157528998Y-101645073D01*
X158150646Y-101652827D01*
X158150646Y-101506785D01*
X158048384Y-101509693D01*
X157948384Y-101513247D01*
X157849838Y-101517609D01*
X157751939Y-101522940D01*
X157653877Y-101529402D01*
X157554847Y-101537157D01*
X157454039Y-101545719D01*
X157350646Y-101554604D01*
X157350646Y-101686430D01*
X157419144Y-101709693D01*
X157507674Y-101738126D01*
X157605897Y-101770436D01*
X157704766Y-101802746D01*
X157611712Y-101832472D01*
X157512197Y-101863489D01*
X157420436Y-101892569D01*
X157350646Y-101915186D01*
X157350646Y-102047011D01*
X157224852Y-102047011D01*
X157224852Y-101153958D01*
X157332553Y-101153958D01*
X157344256Y-101237821D01*
X157379366Y-101308472D01*
X157437884Y-101365913D01*
X157496890Y-101399273D01*
X157568578Y-101423102D01*
X157652948Y-101437399D01*
X157750000Y-101442165D01*
X157847052Y-101437520D01*
X157931422Y-101423586D01*
X158003110Y-101400363D01*
X158062116Y-101367851D01*
X158120634Y-101310914D01*
X158155744Y-101239185D01*
X158167447Y-101152666D01*
X158155744Y-101068228D01*
X158120634Y-100997577D01*
X158062116Y-100940711D01*
X158003110Y-100907916D01*
X157931422Y-100884491D01*
X157847052Y-100870436D01*
X157750000Y-100865751D01*
X157652948Y-100870355D01*
X157568578Y-100884168D01*
X157496890Y-100907189D01*
X157437884Y-100939418D01*
X157379366Y-100995997D01*
X157344256Y-101067510D01*
X157332553Y-101153958D01*
X157224852Y-101153958D01*
X157224852Y-100798546D01*
X157350646Y-100798546D01*
X157482472Y-100798546D01*
X157482472Y-100587884D01*
X158150646Y-100587884D01*
X158150646Y-100427625D01*
X157482472Y-100427625D01*
X157482472Y-100216963D01*
X157350646Y-100216963D01*
X157350646Y-100798546D01*
X157224852Y-100798546D01*
X157224852Y-99861551D01*
X157332553Y-99861551D01*
X157344256Y-99945414D01*
X157379366Y-100016065D01*
X157437884Y-100073506D01*
X157496890Y-100106866D01*
X157568578Y-100130695D01*
X157652948Y-100144992D01*
X157750000Y-100149758D01*
X157847052Y-100145113D01*
X157931422Y-100131179D01*
X158003110Y-100107956D01*
X158062116Y-100075444D01*
X158120634Y-100018507D01*
X158155744Y-99946778D01*
X158167447Y-99860258D01*
X158155744Y-99775821D01*
X158120634Y-99705170D01*
X158062116Y-99648304D01*
X158003110Y-99615509D01*
X157931422Y-99592084D01*
X157847052Y-99578029D01*
X157750000Y-99573344D01*
X157652948Y-99577948D01*
X157568578Y-99591761D01*
X157496890Y-99614782D01*
X157437884Y-99647011D01*
X157379366Y-99703590D01*
X157344256Y-99775103D01*
X157332553Y-99861551D01*
X157224852Y-99861551D01*
X157224852Y-99261874D01*
X157341599Y-99261874D01*
X157342892Y-99307108D01*
X157346123Y-99361389D01*
X157352585Y-99417609D01*
X157362278Y-99468659D01*
X158150646Y-99468659D01*
X158150646Y-99309693D01*
X157855977Y-99309693D01*
X157855977Y-99226979D01*
X157929160Y-99183199D01*
X158001373Y-99142326D01*
X158074556Y-99105331D01*
X158150646Y-99073183D01*
X158150646Y-98906462D01*
X158065994Y-98943296D01*
X157976817Y-98987884D01*
X157891519Y-99035703D01*
X157817205Y-99082229D01*
X157780695Y-99025687D01*
X157730614Y-98987884D01*
X157670517Y-98966559D01*
X157603958Y-98959451D01*
X157541115Y-98964782D01*
X157486995Y-98980775D01*
X157404927Y-99042165D01*
X157376817Y-99086107D01*
X157357108Y-99137803D01*
X157345477Y-99196607D01*
X157341599Y-99261874D01*
X157224852Y-99261874D01*
X157224852Y-98906462D01*
X157224852Y-98637211D01*
X157234942Y-98534759D01*
X157264826Y-98436245D01*
X157313355Y-98345454D01*
X157378664Y-98265875D01*
X157458243Y-98200566D01*
X157549035Y-98152037D01*
X157647549Y-98122153D01*
X157750000Y-98112062D01*
X157852451Y-98122153D01*
X157950965Y-98152037D01*
X158041757Y-98200566D01*
X158121336Y-98265875D01*
X158186645Y-98345454D01*
X158235174Y-98436245D01*
X158265058Y-98534759D01*
X158275148Y-98637211D01*
X158275148Y-98906462D01*
X158275148Y-99860258D01*
G37*
D16*
%TO.C,R23*%
X137464500Y-95115000D02*
X137464500Y-96074000D01*
X137464500Y-97885000D02*
X137464500Y-96926000D01*
X138785500Y-95115000D02*
X137464500Y-95115000D01*
X138785500Y-96074000D02*
X138785500Y-95115000D01*
X138785500Y-96926000D02*
X138785500Y-97885000D01*
X138785500Y-97885000D02*
X137464500Y-97885000D01*
D14*
%TO.C,LED5*%
X100322049Y-57123389D02*
X100409446Y-57204888D01*
X100322049Y-57123389D02*
X103732041Y-53466621D01*
X101477588Y-58200946D02*
X102823279Y-59455823D01*
X103732041Y-53466621D02*
X103819437Y-53548119D01*
X103891421Y-60451882D02*
X103978817Y-60533381D01*
X103978817Y-60533381D02*
X107388809Y-56876612D01*
X104887579Y-54544178D02*
X106233270Y-55799055D01*
X106126322Y-57204068D02*
X106418864Y-57476868D01*
X106146065Y-57769409D02*
X106126322Y-57204068D01*
X106418864Y-57476868D02*
X106146065Y-57769409D01*
X107301412Y-56795114D02*
X107388809Y-56876612D01*
X100008255Y-57420500D02*
G75*
G02*
X99808255Y-57420500I-100000J0D01*
G01*
X99808255Y-57420500D02*
G75*
G02*
X100008255Y-57420500I100000J0D01*
G01*
X105355430Y-57000001D02*
G75*
G02*
X102355428Y-57000001I-1500001J0D01*
G01*
X102355428Y-57000001D02*
G75*
G02*
X105355430Y-57000001I1500001J0D01*
G01*
D13*
%TO.C,C33*%
X151959420Y-39790000D02*
X152240580Y-39790000D01*
X151959420Y-40810000D02*
X152240580Y-40810000D01*
%TO.C,C28*%
X139890580Y-106490000D02*
X139609420Y-106490000D01*
X139890580Y-107510000D02*
X139609420Y-107510000D01*
%TO.C,C3*%
X107038748Y-82965000D02*
X107561252Y-82965000D01*
X107038748Y-84435000D02*
X107561252Y-84435000D01*
%TO.C,C14*%
X189120000Y-88026920D02*
X189120000Y-88308080D01*
X190140000Y-88026920D02*
X190140000Y-88308080D01*
%TO.C,C35*%
X136759420Y-45990000D02*
X137040580Y-45990000D01*
X136759420Y-47010000D02*
X137040580Y-47010000D01*
D12*
%TO.C,kibuzzard-669E1F24*%
G36*
X152081361Y-80933414D02*
G01*
X152081361Y-81100135D01*
X152081361Y-81140522D01*
X151687500Y-81403096D01*
X151293639Y-81140522D01*
X151293639Y-81100135D01*
X151293639Y-80922752D01*
X151374414Y-80922752D01*
X151378897Y-80974246D01*
X151392347Y-81020167D01*
X151427726Y-81089472D01*
X151514964Y-81046823D01*
X151487338Y-80989149D01*
X151476191Y-80921782D01*
X151495093Y-80867017D01*
X151546951Y-80847146D01*
X151583784Y-80856354D01*
X151607048Y-80880102D01*
X151619649Y-80913059D01*
X151623526Y-80949892D01*
X151623526Y-80994480D01*
X151722395Y-80994480D01*
X151722395Y-80957647D01*
X151727120Y-80904577D01*
X151741296Y-80861686D01*
X151767347Y-80833333D01*
X151807694Y-80823883D01*
X151872637Y-80848600D01*
X151892266Y-80882404D01*
X151898809Y-80934383D01*
X151896143Y-80980304D01*
X151888146Y-81019198D01*
X151867791Y-81076871D01*
X151967629Y-81100135D01*
X151978292Y-81070086D01*
X151988954Y-81027921D01*
X151997193Y-80980425D01*
X152000586Y-80933414D01*
X151997072Y-80877437D01*
X151986531Y-80829698D01*
X151969568Y-80789957D01*
X151946789Y-80757970D01*
X151886208Y-80716290D01*
X151809632Y-80702719D01*
X151760925Y-80709141D01*
X151719487Y-80728406D01*
X151686288Y-80759303D01*
X151662298Y-80800619D01*
X151611894Y-80746338D01*
X151543074Y-80725983D01*
X151476191Y-80737614D01*
X151422395Y-80773479D01*
X151387015Y-80835030D01*
X151377565Y-80875619D01*
X151374414Y-80922752D01*
X151293639Y-80922752D01*
X151293639Y-80438099D01*
X151374414Y-80438099D01*
X151378897Y-80489593D01*
X151392347Y-80535514D01*
X151427726Y-80604820D01*
X151514964Y-80562170D01*
X151487338Y-80504496D01*
X151476191Y-80437130D01*
X151495093Y-80382364D01*
X151546951Y-80362493D01*
X151583784Y-80371702D01*
X151607048Y-80395450D01*
X151619649Y-80428406D01*
X151623526Y-80465240D01*
X151623526Y-80509828D01*
X151722395Y-80509828D01*
X151722395Y-80472994D01*
X151727120Y-80419925D01*
X151741296Y-80377033D01*
X151767347Y-80348681D01*
X151807694Y-80339230D01*
X151872637Y-80363947D01*
X151892266Y-80397752D01*
X151898809Y-80449731D01*
X151896143Y-80495652D01*
X151888146Y-80534545D01*
X151867791Y-80592219D01*
X151967629Y-80615482D01*
X151978292Y-80585433D01*
X151988954Y-80543269D01*
X151997193Y-80495773D01*
X152000586Y-80448761D01*
X151997072Y-80392784D01*
X151986531Y-80345046D01*
X151969568Y-80305304D01*
X151946789Y-80273317D01*
X151886208Y-80231637D01*
X151809632Y-80218067D01*
X151760925Y-80224488D01*
X151719487Y-80243753D01*
X151686288Y-80274650D01*
X151662298Y-80315967D01*
X151611894Y-80261686D01*
X151543074Y-80241330D01*
X151476191Y-80252962D01*
X151422395Y-80288826D01*
X151387015Y-80350377D01*
X151377565Y-80390967D01*
X151374414Y-80438099D01*
X151293639Y-80438099D01*
X151293639Y-80218067D01*
X151293639Y-80096904D01*
X152081361Y-80096904D01*
X152081361Y-80218067D01*
X152081361Y-80448761D01*
X152081361Y-80933414D01*
G37*
%TO.C,kibuzzard-669AC45D*%
G36*
X191515994Y-99800000D02*
G01*
X191517286Y-99836187D01*
X191504362Y-99894184D01*
X191465590Y-99933764D01*
X191406462Y-99956543D01*
X191332472Y-99964136D01*
X191257189Y-99957674D01*
X191201939Y-99938288D01*
X191168013Y-99904685D01*
X191156704Y-99855574D01*
X191163813Y-99806462D01*
X191181260Y-99765105D01*
X191512116Y-99765105D01*
X191515994Y-99800000D01*
G37*
G36*
X191410016Y-100368821D02*
G01*
X191468174Y-100392569D01*
X191505977Y-100431826D01*
X191518578Y-100486268D01*
X191505977Y-100542003D01*
X191468174Y-100579968D01*
X191410016Y-100601777D01*
X191336349Y-100609047D01*
X191262843Y-100601131D01*
X191205170Y-100577383D01*
X191167851Y-100538126D01*
X191155412Y-100483683D01*
X191167851Y-100427948D01*
X191205170Y-100389984D01*
X191262843Y-100368174D01*
X191336349Y-100360905D01*
X191410016Y-100368821D01*
G37*
G36*
X191410016Y-101015024D02*
G01*
X191468174Y-101038772D01*
X191505977Y-101078029D01*
X191518578Y-101132472D01*
X191505977Y-101188207D01*
X191468174Y-101226171D01*
X191410016Y-101247981D01*
X191336349Y-101255250D01*
X191262843Y-101247334D01*
X191205170Y-101223586D01*
X191167851Y-101184330D01*
X191155412Y-101129887D01*
X191167851Y-101074152D01*
X191205170Y-101036187D01*
X191262843Y-101014378D01*
X191336349Y-101007108D01*
X191410016Y-101015024D01*
G37*
G36*
X191764567Y-100483683D02*
G01*
X191764567Y-101129887D01*
X191764567Y-101738611D01*
X191764567Y-103152504D01*
X191764567Y-103778029D01*
X191764567Y-103993861D01*
X191764567Y-104263113D01*
X191200000Y-104639490D01*
X190635433Y-104263113D01*
X190635433Y-103993861D01*
X190635433Y-103899515D01*
X190840065Y-103899515D01*
X190938772Y-103904362D01*
X191041034Y-103911147D01*
X191146204Y-103920194D01*
X191253635Y-103931826D01*
X191256381Y-103842973D01*
X191264620Y-103772859D01*
X191295638Y-103679160D01*
X191343457Y-103635218D01*
X191404847Y-103624233D01*
X191447496Y-103630695D01*
X191484330Y-103654604D01*
X191510824Y-103702423D01*
X191521163Y-103779321D01*
X191518255Y-103839742D01*
X191509532Y-103889176D01*
X191483683Y-103961551D01*
X191615509Y-103993861D01*
X191629725Y-103957027D01*
X191643296Y-103903393D01*
X191652989Y-103841357D01*
X191656866Y-103778029D01*
X191652019Y-103704039D01*
X191637480Y-103639742D01*
X191614216Y-103585137D01*
X191583199Y-103540226D01*
X191501131Y-103480775D01*
X191398384Y-103461389D01*
X191323425Y-103470149D01*
X191260528Y-103496428D01*
X191209693Y-103540226D01*
X191171208Y-103601831D01*
X191145360Y-103681529D01*
X191132149Y-103779321D01*
X191058481Y-103772859D01*
X190971890Y-103766397D01*
X190971890Y-103491115D01*
X190840065Y-103491115D01*
X190840065Y-103899515D01*
X190635433Y-103899515D01*
X190635433Y-103376090D01*
X190840065Y-103376090D01*
X190912439Y-103361228D01*
X191002908Y-103339903D01*
X191070616Y-103322815D01*
X191141052Y-103304290D01*
X191214216Y-103284330D01*
X191288817Y-103263220D01*
X191363561Y-103241249D01*
X191438449Y-103218417D01*
X191545073Y-103184491D01*
X191640065Y-103152504D01*
X191640065Y-102988368D01*
X191571208Y-102963669D01*
X191500772Y-102939544D01*
X191428756Y-102915994D01*
X191356381Y-102893376D01*
X191284868Y-102872052D01*
X191214216Y-102852019D01*
X191111309Y-102824556D01*
X191013247Y-102800323D01*
X190922132Y-102779483D01*
X190840065Y-102762197D01*
X190840065Y-102928918D01*
X190907270Y-102940549D01*
X190984814Y-102954766D01*
X191068659Y-102970921D01*
X191154766Y-102988368D01*
X191241357Y-103007108D01*
X191326656Y-103027141D01*
X191406624Y-103047819D01*
X191477221Y-103068498D01*
X191405654Y-103089338D01*
X191325363Y-103110501D01*
X191240065Y-103131179D01*
X191153473Y-103150565D01*
X191067528Y-103168498D01*
X190984168Y-103184814D01*
X190907108Y-103198384D01*
X190840065Y-103208078D01*
X190840065Y-103376090D01*
X190635433Y-103376090D01*
X190635433Y-101719225D01*
X190821971Y-101719225D01*
X190828595Y-101789338D01*
X190848465Y-101854927D01*
X190881583Y-101914055D01*
X190927948Y-101964782D01*
X190987237Y-102006462D01*
X191059128Y-102038449D01*
X191143296Y-102058805D01*
X191239418Y-102065590D01*
X191336511Y-102059774D01*
X191421002Y-102042326D01*
X191492730Y-102014216D01*
X191551535Y-101976414D01*
X191597415Y-101929402D01*
X191630372Y-101873667D01*
X191650242Y-101809855D01*
X191656866Y-101738611D01*
X191653635Y-101659612D01*
X191643942Y-101593215D01*
X191620679Y-101504685D01*
X191221325Y-101504685D01*
X191221325Y-101663651D01*
X191513409Y-101663651D01*
X191517286Y-101694669D01*
X191518578Y-101725687D01*
X191501616Y-101802908D01*
X191450727Y-101858805D01*
X191397092Y-101883935D01*
X191326656Y-101899013D01*
X191239418Y-101904039D01*
X191180129Y-101901292D01*
X191126333Y-101893053D01*
X191038449Y-101856866D01*
X190980937Y-101792892D01*
X190960258Y-101697254D01*
X190974475Y-101611955D01*
X191006785Y-101542165D01*
X190880129Y-101500808D01*
X190864620Y-101527302D01*
X190845234Y-101571890D01*
X190829079Y-101635864D01*
X190821971Y-101719225D01*
X190635433Y-101719225D01*
X190635433Y-101129887D01*
X191017124Y-101129887D01*
X191022779Y-101189661D01*
X191039742Y-101244911D01*
X191067205Y-101294184D01*
X191104362Y-101336026D01*
X191150565Y-101369952D01*
X191205170Y-101395477D01*
X191267044Y-101411470D01*
X191335057Y-101416801D01*
X191404039Y-101411632D01*
X191466236Y-101396123D01*
X191521002Y-101371082D01*
X191567690Y-101337318D01*
X191605493Y-101295638D01*
X191633603Y-101246850D01*
X191651050Y-101191438D01*
X191656866Y-101129887D01*
X191651050Y-101068336D01*
X191633603Y-101012924D01*
X191605493Y-100964297D01*
X191567690Y-100923102D01*
X191521002Y-100889822D01*
X191466236Y-100864943D01*
X191404039Y-100849435D01*
X191335057Y-100844265D01*
X191267044Y-100849435D01*
X191205170Y-100864943D01*
X191150565Y-100889984D01*
X191104362Y-100923748D01*
X191067205Y-100965428D01*
X191039742Y-101014216D01*
X191022779Y-101069305D01*
X191017124Y-101129887D01*
X190635433Y-101129887D01*
X190635433Y-100483683D01*
X191017124Y-100483683D01*
X191022779Y-100543457D01*
X191039742Y-100598708D01*
X191067205Y-100647981D01*
X191104362Y-100689822D01*
X191150565Y-100723748D01*
X191205170Y-100749273D01*
X191267044Y-100765267D01*
X191335057Y-100770598D01*
X191404039Y-100765428D01*
X191466236Y-100749919D01*
X191521002Y-100724879D01*
X191567690Y-100691115D01*
X191605493Y-100649435D01*
X191633603Y-100600646D01*
X191651050Y-100545234D01*
X191656866Y-100483683D01*
X191651050Y-100422132D01*
X191633603Y-100366721D01*
X191605493Y-100318094D01*
X191567690Y-100276898D01*
X191521002Y-100243619D01*
X191466236Y-100218740D01*
X191404039Y-100203231D01*
X191335057Y-100198061D01*
X191267044Y-100203231D01*
X191205170Y-100218740D01*
X191150565Y-100243780D01*
X191104362Y-100277544D01*
X191067205Y-100319225D01*
X191039742Y-100368013D01*
X191022779Y-100423102D01*
X191017124Y-100483683D01*
X190635433Y-100483683D01*
X190635433Y-99606139D01*
X190743134Y-99606139D01*
X190770275Y-99765105D01*
X191046850Y-99765105D01*
X191026817Y-99819386D01*
X191019709Y-99882714D01*
X191029259Y-99956309D01*
X191057907Y-100016837D01*
X191105654Y-100064297D01*
X191169916Y-100098402D01*
X191248106Y-100118866D01*
X191340226Y-100125687D01*
X191430695Y-100117573D01*
X191507377Y-100093233D01*
X191570275Y-100052666D01*
X191616945Y-99996302D01*
X191644947Y-99924574D01*
X191654281Y-99837480D01*
X191652019Y-99776090D01*
X191645234Y-99713409D01*
X191634895Y-99654927D01*
X191621971Y-99606139D01*
X190743134Y-99606139D01*
X190635433Y-99606139D01*
X190635433Y-99336887D01*
X191200000Y-98960510D01*
X191764567Y-99336887D01*
X191764567Y-99606139D01*
X191764567Y-99837480D01*
X191764567Y-100483683D01*
G37*
D14*
%TO.C,CN2*%
X151710000Y-97350000D02*
X151710000Y-103350000D01*
X152998000Y-102020000D02*
X152998000Y-103350000D01*
X155502500Y-102020000D02*
X152998000Y-102020000D01*
X155502500Y-102437000D02*
X152998000Y-102437000D01*
X155502500Y-103350000D02*
X155502500Y-102020000D01*
X156790000Y-97350000D02*
X151710000Y-97350000D01*
X156790000Y-97350000D02*
X156790000Y-103350000D01*
X156790000Y-103350000D02*
X151710000Y-103350000D01*
%TO.C,LED10*%
X176591584Y-56875881D02*
X180001576Y-60532649D01*
X176678981Y-56794382D02*
X176591584Y-56875881D01*
X179092814Y-54543447D02*
X177747123Y-55798324D01*
X179197643Y-59230654D02*
X179762984Y-59250396D01*
X179470443Y-59523195D02*
X179197643Y-59230654D01*
X179762984Y-59250396D02*
X179470443Y-59523195D01*
X180088972Y-60451151D02*
X180001576Y-60532649D01*
X180248352Y-53465889D02*
X180160956Y-53547388D01*
X180248352Y-53465889D02*
X183658344Y-57122658D01*
X182502805Y-58200215D02*
X181157114Y-59455092D01*
X183658344Y-57122658D02*
X183570947Y-57204156D01*
X180080830Y-53032378D02*
G75*
G02*
X179880830Y-53032378I-100000J0D01*
G01*
X179880830Y-53032378D02*
G75*
G02*
X180080830Y-53032378I100000J0D01*
G01*
X181624965Y-56999269D02*
G75*
G02*
X178624963Y-56999269I-1500001J0D01*
G01*
X178624963Y-56999269D02*
G75*
G02*
X181624965Y-56999269I1500001J0D01*
G01*
D12*
%TO.C,kibuzzard-669E1F50*%
G36*
X134473344Y-80564378D02*
G01*
X134513086Y-80609451D01*
X134533441Y-80674394D01*
X134539257Y-80750000D01*
X134537439Y-80792771D01*
X134531987Y-80831906D01*
X134507754Y-80896365D01*
X134463166Y-80939015D01*
X134394830Y-80954523D01*
X134384168Y-80954523D01*
X134373506Y-80953554D01*
X134373506Y-80550323D01*
X134390953Y-80547900D01*
X134408401Y-80547415D01*
X134473344Y-80564378D01*
G37*
G36*
X134781583Y-81143861D02*
G01*
X134660420Y-81143861D01*
X134382229Y-81143861D01*
X134061389Y-81143861D01*
X133504039Y-81143861D01*
X133258805Y-81143861D01*
X133218417Y-81143861D01*
X132982100Y-81143861D01*
X133100259Y-80750000D01*
X133258805Y-80750000D01*
X133263166Y-80822819D01*
X133276252Y-80886187D01*
X133297334Y-80939984D01*
X133325687Y-80984087D01*
X133360945Y-81018498D01*
X133402746Y-81043215D01*
X133450606Y-81058118D01*
X133504039Y-81063086D01*
X133563288Y-81060662D01*
X133613086Y-81053393D01*
X133679483Y-81035945D01*
X133679483Y-80736430D01*
X133560258Y-80736430D01*
X133560258Y-80955493D01*
X133536995Y-80958401D01*
X133513732Y-80959370D01*
X133455816Y-80946648D01*
X133413893Y-80908481D01*
X133395046Y-80868255D01*
X133383737Y-80815428D01*
X133379968Y-80750000D01*
X133382027Y-80705533D01*
X133388207Y-80665186D01*
X133415347Y-80599273D01*
X133463328Y-80556139D01*
X133535057Y-80540630D01*
X133599031Y-80551292D01*
X133651373Y-80575525D01*
X133682391Y-80480533D01*
X133662520Y-80468901D01*
X133629079Y-80454362D01*
X133613726Y-80450485D01*
X133761874Y-80450485D01*
X133761874Y-81050485D01*
X133869467Y-81050485D01*
X133869467Y-80652100D01*
X133905493Y-80718605D01*
X133939903Y-80785003D01*
X133972698Y-80851292D01*
X134003877Y-80917582D01*
X134033441Y-80983980D01*
X134061389Y-81050485D01*
X134157351Y-81050485D01*
X134157351Y-81043700D01*
X134254281Y-81043700D01*
X134319709Y-81054847D01*
X134382229Y-81058239D01*
X134440751Y-81053998D01*
X134494184Y-81041276D01*
X134541559Y-81019346D01*
X134581906Y-80987480D01*
X134614742Y-80945194D01*
X134639580Y-80892003D01*
X134655210Y-80827181D01*
X134660420Y-80750000D01*
X134655695Y-80674515D01*
X134641519Y-80610905D01*
X134618861Y-80558320D01*
X134588691Y-80515913D01*
X134551010Y-80483562D01*
X134505816Y-80461147D01*
X134454321Y-80448061D01*
X134397738Y-80443700D01*
X134330856Y-80446607D01*
X134254281Y-80458239D01*
X134254281Y-81043700D01*
X134157351Y-81043700D01*
X134157351Y-80450485D01*
X134049758Y-80450485D01*
X134049758Y-80819790D01*
X134032674Y-80781987D01*
X134012439Y-80738368D01*
X133989661Y-80691115D01*
X133964943Y-80642407D01*
X133938893Y-80592851D01*
X133912116Y-80543053D01*
X133884976Y-80494952D01*
X133857835Y-80450485D01*
X133761874Y-80450485D01*
X133613726Y-80450485D01*
X133581099Y-80442246D01*
X133518578Y-80436914D01*
X133465994Y-80441882D01*
X133416801Y-80456785D01*
X133372456Y-80481624D01*
X133334410Y-80516397D01*
X133303150Y-80560864D01*
X133279160Y-80614782D01*
X133263893Y-80677908D01*
X133258805Y-80750000D01*
X133100259Y-80750000D01*
X133218417Y-80356139D01*
X133258805Y-80356139D01*
X134660420Y-80356139D01*
X134781583Y-80356139D01*
X135017900Y-80356139D01*
X134781583Y-81143861D01*
G37*
D13*
%TO.C,C37*%
X148865000Y-92609420D02*
X148865000Y-92890580D01*
X149885000Y-92609420D02*
X149885000Y-92890580D01*
D14*
%TO.C,IC9*%
X124977500Y-75039000D02*
X126247500Y-75039000D01*
X127212500Y-75039000D02*
X128482500Y-75039000D01*
X128737500Y-82862000D02*
X124722500Y-82862000D01*
X127187000Y-75039000D02*
G75*
G02*
X126247500Y-75039000I-469750J250D01*
G01*
D15*
X123782000Y-74785000D02*
G75*
G02*
X123582000Y-74785000I-100000J0D01*
G01*
X123582000Y-74785000D02*
G75*
G02*
X123782000Y-74785000I100000J0D01*
G01*
%TO.C,IC13*%
X133580000Y-89400000D02*
X133580000Y-90925000D01*
D12*
%TO.C,kibuzzard-669E1F34*%
G36*
X157143861Y-80934383D02*
G01*
X157143861Y-81101104D01*
X157143861Y-81141492D01*
X156750000Y-81404066D01*
X156356139Y-81141492D01*
X156356139Y-81101104D01*
X156356139Y-80923721D01*
X156436914Y-80923721D01*
X156441397Y-80975215D01*
X156454847Y-81021136D01*
X156490226Y-81090442D01*
X156577464Y-81047792D01*
X156549838Y-80990118D01*
X156538691Y-80922752D01*
X156557593Y-80867986D01*
X156609451Y-80848115D01*
X156646284Y-80857324D01*
X156669548Y-80881072D01*
X156682149Y-80914028D01*
X156686026Y-80950862D01*
X156686026Y-80995450D01*
X156784895Y-80995450D01*
X156784895Y-80958616D01*
X156789620Y-80905547D01*
X156803796Y-80862655D01*
X156829847Y-80834303D01*
X156870194Y-80824852D01*
X156935137Y-80849569D01*
X156954766Y-80883374D01*
X156961309Y-80935353D01*
X156958643Y-80981274D01*
X156950646Y-81020167D01*
X156930291Y-81077841D01*
X157030129Y-81101104D01*
X157040792Y-81071055D01*
X157051454Y-81028891D01*
X157059693Y-80981395D01*
X157063086Y-80934383D01*
X157059572Y-80878406D01*
X157049031Y-80830668D01*
X157032068Y-80790926D01*
X157009289Y-80758939D01*
X156948708Y-80717259D01*
X156872132Y-80703689D01*
X156823425Y-80710110D01*
X156781987Y-80729375D01*
X156748788Y-80760272D01*
X156724798Y-80801589D01*
X156674394Y-80747307D01*
X156605574Y-80726952D01*
X156538691Y-80738584D01*
X156484895Y-80774448D01*
X156449515Y-80835999D01*
X156440065Y-80876589D01*
X156436914Y-80923721D01*
X156356139Y-80923721D01*
X156356139Y-80608697D01*
X156450485Y-80608697D01*
X156549354Y-80608697D01*
X156549354Y-80356677D01*
X156597213Y-80383576D01*
X156653554Y-80411928D01*
X156715953Y-80439917D01*
X156781987Y-80465724D01*
X156850202Y-80488624D01*
X156919144Y-80507889D01*
X156986632Y-80521702D01*
X157050485Y-80528244D01*
X157050485Y-80407081D01*
X156972819Y-80398236D01*
X156894911Y-80381395D01*
X156819184Y-80358858D01*
X156748061Y-80332929D01*
X156682876Y-80304456D01*
X156624960Y-80274286D01*
X156576737Y-80244480D01*
X156540630Y-80217097D01*
X156450485Y-80217097D01*
X156450485Y-80608697D01*
X156356139Y-80608697D01*
X156356139Y-80217097D01*
X156356139Y-80095934D01*
X157143861Y-80095934D01*
X157143861Y-80217097D01*
X157143861Y-80528244D01*
X157143861Y-80934383D01*
G37*
D13*
%TO.C,C31*%
X140240000Y-96640580D02*
X140240000Y-96359420D01*
X141260000Y-96640580D02*
X141260000Y-96359420D01*
%TD*%
M02*
