%TF.GenerationSoftware,KiCad,Pcbnew,8.0.1*%
%TF.CreationDate,2024-07-22T13:19:01+02:00*%
%TF.ProjectId,LineFollower_V2,4c696e65-466f-46c6-9c6f-7765725f5632,rev?*%
%TF.SameCoordinates,Original*%
%TF.FileFunction,Soldermask,Top*%
%TF.FilePolarity,Negative*%
%FSLAX46Y46*%
G04 Gerber Fmt 4.6, Leading zero omitted, Abs format (unit mm)*
G04 Created by KiCad (PCBNEW 8.0.1) date 2024-07-22 13:19:01*
%MOMM*%
%LPD*%
G01*
G04 APERTURE LIST*
G04 Aperture macros list*
%AMRoundRect*
0 Rectangle with rounded corners*
0 $1 Rounding radius*
0 $2 $3 $4 $5 $6 $7 $8 $9 X,Y pos of 4 corners*
0 Add a 4 corners polygon primitive as box body*
4,1,4,$2,$3,$4,$5,$6,$7,$8,$9,$2,$3,0*
0 Add four circle primitives for the rounded corners*
1,1,$1+$1,$2,$3*
1,1,$1+$1,$4,$5*
1,1,$1+$1,$6,$7*
1,1,$1+$1,$8,$9*
0 Add four rect primitives between the rounded corners*
20,1,$1+$1,$2,$3,$4,$5,0*
20,1,$1+$1,$4,$5,$6,$7,0*
20,1,$1+$1,$6,$7,$8,$9,0*
20,1,$1+$1,$8,$9,$2,$3,0*%
%AMRotRect*
0 Rectangle, with rotation*
0 The origin of the aperture is its center*
0 $1 length*
0 $2 width*
0 $3 Rotation angle, in degrees counterclockwise*
0 Add horizontal line*
21,1,$1,$2,0,0,$3*%
G04 Aperture macros list end*
%ADD10RoundRect,0.225000X0.225000X0.250000X-0.225000X0.250000X-0.225000X-0.250000X0.225000X-0.250000X0*%
%ADD11RotRect,1.500000X1.000000X313.000000*%
%ADD12RoundRect,0.250000X0.475000X-0.250000X0.475000X0.250000X-0.475000X0.250000X-0.475000X-0.250000X0*%
%ADD13C,0.800000*%
%ADD14C,6.400000*%
%ADD15R,0.600000X0.250000*%
%ADD16R,0.250000X0.600000*%
%ADD17R,0.250000X1.825000*%
%ADD18RoundRect,0.225000X0.250000X-0.225000X0.250000X0.225000X-0.250000X0.225000X-0.250000X-0.225000X0*%
%ADD19R,2.808000X1.282500*%
%ADD20RoundRect,0.200000X0.200000X0.275000X-0.200000X0.275000X-0.200000X-0.275000X0.200000X-0.275000X0*%
%ADD21RoundRect,0.200000X-0.200000X-0.275000X0.200000X-0.275000X0.200000X0.275000X-0.200000X0.275000X0*%
%ADD22RoundRect,0.250000X-0.475000X0.250000X-0.475000X-0.250000X0.475000X-0.250000X0.475000X0.250000X0*%
%ADD23RoundRect,0.225000X-0.250000X0.225000X-0.250000X-0.225000X0.250000X-0.225000X0.250000X0.225000X0*%
%ADD24RotRect,1.500000X1.000000X47.000000*%
%ADD25RoundRect,0.225000X-0.335876X-0.017678X-0.017678X-0.335876X0.335876X0.017678X0.017678X0.335876X0*%
%ADD26R,0.280000X0.665000*%
%ADD27R,0.665000X0.280000*%
%ADD28R,1.000000X2.000000*%
%ADD29RoundRect,0.225000X-0.225000X-0.250000X0.225000X-0.250000X0.225000X0.250000X-0.225000X0.250000X0*%
%ADD30R,0.800000X0.800000*%
%ADD31R,1.070000X0.532000*%
%ADD32R,1.920000X0.840000*%
%ADD33O,1.865000X0.630000*%
%ADD34R,1.700000X1.700000*%
%ADD35O,1.700000X1.700000*%
%ADD36RotRect,0.840000X1.920000X45.000000*%
%ADD37RoundRect,0.200000X0.275000X-0.200000X0.275000X0.200000X-0.275000X0.200000X-0.275000X-0.200000X0*%
%ADD38RoundRect,0.200000X-0.275000X0.200000X-0.275000X-0.200000X0.275000X-0.200000X0.275000X0.200000X0*%
%ADD39R,1.500000X0.900000*%
%ADD40R,0.900000X1.500000*%
%ADD41R,0.900000X0.900000*%
%ADD42C,1.800000*%
%ADD43C,1.524000*%
%ADD44R,3.000000X1.600000*%
%ADD45R,6.500000X6.000000*%
%ADD46R,0.300000X1.250000*%
%ADD47R,1.800000X2.200000*%
%ADD48R,6.500000X1.580000*%
%ADD49R,0.806500X0.864000*%
%ADD50R,0.900000X0.400000*%
%ADD51R,2.700000X2.050000*%
%ADD52C,1.700000*%
%ADD53O,2.100000X1.100000*%
%ADD54O,1.800000X1.100000*%
%ADD55R,1.150000X0.300000*%
%ADD56R,2.800000X2.800000*%
%ADD57C,2.800000*%
%ADD58R,0.650000X1.525000*%
%ADD59R,3.100000X2.400000*%
%ADD60RoundRect,0.250000X-0.250000X-0.475000X0.250000X-0.475000X0.250000X0.475000X-0.250000X0.475000X0*%
%ADD61R,0.864000X0.806500*%
%ADD62R,1.650000X0.400000*%
G04 APERTURE END LIST*
D10*
%TO.C,C4*%
X104600000Y-85200000D03*
X103050000Y-85200000D03*
%TD*%
D11*
%TO.C,LED11*%
X186958525Y-61908006D03*
X184545057Y-64158601D03*
X187955049Y-67815370D03*
X190368517Y-65564775D03*
%TD*%
D12*
%TO.C,C20*%
X191380000Y-88867500D03*
X191380000Y-86967500D03*
%TD*%
D13*
%TO.C,REF\u002A\u002A*%
X176350000Y-109750000D03*
X177052944Y-108052944D03*
X177052944Y-111447056D03*
X178750000Y-107350000D03*
D14*
X178750000Y-109750000D03*
D13*
X178750000Y-112150000D03*
X180447056Y-108052944D03*
X180447056Y-111447056D03*
X181150000Y-109750000D03*
%TD*%
D15*
%TO.C,IC3*%
X167300000Y-88962500D03*
X167300000Y-89612500D03*
X167300000Y-90262500D03*
X167300000Y-90762500D03*
D16*
X167700000Y-91487500D03*
X168200000Y-91487500D03*
X168700000Y-91487500D03*
D15*
X169100000Y-90762500D03*
X169100000Y-90262500D03*
X169100000Y-89612500D03*
X169100000Y-88962500D03*
D17*
X168200000Y-89412500D03*
%TD*%
D18*
%TO.C,C5*%
X136990000Y-61550000D03*
X136990000Y-60000000D03*
%TD*%
D19*
%TO.C,R22*%
X134500000Y-102316000D03*
X134500000Y-99434000D03*
%TD*%
D20*
%TO.C,R6*%
X172775000Y-96200000D03*
X171125000Y-96200000D03*
%TD*%
D12*
%TO.C,C24*%
X192130000Y-95792500D03*
X192130000Y-93892500D03*
%TD*%
D21*
%TO.C,R9*%
X171125000Y-94700000D03*
X172775000Y-94700000D03*
%TD*%
D20*
%TO.C,R11*%
X183955000Y-82167500D03*
X182305000Y-82167500D03*
%TD*%
D22*
%TO.C,C25*%
X164200000Y-81275000D03*
X164200000Y-83175000D03*
%TD*%
D13*
%TO.C,REF\u002A\u002A*%
X176402944Y-136552944D03*
X177105888Y-134855888D03*
X177105888Y-138250000D03*
X178802944Y-134152944D03*
D14*
X178802944Y-136552944D03*
D13*
X178802944Y-138952944D03*
X180500000Y-134855888D03*
X180500000Y-138250000D03*
X181202944Y-136552944D03*
%TD*%
D23*
%TO.C,C8*%
X133800000Y-60025000D03*
X133800000Y-61575000D03*
%TD*%
D24*
%TO.C,LED7*%
X115607004Y-41978618D03*
X118020472Y-44229213D03*
X121430464Y-40572444D03*
X119016996Y-38321849D03*
%TD*%
D25*
%TO.C,C7*%
X161653984Y-73653984D03*
X162750000Y-74750000D03*
%TD*%
D26*
%TO.C,IC8*%
X151657500Y-41842500D03*
D27*
X150750000Y-42250000D03*
X150750000Y-42750000D03*
X150750000Y-43250000D03*
X150750000Y-43750000D03*
X150750000Y-44250000D03*
X150750000Y-44750000D03*
D26*
X151657500Y-45157500D03*
X152157500Y-45157500D03*
D27*
X153065000Y-44750000D03*
X153065000Y-44250000D03*
X153065000Y-43750000D03*
X153065000Y-43250000D03*
X153065000Y-42750000D03*
X153065000Y-42250000D03*
D26*
X152157500Y-41842500D03*
D28*
X151907500Y-43500000D03*
%TD*%
D29*
%TO.C,C29*%
X139100000Y-99125000D03*
X140650000Y-99125000D03*
%TD*%
D20*
%TO.C,R18*%
X120825000Y-79750000D03*
X119175000Y-79750000D03*
%TD*%
D19*
%TO.C,R21*%
X149625000Y-99434000D03*
X149625000Y-102316000D03*
%TD*%
D12*
%TO.C,C26*%
X181880000Y-95792500D03*
X181880000Y-93892500D03*
%TD*%
D29*
%TO.C,C34*%
X144825000Y-45800000D03*
X146375000Y-45800000D03*
%TD*%
D30*
%TO.C,LED13*%
X130743000Y-56500000D03*
X130750000Y-58099000D03*
%TD*%
D29*
%TO.C,C36*%
X131825000Y-40000000D03*
X133375000Y-40000000D03*
%TD*%
D13*
%TO.C,REF\u002A\u002A*%
X102850000Y-109750000D03*
X103552944Y-108052944D03*
X103552944Y-111447056D03*
X105250000Y-107350000D03*
D14*
X105250000Y-109750000D03*
D13*
X105250000Y-112150000D03*
X106947056Y-108052944D03*
X106947056Y-111447056D03*
X107650000Y-109750000D03*
%TD*%
D21*
%TO.C,R20*%
X138442500Y-114460000D03*
X140092500Y-114460000D03*
%TD*%
D31*
%TO.C,Q1*%
X166335000Y-97905000D03*
X166335000Y-95995000D03*
X164065000Y-96950000D03*
%TD*%
D23*
%TO.C,C38*%
X127125000Y-92100000D03*
X127125000Y-93650000D03*
%TD*%
D32*
%TO.C,SW2*%
X138010000Y-64400000D03*
X130390000Y-64400000D03*
%TD*%
D24*
%TO.C,LED3*%
X86281075Y-73426827D03*
X88694543Y-75677422D03*
X92104535Y-72020653D03*
X89691067Y-69770058D03*
%TD*%
D10*
%TO.C,C21*%
X172725000Y-93200000D03*
X171175000Y-93200000D03*
%TD*%
D33*
%TO.C,IC10*%
X139835000Y-108930000D03*
X139835000Y-110200000D03*
X139835000Y-111470000D03*
X139835000Y-112740000D03*
X145200000Y-112740000D03*
X145200000Y-111470000D03*
X145200000Y-110200000D03*
X145200000Y-108930000D03*
%TD*%
D21*
%TO.C,R19*%
X141692500Y-114460000D03*
X143342500Y-114460000D03*
%TD*%
D20*
%TO.C,R16*%
X120825000Y-77750000D03*
X119175000Y-77750000D03*
%TD*%
D34*
%TO.C,J1*%
X133920000Y-83000000D03*
D35*
X136460000Y-83000000D03*
X139000000Y-83000000D03*
X141540000Y-83000000D03*
X144080000Y-83000000D03*
X146620000Y-83000000D03*
X149160000Y-83000000D03*
X151700000Y-83000000D03*
X154240000Y-83000000D03*
X156780000Y-83000000D03*
%TD*%
D36*
%TO.C,SW1*%
X169194077Y-72444077D03*
X163805923Y-67055923D03*
%TD*%
D30*
%TO.C,LED14*%
X129027500Y-56504000D03*
X129034500Y-58103000D03*
%TD*%
D34*
%TO.C,REF\u002A\u002A*%
X120960000Y-103620000D03*
D35*
X118420000Y-103620000D03*
X115880000Y-103620000D03*
X113340000Y-103620000D03*
X110800000Y-103620000D03*
X108260000Y-103620000D03*
X105720000Y-103620000D03*
X103180000Y-103620000D03*
X100640000Y-103620000D03*
X98100000Y-103620000D03*
%TD*%
D13*
%TO.C,REF\u002A\u002A*%
X102850000Y-136500000D03*
X103552944Y-134802944D03*
X103552944Y-138197056D03*
X105250000Y-134100000D03*
D14*
X105250000Y-136500000D03*
D13*
X105250000Y-138900000D03*
X106947056Y-134802944D03*
X106947056Y-138197056D03*
X107650000Y-136500000D03*
%TD*%
D31*
%TO.C,Q2*%
X180890000Y-80622500D03*
X180890000Y-78712500D03*
X178620000Y-79667500D03*
%TD*%
D26*
%TO.C,IC5*%
X134407500Y-47842500D03*
D27*
X133500000Y-48250000D03*
X133500000Y-48750000D03*
X133500000Y-49250000D03*
X133500000Y-49750000D03*
X133500000Y-50250000D03*
X133500000Y-50750000D03*
D26*
X134407500Y-51157500D03*
X134907500Y-51157500D03*
D27*
X135815000Y-50750000D03*
X135815000Y-50250000D03*
X135815000Y-49750000D03*
X135815000Y-49250000D03*
X135815000Y-48750000D03*
X135815000Y-48250000D03*
D26*
X134907500Y-47842500D03*
D28*
X134657500Y-49500000D03*
%TD*%
D13*
%TO.C,REF\u002A\u002A*%
X121350000Y-109750000D03*
X122052944Y-108052944D03*
X122052944Y-111447056D03*
X123750000Y-107350000D03*
D14*
X123750000Y-109750000D03*
D13*
X123750000Y-112150000D03*
X125447056Y-108052944D03*
X125447056Y-111447056D03*
X126150000Y-109750000D03*
%TD*%
D37*
%TO.C,R5*%
X189300000Y-101225000D03*
X189300000Y-99575000D03*
%TD*%
D23*
%TO.C,C17*%
X170700000Y-88275000D03*
X170700000Y-89825000D03*
%TD*%
D20*
%TO.C,R12*%
X120825000Y-74250000D03*
X119175000Y-74250000D03*
%TD*%
D11*
%TO.C,LED8*%
X164964078Y-38321849D03*
X162550610Y-40572444D03*
X165960602Y-44229213D03*
X168374070Y-41978618D03*
%TD*%
D18*
%TO.C,C11*%
X165700000Y-89750000D03*
X165700000Y-88200000D03*
%TD*%
D38*
%TO.C,R7*%
X189630000Y-81342500D03*
X189630000Y-82992500D03*
%TD*%
%TO.C,R3*%
X135400000Y-59975000D03*
X135400000Y-61625000D03*
%TD*%
%TO.C,R26*%
X129000000Y-59599000D03*
X129000000Y-61249000D03*
%TD*%
D39*
%TO.C,IC2*%
X140446250Y-60543500D03*
X140446250Y-61813500D03*
X140446250Y-63083500D03*
X140446250Y-64353500D03*
X140446250Y-65623500D03*
X140446250Y-66893500D03*
X140446250Y-68163500D03*
X140446250Y-69433500D03*
X140446250Y-70703500D03*
X140446250Y-71973500D03*
X140446250Y-73243500D03*
X140446250Y-74513500D03*
X140446250Y-75783500D03*
X140446250Y-77053500D03*
D40*
X142211250Y-78333500D03*
X143481250Y-78333500D03*
X144751250Y-78333500D03*
X146021250Y-78333500D03*
X147291250Y-78333500D03*
X148561250Y-78333500D03*
X149831250Y-78333500D03*
X151101250Y-78333500D03*
X152371250Y-78333500D03*
X153641250Y-78333500D03*
X154911250Y-78333500D03*
X156181250Y-78303500D03*
D39*
X157946250Y-77053500D03*
X157946250Y-75783500D03*
X157946250Y-74513500D03*
X157946250Y-73243500D03*
X157946250Y-71973500D03*
X157946250Y-70703500D03*
X157946250Y-69433500D03*
X157946250Y-68163500D03*
X157946250Y-66893500D03*
X157946250Y-65623500D03*
X157946250Y-64353500D03*
X157946250Y-63083500D03*
X157946250Y-61813500D03*
X157946250Y-60543500D03*
D41*
X146296250Y-66863500D03*
X146296250Y-68263500D03*
X146296250Y-69663500D03*
X147696250Y-66863500D03*
X147696250Y-68263500D03*
X147696250Y-69663500D03*
X149096250Y-66863500D03*
X149096250Y-68263500D03*
X149096250Y-69663500D03*
%TD*%
D21*
%TO.C,R14*%
X132925000Y-76000000D03*
X134575000Y-76000000D03*
%TD*%
D22*
%TO.C,C15*%
X182630000Y-86967500D03*
X182630000Y-88867500D03*
%TD*%
D42*
%TO.C,CN1*%
X131145000Y-100875000D03*
X128605000Y-100875000D03*
%TD*%
D43*
%TO.C,U2*%
X122498500Y-70999000D03*
X122498500Y-69000000D03*
X124500000Y-70999000D03*
X124500000Y-69000000D03*
X126499000Y-70999000D03*
X126499000Y-69000000D03*
X128498000Y-70999000D03*
X128498000Y-69000000D03*
X130502500Y-70999000D03*
X130502500Y-69000000D03*
%TD*%
D20*
%TO.C,R15*%
X120825000Y-81250000D03*
X119175000Y-81250000D03*
%TD*%
D37*
%TO.C,R4*%
X193200000Y-101200000D03*
X193200000Y-99550000D03*
%TD*%
D34*
%TO.C,REF\u002A\u002A*%
X120960000Y-101080000D03*
D35*
X118420000Y-101080000D03*
X115880000Y-101080000D03*
X113340000Y-101080000D03*
X110800000Y-101080000D03*
X108260000Y-101080000D03*
X105720000Y-101080000D03*
X103180000Y-101080000D03*
X100640000Y-101080000D03*
X98100000Y-101080000D03*
%TD*%
D15*
%TO.C,IC4*%
X187900000Y-89250000D03*
X187900000Y-88600000D03*
X187900000Y-87950000D03*
X187900000Y-87450000D03*
D16*
X187500000Y-86725000D03*
X187000000Y-86725000D03*
X186500000Y-86725000D03*
D15*
X186100000Y-87450000D03*
X186100000Y-87950000D03*
X186100000Y-88600000D03*
X186100000Y-89250000D03*
D17*
X187000000Y-88800000D03*
%TD*%
D13*
%TO.C,REF\u002A\u002A*%
X139600000Y-136000000D03*
X140302944Y-134302944D03*
X140302944Y-137697056D03*
X142000000Y-133600000D03*
D14*
X142000000Y-136000000D03*
D13*
X142000000Y-138400000D03*
X143697056Y-134302944D03*
X143697056Y-137697056D03*
X144400000Y-136000000D03*
%TD*%
D44*
%TO.C,IC1*%
X104028000Y-88195998D03*
X104028000Y-83625998D03*
D45*
X97343000Y-85910998D03*
%TD*%
D18*
%TO.C,C10*%
X188130000Y-84442500D03*
X188130000Y-82892500D03*
%TD*%
D10*
%TO.C,C27*%
X129775000Y-74000000D03*
X128225000Y-74000000D03*
%TD*%
D24*
%TO.C,LED4*%
X93612557Y-65564775D03*
X96026025Y-67815370D03*
X99436017Y-64158601D03*
X97022549Y-61908006D03*
%TD*%
D46*
%TO.C,CON1*%
X151750000Y-37000000D03*
X151250000Y-37000000D03*
X150750000Y-37000000D03*
X150250000Y-37000000D03*
X149750000Y-37000000D03*
X149250000Y-37000000D03*
X148750000Y-37000000D03*
X148250000Y-37000000D03*
X147750000Y-37000000D03*
X147250000Y-37000000D03*
X146750000Y-37000000D03*
X146250000Y-37000000D03*
X145750000Y-37000000D03*
X145250000Y-37000000D03*
X144750000Y-37000000D03*
X144250000Y-37000000D03*
X143750000Y-37000000D03*
X143250000Y-37000000D03*
X142750000Y-37000000D03*
X142250000Y-37000000D03*
X141750000Y-37000000D03*
X141250000Y-37000000D03*
X140750000Y-37000000D03*
X140250000Y-37000000D03*
X139750000Y-37000000D03*
X139250000Y-37000000D03*
X138750000Y-37000000D03*
X138250000Y-37000000D03*
X137750000Y-37000000D03*
X137250000Y-37000000D03*
X136750000Y-37000000D03*
X136250000Y-37000000D03*
X135750000Y-37000000D03*
X135250000Y-37000000D03*
X134750000Y-37000000D03*
X134250000Y-37000000D03*
X133750000Y-37000000D03*
X133250000Y-37000000D03*
X132750000Y-37000000D03*
X132250000Y-37000000D03*
D47*
X130350000Y-34475000D03*
X153650000Y-34475000D03*
%TD*%
D18*
%TO.C,C6*%
X138500000Y-61550000D03*
X138500000Y-60000000D03*
%TD*%
D48*
%TO.C,L2*%
X187000000Y-91657500D03*
X187000000Y-96177500D03*
%TD*%
D18*
%TO.C,C19*%
X184380000Y-88942500D03*
X184380000Y-87392500D03*
%TD*%
D49*
%TO.C,R24*%
X146753500Y-98125000D03*
X145246500Y-98125000D03*
%TD*%
D50*
%TO.C,IC11*%
X139025000Y-101900000D03*
X139025000Y-101250000D03*
X139025000Y-100600000D03*
X137225000Y-100600000D03*
X137225000Y-101250000D03*
X137225000Y-101900000D03*
%TD*%
D26*
%TO.C,IC6*%
X129657500Y-41342500D03*
D27*
X128750000Y-41750000D03*
X128750000Y-42250000D03*
X128750000Y-42750000D03*
X128750000Y-43250000D03*
X128750000Y-43750000D03*
X128750000Y-44250000D03*
D26*
X129657500Y-44657500D03*
X130157500Y-44657500D03*
D27*
X131065000Y-44250000D03*
X131065000Y-43750000D03*
X131065000Y-43250000D03*
X131065000Y-42750000D03*
X131065000Y-42250000D03*
X131065000Y-41750000D03*
D26*
X130157500Y-41342500D03*
D28*
X129907500Y-43000000D03*
%TD*%
D51*
%TO.C,L1*%
X168200000Y-86325000D03*
X168200000Y-81625000D03*
%TD*%
D50*
%TO.C,IC12*%
X145100000Y-99850000D03*
X145100000Y-100500000D03*
X145100000Y-101150000D03*
X146900000Y-101150000D03*
X146900000Y-100500000D03*
X146900000Y-99850000D03*
%TD*%
D34*
%TO.C,H1*%
X140960000Y-87250000D03*
D52*
X143500000Y-87250000D03*
X146040000Y-87250000D03*
%TD*%
D23*
%TO.C,C16*%
X189630000Y-84392500D03*
X189630000Y-85942500D03*
%TD*%
D21*
%TO.C,R13*%
X132925000Y-77500000D03*
X134575000Y-77500000D03*
%TD*%
D26*
%TO.C,IC7*%
X146750000Y-47265500D03*
D27*
X145842500Y-47673000D03*
X145842500Y-48173000D03*
X145842500Y-48673000D03*
X145842500Y-49173000D03*
X145842500Y-49673000D03*
X145842500Y-50173000D03*
D26*
X146750000Y-50580500D03*
X147250000Y-50580500D03*
D27*
X148157500Y-50173000D03*
X148157500Y-49673000D03*
X148157500Y-49173000D03*
X148157500Y-48673000D03*
X148157500Y-48173000D03*
X148157500Y-47673000D03*
D26*
X147250000Y-47265500D03*
D28*
X147000000Y-48923000D03*
%TD*%
D13*
%TO.C,REF\u002A\u002A*%
X157850000Y-109750000D03*
X158552944Y-108052944D03*
X158552944Y-111447056D03*
X160250000Y-107350000D03*
D14*
X160250000Y-109750000D03*
D13*
X160250000Y-112150000D03*
X161947056Y-108052944D03*
X161947056Y-111447056D03*
X162650000Y-109750000D03*
%TD*%
D22*
%TO.C,C18*%
X172450000Y-87950000D03*
X172450000Y-89850000D03*
%TD*%
D29*
%TO.C,C22*%
X182355000Y-85167500D03*
X183905000Y-85167500D03*
%TD*%
D38*
%TO.C,R25*%
X130813000Y-59520000D03*
X130813000Y-61170000D03*
%TD*%
D11*
%TO.C,LED9*%
X172295561Y-46183901D03*
X169882093Y-48434496D03*
X173292085Y-52091265D03*
X175705553Y-49840670D03*
%TD*%
D53*
%TO.C,USB1*%
X88589250Y-79332499D03*
D54*
X84409250Y-79332499D03*
D53*
X88589250Y-87972499D03*
D54*
X84409250Y-87972499D03*
D55*
X89154250Y-80302499D03*
X89154250Y-81102499D03*
X89154250Y-82402499D03*
X89154250Y-83402499D03*
X89154250Y-83902499D03*
X89155250Y-84901999D03*
X89154750Y-86202499D03*
X89154250Y-87002499D03*
X89154250Y-86702499D03*
X89154750Y-85902499D03*
X89154250Y-85402499D03*
X89154250Y-84402499D03*
X89154250Y-82902499D03*
X89155250Y-81902499D03*
X89154250Y-81402499D03*
X89154250Y-80602499D03*
%TD*%
D11*
%TO.C,LED12*%
X194290008Y-69770058D03*
X191876540Y-72020653D03*
X195286532Y-75677422D03*
X197700000Y-73426827D03*
%TD*%
D10*
%TO.C,C2*%
X104600000Y-86700000D03*
X103050000Y-86700000D03*
%TD*%
D29*
%TO.C,C9*%
X165675000Y-94275000D03*
X167225000Y-94275000D03*
%TD*%
D30*
%TO.C,LED2*%
X189303500Y-104199500D03*
X189296500Y-102600500D03*
%TD*%
D13*
%TO.C,REF\u002A\u002A*%
X139600000Y-126052944D03*
X140302944Y-124355888D03*
X140302944Y-127750000D03*
X142000000Y-123652944D03*
D14*
X142000000Y-126052944D03*
D13*
X142000000Y-128452944D03*
X143697056Y-124355888D03*
X143697056Y-127750000D03*
X144400000Y-126052944D03*
%TD*%
D56*
%TO.C,U1*%
X195500000Y-83660000D03*
D57*
X195500000Y-79700000D03*
%TD*%
D22*
%TO.C,C23*%
X172200000Y-81275000D03*
X172200000Y-83175000D03*
%TD*%
D24*
%TO.C,LED6*%
X108275522Y-49840670D03*
X110688990Y-52091265D03*
X114098982Y-48434496D03*
X111685514Y-46183901D03*
%TD*%
D34*
%TO.C,REF\u002A\u002A*%
X120960000Y-98540000D03*
D35*
X118420000Y-98540000D03*
X115880000Y-98540000D03*
X113340000Y-98540000D03*
X110800000Y-98540000D03*
X108260000Y-98540000D03*
X105720000Y-98540000D03*
X103180000Y-98540000D03*
X100640000Y-98540000D03*
X98100000Y-98540000D03*
%TD*%
D21*
%TO.C,R8*%
X171125000Y-91700000D03*
X172775000Y-91700000D03*
%TD*%
D58*
%TO.C,IC14*%
X155030000Y-90163000D03*
X153760000Y-90163000D03*
X152490000Y-90163000D03*
X151220000Y-90163000D03*
X151220000Y-95587000D03*
X152490000Y-95587000D03*
X153760000Y-95587000D03*
X155030000Y-95587000D03*
D59*
X153125000Y-92875000D03*
%TD*%
D10*
%TO.C,C32*%
X146775000Y-96500000D03*
X145225000Y-96500000D03*
%TD*%
D12*
%TO.C,C12*%
X163950000Y-89675000D03*
X163950000Y-87775000D03*
%TD*%
D18*
%TO.C,C13*%
X165700000Y-92750000D03*
X165700000Y-91200000D03*
%TD*%
D20*
%TO.C,R10*%
X183955000Y-83667500D03*
X182305000Y-83667500D03*
%TD*%
D34*
%TO.C,REF\u002A\u002A*%
X120960000Y-96000000D03*
D35*
X118420000Y-96000000D03*
X115880000Y-96000000D03*
X113340000Y-96000000D03*
X110800000Y-96000000D03*
X108260000Y-96000000D03*
X105720000Y-96000000D03*
X103180000Y-96000000D03*
X100640000Y-96000000D03*
X98100000Y-96000000D03*
%TD*%
D29*
%TO.C,C30*%
X144975000Y-102500000D03*
X146525000Y-102500000D03*
%TD*%
D20*
%TO.C,R17*%
X120825000Y-76250000D03*
X119175000Y-76250000D03*
%TD*%
D60*
%TO.C,C1*%
X106350000Y-88100000D03*
X108250000Y-88100000D03*
%TD*%
D30*
%TO.C,LED1*%
X193203500Y-104099500D03*
X193196500Y-102500500D03*
%TD*%
D61*
%TO.C,R23*%
X138125000Y-97253500D03*
X138125000Y-95746500D03*
%TD*%
D24*
%TO.C,LED5*%
X100944040Y-57702722D03*
X103357508Y-59953317D03*
X106767500Y-56296548D03*
X104354032Y-54045953D03*
%TD*%
D29*
%TO.C,C33*%
X151325000Y-40300000D03*
X152875000Y-40300000D03*
%TD*%
D10*
%TO.C,C28*%
X140525000Y-107000000D03*
X138975000Y-107000000D03*
%TD*%
D60*
%TO.C,C3*%
X106350000Y-83700000D03*
X108250000Y-83700000D03*
%TD*%
D23*
%TO.C,C14*%
X189630000Y-87392500D03*
X189630000Y-88942500D03*
%TD*%
D29*
%TO.C,C35*%
X136125000Y-46500000D03*
X137675000Y-46500000D03*
%TD*%
D13*
%TO.C,REF\u002A\u002A*%
X157850000Y-136500000D03*
X158552944Y-134802944D03*
X158552944Y-138197056D03*
X160250000Y-134100000D03*
D14*
X160250000Y-136500000D03*
D13*
X160250000Y-138900000D03*
X161947056Y-134802944D03*
X161947056Y-138197056D03*
X162650000Y-136500000D03*
%TD*%
D42*
%TO.C,CN2*%
X155520000Y-100750000D03*
X152980000Y-100750000D03*
%TD*%
D13*
%TO.C,REF\u002A\u002A*%
X121350000Y-136500000D03*
X122052944Y-134802944D03*
X122052944Y-138197056D03*
X123750000Y-134100000D03*
D14*
X123750000Y-136500000D03*
D13*
X123750000Y-138900000D03*
X125447056Y-134802944D03*
X125447056Y-138197056D03*
X126150000Y-136500000D03*
%TD*%
D11*
%TO.C,LED10*%
X179627043Y-54045953D03*
X177213575Y-56296548D03*
X180623567Y-59953317D03*
X183037035Y-57702722D03*
%TD*%
D34*
%TO.C,REF\u002A\u002A*%
X120960000Y-93460000D03*
D35*
X118420000Y-93460000D03*
X115880000Y-93460000D03*
X113340000Y-93460000D03*
X110800000Y-93460000D03*
X108260000Y-93460000D03*
X105720000Y-93460000D03*
X103180000Y-93460000D03*
X100640000Y-93460000D03*
X98100000Y-93460000D03*
%TD*%
D23*
%TO.C,C37*%
X149375000Y-91975000D03*
X149375000Y-93525000D03*
%TD*%
D62*
%TO.C,IC9*%
X123707500Y-75350000D03*
X123707500Y-76000000D03*
X123707500Y-76650000D03*
X123707500Y-77300000D03*
X123707500Y-77950000D03*
X123707500Y-78600000D03*
X123707500Y-79250000D03*
X123707500Y-79900000D03*
X123707500Y-80550000D03*
X123707500Y-81200000D03*
X123707500Y-81850000D03*
X123707500Y-82500000D03*
X129752500Y-82500000D03*
X129752500Y-81850000D03*
X129752500Y-81200000D03*
X129752500Y-80550000D03*
X129752500Y-79900000D03*
X129752500Y-79250000D03*
X129752500Y-78600000D03*
X129752500Y-77950000D03*
X129752500Y-77300000D03*
X129752500Y-76650000D03*
X129752500Y-76000000D03*
X129752500Y-75350000D03*
%TD*%
D58*
%TO.C,IC13*%
X132905000Y-90163000D03*
X131635000Y-90163000D03*
X130365000Y-90163000D03*
X129095000Y-90163000D03*
X129095000Y-95587000D03*
X130365000Y-95587000D03*
X131635000Y-95587000D03*
X132905000Y-95587000D03*
D59*
X131000000Y-92875000D03*
%TD*%
D18*
%TO.C,C31*%
X140750000Y-97275000D03*
X140750000Y-95725000D03*
%TD*%
M02*
