%TF.GenerationSoftware,KiCad,Pcbnew,8.0.1*%
%TF.CreationDate,2024-07-21T18:11:55+02:00*%
%TF.ProjectId,LineFollower_V2,4c696e65-466f-46c6-9c6f-7765725f5632,rev?*%
%TF.SameCoordinates,Original*%
%TF.FileFunction,Copper,L2,Inr*%
%TF.FilePolarity,Positive*%
%FSLAX46Y46*%
G04 Gerber Fmt 4.6, Leading zero omitted, Abs format (unit mm)*
G04 Created by KiCad (PCBNEW 8.0.1) date 2024-07-21 18:11:55*
%MOMM*%
%LPD*%
G01*
G04 APERTURE LIST*
%TA.AperFunction,ComponentPad*%
%ADD10C,1.524000*%
%TD*%
%TA.AperFunction,ComponentPad*%
%ADD11C,1.800000*%
%TD*%
%TA.AperFunction,ComponentPad*%
%ADD12C,1.700000*%
%TD*%
%TA.AperFunction,ComponentPad*%
%ADD13R,1.700000X1.700000*%
%TD*%
%TA.AperFunction,ComponentPad*%
%ADD14O,1.800000X1.100000*%
%TD*%
%TA.AperFunction,ComponentPad*%
%ADD15O,2.100000X1.100000*%
%TD*%
%TA.AperFunction,ComponentPad*%
%ADD16C,2.800000*%
%TD*%
%TA.AperFunction,ComponentPad*%
%ADD17R,2.800000X2.800000*%
%TD*%
%TA.AperFunction,ViaPad*%
%ADD18C,0.650000*%
%TD*%
%TA.AperFunction,ViaPad*%
%ADD19C,0.600000*%
%TD*%
G04 APERTURE END LIST*
D10*
%TO.N,GND*%
%TO.C,U2*%
X130502500Y-69000000D03*
X130502500Y-70999000D03*
%TO.N,3V3*%
X128498000Y-69000000D03*
X128498000Y-70999000D03*
%TO.N,SDA_R*%
X126499000Y-69000000D03*
%TO.N,SCL_R*%
X126499000Y-70999000D03*
%TO.N,SDA_L*%
X124500000Y-69000000D03*
%TO.N,SCL_L*%
X124500000Y-70999000D03*
%TO.N,unconnected-(U2-Pad2)*%
X122498500Y-69000000D03*
%TO.N,unconnected-(U2-Pad1)*%
X122498500Y-70999000D03*
%TD*%
D11*
%TO.N,I_SENS_1_OUT*%
%TO.C,CN1*%
X128480000Y-102500000D03*
%TO.N,Net-(IC13-OUT2)*%
X131020000Y-102500000D03*
%TD*%
D12*
%TO.N,3V3_SWITCHING_OUT*%
%TO.C,H1*%
X146040000Y-87250000D03*
%TO.N,3V3*%
X143500000Y-87250000D03*
D13*
%TO.N,3V3_LDO_OUT*%
X140960000Y-87250000D03*
%TD*%
D14*
%TO.N,GND*%
%TO.C,USB1*%
X84409250Y-87972499D03*
D15*
X88589250Y-87972499D03*
D14*
X84409250Y-79332499D03*
D15*
X88589250Y-79332499D03*
%TD*%
D16*
%TO.N,GND*%
%TO.C,U1*%
X195500000Y-79700000D03*
D17*
%TO.N,VCC*%
X195500000Y-83660000D03*
%TD*%
D11*
%TO.N,I_SENS_2_OUT*%
%TO.C,CN2*%
X152980000Y-102500000D03*
%TO.N,Net-(IC14-OUT2)*%
X155520000Y-102500000D03*
%TD*%
D18*
%TO.N,GND*%
X160299613Y-61100387D03*
X124000000Y-74250000D03*
D19*
%TO.N,USB_VBUS*%
X101375000Y-85575000D03*
D18*
X101875000Y-86075000D03*
X101375000Y-85575000D03*
%TO.N,GND*%
X91000000Y-73400000D03*
X129900000Y-43700000D03*
X187250000Y-66750000D03*
X105800000Y-57600000D03*
X186755000Y-82667500D03*
X173450000Y-84450000D03*
X173450000Y-86700000D03*
X97946500Y-86358499D03*
X170700000Y-85200000D03*
X84446500Y-80652499D03*
X166950000Y-95700000D03*
X140750000Y-33500000D03*
X162700000Y-85950000D03*
X187130000Y-85667500D03*
X185630000Y-82167500D03*
X83446500Y-80652499D03*
X165450000Y-85200000D03*
X168450000Y-95700000D03*
X186380000Y-84417500D03*
X170700000Y-85950000D03*
X168200000Y-92700000D03*
X168950000Y-94200000D03*
X165450000Y-85950000D03*
X167700000Y-93450000D03*
X186880000Y-84917500D03*
X97875000Y-84325000D03*
X97875000Y-88575000D03*
X120400000Y-41800000D03*
X167200000Y-96450000D03*
X170700000Y-84450000D03*
X168700000Y-96450000D03*
X165450000Y-84450000D03*
X162700000Y-85200000D03*
X185980000Y-83346602D03*
X186710225Y-83346602D03*
X165000000Y-43000000D03*
X86446500Y-86652499D03*
X162700000Y-84450000D03*
X145250000Y-33500000D03*
X186380000Y-82167500D03*
X172250000Y-50750000D03*
X137000000Y-52700000D03*
X184541320Y-82184975D03*
X86446500Y-88152499D03*
X186054997Y-82667500D03*
D19*
X122958966Y-61558966D03*
D18*
X98400000Y-65400000D03*
X85446500Y-80652499D03*
X179750000Y-58750000D03*
X86446500Y-79152499D03*
X173450000Y-85200000D03*
X86446500Y-80652499D03*
X187130000Y-82167500D03*
X134600000Y-50100000D03*
X169200000Y-93450000D03*
X187880000Y-82167500D03*
X167950000Y-94950000D03*
X167700000Y-95700000D03*
X168200000Y-94200000D03*
X162700000Y-86700000D03*
X185880000Y-83917500D03*
X147067500Y-49475000D03*
X113200000Y-49800000D03*
X186880000Y-83917500D03*
X168950000Y-92700000D03*
X169200000Y-95700000D03*
X136250000Y-33500000D03*
X151750000Y-33500000D03*
X194250000Y-74500000D03*
X187255000Y-83167500D03*
X185630000Y-82917500D03*
X165450000Y-86950000D03*
X170700000Y-86950000D03*
X131250000Y-77500000D03*
X151950000Y-44050000D03*
X168450000Y-93450000D03*
X84446500Y-86652499D03*
X167950000Y-96450000D03*
X83446500Y-86652499D03*
X168700000Y-94950000D03*
X173450000Y-85950000D03*
X165000000Y-68200000D03*
X85446500Y-86652499D03*
%TO.N,3V3*%
X135100000Y-46500000D03*
X144000000Y-61813500D03*
X130600000Y-40000000D03*
X150000000Y-35600000D03*
X152000000Y-40900000D03*
X157500006Y-43100000D03*
X157500000Y-45300000D03*
X143800000Y-45800000D03*
%TO.N,ESP_BOOT0*%
X167750000Y-71000000D03*
%TO.N,VCC*%
X192880000Y-86917500D03*
X163950000Y-89675000D03*
X181130000Y-86917500D03*
X183630000Y-86917500D03*
X173950000Y-89450000D03*
X180380000Y-86917500D03*
X174950000Y-88700000D03*
X174200000Y-88700000D03*
X193380000Y-86917500D03*
X171450000Y-89950000D03*
X174700000Y-90200000D03*
X174700000Y-89450000D03*
X173950000Y-90200000D03*
X163200000Y-89700000D03*
X162400000Y-89700000D03*
X192380000Y-86917500D03*
X190380000Y-86917500D03*
X164950000Y-89700000D03*
X179630000Y-86917500D03*
%TO.N,3V3_SWITCHING_OUT*%
X168000000Y-79750000D03*
X167250000Y-79750000D03*
X167000000Y-80500000D03*
X164250000Y-79750000D03*
X166500000Y-79750000D03*
X165000000Y-79750000D03*
X175800000Y-91000000D03*
X164750000Y-80500000D03*
X165750000Y-79750000D03*
X166250000Y-80500000D03*
X167750000Y-80500000D03*
X165500000Y-80500000D03*
X175800000Y-85400000D03*
%TO.N,+5V*%
X178880000Y-85667500D03*
X94600000Y-64600000D03*
X109200000Y-48800000D03*
X199089968Y-75738187D03*
X180800000Y-55200000D03*
X188200000Y-63200000D03*
X116600000Y-41000000D03*
X166000000Y-39400000D03*
X195200000Y-70800000D03*
X200600001Y-76600000D03*
X151000000Y-32500000D03*
X200005212Y-76969094D03*
X199625890Y-76274110D03*
X87400000Y-72200000D03*
X102000000Y-56600000D03*
X178880000Y-92000000D03*
X173400000Y-47200000D03*
%TO.N,PG_3V3*%
X169950000Y-90950000D03*
X169950000Y-97700000D03*
%TO.N,PG_5V*%
X181005000Y-81417500D03*
X185130000Y-85517500D03*
X188505000Y-81417500D03*
%TO.N,CLK_Shift*%
X132787280Y-47761250D03*
X149800000Y-42100000D03*
X127670858Y-40829142D03*
X144700000Y-47600000D03*
X155900000Y-43100000D03*
%TO.N,LOAD_Shift*%
X156700003Y-43100000D03*
X128800000Y-39900000D03*
X145100000Y-46900000D03*
X134000000Y-46800000D03*
X150600000Y-41300000D03*
%TO.N,Shift_DATA*%
X135500000Y-54600000D03*
X142100000Y-64400000D03*
%TO.N,Net-(USB1-CC2)*%
X90596500Y-85252499D03*
%TO.N,Net-(USB1-CC1)*%
X90446500Y-82452499D03*
%TO.N,USB_D-*%
X90313750Y-83352499D03*
X138900000Y-77000000D03*
%TO.N,USB_D+*%
X141900000Y-75900000D03*
X87946500Y-83902499D03*
%TD*%
M02*
